<?xml version="1.0" encoding="utf-8"?>
<!-- Generator: Adobe Illustrator 24.3.0, SVG Export Plug-In . SVG Version: 6.00 Build 0)  -->
<svg version="1.1" id="Layer_1" xmlns="http://www.w3.org/2000/svg" xmlns:xlink="http://www.w3.org/1999/xlink" x="0px" y="0px"
	 viewBox="0 0 1100.6 522.7" style="enable-background:new 0 0 1100.6 522.7;" xml:space="preserve">
<style type="text/css">
	.alldevices0{fill:none;stroke:#808080;stroke-width:2;stroke-linecap:round;stroke-linejoin:round;stroke-miterlimit:10;}
	.alldevices1{fill:none;stroke:#EE5586;stroke-width:2;stroke-linecap:round;stroke-linejoin:round;stroke-miterlimit:10;}
	.alldevices2{fill:none;stroke:#808080;stroke-linecap:round;stroke-linejoin:round;stroke-miterlimit:10;}
	.alldevices3{fill:none;stroke:#EE5586;stroke-width:3;stroke-linecap:round;stroke-linejoin:round;stroke-miterlimit:10;}
	.alldevices4{fill:#EE5586;}
</style>
<path class="alldevices0" d="M807.5,83.9c0-0.3,0.2-0.5,0.5-0.5h80.2c0.3,0,0.5,0.2,0.5,0.5v1.6c0,0,0,2-4.1,2h-73c-4.1,0-4.1-2-4.1-2
	L807.5,83.9L807.5,83.9z M879.9,83.3V41.5c0-1.2-0.9-2.1-2.1-2.1H819c-1.2,0-2.1,1-2.1,2.1v41.8H879.9z"/>
<path id="svg-concept" class="alldevices1" d="M823.6,46.5h49.2v31.8h-49.2V46.5z"/>
<path class="alldevices0" d="M1037.8,203.1h-49.1c-2.9,0-5.3,2.4-5.3,5.3v91.3c0,2.9,2.4,5.3,5.3,5.3h49.1c2.9,0,5.3-2.4,5.3-5.3v-91.3
	C1043,205.5,1040.7,203.1,1037.8,203.1z"/>
<path id="svg-concept" class="alldevices0" d="M991.6,213.6h43.2v73.7h-43.2L991.6,213.6z"/>
<path class="alldevices2" d="M1005.8,224.4l-3.2,3.2 M1018.6,224.4l-17.6,17.5"/>
<path id="svg-concept" class="alldevices3" d="M228.8,308.2c-11.6,6.7-22.9,0.9-22.9-12.5v-78.2c0-13.4,11.4-19.2,23-12.5l67.9,39.4
	c11.6,6.7,11.6,17.7,0,24.4L228.8,308.2L228.8,308.2z"/>
<circle id="svg-concept" class="alldevices3" cx="1013.2" cy="256.6" r="82.2"/>
<circle class="alldevices0" cx="847.3" cy="66.9" r="59.2"/>
<circle class="alldevices0" cx="847.3" cy="453.7" r="59.2"/>
<path class="alldevices0" d="M387.6,469.7c-38.3,23.8-83.4,37.5-131.8,37.5C117.4,507.2,5.2,395,5.2,256.6S117.3,6,255.6,6
	C293.3,6,329,14.3,361,29.3 M813.3,462.7h67.9 M847.3,478.6v9.6 M862.4,488.2h-30.2"/>
<path id="svg-concept" class="alldevices1" d="M812.6,425.7h69.2v52.9h-69.2V425.7z"/>
<path class="alldevices0" d="M847.3,126.1c0,0-44.8,130.9-321.7,130.9 M525.5,257c287.1-0.4,321.7,137.5,321.7,137.5"/>
<g>
	<path id="svg-concept_6_" class="alldevices0" d="M402,53.2c63.1,45.4,104.2,119.6,104.2,203.4c0,68.6-27.6,130.7-72.3,176.1"/>
	
		<animate  accumulate="none" additive="replace" attributeName="opacity" begin="1s" calcMode="linear" dur="2s" fill="remove" repeatCount="indefinite" restart="always" values="0;3;0">
		</animate>
</g>
<g>
	<path id="svg-concept_7_" class="alldevices0" d="M349.9,102.6c55.7,30.3,93.6,89.3,93.6,157.2c0,51.8-22,98.3-57.2,131"/>
	
		<animate  accumulate="none" additive="replace" attributeName="opacity" begin="2s" calcMode="linear" dur="2s" fill="remove" repeatCount="indefinite" restart="always" values="0;3;0">
		</animate>
</g>
<g>
	<path id="svg-concept_8_" class="alldevices0" d="M316.7,149.8c37.3,22.5,62.1,63.3,62.1,110c0,39.8-18.2,75.5-46.6,99.1"/>
	
		<animate  accumulate="none" additive="replace" attributeName="opacity" begin="3s" calcMode="linear" dur="2s" fill="remove" repeatCount="indefinite" restart="always" values="0;3;0">
		</animate>
</g>
<path id="svg-concept" class="alldevices3" d="M525.5,256.6H931"/>
<g>
	<path id="svg-ico" class="alldevices4" d="M535.2,257c0,3.3-2.6,6-6,6c-3.3,0-6-2.6-6-6s2.6-6,6-6C532.5,251,535.2,253.6,535.2,257z
		"/>
	
		<animateMotion  accumulate="none" additive="replace" begin="0s" calcMode="paced" dur="5s" fill="remove" path="M0, 0 390 0 0 0" repeatCount="indefinite" restart="always">
		</animateMotion>
</g>
</svg>
