<?xml version="1.0" encoding="utf-8"?>
<!-- Generator: Adobe Illustrator 24.3.0, SVG Export Plug-In . SVG Version: 6.00 Build 0)  -->
<svg version="1.1" id="Layer_1" xmlns="http://www.w3.org/2000/svg" xmlns:xlink="http://www.w3.org/1999/xlink" x="0px" y="0px"
	 viewBox="0 0 643.4 642" style="enable-background:new 0 0 643.4 642;" xml:space="preserve">
<style type="text/css">
	.api0{fill:none;stroke:#808080;stroke-linecap:round;stroke-linejoin:round;stroke-miterlimit:10;}
	.api1{fill:none;stroke:#EE5586;stroke-width:2;stroke-linecap:round;stroke-linejoin:round;stroke-miterlimit:10;}
	.api2{fill:none;stroke:#EE5586;stroke-width:3;stroke-linecap:round;stroke-linejoin:round;stroke-miterlimit:10;}
	.api3{fill:none;stroke:#808080;stroke-miterlimit:10;}
	.api4{fill:none;stroke:#808080;stroke-width:2;stroke-linecap:round;stroke-linejoin:round;stroke-miterlimit:10;}
</style>
<g>
	<path class="api0" d="M320.8,111.6v35.1"/>
	<path class="api0" d="M329.8,82.6v5.5h-18v-5.5H329.8z"/>
	<path class="api0" d="M322.6,102.9v8.5h-3.5v-8.5H322.6z"/>
	<path id="svg-concept" class="api1" d="M309.3,101.7V89.4c0-0.7,0.6-1.3,1.3-1.3H331c0.7,0,1.3,0.6,1.3,1.3v12.3
		c0,0.7-0.6,1.3-1.3,1.3h-20.5C309.8,102.9,309.3,102.4,309.3,101.7z"/>
	
		<animateMotion  accumulate="none" additive="replace" begin="0s" calcMode="paced" dur="1s" fill="freeze" path="M0, 0 0 0 0 -35" restart="always">
		</animateMotion>
</g>
<g>
	<path class="api0" d="M469.2,173.1l-24.8,24.8"/>
	<path class="api0" d="M496.7,158.3l-4.5,4.5l-12.7-12.7l4.5-4.5L496.7,158.3z"/>
	<path class="api0" d="M476.7,168.2l-6,6l-2.5-2.5l6-6L476.7,168.2z"/>
	<path id="svg-concept" class="api1" d="M468.1,157.9l8.7-8.7c0.5-0.5,1.3-0.5,1.8,0l14.5,14.5c0.5,0.5,0.5,1.3,0,1.8l-8.7,8.7
		c-0.5,0.5-1.3,0.5-1.8,0l-14.5-14.5C467.6,159.2,467.6,158.4,468.1,157.9z"/>
	
		<animateMotion  accumulate="none" additive="replace" begin="0.5s" calcMode="paced" dur="1s" fill="freeze" path="M0 0 25 -25" restart="always">
		</animateMotion>
</g>
<g>
	<path class="api0" d="M530.8,321.6h-35.1"/>
	<path class="api0" d="M559.8,330.5h-5.5v-18h5.5V330.5z"/>
	<path class="api0" d="M539.5,323.4H531v-3.5h8.5V323.4z"/>
	<path id="svg-concept" class="api1" d="M540.7,310.1H553c0.7,0,1.3,0.6,1.3,1.3v20.5c0,0.7-0.6,1.3-1.3,1.3h-12.3
		c-0.7,0-1.3-0.6-1.3-1.3v-20.5C539.5,310.6,540,310.1,540.7,310.1z"/>
	
		<animateMotion  accumulate="none" additive="replace" begin="1s" calcMode="paced" dur="1s" fill="freeze" path="M0, 0 35 0 0" restart="always">
		</animateMotion>
</g>
<g>
	<path class="api0" d="M469.1,469.9l-24.8-24.7"/>
	<path class="api0" d="M483.8,497.4l-4.5-4.5l12.7-12.7l4.5,4.5L483.8,497.4z"/>
	<path class="api0" d="M473.9,477.4l-6-6l2.5-2.5l6,6L473.9,477.4z"/>
	<path id="svg-concept" class="api1" d="M484.2,468.8l8.7,8.7c0.5,0.5,0.5,1.3,0,1.8l-14.5,14.5c-0.5,0.5-1.3,0.5-1.8,0l-8.7-8.7
		c-0.5-0.5-0.5-1.3,0-1.8l14.5-14.5C483,468.4,483.8,468.4,484.2,468.8z"/>
	
		<animateMotion  accumulate="none" additive="replace" begin="1.5s" calcMode="paced" dur="1s" fill="freeze" path="M0 0 25 25" restart="always">
		</animateMotion>
</g>
<g>
	<path class="api0" d="M320.8,531.6v-35.1"/>
	<path class="api0" d="M311.9,560.6v-5.5h18v5.5H311.9z"/>
	<path class="api0" d="M319,540.3v-8.5h3.5v8.5H319z"/>
	<path id="svg-concept" class="api1" d="M332.3,541.5v12.3c0,0.7-0.6,1.3-1.3,1.3h-20.5c-0.7,0-1.3-0.6-1.3-1.3v-12.3
		c0-0.7,0.6-1.3,1.3-1.3H331C331.8,540.3,332.3,540.8,332.3,541.5z"/>
	
		<animateMotion  accumulate="none" additive="replace" begin="2s" calcMode="paced" dur="1s" fill="freeze" path="M0, 0 0 0 0 35" restart="always">
		</animateMotion>
</g>
<g>
	<path class="api0" d="M172.4,470.1l24.8-24.7"/>
	<path class="api0" d="M144.8,484.9l4.5-4.5l12.7,12.7l-4.5,4.5L144.8,484.9z"/>
	<path class="api0" d="M164.9,475l6-6l2.5,2.5l-6,6L164.9,475z"/>
	<path id="svg-concept" class="api1" d="M173.5,485.3l-8.7,8.7c-0.5,0.5-1.3,0.5-1.8,0l-14.5-14.5c-0.5-0.5-0.5-1.3,0-1.8l8.7-8.7
		c0.5-0.5,1.3-0.5,1.8,0l14.5,14.5C174,484,174,484.8,173.5,485.3z"/>
	
		<animateMotion  accumulate="none" additive="replace" begin="2.5s" calcMode="paced" dur="1s" fill="freeze" path="M0 0 -25 25" restart="always">
		</animateMotion>
</g>
<g>
	<path class="api0" d="M110.9,321.5h35 M81.8,312.5h5.5v18h-5.5V312.5z M102.1,319.7h8.5v3.5h-8.5V319.7z"/>
	<path id="svg-concept" class="api1" d="M100.9,333H88.6c-0.7,0-1.3-0.6-1.3-1.3v-20.5c0-0.7,0.6-1.3,1.3-1.3h12.3
		c0.7,0,1.3,0.6,1.3,1.3v20.5C102.1,332.4,101.6,333,100.9,333z"/>
	
		<animateMotion  accumulate="none" additive="replace" begin="3s" calcMode="paced" dur="1s" fill="freeze" path="M0, 0 -35 0 0" restart="always">
		</animateMotion>
</g>
<g>
	<path class="api0" d="M172.5,173.3l24.8,24.8"/>
	<path class="api0" d="M157.8,145.8l4.5,4.5L149.5,163l-4.5-4.5L157.8,145.8z"/>
	<path class="api0" d="M167.7,165.8l6,6l-2.5,2.5l-6-6L167.7,165.8z"/>
	<path id="svg-concept" class="api1" d="M157.4,174.4l-8.7-8.7c-0.5-0.5-0.5-1.3,0-1.8l14.5-14.5c0.5-0.5,1.3-0.5,1.8,0l8.7,8.7
		c0.5,0.5,0.5,1.3,0,1.8l-14.5,14.5C158.7,174.9,157.9,174.9,157.4,174.4z"/>
	
		<animateMotion  accumulate="none" additive="replace" begin="3.5s" calcMode="paced" dur="1s" fill="freeze" path="M0 0 -25 -25" restart="always">
		</animateMotion>
</g>
<path id="svg-concept" class="api2" d="M466.4,473.3c-37.8,36.3-89.1,58.5-145.6,58.5c-56.5,0-107.8-22.3-145.6-58.5"/>
<path id="svg-concept" class="api2" d="M135.2,420.5c-15.7-29.5-24.6-63.1-24.6-98.9c0-116.1,94.1-210.2,210.2-210.2
	S531,205.5,531,321.6c0,35.6-8.9,69.2-24.5,98.6"/>
<g>
	<path class="api3" d="M285.6,607.9c-52.4-8-100.1-30-139.3-62.1"/>
	<path class="api3" d="M502.8,554c-41.7,31-92.1,51.1-146.8,56"/>
	<path class="api3" d="M617.7,356.6c-6.8,56-29.6,107.1-63.7,148.6"/>
	<path class="api3" d="M554.3,137.5c34,41.6,56.8,92.7,63.5,148.9"/>
	<path class="api3" d="M355.8,32.3c55.1,4.9,105.7,25.2,147.6,56.5"/>
	<path class="api3" d="M145.7,97.1c39.2-32.2,87-54.4,139.5-62.5"/>
	<path class="api3" d="M41.9,286.5c6.2-51.6,25.9-99.1,55.5-138.7"/>
	<path class="api3" d="M97.8,495.3c-29.9-39.8-49.8-87.4-56-139.3"/>
</g>
<path id="svg-concept" class="api1" d="M232.9,278.4h-2.5c-0.7,0-1.2-0.5-1.2-1.2v-2.5c0-0.7,0.5-1.2,1.2-1.2h2.5
	c0.7,0,1.2,0.5,1.2,1.2v2.5C234.2,277.9,233.6,278.4,232.9,278.4z M226.8,296.8h-3.4c-0.9,0-1.7-0.8-1.7-1.7v-3.4
	c0-0.9,0.8-1.7,1.7-1.7h3.4c0.9,0,1.7,0.8,1.7,1.7v3.4C228.5,296,227.7,296.8,226.8,296.8z M316.8,278.4h-2.5
	c-0.7,0-1.2-0.5-1.2-1.2v-2.5c0-0.7,0.5-1.2,1.2-1.2h2.5c0.7,0,1.2,0.5,1.2,1.2v2.5C318,277.9,317.5,278.4,316.8,278.4z
	 M310.7,296.8h-3.4c-0.9,0-1.7-0.8-1.7-1.7v-3.4c0-0.9,0.8-1.7,1.7-1.7h3.4c0.9,0,1.7,0.8,1.7,1.7v3.4
	C312.4,296,311.6,296.8,310.7,296.8z M400.7,278.4h-2.5c-0.7,0-1.2-0.5-1.2-1.2v-2.5c0-0.7,0.5-1.2,1.2-1.2h2.5
	c0.7,0,1.2,0.5,1.2,1.2v2.5C401.9,277.9,401.3,278.4,400.7,278.4z M394.6,296.8h-3.4c-0.9,0-1.7-0.8-1.7-1.7v-3.4
	c0-0.9,0.8-1.7,1.7-1.7h3.4c0.9,0,1.7,0.8,1.7,1.7v3.4C396.2,296,395.5,296.8,394.6,296.8z M459.7,282.8c0,7.1-5.8,12.9-12.9,12.9
	s-12.9-5.8-12.9-12.9s5.8-12.9,12.9-12.9S459.7,275.7,459.7,282.8z"/>
<path id="svg-concept" class="api1" d="M451.6,282.8c0,2.6-2.1,4.8-4.8,4.8c-2.6,0-4.8-2.1-4.8-4.8s2.1-4.8,4.8-4.8
	C449.4,278,451.6,280.2,451.6,282.8z M459.7,282.8h-8.1 M442,282.8h-8.1 M232.9,358.4h-2.5c-0.7,0-1.2-0.5-1.2-1.2v-2.5
	c0-0.7,0.5-1.2,1.2-1.2h2.5c0.7,0,1.2,0.5,1.2,1.2v2.5C234.2,357.9,233.6,358.4,232.9,358.4z M226.8,376.8h-3.4
	c-0.9,0-1.7-0.8-1.7-1.7v-3.4c0-0.9,0.8-1.7,1.7-1.7h3.4c0.9,0,1.7,0.8,1.7,1.7v3.4C228.5,376,227.7,376.8,226.8,376.8z
	 M316.8,358.4h-2.5c-0.7,0-1.2-0.5-1.2-1.2v-2.5c0-0.7,0.5-1.2,1.2-1.2h2.5c0.7,0,1.2,0.5,1.2,1.2v2.5
	C318,357.9,317.5,358.4,316.8,358.4z M310.7,376.8h-3.4c-0.9,0-1.7-0.8-1.7-1.7v-3.4c0-0.9,0.8-1.7,1.7-1.7h3.4
	c0.9,0,1.7,0.8,1.7,1.7v3.4C312.4,376,311.6,376.8,310.7,376.8z M400.7,358.4h-2.5c-0.7,0-1.2-0.5-1.2-1.2v-2.5
	c0-0.7,0.5-1.2,1.2-1.2h2.5c0.7,0,1.2,0.5,1.2,1.2v2.5C401.9,357.9,401.3,358.4,400.7,358.4z M394.6,376.8h-3.4
	c-0.9,0-1.7-0.8-1.7-1.7v-3.4c0-0.9,0.8-1.7,1.7-1.7h3.4c0.9,0,1.7,0.8,1.7,1.7v3.4C396.2,376,395.5,376.8,394.6,376.8z
	 M459.7,362.8c0,7.1-5.8,12.9-12.9,12.9s-12.9-5.8-12.9-12.9s5.8-12.9,12.9-12.9S459.7,355.7,459.7,362.8z"/>
<path id="svg-concept" class="api1" d="M451.6,362.8c0,2.6-2.1,4.8-4.8,4.8c-2.6,0-4.8-2.1-4.8-4.8s2.1-4.8,4.8-4.8
	C449.4,358,451.6,360.2,451.6,362.8z M459.7,362.8h-8.1 M442,362.8h-8.1"/>
<path class="api4" d="M506.4,302.1c0,6-4.4,10.9-9.9,10.9H145.1c-5.5,0-9.9-4.9-9.9-10.9v-38.5c0-6,4.4-10.9,9.9-10.9h351.5
	c5.5,0,9.9,4.9,9.9,10.9v38.5H506.4z"/>
<path class="api0" d="M155.6,252.7v60 M486,252.7v60.2 M230.2,301.5h-63.7c-2.2,0-4-1.8-4-4v-8.1c0-2.2,1.8-4,4-4h63.7
	c2.2,0,4,1.8,4,4v8.1C234.2,299.7,232.4,301.5,230.2,301.5z M172,278.4h-2.5c-0.7,0-1.2-0.5-1.2-1.2v-2.5c0-0.7,0.5-1.2,1.2-1.2h2.5
	c0.7,0,1.2,0.5,1.2,1.2v2.5C173.2,277.9,172.6,278.4,172,278.4z M181.8,278.4h-2.5c-0.7,0-1.2-0.5-1.2-1.2v-2.5
	c0-0.7,0.5-1.2,1.2-1.2h2.5c0.7,0,1.2,0.5,1.2,1.2v2.5C183,277.9,182.5,278.4,181.8,278.4z M195.6,278.4h-2.5
	c-0.7,0-1.2-0.5-1.2-1.2v-2.5c0-0.7,0.5-1.2,1.2-1.2h2.5c0.7,0,1.2,0.5,1.2,1.2v2.5C196.8,277.9,196.3,278.4,195.6,278.4z
	 M172,267.8h-2.5c-0.7,0-1.2-0.5-1.2-1.2v-2.5c0-0.7,0.5-1.2,1.2-1.2h2.5c0.7,0,1.2,0.5,1.2,1.2v2.5
	C173.2,267.2,172.6,267.8,172,267.8z M181.8,267.8h-2.5c-0.7,0-1.2-0.5-1.2-1.2v-2.5c0-0.7,0.5-1.2,1.2-1.2h2.5
	c0.7,0,1.2,0.5,1.2,1.2v2.5C183,267.2,182.5,267.8,181.8,267.8z M232.8,267.8h-2.5c-0.7,0-1.2-0.5-1.2-1.2v-2.5
	c0-0.7,0.5-1.2,1.2-1.2h2.5c0.7,0,1.2,0.5,1.2,1.2v2.5C234,267.2,233.5,267.8,232.8,267.8z M205.4,278.4H203c-0.7,0-1.2-0.5-1.2-1.2
	v-2.5c0-0.7,0.5-1.2,1.2-1.2h2.5c0.7,0,1.2,0.5,1.2,1.2v2.5C206.7,277.9,206.1,278.4,205.4,278.4z M215.1,278.4h-2.5
	c-0.7,0-1.2-0.5-1.2-1.2v-2.5c0-0.7,0.5-1.2,1.2-1.2h2.5c0.7,0,1.2,0.5,1.2,1.2v2.5C216.3,277.9,215.8,278.4,215.1,278.4z"/>
<path class="api0" d="M215.3,278.4h-2.5c-0.7,0-1.2-0.5-1.2-1.2v-2.5c0-0.7,0.5-1.2,1.2-1.2h2.5c0.7,0,1.2,0.5,1.2,1.2v2.5
	C216.5,277.9,215.9,278.4,215.3,278.4z M215.3,267.8h-21.2c-0.7,0-1.2-0.5-1.2-1.2v-2.5c0-0.7,0.5-1.2,1.2-1.2h21.2
	c0.7,0,1.2,0.5,1.2,1.2v2.5C216.5,267.2,215.9,267.8,215.3,267.8z M187.7,285.4v16.1 M214.4,296.8H211c-0.9,0-1.7-0.8-1.7-1.7v-3.4
	c0-0.9,0.8-1.7,1.7-1.7h3.4c0.9,0,1.7,0.8,1.7,1.7v3.4C216.1,296,215.3,296.8,214.4,296.8z M314,301.5h-63.7c-2.2,0-4-1.8-4-4v-8.1
	c0-2.2,1.8-4,4-4H314c2.2,0,4,1.8,4,4v8.1C318,299.7,316.2,301.5,314,301.5z M255.8,278.4h-2.5c-0.7,0-1.2-0.5-1.2-1.2v-2.5
	c0-0.7,0.5-1.2,1.2-1.2h2.5c0.7,0,1.2,0.5,1.2,1.2v2.5C257.1,277.9,256.5,278.4,255.8,278.4z M265.7,278.4h-2.5
	c-0.7,0-1.2-0.5-1.2-1.2v-2.5c0-0.7,0.5-1.2,1.2-1.2h2.5c0.7,0,1.2,0.5,1.2,1.2v2.5C266.9,277.9,266.3,278.4,265.7,278.4z
	 M279.5,278.4H277c-0.7,0-1.2-0.5-1.2-1.2v-2.5c0-0.7,0.5-1.2,1.2-1.2h2.5c0.7,0,1.2,0.5,1.2,1.2v2.5
	C280.7,277.9,280.2,278.4,279.5,278.4z M255.8,267.8h-2.5c-0.7,0-1.2-0.5-1.2-1.2v-2.5c0-0.7,0.5-1.2,1.2-1.2h2.5
	c0.7,0,1.2,0.5,1.2,1.2v2.5C257.1,267.2,256.5,267.8,255.8,267.8z M265.7,267.8h-2.5c-0.7,0-1.2-0.5-1.2-1.2v-2.5
	c0-0.7,0.5-1.2,1.2-1.2h2.5c0.7,0,1.2,0.5,1.2,1.2v2.5C266.9,267.2,266.3,267.8,265.7,267.8z M316.7,267.8h-2.5
	c-0.7,0-1.2-0.5-1.2-1.2v-2.5c0-0.7,0.5-1.2,1.2-1.2h2.5c0.7,0,1.2,0.5,1.2,1.2v2.5C317.9,267.2,317.3,267.8,316.7,267.8z
	 M289.3,278.4h-2.5c-0.7,0-1.2-0.5-1.2-1.2v-2.5c0-0.7,0.5-1.2,1.2-1.2h2.5c0.7,0,1.2,0.5,1.2,1.2v2.5
	C290.5,277.9,290,278.4,289.3,278.4z M299,278.4h-2.5c-0.7,0-1.2-0.5-1.2-1.2v-2.5c0-0.7,0.5-1.2,1.2-1.2h2.5c0.7,0,1.2,0.5,1.2,1.2
	v2.5C300.2,277.9,299.6,278.4,299,278.4z"/>
<path class="api0" d="M299.1,278.4h-2.5c-0.7,0-1.2-0.5-1.2-1.2v-2.5c0-0.7,0.5-1.2,1.2-1.2h2.5c0.7,0,1.2,0.5,1.2,1.2v2.5
	C300.3,277.9,299.8,278.4,299.1,278.4z M299.1,267.8h-21.2c-0.7,0-1.2-0.5-1.2-1.2v-2.5c0-0.7,0.5-1.2,1.2-1.2h21.2
	c0.7,0,1.2,0.5,1.2,1.2v2.5C300.3,267.2,299.8,267.8,299.1,267.8z M271.6,285.4v16.1 M298.2,296.8h-3.4c-0.9,0-1.7-0.8-1.7-1.7v-3.4
	c0-0.9,0.8-1.7,1.7-1.7h3.4c0.9,0,1.7,0.8,1.7,1.7v3.4C299.9,296,299.2,296.8,298.2,296.8z M397.9,301.5h-63.7c-2.2,0-4-1.8-4-4
	v-8.1c0-2.2,1.8-4,4-4h63.7c2.2,0,4,1.8,4,4v8.1C401.9,299.7,400.1,301.5,397.9,301.5z M339.7,278.4h-2.5c-0.7,0-1.2-0.5-1.2-1.2
	v-2.5c0-0.7,0.5-1.2,1.2-1.2h2.5c0.7,0,1.2,0.5,1.2,1.2v2.5C340.9,277.9,340.4,278.4,339.7,278.4z M349.5,278.4H347
	c-0.7,0-1.2-0.5-1.2-1.2v-2.5c0-0.7,0.5-1.2,1.2-1.2h2.5c0.7,0,1.2,0.5,1.2,1.2v2.5C350.7,277.9,350.2,278.4,349.5,278.4z
	 M363.4,278.4h-2.5c-0.7,0-1.2-0.5-1.2-1.2v-2.5c0-0.7,0.5-1.2,1.2-1.2h2.5c0.7,0,1.2,0.5,1.2,1.2v2.5
	C364.6,277.9,364,278.4,363.4,278.4z M339.7,267.8h-2.5c-0.7,0-1.2-0.5-1.2-1.2v-2.5c0-0.7,0.5-1.2,1.2-1.2h2.5
	c0.7,0,1.2,0.5,1.2,1.2v2.5C340.9,267.2,340.4,267.8,339.7,267.8z M349.5,267.8H347c-0.7,0-1.2-0.5-1.2-1.2v-2.5
	c0-0.7,0.5-1.2,1.2-1.2h2.5c0.7,0,1.2,0.5,1.2,1.2v2.5C350.7,267.2,350.2,267.8,349.5,267.8z M400.5,267.8H398
	c-0.7,0-1.2-0.5-1.2-1.2v-2.5c0-0.7,0.5-1.2,1.2-1.2h2.5c0.7,0,1.2,0.5,1.2,1.2v2.5C401.8,267.2,401.2,267.8,400.5,267.8z
	 M373.2,278.4h-2.5c-0.7,0-1.2-0.5-1.2-1.2v-2.5c0-0.7,0.5-1.2,1.2-1.2h2.5c0.7,0,1.2,0.5,1.2,1.2v2.5
	C374.4,277.9,373.8,278.4,373.2,278.4z M382.8,278.4h-2.5c-0.7,0-1.2-0.5-1.2-1.2v-2.5c0-0.7,0.5-1.2,1.2-1.2h2.5
	c0.7,0,1.2,0.5,1.2,1.2v2.5C384,277.9,383.5,278.4,382.8,278.4z"/>
<path class="api0" d="M383,278.4h-2.5c-0.7,0-1.2-0.5-1.2-1.2v-2.5c0-0.7,0.5-1.2,1.2-1.2h2.5c0.7,0,1.2,0.5,1.2,1.2v2.5
	C384.2,277.9,383.7,278.4,383,278.4z"/>
<path id="svg-concept" class="api1" d="M477.7,294.2c0,2.1-1.7,3.8-3.8,3.8c-2.1,0-3.8-1.7-3.8-3.8c0-2.1,1.7-3.8,3.8-3.8
	C476,290.4,477.7,292.1,477.7,294.2z"/>
<path class="api0" d="M475.1,283.4h-2.5c-0.7,0-1.2-0.5-1.2-1.2v-2.5c0-0.7,0.5-1.2,1.2-1.2h2.5c0.7,0,1.2,0.5,1.2,1.2v2.5
	C476.3,282.9,475.8,283.4,475.1,283.4z M475.1,272.6h-2.5c-0.7,0-1.2-0.5-1.2-1.2v-2.5c0-0.7,0.5-1.2,1.2-1.2h2.5
	c0.7,0,1.2,0.5,1.2,1.2v2.5C476.3,272.1,475.8,272.6,475.1,272.6z M383,267.8h-21.2c-0.7,0-1.2-0.5-1.2-1.2v-2.5
	c0-0.7,0.5-1.2,1.2-1.2H383c0.7,0,1.2,0.5,1.2,1.2v2.5C384.2,267.2,383.7,267.8,383,267.8z M355.4,285.4v16.1 M382.1,296.8h-3.4
	c-0.9,0-1.7-0.8-1.7-1.7v-3.4c0-0.9,0.8-1.7,1.7-1.7h3.4c0.9,0,1.7,0.8,1.7,1.7v3.4C383.8,296,383,296.8,382.1,296.8z M241,252.7
	v60.2 M226,183h-12.1 M222.9,187.7h-11.6 M219.9,192.6h-11.7 M216.8,197.5h-11.7 M213.7,202.4H202 M146.7,272.9v17.8 M495,272.9
	v17.8 M324.3,252.7v60.2 M407.6,252.7v60.2"/>
<path class="api4" d="M506.4,382.1c0,6-4.4,10.9-9.9,10.9H145.1c-5.5,0-9.9-4.9-9.9-10.9v-38.5c0-6,4.4-10.9,9.9-10.9h351.5
	c5.5,0,9.9,4.9,9.9,10.9v38.5H506.4z"/>
<path class="api0" d="M155.6,332.7v60 M486,332.7v60.2 M230.2,381.5h-63.7c-2.2,0-4-1.8-4-4v-8.1c0-2.2,1.8-4,4-4h63.7
	c2.2,0,4,1.8,4,4v8.1C234.2,379.7,232.4,381.5,230.2,381.5z M172,358.4h-2.5c-0.7,0-1.2-0.5-1.2-1.2v-2.5c0-0.7,0.5-1.2,1.2-1.2h2.5
	c0.7,0,1.2,0.5,1.2,1.2v2.5C173.2,357.9,172.6,358.4,172,358.4z M181.8,358.4h-2.5c-0.7,0-1.2-0.5-1.2-1.2v-2.5
	c0-0.7,0.5-1.2,1.2-1.2h2.5c0.7,0,1.2,0.5,1.2,1.2v2.5C183,357.9,182.5,358.4,181.8,358.4z M195.6,358.4h-2.5
	c-0.7,0-1.2-0.5-1.2-1.2v-2.5c0-0.7,0.5-1.2,1.2-1.2h2.5c0.7,0,1.2,0.5,1.2,1.2v2.5C196.8,357.9,196.3,358.4,195.6,358.4z
	 M172,347.8h-2.5c-0.7,0-1.2-0.5-1.2-1.2v-2.5c0-0.7,0.5-1.2,1.2-1.2h2.5c0.7,0,1.2,0.5,1.2,1.2v2.5
	C173.2,347.2,172.6,347.8,172,347.8z M181.8,347.8h-2.5c-0.7,0-1.2-0.5-1.2-1.2v-2.5c0-0.7,0.5-1.2,1.2-1.2h2.5
	c0.7,0,1.2,0.5,1.2,1.2v2.5C183,347.2,182.5,347.8,181.8,347.8z M232.8,347.8h-2.5c-0.7,0-1.2-0.5-1.2-1.2v-2.5
	c0-0.7,0.5-1.2,1.2-1.2h2.5c0.7,0,1.2,0.5,1.2,1.2v2.5C234,347.2,233.5,347.8,232.8,347.8z M205.4,358.4H203c-0.7,0-1.2-0.5-1.2-1.2
	v-2.5c0-0.7,0.5-1.2,1.2-1.2h2.5c0.7,0,1.2,0.5,1.2,1.2v2.5C206.7,357.9,206.1,358.4,205.4,358.4z M215.1,358.4h-2.5
	c-0.7,0-1.2-0.5-1.2-1.2v-2.5c0-0.7,0.5-1.2,1.2-1.2h2.5c0.7,0,1.2,0.5,1.2,1.2v2.5C216.3,357.9,215.8,358.4,215.1,358.4z"/>
<path class="api0" d="M215.3,358.4h-2.5c-0.7,0-1.2-0.5-1.2-1.2v-2.5c0-0.7,0.5-1.2,1.2-1.2h2.5c0.7,0,1.2,0.5,1.2,1.2v2.5
	C216.5,357.9,215.9,358.4,215.3,358.4z M215.3,347.8h-21.2c-0.7,0-1.2-0.5-1.2-1.2v-2.5c0-0.7,0.5-1.2,1.2-1.2h21.2
	c0.7,0,1.2,0.5,1.2,1.2v2.5C216.5,347.2,215.9,347.8,215.3,347.8z M187.7,365.4v16.1 M214.4,376.8H211c-0.9,0-1.7-0.8-1.7-1.7v-3.4
	c0-0.9,0.8-1.7,1.7-1.7h3.4c0.9,0,1.7,0.8,1.7,1.7v3.4C216.1,376,215.3,376.8,214.4,376.8z M314,381.5h-63.7c-2.2,0-4-1.8-4-4v-8.1
	c0-2.2,1.8-4,4-4H314c2.2,0,4,1.8,4,4v8.1C318,379.7,316.2,381.5,314,381.5z M255.8,358.4h-2.5c-0.7,0-1.2-0.5-1.2-1.2v-2.5
	c0-0.7,0.5-1.2,1.2-1.2h2.5c0.7,0,1.2,0.5,1.2,1.2v2.5C257.1,357.9,256.5,358.4,255.8,358.4z M265.7,358.4h-2.5
	c-0.7,0-1.2-0.5-1.2-1.2v-2.5c0-0.7,0.5-1.2,1.2-1.2h2.5c0.7,0,1.2,0.5,1.2,1.2v2.5C266.9,357.9,266.3,358.4,265.7,358.4z
	 M279.5,358.4H277c-0.7,0-1.2-0.5-1.2-1.2v-2.5c0-0.7,0.5-1.2,1.2-1.2h2.5c0.7,0,1.2,0.5,1.2,1.2v2.5
	C280.7,357.9,280.2,358.4,279.5,358.4z M255.8,347.8h-2.5c-0.7,0-1.2-0.5-1.2-1.2v-2.5c0-0.7,0.5-1.2,1.2-1.2h2.5
	c0.7,0,1.2,0.5,1.2,1.2v2.5C257.1,347.2,256.5,347.8,255.8,347.8z M265.7,347.8h-2.5c-0.7,0-1.2-0.5-1.2-1.2v-2.5
	c0-0.7,0.5-1.2,1.2-1.2h2.5c0.7,0,1.2,0.5,1.2,1.2v2.5C266.9,347.2,266.3,347.8,265.7,347.8z M316.7,347.8h-2.5
	c-0.7,0-1.2-0.5-1.2-1.2v-2.5c0-0.7,0.5-1.2,1.2-1.2h2.5c0.7,0,1.2,0.5,1.2,1.2v2.5C317.9,347.2,317.3,347.8,316.7,347.8z
	 M289.3,358.4h-2.5c-0.7,0-1.2-0.5-1.2-1.2v-2.5c0-0.7,0.5-1.2,1.2-1.2h2.5c0.7,0,1.2,0.5,1.2,1.2v2.5
	C290.5,357.9,290,358.4,289.3,358.4z M299,358.4h-2.5c-0.7,0-1.2-0.5-1.2-1.2v-2.5c0-0.7,0.5-1.2,1.2-1.2h2.5c0.7,0,1.2,0.5,1.2,1.2
	v2.5C300.2,357.9,299.6,358.4,299,358.4z"/>
<path class="api0" d="M299.1,358.4h-2.5c-0.7,0-1.2-0.5-1.2-1.2v-2.5c0-0.7,0.5-1.2,1.2-1.2h2.5c0.7,0,1.2,0.5,1.2,1.2v2.5
	C300.3,357.9,299.8,358.4,299.1,358.4z M299.1,347.8h-21.2c-0.7,0-1.2-0.5-1.2-1.2v-2.5c0-0.7,0.5-1.2,1.2-1.2h21.2
	c0.7,0,1.2,0.5,1.2,1.2v2.5C300.3,347.2,299.8,347.8,299.1,347.8z M271.6,365.4v16.1 M298.2,376.8h-3.4c-0.9,0-1.7-0.8-1.7-1.7v-3.4
	c0-0.9,0.8-1.7,1.7-1.7h3.4c0.9,0,1.7,0.8,1.7,1.7v3.4C299.9,376,299.2,376.8,298.2,376.8z M397.9,381.5h-63.7c-2.2,0-4-1.8-4-4
	v-8.1c0-2.2,1.8-4,4-4h63.7c2.2,0,4,1.8,4,4v8.1C401.9,379.7,400.1,381.5,397.9,381.5z M339.7,358.4h-2.5c-0.7,0-1.2-0.5-1.2-1.2
	v-2.5c0-0.7,0.5-1.2,1.2-1.2h2.5c0.7,0,1.2,0.5,1.2,1.2v2.5C340.9,357.9,340.4,358.4,339.7,358.4z M349.5,358.4H347
	c-0.7,0-1.2-0.5-1.2-1.2v-2.5c0-0.7,0.5-1.2,1.2-1.2h2.5c0.7,0,1.2,0.5,1.2,1.2v2.5C350.7,357.9,350.2,358.4,349.5,358.4z
	 M363.4,358.4h-2.5c-0.7,0-1.2-0.5-1.2-1.2v-2.5c0-0.7,0.5-1.2,1.2-1.2h2.5c0.7,0,1.2,0.5,1.2,1.2v2.5
	C364.6,357.9,364,358.4,363.4,358.4z M339.7,347.8h-2.5c-0.7,0-1.2-0.5-1.2-1.2v-2.5c0-0.7,0.5-1.2,1.2-1.2h2.5
	c0.7,0,1.2,0.5,1.2,1.2v2.5C340.9,347.2,340.4,347.8,339.7,347.8z M349.5,347.8H347c-0.7,0-1.2-0.5-1.2-1.2v-2.5
	c0-0.7,0.5-1.2,1.2-1.2h2.5c0.7,0,1.2,0.5,1.2,1.2v2.5C350.7,347.2,350.2,347.8,349.5,347.8z M400.5,347.8H398
	c-0.7,0-1.2-0.5-1.2-1.2v-2.5c0-0.7,0.5-1.2,1.2-1.2h2.5c0.7,0,1.2,0.5,1.2,1.2v2.5C401.8,347.2,401.2,347.8,400.5,347.8z
	 M373.2,358.4h-2.5c-0.7,0-1.2-0.5-1.2-1.2v-2.5c0-0.7,0.5-1.2,1.2-1.2h2.5c0.7,0,1.2,0.5,1.2,1.2v2.5
	C374.4,357.9,373.8,358.4,373.2,358.4z M382.8,358.4h-2.5c-0.7,0-1.2-0.5-1.2-1.2v-2.5c0-0.7,0.5-1.2,1.2-1.2h2.5
	c0.7,0,1.2,0.5,1.2,1.2v2.5C384,357.9,383.5,358.4,382.8,358.4z"/>
<path class="api0" d="M383,358.4h-2.5c-0.7,0-1.2-0.5-1.2-1.2v-2.5c0-0.7,0.5-1.2,1.2-1.2h2.5c0.7,0,1.2,0.5,1.2,1.2v2.5
	C384.2,357.9,383.7,358.4,383,358.4z"/>
<path id="svg-concept" class="api1" d="M477.7,374.2c0,2.1-1.7,3.8-3.8,3.8c-2.1,0-3.8-1.7-3.8-3.8c0-2.1,1.7-3.8,3.8-3.8
	C476,370.4,477.7,372.1,477.7,374.2z"/>
<path class="api0" d="M475.1,363.4h-2.5c-0.7,0-1.2-0.5-1.2-1.2v-2.5c0-0.7,0.5-1.2,1.2-1.2h2.5c0.7,0,1.2,0.5,1.2,1.2v2.5
	C476.3,362.9,475.8,363.4,475.1,363.4z M475.1,352.6h-2.5c-0.7,0-1.2-0.5-1.2-1.2v-2.5c0-0.7,0.5-1.2,1.2-1.2h2.5
	c0.7,0,1.2,0.5,1.2,1.2v2.5C476.3,352.1,475.8,352.6,475.1,352.6z M383,347.8h-21.2c-0.7,0-1.2-0.5-1.2-1.2v-2.5
	c0-0.7,0.5-1.2,1.2-1.2H383c0.7,0,1.2,0.5,1.2,1.2v2.5C384.2,347.2,383.7,347.8,383,347.8z M355.4,365.4v16.1 M382.1,376.8h-3.4
	c-0.9,0-1.7-0.8-1.7-1.7v-3.4c0-0.9,0.8-1.7,1.7-1.7h3.4c0.9,0,1.7,0.8,1.7,1.7v3.4C383.8,376,383,376.8,382.1,376.8z M241,332.7
	v60.2 M146.7,352.9v17.8 M495,352.9v17.8 M324.3,332.7v60.2 M407.6,332.7v60.2"/>
<path class="api4" d="M506.4,462.1c0,6-4.4,10.9-9.9,10.9H145.1c-5.5,0-9.9-4.9-9.9-10.9v-38.5c0-6,4.4-10.9,9.9-10.9h351.5
	c5.5,0,9.9,4.9,9.9,10.9v38.5H506.4z"/>
<path class="api0" d="M145.1,252.7l53.3-74.9c2.6-4.2,6.8-7.5,15-7.5h221c8.2,0,11.8,2.9,15,7.5l47.2,74.9 M484,392.9l12.5,19.8
	 M145.1,412.7l14.2-20 M484,312.9l12.5,19.8 M145.1,332.7l14-19.8"/>
<path class="api0" d="M382.8,197.6H429c2.8,0,5.8-2.4,5-5l-1.8-4.9c-0.9-3.3-3.5-4.7-6.2-4.7h-43.2c-2.8,0-5,2.2-5,5v4.6
	C377.8,195.3,380,197.6,382.8,197.6L382.8,197.6z"/>
<path id="svg-concept" class="api1" d="M232.9,438.4h-2.5c-0.7,0-1.2-0.5-1.2-1.2v-2.5c0-0.7,0.5-1.2,1.2-1.2h2.5
	c0.7,0,1.2,0.5,1.2,1.2v2.5C234.2,437.9,233.6,438.4,232.9,438.4z M226.8,456.8h-3.4c-0.9,0-1.7-0.8-1.7-1.7v-3.4
	c0-0.9,0.8-1.7,1.7-1.7h3.4c0.9,0,1.7,0.8,1.7,1.7v3.4C228.5,456,227.7,456.8,226.8,456.8z M316.8,438.4h-2.5
	c-0.7,0-1.2-0.5-1.2-1.2v-2.5c0-0.7,0.5-1.2,1.2-1.2h2.5c0.7,0,1.2,0.5,1.2,1.2v2.5C318,437.9,317.5,438.4,316.8,438.4z
	 M310.7,456.8h-3.4c-0.9,0-1.7-0.8-1.7-1.7v-3.4c0-0.9,0.8-1.7,1.7-1.7h3.4c0.9,0,1.7,0.8,1.7,1.7v3.4
	C312.4,456,311.6,456.8,310.7,456.8z M400.7,438.4h-2.5c-0.7,0-1.2-0.5-1.2-1.2v-2.5c0-0.7,0.5-1.2,1.2-1.2h2.5
	c0.7,0,1.2,0.5,1.2,1.2v2.5C401.9,437.9,401.3,438.4,400.7,438.4z M394.6,456.8h-3.4c-0.9,0-1.7-0.8-1.7-1.7v-3.4
	c0-0.9,0.8-1.7,1.7-1.7h3.4c0.9,0,1.7,0.8,1.7,1.7v3.4C396.2,456,395.5,456.8,394.6,456.8z M459.7,442.8c0,7.1-5.8,12.9-12.9,12.9
	s-12.9-5.8-12.9-12.9s5.8-12.9,12.9-12.9S459.7,435.7,459.7,442.8z"/>
<path id="svg-concept" class="api1" d="M451.6,442.8c0,2.6-2.1,4.8-4.8,4.8c-2.6,0-4.8-2.1-4.8-4.8s2.1-4.8,4.8-4.8
	C449.4,438,451.6,440.2,451.6,442.8z M459.7,442.8h-8.1 M442,442.8h-8.1"/>
<path class="api0" d="M155.6,412.7v60 M486,412.7v60.2 M230.2,461.5h-63.7c-2.2,0-4-1.8-4-4v-8.1c0-2.2,1.8-4,4-4h63.7
	c2.2,0,4,1.8,4,4v8.1C234.2,459.7,232.4,461.5,230.2,461.5z M172,438.4h-2.5c-0.7,0-1.2-0.5-1.2-1.2v-2.5c0-0.7,0.5-1.2,1.2-1.2h2.5
	c0.7,0,1.2,0.5,1.2,1.2v2.5C173.2,437.9,172.6,438.4,172,438.4z M181.8,438.4h-2.5c-0.7,0-1.2-0.5-1.2-1.2v-2.5
	c0-0.7,0.5-1.2,1.2-1.2h2.5c0.7,0,1.2,0.5,1.2,1.2v2.5C183,437.9,182.5,438.4,181.8,438.4z M195.6,438.4h-2.5
	c-0.7,0-1.2-0.5-1.2-1.2v-2.5c0-0.7,0.5-1.2,1.2-1.2h2.5c0.7,0,1.2,0.5,1.2,1.2v2.5C196.8,437.9,196.3,438.4,195.6,438.4z
	 M172,427.8h-2.5c-0.7,0-1.2-0.5-1.2-1.2v-2.5c0-0.7,0.5-1.2,1.2-1.2h2.5c0.7,0,1.2,0.5,1.2,1.2v2.5
	C173.2,427.2,172.6,427.8,172,427.8z M181.8,427.8h-2.5c-0.7,0-1.2-0.5-1.2-1.2v-2.5c0-0.7,0.5-1.2,1.2-1.2h2.5
	c0.7,0,1.2,0.5,1.2,1.2v2.5C183,427.2,182.5,427.8,181.8,427.8z M232.8,427.8h-2.5c-0.7,0-1.2-0.5-1.2-1.2v-2.5
	c0-0.7,0.5-1.2,1.2-1.2h2.5c0.7,0,1.2,0.5,1.2,1.2v2.5C234,427.2,233.5,427.8,232.8,427.8z M205.4,438.4H203c-0.7,0-1.2-0.5-1.2-1.2
	v-2.5c0-0.7,0.5-1.2,1.2-1.2h2.5c0.7,0,1.2,0.5,1.2,1.2v2.5C206.7,437.9,206.1,438.4,205.4,438.4z M215.1,438.4h-2.5
	c-0.7,0-1.2-0.5-1.2-1.2v-2.5c0-0.7,0.5-1.2,1.2-1.2h2.5c0.7,0,1.2,0.5,1.2,1.2v2.5C216.3,437.9,215.8,438.4,215.1,438.4z"/>
<path class="api0" d="M215.3,438.4h-2.5c-0.7,0-1.2-0.5-1.2-1.2v-2.5c0-0.7,0.5-1.2,1.2-1.2h2.5c0.7,0,1.2,0.5,1.2,1.2v2.5
	C216.5,437.9,215.9,438.4,215.3,438.4z M215.3,427.8h-21.2c-0.7,0-1.2-0.5-1.2-1.2v-2.5c0-0.7,0.5-1.2,1.2-1.2h21.2
	c0.7,0,1.2,0.5,1.2,1.2v2.5C216.5,427.2,215.9,427.8,215.3,427.8z M187.7,445.4v16.1 M214.4,456.8H211c-0.9,0-1.7-0.8-1.7-1.7v-3.4
	c0-0.9,0.8-1.7,1.7-1.7h3.4c0.9,0,1.7,0.8,1.7,1.7v3.4C216.1,456,215.3,456.8,214.4,456.8z M314,461.5h-63.7c-2.2,0-4-1.8-4-4v-8.1
	c0-2.2,1.8-4,4-4H314c2.2,0,4,1.8,4,4v8.1C318,459.7,316.2,461.5,314,461.5z M255.8,438.4h-2.5c-0.7,0-1.2-0.5-1.2-1.2v-2.5
	c0-0.7,0.5-1.2,1.2-1.2h2.5c0.7,0,1.2,0.5,1.2,1.2v2.5C257.1,437.9,256.5,438.4,255.8,438.4z M265.7,438.4h-2.5
	c-0.7,0-1.2-0.5-1.2-1.2v-2.5c0-0.7,0.5-1.2,1.2-1.2h2.5c0.7,0,1.2,0.5,1.2,1.2v2.5C266.9,437.9,266.3,438.4,265.7,438.4z
	 M279.5,438.4H277c-0.7,0-1.2-0.5-1.2-1.2v-2.5c0-0.7,0.5-1.2,1.2-1.2h2.5c0.7,0,1.2,0.5,1.2,1.2v2.5
	C280.7,437.9,280.2,438.4,279.5,438.4z M255.8,427.8h-2.5c-0.7,0-1.2-0.5-1.2-1.2v-2.5c0-0.7,0.5-1.2,1.2-1.2h2.5
	c0.7,0,1.2,0.5,1.2,1.2v2.5C257.1,427.2,256.5,427.8,255.8,427.8z M265.7,427.8h-2.5c-0.7,0-1.2-0.5-1.2-1.2v-2.5
	c0-0.7,0.5-1.2,1.2-1.2h2.5c0.7,0,1.2,0.5,1.2,1.2v2.5C266.9,427.2,266.3,427.8,265.7,427.8z M316.7,427.8h-2.5
	c-0.7,0-1.2-0.5-1.2-1.2v-2.5c0-0.7,0.5-1.2,1.2-1.2h2.5c0.7,0,1.2,0.5,1.2,1.2v2.5C317.9,427.2,317.3,427.8,316.7,427.8z
	 M289.3,438.4h-2.5c-0.7,0-1.2-0.5-1.2-1.2v-2.5c0-0.7,0.5-1.2,1.2-1.2h2.5c0.7,0,1.2,0.5,1.2,1.2v2.5
	C290.5,437.9,290,438.4,289.3,438.4z M299,438.4h-2.5c-0.7,0-1.2-0.5-1.2-1.2v-2.5c0-0.7,0.5-1.2,1.2-1.2h2.5c0.7,0,1.2,0.5,1.2,1.2
	v2.5C300.2,437.9,299.6,438.4,299,438.4z"/>
<path class="api0" d="M299.1,438.4h-2.5c-0.7,0-1.2-0.5-1.2-1.2v-2.5c0-0.7,0.5-1.2,1.2-1.2h2.5c0.7,0,1.2,0.5,1.2,1.2v2.5
	C300.3,437.9,299.8,438.4,299.1,438.4z M299.1,427.8h-21.2c-0.7,0-1.2-0.5-1.2-1.2v-2.5c0-0.7,0.5-1.2,1.2-1.2h21.2
	c0.7,0,1.2,0.5,1.2,1.2v2.5C300.3,427.2,299.8,427.8,299.1,427.8z M271.6,445.4v16.1 M298.2,456.8h-3.4c-0.9,0-1.7-0.8-1.7-1.7v-3.4
	c0-0.9,0.8-1.7,1.7-1.7h3.4c0.9,0,1.7,0.8,1.7,1.7v3.4C299.9,456,299.2,456.8,298.2,456.8z M397.9,461.5h-63.7c-2.2,0-4-1.8-4-4
	v-8.1c0-2.2,1.8-4,4-4h63.7c2.2,0,4,1.8,4,4v8.1C401.9,459.7,400.1,461.5,397.9,461.5z M339.7,438.4h-2.5c-0.7,0-1.2-0.5-1.2-1.2
	v-2.5c0-0.7,0.5-1.2,1.2-1.2h2.5c0.7,0,1.2,0.5,1.2,1.2v2.5C340.9,437.9,340.4,438.4,339.7,438.4z M349.5,438.4H347
	c-0.7,0-1.2-0.5-1.2-1.2v-2.5c0-0.7,0.5-1.2,1.2-1.2h2.5c0.7,0,1.2,0.5,1.2,1.2v2.5C350.7,437.9,350.2,438.4,349.5,438.4z
	 M363.4,438.4h-2.5c-0.7,0-1.2-0.5-1.2-1.2v-2.5c0-0.7,0.5-1.2,1.2-1.2h2.5c0.7,0,1.2,0.5,1.2,1.2v2.5
	C364.6,437.9,364,438.4,363.4,438.4z M339.7,427.8h-2.5c-0.7,0-1.2-0.5-1.2-1.2v-2.5c0-0.7,0.5-1.2,1.2-1.2h2.5
	c0.7,0,1.2,0.5,1.2,1.2v2.5C340.9,427.2,340.4,427.8,339.7,427.8z M349.5,427.8H347c-0.7,0-1.2-0.5-1.2-1.2v-2.5
	c0-0.7,0.5-1.2,1.2-1.2h2.5c0.7,0,1.2,0.5,1.2,1.2v2.5C350.7,427.2,350.2,427.8,349.5,427.8z M400.5,427.8H398
	c-0.7,0-1.2-0.5-1.2-1.2v-2.5c0-0.7,0.5-1.2,1.2-1.2h2.5c0.7,0,1.2,0.5,1.2,1.2v2.5C401.8,427.2,401.2,427.8,400.5,427.8z
	 M373.2,438.4h-2.5c-0.7,0-1.2-0.5-1.2-1.2v-2.5c0-0.7,0.5-1.2,1.2-1.2h2.5c0.7,0,1.2,0.5,1.2,1.2v2.5
	C374.4,437.9,373.8,438.4,373.2,438.4z M383,438.4h-2.5c-0.7,0-1.2-0.5-1.2-1.2v-2.5c0-0.7,0.5-1.2,1.2-1.2h2.5
	c0.7,0,1.2,0.5,1.2,1.2v2.5C384.2,437.9,383.7,438.4,383,438.4z"/>
<path id="svg-concept" class="api1" d="M477.7,454.2c0,2.1-1.7,3.8-3.8,3.8c-2.1,0-3.8-1.7-3.8-3.8c0-2.1,1.7-3.8,3.8-3.8
	C476,450.4,477.7,452.1,477.7,454.2z"/>
<path class="api0" d="M475.1,443.4h-2.5c-0.7,0-1.2-0.5-1.2-1.2v-2.5c0-0.7,0.5-1.2,1.2-1.2h2.5c0.7,0,1.2,0.5,1.2,1.2v2.5
	C476.3,442.9,475.8,443.4,475.1,443.4z M475.1,432.6h-2.5c-0.7,0-1.2-0.5-1.2-1.2v-2.5c0-0.7,0.5-1.2,1.2-1.2h2.5
	c0.7,0,1.2,0.5,1.2,1.2v2.5C476.3,432.1,475.8,432.6,475.1,432.6z M383,427.8h-21.2c-0.7,0-1.2-0.5-1.2-1.2v-2.5
	c0-0.7,0.5-1.2,1.2-1.2H383c0.7,0,1.2,0.5,1.2,1.2v2.5C384.2,427.2,383.7,427.8,383,427.8z M355.4,445.4v16.1 M382.1,456.8h-3.4
	c-0.9,0-1.7-0.8-1.7-1.7v-3.4c0-0.9,0.8-1.7,1.7-1.7h3.4c0.9,0,1.7,0.8,1.7,1.7v3.4C383.8,456,383,456.8,382.1,456.8z M241,412.7
	v60.2 M146.7,432.9v17.8 M495,432.9v17.8 M324.3,412.7v60.2 M407.6,412.7v60.2"/>
<g>
	<path class="api3" d="M285.6,57.8V5.3c0-0.7,0.6-1.3,1.3-1.3h67.6c0.7,0,1.3,0.6,1.3,1.3v52.6
		c0,0.7-0.6,1.3-1.3,1.3h-19.2V54h-29v5.2h-19.4C286.2,59.1,285.6,58.5,285.6,57.8z"/>
	<path  class="api0" d="M302.7,45V17.5c0-0.4,0.3-0.7,0.7-0.7h35.4c0.4,0,0.7,0.3,0.7,0.7V45
		c0,0.4-0.3,0.7-0.7,0.7h-35.4C303,45.7,302.7,45.4,302.7,45z"/>
	<path  class="api3" d="M321.1,34.6c-1.7,0-3-1.3-3-3s1.3-3,3-3s3,1.3,3,3C324.1,33.2,322.7,34.6,321.1,34.6z"/>
</g>
<g>
	<path class="api3" d="M482.4,110.2L519.6,73c0.5-0.5,1.3-0.5,1.8,0l47.8,47.8c0.5,0.5,0.5,1.3,0,1.8L532,159.8
		c-0.5,0.5-1.3,0.5-1.8,0l-13.5-13.5l3.7-3.7L499.8,122l-3.7,3.7L482.4,112C481.9,111.5,481.9,110.7,482.4,110.2z"/>
	<path class="api0" d="M503.5,113.2L523,93.8c0.3-0.3,0.7-0.3,0.9,0l25,25c0.3,0.3,0.3,0.7,0,0.9l-19.5,19.5
		c-0.3,0.3-0.7,0.3-0.9,0l-25-25C503.3,113.9,503.3,113.5,503.5,113.2L503.5,113.2z"/>
	<path  class="api3" d="M523.9,118.8c-1.2-1.2-1.2-3.1,0-4.2c1.2-1.2,3.1-1.2,4.2,0c1.2,1.2,1.2,3.1,0,4.2
		C527,120,525.1,120,523.9,118.8z"/>
</g>
<g>
	<path class="api3" d="M584.5,286.4h52.6c0.7,0,1.3,0.6,1.3,1.3v67.6c0,0.7-0.6,1.3-1.3,1.3h-52.6
		c-0.7,0-1.3-0.6-1.3-1.3v-19.2h5.2v-29h-5.2v-19.4C583.3,287,583.9,286.4,584.5,286.4z"/>
	<path class="api0" d="M597.3,303.5h27.5c0.4,0,0.7,0.3,0.7,0.7v35.4c0,0.4-0.3,0.7-0.7,0.7h-27.5
		c-0.4,0-0.7-0.3-0.7-0.7v-35.4C596.7,303.8,597,303.5,597.3,303.5z"/>
	<path class="api3" d="M607.8,321.9c0-1.7,1.3-3,3-3s3,1.3,3,3s-1.3,3-3,3C609.2,324.9,607.8,323.5,607.8,321.9z"/>
</g>
<g>
	<path class="api3" d="M531.9,483.1l37.2,37.2c0.5,0.5,0.5,1.3,0,1.8l-47.8,47.8c-0.5,0.5-1.3,0.5-1.8,0
		l-37.2-37.2c-0.5-0.5-0.5-1.3,0-1.8l13.5-13.5l3.7,3.7l20.5-20.5l-3.7-3.7l13.7-13.7C530.7,482.6,531.5,482.6,531.9,483.1
		L531.9,483.1z"/>
	<path class="api0" d="M528.9,504.2l19.5,19.5c0.3,0.3,0.3,0.7,0,0.9l-25,25c-0.3,0.3-0.7,0.3-0.9,0L503,530.2
		c-0.3-0.3-0.3-0.7,0-0.9l25-25C528.2,504,528.6,504,528.9,504.2L528.9,504.2z"/>
	<path class="api3" d="M523.3,524.6c1.2-1.2,3.1-1.2,4.2,0c1.2,1.2,1.2,3.1,0,4.2s-3.1,1.2-4.2,0
		C522.2,527.7,522.2,525.8,523.3,524.6z"/>
</g>
<g>
	<path class="api3" d="M356,585.4V638c0,0.7-0.6,1.3-1.3,1.3h-67.6c-0.7,0-1.3-0.6-1.3-1.3v-52.6
		c0-0.7,0.6-1.3,1.3-1.3h19.2v5.2h29v-5.2h19.4C355.4,584.1,356,584.7,356,585.4z"/>
	<path class="api0" d="M338.9,598.2v27.5c0,0.4-0.3,0.7-0.7,0.7h-35.4c-0.4,0-0.7-0.3-0.7-0.7v-27.5
		c0-0.4,0.3-0.7,0.7-0.7h35.4C338.6,597.5,338.9,597.8,338.9,598.2z"/>
	<path class="api3" d="M320.5,608.7c1.7,0,3,1.3,3,3s-1.3,3-3,3s-3-1.3-3-3S318.9,608.7,320.5,608.7z"/>
</g>
<g>
	<path class="api3" d="M159.2,533L122,570.2c-0.5,0.5-1.3,0.5-1.8,0l-47.8-47.8c-0.5-0.5-0.5-1.3,0-1.8
		l37.2-37.2c0.5-0.5,1.3-0.5,1.8,0L125,497l-3.7,3.7l20.5,20.5l3.7-3.7l13.7,13.7C159.7,531.8,159.7,532.6,159.2,533z"/>
	<path class="api0" d="M138.1,530l-19.5,19.5c-0.3,0.3-0.7,0.3-0.9,0l-25-25c-0.3-0.3-0.3-0.7,0-0.9l19.5-19.5
		c0.3-0.3,0.7-0.3,0.9,0l25,25C138.3,529.3,138.3,529.7,138.1,530z"/>
	<path class="api3" d="M117.7,524.4c1.2,1.2,1.2,3.1,0,4.2c-1.2,1.2-3.1,1.2-4.2,0c-1.2-1.2-1.2-3.1,0-4.2
		C114.6,523.3,116.5,523.2,117.7,524.4z"/>
</g>
<g>
	<path class="api3" d="M57.1,356.7H4.5c-0.7,0-1.3-0.6-1.3-1.3v-67.6c0-0.7,0.6-1.3,1.3-1.3h52.6
		c0.7,0,1.3,0.6,1.3,1.3V307h-5.2v29h5.2v19.4C58.3,356.1,57.8,356.7,57.1,356.7L57.1,356.7z"/>
	<path class="api0" d="M44.3,339.6H16.8c-0.4,0-0.7-0.3-0.7-0.7v-35.4c0-0.4,0.3-0.7,0.7-0.7h27.5
		c0.4,0,0.7,0.3,0.7,0.7v35.4C44.9,339.3,44.6,339.6,44.3,339.6z"/>
	<path class="api3" d="M33.8,321.2c0,1.7-1.3,3-3,3s-3-1.3-3-3s1.3-3,3-3S33.8,319.5,33.8,321.2z"/>
</g>
<g>
	<path class="api3" d="M109.7,160.1L72.5,123c-0.5-0.5-0.5-1.3,0-1.8l47.8-47.8c0.5-0.5,1.3-0.5,1.8,0
		l37.2,37.2c0.5,0.5,0.5,1.3,0,1.8l-13.5,13.5l-3.7-3.7l-20.5,20.5l3.7,3.7l-13.7,13.7C110.9,160.6,110.1,160.6,109.7,160.1
		L109.7,160.1z"/>
	<path class="api0" d="M112.7,139l-19.5-19.5c-0.3-0.3-0.3-0.7,0-0.9l25-25c0.3-0.3,0.7-0.3,0.9,0l19.5,19.5
		c0.3,0.3,0.3,0.7,0,0.9l-25,25C113.4,139.2,113,139.2,112.7,139z"/>
	<path class="api3" d="M118.3,118.6c-1.2,1.2-3.1,1.2-4.2,0c-1.2-1.2-1.2-3.1,0-4.2c1.2-1.2,3.1-1.2,4.2,0
		C119.4,115.5,119.4,117.4,118.3,118.6z"/>
</g>
</svg>
