<?xml version="1.0" encoding="utf-8"?>
<!-- Generator: Adobe Illustrator 24.3.0, SVG Export Plug-In . SVG Version: 6.00 Build 0)  -->
<svg version="1.1" id="animaclock" xmlns="http://www.w3.org/2000/svg" xmlns:xlink="http://www.w3.org/1999/xlink" x="0px" y="0px"
	 viewBox="0 0 716.6 630.5" style="enable-background:new 0 0 716.6 630.5;" xml:space="preserve">
<style type="text/css">
	.backups0{fill:none;stroke:#808080;stroke-miterlimit:10;}
	.backups1{fill:none;stroke:#EE5586;stroke-width:3;stroke-linecap:round;stroke-linejoin:round;stroke-miterlimit:10;}
	.backups2{fill:#EE5586;}
	.backups3{fill:#EE5586;stroke:#808080;stroke-miterlimit:10;}
	.backups4{fill:none;stroke:#EE5586;stroke-width:2;stroke-linecap:round;stroke-linejoin:round;stroke-miterlimit:10;}
	.backups5{fill:#EE5586;stroke:none;}
</style>
<path class="backups0" d="M665.3,371.2C638.2,509,516.7,612.9,371,612.9c-145.7,0-267.1-103.9-294.3-241.6"/>
<path class="backups0" d="M77.5,250.3C106.3,114.7,226.8,12.9,371,12.9s264.7,101.8,293.5,237.4"/>
<path id="svg-concept" class="backups1" d="M597.6,313.3c0,125.4-101.7,227.1-227.1,227.1S143.4,438.7,143.4,313.3S245.1,86.2,370.5,86.2
	C495.9,86.1,597.6,187.8,597.6,313.3z"/>
<g>
	<path class="backups0" d="M382.2,49.7c0,5.8-4.7,10.6-10.5,10.6s-10.5-4.7-10.5-10.6s4.7-10.5,10.5-10.5
		C377.5,39.1,382.2,43.8,382.2,49.7z"/>
	<path class="backups0" d="M375.6,49.7c0,2.2-1.8,3.9-3.9,3.9c-2.2,0-3.9-1.8-3.9-3.9s1.7-3.9,3.9-3.9C373.8,45.8,375.6,47.5,375.6,49.7z
		 M382.2,49.7h-6.6 M367.7,50.7h-6.6 M361.1,577.4c0-5.8,4.7-10.6,10.5-10.6s10.5,4.7,10.5,10.6c0,5.8-4.7,10.5-10.5,10.5
		S361.1,583.2,361.1,577.4z"/>
	<path class="backups0" d="M367.7,577.4c0-2.2,1.8-3.9,3.9-3.9c2.2,0,3.9,1.8,3.9,3.9s-1.7,3.9-3.9,3.9
		C369.5,581.3,367.7,579.5,367.7,577.4z M361.1,577.4h6.6 M375.6,576.4h6.6 M192.5,120.3c4.1,4.1,4.1,10.8,0,14.9s-10.8,4.1-14.9,0
		s-4.1-10.8,0-14.9S188.3,116.2,192.5,120.3z"/>
	<path class="backups0" d="M187.8,125c1.5,1.5,1.5,4,0,5.5s-4,1.5-5.5,0s-1.5-4,0-5.5S186.2,123.5,187.8,125z M192.5,120.3l-4.7,4.7
		 M183,131.3l-4.7,4.6 M564.9,492.8c4.1,4.1,4.1,10.8,0,14.9s-10.8,4.1-14.9,0s-4.1-10.8,0-14.9S560.8,488.7,564.9,492.8z"/>
	<path class="backups0" d="M560.2,497.5c1.5,1.5,1.5,4,0,5.5s-4,1.5-5.5,0s-1.5-4,0-5.5S558.7,495.9,560.2,497.5z M564.9,492.8l-4.6,4.7
		 M555.4,503.7l-4.7,4.7 M565.8,135.1c-4.1,4.1-10.8,4.1-14.9,0s-4.1-10.8,0-14.9s10.8-4.1,14.9,0S570,131,565.8,135.1z"/>
	<path class="backups0" d="M561.1,130.4c-1.5,1.5-4,1.5-5.5,0s-1.5-4,0-5.5s4-1.5,5.5,0C562.7,126.4,562.7,128.9,561.1,130.4z
		 M565.8,135.1l-4.7-4.6 M554.9,125.6l-4.7-4.6 M193.4,507.6c-4.1,4.1-10.8,4.1-14.9,0s-4.1-10.8,0-14.9s10.8-4.1,14.9,0
		S197.5,503.5,193.4,507.6z"/>
	<path class="backups0" d="M188.7,502.9c-1.5,1.5-4,1.5-5.5,0s-1.5-4,0-5.5s4-1.5,5.5,0S190.2,501.4,188.7,502.9z M193.4,507.6l-4.7-4.7
		 M182.4,498.1l-4.7-4.7"/>
</g>
<g>
	<path id="svg-ico" class="backups2" d="M669.6,250.3c0,3.4-2.6,6-6,6s-6-2.6-6-6s2.6-6,6-6C666.8,244.3,669.6,246.9,669.6,250.3z
		"/>
		<animateTransform  accumulate="none" additive="replace" attributeName="transform" calcMode="linear" dur="2s" fill="remove" from="0 370 315" repeatCount="indefinite" restart="always" to="-155 370 315" type="rotate">
		</animateTransform>
</g>
<g>
	<path class="backups3" d="M371.7,104.1v20.7"/>
	<path class="backups0" d="M414.3,108.9l-4.2,20.1 M455.8,122.4l-8.3,18.8 M493.4,144.2l-12,16.7 M525.8,173.4l-15.2,13.8 M551.4,208.6
		l-17.7,10.3 M569.2,248.5l-19.5,6.3 M578.2,291l-20.3,2.2"/>
	<path class="backups3" d="M578.2,334.4l-18.8-1.9"/>
	<path class="backups0" d="M569.1,377.5l-19.2-6.3 M551.4,417.1l-17.4-10 M525.7,452.4L510.8,439 M493.3,481.6l-11.7-16.2 M455.7,503.3
		l-8-18.1 M414.3,516.8l-4-19.3 M163.4,291l19.7,2.1 M172.5,248l19,6.1 M190.2,208.3l17.4,10.1 M215.9,173l15.1,13.6 M248.3,143.9
		l11.9,16.5 M285.9,122.1l8.3,18.8 M327.4,108.9l4.3,19.9"/>
	<path class="backups3" d="M370.5,521.4v-19.7"/>
	<path class="backups0" d="M327.6,516.6l3.9-18.9 M286.1,503.1l7.7-17.7 M248.4,481.2l11.2-15.6 M216.1,452.1l14.2-12.9 M190.4,416.9
		l16.7-9.7 M172.7,377l18.4-6"/>
	<path class="backups3" d="M163.7,334.5l19.3-2.1"/>
</g>
<g>
	<path id="svg-concept" class="backups1" d="M462.3,313.3H371"/>
	
		<animateTransform  accumulate="none" additive="replace" attributeName="transform" calcMode="linear" dur="8s" fill="remove" from="0 370 315" repeatCount="indefinite" restart="always" to="-360 371 311" type="rotate">
		</animateTransform>
</g>
<g id="anima">
	<path id="svg-concept" class="backups1" d="M371.6,148.1L371,313.3"/>
	
		<animateTransform  accumulate="none" additive="replace" attributeName="transform" calcMode="linear" dur="1s" fill="remove" from="0 370 315" repeatCount="indefinite" restart="always" to="-360 371 311" type="rotate">
		</animateTransform>
</g>
<g>
	<g>
		<path id="svg-concept" class="backups4" d="M51.4,311.4c-0.7-2.1-1-4.4-1-6.7c0-12.4,10.1-22.5,22.5-22.5s22.5,10.1,22.5,22.5
			c0,2.3-0.4,4.6-1,6.7"/>
		<path id="svg-concept" class="backups4" d="M73,301v10.4 M62.3,278.6v-6.9c0-3.8,3-6.9,6.9-6.9h7.6c3.9,0,6.9,3.1,6.9,6.9v6.9"/>
	</g>
	<g>
		<circle id="svg-concept" class="backups4" cx="72.4" cy="348.1" r="3.6"/>
		<path id="svg-concept" class="backups4" d="M72.4,338.2v6.2 M44.1,348.1h24.7 M76.1,348.1h24.7"/>
	</g>
	<g>
		<path id="svg-concept" class="backups4" d="M130.5,332.8c0,1.8-1.4,3.4-3.1,3.4h-110c-1.7,0-3.1-1.6-3.1-3.4v-12.1c0-1.8,1.4-3.4,3.1-3.4h110
			c1.7,0,3.1,1.6,3.1,3.4L130.5,332.8L130.5,332.8z"/>
		<path id="svg-concept" class="backups4" d="M20.7,317.3v18.9"/>
		<path id="svg-concept" class="backups4" d="M115.9,326.8c0,2.2-1.8,4-4,4s-4-1.8-4-4s1.8-4,4-4S115.9,324.6,115.9,326.8z"/>
	</g>
</g>
<g>
	<path id="svg-concept" class="backups4" d="M701.8,282.6v41.6c0,5.7-13.9,10.3-31.2,10.3c-17.2,0-31.2-4.6-31.2-10.3v-41.6"/>
	<path id="svg-concept" class="backups4" d="M690.2,302.1c0,1.4-1.2,2.6-2.6,2.6c-1.4,0-2.6-1.2-2.6-2.6s1.2-2.6,2.6-2.6
		S690.2,300.7,690.2,302.1z M690.2,323.1c0,1.4-1.2,2.6-2.6,2.6c-1.4,0-2.6-1.2-2.6-2.6s1.2-2.6,2.6-2.6S690.2,321.6,690.2,323.1z"
		/>
	<path id="svg-concept" class="backups4" d="M701.8,282.6c0,5.7-13.9,10.3-31.2,10.3c-17.2,0-31.2-4.6-31.2-10.3c0-5.7,13.9-10.3,31.2-10.3
		C687.8,272.3,701.8,276.9,701.8,282.6z"/>
	<path id="svg-concept" class="backups4" d="M701.8,303.4c0,5.7-13.9,10.3-31.2,10.3c-17.2,0-31.2-4.6-31.2-10.3"/>
	<path id="svg-concept" class="backups4" d="M673.1,348.5c0,1.8-1.4,3.2-3.2,3.2s-3.2-1.4-3.2-3.2c0-1.8,1.4-3.2,3.2-3.2
		C671.6,345.3,673.1,346.7,673.1,348.5z M669.9,338.8v6.5 M648.7,348.5h17.9 M673.1,348.5H691"/>
</g>
<path id="svg-ico" class="backups5" d="M376.1,313.3c0,2.8-2.2,5-5,5s-5-2.2-5-5s2.2-5,5-5C373.8,308.3,376.1,310.5,376.1,313.3z
	"/>
</svg>
