<?xml version="1.0" encoding="utf-8"?>
<!-- Generator: Adobe Illustrator 24.3.0, SVG Export Plug-In . SVG Version: 6.00 Build 0)  -->
<svg version="1.1" id="Layer_1" xmlns="http://www.w3.org/2000/svg" xmlns:xlink="http://www.w3.org/1999/xlink" x="0px" y="0px"
	 viewBox="0 0 1063.1 259" style="enable-background:new 0 0 1063.1 259;" xml:space="preserve">
<style type="text/css">
	.balancing0{fill:none;stroke:#808080;stroke-linecap:round;stroke-linejoin:round;stroke-miterlimit:10;}
	.balancing1{fill:#FFFFFF;stroke:#EE5586;stroke-width:2;stroke-linecap:round;stroke-linejoin:round;stroke-miterlimit:10;}
	.balancing2{fill:none;stroke:#808080;stroke-miterlimit:10;}
	.balancing3{fill:none;stroke:#EE5586;stroke-width:2;stroke-linecap:round;stroke-linejoin:round;stroke-miterlimit:10;}
	.balancing4{fill:#EE5586;}
</style>
<path class="balancing0" d="M112.6,41.6h55.7v37.1h-55.7L112.6,41.6z M107.9,87.4h65"/>
<path id="svg-concept" class="balancing1" d="M121.6,55.2h13.1 M121.6,64.7h26.3 M240.9,55.2H254 M240.9,64.7H259 M8.6,55.2h13.2 M8.6,64.7
	h18.1"/>
<circle class="balancing0" cx="514.2" cy="83.8" r="3.7"/>
<path class="balancing0" d="M514.2,73.6v6.3 M485.1,83.8h25.3 M518,83.8h25.2"/>
<circle class="balancing0" cx="779.2" cy="83.8" r="3.7"/>
<path class="balancing0" d="M779.2,73.6v6.3 M750.2,83.8h25.2 M783,83.8h25.3"/>
<path class="balancing0" d="M760.8,33.9c0-0.8-0.1-1.5,0-2.3c1.2-12.4,12.1-22.1,24.8-22.1h-0.4c13.5,0,24.4,10.9,24.4,24.4
	c0,7-2.9,13.3-7.7,17.8"/>
<path class="balancing0" d="M785.4,19.2c-7.6,0.1-14.2,6-14.9,13.3v1.3 M753.5,24.1c-9.4,0-17.1,7.6-17.1,17.1c0,4.2,1.5,8,4,11 M37,74.5
	H0.8v-38H37 M25.7,74.5v6.9 M37,81.4H13.6 M57.4,27.9h-17c-1.9,0-3.4,1.2-3.4,2.6v54.4c0,1.4,1.5,2.6,3.4,2.6h17.1
	c1.9,0,3.4-1.2,3.4-2.6V30.5C60.8,29.1,59.3,27.9,57.4,27.9z"/>
<path class="balancing0" d="M49.5,37.1c2.3,0.3,3.9,2.4,3.6,4.7c-0.3,2.3-2.4,3.9-4.7,3.6c-2.3-0.3-3.9-2.4-3.6-4.7
	C45.1,38.4,47.2,36.8,49.5,37.1z M235.3,86.5V37c0-0.5,0.4-0.9,0.9-0.9h28.5c0.5,0,0.9,0.4,0.9,0.9v49.5c0,0.5-0.4,0.9-0.9,0.9
	h-28.5C235.7,87.4,235.3,87,235.3,86.5 M248.3,40.7h4.3"/>
<path class="balancing0" d="M252.6,80.8c0,1.2-1,2.1-2.1,2.1c-1.2,0-2.1-1-2.1-2.1c0-1.2,1-2.1,2.1-2.1C251.6,78.6,252.6,79.6,252.6,80.8z"
	/>
<path class="balancing2" d="M140.7,211.8h746.9 M140.7,99v68.6"/>
<path class="balancing0" d="M130,256.1v-21.2 M130,234.9h4.7 M130,256.1h4.7 M146.7,234.9h4.7 M151.4,234.9v21.2 M151.4,256.1h-4.7"/>
<path id="svg-concept" class="balancing3" d="M140.7,251.4v-13 M140.7,238.4h-3.6"/>
<path class="balancing0" d="M877.4,256.1v-21.2 M877.4,234.9h4.7 M877.4,256.1h4.7 M894.1,234.9h4.7 M898.8,234.9v21.2 M898.8,256.1h-4.7"
	/>
<path id="svg-concept" class="balancing3" d="M891.3,252v-13 M884.9,245.5h6.4 M891.3,239H885 M884.9,252h6.2"/>
<path class="balancing0" d="M503.4,256.1v-21.2 M503.4,234.9h4.8 M503.4,256.1h4.8 M520.1,234.9h4.8 M524.9,234.9v21.2 M524.9,256.1h-4.8"
	/>
<path id="svg-concept" class="balancing3" d="M517.4,245.5V239 M511,245.5h6.4 M517.4,239h-6.3 M510.9,245.5v6.5 M510.9,252h6.3"/>
<path class="balancing2" d="M140.7,167.6v44.2 M250.7,99l-110,68.6 M514.2,99v112.8 M888.1,167.6v44.2 M31.1,99l109.6,68.6 M998.1,99
	l-110,68.6 M778.5,99l109.6,68.6"/>
<path class="balancing0" d="M573.7,16.7c0,1.9-1.4,3.5-3.2,3.5H457.8c-1.8,0-3.2-1.6-3.2-3.5V4.3c0-1.9,1.4-3.5,3.2-3.5h112.8
	c1.8,0,3.2,1.6,3.2,3.5L573.7,16.7L573.7,16.7z M461.2,0.9v19.2 M567.2,0.9v19.3"/>
<g>
	<path id="svg-concept" class="balancing3" d="M558.7,10.5c0,2.3-1.9,4.1-4.1,4.1c-2.3,0-4.1-1.9-4.1-4.1s1.8-4.1,4.1-4.1
		S558.7,8.2,558.7,10.5z"/>
</g>
<path class="balancing0" d="M573.7,42.4c0,1.9-1.4,3.5-3.2,3.5H457.8c-1.8,0-3.2-1.6-3.2-3.5V30c0-1.9,1.4-3.5,3.2-3.5h112.8
	c1.8,0,3.2,1.6,3.2,3.5L573.7,42.4L573.7,42.4z M461.2,26.5v19.3 M567.2,26.5v19.3"/>
<g>
	<path id="svg-concept" class="balancing3" d="M558.7,36.2c0,2.3-1.9,4.1-4.1,4.1c-2.3,0-4.1-1.9-4.1-4.1c0-2.3,1.8-4.1,4.1-4.1
		S558.7,33.9,558.7,36.2z"/>
</g>
<path class="balancing0" d="M573.7,68c0,1.9-1.4,3.5-3.2,3.5H457.8c-1.8,0-3.2-1.6-3.2-3.5V55.7c0-1.9,1.4-3.5,3.2-3.5h112.8
	c1.8,0,3.2,1.6,3.2,3.5L573.7,68L573.7,68z M461.2,52.2v19.2 M567.2,52.2v19.3"/>
<g>
	<path id="svg-concept" class="balancing3" d="M558.7,61.8c0,2.3-1.9,4.1-4.1,4.1c-2.3,0-4.1-1.9-4.1-4.1c0-2.3,1.8-4.1,4.1-4.1
		S558.7,59.6,558.7,61.8z"/>
</g>
<g>
	<path class="balancing0" d="M838.8,68c0,1.9-1.4,3.5-3.2,3.5H722.8c-1.8,0-3.2-1.6-3.2-3.5V55.7c0-1.9,1.4-3.5,3.2-3.5h112.8
		c1.8,0,3.2,1.6,3.2,3.5V68z M726.2,52.2v19.2"/>
	<path id="svg-concept" class="balancing3" d="M823.8,61.8c0,2.3-1.9,4.1-4.1,4.1c-2.3,0-4.1-1.9-4.1-4.1c0-2.3,1.8-4.1,4.1-4.1
		C821.9,57.7,823.8,59.6,823.8,61.8z"/>
</g>
<g>
	<circle class="balancing0" cx="998.1" cy="83.8" r="3.7"/>
	<path class="balancing0" d="M998.1,73.6v6.3 M969,83.8h25.3 M1001.9,83.8h25.2"/>
</g>
<path class="balancing0" d="M979.7,33.9c0-0.8-0.1-1.5,0-2.3c1.2-12.4,12.1-22.1,24.8-22.1h-0.4c13.5,0,24.4,10.9,24.4,24.4
	c0,7-2.9,13.3-7.7,17.8"/>
<path class="balancing0" d="M1004.2,19.2c-7.6,0.1-14.2,6-14.9,13.3v1.3 M972.4,24.1c-9.4,0-17.1,7.6-17.1,17.1c0,4.2,1.5,8,4,11"/>
<g>
	<path class="balancing0" d="M1057.6,68c0,1.9-1.4,3.5-3.2,3.5H941.7c-1.8,0-3.2-1.6-3.2-3.5V55.7c0-1.9,1.4-3.5,3.2-3.5h112.8
		c1.8,0,3.2,1.6,3.2,3.5L1057.6,68L1057.6,68z M945.1,52.2v19.2"/>
	<path id="svg-concept" class="balancing3" d="M1042.6,61.8c0,2.3-1.9,4.1-4.1,4.1c-2.3,0-4.1-1.9-4.1-4.1c0-2.3,1.8-4.1,4.1-4.1
		S1042.6,59.6,1042.6,61.8z"/>
</g>
<circle id="svg-ico" class="balancing4" cx="140.7" cy="211.8" r="3"/>
<circle id="svg-ico" class="balancing4" cx="888.1" cy="211.8" r="3"/>
<g>
	<path id="svg-ico" class="balancing4" d="M36.1,99c0,2.8-2.2,5-5,5s-5-2.2-5-5s2.2-5,5-5S36.1,96.2,36.1,99z"/>
	
		<animateMotion  accumulate="none" additive="replace" begin="0s" calcMode="paced" dur="4s" fill="remove" path="M0 0 105 66 0 0" repeatCount="indefinite" restart="always">
		</animateMotion>
</g>
<g>
	<path id="svg-ico" class="balancing4" d="M145.7,136.9c0,2.8-2.2,5-5,5s-5-2.2-5-5s2.2-5,5-5S145.7,134.1,145.7,136.9z"/>
	
		<animateMotion  accumulate="none" additive="replace" begin="0s" calcMode="paced" dur="3s" fill="remove" path="M0, 67 0 -35 0 67" repeatCount="indefinite" restart="always">
		</animateMotion>
</g>
<g>
	<path id="svg-ico" class="balancing4" d="M255.8,99c0,2.8-2.2,5-5,5s-5-2.2-5-5s2.2-5,5-5S255.8,96.2,255.8,99z"/>
	
		<animateMotion  accumulate="none" additive="replace" begin="0s" calcMode="paced" dur="3s" fill="remove" path="M0 0 -105 66 0 0" repeatCount="indefinite" restart="always">
		</animateMotion>
</g>
<g>
	<path id="svg-ico" class="balancing4" d="M318,211.8c0,2.8-2.2,5-5,5s-5-2.2-5-5s2.2-5,5-5S318,209.1,318,211.8z"/>
	
		<animateMotion  accumulate="none" additive="replace" begin="0s" calcMode="paced" dur="12s" fill="remove" path="M570, 0 -165 0 570 0" repeatCount="indefinite" restart="always">
		</animateMotion>
</g>
<g>
	<path id="svg-ico" class="balancing4" d="M519.2,139.9c0,2.8-2.2,5-5,5s-5-2.2-5-5s2.2-5,5-5S519.2,137.1,519.2,139.9z"/>
	
		<animateMotion  accumulate="none" additive="replace" begin="0s" calcMode="paced" dur="4s" fill="remove" path="M0, 67 0 -35 0 67" repeatCount="indefinite" restart="always">
		</animateMotion>
</g>
<g>
	<path id="svg-ico" class="balancing4" d="M784.2,99c0,2.8-2.2,5-5,5s-5-2.2-5-5s2.2-5,5-5S784.2,96.2,784.2,99z"/>
	
		<animateMotion  accumulate="none" additive="replace" begin="0s" calcMode="paced" dur="3s" fill="remove" path="M0 0 105 66 0 0" repeatCount="indefinite" restart="always">
		</animateMotion>
</g>
<g>
	<path id="svg-ico" class="balancing4" d="M1003.1,99c0,2.8-2.2,5-5,5s-5-2.2-5-5s2.2-5,5-5S1003.1,96.2,1003.1,99z"/>
	
		<animateMotion  accumulate="none" additive="replace" begin="0s" calcMode="paced" dur="4s" fill="remove" path="M0 0 -105 66 0 0" repeatCount="indefinite" restart="always">
		</animateMotion>
</g>
</svg>
