<?xml version="1.0" encoding="utf-8"?>
<!-- Generator: Adobe Illustrator 24.3.0, SVG Export Plug-In . SVG Version: 6.00 Build 0)  -->
<svg version="1.1" id="Layer_1" xmlns="http://www.w3.org/2000/svg" xmlns:xlink="http://www.w3.org/1999/xlink" x="0px" y="0px"
	 viewBox="0 0 1063.1 259" style="enable-background:new 0 0 1063.1 259;" xml:space="preserve">
<style type="text/css">
	.balancingrtl0{fill:none;stroke:#808080;stroke-linecap:round;stroke-linejoin:round;stroke-miterlimit:10;}
	.balancingrtl1{fill:#FFFFFF;stroke:#EE5586;stroke-width:2;stroke-linecap:round;stroke-linejoin:round;stroke-miterlimit:10;}
	.balancingrtl2{fill:none;stroke:#808080;stroke-miterlimit:10;}
	.balancingrtl3{fill:none;stroke:#EE5586;stroke-linecap:round;stroke-linejoin:round;stroke-miterlimit:10;}
	.balancingrtl4{fill:none;stroke:#EE5586;stroke-width:2;stroke-linecap:round;stroke-linejoin:round;stroke-miterlimit:10;}
	.balancingrtl5{fill:#EE5586;}
</style>
<path class="balancingrtl0" d="M898.9,41.6h55.7v37.1h-55.7V41.6z M894.2,87.4h65"/>
<path id="svg-concept" class="balancingrtl1" d="M907.9,55.2H921 M907.9,64.7h26.3 M1027.2,55.2h13.1 M1027.2,64.7h18.1 M794.9,55.2h13.2
	 M794.9,64.7H813"/>
<circle class="balancingrtl0" cx="553.2" cy="83.8" r="3.7"/>
<path class="balancingrtl0" d="M553.2,73.6v6.3 M524.1,83.8h25.3 M557,83.8h25.2"/>
<circle class="balancingrtl0" cx="70.8" cy="83.8" r="3.7"/>
<path class="balancingrtl0" d="M70.8,73.6v6.3 M41.8,83.8H67 M74.6,83.8h25.3"/>
<path class="balancingrtl0" d="M52.4,33.9c0-0.8-0.1-1.5,0-2.3C53.6,19.2,64.5,9.5,77.2,9.5h-0.4c13.5,0,24.4,10.9,24.4,24.4
	c0,7-2.9,13.3-7.7,17.8"/>
<path class="balancingrtl0" d="M77,19.2c-7.6,0.1-14.2,6-14.9,13.3v1.3"/>
<path class="balancingrtl0" d="M45.1,24.1c-9.4,0-17.1,7.6-17.1,17.1c0,4.2,1.5,8,4,11"/>
<polyline class="balancingrtl0" points="823.3,74.5 787.1,74.5 787.1,36.5 823.3,36.5 "/>
<line class="balancingrtl0" x1="812" y1="74.5" x2="812" y2="81.4"/>
<line class="balancingrtl0" x1="823.3" y1="81.4" x2="799.9" y2="81.4"/>
<path class="balancingrtl0" d="M843.7,27.9h-17c-1.9,0-3.4,1.2-3.4,2.6v54.4c0,1.4,1.5,2.6,3.4,2.6h17.1c1.9,0,3.4-1.2,3.4-2.6V30.5
	C847.1,29.1,845.6,27.9,843.7,27.9z"/>
<path class="balancingrtl0" d="M835.8,37.1c2.3,0.3,3.9,2.4,3.6,4.7s-2.4,3.9-4.7,3.6c-2.3-0.3-3.9-2.4-3.6-4.7S833.5,36.8,835.8,37.1z"/>
<path class="balancingrtl0" d="M1021.6,86.5V37c0-0.5,0.4-0.9,0.9-0.9h28.5c0.5,0,0.9,0.4,0.9,0.9v49.5c0,0.5-0.4,0.9-0.9,0.9h-28.5
	C1022,87.4,1021.6,87,1021.6,86.5"/>
<line class="balancingrtl0" x1="1034.6" y1="40.7" x2="1038.9" y2="40.7"/>
<path class="balancingrtl0" d="M1038.9,80.8c0,1.2-1,2.1-2.1,2.1c-1.2,0-2.1-1-2.1-2.1c0-1.2,1-2.1,2.1-2.1
	C1037.9,78.6,1038.9,79.6,1038.9,80.8z"/>
<line class="balancingrtl2" x1="179.7" y1="211.8" x2="926.6" y2="211.8"/>
<line class="balancingrtl2" x1="927" y1="99" x2="927" y2="167.6"/>
<path class="balancingrtl0" d="M915.9,256.1v-21.2 M915.9,234.9h4.7 M915.9,256.1h4.7 M932.6,234.9h4.7 M937.3,234.9v21.2 M937.3,256.1h-4.7"
	/>
<path id="svg-concept" class="balancingrtl3" d="M926.6,251.4v-13 M926.6,238.4H923"/>
<path class="balancingrtl0" d="M167.8,256.1v-21.2 M167.8,234.9h4.7 M167.8,256.1h4.7 M184.5,234.9h4.7 M189.2,234.9v21.2 M189.2,256.1h-4.7"
	/>
<path id="svg-concept" class="balancingrtl3" d="M181.7,252v-13 M175.3,245.5h6.4 M181.7,239h-6.3 M175.3,252h6.2"/>
<path class="balancingrtl0" d="M542.4,256.1v-21.2 M542.4,234.9h4.8 M542.4,256.1h4.8 M559.1,234.9h4.8 M563.9,234.9v21.2 M563.9,256.1h-4.8"
	/>
<path id="svg-concept" class="balancingrtl3" d="M556.4,245.5V239 M550,245.5h6.4 M556.4,239h-6.3 M549.9,245.5v6.5 M549.9,252h6.3"/>
<line class="balancingrtl2" x1="179.7" y1="167.6" x2="179.7" y2="211.8"/>
<line class="balancingrtl2" x1="1037" y1="99" x2="927" y2="167.6"/>
<line class="balancingrtl2" x1="553.2" y1="99" x2="553.2" y2="211.8"/>
<line class="balancingrtl2" x1="927.1" y1="167.6" x2="927.1" y2="211.8"/>
<line class="balancingrtl2" x1="817.4" y1="99" x2="927" y2="167.6"/>
<line class="balancingrtl2" x1="289.7" y1="99" x2="179.7" y2="167.6"/>
<line class="balancingrtl2" x1="70.1" y1="99" x2="179.7" y2="167.6"/>
<path class="balancingrtl0" d="M612.7,16.7c0,1.9-1.4,3.5-3.2,3.5H496.8c-1.8,0-3.2-1.6-3.2-3.5V4.3c0-1.9,1.4-3.5,3.2-3.5h112.8
	c1.8,0,3.2,1.6,3.2,3.5L612.7,16.7L612.7,16.7z M500.2,0.9v19.2 M606.2,0.9v19.3"/>
<g>
	<path id="svg-concept" class="balancingrtl4" d="M597.7,10.5c0,2.3-1.9,4.1-4.1,4.1c-2.3,0-4.1-1.9-4.1-4.1s1.8-4.1,4.1-4.1
		S597.7,8.2,597.7,10.5z"/>
</g>
<path class="balancingrtl0" d="M612.7,42.4c0,1.9-1.4,3.5-3.2,3.5H496.8c-1.8,0-3.2-1.6-3.2-3.5V30c0-1.9,1.4-3.5,3.2-3.5h112.8
	c1.8,0,3.2,1.6,3.2,3.5L612.7,42.4L612.7,42.4z M500.2,26.5v19.3 M606.2,26.5v19.3"/>
<g>
	<path id="svg-concept" class="balancingrtl4" d="M597.7,36.2c0,2.3-1.9,4.1-4.1,4.1c-2.3,0-4.1-1.9-4.1-4.1c0-2.3,1.8-4.1,4.1-4.1
		S597.7,33.9,597.7,36.2z"/>
</g>
<path class="balancingrtl0" d="M612.7,68c0,1.9-1.4,3.5-3.2,3.5H496.8c-1.8,0-3.2-1.6-3.2-3.5V55.7c0-1.9,1.4-3.5,3.2-3.5h112.8
	c1.8,0,3.2,1.6,3.2,3.5L612.7,68L612.7,68z M500.2,52.2v19.2 M606.2,52.2v19.3"/>
<g>
	<path id="svg-concept" class="balancingrtl4" d="M597.7,61.8c0,2.3-1.9,4.1-4.1,4.1c-2.3,0-4.1-1.9-4.1-4.1c0-2.3,1.8-4.1,4.1-4.1
		S597.7,59.6,597.7,61.8z"/>
</g>
<g>
	<path class="balancingrtl0" d="M130.4,68c0,1.9-1.4,3.5-3.2,3.5H14.4c-1.8,0-3.2-1.6-3.2-3.5V55.7c0-1.9,1.4-3.5,3.2-3.5h112.8
		c1.8,0,3.2,1.6,3.2,3.5L130.4,68L130.4,68z M17.8,52.2v19.2"/>
	<path id="svg-concept" class="balancingrtl4" d="M115.4,61.8c0,2.3-1.9,4.1-4.1,4.1c-2.3,0-4.1-1.9-4.1-4.1c0-2.3,1.8-4.1,4.1-4.1
		C113.5,57.7,115.4,59.6,115.4,61.8z"/>
</g>
<g>
	<circle class="balancingrtl0" cx="289.7" cy="83.8" r="3.7"/>
	<path class="balancingrtl0" d="M289.7,73.6v6.3 M260.6,83.8h25.3 M293.5,83.8h25.2"/>
</g>
<path class="balancingrtl0" d="M271.3,33.9c0-0.8-0.1-1.5,0-2.3c1.2-12.4,12.1-22.1,24.8-22.1h-0.4c13.5,0,24.4,10.9,24.4,24.4
	c0,7-2.9,13.3-7.7,17.8"/>
<path class="balancingrtl0" d="M295.8,19.2c-7.6,0.1-14.2,6-14.9,13.3v1.3 M264,24.1c-9.4,0-17.1,7.6-17.1,17.1c0,4.2,1.5,8,4,11"/>
<g>
	<path class="balancingrtl0" d="M349.2,68c0,1.9-1.4,3.5-3.2,3.5H233.3c-1.8,0-3.2-1.6-3.2-3.5V55.7c0-1.9,1.4-3.5,3.2-3.5h112.8
		c1.8,0,3.2,1.6,3.2,3.5L349.2,68L349.2,68z M236.7,52.2v19.2"/>
	<path id="svg-concept" class="balancingrtl4" d="M334.2,61.8c0,2.3-1.9,4.1-4.1,4.1c-2.3,0-4.1-1.9-4.1-4.1c0-2.3,1.8-4.1,4.1-4.1
		S334.2,59.6,334.2,61.8z"/>
</g>
<circle id="svg-ico" class="balancingrtl5" cx="179.7" cy="211.8" r="3"/>
<circle id="svg-ico" class="balancingrtl5" cx="927.1" cy="211.8" r="3"/>
<g>
	<path id="svg-ico" class="balancingrtl5" d="M822.4,99c0,2.8-2.2,5-5,5s-5-2.2-5-5s2.2-5,5-5S822.4,96.2,822.4,99z"/>
	
		<animateMotion  accumulate="none" additive="replace" begin="0s" calcMode="paced" dur="4s" fill="remove" path="M0 0 105 66 0 0" repeatCount="indefinite" restart="always">
		</animateMotion>
</g>
<g>
	<path id="svg-ico" class="balancingrtl5" d="M932,136.9c0,2.8-2.2,5-5,5s-5-2.2-5-5s2.2-5,5-5S932,134.1,932,136.9z"/>
	
		<animateMotion  accumulate="none" additive="replace" begin="0s" calcMode="paced" dur="3s" fill="remove" path="M0, 67 0 -35 0 67" repeatCount="indefinite" restart="always">
		</animateMotion>
</g>
<g>
	<path id="svg-ico" class="balancingrtl5" d="M1042.1,99c0,2.8-2.3,5-5,5s-5-2.2-5-5s2.3-5,5-5S1042.1,96.2,1042.1,99z"/>
	
		<animateMotion  accumulate="none" additive="replace" begin="0s" calcMode="paced" dur="3s" fill="remove" path="M0 0 -105 66 0 0" repeatCount="indefinite" restart="always">
		</animateMotion>
</g>
<g>
	<path id="svg-ico" class="balancingrtl5" d="M356,211.8c0,2.2-1.8,4-4,4s-4-1.8-4-4s1.8-4,4-4S356,209.6,356,211.8z"/>
	
		<animateMotion  accumulate="none" additive="replace" begin="0s" calcMode="paced" dur="12s" fill="remove" path="M570, 0 -165 0 570 0" repeatCount="indefinite" restart="always">
		</animateMotion>
</g>
<g>
	<path id="svg-ico" class="balancingrtl5" d="M558.2,139.9c0,2.8-2.2,5-5,5s-5-2.2-5-5s2.2-5,5-5S558.2,137.1,558.2,139.9z"/>
	
		<animateMotion  accumulate="none" additive="replace" begin="0s" calcMode="paced" dur="4s" fill="remove" path="M0, 67 0 -35 0 67" repeatCount="indefinite" restart="always">
		</animateMotion>
</g>
<g>
	<path id="svg-ico" class="balancingrtl5" d="M75.8,99c0,2.8-2.2,5-5,5s-5-2.2-5-5s2.2-5,5-5S75.8,96.2,75.8,99z"/>
	
		<animateMotion  accumulate="none" additive="replace" begin="0s" calcMode="paced" dur="3s" fill="remove" path="M0 0 105 66 0 0" repeatCount="indefinite" restart="always">
		</animateMotion>
</g>
<g>
	<path id="svg-ico" class="balancingrtl5" d="M294.7,99c0,2.8-2.2,5-5,5s-5-2.2-5-5s2.2-5,5-5S294.7,96.2,294.7,99z"/>
	
		<animateMotion  accumulate="none" additive="replace" begin="0s" calcMode="paced" dur="4s" fill="remove" path="M0 0 -105 66 0 0" repeatCount="indefinite" restart="always">
		</animateMotion>
</g>
</svg>
