<?xml version="1.0" encoding="utf-8"?>
<!-- Generator: Adobe Illustrator 24.3.0, SVG Export Plug-In . SVG Version: 6.00 Build 0)  -->
<svg version="1.1" id="Layer_1" xmlns="http://www.w3.org/2000/svg" xmlns:xlink="http://www.w3.org/1999/xlink" x="0px" y="0px"
	 viewBox="0 0 608.9 468" style="enable-background:new 0 0 608.9 468;" xml:space="preserve">
<style type="text/css">
	.controlpanel0{fill:none;stroke:#808080;stroke-linecap:round;stroke-linejoin:round;stroke-miterlimit:10;}
	.controlpanel1{fill:none;stroke:#EE5586;stroke-width:2;stroke-linecap:round;stroke-linejoin:round;stroke-miterlimit:10;}
	.controlpanel2{fill:#EE5586;}
	.controlpanel3{fill:#808080;}
</style>
<path class="controlpanel0" d="M48,54.6V18.1C48,9,55.4,1.7,64.4,1.7h518c9.1,0,16.4,7.4,16.4,16.4V397c0,9.1-7.4,16.4-16.4,16.4h-29.9"/>
<path class="controlpanel0" d="M18.1,54.6h518c9.1,0,16.4,7.4,16.4,16.4v378.9c0,9.1-7.4,16.4-16.4,16.4h-518c-9.1,0-16.4-7.4-16.4-16.4V71
	C1.6,62,9,54.6,18.1,54.6z"/>
<path id="svg-concept" class="controlpanel1" d="M61.8,80.4c0,2.4-2,4.4-4.4,4.4s-4.4-2-4.4-4.4s2-4.4,4.4-4.4C59.9,76,61.8,78,61.8,80.4z"/>
<path class="controlpanel0" d="M82.7,80.4c0,2.4-2,4.4-4.4,4.4s-4.4-2-4.4-4.4s2-4.4,4.4-4.4S82.7,78,82.7,80.4z M103.5,80.4
	c0,2.4-2,4.4-4.4,4.4s-4.4-2-4.4-4.4s2-4.4,4.4-4.4C101.6,76,103.5,78,103.5,80.4z M2.9,100.9h548.2"/>
<path id="svg-concept" class="controlpanel1" d="M46.9,126.7h464.4v47.7H46.9V126.7z"/>
<path class="controlpanel0" d="M46.9,192.4h82.9v12.9H46.9V192.4z M149,192.4h361.4v13H149V192.4z"/>
<path id="svg-concept" class="controlpanel1" d="M149.4,234.4h33.3v29h-33.3V234.4z"/>
<path class="controlpanel0" d="M269.7,234.4H303v29h-33.3V234.4z"/>
<g>
	<path id="svg-ico" class="controlpanel2" d="M389.8,234.4h33.3v29h-33.3V234.4z"/>
	
		<animate  accumulate="none" additive="replace" attributeName="opacity" calcMode="linear" dur="1s" fill="remove" repeatCount="indefinite" restart="always" values="0;1;0">
		</animate>
	
		<animate  accumulate="none" additive="replace" attributeName="fill" begin="0s" calcMode="linear" dur="1s" fill="freeze" from="#ffffff" restart="always" to="#ee5486">
		</animate>
</g>
<path class="controlpanel0" d="M149.4,273.5h33.3v29h-33.3V273.5z"/>
<path id="svg-concept" class="controlpanel1" d="M269.7,273.5H303v29h-33.3V273.5z"/>
<path class="controlpanel0" d="M389.7,273.5H423v29h-33.3V273.5z M46.9,226.3h82.8 M46.9,236.8h82.8"/>
<path class="controlpanel0" d="M199.8,244.7h52.4 M199.8,255.1h43.6 M318.5,244.7h52.4 M318.5,255.1h43.6 M437.2,244.7h52.4 M437.2,255.1h43.6
	 M199.8,281.9h52.4 M199.8,292.4h43.6 M318.5,281.9h52.4 M318.5,292.4h43.6 M437.2,281.9h52.4 M437.2,292.4h43.6"/>
<path class="controlpanel0" d="M149,327.6h361.4v13H149V327.6z M149.4,369.6h33.3v29h-33.3V369.6z"/>
<g>
	<path id="svg-ico" class="controlpanel2" d="M269.7,369.6H303v29h-33.3V369.6z"/>
	
		<animate  accumulate="none" additive="replace" attributeName="opacity" calcMode="linear" dur="1s" fill="remove" repeatCount="indefinite" restart="always" values="0;1;0">
		</animate>
	
		<animate  accumulate="none" additive="replace" attributeName="fill" begin="0.5s" calcMode="linear" dur="1s" fill="freeze" from="#ffffff" restart="always" to="#ee5486">
		</animate>
</g>
<path class="controlpanel0" d="M389.8,369.6h33.3v29h-33.3V369.6z"/>
<path id="svg-concept" class="controlpanel1" d="M149.4,408.7h33.3v29h-33.3V408.7z"/>
<path class="controlpanel0" d="M269.7,408.7H303v29h-33.3V408.7z"/>
<path id="svg-concept" class="controlpanel1" d="M389.7,408.7H423v29h-33.3V408.7z"/>
<path class="controlpanel0" d="M199.8,379.9h52.4 M199.8,390.4h43.6 M318.5,379.9h52.4 M318.5,390.4h43.6 M437.2,379.9h52.4 M437.2,390.4h43.6
	 M199.8,417.1h52.4 M199.8,427.6h43.6 M318.5,417.1h52.4 M318.5,427.6h43.6 M437.2,417.1h52.4 M437.2,427.6h43.6"/>
<path class="controlpanel0" d="M46.9,247.3h82.8 M46.9,257.8h82.8 M46.9,268.3h82.8"/>
<path class="controlpanel0" d="M46.9,278.8h82.8 M46.9,289.3h82.8"/>
<path class="controlpanel0" d="M46.9,312.6h82.8 M46.9,323.1h82.8 M46.9,333.6h82.8 M46.9,344.1h82.8"/>
<path class="controlpanel0" d="M46.9,354.6h82.8 M46.9,365.1h82.8"/>
<path class="controlpanel0" d="M46.9,375.6h82.8 M46.9,398.6h36.3 M46.9,409.1h36.3 M46.9,419.6h36.3 M46.9,430.1h36.3 M93.6,398.6h36.3
	 M93.6,409.1h36.3"/>
<path class="controlpanel0" d="M93.6,419.6h36.3 M93.6,430.1h36.3"/>
<path class="controlpanel0" d="M414.9,160.5c0,0.3-0.3,0.6-0.7,0.6h-72.4c-0.4,0-0.7-0.3-0.7-0.6v-18.7c0-0.3,0.3-0.6,0.7-0.6h72.4
	c0.4,0,0.7,0.3,0.7,0.6V160.5z M487.8,160.5c0,0.3-0.3,0.6-0.6,0.6h-55.7c-0.3,0-0.6-0.3-0.6-0.6v-18.7c0-0.3,0.2-0.6,0.6-0.6h55.7
	c0.3,0,0.6,0.3,0.6,0.6V160.5z"/>
<g>
	<path class="controlpanel3" d="M103.3,150.8l0.1-0.3c0-0.1,0-0.2-0.1-0.3s-0.2-0.1-0.3-0.1h-8.1c-0.3,0-0.7-0.1-0.9-0.2
		c-0.3-0.1-0.5-0.3-0.7-0.6c-0.2-0.2-0.3-0.5-0.4-0.8s-0.1-0.6,0-1l0.5-1.9h11c0.7,0,1.3,0.1,1.9,0.5c0.6,0.3,1,0.7,1.4,1.2
		s0.6,1,0.8,1.7c0.1,0.6,0.1,1.3,0,1.9l-2,7.3c-0.2,0.7-0.6,1.4-1.2,1.8c-0.6,0.5-1.3,0.7-2.1,0.7h-8.1c-0.7,0-1.4-0.2-2-0.5
		s-1.1-0.7-1.5-1.2s-0.7-1.1-0.8-1.8c-0.2-0.7-0.1-1.3,0-2l0.1-0.4c0.1-0.5,0.3-0.9,0.6-1.3s0.6-0.7,1-1s0.8-0.5,1.2-0.7
		c0.5-0.2,0.9-0.2,1.4-0.2h6.8l-0.5,1.9c-0.1,0.4-0.4,0.8-0.8,1.1s-0.8,0.4-1.3,0.4h-3c-0.3,0-0.5,0.1-0.6,0.4
		c-0.1,0.2,0,0.3,0.1,0.5c0.1,0.1,0.3,0.2,0.4,0.2h4.9c0.2,0,0.3,0,0.5-0.1c0.1-0.1,0.2-0.2,0.2-0.4l0.1-0.2L103.3,150.8
		L103.3,150.8z M69.3,145.6H75l-0.9,3.3c-0.1,0.5-0.4,0.8-0.7,1.1c-0.4,0.3-0.8,0.4-1.3,0.4h-2.6c-0.6,0-1.1,0.2-1.6,0.5
		s-0.8,0.8-1,1.4c-0.1,0.5-0.1,0.9,0,1.3s0.3,0.8,0.5,1.1s0.5,0.6,0.9,0.7c0.4,0.2,0.8,0.3,1.2,0.3H71c0.3,0,0.5,0.1,0.7,0.4
		c0.2,0.2,0.2,0.5,0.2,0.8l-1,3.7h-1.7c-1.2,0-2.3-0.3-3.3-0.8s-1.8-1.2-2.5-2.1c-0.7-0.9-1.1-1.9-1.4-3c-0.2-1.1-0.2-2.2,0.1-3.4
		l0.1-0.4c0.2-0.8,0.6-1.5,1-2.2c0.5-0.7,1-1.2,1.6-1.7s1.3-0.8,2.1-1.1C67.7,145.7,68.5,145.6,69.3,145.6 M72.2,160.7l4.9-18.5
		c0.1-0.5,0.4-0.8,0.8-1.1s0.8-0.4,1.3-0.4h5.2c1.2,0,2.3,0.3,3.3,0.8s1.8,1.2,2.5,2.1c0.7,0.9,1.1,1.9,1.4,3s0.2,2.2-0.1,3.4
		l-0.1,0.4c-0.2,0.8-0.5,1.5-1,2.2c-0.4,0.7-1,1.3-1.6,1.7c-0.6,0.5-1.3,0.9-2.1,1.1c-0.8,0.3-1.6,0.4-2.4,0.4h-4.5l0.9-3.4
		c0.1-0.5,0.4-0.8,0.8-1.1s0.8-0.4,1.3-0.4h1.4c0.6,0,1.1-0.2,1.6-0.6c0.5-0.4,0.8-0.8,0.9-1.4c0.1-0.4,0.1-0.8,0-1.2
		s-0.3-0.8-0.5-1.1s-0.5-0.6-0.9-0.8s-0.8-0.3-1.2-0.3h-2.8l-3.6,13.6c-0.1,0.5-0.4,0.8-0.8,1.1s-0.8,0.4-1.3,0.4h-3.4L72.2,160.7z
		 M117.9,145.6c1.2,0,2.3,0.3,3.3,0.8s1.8,1.2,2.5,2.1c0.7,0.9,1.1,1.9,1.4,3c0.2,1.1,0.2,2.3-0.1,3.4l-1.3,4.7
		c-0.1,0.3-0.3,0.6-0.5,0.8c-0.3,0.2-0.6,0.3-0.9,0.3h-2.7c-0.3,0-0.6-0.1-0.8-0.4c-0.2-0.2-0.2-0.5-0.1-0.8l1.5-5.7
		c0.1-0.4,0.1-0.8,0-1.2s-0.3-0.8-0.5-1.1s-0.5-0.6-0.9-0.7c-0.4-0.2-0.8-0.3-1.2-0.3h-2.8l-2.4,9.1c-0.1,0.3-0.3,0.6-0.5,0.8
		c-0.3,0.2-0.6,0.3-0.9,0.3h-2.7c-0.3,0-0.5-0.1-0.7-0.4c-0.2-0.2-0.2-0.5-0.2-0.8l3.7-13.9L117.9,145.6L117.9,145.6z M132.6,150.4
		c-0.2,0.2-0.3,0.4-0.4,0.6l-1.1,4.3c-0.1,0.2,0,0.4,0.1,0.7c0.2,0.2,0.4,0.3,0.6,0.3h10.4l-0.8,3c-0.1,0.5-0.4,0.8-0.8,1.1
		c-0.4,0.3-0.8,0.4-1.3,0.4h-9.4c-0.7,0-1.3-0.1-1.9-0.4c-0.6-0.3-1-0.7-1.4-1.2s-0.6-1-0.8-1.7c-0.1-0.6-0.1-1.3,0.1-1.9l1.5-5.7
		c0.2-0.6,0.4-1.2,0.8-1.7c0.3-0.5,0.8-1,1.2-1.3c0.5-0.4,1-0.7,1.6-0.9s1.2-0.3,1.8-0.3h6.7c0.7,0,1.3,0.2,1.9,0.4
		c0.6,0.3,1,0.7,1.4,1.2s0.6,1,0.8,1.7c0.1,0.6,0.1,1.3-0.1,1.9l-0.5,1.7c-0.2,0.8-0.6,1.4-1.2,1.8c-0.6,0.5-1.3,0.7-2.1,0.7h-7.5
		l0.5-1.9c0.1-0.4,0.4-0.8,0.7-1.1c0.4-0.3,0.8-0.4,1.3-0.4h3.1c0.3,0,0.5-0.1,0.6-0.4l0.1-0.4c0.1-0.2,0-0.4-0.1-0.5
		c-0.1-0.2-0.3-0.2-0.5-0.2h-4.6C133,150.1,132.8,150.2,132.6,150.4 M142.1,160.7l5-18.9c0.1-0.3,0.3-0.6,0.5-0.8
		c0.3-0.2,0.6-0.3,0.9-0.3h2.7c0.3,0,0.6,0.1,0.8,0.4c0.2,0.2,0.2,0.5,0.2,0.8l-3.7,13.9c-0.2,0.7-0.5,1.4-0.9,2s-0.9,1.1-1.5,1.5
		s-1.2,0.8-1.9,1C143.6,160.5,142.9,160.7,142.1,160.7"/>
</g>
<g>
	<path id="svg-ico" class="controlpanel2" d="M504.4,100.9c0,2.2-1.8,4-4,4s-4-1.8-4-4s1.8-4,4-4S504.4,98.6,504.4,100.9z"/>
	
		<animateMotion  accumulate="none" additive="replace" begin="0s" calcMode="paced" dur="12s" fill="remove" path="M40, 0 -495 0 45 0" repeatCount="indefinite" restart="always">
		</animateMotion>
</g>
</svg>
