<?xml version="1.0" encoding="utf-8"?>
<!-- Generator: Adobe Illustrator 24.3.0, SVG Export Plug-In . SVG Version: 6.00 Build 0)  -->
<svg version="1.1" id="Layer_1" xmlns="http://www.w3.org/2000/svg" xmlns:xlink="http://www.w3.org/1999/xlink" x="0px" y="0px"
	 viewBox="0 0 480.8 419.6" style="enable-background:new 0 0 480.8 419.6;" xml:space="preserve">
<style type="text/css">
	.dbaasscale0{fill:none;stroke:#808080;stroke-linecap:round;stroke-linejoin:round;stroke-miterlimit:10;}
	.dbaasscale1{fill:none;stroke:#EE5586;stroke-width:2;stroke-linecap:round;stroke-linejoin:round;stroke-miterlimit:10;}
	.dbaasscale2{fill:none;}
	.dbaasscale3{fill:none;stroke:#EE5586;stroke-width:3;stroke-linecap:round;stroke-linejoin:round;stroke-miterlimit:10;}
</style>
<path class="dbaasscale0" d="M120.6,252.2c-6.9,0.5-14.1,0.8-21.5,0.8c-52.6,0-95.2-14.1-95.2-31.5v-127C3.9,77.1,46.5,63,99.1,63
	c7,0,13.8,0.2,20.3,0.7"/>
<path class="dbaasscale0" d="M120.7,125.2c-7,0.5-14.2,0.8-21.7,0.8c-52.6,0-95.1-14.1-95.1-31.5 M120.7,188.7c-7,0.5-14.2,0.8-21.7,0.8
	c-52.6,0-95.1-14.1-95.1-31.5"/>
<path id="svg-concept" class="dbaasscale1" d="M106.6,295.7c0,5.4-4.4,9.8-9.8,9.8s-9.8-4.4-9.8-9.8s4.4-9.8,9.8-9.8
	C102.2,285.8,106.6,290.2,106.6,295.7z M96.7,266.2v19.6 M32.1,295.7h54.8 M106.6,295.7h13.5"/>
<path class="dbaasscale0" d="M350.5,53.9c9.6-1.1,19.9-1.7,30.6-1.7c52.6,0,95.2,14.1,95.2,31.5v127c0,17.4-42.6,31.5-95.2,31.5
	c-11.4,0-22.3-0.7-32.4-1.9"/>
<path class="dbaasscale0" d="M441.6,143.2c0,4.9-3.9,8.8-8.8,8.8s-8.8-3.9-8.8-8.8s3.9-8.8,8.8-8.8S441.6,138.4,441.6,143.2z"/>
<path class="dbaasscale0" d="M436.1,143.2c0,1.8-1.5,3.3-3.3,3.3s-3.3-1.5-3.3-3.3s1.5-3.3,3.3-3.3C434.6,140,436.1,141.4,436.1,143.2z"/>
<line class="dbaasscale0" x1="441.6" y1="143.2" x2="436.1" y2="143.2"/>
<line class="dbaasscale0" x1="429.6" y1="143.2" x2="424" y2="143.2"/>
<path class="dbaasscale0" d="M441.6,207c0,4.9-3.9,8.8-8.8,8.8s-8.8-3.9-8.8-8.8s3.9-8.8,8.8-8.8C437.7,198.3,441.6,202.2,441.6,207z"/>
<path class="dbaasscale0" d="M436.1,207c0,1.8-1.5,3.3-3.3,3.3s-3.3-1.5-3.3-3.3s1.5-3.3,3.3-3.3C434.6,203.8,436.1,205.2,436.1,207z
	 M441.6,207.1h-5.5 M429.6,207.1H424"/>
<path class="dbaasscale0" d="M476.3,83.7c0,15.5-33.7,28.3-78.1,31 M476.3,147.2c0,17.4-42.6,31.5-95.2,31.5c-10.7,0-23.2-1.2-32.8-2.3"/>
<path id="svg-concept" class="dbaasscale1" d="M388.6,284.8c0,5.4-4.4,9.8-9.8,9.8s-9.8-4.4-9.8-9.8s4.4-9.8,9.8-9.8
	S388.6,279.4,388.6,284.8z M378.8,255.4V275 M349.1,284.9H369 M388.6,284.9h54.8"/>
<g>
	<path class="dbaasscale0" d="M348.3,162v151.9c0,20.8-51,37.7-113.8,37.7s-113.8-16.9-113.8-37.7V162h0c0-6.2,4.6-12.1,12.6-17.2"/>
	<path id="svg-concept" class="dbaasscale1" d="M306.9,233.2c0,5.8-4.7,10.5-10.5,10.5s-10.5-4.7-10.5-10.5s4.7-10.5,10.5-10.5
		S306.9,227.4,306.9,233.2z"/>
	<path id="svg-concept" class="dbaasscale1" d="M300.3,233.2c0,2.2-1.7,3.9-3.9,3.9s-3.9-1.8-3.9-3.9s1.7-3.9,3.9-3.9
		C298.5,229.3,300.3,231,300.3,233.2z M306.9,233.2h-6.6 M292.5,233.2h-6.6 M306.9,309.5c0,5.8-4.7,10.5-10.5,10.5
		s-10.5-4.7-10.5-10.5s4.7-10.5,10.5-10.5S306.9,303.7,306.9,309.5z"/>
	<path id="svg-concept" class="dbaasscale1" d="M300.3,309.5c0,2.2-1.7,3.9-3.9,3.9s-3.9-1.8-3.9-3.9s1.7-3.9,3.9-3.9
		C298.5,305.6,300.3,307.4,300.3,309.5z M306.9,309.5h-6.6 M292.5,309.5h-6.6"/>
	<path class="dbaasscale0" d="M348.4,238c0,20.8-51,37.7-113.8,37.7S120.7,258.8,120.7,238"/>
	<path id="svg-concept" class="dbaasscale1" d="M243.5,402.6c0,6.5-5.3,11.8-11.8,11.8S220,409,220,402.6c0-6.5,5.3-11.7,11.8-11.7
		S243.5,396.1,243.5,402.6z M231.8,367.3v23.5 M154.4,402.6H220 M243.5,402.6h65.6"/>
	<path class="dbaasscale0" d="M348.4,162c0,20.8-51,37.7-113.8,37.7S120.7,182.8,120.7,162"/>
</g>
<path class="dbaasscale2" d="M120.7,53.3c0-20.8,36.6-50.6,113.8-50.6c57,0,113.8,20.7,113.8,50.6v66.9c0,29-51,50.6-113.8,50.6
	s-113.8-22.3-113.8-50.6L120.7,53.3L120.7,53.3z"/>
<g>
	<path class="dbaasscale0" d="M234.7,103.9c-62.9,0-114-22.6-114-50.6c0-29.9,51.7-50.6,114-50.6c62.9,0,114,22.7,114,50.6 M234.7,170.8
		c-62.9,0-114-22.6-114-50.6 M234.7,2.7v50.6 M234.7,53.3h-114 M161.7,92.1l146-77.7 M161.7,92.1v67 M348.4,53.3H234.7 M161.7,14.4
		l73,38.9 M120.7,120.2V53.3"/>
</g>
<g>
	<path class="dbaasscale0" d="M307.7,159.1c-19.8,7.3-45.2,11.7-73,11.7v-66.9 M281,99.5c-14.1,2.8-29.8,4.3-46.3,4.3 M307.7,92.1
		c-8,3-17,5.5-26.7,7.4"/>
</g>
<path class="dbaasscale0" d="M397.5,114.8c-18,0-34.9-1.7-49.2-4.5"/>
<path class="dbaasscale0" d="M335,143.9c8.5,5.3,13.3,11.3,13.3,17.7"/>
<g>
	<path id="svg-concept" class="dbaasscale3" d="M396.8,53.3h-114v50.6l72.9,55.2c25-9.3,41-23.2,41-38.8v-67"/>
	<path id="svg-concept" class="dbaasscale3" d="M396.8,53.3c0.9,15.4-15.2,28.7-41,38.8 M282.8,53.3l73,39.1 M355.8,92.4v66.7"/>
	
		<animateMotion  accumulate="none" additive="replace" begin="0s" calcMode="paced" dur="3s" fill="freeze" path="M8, 0 -48 0 48" restart="always">
		</animateMotion>
</g>
</svg>
