<?xml version="1.0" encoding="utf-8"?>
<!-- Generator: Adobe Illustrator 24.3.0, SVG Export Plug-In . SVG Version: 6.00 Build 0)  -->
<svg version="1.1" id="Layer_1" xmlns="http://www.w3.org/2000/svg" xmlns:xlink="http://www.w3.org/1999/xlink" x="0px" y="0px"
	 viewBox="0 0 496.8 429" style="enable-background:new 0 0 496.8 429;" xml:space="preserve">
<style type="text/css">
	.dbaasecure0{fill:none;stroke:#808080;stroke-linecap:round;stroke-linejoin:round;stroke-miterlimit:10;}
	.dbaasecure1{fill:none;stroke:#EE5586;stroke-width:3;stroke-linecap:round;stroke-linejoin:round;stroke-miterlimit:10;}
	.dbaasecure2{fill:none;stroke:#EE5586;stroke-width:2;stroke-linecap:round;stroke-linejoin:round;stroke-miterlimit:10;}
</style>
<path class="dbaasecure0" d="M65.3,114.5C100.9,47.6,171.2,2.1,252.1,2.1c117.3,0,212.1,94.7,212.1,212c0,116.8-94.7,211.7-212.1,211.7
	c-80.9,0-151.3-45.5-186.9-112.4C65.2,313.4,65.3,114.5,65.3,114.5z"/>
<g>
	<path id="svg-concept" class="dbaasecure1" d="M98.1,64.5h311.8"/>
	
		<animateMotion  accumulate="none" additive="replace" begin="0s" calcMode="paced" dur="4s" fill="freeze" path="M8, 0 85 0 85" restart="always">
		</animateMotion>
</g>
<g>
	<path id="svg-concept" class="dbaasecure1" d="M119.7,82.4h311.8"/>
	
		<animateMotion  accumulate="none" additive="replace" begin="0s" calcMode="paced" dur="4s" fill="freeze" path="M8, 0 63 0 63" restart="always">
		</animateMotion>
</g>
<g>
	<path class="dbaasecure0" d="M246.2,158.6c33.9,0,61.3,27.4,61.3,61.3c0,33.8-27.4,61.2-61.3,61.2c-33.8,0-61.2-27.4-61.2-61.2
		C185,186,212.4,158.6,246.2,158.6z"/>
	<path class="dbaasecure0" d="M246.2,168.3c28.6,0,51.7,23.1,51.7,51.7c0,28.5-23.1,51.6-51.7,51.6c-28.5,0-51.6-23.1-51.6-51.6
		C194.7,191.4,217.8,168.3,246.2,168.3L246.2,168.3z M246,197.7v-61.3 M258.7,238.4l35.9,48.5"/>
	<circle id="svg-concept" class="dbaasecure2" cx="246" cy="128.4" r="8"/>
	<circle id="svg-concept" class="dbaasecure2" cx="300.2" cy="294.1" r="8"/>
	<path class="dbaasecure0" d="M233.6,238l-34.9,49.3"/>
	<circle id="svg-concept" class="dbaasecure2" cx="193.6" cy="294.9" r="8"/>
	<path class="dbaasecure0" d="M224.9,213l-58.6-18"/>
	<circle id="svg-concept" class="dbaasecure2" cx="158.6" cy="192.6" r="8"/>
	<path class="dbaasecure0" d="M267.7,213.9l58.1-19.5"/>
	<circle id="svg-concept" class="dbaasecure2" cx="333.4" cy="191.8" r="8"/>
	<path id="svg-concept" class="dbaasecure1" d="M246.3,197.7c12.3,0,22.2,9.9,22.2,22.2c0,12.2-9.9,22.2-22.2,22.2
		c-12.2,0-22.2-9.9-22.2-22.2S234,197.7,246.3,197.7z"/>
	
		<animateTransform  accumulate="none" additive="replace" attributeName="transform" begin="0s" calcMode="linear" dur="4s" fill="freeze" from="0 246 220" restart="always" to="360 246 220" type="rotate">
		</animateTransform>
</g>
<g>
	<path id="svg-concept" class="dbaasecure1" d="M98.1,345.5h311.8"/>
	
		<animateMotion  accumulate="none" additive="replace" begin="0s" calcMode="paced" dur="4s" fill="freeze" path="M8, 0 85 0 85" restart="always">
		</animateMotion>
</g>
<g>
	<path id="svg-concept" class="dbaasecure1" d="M119.7,363.4h311.8"/>
	
		<animateMotion  accumulate="none" additive="replace" begin="0s" calcMode="paced" dur="4s" fill="freeze" path="M8, 0 63 0 63" restart="always">
		</animateMotion>
</g>
<path class="dbaasecure0" d="M451,58.7v-8.1 M451,76.7v-6.6 M451,95.7v-7.6 M464.2,58.7v-8.1 M464.2,76.7v-6.6 M464.2,95.7v-7.6"/>
<path class="dbaasecure0" d="M446.7,58.7h8.5v11.4h-8.5V58.7z M446.7,76.7h8.5v11.4h-8.5V76.7z M460,58.7h8.5v11.4H460V58.7z M460,76.7h8.5
	v11.4H460V76.7z"/>
<path class="dbaasecure0" d="M451,339.7v-8.1 M451,357.7v-6.6 M451,376.7v-7.6 M464.2,339.7v-8.1 M464.2,357.7v-6.6 M464.2,376.7v-7.6"/>
<path class="dbaasecure0" d="M446.7,339.7h8.5v11.4h-8.5V339.7z M446.7,357.7h8.5v11.4h-8.5V357.7z M460,339.7h8.5v11.4H460V339.7z
	 M460,357.7h8.5v11.4H460V357.7z"/>
<g>
	<path class="dbaasecure0" d="M60.9,330.7H16.4c-2.4,0-4.3-1.9-4.3-4.3V101.5c0-2.4,1.9-4.3,4.3-4.3h44.5c2.4,0,4.3,1.9,4.3,4.3v224.9
		C65.2,328.8,63.2,330.7,60.9,330.7L60.9,330.7z"/>
	<path class="dbaasecure0" d="M12.1,295H6c-1.6,0-2.8-1.3-2.8-2.8V135.4c0-1.6,1.3-2.8,2.8-2.8h6.1V295z M23.9,97c0-8.1,6.6-14.7,14.7-14.7
		S53.3,88.9,53.3,97H23.9z M53.3,330.7c0,8.1-6.6,14.7-14.7,14.7s-14.7-6.6-14.7-14.7C23.9,330.7,53.3,330.7,53.3,330.7z"/>
	<circle class="dbaasecure0" cx="38.6" cy="157.5" r="9.5"/>
	<circle class="dbaasecure0" cx="38.6" cy="195" r="9.5"/>
	<circle class="dbaasecure0" cx="38.6" cy="232.5" r="9.5"/>
	<circle class="dbaasecure0" cx="38.6" cy="270" r="9.5"/>
	<path class="dbaasecure0" d="M48.1,158.2h41.4 M48.1,270h41.4 M65.2,235.1h30.5 M65.2,213.8h30.5 M65.2,192.5h30.5 M110.2,258.3H98.5
		c-1.6,0-2.8-1.3-2.8-2.8v-83.1c0-1.6,1.3-2.8,2.8-2.8h11.7c1.6,0,2.8,1.3,2.8,2.8v83.1C113,257.1,111.7,258.3,110.2,258.3z"/>
	<g>
		<path class="dbaasecure0" d="M109.9,235.2c0,3.1-2.5,5.6-5.6,5.6s-5.6-2.5-5.6-5.6s2.5-5.6,5.6-5.6S109.9,232.1,109.9,235.2z"/>
		<path class="dbaasecure0" d="M106.4,235.2c0,1.1-0.9,2.1-2.1,2.1c-1.1,0-2.1-0.9-2.1-2.1c0-1.1,0.9-2.1,2.1-2.1S106.4,234.1,106.4,235.2z
			 M109.9,235.2h-3.5 M102.3,235.2h-3.6"/>
	</g>
	<g>
		<path class="dbaasecure0" d="M109.9,213.8c0,3.1-2.5,5.6-5.6,5.6s-5.6-2.5-5.6-5.6s2.5-5.6,5.6-5.6S109.9,210.7,109.9,213.8z"/>
		<path class="dbaasecure0" d="M106.4,213.8c0,1.1-0.9,2.1-2.1,2.1c-1.1,0-2.1-0.9-2.1-2.1s0.9-2.1,2.1-2.1S106.4,212.6,106.4,213.8z
			 M109.9,213.8h-3.5 M102.3,213.8h-3.6"/>
	</g>
	<g>
		<path class="dbaasecure0" d="M109.9,192.3c0,3.1-2.5,5.6-5.6,5.6s-5.6-2.5-5.6-5.6s2.5-5.6,5.6-5.6C107.4,186.8,109.9,189.3,109.9,192.3z"
			/>
		<path class="dbaasecure0" d="M106.4,192.4c0,1.1-0.9,2.1-2.1,2.1c-1.1,0-2.1-0.9-2.1-2.1c0-1.1,0.9-2.1,2.1-2.1S106.4,191.2,106.4,192.4z
			 M109.9,192.4h-3.5 M102.3,192.4h-3.6"/>
	</g>
</g>
<g>
	<path class="dbaasecure0" d="M216.3,97.6V49.3 M275.6,97.6V49.3 M216.3,378.6v-48.3 M275.6,378.6v-48.3 M403.3,252.1v-66.3 M414.7,251.9
		v-66.3 M414.7,185.6c0,3.1-2.5,5.7-5.7,5.7c-3.1,0-5.7-2.5-5.7-5.7s2.5-5.7,5.7-5.7C412.1,180,414.7,182.5,414.7,185.6z"/>
	<path class="dbaasecure0" d="M411.1,185.6c0,1.2-0.9,2.1-2.1,2.1s-2.1-0.9-2.1-2.1s0.9-2.1,2.1-2.1S411.1,184.5,411.1,185.6z M414.7,185.6
		h-3.6 M406.9,185.6h-3.6"/>
	<g>
		<path class="dbaasecure0" d="M414.7,252.1c0,3.1-2.5,5.7-5.7,5.7c-3.1,0-5.7-2.5-5.7-5.7s2.5-5.7,5.7-5.7
			C412.1,246.5,414.7,249,414.7,252.1L414.7,252.1z"/>
		<path class="dbaasecure0" d="M411.1,252.1c0,1.2-0.9,2.1-2.1,2.1s-2.1-0.9-2.1-2.1c0-1.2,0.9-2.1,2.1-2.1S411.1,251,411.1,252.1z
			 M414.7,252.1h-3.6 M406.9,252.1h-3.6"/>
	</g>
	<g>
		<path class="dbaasecure0" d="M226.1,49.2c0-2.5,2-4.6,4.6-4.6c2.5,0,4.6,2,4.6,4.6v48.4c0,2.5-2.1,4.6-4.6,4.6s-4.6-2.1-4.6-4.6V49.2z"/>
		<path class="dbaasecure0" d="M226.1,97.6c0-2.5,2-4.6,4.6-4.6c2.5,0,4.6,2,4.6,4.6"/>
		<path class="dbaasecure0" d="M232.3,97.6c0,0.9-0.8,1.7-1.7,1.7s-1.7-0.8-1.7-1.7s0.8-1.7,1.7-1.7C231.6,95.9,232.3,96.7,232.3,97.6z
			 M235.2,97.6h-2.9 M228.9,97.6h-2.8"/>
		<g>
			<path class="dbaasecure0" d="M235.2,49.2c0,2.5-2.1,4.6-4.6,4.6s-4.6-2.1-4.6-4.6"/>
			<path class="dbaasecure0" d="M232.3,49.2c0,0.9-0.8,1.7-1.7,1.7s-1.7-0.8-1.7-1.7s0.8-1.7,1.7-1.7C231.6,47.5,232.3,48.2,232.3,49.2z
				 M235.2,49.2h-2.9 M228.9,49.2h-2.8"/>
		</g>
	</g>
	<g>
		<path class="dbaasecure0" d="M256,49.2c0-2.5,2-4.6,4.6-4.6c2.5,0,4.6,2,4.6,4.6v48.4c0,2.5-2.1,4.6-4.6,4.6s-4.6-2.1-4.6-4.6V49.2z"/>
		<path class="dbaasecure0" d="M256,97.6c0-2.5,2-4.6,4.6-4.6c2.5,0,4.6,2,4.6,4.6"/>
		<path class="dbaasecure0" d="M262.2,97.6c0,0.9-0.8,1.7-1.7,1.7c-0.9,0-1.7-0.8-1.7-1.7s0.8-1.7,1.7-1.7C261.5,95.9,262.2,96.7,262.2,97.6
			z M265.1,97.6h-2.9 M258.9,97.6H256"/>
		<g>
			<path class="dbaasecure0" d="M265.1,49.2c0,2.5-2.1,4.6-4.6,4.6s-4.6-2.1-4.6-4.6"/>
			<path class="dbaasecure0" d="M262.2,49.2c0,0.9-0.8,1.7-1.7,1.7c-0.9,0-1.7-0.8-1.7-1.7s0.8-1.7,1.7-1.7
				C261.5,47.5,262.2,48.2,262.2,49.2z M265.1,49.2h-2.9 M258.9,49.2H256"/>
		</g>
	</g>
	<g>
		<path class="dbaasecure0" d="M226.1,330.2c0-2.5,2-4.6,4.6-4.6c2.5,0,4.6,2,4.6,4.6v48.4c0,2.5-2.1,4.6-4.6,4.6s-4.6-2.1-4.6-4.6V330.2z"
			/>
		<path class="dbaasecure0" d="M226.1,378.6c0-2.5,2-4.6,4.6-4.6c2.5,0,4.6,2,4.6,4.6"/>
		<path class="dbaasecure0" d="M232.3,378.6c0,0.9-0.8,1.7-1.7,1.7s-1.7-0.8-1.7-1.7s0.8-1.7,1.7-1.7C231.6,377,232.3,377.7,232.3,378.6z
			 M235.2,378.7h-2.9 M228.9,378.7h-2.8"/>
		<g>
			<path class="dbaasecure0" d="M235.2,330.2c0,2.5-2.1,4.6-4.6,4.6s-4.6-2.1-4.6-4.6"/>
			<path class="dbaasecure0" d="M232.3,330.2c0,0.9-0.8,1.7-1.7,1.7s-1.7-0.8-1.7-1.7s0.8-1.7,1.7-1.7C231.6,328.5,232.3,329.3,232.3,330.2z
				 M235.2,330.2h-2.9 M228.9,330.2h-2.8"/>
		</g>
	</g>
	<g>
		<path class="dbaasecure0" d="M256,330.2c0-2.5,2-4.6,4.6-4.6c2.5,0,4.6,2,4.6,4.6v48.4c0,2.5-2.1,4.6-4.6,4.6s-4.6-2.1-4.6-4.6V330.2z"/>
		<path class="dbaasecure0" d="M256,378.6c0-2.5,2-4.6,4.6-4.6c2.5,0,4.6,2,4.6,4.6"/>
		<path class="dbaasecure0" d="M262.2,378.6c0,0.9-0.8,1.7-1.7,1.7c-0.9,0-1.7-0.8-1.7-1.7s0.8-1.7,1.7-1.7
			C261.5,377,262.2,377.7,262.2,378.6z M265.1,378.7h-2.9 M258.9,378.7H256"/>
		<g>
			<path class="dbaasecure0" d="M265.1,330.2c0,2.5-2.1,4.6-4.6,4.6s-4.6-2.1-4.6-4.6"/>
			<path class="dbaasecure0" d="M262.2,330.2c0,0.9-0.8,1.7-1.7,1.7c-0.9,0-1.7-0.8-1.7-1.7s0.8-1.7,1.7-1.7
				C261.5,328.5,262.2,329.3,262.2,330.2z M265.1,330.2h-2.9 M258.9,330.2H256"/>
		</g>
	</g>
</g>
</svg>
