<?xml version="1.0" encoding="utf-8"?>
<!-- Generator: Adobe Illustrator 24.3.0, SVG Export Plug-In . SVG Version: 6.00 Build 0)  -->
<svg version="1.1" id="Layer_1" xmlns="http://www.w3.org/2000/svg" xmlns:xlink="http://www.w3.org/1999/xlink" x="0px" y="0px"
	 viewBox="0 0 496.8 372" style="enable-background:new 0 0 496.8 372;" xml:space="preserve">
<style type="text/css">
	.ddoslayers0{fill:none;stroke:#808080;stroke-linecap:round;stroke-linejoin:round;stroke-miterlimit:10;}
	.ddoslayers1{fill:none;stroke:#808080;stroke-width:2;stroke-linecap:round;stroke-linejoin:round;stroke-miterlimit:10;}
	.ddoslayers2{fill:none;stroke:#EE5586;stroke-width:2;stroke-linecap:round;stroke-linejoin:round;stroke-miterlimit:10;}
	.ddoslayers3{fill:none;stroke:#D7D7D7;stroke-miterlimit:10;}
	.ddoslayers4{fill:#EE5586;}
</style>
<path class="ddoslayers0" d="M436.1,14.7l-72.7,51.7C359.3,68.9,356,73,356,81v214.7c0,8,2.8,11.5,7.3,14.6l72.7,45.9"/>
<path class="ddoslayers1" d="M446.6,365.7c-5.8,0-10.6-4.3-10.6-9.6V14.7c0-5.3,4.7-9.6,10.6-9.6H484c5.8,0,10.6,4.3,10.6,9.6v341.4
	c0,5.3-4.7,9.6-10.6,9.6H446.6z"/>
<path class="ddoslayers0" d="M60.7,14.7l72.7,51.7c4.1,2.5,7.3,6.6,7.3,14.6v214.7c0,8-2.8,11.5-7.3,14.6l-72.7,45.9"/>
<path class="ddoslayers1" d="M12.7,365.7c-5.8,0-10.6-4.3-10.6-9.6V14.7C2.2,9.4,6.9,5,12.7,5h37.4c5.8,0,10.6,4.3,10.6,9.6V356
	c0,5.3-4.7,9.6-10.6,9.6H12.7V365.7z"/>
<path id="svg-concept" class="ddoslayers2" d="M35.7,100v-2.3c0-0.7,0.5-1.2,1.2-1.2h2.3c0.7,0,1.2,0.5,1.2,1.2v2.3c0,0.7-0.5,1.2-1.2,1.2
	h-2.3C36.2,101.2,35.7,100.7,35.7,100z M17.9,94v-3.2c0-0.9,0.8-1.7,1.7-1.7h3.2c0.9,0,1.7,0.8,1.7,1.7V94c0,0.9-0.8,1.7-1.7,1.7
	h-3.2C18.6,95.7,17.9,95,17.9,94z M35.7,181.5v-2.3c0-0.7,0.5-1.2,1.2-1.2h2.3c0.7,0,1.2,0.5,1.2,1.2v2.3c0,0.7-0.5,1.2-1.2,1.2
	h-2.3C36.2,182.7,35.7,182.1,35.7,181.5z M17.9,175.5v-3.2c0-0.9,0.8-1.7,1.7-1.7h3.2c0.9,0,1.7,0.8,1.7,1.7v3.2
	c0,0.9-0.8,1.7-1.7,1.7h-3.2C18.6,177.2,17.9,176.4,17.9,175.5z M35.7,262.9v-2.3c0-0.7,0.5-1.2,1.2-1.2h2.3c0.7,0,1.2,0.5,1.2,1.2
	v2.3c0,0.7-0.5,1.2-1.2,1.2h-2.3C36.2,264.2,35.7,263.6,35.7,262.9z M17.9,257v-3.2c0-0.9,0.8-1.7,1.7-1.7h3.2
	c0.9,0,1.7,0.8,1.7,1.7v3.2c0,0.9-0.8,1.7-1.7,1.7h-3.2C18.6,258.7,17.9,257.9,17.9,257z M31.4,320.3c-6.9,0-12.5-5.6-12.5-12.5
	s5.6-12.5,12.5-12.5s12.5,5.6,12.5,12.5S38.4,320.3,31.4,320.3z"/>
<path id="svg-concept" class="ddoslayers2" d="M31.4,312.4c-2.6,0-4.6-2.1-4.6-4.6c0-2.6,2.1-4.6,4.6-4.6c2.6,0,4.6,2.1,4.6,4.6
	C36.1,310.4,34,312.4,31.4,312.4z M31.4,320.3v-7.9 M31.4,303.2v-7.9"/>
<path class="ddoslayers0" d="M60.7,24.9H2.4 M60.7,345.9H2.2 M13.3,97.2V35.6c0-2.2,1.8-4,4-4h7.6c2.2,0,4,1.8,4,4v61.6c0,2.2-1.8,4-4,4
	h-7.6C15.1,101.2,13.3,99.4,13.3,97.2z M35.7,40.8v-2.3c0-0.7,0.5-1.2,1.2-1.2h2.3c0.7,0,1.2,0.5,1.2,1.2v2.3c0,0.7-0.5,1.2-1.2,1.2
	h-2.3C36.2,42,35.7,41.4,35.7,40.8z M35.7,50.3V48c0-0.7,0.5-1.2,1.2-1.2h2.3c0.7,0,1.2,0.5,1.2,1.2v2.3c0,0.7-0.5,1.2-1.2,1.2h-2.3
	C36.2,51.5,35.7,51,35.7,50.3z M35.7,63.7v-2.3c0-0.7,0.5-1.2,1.2-1.2h2.3c0.7,0,1.2,0.5,1.2,1.2v2.3c0,0.7-0.5,1.2-1.2,1.2h-2.3
	C36.2,65,35.7,64.4,35.7,63.7z M46,40.8v-2.3c0-0.7,0.5-1.2,1.2-1.2h2.3c0.7,0,1.2,0.5,1.2,1.2v2.3c0,0.7-0.5,1.2-1.2,1.2h-2.3
	C46.6,42,46,41.4,46,40.8z M46,50.3V48c0-0.7,0.5-1.2,1.2-1.2h2.3c0.7,0,1.2,0.5,1.2,1.2v2.3c0,0.7-0.5,1.2-1.2,1.2h-2.3
	C46.6,51.5,46,51,46,50.3z M46,99.9v-2.3c0-0.7,0.5-1.2,1.2-1.2h2.3c0.7,0,1.2,0.5,1.2,1.2v2.3c0,0.7-0.5,1.2-1.2,1.2h-2.3
	C46.6,101.1,46,100.5,46,99.9z M35.7,73.3V71c0-0.7,0.5-1.2,1.2-1.2h2.3c0.7,0,1.2,0.5,1.2,1.2v2.3c0,0.7-0.5,1.2-1.2,1.2h-2.3
	C36.2,74.5,35.7,74,35.7,73.3z M35.7,82.7v-2.3c0-0.7,0.5-1.2,1.2-1.2h2.3c0.7,0,1.2,0.5,1.2,1.2v2.3c0,0.7-0.5,1.2-1.2,1.2h-2.3
	C36.2,83.9,35.7,83.3,35.7,82.7z"/>
<path class="ddoslayers0" d="M35.7,82.8v-2.3c0-0.7,0.5-1.2,1.2-1.2h2.3c0.7,0,1.2,0.5,1.2,1.2v2.3c0,0.7-0.5,1.2-1.2,1.2h-2.3
	C36.2,84,35.7,83.5,35.7,82.8z M46,82.8V62.2c0-0.7,0.5-1.2,1.2-1.2h2.3c0.7,0,1.2,0.5,1.2,1.2v20.6c0,0.7-0.5,1.2-1.2,1.2h-2.3
	C46.6,84,46,83.5,46,82.8z M28.9,56.1H13.3 M17.9,81.9v-3.2c0-0.9,0.8-1.7,1.7-1.7h3.2c0.9,0,1.7,0.8,1.7,1.7v3.2
	c0,0.9-0.8,1.7-1.7,1.7h-3.2C18.6,83.6,17.9,82.9,17.9,81.9z M13.3,178.7v-61.6c0-2.2,1.8-4,4-4h7.6c2.2,0,4,1.8,4,4v61.6
	c0,2.2-1.8,4-4,4h-7.6C15.1,182.7,13.3,180.9,13.3,178.7z M35.7,122.2v-2.3c0-0.7,0.5-1.2,1.2-1.2h2.3c0.7,0,1.2,0.5,1.2,1.2v2.3
	c0,0.7-0.5,1.2-1.2,1.2h-2.3C36.2,123.5,35.7,122.9,35.7,122.2z M35.7,131.8v-2.3c0-0.7,0.5-1.2,1.2-1.2h2.3c0.7,0,1.2,0.5,1.2,1.2
	v2.3c0,0.7-0.5,1.2-1.2,1.2h-2.3C36.2,133,35.7,132.5,35.7,131.8z M35.7,145.2v-2.3c0-0.7,0.5-1.2,1.2-1.2h2.3
	c0.7,0,1.2,0.5,1.2,1.2v2.3c0,0.7-0.5,1.2-1.2,1.2h-2.3C36.2,146.4,35.7,145.9,35.7,145.2z M46,122.2v-2.3c0-0.7,0.5-1.2,1.2-1.2
	h2.3c0.7,0,1.2,0.5,1.2,1.2v2.3c0,0.7-0.5,1.2-1.2,1.2h-2.3C46.6,123.5,46,122.9,46,122.2z M46,131.8v-2.3c0-0.7,0.5-1.2,1.2-1.2
	h2.3c0.7,0,1.2,0.5,1.2,1.2v2.3c0,0.7-0.5,1.2-1.2,1.2h-2.3C46.6,133,46,132.5,46,131.8z M46,181.3V179c0-0.7,0.5-1.2,1.2-1.2h2.3
	c0.7,0,1.2,0.5,1.2,1.2v2.3c0,0.7-0.5,1.2-1.2,1.2h-2.3C46.6,182.6,46,182,46,181.3z M35.7,154.8v-2.3c0-0.7,0.5-1.2,1.2-1.2h2.3
	c0.7,0,1.2,0.5,1.2,1.2v2.3c0,0.7-0.5,1.2-1.2,1.2h-2.3C36.2,156,35.7,155.4,35.7,154.8z M35.7,164.1v-2.3c0-0.7,0.5-1.2,1.2-1.2
	h2.3c0.7,0,1.2,0.5,1.2,1.2v2.3c0,0.7-0.5,1.2-1.2,1.2h-2.3C36.2,165.4,35.7,164.8,35.7,164.1z"/>
<path class="ddoslayers0" d="M35.7,164.3V162c0-0.7,0.5-1.2,1.2-1.2h2.3c0.7,0,1.2,0.5,1.2,1.2v2.3c0,0.7-0.5,1.2-1.2,1.2h-2.3
	C36.2,165.5,35.7,165,35.7,164.3z M46,164.3v-20.6c0-0.7,0.5-1.2,1.2-1.2h2.3c0.7,0,1.2,0.5,1.2,1.2v20.6c0,0.7-0.5,1.2-1.2,1.2
	h-2.3C46.6,165.5,46,165,46,164.3z M28.9,137.6H13.3 M17.9,163.4v-3.2c0-0.9,0.8-1.7,1.7-1.7h3.2c0.9,0,1.7,0.8,1.7,1.7v3.2
	c0,0.9-0.8,1.7-1.7,1.7h-3.2C18.6,165.1,17.9,164.3,17.9,163.4z M13.3,260.2v-61.6c0-2.2,1.8-4,4-4h7.6c2.2,0,4,1.8,4,4v61.6
	c0,2.2-1.8,4-4,4h-7.6C15.1,264.2,13.3,262.4,13.3,260.2z M35.7,203.7v-2.3c0-0.7,0.5-1.2,1.2-1.2h2.3c0.7,0,1.2,0.5,1.2,1.2v2.3
	c0,0.7-0.5,1.2-1.2,1.2h-2.3C36.2,204.9,35.7,204.4,35.7,203.7z M35.7,213.3V211c0-0.7,0.5-1.2,1.2-1.2h2.3c0.7,0,1.2,0.5,1.2,1.2
	v2.3c0,0.7-0.5,1.2-1.2,1.2h-2.3C36.2,214.5,35.7,213.9,35.7,213.3z M35.7,226.7v-2.3c0-0.7,0.5-1.2,1.2-1.2h2.3
	c0.7,0,1.2,0.5,1.2,1.2v2.3c0,0.7-0.5,1.2-1.2,1.2h-2.3C36.2,227.9,35.7,227.4,35.7,226.7z M46,203.7v-2.3c0-0.7,0.5-1.2,1.2-1.2
	h2.3c0.7,0,1.2,0.5,1.2,1.2v2.3c0,0.7-0.5,1.2-1.2,1.2h-2.3C46.6,204.9,46,204.4,46,203.7z M46,213.3V211c0-0.7,0.5-1.2,1.2-1.2h2.3
	c0.7,0,1.2,0.5,1.2,1.2v2.3c0,0.7-0.5,1.2-1.2,1.2h-2.3C46.6,214.5,46,213.9,46,213.3z M46,262.8v-2.3c0-0.7,0.5-1.2,1.2-1.2h2.3
	c0.7,0,1.2,0.5,1.2,1.2v2.3c0,0.7-0.5,1.2-1.2,1.2h-2.3C46.6,264,46,263.5,46,262.8z M35.7,236.2v-2.3c0-0.7,0.5-1.2,1.2-1.2h2.3
	c0.7,0,1.2,0.5,1.2,1.2v2.3c0,0.7-0.5,1.2-1.2,1.2h-2.3C36.2,237.5,35.7,236.9,35.7,236.2z M35.7,245.6v-2.3c0-0.7,0.5-1.2,1.2-1.2
	h2.3c0.7,0,1.2,0.5,1.2,1.2v2.3c0,0.7-0.5,1.2-1.2,1.2h-2.3C36.2,246.8,35.7,246.3,35.7,245.6z"/>
<path class="ddoslayers0" d="M35.7,245.8v-2.3c0-0.7,0.5-1.2,1.2-1.2h2.3c0.7,0,1.2,0.5,1.2,1.2v2.3c0,0.7-0.5,1.2-1.2,1.2h-2.3
	C36.2,247,35.7,246.4,35.7,245.8z"/>
<path id="svg-concept" class="ddoslayers2" d="M20.4,337.8c-2,0-3.7-1.7-3.7-3.7s1.7-3.7,3.7-3.7s3.7,1.6,3.7,3.7S22.4,337.8,20.4,337.8z
	"/>
<path class="ddoslayers0" d="M30.8,335.3V333c0-0.7,0.5-1.2,1.2-1.2h2.3c0.7,0,1.2,0.5,1.2,1.2v2.3c0,0.7-0.5,1.2-1.2,1.2H32
	C31.4,336.5,30.8,335.9,30.8,335.3z M41.3,335.3V333c0-0.7,0.5-1.2,1.2-1.2h2.3c0.7,0,1.2,0.5,1.2,1.2v2.3c0,0.7-0.5,1.2-1.2,1.2
	h-2.3C41.9,336.5,41.3,335.9,41.3,335.3z M46,245.8v-20.6c0-0.7,0.5-1.2,1.2-1.2h2.3c0.7,0,1.2,0.5,1.2,1.2v20.6
	c0,0.7-0.5,1.2-1.2,1.2h-2.3C46.6,247,46,246.4,46,245.8z M28.9,219H13.3 M17.9,244.9v-3.2c0-0.9,0.8-1.7,1.7-1.7h3.2
	c0.9,0,1.7,0.8,1.7,1.7v3.2c0,0.9-0.8,1.7-1.7,1.7h-3.2C18.6,246.6,17.9,245.8,17.9,244.9z M60.7,107.9H2.2 M128.4,93.3V81.5
	 M123.9,90.3V79 M119.1,87.4V76 M114.3,84.4V73 M109.6,81.4V70 M41.1,16.2H23.7 M41.1,354.7H23.7 M60.7,188.8H2.2 M60.7,269.7H2.2
	 M114.2,245.6v44.9c0,2.7,2.3,5.7,4.9,4.9l4.7-1.7c3.2-0.9,4.6-3.4,4.6-6v-42c0-2.7-2.2-4.9-4.9-4.9H119
	C116.4,240.7,114.2,242.9,114.2,245.6L114.2,245.6z"/>
<path id="svg-concept" class="ddoslayers2" d="M469.6,100v-2.3c0-0.7,0.5-1.2,1.2-1.2h2.3c0.7,0,1.2,0.5,1.2,1.2v2.3
	c0,0.7-0.5,1.2-1.2,1.2h-2.3C470.1,101.2,469.6,100.7,469.6,100z M451.8,94v-3.2c0-0.9,0.8-1.7,1.7-1.7h3.2c0.9,0,1.7,0.8,1.7,1.7
	V94c0,0.9-0.8,1.7-1.7,1.7h-3.2C452.5,95.7,451.8,95,451.8,94z M469.6,181.5v-2.3c0-0.7,0.5-1.2,1.2-1.2h2.3c0.7,0,1.2,0.5,1.2,1.2
	v2.3c0,0.7-0.5,1.2-1.2,1.2h-2.3C470.1,182.7,469.6,182.1,469.6,181.5z M451.8,175.5v-3.2c0-0.9,0.8-1.7,1.7-1.7h3.2
	c0.9,0,1.7,0.8,1.7,1.7v3.2c0,0.9-0.8,1.7-1.7,1.7h-3.2C452.5,177.2,451.8,176.4,451.8,175.5z M469.6,262.9v-2.3
	c0-0.7,0.5-1.2,1.2-1.2h2.3c0.7,0,1.2,0.5,1.2,1.2v2.3c0,0.7-0.5,1.2-1.2,1.2h-2.3C470.1,264.2,469.6,263.6,469.6,262.9z M451.8,257
	v-3.2c0-0.9,0.8-1.7,1.7-1.7h3.2c0.9,0,1.7,0.8,1.7,1.7v3.2c0,0.9-0.8,1.7-1.7,1.7h-3.2C452.5,258.7,451.8,257.9,451.8,257z
	 M465.3,320.3c-6.9,0-12.5-5.6-12.5-12.5s5.6-12.5,12.5-12.5s12.5,5.6,12.5,12.5S472.2,320.3,465.3,320.3z"/>
<path id="svg-concept" class="ddoslayers2" d="M465.3,312.4c-2.6,0-4.6-2.1-4.6-4.6c0-2.6,2.1-4.6,4.6-4.6s4.6,2.1,4.6,4.6
	C470,310.4,467.9,312.4,465.3,312.4z M465.3,320.3v-7.9 M465.3,303.2v-7.9"/>
<path class="ddoslayers0" d="M494.6,24.9h-58.3 M494.6,345.9h-58.5 M447.2,97.2V35.6c0-2.2,1.8-4,4-4h7.6c2.2,0,4,1.8,4,4v61.6
	c0,2.2-1.8,4-4,4h-7.6C449,101.2,447.2,99.4,447.2,97.2z M469.6,40.8v-2.3c0-0.7,0.5-1.2,1.2-1.2h2.3c0.7,0,1.2,0.5,1.2,1.2v2.3
	c0,0.7-0.5,1.2-1.2,1.2h-2.3C470.1,42,469.6,41.4,469.6,40.8z M469.6,50.3V48c0-0.7,0.5-1.2,1.2-1.2h2.3c0.7,0,1.2,0.5,1.2,1.2v2.3
	c0,0.7-0.5,1.2-1.2,1.2h-2.3C470.1,51.5,469.6,51,469.6,50.3z M469.6,63.7v-2.3c0-0.7,0.5-1.2,1.2-1.2h2.3c0.7,0,1.2,0.5,1.2,1.2
	v2.3c0,0.7-0.5,1.2-1.2,1.2h-2.3C470.1,65,469.6,64.4,469.6,63.7z M479.9,40.8v-2.3c0-0.7,0.5-1.2,1.2-1.2h2.3
	c0.7,0,1.2,0.5,1.2,1.2v2.3c0,0.7-0.5,1.2-1.2,1.2h-2.3C480.5,42,479.9,41.4,479.9,40.8z M479.9,50.3V48c0-0.7,0.5-1.2,1.2-1.2h2.3
	c0.7,0,1.2,0.5,1.2,1.2v2.3c0,0.7-0.5,1.2-1.2,1.2h-2.3C480.5,51.5,479.9,51,479.9,50.3z M479.9,99.9v-2.3c0-0.7,0.5-1.2,1.2-1.2
	h2.3c0.7,0,1.2,0.5,1.2,1.2v2.3c0,0.7-0.5,1.2-1.2,1.2h-2.3C480.5,101.1,479.9,100.5,479.9,99.9z M469.6,73.3V71
	c0-0.7,0.5-1.2,1.2-1.2h2.3c0.7,0,1.2,0.5,1.2,1.2v2.3c0,0.7-0.5,1.2-1.2,1.2h-2.3C470.1,74.5,469.6,74,469.6,73.3z M469.6,82.7
	v-2.3c0-0.7,0.5-1.2,1.2-1.2h2.3c0.7,0,1.2,0.5,1.2,1.2v2.3c0,0.7-0.5,1.2-1.2,1.2h-2.3C470.1,83.9,469.6,83.3,469.6,82.7z"/>
<path class="ddoslayers0" d="M469.6,82.8v-2.3c0-0.7,0.5-1.2,1.2-1.2h2.3c0.7,0,1.2,0.5,1.2,1.2v2.3c0,0.7-0.5,1.2-1.2,1.2h-2.3
	C470.1,84,469.6,83.5,469.6,82.8z M479.9,82.8V62.2c0-0.7,0.5-1.2,1.2-1.2h2.3c0.7,0,1.2,0.5,1.2,1.2v20.6c0,0.7-0.5,1.2-1.2,1.2
	h-2.3C480.5,84,479.9,83.5,479.9,82.8z M462.8,56.1h-15.6 M451.8,81.9v-3.2c0-0.9,0.8-1.7,1.7-1.7h3.2c0.9,0,1.7,0.8,1.7,1.7v3.2
	c0,0.9-0.8,1.7-1.7,1.7h-3.2C452.5,83.6,451.8,82.9,451.8,81.9z M447.2,178.7v-61.6c0-2.2,1.8-4,4-4h7.6c2.2,0,4,1.8,4,4v61.6
	c0,2.2-1.8,4-4,4h-7.6C449,182.7,447.2,180.9,447.2,178.7z M469.6,122.2v-2.3c0-0.7,0.5-1.2,1.2-1.2h2.3c0.7,0,1.2,0.5,1.2,1.2v2.3
	c0,0.7-0.5,1.2-1.2,1.2h-2.3C470.1,123.5,469.6,122.9,469.6,122.2z M469.6,131.8v-2.3c0-0.7,0.5-1.2,1.2-1.2h2.3
	c0.7,0,1.2,0.5,1.2,1.2v2.3c0,0.7-0.5,1.2-1.2,1.2h-2.3C470.1,133,469.6,132.5,469.6,131.8z M469.6,145.2v-2.3
	c0-0.7,0.5-1.2,1.2-1.2h2.3c0.7,0,1.2,0.5,1.2,1.2v2.3c0,0.7-0.5,1.2-1.2,1.2h-2.3C470.1,146.4,469.6,145.9,469.6,145.2z
	 M479.9,122.2v-2.3c0-0.7,0.5-1.2,1.2-1.2h2.3c0.7,0,1.2,0.5,1.2,1.2v2.3c0,0.7-0.5,1.2-1.2,1.2h-2.3
	C480.5,123.5,479.9,122.9,479.9,122.2z M479.9,131.8v-2.3c0-0.7,0.5-1.2,1.2-1.2h2.3c0.7,0,1.2,0.5,1.2,1.2v2.3
	c0,0.7-0.5,1.2-1.2,1.2h-2.3C480.5,133,479.9,132.5,479.9,131.8z M479.9,181.3V179c0-0.7,0.5-1.2,1.2-1.2h2.3c0.7,0,1.2,0.5,1.2,1.2
	v2.3c0,0.7-0.5,1.2-1.2,1.2h-2.3C480.5,182.6,479.9,182,479.9,181.3z M469.6,154.8v-2.3c0-0.7,0.5-1.2,1.2-1.2h2.3
	c0.7,0,1.2,0.5,1.2,1.2v2.3c0,0.7-0.5,1.2-1.2,1.2h-2.3C470.1,156,469.6,155.4,469.6,154.8z M469.6,164.1v-2.3
	c0-0.7,0.5-1.2,1.2-1.2h2.3c0.7,0,1.2,0.5,1.2,1.2v2.3c0,0.7-0.5,1.2-1.2,1.2h-2.3C470.1,165.4,469.6,164.8,469.6,164.1z"/>
<path class="ddoslayers0" d="M469.6,164.3V162c0-0.7,0.5-1.2,1.2-1.2h2.3c0.7,0,1.2,0.5,1.2,1.2v2.3c0,0.7-0.5,1.2-1.2,1.2h-2.3
	C470.1,165.5,469.6,165,469.6,164.3z M479.9,164.3v-20.6c0-0.7,0.5-1.2,1.2-1.2h2.3c0.7,0,1.2,0.5,1.2,1.2v20.6
	c0,0.7-0.5,1.2-1.2,1.2h-2.3C480.5,165.5,479.9,165,479.9,164.3z M462.8,137.6h-15.6 M451.8,163.4v-3.2c0-0.9,0.8-1.7,1.7-1.7h3.2
	c0.9,0,1.7,0.8,1.7,1.7v3.2c0,0.9-0.8,1.7-1.7,1.7h-3.2C452.5,165.1,451.8,164.3,451.8,163.4z M447.2,260.2v-61.6c0-2.2,1.8-4,4-4
	h7.6c2.2,0,4,1.8,4,4v61.6c0,2.2-1.8,4-4,4h-7.6C449,264.2,447.2,262.4,447.2,260.2z M469.6,203.7v-2.3c0-0.7,0.5-1.2,1.2-1.2h2.3
	c0.7,0,1.2,0.5,1.2,1.2v2.3c0,0.7-0.5,1.2-1.2,1.2h-2.3C470.1,204.9,469.6,204.4,469.6,203.7z M469.6,213.3V211
	c0-0.7,0.5-1.2,1.2-1.2h2.3c0.7,0,1.2,0.5,1.2,1.2v2.3c0,0.7-0.5,1.2-1.2,1.2h-2.3C470.1,214.5,469.6,213.9,469.6,213.3z
	 M469.6,226.7v-2.3c0-0.7,0.5-1.2,1.2-1.2h2.3c0.7,0,1.2,0.5,1.2,1.2v2.3c0,0.7-0.5,1.2-1.2,1.2h-2.3
	C470.1,227.9,469.6,227.4,469.6,226.7z M479.9,203.7v-2.3c0-0.7,0.5-1.2,1.2-1.2h2.3c0.7,0,1.2,0.5,1.2,1.2v2.3
	c0,0.7-0.5,1.2-1.2,1.2h-2.3C480.5,204.9,479.9,204.4,479.9,203.7z M479.9,213.3V211c0-0.7,0.5-1.2,1.2-1.2h2.3
	c0.7,0,1.2,0.5,1.2,1.2v2.3c0,0.7-0.5,1.2-1.2,1.2h-2.3C480.5,214.5,479.9,213.9,479.9,213.3z M479.9,262.8v-2.3
	c0-0.7,0.5-1.2,1.2-1.2h2.3c0.7,0,1.2,0.5,1.2,1.2v2.3c0,0.7-0.5,1.2-1.2,1.2h-2.3C480.5,264,479.9,263.5,479.9,262.8z M469.6,236.2
	v-2.3c0-0.7,0.5-1.2,1.2-1.2h2.3c0.7,0,1.2,0.5,1.2,1.2v2.3c0,0.7-0.5,1.2-1.2,1.2h-2.3C470.1,237.5,469.6,236.9,469.6,236.2z
	 M469.6,245.6v-2.3c0-0.7,0.5-1.2,1.2-1.2h2.3c0.7,0,1.2,0.5,1.2,1.2v2.3c0,0.7-0.5,1.2-1.2,1.2h-2.3
	C470.1,246.8,469.6,246.3,469.6,245.6z"/>
<path class="ddoslayers0" d="M469.6,245.8v-2.3c0-0.7,0.5-1.2,1.2-1.2h2.3c0.7,0,1.2,0.5,1.2,1.2v2.3c0,0.7-0.5,1.2-1.2,1.2h-2.3
	C470.1,247,469.6,246.4,469.6,245.8z"/>
<path id="svg-concept" class="ddoslayers2" d="M454.3,337.8c-2,0-3.7-1.7-3.7-3.7s1.7-3.7,3.7-3.7s3.7,1.6,3.7,3.7
	S456.3,337.8,454.3,337.8z"/>
<path class="ddoslayers0" d="M464.7,335.3V333c0-0.7,0.5-1.2,1.2-1.2h2.3c0.7,0,1.2,0.5,1.2,1.2v2.3c0,0.7-0.5,1.2-1.2,1.2h-2.3
	C465.3,336.5,464.7,335.9,464.7,335.3z M475.2,335.3V333c0-0.7,0.5-1.2,1.2-1.2h2.3c0.7,0,1.2,0.5,1.2,1.2v2.3
	c0,0.7-0.5,1.2-1.2,1.2h-2.3C475.8,336.5,475.2,335.9,475.2,335.3z M479.9,245.8v-20.6c0-0.7,0.5-1.2,1.2-1.2h2.3
	c0.7,0,1.2,0.5,1.2,1.2v20.6c0,0.7-0.5,1.2-1.2,1.2h-2.3C480.5,247,479.9,246.4,479.9,245.8z M462.8,219h-15.6 M451.8,244.9v-3.2
	c0-0.9,0.8-1.7,1.7-1.7h3.2c0.9,0,1.7,0.8,1.7,1.7v3.2c0,0.9-0.8,1.7-1.7,1.7h-3.2C452.5,246.6,451.8,245.8,451.8,244.9z
	 M494.6,107.9h-58.5 M368.3,93.3V81.5 M372.9,90.3V79 M377.6,87.4V76 M382.4,84.4V73 M387.2,81.4V70 M475,16.2h-17.4 M475,354.7
	h-17.4 M494.6,188.8h-58.5 M494.6,269.7h-58.5 M382.5,245.6v44.9c0,2.7-2.3,5.7-4.9,4.9l-4.7-1.7c-3.2-0.9-4.6-3.4-4.6-6v-42
	c0-2.7,2.2-4.9,4.9-4.9h4.5C380.3,240.7,382.5,242.9,382.5,245.6L382.5,245.6z"/>
<path class="ddoslayers1" d="M229.6,365.7c-5.8,0-10.6-4.3-10.6-9.6V14.7c0-5.3,4.7-9.6,10.6-9.6H267c5.8,0,10.6,4.3,10.6,9.6v341.4
	c0,5.3-4.7,9.6-10.6,9.6H229.6z"/>
<path id="svg-concept" class="ddoslayers2" d="M252.5,100v-2.3c0-0.7,0.5-1.2,1.2-1.2h2.3c0.7,0,1.2,0.5,1.2,1.2v2.3
	c0,0.7-0.5,1.2-1.2,1.2h-2.3C253.1,101.2,252.5,100.7,252.5,100z M234.7,94v-3.2c0-0.9,0.8-1.7,1.7-1.7h3.2c0.9,0,1.7,0.8,1.7,1.7
	V94c0,0.9-0.8,1.7-1.7,1.7h-3.2C235.5,95.7,234.7,95,234.7,94z M252.5,181.5v-2.3c0-0.7,0.5-1.2,1.2-1.2h2.3c0.7,0,1.2,0.5,1.2,1.2
	v2.3c0,0.7-0.5,1.2-1.2,1.2h-2.3C253.1,182.7,252.5,182.1,252.5,181.5z M234.7,175.5v-3.2c0-0.9,0.8-1.7,1.7-1.7h3.2
	c0.9,0,1.7,0.8,1.7,1.7v3.2c0,0.9-0.8,1.7-1.7,1.7h-3.2C235.5,177.2,234.7,176.4,234.7,175.5z M252.5,262.9v-2.3
	c0-0.7,0.5-1.2,1.2-1.2h2.3c0.7,0,1.2,0.5,1.2,1.2v2.3c0,0.7-0.5,1.2-1.2,1.2h-2.3C253.1,264.2,252.5,263.6,252.5,262.9z M234.7,257
	v-3.2c0-0.9,0.8-1.7,1.7-1.7h3.2c0.9,0,1.7,0.8,1.7,1.7v3.2c0,0.9-0.8,1.7-1.7,1.7h-3.2C235.5,258.7,234.7,257.9,234.7,257z
	 M248.3,320.3c-6.9,0-12.5-5.6-12.5-12.5s5.6-12.5,12.5-12.5s12.5,5.6,12.5,12.5S255.2,320.3,248.3,320.3L248.3,320.3z"/>
<path id="svg-concept" class="ddoslayers2" d="M248.3,312.4c-2.6,0-4.6-2.1-4.6-4.6c0-2.6,2.1-4.6,4.6-4.6s4.6,2.1,4.6,4.6
	C252.9,310.4,250.8,312.4,248.3,312.4z M248.2,320.3v-7.9 M248.2,303.2v-7.9"/>
<path class="ddoslayers0" d="M277.5,24.9h-58.3 M277.5,345.9H219 M230.1,97.2V35.6c0-2.2,1.8-4,4-4h7.6c2.2,0,4,1.8,4,4v61.6
	c0,2.2-1.8,4-4,4h-7.6C231.9,101.2,230.1,99.4,230.1,97.2z M252.5,40.8v-2.3c0-0.7,0.5-1.2,1.2-1.2h2.3c0.7,0,1.2,0.5,1.2,1.2v2.3
	c0,0.7-0.5,1.2-1.2,1.2h-2.3C253.1,42,252.5,41.4,252.5,40.8z M252.5,50.3V48c0-0.7,0.5-1.2,1.2-1.2h2.3c0.7,0,1.2,0.5,1.2,1.2v2.3
	c0,0.7-0.5,1.2-1.2,1.2h-2.3C253.1,51.5,252.5,51,252.5,50.3z M252.5,63.7v-2.3c0-0.7,0.5-1.2,1.2-1.2h2.3c0.7,0,1.2,0.5,1.2,1.2
	v2.3c0,0.7-0.5,1.2-1.2,1.2h-2.3C253.1,65,252.5,64.4,252.5,63.7z M262.9,40.8v-2.3c0-0.7,0.5-1.2,1.2-1.2h2.3
	c0.7,0,1.2,0.5,1.2,1.2v2.3c0,0.7-0.5,1.2-1.2,1.2h-2.3C263.4,42,262.9,41.4,262.9,40.8z M262.9,50.3V48c0-0.7,0.5-1.2,1.2-1.2h2.3
	c0.7,0,1.2,0.5,1.2,1.2v2.3c0,0.7-0.5,1.2-1.2,1.2h-2.3C263.4,51.5,262.9,51,262.9,50.3z M262.9,99.9v-2.3c0-0.7,0.5-1.2,1.2-1.2
	h2.3c0.7,0,1.2,0.5,1.2,1.2v2.3c0,0.7-0.5,1.2-1.2,1.2h-2.3C263.4,101.1,262.9,100.5,262.9,99.9z M252.5,73.3V71
	c0-0.7,0.5-1.2,1.2-1.2h2.3c0.7,0,1.2,0.5,1.2,1.2v2.3c0,0.7-0.5,1.2-1.2,1.2h-2.3C253.1,74.5,252.5,74,252.5,73.3z M252.5,82.7
	v-2.3c0-0.7,0.5-1.2,1.2-1.2h2.3c0.7,0,1.2,0.5,1.2,1.2v2.3c0,0.7-0.5,1.2-1.2,1.2h-2.3C253.1,83.9,252.5,83.3,252.5,82.7z"/>
<path class="ddoslayers0" d="M252.5,82.8v-2.3c0-0.7,0.5-1.2,1.2-1.2h2.3c0.7,0,1.2,0.5,1.2,1.2v2.3c0,0.7-0.5,1.2-1.2,1.2h-2.3
	C253.1,84,252.5,83.5,252.5,82.8z M262.9,82.8V62.2c0-0.7,0.5-1.2,1.2-1.2h2.3c0.7,0,1.2,0.5,1.2,1.2v20.6c0,0.7-0.5,1.2-1.2,1.2
	h-2.3C263.4,84,262.9,83.5,262.9,82.8z M245.7,56.1h-15.6 M234.7,81.9v-3.2c0-0.9,0.8-1.7,1.7-1.7h3.2c0.9,0,1.7,0.8,1.7,1.7v3.2
	c0,0.9-0.8,1.7-1.7,1.7h-3.2C235.5,83.6,234.7,82.9,234.7,81.9z M230.1,178.7v-61.6c0-2.2,1.8-4,4-4h7.6c2.2,0,4,1.8,4,4v61.6
	c0,2.2-1.8,4-4,4h-7.6C231.9,182.7,230.1,180.9,230.1,178.7z M252.5,122.2v-2.3c0-0.7,0.5-1.2,1.2-1.2h2.3c0.7,0,1.2,0.5,1.2,1.2
	v2.3c0,0.7-0.5,1.2-1.2,1.2h-2.3C253.1,123.5,252.5,122.9,252.5,122.2z M252.5,131.8v-2.3c0-0.7,0.5-1.2,1.2-1.2h2.3
	c0.7,0,1.2,0.5,1.2,1.2v2.3c0,0.7-0.5,1.2-1.2,1.2h-2.3C253.1,133,252.5,132.5,252.5,131.8z M252.5,145.2v-2.3
	c0-0.7,0.5-1.2,1.2-1.2h2.3c0.7,0,1.2,0.5,1.2,1.2v2.3c0,0.7-0.5,1.2-1.2,1.2h-2.3C253.1,146.4,252.5,145.9,252.5,145.2z
	 M262.9,122.2v-2.3c0-0.7,0.5-1.2,1.2-1.2h2.3c0.7,0,1.2,0.5,1.2,1.2v2.3c0,0.7-0.5,1.2-1.2,1.2h-2.3
	C263.4,123.5,262.9,122.9,262.9,122.2z M262.9,131.8v-2.3c0-0.7,0.5-1.2,1.2-1.2h2.3c0.7,0,1.2,0.5,1.2,1.2v2.3
	c0,0.7-0.5,1.2-1.2,1.2h-2.3C263.4,133,262.9,132.5,262.9,131.8z M262.9,181.3V179c0-0.7,0.5-1.2,1.2-1.2h2.3c0.7,0,1.2,0.5,1.2,1.2
	v2.3c0,0.7-0.5,1.2-1.2,1.2h-2.3C263.4,182.6,262.9,182,262.9,181.3z M252.5,154.8v-2.3c0-0.7,0.5-1.2,1.2-1.2h2.3
	c0.7,0,1.2,0.5,1.2,1.2v2.3c0,0.7-0.5,1.2-1.2,1.2h-2.3C253.1,156,252.5,155.4,252.5,154.8z M252.5,164.1v-2.3
	c0-0.7,0.5-1.2,1.2-1.2h2.3c0.7,0,1.2,0.5,1.2,1.2v2.3c0,0.7-0.5,1.2-1.2,1.2h-2.3C253.1,165.4,252.5,164.8,252.5,164.1z"/>
<path class="ddoslayers0" d="M252.5,164.3V162c0-0.7,0.5-1.2,1.2-1.2h2.3c0.7,0,1.2,0.5,1.2,1.2v2.3c0,0.7-0.5,1.2-1.2,1.2h-2.3
	C253.1,165.5,252.5,165,252.5,164.3z M262.9,164.3v-20.6c0-0.7,0.5-1.2,1.2-1.2h2.3c0.7,0,1.2,0.5,1.2,1.2v20.6
	c0,0.7-0.5,1.2-1.2,1.2h-2.3C263.4,165.5,262.9,165,262.9,164.3z M245.7,137.6h-15.6 M234.7,163.4v-3.2c0-0.9,0.8-1.7,1.7-1.7h3.2
	c0.9,0,1.7,0.8,1.7,1.7v3.2c0,0.9-0.8,1.7-1.7,1.7h-3.2C235.5,165.1,234.7,164.3,234.7,163.4z M230.1,260.2v-61.6c0-2.2,1.8-4,4-4
	h7.6c2.2,0,4,1.8,4,4v61.6c0,2.2-1.8,4-4,4h-7.6C231.9,264.2,230.1,262.4,230.1,260.2z M252.5,203.7v-2.3c0-0.7,0.5-1.2,1.2-1.2h2.3
	c0.7,0,1.2,0.5,1.2,1.2v2.3c0,0.7-0.5,1.2-1.2,1.2h-2.3C253.1,204.9,252.5,204.4,252.5,203.7z M252.5,213.3V211
	c0-0.7,0.5-1.2,1.2-1.2h2.3c0.7,0,1.2,0.5,1.2,1.2v2.3c0,0.7-0.5,1.2-1.2,1.2h-2.3C253.1,214.5,252.5,213.9,252.5,213.3z
	 M252.5,226.7v-2.3c0-0.7,0.5-1.2,1.2-1.2h2.3c0.7,0,1.2,0.5,1.2,1.2v2.3c0,0.7-0.5,1.2-1.2,1.2h-2.3
	C253.1,227.9,252.5,227.4,252.5,226.7z M262.9,203.7v-2.3c0-0.7,0.5-1.2,1.2-1.2h2.3c0.7,0,1.2,0.5,1.2,1.2v2.3
	c0,0.7-0.5,1.2-1.2,1.2h-2.3C263.4,204.9,262.9,204.4,262.9,203.7z M262.9,213.3V211c0-0.7,0.5-1.2,1.2-1.2h2.3
	c0.7,0,1.2,0.5,1.2,1.2v2.3c0,0.7-0.5,1.2-1.2,1.2h-2.3C263.4,214.5,262.9,213.9,262.9,213.3z M262.9,262.8v-2.3
	c0-0.7,0.5-1.2,1.2-1.2h2.3c0.7,0,1.2,0.5,1.2,1.2v2.3c0,0.7-0.5,1.2-1.2,1.2h-2.3C263.4,264,262.9,263.5,262.9,262.8z M252.5,236.2
	v-2.3c0-0.7,0.5-1.2,1.2-1.2h2.3c0.7,0,1.2,0.5,1.2,1.2v2.3c0,0.7-0.5,1.2-1.2,1.2h-2.3C253.1,237.5,252.5,236.9,252.5,236.2z
	 M252.5,245.6v-2.3c0-0.7,0.5-1.2,1.2-1.2h2.3c0.7,0,1.2,0.5,1.2,1.2v2.3c0,0.7-0.5,1.2-1.2,1.2h-2.3
	C253.1,246.8,252.5,246.3,252.5,245.6z"/>
<path class="ddoslayers0" d="M252.5,245.8v-2.3c0-0.7,0.5-1.2,1.2-1.2h2.3c0.7,0,1.2,0.5,1.2,1.2v2.3c0,0.7-0.5,1.2-1.2,1.2h-2.3
	C253.1,247,252.5,246.4,252.5,245.8z"/>
<path id="svg-concept" class="ddoslayers2" d="M237.2,337.8c-2,0-3.7-1.7-3.7-3.7s1.7-3.7,3.7-3.7s3.7,1.6,3.7,3.7
	S239.3,337.8,237.2,337.8z"/>
<path class="ddoslayers0" d="M247.7,335.3V333c0-0.7,0.5-1.2,1.2-1.2h2.3c0.7,0,1.2,0.5,1.2,1.2v2.3c0,0.7-0.5,1.2-1.2,1.2h-2.3
	C248.2,336.5,247.7,335.9,247.7,335.3z M258.2,335.3V333c0-0.7,0.5-1.2,1.2-1.2h2.3c0.7,0,1.2,0.5,1.2,1.2v2.3
	c0,0.7-0.5,1.2-1.2,1.2h-2.3C258.7,336.5,258.2,335.9,258.2,335.3z M262.9,245.8v-20.6c0-0.7,0.5-1.2,1.2-1.2h2.3
	c0.7,0,1.2,0.5,1.2,1.2v20.6c0,0.7-0.5,1.2-1.2,1.2h-2.3C263.4,247,262.9,246.4,262.9,245.8z M245.7,219h-15.6 M234.7,244.9v-3.2
	c0-0.9,0.8-1.7,1.7-1.7h3.2c0.9,0,1.7,0.8,1.7,1.7v3.2c0,0.9-0.8,1.7-1.7,1.7h-3.2C235.5,246.6,234.7,245.8,234.7,244.9z
	 M277.5,107.9H219 M257.9,16.2h-17.3 M257.9,354.7h-17.3 M277.5,188.8H219 M277.5,269.7H219"/>
<g>
	<path class="ddoslayers3" d="M111.3,188.8h106.8 M278.6,188.8h109.9"/>
	<circle id="svg-ico" class="ddoslayers4" cx="111.3" cy="188.8" r="2.9"/>
	<circle id="svg-ico" class="ddoslayers4" cx="388.7" cy="188.8" r="2.9"/>
</g>
<g>
	<path id="svg-ico" class="ddoslayers4" d="M218.2,188.8c0,2.8-2.1,5-5,5c-2.8,0-5-2.1-5-5s2.1-5,5-5
		C215.8,183.8,218.2,185.9,218.2,188.8z"/>
	
		<animateMotion  accumulate="none" additive="replace" begin="0s" calcMode="paced" dur="3s" fill="remove" path="M0, 0 -95 0 0 0" repeatCount="indefinite" restart="always">
		</animateMotion>
</g>
<g>
	<path id="svg-ico" class="ddoslayers4" d="M288.6,188.8c0,2.8-2.1,5-5,5c-2.8,0-5-2.1-5-5s2.1-5,5-5
		C286.4,183.8,288.6,185.9,288.6,188.8z"/>
	
		<animateMotion  accumulate="none" additive="replace" begin="0s" calcMode="paced" dur="3s" fill="remove" path="M0, 0 95 0 0 0" repeatCount="indefinite" restart="always">
		</animateMotion>
</g>
</svg>
