<?xml version="1.0" encoding="utf-8"?>
<!-- Generator: Adobe Illustrator 24.3.0, SVG Export Plug-In . SVG Version: 6.00 Build 0)  -->
<svg version="1.1" id="Layer_1" xmlns="http://www.w3.org/2000/svg" xmlns:xlink="http://www.w3.org/1999/xlink" x="0px" y="0px"
	 viewBox="0 0 668.6 652.5" style="enable-background:new 0 0 668.6 652.5;" xml:space="preserve">
<style type="text/css">
	.dns0{fill:none;stroke:#808080;stroke-miterlimit:10;}
	.dns1{fill:#EE5586;}
	.dns2{fill:none;stroke:#EE5586;stroke-width:3;stroke-linecap:round;stroke-linejoin:round;stroke-miterlimit:10;}
	.dns3{fill:url(#SVGID_1_);stroke:#808080;stroke-miterlimit:10;}
	.dns4{fill:none;stroke:#EE5586;stroke-width:2;stroke-linecap:round;stroke-linejoin:round;stroke-miterlimit:10;}
	.dns5{fill:none;stroke:#808080;stroke-linecap:round;stroke-linejoin:round;stroke-miterlimit:10;}
</style>
<circle class="dns0" cx="333" cy="326" r="319"/>
<g>
	<path id="svg-ico" class="dns1" d="M20.3,327.5c0,3.3-2.7,6-6,6s-6-2.7-6-6s2.7-6,6-6S20.3,324.2,20.3,327.5z"/>
		<animateTransform  accumulate="none" additive="replace" attributeName="transform" calcMode="linear" dur="10s" fill="remove" from="0 325 320" repeatCount="indefinite" restart="always" to="360 340 325" type="rotate">
		</animateTransform>
</g>
<g>
	<path id="svg-ico" class="dns1" d="M657.7,327.5c0,3.3-2.7,6-6,6s-6-2.7-6-6s2.7-6,6-6S657.7,324.2,657.7,327.5z"/>
		<animateTransform  accumulate="none" additive="replace" attributeName="transform" calcMode="linear" dur="20s" fill="remove" from="0 345 320" repeatCount="indefinite" restart="always" to="-360 322 323" type="rotate">
		</animateTransform>
</g>
<path id="svg-concept" class="dns2" d="M575.5,326.8c0,134-108.6,242.5-242.6,242.5S90.4,460.7,90.4,326.8
	C90.4,192.8,199,84.2,333,84.2C466.9,84.2,575.5,192.8,575.5,326.8z"/>
<radialGradient id="SVGID_1_" cx="203.5" cy="394.7" r="0" gradientTransform="matrix(1 0 0 -1 0 651)" gradientUnits="userSpaceOnUse">
	<stop  offset="0" style="stop-color:#27A8E0"/>
	<stop  offset="0.1991" style="stop-color:#2AA9E0"/>
	<stop  offset="0.3473" style="stop-color:#33ACE0"/>
	<stop  offset="0.4791" style="stop-color:#44B1E1"/>
	<stop  offset="0.6013" style="stop-color:#5AB9E2"/>
	<stop  offset="0.7169" style="stop-color:#78C2E3"/>
	<stop  offset="0.8275" style="stop-color:#9CCEE4"/>
	<stop  offset="0.9323" style="stop-color:#C6DCE5"/>
	<stop  offset="1" style="stop-color:#E5E6E6"/>
</radialGradient>
<path class="dns3" d="M203.5,256.3C203.4,256.3,203.4,256.3,203.5,256.3z"/>
<path class="dns0" d="M328.2,146.3l1.6,4.2 M396,168.7l10.5-11.2 M242.7,201.4l-2.9-11.1 M240.6,183.1l8.2-8.8 M247.8,168.3
	l-12.3-4.3 M247,202.7l20.9-18.7 M273.4,177.5l5.3-7.5 M283,162.7l1.6-8.1 M287.8,146.8l5.4-5.9 M283.3,129.2l-24.2,0.4
	 M251.2,132.7l-23.8,7.5 M220.5,145.4l-4.6,5 M228.1,160l-11.4-3.9 M198.8,491.9l-10.5-21.3 M189.9,464.1l23.9-14.7 M213.8,449.4
	l-20.9-9.1 M192.1,434.1l13.2-5.8 M205.9,421.9L188,401.3 M212.7,423.6l23.8-8.2 M247.1,375.1l-18.3-8.1 M186.5,393.9l5-23.8
	 M191.5,370.1l-15.5,2.1 M171.9,366.6l1.8-18.5 M178.7,343.8l16.3-1.5 M202.6,345l18.9,17.2 M170.2,343.8l-8.2-6.6 M157.1,329.8
	l-3.2-8.5 M148,317.4l-14.2,0.9 M130.5,314l6.6-14.3 M134.7,295.9l-17.5,3.3 M113,295.9l15-53.1 M131.9,235.2l24.6-15.9
	 M162.9,220.4l14.9,12.1 M183,231.4l7.1-19.6 M192.9,210.7l26.4,32.4 M202.7,247.6l-9.8-36.9 M181.1,239.5l1.1,33.5 M179.8,280.8
	l-7.5,15.7 M142.2,293.1l24.2,5 M159.3,211.8l-0.7-19.3 M162.9,188.2l10.3,0.8 M177.4,184.8l3.8-11.8 M185.4,168.7l15,6.3
	 M204.6,181.4v13.1 M340,431.4l5.9,4.9 M352.9,434.4l4.3-7.9 M362.2,417.9l8.1-12.9 M336.7,424.4l-8.1-17.3 M328.6,398.6l2.9-7.7
	 M331.5,382.4l19.4-20.7 M324.4,358l7.1,24.4 M357.2,360.2l16.4,6.9 M372.3,396.5l5.6-25.1 M377.9,362.9l17.4-19.7 M386.6,337.7
	l4.5,0.5 M379.6,333.3l-8.9-27.8 M386.1,324l-15.4-18.5 M392.9,324.5l15.7-9 M408.3,309.2l-9.3-14.9 M412.4,298.4l-13.4-4.1
	 M420.2,300.8l6.1,0.9 M432.6,306.7l13,31.9 M450.6,339.6l17.2-27.2 M473.9,311.9l10,13.8 M489.6,332l2.5,17.6 M497.7,334.9
	l-8.1-2.9 M502.5,333.5l3.9-14.7 M509.6,311l12-12.4 M522.6,291l1.4-19.6 M527.6,269.4l5.1,4.4 M537,272.7l3.9-16.1 M540.3,248.8
	L519.9,207 M515.8,199.5l-22.4-27 M487.6,166.2l-16.7-7.8 M467.8,159.7l-5.3,32.3 M463.1,157.4l-16.3,5.8 M440.1,168.5l-3.3,2.7
	 M436.4,177.9l21.6,15.8 M429.6,174.3l-5.3-0.7 M415.8,175.9l-9.1,4.3 M399,183.8l-19.1,4.3 M372,187.6l-19.3-8.5 M345.6,179.2
	l-23.7,22.2 M319.9,208.9l2.7,16.8 M298.5,214.5l0.7,3.5 M300.8,226.5l-1.1,4.2 M310.3,242.6l11-9.3 M294.6,266.4l2.1,2 M325.2,262
	l4.5,2.9 M336.4,265l6-1.7 M348.6,263.9l3.1,7.3 M358.5,274.6l5.4,0.9 M368.6,280.4l1.7,2.3 M366.5,288.8l-21.4,3.5 M337.3,291.4
	l-12.6-9.3 M317.6,278.9l-17,2.6 M294.5,286.4l-10,16.3 M298.1,286.8l4.3,19.6 M306.1,312.8l26.9,10.1 M341,297.9l-4.3,22.8
	 M363.9,305.1L341,322.5 M338.8,328.9l11.3,24.1 M334.3,329.3l-8.1,20.1 M319.5,353l-15.7-4.2 M294.7,346.7L282.4,336 M279.2,328.9
	l3.2-18.3 M286.2,308.3l11.9,1 M328,229.8l39.3-7.5 M375.9,193.7l-4.3,24.3 M375.9,222.3l50.1,11.8 M371.6,226.5l-3.4,44.7
	 M499.5,238.4l21.1,26.2 M514.6,205.4l-16.1,25.5 M486.4,172.5l-21.2,20.8 M464.9,198.8l27.5,33 M458,198.8l-25.6,31 M434.6,303.1
	l31.8,6.1 M475,309.2l28.2,5.5 M393.6,286.8L373.7,226 M374.6,286.9l17.1,4.3 M515.8,437l-2.7-15.5 M516.2,414.2l6.8-6.2
	 M529.6,402.6l12.4-7 M521.9,439.4l4.2-4.1 M526.1,427.8l-9.5-8.2 M515.6,362.3l5.8-7.8 M393.6,399.3l-3.9,15.6 M202.6,492.1
	l13.8-38.8 M186.5,462.4l2.1-20.7 M189.6,433.3l-1.6-32 M220.7,445.9l17.3-25 M241.9,413.1l9-31.8 M173.8,375.1l9,19.4 M185,274.1
	l16.5-19.8 M129.5,234.6l27-42.7"/>
<g id="svg-concept">
	<path id="svg-concept" class="dns4" d="M467.5,269.5c0,2.4-1.9,4.3-4.3,4.3s-4.3-1.9-4.3-4.3s1.9-4.3,4.3-4.3
		S467.5,267.1,467.5,269.5z M542,414.4c0,2.4-1.9,4.3-4.3,4.3s-4.3-1.9-4.3-4.3s1.9-4.3,4.3-4.3C540.1,410.2,542,412.1,542,414.4z
		 M355.1,399.5c0,2.4-1.9,4.3-4.3,4.3s-4.3-1.9-4.3-4.3s1.9-4.3,4.3-4.3C353.2,395.3,355.1,397.2,355.1,399.5z M154.9,255.2
		c0,2.4-1.9,4.3-4.3,4.3s-4.3-1.9-4.3-4.3s1.9-4.3,4.3-4.3S154.9,252.8,154.9,255.2z M224.9,391.4c0,2.4-1.9,4.3-4.3,4.3
		s-4.3-1.9-4.3-4.3s1.9-4.3,4.3-4.3S224.9,389,224.9,391.4z M265,149.6c0,2.4-1.9,4.3-4.3,4.3s-4.3-1.9-4.3-4.3s1.9-4.3,4.3-4.3
		C263.1,145.4,265,147.3,265,149.6z M281.2,150.4l-16.2-0.8 M256.1,134.9l3.7,10.5 M257.4,152.3l-22.7,7 M259.2,153.9l-5.6,12.3
		 M236.5,415.4l-13.2-20 M224.1,388.9l22.6-9.5 M197,369.5l19.9,19.9 M132.7,241.7l14.4,11.2 M153.6,252.1l24.3-14 M153.5,258.4
		l25.1,16.6 M148.9,259.1l-9.9,32.5 M357.2,419l-6.3-15.2 M335.8,388.8l10.8,7.7 M352.9,395.8l25-24.4 M307,250.4v4.9 M302.7,260.4
		l-7.9,1.8 M433.3,237.1l28.2,27.9 M466.4,266.7l27.3-28.3 M432.4,299.3l26.8-26.8 M463.2,273.8l7.5,31.1 M466.9,271.6l37.5,40.1
		 M467.5,269.5l52.3-2.4 M544.8,396.6l-5.7,13.6 M535.8,418.2l-4.3,9.6 M533.5,414.4l-16.9,5.2 M534.4,411.8l-5-4.1 M311.3,259.5
		c0,2.4-1.9,4.3-4.3,4.3s-4.3-1.9-4.3-4.3s1.9-4.3,4.3-4.3C309.3,255.3,311.3,257.2,311.3,259.5z M311.1,258.3l6.5-0.1"/>
</g>
<path class="dns5" d="M277.3,109.7c-1.8,0-3.2-1.4-3.2-3.2c0-1.8,1.4-3.2,3.2-3.2s3.2,1.4,3.2,3.2
	C280.5,108.2,279.1,109.7,277.3,109.7z"/>
<path class="dns0" d="M353.7,438.7c0,2.4-1.9,4.3-4.3,4.3s-4.3-1.9-4.3-4.3s1.9-4.3,4.3-4.3S353.7,436.3,353.7,438.7z M341,428.6
	c0,2.4-1.9,4.3-4.3,4.3s-4.3-1.9-4.3-4.3s1.9-4.3,4.3-4.3C339.1,424.4,341,426.3,341,428.6z M376.5,400.8c0,2.4-1.9,4.3-4.3,4.3
	s-4.3-1.9-4.3-4.3s1.9-4.3,4.3-4.3S376.5,398.4,376.5,400.8z M382.2,367.1c0,2.4-1.9,4.3-4.3,4.3s-4.3-1.9-4.3-4.3s1.9-4.3,4.3-4.3
	C380.3,362.9,382.2,364.8,382.2,367.1z M399.6,338.9c0,2.4-1.9,4.3-4.3,4.3s-4.3-1.9-4.3-4.3s1.9-4.3,4.3-4.3
	S399.6,336.5,399.6,338.9z M386.4,336.7c0,2.4-1.9,4.3-4.3,4.3s-4.3-1.9-4.3-4.3s1.9-4.3,4.3-4.3S386.4,334.3,386.4,336.7z
	 M372.4,302.1c0,2.4-1.9,4.3-4.3,4.3s-4.3-1.9-4.3-4.3s1.9-4.3,4.3-4.3S372.4,299.7,372.4,302.1z M393.6,326.8
	c0,2.4-1.9,4.3-4.3,4.3s-4.3-1.9-4.3-4.3s1.9-4.3,4.3-4.3C391.6,322.5,393.6,324.4,393.6,326.8z M415.9,312.5c0,2.4-1.9,4.3-4.3,4.3
	s-4.3-1.9-4.3-4.3s1.9-4.3,4.3-4.3C414,308.3,415.9,310.2,415.9,312.5z M374.6,286.9c0,2.4-1.9,4.3-4.3,4.3s-4.3-1.9-4.3-4.3
	s1.9-4.3,4.3-4.3C372.7,282.7,374.6,284.6,374.6,286.9z M372.5,275.5c0,2.4-1.9,4.3-4.3,4.3s-4.3-1.9-4.3-4.3s1.9-4.3,4.3-4.3
	S372.5,273.1,372.5,275.5z M358.5,274.6c0,2.4-1.9,4.3-4.3,4.3s-4.3-1.9-4.3-4.3s1.9-4.3,4.3-4.3
	C356.6,270.4,358.5,272.3,358.5,274.6z M345.3,293.6c0,2.4-1.9,4.3-4.3,4.3s-4.3-1.9-4.3-4.3s1.9-4.3,4.3-4.3
	C343.3,289.3,345.3,291.2,345.3,293.6z M300.8,282.7c0,2.4-1.9,4.3-4.3,4.3s-4.3-1.9-4.3-4.3s1.9-4.3,4.3-4.3
	S300.8,280.3,300.8,282.7z M325.9,259.6c0,2.4-1.9,4.3-4.3,4.3s-4.3-1.9-4.3-4.3s1.9-4.3,4.3-4.3C324,255.4,325.9,257.3,325.9,259.6
	z M337.3,267.6c0,2.4-1.9,4.3-4.3,4.3s-4.3-1.9-4.3-4.3s1.9-4.3,4.3-4.3S337.3,265.2,337.3,267.6z M328,229.8c0,2.4-1.9,4.3-4.3,4.3
	s-4.3-1.9-4.3-4.3s1.9-4.3,4.3-4.3C326.1,225.6,328,227.5,328,229.8z M323.4,204.7c0,2.4-1.9,4.3-4.3,4.3s-4.3-1.9-4.3-4.3
	s1.9-4.3,4.3-4.3S323.4,202.3,323.4,204.7z M353.4,176.8c0,2.4-1.9,4.3-4.3,4.3s-4.3-1.9-4.3-4.3s1.9-4.3,4.3-4.3
	S353.4,174.4,353.4,176.8z M380.1,189.5c0,2.4-1.9,4.3-4.3,4.3s-4.3-1.9-4.3-4.3s1.9-4.3,4.3-4.3S380.1,187.1,380.1,189.5z
	 M407.4,182.4c0,2.4-1.9,4.3-4.3,4.3s-4.3-1.9-4.3-4.3s1.9-4.3,4.3-4.3C405.4,178.1,407.4,180,407.4,182.4z M424.3,173.6
	c0,2.4-1.9,4.3-4.3,4.3s-4.3-1.9-4.3-4.3s1.9-4.3,4.3-4.3S424.3,171.2,424.3,173.6z M447.8,166c0,2.4-1.9,4.3-4.3,4.3
	s-4.3-1.9-4.3-4.3s1.9-4.3,4.3-4.3S447.8,163.6,447.8,166z M438.2,174.3c0,2.4-1.9,4.3-4.3,4.3s-4.3-1.9-4.3-4.3s1.9-4.3,4.3-4.3
	C436.3,170.1,438.2,172,438.2,174.3z M472.1,155.4c0,2.4-1.9,4.3-4.3,4.3s-4.3-1.9-4.3-4.3s1.9-4.3,4.3-4.3
	C470.2,151.2,472.1,153.1,472.1,155.4z M494.9,169.2c0,2.4-1.9,4.3-4.3,4.3s-4.3-1.9-4.3-4.3s1.9-4.3,4.3-4.3
	S494.9,166.8,494.9,169.2z M546.6,252.6c0,2.4-1.9,4.3-4.3,4.3s-4.3-1.9-4.3-4.3s1.9-4.3,4.3-4.3S546.6,250.2,546.6,252.6
	L546.6,252.6z M540,276.8c0,2.4-1.9,4.3-4.3,4.3s-4.3-1.9-4.3-4.3s1.9-4.3,4.3-4.3S540,274.4,540,276.8z M528.3,267.1
	c0,2.4-1.9,4.3-4.3,4.3s-4.3-1.9-4.3-4.3s1.9-4.3,4.3-4.3C526.4,262.9,528.3,264.8,528.3,267.1z M528.3,295c0,2.4-1.9,4.3-4.3,4.3
	s-4.3-1.9-4.3-4.3s1.9-4.3,4.3-4.3C526.4,290.8,528.3,292.7,528.3,295z M511.7,314.7c0,2.4-1.9,4.3-4.3,4.3s-4.3-1.9-4.3-4.3
	s1.9-4.3,4.3-4.3S511.7,312.3,511.7,314.7z M505.2,337.8c0,2.4-1.9,4.3-4.3,4.3s-4.3-1.9-4.3-4.3s1.9-4.3,4.3-4.3
	S505.2,335.4,505.2,337.8z M491.3,328.5c0,2.4-1.9,4.3-4.3,4.3s-4.3-1.9-4.3-4.3s1.9-4.3,4.3-4.3
	C489.4,324.3,491.3,326.2,491.3,328.5z M475,309.2c0,2.4-1.9,4.3-4.3,4.3s-4.3-1.9-4.3-4.3s1.9-4.3,4.3-4.3
	C473,304.9,475,306.8,475,309.2z M434.6,303.1c0,2.4-1.9,4.3-4.3,4.3s-4.3-1.9-4.3-4.3s1.9-4.3,4.3-4.3S434.6,300.7,434.6,303.1z
	 M500.9,235.2c0,2.4-1.9,4.3-4.3,4.3s-4.3-1.9-4.3-4.3s1.9-4.3,4.3-4.3S500.9,232.8,500.9,235.2z M375.9,222.3
	c0,2.4-1.9,4.3-4.3,4.3s-4.3-1.9-4.3-4.3s1.9-4.3,4.3-4.3C373.9,218,375.9,219.9,375.9,222.3z M434.6,234.1c0,2.4-1.9,4.3-4.3,4.3
	s-4.3-1.9-4.3-4.3s1.9-4.3,4.3-4.3S434.6,231.7,434.6,234.1z M420.2,300.8c0,2.4-1.9,4.3-4.3,4.3s-4.3-1.9-4.3-4.3s1.9-4.3,4.3-4.3
	S420.2,298.4,420.2,300.8z M498.8,353.1c0,2.4-1.9,4.3-4.3,4.3s-4.3-1.9-4.3-4.3s1.9-4.3,4.3-4.3S498.8,350.7,498.8,353.1z
	 M549,392.3c0,2.4-1.9,4.3-4.3,4.3s-4.3-1.9-4.3-4.3s1.9-4.3,4.3-4.3C547.1,388.1,549,390,549,392.3z M394,419.2
	c0,2.4-1.9,4.3-4.3,4.3s-4.3-1.9-4.3-4.3s1.9-4.3,4.3-4.3S394,416.8,394,419.2z M397.9,395c0,2.4-1.9,4.3-4.3,4.3s-4.3-1.9-4.3-4.3
	s1.9-4.3,4.3-4.3C395.9,390.8,397.9,392.7,397.9,395z M543.3,334.9c0,2.4-1.9,4.3-4.3,4.3s-4.3-1.9-4.3-4.3s1.9-4.3,4.3-4.3
	S543.3,332.5,543.3,334.9z M551.4,287.6c0,2.4-1.9,4.3-4.3,4.3s-4.3-1.9-4.3-4.3s1.9-4.3,4.3-4.3S551.4,285.3,551.4,287.6z
	 M554.9,362.4c0,2.4-1.9,4.3-4.3,4.3s-4.3-1.9-4.3-4.3s1.9-4.3,4.3-4.3C553,358.2,554.9,360.1,554.9,362.4z M537.4,366.3
	c0,2.4-1.9,4.3-4.3,4.3s-4.3-1.9-4.3-4.3s1.9-4.3,4.3-4.3S537.4,363.9,537.4,366.3z M511.7,378.3c0,2.4-1.9,4.3-4.3,4.3
	s-4.3-1.9-4.3-4.3s1.9-4.3,4.3-4.3S511.7,375.9,511.7,378.3z M498.8,367c0,2.4-1.9,4.3-4.3,4.3s-4.3-1.9-4.3-4.3s1.9-4.3,4.3-4.3
	C496.9,362.8,498.8,364.7,498.8,367z M536.2,321.3c0,2.4-1.9,4.3-4.3,4.3s-4.3-1.9-4.3-4.3s1.9-4.3,4.3-4.3S536.2,318.9,536.2,321.3
	z M531.5,308.2c0,2.4-1.9,4.3-4.3,4.3s-4.3-1.9-4.3-4.3s1.9-4.3,4.3-4.3S531.5,305.8,531.5,308.2z M530.4,405c0,2.4-1.9,4.3-4.3,4.3
	s-4.3-1.9-4.3-4.3s1.9-4.3,4.3-4.3C528.5,400.8,530.4,402.7,530.4,405z M304,235c0,2.4-1.9,4.3-4.3,4.3s-4.3-1.9-4.3-4.3
	s1.9-4.3,4.3-4.3S304,232.6,304,235z M291.3,226.3c0,2.4-1.9,4.3-4.3,4.3s-4.3-1.9-4.3-4.3s1.9-4.3,4.3-4.3S291.3,223.9,291.3,226.3
	z M286.7,306.4c0,2.4-1.9,4.3-4.3,4.3s-4.3-1.9-4.3-4.3s1.9-4.3,4.3-4.3C284.7,302.1,286.7,304,286.7,306.4z M283.5,333.1
	c0,2.4-1.9,4.3-4.3,4.3s-4.3-1.9-4.3-4.3s1.9-4.3,4.3-4.3C281.6,328.9,283.5,330.8,283.5,333.1z M306.7,310.6c0,2.4-1.9,4.3-4.3,4.3
	s-4.3-1.9-4.3-4.3s1.9-4.3,4.3-4.3C304.8,306.4,306.7,308.3,306.7,310.6z M341,325c0,2.4-1.9,4.3-4.3,4.3s-4.3-1.9-4.3-4.3
	s1.9-4.3,4.3-4.3S341,322.7,341,325z M357.2,358c0,2.4-1.9,4.3-4.3,4.3s-4.3-1.9-4.3-4.3s1.9-4.3,4.3-4.3S357.2,355.6,357.2,358z
	 M332.9,402.8c0,2.4-1.9,4.3-4.3,4.3s-4.3-1.9-4.3-4.3s1.9-4.3,4.3-4.3C331,398.6,332.9,400.5,332.9,402.8z M335.8,386.6
	c0,2.4-1.9,4.3-4.3,4.3s-4.3-1.9-4.3-4.3s1.9-4.3,4.3-4.3C333.9,382.4,335.8,384.3,335.8,386.6z M328.6,353.7c0,2.4-1.9,4.3-4.3,4.3
	s-4.3-1.9-4.3-4.3s1.9-4.3,4.3-4.3S328.6,351.3,328.6,353.7z M293.9,194c0,2.4-1.9,4.3-4.3,4.3s-4.3-1.9-4.3-4.3s1.9-4.3,4.3-4.3
	S293.9,191.6,293.9,194z M335.5,154.5c0,2.4-1.9,4.3-4.3,4.3s-4.3-1.9-4.3-4.3s1.9-4.3,4.3-4.3S335.5,152.1,335.5,154.5z
	 M331.2,142.2c0,2.4-1.9,4.3-4.3,4.3s-4.3-1.9-4.3-4.3s1.9-4.3,4.3-4.3S331.2,139.8,331.2,142.2z M350,137.9c0,2.4-1.9,4.3-4.3,4.3
	s-4.3-1.9-4.3-4.3s1.9-4.3,4.3-4.3S350,135.5,350,137.9z M401.8,139.7c0,2.4-1.9,4.3-4.3,4.3s-4.3-1.9-4.3-4.3s1.9-4.3,4.3-4.3
	S401.8,137.3,401.8,139.7z M413.6,154.3c0,2.4-1.9,4.3-4.3,4.3s-4.3-1.9-4.3-4.3s1.9-4.3,4.3-4.3C411.6,150,413.6,152,413.6,154.3z
	 M247.8,205.6c0,2.4-1.9,4.3-4.3,4.3s-4.3-1.9-4.3-4.3s1.9-4.3,4.3-4.3C245.9,201.4,247.8,203.3,247.8,205.6z M222.4,449.4
	c0,2.4-1.9,4.3-4.3,4.3s-4.3-1.9-4.3-4.3s1.9-4.3,4.3-4.3S222.4,447,222.4,449.4z M193.9,437.6c0,2.4-1.9,4.3-4.3,4.3
	s-4.3-1.9-4.3-4.3s1.9-4.3,4.3-4.3S193.9,435.2,193.9,437.6z M212.7,425.4c0,2.4-1.9,4.3-4.3,4.3s-4.3-1.9-4.3-4.3s1.9-4.3,4.3-4.3
	S212.7,423,212.7,425.4z M229.2,364.8c0,2.4-1.9,4.3-4.3,4.3s-4.3-1.9-4.3-4.3s1.9-4.3,4.3-4.3S229.2,362.4,229.2,364.8z
	 M203.6,342.3c0,2.4-1.9,4.3-4.3,4.3s-4.3-1.9-4.3-4.3s1.9-4.3,4.3-4.3S203.6,339.9,203.6,342.3z M178.7,343.8
	c0,2.4-1.9,4.3-4.3,4.3s-4.3-1.9-4.3-4.3s1.9-4.3,4.3-4.3C176.8,339.6,178.7,341.5,178.7,343.8z M163.3,334.1c0,2.4-1.9,4.3-4.3,4.3
	s-4.3-1.9-4.3-4.3s1.9-4.3,4.3-4.3S163.3,331.7,163.3,334.1z M117.3,300.2c0,2.4-1.9,4.3-4.3,4.3s-4.3-1.9-4.3-4.3s1.9-4.3,4.3-4.3
	S117.3,297.8,117.3,300.2z M143.3,295.9c0,2.4-1.9,4.3-4.3,4.3s-4.3-1.9-4.3-4.3s1.9-4.3,4.3-4.3
	C141.3,291.6,143.3,293.5,143.3,295.9z M174.5,300.2c0,2.4-1.9,4.3-4.3,4.3s-4.3-1.9-4.3-4.3s1.9-4.3,4.3-4.3
	S174.5,297.8,174.5,300.2z M186.5,277.3c0,2.4-1.9,4.3-4.3,4.3s-4.3-1.9-4.3-4.3s1.9-4.3,4.3-4.3S186.5,274.9,186.5,277.3z
	 M194.3,207.5c0,2.4-1.9,4.3-4.3,4.3s-4.3-1.9-4.3-4.3s1.9-4.3,4.3-4.3S194.3,205.1,194.3,207.5z M185.4,235.2
	c0,2.4-1.9,4.3-4.3,4.3s-4.3-1.9-4.3-4.3s1.9-4.3,4.3-4.3C183.5,231,185.4,232.9,185.4,235.2z M163.6,216.1c0,2.4-1.9,4.3-4.3,4.3
	s-4.3-1.9-4.3-4.3s1.9-4.3,4.3-4.3S163.6,213.7,163.6,216.1z M185.4,168.7c0,2.4-1.9,4.3-4.3,4.3s-4.3-1.9-4.3-4.3s1.9-4.3,4.3-4.3
	C183.5,164.5,185.4,166.4,185.4,168.7z M181.7,189c0,2.4-1.9,4.3-4.3,4.3s-4.3-1.9-4.3-4.3s1.9-4.3,4.3-4.3
	C179.8,184.8,181.7,186.7,181.7,189z M208.9,177.2c0,2.4-1.9,4.3-4.3,4.3s-4.3-1.9-4.3-4.3s1.9-4.3,4.3-4.3S208.9,174.8,208.9,177.2
	z M208.9,198.7c0,2.4-1.9,4.3-4.3,4.3s-4.3-1.9-4.3-4.3s1.9-4.3,4.3-4.3C207,194.5,208.9,196.4,208.9,198.7z M133.8,238.8
	c0,2.4-1.9,4.3-4.3,4.3s-4.3-1.9-4.3-4.3s1.9-4.3,4.3-4.3C131.9,234.6,133.8,236.5,133.8,238.8z M198.2,366.5c0,2.4-1.9,4.3-4.3,4.3
	s-4.3-1.9-4.3-4.3s1.9-4.3,4.3-4.3C196.2,362.3,198.2,364.2,198.2,366.5z M242.3,186.5c0,2.4-1.9,4.3-4.3,4.3s-4.3-1.9-4.3-4.3
	s1.9-4.3,4.3-4.3C240.3,182.2,242.3,184.1,242.3,186.5z M274.8,180.7c0,2.4-1.9,4.3-4.3,4.3s-4.3-1.9-4.3-4.3s1.9-4.3,4.3-4.3
	S274.8,178.3,274.8,180.7z M289.7,150.4c0,2.4-1.9,4.3-4.3,4.3s-4.3-1.9-4.3-4.3s1.9-4.3,4.3-4.3S289.7,148,289.7,150.4z
	 M300.3,137.7c0,2.4-1.9,4.3-4.3,4.3s-4.3-1.9-4.3-4.3s1.9-4.3,4.3-4.3C298.4,133.5,300.3,135.4,300.3,137.7z M291.8,128.4
	c0,2.4-1.9,4.3-4.3,4.3s-4.3-1.9-4.3-4.3s1.9-4.3,4.3-4.3C289.8,124.1,291.8,126,291.8,128.4z M259.2,130.7c0,2.4-1.9,4.3-4.3,4.3
	s-4.3-1.9-4.3-4.3s1.9-4.3,4.3-4.3S259.2,128.3,259.2,130.7z M227.4,142c0,2.4-1.9,4.3-4.3,4.3s-4.3-1.9-4.3-4.3s1.9-4.3,4.3-4.3
	C225.4,137.7,227.4,139.6,227.4,142z M217.4,153.9c0,2.4-1.9,4.3-4.3,4.3s-4.3-1.9-4.3-4.3s1.9-4.3,4.3-4.3
	C215.4,149.6,217.4,151.6,217.4,153.9z M235.9,162.3c0,2.4-1.9,4.3-4.3,4.3s-4.3-1.9-4.3-4.3s1.9-4.3,4.3-4.3
	S235.9,159.9,235.9,162.3z M255.2,377c0,2.4-1.9,4.3-4.3,4.3s-4.3-1.9-4.3-4.3s1.9-4.3,4.3-4.3C253.3,372.8,255.2,374.7,255.2,377z
	 M244.6,417.3c0,2.4-1.9,4.3-4.3,4.3s-4.3-1.9-4.3-4.3s1.9-4.3,4.3-4.3C242.7,413.1,244.6,415,244.6,417.3z M204.7,495.8
	c0,2.4-1.9,4.3-4.3,4.3s-4.3-1.9-4.3-4.3s1.9-4.3,4.3-4.3S204.7,493.4,204.7,495.8z M190.8,466.7c0,2.4-1.9,4.3-4.3,4.3
	s-4.3-1.9-4.3-4.3s1.9-4.3,4.3-4.3S190.8,464.3,190.8,466.7z M176.2,370.8c0,2.4-1.9,4.3-4.3,4.3s-4.3-1.9-4.3-4.3s1.9-4.3,4.3-4.3
	C174.3,366.6,176.2,368.5,176.2,370.8z M189.6,398c0,2.4-1.9,4.3-4.3,4.3s-4.3-1.9-4.3-4.3s1.9-4.3,4.3-4.3S189.6,395.6,189.6,398z
	 M225,247.1c0,2.4-1.9,4.3-4.3,4.3s-4.3-1.9-4.3-4.3s1.9-4.3,4.3-4.3C223.1,242.9,225,244.8,225,247.1z M162.9,188.2
	c0,2.4-1.9,4.3-4.3,4.3s-4.3-1.9-4.3-4.3s1.9-4.3,4.3-4.3C161,184,162.9,185.9,162.9,188.2z M208.9,251.4c0,2.4-1.9,4.3-4.3,4.3
	s-4.3-1.9-4.3-4.3s1.9-4.3,4.3-4.3S208.9,249,208.9,251.4z M156.5,317.4c0,2.4-1.9,4.3-4.3,4.3s-4.3-1.9-4.3-4.3s1.9-4.3,4.3-4.3
	S156.5,315,156.5,317.4z M133.8,318.3c0,2.4-1.9,4.3-4.3,4.3s-4.3-1.9-4.3-4.3s1.9-4.3,4.3-4.3C131.9,314,133.8,315.9,133.8,318.3z
	 M285.4,166.5c0,2.4-1.9,4.3-4.3,4.3s-4.3-1.9-4.3-4.3s1.9-4.3,4.3-4.3C283.5,162.3,285.4,164.2,285.4,166.5z M255.5,170.8
	c0,2.4-1.9,4.3-4.3,4.3s-4.3-1.9-4.3-4.3s1.9-4.3,4.3-4.3S255.5,168.4,255.5,170.8z M364.3,422.2c0,2.4-1.9,4.3-4.3,4.3
	s-4.3-1.9-4.3-4.3s1.9-4.3,4.3-4.3S364.3,419.8,364.3,422.2z M326.2,278.9c0,2.4-1.9,4.3-4.3,4.3s-4.3-1.9-4.3-4.3s1.9-4.3,4.3-4.3
	S326.2,276.5,326.2,278.9z M303.3,348.6c0,2.4-1.9,4.3-4.3,4.3s-4.3-1.9-4.3-4.3s1.9-4.3,4.3-4.3
	C301.3,344.4,303.3,346.3,303.3,348.6z M295.3,264.1c0,2.4-1.9,4.3-4.3,4.3s-4.3-1.9-4.3-4.3s1.9-4.3,4.3-4.3
	S295.3,261.7,295.3,264.1z M305.1,269.4c0,2.4-1.9,4.3-4.3,4.3s-4.3-1.9-4.3-4.3s1.9-4.3,4.3-4.3S305.1,267,305.1,269.4z
	 M312.4,246.3c0,2.4-1.9,4.3-4.3,4.3s-4.3-1.9-4.3-4.3s1.9-4.3,4.3-4.3S312.4,243.9,312.4,246.3z M522.3,441.2
	c0,2.4-1.9,4.3-4.3,4.3s-4.3-1.9-4.3-4.3s1.9-4.3,4.3-4.3C520.4,437,522.3,438.9,522.3,441.2z M533.1,432c0,2.4-1.9,4.3-4.3,4.3
	s-4.3-1.9-4.3-4.3s1.9-4.3,4.3-4.3C531.2,427.8,533.1,429.7,533.1,432z M517.4,417.2c0,2.4-1.9,4.3-4.3,4.3s-4.3-1.9-4.3-4.3
	s1.9-4.3,4.3-4.3C515.5,412.9,517.4,414.8,517.4,417.2z M350.1,260.7c0,2.4-1.9,4.3-4.3,4.3s-4.3-1.9-4.3-4.3s1.9-4.3,4.3-4.3
	S350.1,258.3,350.1,260.7z M452.1,342.8c0,2.4-1.9,4.3-4.3,4.3s-4.3-1.9-4.3-4.3s1.9-4.3,4.3-4.3
	C450.2,338.6,452.1,340.5,452.1,342.8z M400.3,291.2c0,2.4-1.9,4.3-4.3,4.3s-4.3-1.9-4.3-4.3s1.9-4.3,4.3-4.3
	C398.4,287,400.3,288.9,400.3,291.2z M518.3,366.3c0,2.4-1.9,4.3-4.3,4.3s-4.3-1.9-4.3-4.3s1.9-4.3,4.3-4.3
	C516.4,362,518.3,363.9,518.3,366.3z M527.3,350.6c0,2.4-1.9,4.3-4.3,4.3s-4.3-1.9-4.3-4.3s1.9-4.3,4.3-4.3S527.3,348.2,527.3,350.6
	z M305.1,222.3c0,2.4-1.9,4.3-4.3,4.3s-4.3-1.9-4.3-4.3s1.9-4.3,4.3-4.3S305.1,219.9,305.1,222.3z M301.8,210.3
	c0,2.4-1.9,4.3-4.3,4.3s-4.3-1.9-4.3-4.3s1.9-4.3,4.3-4.3C299.8,206.1,301.8,208,301.8,210.3z M522.4,203.1c0,2.4-1.9,4.3-4.3,4.3
	s-4.3-1.9-4.3-4.3s1.9-4.3,4.3-4.3S522.4,200.7,522.4,203.1z M465.7,196.2c0,2.4-1.9,4.3-4.3,4.3s-4.3-1.9-4.3-4.3s1.9-4.3,4.3-4.3
	C463.8,192,465.7,193.9,465.7,196.2z M397.5,172c0,2.4-1.9,4.3-4.3,4.3s-4.3-1.9-4.3-4.3s1.9-4.3,4.3-4.3S397.5,169.6,397.5,172z
	 M455.4,142.2c0,2.4-1.9,4.3-4.3,4.3s-4.3-1.9-4.3-4.3s1.9-4.3,4.3-4.3C453.4,137.9,455.4,139.8,455.4,142.2z"/>
<path id="svg-concept" class="dns4" d="M55.3,588.4c0-0.8-0.1-1.6,0-2.4c1.2-13.2,12.9-23.6,26.5-23.6h-0.4c14.4,0,26.1,11.7,26.1,26.1
	c0,7.5-3.1,14.2-8.2,19"/>
<path id="svg-concept" class="dns4" d="M81.6,572.7c-8.1,0.1-15.2,6.4-15.9,14.2v1.5 M47.5,577.9c-10.1,0-18.2,8.2-18.2,18.2c0,4.5,1.6,8.6,4.3,11.7"
	/>
<circle class="dns0" cx="75" cy="641.6" r="3.9"/>
<path class="dns0" d="M75,630.7v6.8 M44,641.6h26.9 M79,641.6h27"/>
<path class="dns5" d="M138.6,624.8c0,2.1-1.5,3.7-3.4,3.7H14.8c-1.9,0-3.4-1.7-3.4-3.7v-13.2c0-2.1,1.5-3.7,3.4-3.7h120.4
	c1.9,0,3.4,1.7,3.4,3.7L138.6,624.8L138.6,624.8z"/>
<path class="dns5" d="M18.4,607.9v20.6"/>
<path id="svg-concept_7_" class="dns0" d="M122.6,618.2c0,2.4-2,4.4-4.4,4.4s-4.4-2-4.4-4.4s2-4.4,4.4-4.4S122.6,615.8,122.6,618.2z"
	/>
<circle id="svg-concept" class="dns4" cx="621.2" cy="582" r="27.1"/>
<path id="svg-concept" class="dns4" d="M653,626.8v11.5h-63.5v-11.6c0-6.4,5.2-11.6,11.6-11.6h40.3C647.8,615.2,652.9,620.4,653,626.8L653,626.8z"/>
<path id="svg-concept" class="dns4" d="M632.2,591.4c0-1.9-1.6-3.5-3.5-3.5c-1.9,0-3.5,1.6-3.5,3.5 M616.6,591.4c0-1.9-1.6-3.5-3.5-3.5
	c-1.9,0-3.5,1.6-3.5,3.5 M596.1,571.6h50.1"/>
<path id="svg-concept_9_" class="dns0" d="M591.4,620.4h-45.6v-42.1h48.5 M545.9,607.8h54.8"/>
<path class="dns5" d="M573.4,620.4v7.7 M581.2,628h-15.6"/>
<line class="dns5" x1="559" y1="10.4" x2="559" y2="28.7"/>
<line id="svg-concept" class="dns4" x1="559" y1="34.8" x2="559" y2="53.1"/>
<line id="svg-concept" class="dns4" x1="559" y1="59.2" x2="559" y2="77.5"/>
<circle class="dns5" cx="609.3" cy="89.2" r="3.5"/>
<path class="dns5" d="M609.3,79.5v6 M581.8,89.2h24 M613,89.2h24"/>
<path class="dns5" d="M666,25.5c0,1.8-1.4,3.3-3,3.3H555.8c-1.7,0-3-1.5-3-3.3V13.7c0-1.8,1.4-3.3,3-3.3H663c1.7,0,3,1.5,3,3.3V25.5z
	"/>
<path class="dns5" d="M659.8,10.4v18.4"/>
<path id="svg-concept_12_" class="dns5" d="M651.6,19.6c0,2.2-1.8,3.9-3.9,3.9c-2.2,0-3.9-1.8-3.9-3.9c0-2.2,1.8-3.9,3.9-3.9
	C649.9,15.7,651.6,17.4,651.6,19.6z"/>
<path id="svg-concept" class="dns4" d="M666,49.9c0,1.8-1.4,3.3-3,3.3H555.8c-1.7,0-3-1.5-3-3.3V38.1c0-1.8,1.4-3.3,3-3.3H663c1.7,0,3,1.5,3,3.3V49.9z
	"/>
<path id="svg-concept" class="dns4" d="M659.8,34.8v18.4"/>
<path id="svg-concept" class="dns4" d="M651.6,44c0,2.2-1.8,3.9-3.9,3.9c-2.2,0-3.9-1.8-3.9-3.9s1.8-3.9,3.9-3.9
	C649.9,40.1,651.6,41.8,651.6,44z"/>
<path id="svg-concept" class="dns4" d="M666,74.3c0,1.8-1.4,3.3-3,3.3H555.8c-1.7,0-3-1.5-3-3.3V62.5c0-1.8,1.4-3.3,3-3.3H663c1.7,0,3,1.5,3,3.3V74.3z
	"/>
<path id="svg-concept" class="dns4" d="M659.8,59.2v18.4"/>
<path id="svg-concept" class="dns4" d="M651.6,68.4c0,2.2-1.8,3.9-3.9,3.9c-2.2,0-3.9-1.8-3.9-3.9s1.8-3.9,3.9-3.9
	C649.9,64.5,651.6,66.2,651.6,68.4z"/>
<g>
	<circle id="svg-concept" class="dns4" cx="56.7" cy="60.3" r="23.5"/>
	<path id="svg-concept" class="dns4" d="M56.7,56.5v10.8 M45.4,33v-7.3c0-4,3.2-7.3,7.3-7.3h8c4,0,7.3,3.2,7.3,7.3V33"/>
</g>
<path class="dns5" d="M88.2,97.7H24.5c-7.5,0-13.5-6.1-13.5-13.5V20.5C11,13.1,17.1,7,24.5,7h63.7c7.5,0,13.5,6.1,13.5,13.5v63.7
	C101.7,91.7,95.7,97.7,88.2,97.7z"/>
</svg>
