<?xml version="1.0" encoding="utf-8"?>
<!-- Generator: Adobe Illustrator 24.3.0, SVG Export Plug-In . SVG Version: 6.00 Build 0)  -->
<svg version="1.1" id="Layer_1" xmlns="http://www.w3.org/2000/svg" xmlns:xlink="http://www.w3.org/1999/xlink" x="0px" y="0px"
	 viewBox="0 0 646.6 652.5" style="enable-background:new 0 0 646.6 652.5;" xml:space="preserve">
<style type="text/css">
	.domainmanage0{fill:none;stroke:#808080;stroke-linecap:round;stroke-linejoin:round;stroke-miterlimit:10;}
	.domainmanage1{fill:url(#SVGID_1_);}
	.domainmanage2{fill:none;stroke:#EE5586;stroke-width:2;stroke-linecap:round;stroke-linejoin:round;stroke-miterlimit:10;}
	.domainmanage3{fill:none;stroke:#EE5586;stroke-width:3;stroke-linecap:round;stroke-linejoin:round;stroke-miterlimit:10;}
	.domainmanage4{fill:#EE5586;}
</style>
<path class="domainmanage0" d="M361.3,587c-36.6,23.4-81.5,40.5-128.9,40.5c-126.5,0-229.1-97.3-229.1-217.2c0-46.6-7.3-108.1,44.1-129.4"/>
<path class="domainmanage0" d="M361.3,587c-42,45.7-81.5,62.4-128.9,62.4C107.8,649.4,3.6,548.8,3.6,420.9"/>
<path class="domainmanage0" d="M58.4,286.6h-8.6c-1.3,0-2.3-1-2.3-2.3v-5.1c0-1.3,1-2.3,2.3-2.3h8.7"/>
<path class="domainmanage0" d="M80.7,295.7h-13c-5.1,0-9.3-4.2-9.3-9.3v-9.1c0-5.1,4.2-9.3,9.3-9.3h13"/>
<path class="domainmanage0" d="M295.6,31.7c-2.1,0-3.7-1.7-3.7-3.7s1.7-3.7,3.7-3.7c2.1,0,3.7,1.7,3.7,3.7S297.6,31.7,295.6,31.7z"/>
<path class="domainmanage0" d="M150.7,468.4c-43.8-49.6-70.4-114.7-70.4-186c0-155.2,125.8-281,281-281s281,125.8,281,281v0
	c0,72.2-27.3,138.1-72,187.9"/>
<radialGradient id="SVGID_1_" cx="210" cy="449.5" r="0" gradientTransform="matrix(1 0 0 -1 0 651)" gradientUnits="userSpaceOnUse">
	<stop  offset="0" style="stop-color:#27A8E0"/>
	<stop  offset="0.1991" style="stop-color:#2AA9E0"/>
	<stop  offset="0.3473" style="stop-color:#33ACE0"/>
	<stop  offset="0.4791" style="stop-color:#44B1E1"/>
	<stop  offset="0.6013" style="stop-color:#5AB9E2"/>
	<stop  offset="0.7169" style="stop-color:#78C2E3"/>
	<stop  offset="0.8275" style="stop-color:#9CCEE4"/>
	<stop  offset="0.9323" style="stop-color:#C6DCE5"/>
	<stop  offset="1" style="stop-color:#E5E6E6"/>
</radialGradient>
<path class="domainmanage1" d="M210,201.5C210,201.6,209.9,201.6,210,201.5z"/>
<path class="domainmanage0" d="M437.2,297.2c0,2.7-2.2,5-4.9,5s-4.9-2.2-4.9-5c0-2.7,2.2-4.9,4.9-4.9S437.2,294.5,437.2,297.2z M421.9,294.7
	c0,2.7-2.2,5-4.9,5s-4.9-2.2-4.9-5c0-2.7,2.2-4.9,4.9-4.9C419.7,289.7,421.9,292,421.9,294.7z M405.7,254.6c0,2.7-2.2,5-4.9,5
	s-4.9-2.2-4.9-5s2.2-4.9,4.9-4.9S405.7,251.9,405.7,254.6z M430.2,283.2c0,2.7-2.2,5-4.9,5s-4.9-2.2-4.9-5c0-2.7,2.2-4.9,4.9-4.9
	S430.2,280.5,430.2,283.2z M456.1,266.7c0,2.7-2.2,5-4.9,5s-4.9-2.2-4.9-5c0-2.7,2.2-4.9,4.9-4.9S456.1,264,456.1,266.7z
	 M408.2,237.1c0,2.7-2.2,5-4.9,5s-4.9-2.2-4.9-5s2.2-4.9,4.9-4.9C406,232.1,408.2,234.3,408.2,237.1z M405.7,223.8
	c0,2.7-2.2,5-4.9,5s-4.9-2.2-4.9-5s2.2-4.9,4.9-4.9C403.5,218.8,405.7,221,405.7,223.8z M389.6,222.8c0,2.7-2.2,5-4.9,5
	s-4.9-2.2-4.9-5s2.2-4.9,4.9-4.9S389.6,220.1,389.6,222.8z M374.2,244.8c0,2.7-2.2,5-4.9,5s-4.9-2.2-4.9-5s2.2-4.9,4.9-4.9
	C372,239.8,374.2,242,374.2,244.8z M322.7,232.1c0,2.7-2.2,5-4.9,5s-4.9-2.2-4.9-5s2.2-4.9,4.9-4.9S322.7,229.4,322.7,232.1z
	 M351.8,205.5c0,2.7-2.2,5-4.9,5s-4.9-2.2-4.9-5s2.2-4.9,4.9-4.9C349.6,200.5,351.8,202.7,351.8,205.5z M365,214.6
	c0,2.7-2.2,5-4.9,5s-4.9-2.2-4.9-5c0-2.7,2.2-4.9,4.9-4.9S365,211.9,365,214.6z M354.2,170.9c0,2.7-2.2,5-4.9,5s-4.9-2.2-4.9-5
	s2.2-4.9,4.9-4.9S354.2,168.2,354.2,170.9z M349,141.8c0,2.7-2.2,5-4.9,5s-4.9-2.2-4.9-5s2.2-4.9,4.9-4.9
	C346.7,136.8,349,139,349,141.8z M383.7,109.5c0,2.7-2.2,5-4.9,5s-4.9-2.2-4.9-5s2.2-4.9,4.9-4.9
	C381.5,104.5,383.7,106.7,383.7,109.5z M414.6,124.1c0,2.7-2.2,5-4.9,5s-4.9-2.2-4.9-5s2.2-4.9,4.9-4.9S414.6,121.4,414.6,124.1z
	 M446.2,116c0,2.7-2.2,5-4.9,5s-4.9-2.2-4.9-5s2.2-4.9,4.9-4.9C444,111,446.2,113.2,446.2,116z M465.8,105.7c0,2.7-2.2,5-4.9,5
	s-4.9-2.2-4.9-5s2.2-4.9,4.9-4.9S465.8,103,465.8,105.7z M493,96.9c0,2.7-2.2,5-4.9,5s-4.9-2.2-4.9-5c0-2.7,2.2-4.9,4.9-4.9
	S493,94.2,493,96.9z M481.9,106.6c0,2.7-2.2,5-4.9,5s-4.9-2.2-4.9-5s2.2-4.9,4.9-4.9S481.9,103.9,481.9,106.6z M521.2,84.7
	c0,2.7-2.2,5-4.9,5s-4.9-2.2-4.9-5s2.2-4.9,4.9-4.9C518.9,79.8,521.2,82,521.2,84.7z M547.6,100.6c0,2.7-2.2,5-4.9,5s-4.9-2.2-4.9-5
	c0-2.7,2.2-4.9,4.9-4.9S547.6,97.9,547.6,100.6z M607.4,197.3c0,2.7-2.2,5-4.9,5s-4.9-2.2-4.9-5s2.2-4.9,4.9-4.9
	C605.2,192.3,607.4,194.6,607.4,197.3z M599.9,225.3c0,2.7-2.2,5-4.9,5s-4.9-2.2-4.9-5s2.2-4.9,4.9-4.9
	C597.7,220.3,599.9,222.5,599.9,225.3z M586.3,214.1c0,2.7-2.2,5-4.9,5s-4.9-2.2-4.9-5s2.2-4.9,4.9-4.9
	C584,209.2,586.3,211.4,586.3,214.1z M586.3,246.5c0,2.7-2.2,5-4.9,5s-4.9-2.2-4.9-5s2.2-4.9,4.9-4.9
	C584,241.5,586.3,243.7,586.3,246.5z M567.1,269.2c0,2.7-2.2,5-4.9,5s-4.9-2.2-4.9-5c0-2.7,2.2-4.9,4.9-4.9
	C564.9,264.2,567.1,266.5,567.1,269.2z M559.5,295.9c0,2.7-2.2,5-4.9,5s-4.9-2.2-4.9-5c0-2.7,2.2-4.9,4.9-4.9
	S559.5,293.2,559.5,295.9z M543.4,285.3c0,2.7-2.2,5-4.9,5s-4.9-2.2-4.9-5c0-2.7,2.2-4.9,4.9-4.9
	C541.2,280.3,543.4,282.5,543.4,285.3z M524.5,262.8c0,2.7-2.2,5-4.9,5s-4.9-2.2-4.9-5c0-2.7,2.2-4.9,4.9-4.9
	S524.5,260.1,524.5,262.8z M477.7,255.7c0,2.7-2.2,5-4.9,5s-4.9-2.2-4.9-5s2.2-4.9,4.9-4.9S477.7,253,477.7,255.7L477.7,255.7z
	 M515.8,216.8c0,2.7-2.2,5-4.9,5s-4.9-2.2-4.9-5s2.2-4.9,4.9-4.9S515.8,214.1,515.8,216.8z M554.6,177.1c0,2.7-2.2,5-4.9,5
	s-4.9-2.2-4.9-5c0-2.7,2.2-4.9,4.9-4.9C552.3,172.2,554.6,174.4,554.6,177.1z M409.7,162.2c0,2.7-2.2,5-4.9,5s-4.9-2.2-4.9-5
	c0-2.7,2.2-4.9,4.9-4.9C407.5,157.2,409.7,159.4,409.7,162.2z M477.7,175.9c0,2.7-2.2,5-4.9,5s-4.9-2.2-4.9-5s2.2-4.9,4.9-4.9
	C475.5,170.9,477.7,173.1,477.7,175.9z M461,253.1c0,2.7-2.2,5-4.9,5s-4.9-2.2-4.9-5s2.2-4.9,4.9-4.9S461,250.4,461,253.1z
	 M610.3,359.1c0,2.7-2.2,5-4.9,5s-4.9-2.2-4.9-5c0-2.7,2.2-4.9,4.9-4.9S610.3,356.4,610.3,359.1z M603.7,292.6c0,2.7-2.2,5-4.9,5
	s-4.9-2.2-4.9-5c0-2.7,2.2-4.9,4.9-4.9C601.4,287.6,603.7,289.9,603.7,292.6z M613,237.9c0,2.7-2.2,5-4.9,5s-4.9-2.2-4.9-5
	s2.2-4.9,4.9-4.9C610.8,232.9,613,235.1,613,237.9z M617.1,324.5c0,2.7-2.2,5-4.9,5s-4.9-2.2-4.9-5c0-2.7,2.2-4.9,4.9-4.9
	C614.8,319.6,617.1,321.8,617.1,324.5z M596.8,329c0,2.7-2.2,5-4.9,5s-4.9-2.2-4.9-5c0-2.7,2.2-4.9,4.9-4.9
	C594.6,324,596.8,326.2,596.8,329z M595.4,276.8c0,2.7-2.2,5-4.9,5s-4.9-2.2-4.9-5c0-2.7,2.2-4.9,4.9-4.9S595.4,274.1,595.4,276.8z
	 M590,261.7c0,2.7-2.2,5-4.9,5s-4.9-2.2-4.9-5c0-2.7,2.2-4.9,4.9-4.9C587.8,256.7,590,258.9,590,261.7z M588.7,373.9
	c0,2.7-2.2,5-4.9,5s-4.9-2.2-4.9-5c0-2.7,2.2-4.9,4.9-4.9C586.5,368.9,588.7,371.1,588.7,373.9z M602.2,384.8c0,2.7-2.2,5-4.9,5
	s-4.9-2.2-4.9-5c0-2.7,2.2-4.9,4.9-4.9C600,379.8,602.2,382,602.2,384.8z M326.4,176.9c0,2.7-2.2,5-4.9,5s-4.9-2.2-4.9-5
	c0-2.7,2.2-4.9,4.9-4.9C324.2,171.9,326.4,174.1,326.4,176.9z M311.8,166.8c0,2.7-2.2,5-4.9,5s-4.9-2.2-4.9-5s2.2-4.9,4.9-4.9
	C309.6,161.8,311.8,164,311.8,166.8z M306.3,259.6c0,2.7-2.2,5-4.9,5s-4.9-2.2-4.9-5c0-2.7,2.2-4.9,4.9-4.9
	C304.1,254.6,306.3,256.8,306.3,259.6z M302.7,290.6c0,2.7-2.2,5-4.9,5s-4.9-2.2-4.9-5c0-2.7,2.2-4.9,4.9-4.9
	C300.4,285.6,302.7,287.8,302.7,290.6z M329.6,264.5c0,2.7-2.2,5-4.9,5s-4.9-2.2-4.9-5c0-2.7,2.2-4.9,4.9-4.9
	C327.3,259.6,329.6,261.8,329.6,264.5z M369.3,281.2c0,2.7-2.2,5-4.9,5s-4.9-2.2-4.9-5c0-2.7,2.2-4.9,4.9-4.9
	C367.1,276.2,369.3,278.4,369.3,281.2z M314.8,129.4c0,2.7-2.2,5-4.9,5s-4.9-2.2-4.9-5c0-2.7,2.2-4.9,4.9-4.9
	C312.6,124.4,314.8,126.7,314.8,129.4z M362.9,83.6c0,2.7-2.2,5-4.9,5s-4.9-2.2-4.9-5c0-2.7,2.2-4.9,4.9-4.9S362.9,80.9,362.9,83.6z
	 M358,69.4c0,2.7-2.2,5-4.9,5s-4.9-2.2-4.9-5s2.2-4.9,4.9-4.9C355.8,64.4,358,66.6,358,69.4z M379.7,64.4c0,2.7-2.2,5-4.9,5
	s-4.9-2.2-4.9-5c0-2.7,2.2-4.9,4.9-4.9S379.7,61.7,379.7,64.4z M439.7,66.5c0,2.7-2.2,5-4.9,5s-4.9-2.2-4.9-5c0-2.7,2.2-4.9,4.9-4.9
	C437.5,61.5,439.7,63.7,439.7,66.5z M453.4,83.4c0,2.7-2.2,5-4.9,5s-4.9-2.2-4.9-5s2.2-4.9,4.9-4.9
	C451.1,78.5,453.4,80.7,453.4,83.4z M354.4,74.1l1.9,4.9 M433,100.1l12.1-12.9 M261.3,142.9c0,2.7-2.2,5-4.9,5s-4.9-2.2-4.9-5
	s2.2-4.9,4.9-4.9C259.1,137.9,261.3,140.1,261.3,142.9z M210.1,301.2c0,2.7-2.2,5-4.9,5s-4.9-2.2-4.9-5c0-2.7,2.2-4.9,4.9-4.9
	C207.9,296.2,210.1,298.5,210.1,301.2z M181.3,303c0,2.7-2.2,5-4.9,5s-4.9-2.2-4.9-5c0-2.7,2.2-4.9,4.9-4.9
	C179.1,298,181.3,300.2,181.3,303z M163.5,291.7c0,2.7-2.2,5-4.9,5s-4.9-2.2-4.9-5c0-2.7,2.2-4.9,4.9-4.9
	C161.3,286.7,163.5,288.9,163.5,291.7z M110.2,252.4c0,2.7-2.2,5-4.9,5s-4.9-2.2-4.9-5s2.2-4.9,4.9-4.9
	C108,247.4,110.2,249.7,110.2,252.4z M140.2,247.4c0,2.7-2.2,5-4.9,5s-4.9-2.2-4.9-5s2.2-4.9,4.9-4.9S140.2,244.7,140.2,247.4z
	 M176.4,252.4c0,2.7-2.2,5-4.9,5s-4.9-2.2-4.9-5s2.2-4.9,4.9-4.9C174.2,247.4,176.4,249.7,176.4,252.4z M190.3,225.9
	c0,2.7-2.2,5-4.9,5s-4.9-2.2-4.9-5s2.2-4.9,4.9-4.9S190.3,223.2,190.3,225.9z M199.4,145c0,2.7-2.2,5-4.9,5s-4.9-2.2-4.9-5
	s2.2-4.9,4.9-4.9S199.4,142.3,199.4,145z M189,177.2c0,2.7-2.2,5-4.9,5s-4.9-2.2-4.9-5s2.2-4.9,4.9-4.9
	C186.8,172.2,189,174.4,189,177.2z M163.8,155c0,2.7-2.2,5-4.9,5s-4.9-2.2-4.9-5s2.2-4.9,4.9-4.9C161.6,150,163.8,152.2,163.8,155z
	 M189.1,100.1c0,2.7-2.2,5-4.9,5s-4.9-2.2-4.9-5s2.2-4.9,4.9-4.9S189.1,97.4,189.1,100.1z M184.8,123.7c0,2.7-2.2,5-4.9,5
	s-4.9-2.2-4.9-5s2.2-4.9,4.9-4.9C182.5,118.7,184.8,120.9,184.8,123.7z M216.3,109.9c0,2.7-2.2,5-4.9,5s-4.9-2.2-4.9-5
	c0-2.7,2.2-4.9,4.9-4.9S216.3,107.2,216.3,109.9z M216.3,134.9c0,2.7-2.2,5-4.9,5s-4.9-2.2-4.9-5s2.2-4.9,4.9-4.9
	C214.1,129.9,216.3,132.1,216.3,134.9z M129.3,181.3c0,2.7-2.2,5-4.9,5s-4.9-2.2-4.9-5s2.2-4.9,4.9-4.9S129.3,178.6,129.3,181.3z
	 M153.7,200.3c0,2.7-2.2,5-4.9,5s-4.9-2.2-4.9-5s2.2-4.9,4.9-4.9S153.7,197.6,153.7,200.3z M254.9,120.7c0,2.7-2.2,5-4.9,5
	s-4.9-2.2-4.9-5s2.2-4.9,4.9-4.9C252.7,115.7,254.9,118,254.9,120.7z M292.7,114c0,2.7-2.2,5-4.9,5s-4.9-2.2-4.9-5s2.2-4.9,4.9-4.9
	C290.4,109,292.7,111.2,292.7,114z M309.9,78.9c0,2.7-2.2,5-4.9,5s-4.9-2.2-4.9-5s2.2-4.9,4.9-4.9C307.7,73.9,309.9,76.1,309.9,78.9
	z M322.2,64.2c0,2.7-2.2,5-4.9,5s-4.9-2.2-4.9-5s2.2-4.9,4.9-4.9S322.2,61.5,322.2,64.2z M312.3,53.4c0,2.7-2.2,5-4.9,5
	s-4.9-2.2-4.9-5c0-2.7,2.2-4.9,4.9-4.9C310,48.5,312.3,50.7,312.3,53.4z M274.6,56c0,2.7-2.2,5-4.9,5s-4.9-2.2-4.9-5
	s2.2-4.9,4.9-4.9C272.3,51.1,274.6,53.3,274.6,56z M237.7,69.2c0,2.7-2.2,5-4.9,5s-4.9-2.2-4.9-5s2.2-4.9,4.9-4.9
	C235.4,64.2,237.7,66.4,237.7,69.2z M226.1,83c0,2.7-2.2,5-4.9,5s-4.9-2.2-4.9-5s2.2-4.9,4.9-4.9C223.8,78,226.1,80.2,226.1,83z
	 M247.6,92.6c0,2.7-2.2,5-4.9,5s-4.9-2.2-4.9-5s2.2-4.9,4.9-4.9S247.6,89.9,247.6,92.6z M281.2,78c0,2.7-2.2,5-4.9,5s-4.9-2.2-4.9-5
	s2.2-4.9,4.9-4.9S281.2,75.3,281.2,78z M255.4,137.9l-3.3-12.7 M253,116.8l9.5-10.2 M261.3,99.6l-14.2-4.9 M260.4,139.5l24.2-21.7
	 M291,110.3l6.2-8.7 M302.1,93.1l1.9-9.3 M300,78.9L281.2,78 M307.7,74.8l6.3-6.9 M302.5,54.3l-28.1,0.5 M271,61l4.2,12.1
	 M265.3,58.4L237.7,67 M229.7,73.1l-5.3,5.8 M238.5,90l-13.2-4.5 M272.5,81.1l-26.3,8.1 M274.6,83l-6.5,14.2 M181.3,303l18.9-1.8
	 M171.4,303l-9.5-7.7 M156.2,286.7l-3.7-9.8 M145.7,272.3l-16.4,1.1 M125.5,268.5l7.5-16.6 M130.3,247.4l-20.2,3.9 M105.2,247.4
	l17.4-61.4 M127,177.2l28.6-18.5 M163,159.9l17.2,14.1 M186.3,172.8l8.1-22.8 M197.7,148.8l30.6,37.5 M209.1,191.5l-11.4-42.7
	 M184.1,182.1l1.2,38.9 M182.5,230l-8.6,18.1 M139,244.2l28.1,5.9 M128,184.7l16.6,12.9 M152.2,196.8l28.2-16.4 M152,204l29.2,19.2
	 M146.7,204.8l-11.4,37.7 M158.9,150l-0.8-22.3 M163,122.7l11.9,1 M179.8,118.7l4.3-13.6 M189.1,100.1l17.3,7.3 M211.3,114.9v15
	 M418.7,317.4l13.5-15.2 M422.1,295.9l5.2,0.6 M414.1,290.7l-10.4-32.1 M421.5,280l-17.8-21.4 M429.4,280.6l18.2-10.5 M447.2,262.8
	l-10.7-17.2 M452,250.3l-15.5-4.7 M461,253.1l7.1,1.1 M475.4,259.9l15,37 M496.2,298l20-31.5 M523.3,266l11.5,15.9 M541.4,289.3
	l2.9,20.4 M550.9,292.7l-9.5-3.4 M556.3,291l4.6-17 M564.6,264.9l14-14.3 M579.7,241.8l1.6-22.7 M585.5,216.7l5.9,5.1 M596.4,220.5
	l4.4-18.6 M600.1,192.9l-23.5-48.5 M571.8,135.8l-26-31.3 M539.1,97.3l-19.3-9.2 M516.2,89.7l-6.2,37.4 M510.7,87l-18.9,6.7
	 M484.1,99.9l-3.9,3.1 M479.8,110.7l25.1,18.4 M472,106.6l-6.2-0.9 M455.9,108.5l-10.5,4.9 M436.5,117.6l-22.1,5 M405.2,122
	l-22.3-9.8 M374.6,112.2L347.2,138 M344.9,146.6l3.1,19.5 M320,153.1l0.9,4.1 M322.7,167.1l-1.2,4.8 M333.8,185.8l12.6-10.8
	 M329.9,194.8v5.6 M324.9,206.3l-9.1,2.1 M315.5,213.3l2.4,2.3 M351,208.2l5.2,3.4 M364,211.6l6.9-1.9 M378.1,210.4l3.6,8.4
	 M389.6,222.8l6.3,1 M401.3,229.5l2,2.6 M398.9,239.2l-24.9,4.1 M365,242.3l-14.6-10.8 M342.2,227.8l-19.7,3 M315.4,236.5
	l-11.5,18.8 M319.7,236.9l4.9,22.7 M328.9,267l31.2,11.7 M369.3,249.7l-5,26.5 M395.9,258.1l-26.6,20.2 M366.8,285.6l13.1,28
	 M361.5,286.1l-9.4,23.4 M344.4,313.6l-18.2-4.9 M315.7,306.3l-14.3-12.4 M297.7,285.6l3.7-21.1 M305.8,261.8l13.9,1.2 M354.2,170.9
	l45.6-8.7 M409.7,129.1l-5,28.1 M409.7,162.2l58.1,13.7 M404.7,167.1l-3.9,51.7 M476.2,179.4l32.6,32.2 M514.6,213.6l31.5-32.8
	 M552.9,180.8l24.4,30.4 M570.4,142.7l-18.7,29.5 M537.7,104.6l-24.6,24 M512.8,135l31.9,38.2 M504.9,135l-29.7,35.9 M475.2,251.4
	l31-31.1 M510.9,221.8l8.6,36.1 M515.2,219.3l43.4,46.4 M477.7,255.7l36.9,7.1 M524.5,262.8l32.7,6.4 M515.8,216.8l60.6-2.7
	 M430.2,236.9l-23-70.4 M408.2,237.1l19.9,4.9 M572.2,384.5l8-7.2 M587.8,371l14.4-8 M605.4,364.1l-6.7,15.7 M595,389.2l-5,11
	 M578.8,413.7l5-4.7 M583.8,400.2l-11.1-9.4 M592.3,384.8l-19.6,6 M593.3,381.8l-5.7-4.8 M571.6,324.3l6.6-9 M188.6,222.2l19.1-23
	 M124.3,176.4l31.3-49.4"/>
<path id="svg-concept" class="domainmanage2" d="M234.9,190.9c0,2.7-2.2,5-4.9,5s-4.9-2.2-4.9-5s2.2-4.9,4.9-4.9S234.9,188.2,234.9,190.9z
	 M163,122.7c0,2.7-2.2,5-4.9,5s-4.9-2.2-4.9-5s2.2-4.9,4.9-4.9S163,120,163,122.7z M216.3,195.9c0,2.7-2.2,5-4.9,5s-4.9-2.2-4.9-5
	s2.2-4.9,4.9-4.9S216.3,193.2,216.3,195.9z M155.6,272.3c0,2.7-2.2,5-4.9,5s-4.9-2.2-4.9-5c0-2.7,2.2-4.9,4.9-4.9
	S155.6,269.6,155.6,272.3z M129.3,273.4c0,2.7-2.2,5-4.9,5s-4.9-2.2-4.9-5s2.2-4.9,4.9-4.9S129.3,270.7,129.3,273.4z M304.9,97.6
	c0,2.7-2.2,5-4.9,5s-4.9-2.2-4.9-5s2.2-4.9,4.9-4.9C302.7,92.6,304.9,94.8,304.9,97.6z M270.3,102.5c0,2.7-2.2,5-4.9,5
	s-4.9-2.2-4.9-5s2.2-4.9,4.9-4.9C268,97.6,270.3,99.8,270.3,102.5z M352.1,227.8c0,2.7-2.2,5-4.9,5s-4.9-2.2-4.9-5s2.2-4.9,4.9-4.9
	C349.9,222.8,352.1,225,352.1,227.8z M325.6,308.5c0,2.7-2.2,5-4.9,5s-4.9-2.2-4.9-5c0-2.7,2.2-4.9,4.9-4.9S325.6,305.8,325.6,308.5
	z M316.3,210.6c0,2.7-2.2,5-4.9,5s-4.9-2.2-4.9-5s2.2-4.9,4.9-4.9S316.3,207.9,316.3,210.6z M327.7,216.8c0,2.7-2.2,5-4.9,5
	s-4.9-2.2-4.9-5s2.2-4.9,4.9-4.9C325.5,211.8,327.7,214,327.7,216.8z M334.8,205.3c0,2.7-2.2,5-4.9,5s-4.9-2.2-4.9-5
	s2.2-4.9,4.9-4.9S334.8,202.6,334.8,205.3z M336.2,190c0,2.7-2.2,5-4.9,5s-4.9-2.2-4.9-5s2.2-4.9,4.9-4.9
	C333.9,185,336.2,187.3,336.2,190z M334.6,203.9l7.6-0.1 M579.3,415.8c0,2.7-2.2,5-4.9,5s-4.9-2.2-4.9-5c0-2.7,2.2-4.9,4.9-4.9
	S579.3,413.1,579.3,415.8z M591.9,405.1c0,2.7-2.2,5-4.9,5s-4.9-2.2-4.9-5c0-2.7,2.2-4.9,4.9-4.9
	C589.6,400.2,591.9,402.4,591.9,405.1z M379.8,206.7c0,2.7-2.2,5-4.9,5s-4.9-2.2-4.9-5s2.2-4.9,4.9-4.9
	C377.6,201.7,379.8,203.9,379.8,206.7z M498,301.8c0,2.7-2.2,5-4.9,5s-4.9-2.2-4.9-5c0-2.7,2.2-4.9,4.9-4.9S498,299.1,498,301.8z
	 M438,242c0,2.7-2.2,5-4.9,5s-4.9-2.2-4.9-5s2.2-4.9,4.9-4.9S438,239.3,438,242z M585.1,310.8c0,2.7-2.2,5-4.9,5s-4.9-2.2-4.9-5
	c0-2.7,2.2-4.9,4.9-4.9C582.9,305.8,585.1,308,585.1,310.8z M327.7,162.2c0,2.7-2.2,5-4.9,5s-4.9-2.2-4.9-5c0-2.7,2.2-4.9,4.9-4.9
	C325.5,157.2,327.7,159.4,327.7,162.2z M323.8,148.3c0,2.7-2.2,5-4.9,5s-4.9-2.2-4.9-5s2.2-4.9,4.9-4.9S323.8,145.6,323.8,148.3z
	 M579.5,139.9c0,2.7-2.2,5-4.9,5s-4.9-2.2-4.9-5s2.2-4.9,4.9-4.9C577.2,135,579.5,137.2,579.5,139.9z M513.8,132c0,2.7-2.2,5-4.9,5
	s-4.9-2.2-4.9-5s2.2-4.9,4.9-4.9S513.8,129.3,513.8,132z M434.8,103.9c0,2.7-2.2,5-4.9,5s-4.9-2.2-4.9-5s2.2-4.9,4.9-4.9
	C432.5,99,434.8,101.2,434.8,103.9z M501.8,69.4c0,2.7-2.2,5-4.9,5s-4.9-2.2-4.9-5s2.2-4.9,4.9-4.9
	C499.6,64.4,501.8,66.6,501.8,69.4z"/>
<path id="svg-concept" class="domainmanage2" d="M276.2,184.6c0,3.3-2.7,6-6,6c-3.3,0-6-2.7-6-6s2.7-6,6-6
	C273.6,178.7,276.2,181.3,276.2,184.6z"/>
<g>
	<path id="svg-concept" class="domainmanage2" d="M202.4,442.7h59.2"/>
	<path class="domainmanage0" d="M445.6,442.7h59.2 M324,442.7h59.2 M202.4,479.6h59.2"/>
	<path id="svg-concept" class="domainmanage2" d="M445.6,479.6h59.2"/>
	<path class="domainmanage0" d="M324,479.6h59.2 M202.4,516.4h59.2 M445.6,516.4h59.2"/>
	<path id="svg-concept" class="domainmanage2" d="M324,516.4h59.2"/>
	<path class="domainmanage0" d="M202.4,553.3h59.2 M445.6,553.3h59.2 M324,553.3h59.2 M472.2,398.2H235c-1.6,0-3-1.4-3-3v-17.6
		c0-1.6,1.4-3,3-3h237.2c1.6,0,3,1.4,3,3v17.6C475.2,396.9,473.9,398.2,472.2,398.2z"/>
	<path class="domainmanage0" d="M152.9,349.8h416.9"/>
	<path id="svg-concept" class="domainmanage3" d="M167.7,317.7h387.2c8.2,0,14.9,6.7,14.9,14.9v239.7c0,8.2-6.7,14.9-14.9,14.9H167.7
		c-8.2,0-14.9-6.7-14.9-14.9V332.5C152.9,324.3,159.5,317.7,167.7,317.7z"/>
</g>
<g>
	<path id="svg-ico" class="domainmanage4" d="M330,442.7c0,3.3-2.7,6-6,6s-6-2.7-6-6s2.7-6,6-6C327.3,436.8,330,439.5,330,442.7z"/>
	
		<animateMotion  accumulate="none" additive="replace" begin="0s" calcMode="paced" dur="2s" fill="remove" path="M55, 0 0 0 0 0 55 0" repeatCount="indefinite" restart="always">
		</animateMotion>
</g>
<g>
	<path id="svg-ico" class="domainmanage4" d="M208.4,516.4c0,3.3-2.7,6-6,6s-6-2.7-6-6s2.7-6,6-6S208.4,513.1,208.4,516.4z"/>
	
		<animateMotion  accumulate="none" additive="replace" begin="1s" calcMode="paced" dur="3s" fill="remove" path="M55, 0 0 0 0 0 55 0" repeatCount="indefinite" restart="always">
		</animateMotion>
</g>
<g>
	<path id="svg-ico" class="domainmanage4" d="M510.8,553.2c0,3.3-2.7,6-6,6s-6-2.7-6-6s2.7-6,6-6C508.1,547.3,510.8,550,510.8,553.2z"
		/>
	
		<animateMotion  accumulate="none" additive="replace" begin="2s" calcMode="paced" dur="2s" fill="remove" path="M0, 0 -55 0 0 0 0 0" repeatCount="indefinite" restart="always">
		</animateMotion>
</g>
</svg>
