<?xml version="1.0" encoding="utf-8"?>
<!-- Generator: Adobe Illustrator 24.3.0, SVG Export Plug-In . SVG Version: 6.00 Build 0)  -->
<svg version="1.1" id="Layer_1" xmlns="http://www.w3.org/2000/svg" xmlns:xlink="http://www.w3.org/1999/xlink" x="0px" y="0px"
	 viewBox="0 0 1100.6 600.5" style="enable-background:new 0 0 1100.6 600.5;" xml:space="preserve">
<style type="text/css">
	.domains0{fill:none;stroke:#808080;stroke-linecap:round;stroke-linejoin:round;stroke-miterlimit:10;}
	.domains1{fill:url(#SVGID_1_);}
	.domains2{fill:none;stroke:#EE5586;stroke-width:4;stroke-linecap:round;stroke-linejoin:round;stroke-miterlimit:10;}
	.domains3{fill:url(#SVGID_2_);}
	.domains4{fill:none;stroke:#EE5586;stroke-width:2;stroke-linecap:round;stroke-linejoin:round;stroke-miterlimit:10;}
	.domains5{fill:none;stroke:#808080;stroke-miterlimit:10;}
	.domains6{fill:#EE5586;}
</style>
<path class="domains0" d="M197.4,73.2c-1.7,0-3-1.3-3-3s1.3-3,3-3s3,1.3,3,3C200.4,71.8,199.1,73.2,197.4,73.2z"/>
<path class="domains0" d="M189.6,18.5c-1.7,0-3-1.3-3-3s1.3-3,3-3s3,1.3,3,3C192.6,17.1,191.2,18.5,189.6,18.5z M282.8,48.1
	c-1.7,0-3-1.3-3-3s1.3-3,3-3s3,1.3,3,3S284.5,48.1,282.8,48.1z M423.4,73.2c-1.7,0-3-1.3-3-3s1.3-3,3-3s3,1.3,3,3
	C426.4,71.8,425,73.2,423.4,73.2z"/>
<path class="domains0" d="M458.7,52.2c-1.7,0-3-1.3-3-3s1.3-3,3-3s3,1.3,3,3C461.7,50.8,460.3,52.2,458.7,52.2z"/>
<path class="domains0" d="M399.2,111c-1.7,0-3-1.3-3-3s1.3-3,3-3s3,1.3,3,3S400.9,111,399.2,111z M516.3,58.1c-1.7,0-3-1.3-3-3s1.3-3,3-3
	s3,1.3,3,3C519.3,56.7,518,58.1,516.3,58.1z M558.4,66c-1.7,0-3-1.3-3-3s1.3-3,3-3s3,1.3,3,3C561.4,64.7,560.1,66,558.4,66z
	 M601.7,73.3c-1.7,0-3-1.3-3-3s1.3-3,3-3s3,1.3,3,3S603.4,73.3,601.7,73.3z M665.9,67.2c-1.7,0-3-1.3-3-3s1.3-3,3-3s3,1.3,3,3
	C668.9,65.9,667.6,67.2,665.9,67.2z M632.4,37.3c-1.7,0-3-1.3-3-3s1.3-3,3-3s3,1.3,3,3S634.1,37.3,632.4,37.3z M726,69.6
	c-1.7,0-3-1.3-3-3s1.3-3,3-3s3,1.3,3,3C729,68.2,727.7,69.6,726,69.6z M800,62.6c-1.7,0-3-1.3-3-3s1.3-3,3-3s3,1.3,3,3
	S801.7,62.6,800,62.6z M897.8,11.7c-1.7,0-3-1.3-3-3s1.3-3,3-3s3,1.3,3,3C900.8,10.3,899.5,11.7,897.8,11.7z M700.8,106.1
	c-1.7,0-3-1.3-3-3s1.3-3,3-3s3,1.3,3,3S702.5,106.1,700.8,106.1z M740.9,29.8c-1.7,0-3-1.3-3-3s1.3-3,3-3s3,1.3,3,3
	C743.9,28.4,742.5,29.8,740.9,29.8z M727.8,120.3c-1.7,0-3-1.3-3-3s1.3-3,3-3s3,1.3,3,3C730.8,118.9,729.4,120.3,727.8,120.3z
	 M792.5,149.7c-1.7,0-3-1.3-3-3s1.3-3,3-3s3,1.3,3,3S794.2,149.7,792.5,149.7z M753.6,186.5c-1.7,0-3-1.3-3-3s1.3-3,3-3s3,1.3,3,3
	C756.6,185.1,755.3,186.5,753.6,186.5z M771.9,238.4c-1.7,0-3-1.3-3-3s1.3-3,3-3s3,1.3,3,3C774.9,237,773.5,238.4,771.9,238.4z
	 M803.6,285.2c-1.7,0-3-1.3-3-3s1.3-3,3-3s3,1.3,3,3S805.2,285.2,803.6,285.2z M780.1,339.7c-1.7,0-3-1.3-3-3s1.3-3,3-3s3,1.3,3,3
	C783.1,338.3,781.7,339.7,780.1,339.7z M836.3,325.8c-1.7,0-3-1.3-3-3s1.3-3,3-3s3,1.3,3,3C839.3,324.4,838,325.8,836.3,325.8z
	 M803,382.1c-1.7,0-3-1.3-3-3s1.3-3,3-3s3,1.3,3,3S804.7,382.1,803,382.1z M769.7,430.6c-1.7,0-3-1.3-3-3s1.3-3,3-3s3,1.3,3,3
	S771.3,430.6,769.7,430.6z M854.3,474.4c-1.7,0-3-1.3-3-3s1.3-3,3-3s3,1.3,3,3S855.9,474.4,854.3,474.4z M836.4,410.9
	c-1.7,0-3-1.3-3-3s1.3-3,3-3s3,1.3,3,3S838.1,410.9,836.4,410.9z M801.9,505.8c-1.7,0-3-1.3-3-3s1.3-3,3-3s3,1.3,3,3
	C804.9,504.4,803.5,505.8,801.9,505.8z M851.3,592.6c-1.7,0-3-1.3-3-3s1.3-3,3-3s3,1.3,3,3S852.9,592.6,851.3,592.6z M830.6,536.9
	c-1.7,0-3-1.3-3-3s1.3-3,3-3s3,1.3,3,3S832.2,536.9,830.6,536.9z M876.2,534.6c-1.7,0-3-1.3-3-3s1.3-3,3-3s3,1.3,3,3
	S877.9,534.6,876.2,534.6z"/>
<path class="domains0" d="M775.1,581c-1.7,0-3-1.3-3-3s1.3-3,3-3s3,1.3,3,3C778.1,579.6,776.8,581,775.1,581z"/>
<path class="domains0" d="M916.5,583.6c-1.7-0.1-2.9-1.6-2.8-3.2c0.1-1.7,1.6-2.9,3.2-2.7c1.7,0.1,2.9,1.6,2.7,3.2
	C919.6,582.5,918.1,583.7,916.5,583.6L916.5,583.6z M753.1,545.8c-1.7,0-3-1.3-3-3s1.3-3,3-3s3,1.3,3,3
	C756.1,544.4,754.7,545.8,753.1,545.8z M672.4,577.6c-1.7,0-3-1.3-3-3s1.3-3,3-3s3,1.3,3,3S674,577.6,672.4,577.6z M650.4,534.6
	c-1.7,0-3-1.3-3-3s1.3-3,3-3s3,1.3,3,3C653.4,533.2,652,534.6,650.4,534.6z M602.5,558.8c-1.7,0-3-1.3-3-3s1.3-3,3-3s3,1.3,3,3
	S604.1,558.8,602.5,558.8z M553.2,580.6c-1.7,0-3-1.3-3-3s1.3-3,3-3s3,1.3,3,3S554.9,580.6,553.2,580.6z M517.5,557.1
	c-1.7,0-3-1.3-3-3s1.3-3,3-3s3,1.3,3,3S519.2,557.1,517.5,557.1z M456,557.1c-1.7,0-3-1.3-3-3s1.3-3,3-3s3,1.3,3,3
	S457.6,557.1,456,557.1z M496.6,592.6c-1.7,0-3-1.3-3-3s1.3-3,3-3s3,1.3,3,3S498.2,592.6,496.6,592.6z M423.3,591.3
	c-1.7,0-3-1.3-3-3s1.3-3,3-3s3,1.3,3,3S424.9,591.3,423.3,591.3z M396.6,523.7c-1.7,0-3-1.3-3-3s1.3-3,3-3s3,1.3,3,3
	C399.6,522.3,398.3,523.7,396.6,523.7z M307,555.8c-1.7,0-3-1.3-3-3s1.3-3,3-3s3,1.3,3,3S308.7,555.8,307,555.8z M233.9,563.9
	c-1.7,0-3-1.3-3-3s1.3-3,3-3s3,1.3,3,3S235.5,563.9,233.9,563.9z M304,508.1c-1.7,0-3-1.3-3-3s1.3-3,3-3s3,1.3,3,3
	C307,506.7,305.7,508.1,304,508.1z M169.6,584.7c-1.7,0-3-1.3-3-3s1.3-3,3-3s3,1.3,3,3C172.6,583.3,171.2,584.7,169.6,584.7z"/>
<path class="domains0" d="M319.7,471.4c-1.7,0-3-1.3-3-3s1.3-3,3-3s3,1.3,3,3S321.4,471.4,319.7,471.4z"/>
<path class="domains0" d="M317.4,437c-1.7,0-3-1.3-3-3s1.3-3,3-3s3,1.3,3,3S319,437,317.4,437z M296.6,212.3c-1.7,0-3-1.3-3-3s1.3-3,3-3
	s3,1.3,3,3C299.6,210.9,298.3,212.3,296.6,212.3z"/>
<path class="domains0" d="M287.1,172.2c-1.7,0-3-1.3-3-3s1.3-3,3-3s3,1.3,3,3S288.8,172.2,287.1,172.2z M107.5,132.7c-1.7,0-3-1.3-3-3
	s1.3-3,3-3s3,1.3,3,3S109.2,132.7,107.5,132.7z M189.6,327.6c-1.7,0-3-1.3-3-3s1.3-3,3-3s3,1.3,3,3S191.3,327.6,189.6,327.6z"/>
<path class="domains0" d="M9,593.6c-1.7,0-3-1.3-3-3s1.3-3,3-3s3,1.3,3,3C12,592.2,10.6,593.6,9,593.6z M260.8,240.2c-1.7,0-3-1.3-3-3
	s1.3-3,3-3s3,1.3,3,3S262.5,240.2,260.8,240.2z M333.9,152.4c-1.7,0-3-1.3-3-3s1.3-3,3-3s3,1.3,3,3S335.6,152.4,333.9,152.4z
	 M249.6,139.4c-1.7,0-3-1.3-3-3s1.3-3,3-3s3,1.3,3,3C252.6,138,251.3,139.4,249.6,139.4z M84.1,88.6c-1.7,0-3-1.3-3-3s1.3-3,3-3
	s3,1.3,3,3C87,87.3,85.7,88.6,84.1,88.6z M288,363.8c-1.7,0-3-1.3-3-3s1.3-3,3-3s3,1.3,3,3C291,362.4,289.7,363.8,288,363.8z
	 M282.8,322.9c-1.7,0-3-1.3-3-3s1.3-3,3-3s3,1.3,3,3C285.8,321.5,284.5,322.9,282.8,322.9z M239.5,315.4c-1.7,0-3-1.3-3-3s1.3-3,3-3
	s3,1.3,3,3C242.5,314,241.1,315.4,239.5,315.4z M254,382.1c-1.7,0-3-1.3-3-3s1.3-3,3-3s3,1.3,3,3S255.7,382.1,254,382.1z
	 M246.6,448.4c-1.7,0-3-1.3-3-3s1.3-3,3-3s3,1.3,3,3S248.3,448.4,246.6,448.4z M260.7,504.1c-1.7,0-3-1.3-3-3s1.3-3,3-3s3,1.3,3,3
	C263.7,502.7,262.4,504.1,260.7,504.1z M54.1,211.9c-1.7,0-3-1.3-3-3s1.3-3,3-3s3,1.3,3,3S55.7,211.9,54.1,211.9z M42.1,330.6
	c-1.7,0-3-1.3-3-3s1.3-3,3-3s3,1.3,3,3S43.8,330.6,42.1,330.6z M34.6,37.3c-1.7,0-3-1.3-3-3s1.3-3,3-3s3,1.3,3,3
	C37.6,35.9,36.3,37.3,34.6,37.3z M192.6,382.1c-1.7,0-3-1.3-3-3s1.3-3,3-3s3,1.3,3,3S194.3,382.1,192.6,382.1z M199.3,504.1
	c-1.7,0-3-1.3-3-3s1.3-3,3-3s3,1.3,3,3C202.3,502.7,201,504.1,199.3,504.1z M87.1,451c-1.7,0-3-1.3-3-3s1.3-3,3-3s3,1.3,3,3
	S88.7,451,87.1,451z M106.9,552c-1.7,0-3-1.3-3-3s1.3-3,3-3s3,1.3,3,3C109.9,550.6,108.5,552,106.9,552z M48,520.7c-1.7,0-3-1.3-3-3
	s1.3-3,3-3s3,1.3,3,3C51,519.3,49.6,520.7,48,520.7z M125.5,291.9c-1.7,0-3-1.3-3-3s1.3-3,3-3s3,1.3,3,3
	C128.5,290.5,127.1,291.9,125.5,291.9z M129.9,349.4c-1.7,0-3-1.3-3-3s1.3-3,3-3s3,1.3,3,3S131.6,349.4,129.9,349.4z M136.6,471.4
	c-1.7,0-3-1.3-3-3s1.3-3,3-3s3,1.3,3,3C139.6,470,138.3,471.4,136.6,471.4z M194.4,276.2c-1.7,0-3-1.3-3-3s1.3-3,3-3s3,1.3,3,3
	S196,276.2,194.4,276.2z M103.9,177.6c-1.7,0-3-1.3-3-3s1.3-3,3-3s3,1.3,3,3C106.9,176.2,105.5,177.6,103.9,177.6z M148.7,36.9
	c-1.7,0-3-1.3-3-3s1.3-3,3-3s3,1.3,3,3C151.7,35.5,150.3,36.9,148.7,36.9z M174.2,126.3c-1.7,0-3-1.3-3-3s1.3-3,3-3s3,1.3,3,3
	S175.9,126.3,174.2,126.3z M159.8,216.4c-1.7,0-3-1.3-3-3s1.3-3,3-3s3,1.3,3,3C162.8,215,161.5,216.4,159.8,216.4z M364.8,489
	c-1.7,0-3-1.3-3-3s1.3-3,3-3s3,1.3,3,3C367.8,487.6,366.5,489,364.8,489z M336.9,587.7c-1.7,0-3-1.3-3-3s1.3-3,3-3s3,1.3,3,3
	C339.9,586.3,338.6,587.7,336.9,587.7z M253.7,597.6c-1.7,0-3-1.3-3-3s1.3-3,3-3s3,1.3,3,3C256.6,596.2,255.3,597.6,253.7,597.6
	L253.7,597.6z M717.1,547.5c-1.7,0-3-1.3-3-3s1.3-3,3-3s3,1.3,3,3C720.1,546.1,718.8,547.5,717.1,547.5z M717.4,491.8
	c-1.7,0-3-1.3-3-3s1.3-3,3-3s3,1.3,3,3S719.1,491.8,717.4,491.8z"/>
<path class="domains0" d="M821.5,191.4c-1.7,0-3-1.3-3-3s1.3-3,3-3s3,1.3,3,3C824.5,190,823.2,191.4,821.5,191.4z"/>
<path class="domains0" d="M876.6,70.2c-1.7,0-3-1.3-3-3s1.3-3,3-3s3,1.3,3,3S878.3,70.2,876.6,70.2z M833.4,251.5c-1.7,0-3-1.3-3-3
	s1.3-3,3-3s3,1.3,3,3C836.4,250.1,835.1,251.5,833.4,251.5z M857.3,237.6c-1.7,0-3-1.3-3-3s1.3-3,3-3s3,1.3,3,3
	C860.3,236.2,859,237.6,857.3,237.6z M916.6,221.6c-1.7,0-3-1.3-3-3s1.3-3,3-3s3,1.3,3,3C919.6,220.2,918.3,221.6,916.6,221.6z
	 M847.1,145.1c-1.7,0-3-1.3-3-3s1.3-3,3-3s3,1.3,3,3S848.7,145.1,847.1,145.1z M1003,305c-1.7,0-3-1.3-3-3s1.3-3,3-3s3,1.3,3,3
	S1004.6,305,1003,305z M894.8,325.8c-1.7,0-3-1.3-3-3s1.3-3,3-3s3,1.3,3,3C897.8,324.4,896.5,325.8,894.8,325.8z M1055,128.7
	c-1.7,0-3-1.3-3-3s1.3-3,3-3s3,1.3,3,3C1058,127.3,1056.7,128.7,1055,128.7z M1027.9,58.1c-1.7,0-3-1.3-3-3s1.3-3,3-3s3,1.3,3,3
	C1030.9,56.7,1029.6,58.1,1027.9,58.1z M1090,14.7c-1.7,0-3-1.3-3-3s1.3-3,3-3s3,1.3,3,3C1093,13.3,1091.7,14.7,1090,14.7z
	 M912.8,474.4c-1.7,0-3-1.3-3-3s1.3-3,3-3s3,1.3,3,3S914.4,474.4,912.8,474.4z M894.9,410.9c-1.7,0-3-1.3-3-3s1.3-3,3-3s3,1.3,3,3
	S896.6,410.9,894.9,410.9z M943,303.9c-1.7,0-3-1.3-3-3s1.3-3,3-3s3,1.3,3,3S944.7,303.9,943,303.9z M905.6,145.1c-1.7,0-3-1.3-3-3
	s1.3-3,3-3s3,1.3,3,3S907.2,145.1,905.6,145.1z M833.3,100.1c-1.7,0-3-1.3-3-3s1.3-3,3-3s3,1.3,3,3S835,100.1,833.3,100.1z"/>
<path class="domains0" d="M836.3,20.8c-1.7,0-3-1.3-3-3s1.3-3,3-3s3,1.3,3,3C839.3,19.4,838,20.8,836.3,20.8z M970,220.1
	c-1.7,0-3-1.3-3-3s1.3-3,3-3s3,1.3,3,3S971.7,220.1,970,220.1z M928,367.7c-1.7,0-3-1.3-3-3s1.3-3,3-3s3,1.3,3,3
	C931,366.3,929.7,367.7,928,367.7z M1014,485.8c-1.7,0-3-1.3-3-3s1.3-3,3-3s3,1.3,3,3C1017,484.4,1015.7,485.8,1014,485.8z"/>
<path class="domains0" d="M367,61.1c-1.7,0-3-1.3-3-3s1.3-3,3-3s3,1.3,3,3S368.6,61.1,367,61.1z M331.8,32.8c-1.7,0-3-1.3-3-3s1.3-3,3-3
	s3,1.3,3,3C334.8,31.4,333.4,32.8,331.8,32.8z M299.1,110.3c-1.7,0-3-1.3-3-3s1.3-3,3-3s3,1.3,3,3S300.7,110.3,299.1,110.3z
	 M254.1,18.5c-1.7,0-3-1.3-3-3s1.3-3,3-3s3,1.3,3,3C257,17.1,255.7,18.5,254.1,18.5z"/>
<path class="domains0" d="M800.2,88.4L854.9,47 M788.8,122.6l30.9-23.4 M329.6,549.2L275,590.6 M341,515l-30.9,23.5"/>
<radialGradient id="SVGID_1_" cx="688" cy="-129.4" r="0" gradientTransform="matrix(1 0 0 1 0 465)" gradientUnits="userSpaceOnUse">
	<stop  offset="0" style="stop-color:#27AAE1"/>
	<stop  offset="0.1987" style="stop-color:#2AABE1"/>
	<stop  offset="0.3466" style="stop-color:#33AEE1"/>
	<stop  offset="0.4781" style="stop-color:#44B3E2"/>
	<stop  offset="0.6001" style="stop-color:#5ABAE3"/>
	<stop  offset="0.7154" style="stop-color:#78C4E4"/>
	<stop  offset="0.8259" style="stop-color:#9CCFE5"/>
	<stop  offset="0.9305" style="stop-color:#C6DDE7"/>
	<stop  offset="1" style="stop-color:#E6E7E8"/>
</radialGradient>
<path class="domains1" d="M688,335.6C687.6,335.3,687.5,335.3,688,335.6z"/>
<path id="svg-concept" class="domains2" d="M775.1,312.7c0,125.4-101.7,227.1-227.1,227.1S320.9,438.1,320.9,312.7S422.6,85.6,548,85.6
	C673.4,85.5,775.1,187.2,775.1,312.7z"/>
<path class="domains0" d="M566.3,418.2c0,2.2-1.8,4-4,4s-4-1.8-4-4s1.8-4,4-4S566.3,415.9,566.3,418.2z M554.4,408.7c0,2.2-1.8,4-4,4
	s-4-1.8-4-4s1.8-4,4-4S554.4,406.5,554.4,408.7z M587.7,382.6c0,2.2-1.8,4-4,4s-4-1.8-4-4s1.8-4,4-4S587.7,380.4,587.7,382.6z
	 M593,351.1c0,2.2-1.8,4-4,4s-4-1.8-4-4s1.8-4,4-4S593,348.9,593,351.1z M609.3,324.7c0,2.2-1.8,4-4,4s-4-1.8-4-4s1.8-4,4-4
	S609.3,322.5,609.3,324.7z M597,322.6c0,2.2-1.8,4-4,4s-4-1.8-4-4s1.8-4,4-4S597,320.4,597,322.6z M583.9,290.2c0,2.2-1.8,4-4,4
	s-4-1.8-4-4s1.8-4,4-4S583.9,288,583.9,290.2z M603.7,313.4c0,2.2-1.8,4-4,4s-4-1.8-4-4s1.8-4,4-4S603.7,311.1,603.7,313.4z
	 M624.6,300c0,2.2-1.8,4-4,4s-4-1.8-4-4s1.8-4,4-4S624.6,297.8,624.6,300z M585.9,276c0,2.2-1.8,4-4,4s-4-1.8-4-4s1.8-4,4-4
	S585.9,273.8,585.9,276z M583.9,265.3c0,2.2-1.8,4-4,4s-4-1.8-4-4s1.8-4,4-4S583.9,263.1,583.9,265.3z M570.8,264.5c0,2.2-1.8,4-4,4
	s-4-1.8-4-4s1.8-4,4-4S570.8,262.3,570.8,264.5z M558.4,282.3c0,2.2-1.8,4-4,4s-4-1.8-4-4s1.8-4,4-4S558.4,280.1,558.4,282.3z
	 M516.8,272c0,2.2-1.8,4-4,4s-4-1.8-4-4s1.8-4,4-4S516.8,269.8,516.8,272z M540.3,250.5c0,2.2-1.8,4-4,4s-4-1.8-4-4s1.8-4,4-4
	S540.3,248.3,540.3,250.5z M551,257.9c0,2.2-1.8,4-4,4s-4-1.8-4-4s1.8-4,4-4S551,255.7,551,257.9z M542.3,222.6c0,2.2-1.8,4-4,4
	s-4-1.8-4-4s1.8-4,4-4S542.3,220.3,542.3,222.6z M538,199c0,2.2-1.8,4-4,4s-4-1.8-4-4s1.8-4,4-4S538,196.8,538,199z M566.1,172.9
	c0,2.2-1.8,4-4,4s-4-1.8-4-4s1.8-4,4-4S566.1,170.7,566.1,172.9z M591.1,184.8c0,2.2-1.8,4-4,4s-4-1.8-4-4s1.8-4,4-4
	S591.1,182.5,591.1,184.8z M616.6,178.1c0,2.2-1.8,4-4,4s-4-1.8-4-4s1.8-4,4-4S616.6,175.9,616.6,178.1z M632.4,169.9
	c0,2.2-1.8,4-4,4s-4-1.8-4-4s1.8-4,4-4C630.7,165.9,632.4,167.7,632.4,169.9z M654.4,162.8c0,2.2-1.8,4-4,4s-4-1.8-4-4s1.8-4,4-4
	C652.7,158.8,654.4,160.5,654.4,162.8z M645.4,170.6c0,2.2-1.8,4-4,4s-4-1.8-4-4s1.8-4,4-4S645.4,168.4,645.4,170.6z M677.2,152.9
	c0,2.2-1.8,4-4,4s-4-1.8-4-4s1.8-4,4-4S677.2,150.7,677.2,152.9z M698.6,165.7c0,2.2-1.8,4-4,4s-4-1.8-4-4s1.8-4,4-4
	S698.6,163.5,698.6,165.7z M746.9,243.9c0,2.2-1.8,4-4,4s-4-1.8-4-4s1.8-4,4-4C745.2,239.9,746.9,241.7,746.9,243.9z M740.8,266.5
	c0,2.2-1.8,4-4,4s-4-1.8-4-4s1.8-4,4-4S740.8,264.3,740.8,266.5z M729.8,257.5c0,2.2-1.8,4-4,4s-4-1.8-4-4s1.8-4,4-4
	S729.8,255.3,729.8,257.5z M729.8,283.6c0,2.2-1.8,4-4,4s-4-1.8-4-4s1.8-4,4-4S729.8,281.4,729.8,283.6z M714.3,302c0,2.2-1.8,4-4,4
	s-4-1.8-4-4s1.8-4,4-4S714.3,299.8,714.3,302z M708.2,323.6c0,2.2-1.8,4-4,4s-4-1.8-4-4s1.8-4,4-4S708.2,321.4,708.2,323.6z
	 M695.2,315c0,2.2-1.8,4-4,4s-4-1.8-4-4s1.8-4,4-4S695.2,312.8,695.2,315z M679.9,296.9c0,2.2-1.8,4-4,4s-4-1.8-4-4s1.8-4,4-4
	S679.9,294.6,679.9,296.9z M642.1,291.1c0,2.2-1.8,4-4,4s-4-1.8-4-4s1.8-4,4-4S642.1,288.9,642.1,291.1z M672.9,259.7
	c0,2.2-1.8,4-4,4s-4-1.8-4-4s1.8-4,4-4S672.9,257.5,672.9,259.7z M704.2,227.6c0,2.2-1.8,4-4,4s-4-1.8-4-4s1.8-4,4-4
	S704.2,225.4,704.2,227.6z M587.1,215.5c0,2.2-1.8,4-4,4s-4-1.8-4-4s1.8-4,4-4S587.1,213.3,587.1,215.5z M642.1,226.6
	c0,2.2-1.8,4-4,4s-4-1.8-4-4s1.8-4,4-4S642.1,224.3,642.1,226.6z M628.6,289c0,2.2-1.8,4-4,4s-4-1.8-4-4s1.8-4,4-4
	S628.6,286.8,628.6,289z M702.2,338c0,2.2-1.8,4-4,4s-4-1.8-4-4s1.8-4,4-4S702.2,335.8,702.2,338z M749.3,374.7c0,2.2-1.8,4-4,4
	s-4-1.8-4-4s1.8-4,4-4S749.3,372.5,749.3,374.7z M604,399.9c0,2.2-1.8,4-4,4s-4-1.8-4-4s1.8-4,4-4S604,397.7,604,399.9z
	 M607.7,377.3c0,2.2-1.8,4-4,4s-4-1.8-4-4s1.8-4,4-4S607.7,375.1,607.7,377.3z M743.9,320.9c0,2.2-1.8,4-4,4s-4-1.8-4-4s1.8-4,4-4
	S743.9,318.7,743.9,320.9z M751.4,276.7c0,2.2-1.8,4-4,4s-4-1.8-4-4s1.8-4,4-4S751.4,274.5,751.4,276.7z M754.7,346.7
	c0,2.2-1.8,4-4,4s-4-1.8-4-4s1.8-4,4-4S754.7,344.5,754.7,346.7z M738.3,350.3c0,2.2-1.8,4-4,4s-4-1.8-4-4s1.8-4,4-4
	S738.3,348.1,738.3,350.3z M714.3,361.6c0,2.2-1.8,4-4,4s-4-1.8-4-4s1.8-4,4-4S714.3,359.4,714.3,361.6z M702.2,351c0,2.2-1.8,4-4,4
	s-4-1.8-4-4s1.8-4,4-4S702.2,348.8,702.2,351z M737.2,308.2c0,2.2-1.8,4-4,4s-4-1.8-4-4s1.8-4,4-4S737.2,306,737.2,308.2z
	 M732.8,295.9c0,2.2-1.8,4-4,4s-4-1.8-4-4s1.8-4,4-4S732.8,293.7,732.8,295.9z M731.8,386.6c0,2.2-1.8,4-4,4s-4-1.8-4-4s1.8-4,4-4
	S731.8,384.4,731.8,386.6z M742.7,395.4c0,2.2-1.8,4-4,4s-4-1.8-4-4s1.8-4,4-4S742.7,393.2,742.7,395.4z M519.8,227.4
	c0,2.2-1.8,4-4,4s-4-1.8-4-4s1.8-4,4-4S519.8,225.2,519.8,227.4z M507.9,219.2c0,2.2-1.8,4-4,4s-4-1.8-4-4s1.8-4,4-4
	S507.9,217,507.9,219.2z M503.5,294.2c0,2.2-1.8,4-4,4s-4-1.8-4-4s1.8-4,4-4S503.5,292,503.5,294.2z M500.6,319.3c0,2.2-1.8,4-4,4
	s-4-1.8-4-4s1.8-4,4-4S500.6,317.1,500.6,319.3z M522.3,298.2c0,2.2-1.8,4-4,4s-4-1.8-4-4s1.8-4,4-4S522.3,296,522.3,298.2z
	 M554.4,311.7c0,2.2-1.8,4-4,4s-4-1.8-4-4s1.8-4,4-4S554.4,309.5,554.4,311.7z M569.6,342.5c0,2.2-1.8,4-4,4s-4-1.8-4-4s1.8-4,4-4
	C567.8,338.6,569.6,340.3,569.6,342.5z M567.7,381.5c0,2.2-1.8,4-4,4s-4-1.8-4-4s1.8-4,4-4S567.7,379.3,567.7,381.5z M546.8,384.6
	c0,2.2-1.8,4-4,4s-4-1.8-4-4s1.8-4,4-4C545.1,380.6,546.8,382.3,546.8,384.6z M549.5,369.4c0,2.2-1.8,4-4,4s-4-1.8-4-4s1.8-4,4-4
	C547.8,365.4,549.5,367.2,549.5,369.4z M542.8,338.5c0,2.2-1.8,4-4,4s-4-1.8-4-4s1.8-4,4-4C541.1,334.6,542.8,336.3,542.8,338.5z
	 M510.4,189c0,2.2-1.8,4-4,4s-4-1.8-4-4s1.8-4,4-4S510.4,186.8,510.4,189z M549.3,152c0,2.2-1.8,4-4,4s-4-1.8-4-4s1.8-4,4-4
	S549.3,149.8,549.3,152z M545.3,140.5c0,2.2-1.8,4-4,4s-4-1.8-4-4s1.8-4,4-4S545.3,138.3,545.3,140.5z M562.8,136.5c0,2.2-1.8,4-4,4
	s-4-1.8-4-4s1.8-4,4-4C561.1,132.5,562.8,134.3,562.8,136.5z M611.3,138.1c0,2.2-1.8,4-4,4s-4-1.8-4-4s1.8-4,4-4
	C609.6,134.1,611.3,135.9,611.3,138.1z M622.4,151.8c0,2.2-1.8,4-4,4s-4-1.8-4-4s1.8-4,4-4S622.4,149.6,622.4,151.8z M542.4,144.3
	l1.5,3.9 M605.9,165.3l9.8-10.5"/>
<radialGradient id="SVGID_2_" cx="425.7" cy="-217.7" r="0" gradientTransform="matrix(1 0 0 1 0 465)" gradientUnits="userSpaceOnUse">
	<stop  offset="0" style="stop-color:#27AAE1"/>
	<stop  offset="0.1987" style="stop-color:#2AABE1"/>
	<stop  offset="0.3466" style="stop-color:#33AEE1"/>
	<stop  offset="0.4781" style="stop-color:#44B3E2"/>
	<stop  offset="0.6001" style="stop-color:#5ABAE3"/>
	<stop  offset="0.7154" style="stop-color:#78C4E4"/>
	<stop  offset="0.8259" style="stop-color:#9CCFE5"/>
	<stop  offset="0.9305" style="stop-color:#C6DDE7"/>
	<stop  offset="1" style="stop-color:#E6E7E8"/>
</radialGradient>
<path class="domains3" d="M425.7,247.3C425.6,247.3,425.6,247.3,425.7,247.3z"/>
<path class="domains0" d="M467.1,199.9c0,2.2-1.8,4-4,4s-4-1.8-4-4s1.8-4,4-4S467.1,197.7,467.1,199.9z M443.3,428.1c0,2.2-1.8,4-4,4
	s-4-1.8-4-4s1.8-4,4-4C441.6,424.1,443.3,425.9,443.3,428.1z M416.7,417.1c0,2.2-1.8,4-4,4s-4-1.8-4-4s1.8-4,4-4
	S416.7,414.9,416.7,417.1z M434.3,405.7c0,2.2-1.8,4-4,4s-4-1.8-4-4s1.8-4,4-4S434.3,403.4,434.3,405.7z M449.7,348.9
	c0,2.2-1.8,4-4,4s-4-1.8-4-4s1.8-4,4-4C447.9,345,449.7,346.7,449.7,348.9z M425.7,327.9c0,2.2-1.8,4-4,4s-4-1.8-4-4s1.8-4,4-4
	C424,323.9,425.7,325.7,425.7,327.9z M402.5,329.3c0,2.2-1.8,4-4,4s-4-1.8-4-4s1.8-4,4-4S402.5,327.1,402.5,329.3z M388,320.2
	c0,2.2-1.8,4-4,4s-4-1.8-4-4s1.8-4,4-4S388,318,388,320.2z M345,288.4c0,2.2-1.8,4-4,4s-4-1.8-4-4s1.8-4,4-4S345,286.2,345,288.4z
	 M369.2,284.4c0,2.2-1.8,4-4,4s-4-1.8-4-4s1.8-4,4-4C367.5,280.4,369.2,282.2,369.2,284.4z M398.5,288.4c0,2.2-1.8,4-4,4s-4-1.8-4-4
	s1.8-4,4-4S398.5,286.2,398.5,288.4z M409.7,267c0,2.2-1.8,4-4,4s-4-1.8-4-4s1.8-4,4-4S409.7,264.8,409.7,267z M417.1,201.6
	c0,2.2-1.8,4-4,4s-4-1.8-4-4s1.8-4,4-4S417.1,199.4,417.1,201.6z M408.7,227.6c0,2.2-1.8,4-4,4s-4-1.8-4-4s1.8-4,4-4
	S408.7,225.4,408.7,227.6z M388.3,209.7c0,2.2-1.8,4-4,4s-4-1.8-4-4s1.8-4,4-4S388.3,207.5,388.3,209.7z M408.8,165.3
	c0,2.2-1.8,4-4,4s-4-1.8-4-4s1.8-4,4-4S408.8,163.1,408.8,165.3z M405.2,184.4c0,2.2-1.8,4-4,4s-4-1.8-4-4s1.8-4,4-4
	C403.5,180.4,405.2,182.1,405.2,184.4z M430.7,173.2c0,2.2-1.8,4-4,4s-4-1.8-4-4s1.8-4,4-4S430.7,171,430.7,173.2z M430.7,193.4
	c0,2.2-1.8,4-4,4s-4-1.8-4-4s1.8-4,4-4S430.7,191.2,430.7,193.4z M360.4,231c0,2.2-1.8,4-4,4s-4-1.8-4-4s1.8-4,4-4
	S360.4,228.8,360.4,231z M380.2,246.3c0,2.2-1.8,4-4,4s-4-1.8-4-4s1.8-4,4-4S380.2,244.1,380.2,246.3z M420.7,350.6c0,2.2-1.8,4-4,4
	s-4-1.8-4-4s1.8-4,4-4S420.7,348.4,420.7,350.6z M445.7,373.8c0,2.2-1.8,4-4,4s-4-1.8-4-4s1.8-4,4-4
	C443.9,369.9,445.7,371.6,445.7,373.8z M462,182c0,2.2-1.8,4-4,4s-4-1.8-4-4s1.8-4,4-4S462,179.7,462,182z M492.5,176.5
	c0,2.2-1.8,4-4,4s-4-1.8-4-4s1.8-4,4-4S492.5,174.3,492.5,176.5z M506.4,148.1c0,2.2-1.8,4-4,4s-4-1.8-4-4s1.8-4,4-4
	S506.4,145.9,506.4,148.1z M516.4,136.3c0,2.2-1.8,4-4,4s-4-1.8-4-4s1.8-4,4-4S516.4,134.1,516.4,136.3z M508.3,127.6
	c0,2.2-1.8,4-4,4s-4-1.8-4-4s1.8-4,4-4S508.3,125.3,508.3,127.6z M477.8,129.7c0,2.2-1.8,4-4,4s-4-1.8-4-4s1.8-4,4-4
	S477.8,127.5,477.8,129.7z M448,140.3c0,2.2-1.8,4-4,4s-4-1.8-4-4s1.8-4,4-4S448,138.1,448,140.3z M438.6,151.5c0,2.2-1.8,4-4,4
	s-4-1.8-4-4s1.8-4,4-4S438.6,149.2,438.6,151.5z M456,159.3c0,2.2-1.8,4-4,4s-4-1.8-4-4s1.8-4,4-4S456,157.1,456,159.3z
	 M483.3,147.5c0,2.2-1.8,4-4,4s-4-1.8-4-4s1.8-4,4-4S483.3,145.2,483.3,147.5z M462.3,195.9l-2.6-10.3 M460.4,178.8l7.7-8.2
	 M467.1,164.9l-11.4-4 M466.4,197.1l19.5-17.5 M491.1,173.5l5-6.9 M500.1,159.7l1.5-7.6 M498.4,148.1l-15.1-0.6 M504.6,144.8
	l5.1-5.5 M500.4,128.3l-22.7,0.4 M474.9,133.7l3.5,9.8 M470.4,131.6l-22.4,7 M441.6,143.5l-4.3,4.6 M448.7,157.1l-10.6-3.6
	 M476.1,150l-21.2,6.5 M477.8,151.5l-5.2,11.4 M421.2,468l-9.8-20 M412.9,442l22.4-13.9 M435.3,428.1l-19.6-8.4 M415,413.8l12.4-5.4
	 M427.9,402.4l-16.8-19.2 M434.3,404.1l22.3-7.8 M456.6,396.3l-12.4-18.7 M445,371.5l21.1-8.9 M466.5,358.6l-17.1-7.6 M409.8,376.2
	l4.7-22.3 M414.5,353.9l-14.6,1.9 M396.1,350.6l1.7-17.3 M402.5,329.3l15.2-1.4 M424.9,330.4l17.7,16.1 M419.5,353.4l18.7,18.6
	 M394.5,329.3l-7.7-6.2 M382.2,316.2l-3-8 M373.7,304.5l-13.3,0.9 M357.3,301.4l6.1-13.4 M361.2,284.4l-16.3,3.2 M341,284.4l14-49.7
	 M358.6,227.6l23.1-14.9 M387.7,213.7l13.9,11.4 M406.5,224l6.6-18.4 M415.7,204.7l24.8,30.3 M424.9,239.2l-9.2-34.5 M404.7,231.6
	l1,31.4 M403.5,270.3l-7,14.7 M368.2,281.8l22.8,4.7 M359.3,233.7l13.5,10.5 M378.9,243.4l22.8-13.1 M378.8,249.3l23.6,15.5
	 M374.5,250l-9.3,30.4 M384.3,205.7l-0.6-18.1 M387.7,183.6l9.5,0.8 M401.2,180.4l3.6-11.1 M408.8,165.3l13.9,5.9 M426.7,177.2v12.2
	 M553.5,411.3l5.5,4.6 M565.6,414.2l4-7.5 M569.6,399.7l-5.9-14.2 M574.3,398.7l7.6-12.1 M550.4,404.7l-7.6-16.1 M542.8,380.6
	l2.7-7.2 M549.5,371.4l10.2,7.2 M545.5,365.4l18.2-19.3 M538.8,342.6l6.7,22.8 M569.6,344.6l15.4,6.5 M565.6,378l23.4-22.9
	 M583.7,378.6l5.3-23.5 M589,347.1l16.3-18.4 M597.1,323.6l4.3,0.5 M590.6,319.4l-8.4-26 M596.7,310.7l-14.5-17.3 M603,311.2
	l14.7-8.4 M617.4,296.9l-8.7-14 M621.3,286.7l-12.6-3.8 M628.6,289l5.7,0.9 M640.2,294.5l12.1,29.9 M657,325.3l16.2-25.5
	 M678.9,299.4l9.3,12.9 M693.6,318.2l2.3,16.5 M701.2,321l-7.6-2.8 M705.6,319.6l3.7-13.7 M712.3,298.5l11.3-11.6 M724.5,279.8
	l1.3-18.3 M729.2,259.6l4.8,4.1 M738,262.7l3.6-15.1 M741,240.4l-19-39.3 M718.1,194.2l-21-25.3 M691.7,163l-15.6-7.4 M673.2,156.9
	l-5,30.2 M668.7,154.7l-15.2,5.4 M647.2,165.1l-3.1,2.5 M643.7,173.9l20.3,14.8 M637.4,170.6l-5-0.7 M624.4,172.1L616,176
	 M608.8,179.4l-17.9,4.1 M583.5,183.1l-18.1-8 M558.8,175.1l-22.3,20.8 M534.7,202.9l2.5,15.8 M514.6,208.2l0.7,3.3 M516.8,219.5
	l-1,3.9 M525.7,234.5l10.3-8.7 M522.6,241.8v4.6 M518.6,251.2l-7.4,1.7 M511,256.8l1.9,1.9 M539.6,252.7l4.2,2.7 M550.1,255.5
	l5.7-1.6 M561.5,254.5l3,6.8 M570.8,264.5l5.1,0.8 M580.3,269.9l1.6,2.1 M578.3,277.8l-20.1,3.3 M551,280.2l-11.8-8.7 M532.6,268.5
	l-16,2.5 M510.9,275.6l-9.4,15.2 M514.3,275.9l4,18.3 M521.8,300.2l25.2,9.5 M554.4,286.3l-4,21.4 M575.9,293.1l-21.5,16.3
	 M552.4,315.3l10.6,22.6 M548.1,315.7l-7.5,18.9 M534.3,337.9l-14.7-4 M511.1,332l-11.6-10.1 M496.6,315.3l2.9-17.1 M503.1,296
	l11.2,1 M542.3,222.6l36.8-7.1 M587.1,188.8l-4,22.7 M587.1,215.5l47,11.1 M583.1,219.5l-3.2,41.8 M640.9,229.4l26.3,26.1
	 M671.9,257.1l25.5-26.5 M702.9,230.6l19.7,24.6 M717,199.7l-15.1,23.9 M690.6,168.9l-19.9,19.4 M670.4,193.5l25.8,30.9 M664,193.5
	l-23.9,29.1 M640,287.6l25.1-25.1 M668.9,263.7l7,29.2 M672.3,261.7l35.2,37.5 M642.1,291.1l29.8,5.8 M679.9,296.9l26.4,5.1
	 M672.9,259.7l48.9-2.2 M603.7,275.9L585.1,219 M585.9,276l16,4 M718.1,416.5l-2.5-14.5 M718.5,395.2l6.4-5.8 M731,384.3l11.7-6.5
	 M745.3,378.7l-5.4,12.7 M736.9,399l-4.1,8.9 M723.8,418.8l4-3.8 M727.8,407.9l-8.9-7.6 M734.7,395.4l-15.8,4.9 M735.5,393l-4.6-3.8
	 M717.9,346.6l5.4-7.3 M603.7,381.3l-3.7,14.6 M424.9,468.2l12.8-36.4 M409.7,440.4l2-19.4 M412.7,413.1l-1.6-29.9 M441.7,424.9
	l16.3-23.4 M461.6,394.1l8.5-29.7 M397.8,358.6l8.5,18.2 M408.3,264l15.5-18.6 M356.4,227l25.3-39.9"/>
<path id="svg-concept" class="domains4" d="M474.1,360.4c0,2.2-1.8,4-4,4s-4-1.8-4-4s1.8-4,4-4S474.1,358.2,474.1,360.4z M464.1,398.1
	c0,2.2-1.8,4-4,4s-4-1.8-4-4s1.8-4,4-4S464.1,395.9,464.1,398.1z M426.8,471.6c0,2.2-1.8,4-4,4s-4-1.8-4-4s1.8-4,4-4
	S426.8,469.4,426.8,471.6z M413.8,444.4c0,2.2-1.8,4-4,4s-4-1.8-4-4s1.8-4,4-4S413.8,442.2,413.8,444.4z M400.1,354.6
	c0,2.2-1.8,4-4,4s-4-1.8-4-4s1.8-4,4-4S400.1,352.4,400.1,354.6z M195.2,441.4c0,2.2-1.8,4-4,4s-4-1.8-4-4s1.8-4,4-4
	S195.2,439.2,195.2,441.4z M215.6,196.1c0,2.2-1.8,4-4,4s-4-1.8-4-4s1.8-4,4-4S215.6,193.9,215.6,196.1z M29.1,142.1
	c0,2.2-1.8,4-4,4s-4-1.8-4-4s1.8-4,4-4S29.1,139.8,29.1,142.1z M412.7,380c0,2.2-1.8,4-4,4s-4-1.8-4-4s1.8-4,4-4
	S412.7,377.8,412.7,380z M445.8,238.7c0,2.2-1.8,4-4,4s-4-1.8-4-4s1.8-4,4-4C444,234.8,445.8,236.5,445.8,238.7z M387.7,183.6
	c0,2.2-1.8,4-4,4s-4-1.8-4-4s1.8-4,4-4S387.7,181.4,387.7,183.6z M430.7,242.7c0,2.2-1.8,4-4,4s-4-1.8-4-4s1.8-4,4-4
	C428.9,238.8,430.7,240.5,430.7,242.7z M254.6,79.8c0,2.2-1.8,4-4,4s-4-1.8-4-4s1.8-4,4-4C252.8,75.9,254.6,77.6,254.6,79.8z
	 M381.7,304.5c0,2.2-1.8,4-4,4s-4-1.8-4-4s1.8-4,4-4S381.7,302.3,381.7,304.5z M61.1,391c0,2.2-1.8,4-4,4s-4-1.8-4-4s1.8-4,4-4
	S61.1,388.8,61.1,391z M360.4,305.4c0,2.2-1.8,4-4,4s-4-1.8-4-4s1.8-4,4-4S360.4,303.2,360.4,305.4z M502.4,163.3c0,2.2-1.8,4-4,4
	s-4-1.8-4-4s1.8-4,4-4S502.4,161.1,502.4,163.3z M474.4,167.3c0,2.2-1.8,4-4,4s-4-1.8-4-4s1.8-4,4-4S474.4,165.1,474.4,167.3z
	 M576.3,402.7c0,2.2-1.8,4-4,4s-4-1.8-4-4s1.8-4,4-4S576.3,400.5,576.3,402.7z M540.6,268.5c0,2.2-1.8,4-4,4s-4-1.8-4-4s1.8-4,4-4
	S540.6,266.3,540.6,268.5z M519.1,333.8c0,2.2-1.8,4-4,4s-4-1.8-4-4s1.8-4,4-4S519.1,331.6,519.1,333.8z M511.6,254.7
	c0,2.2-1.8,4-4,4s-4-1.8-4-4s1.8-4,4-4S511.6,252.4,511.6,254.7L511.6,254.7z M520.8,259.6c0,2.2-1.8,4-4,4s-4-1.8-4-4s1.8-4,4-4
	S520.8,257.4,520.8,259.6z M526.6,250.4c0,2.2-1.8,4-4,4s-4-1.8-4-4s1.8-4,4-4S526.6,248.2,526.6,250.4z M527.6,238c0,2.2-1.8,4-4,4
	s-4-1.8-4-4s1.8-4,4-4C525.9,234,527.6,235.8,527.6,238z M526.4,249.2l6.2-0.1 M724.2,420.5c0,2.2-1.8,4-4,4s-4-1.8-4-4s1.8-4,4-4
	S724.2,418.3,724.2,420.5z M734.3,411.9c0,2.2-1.8,4-4,4s-4-1.8-4-4s1.8-4,4-4S734.3,409.7,734.3,411.9z M719.6,398c0,2.2-1.8,4-4,4
	s-4-1.8-4-4s1.8-4,4-4S719.6,395.8,719.6,398z M562.9,251.5c0,2.2-1.8,4-4,4s-4-1.8-4-4s1.8-4,4-4S562.9,249.2,562.9,251.5z
	 M658.4,328.4c0,2.2-1.8,4-4,4s-4-1.8-4-4s1.8-4,4-4C656.7,324.4,658.4,326.2,658.4,328.4z M609.9,280c0,2.2-1.8,4-4,4s-4-1.8-4-4
	s1.8-4,4-4C608.2,276,609.9,277.8,609.9,280z M720.5,350.3c0,2.2-1.8,4-4,4s-4-1.8-4-4s1.8-4,4-4S720.5,348.1,720.5,350.3z
	 M728.9,335.6c0,2.2-1.8,4-4,4s-4-1.8-4-4s1.8-4,4-4S728.9,333.4,728.9,335.6z M520.8,215.5c0,2.2-1.8,4-4,4s-4-1.8-4-4s1.8-4,4-4
	S520.8,213.3,520.8,215.5z M517.7,204.3c0,2.2-1.8,4-4,4s-4-1.8-4-4s1.8-4,4-4S517.7,202.1,517.7,204.3z M724.3,197.5
	c0,2.2-1.8,4-4,4s-4-1.8-4-4s1.8-4,4-4S724.3,195.3,724.3,197.5z M862.9,289c0,2.2-1.8,4-4,4s-4-1.8-4-4s1.8-4,4-4
	S862.9,286.8,862.9,289z M954,513c0,2.2-1.8,4-4,4s-4-1.8-4-4s1.8-4,4-4S954,510.8,954,513z"/>
<path class="domains0" d="M959,445c-1.7,0-3-1.3-3-3s1.3-3,3-3s3,1.3,3,3S960.6,445,959,445z M1003,592.6c-1.7,0-3-1.3-3-3s1.3-3,3-3
	s3,1.3,3,3S1004.6,592.6,1003,592.6z M1027.9,534.6c-1.7,0-3-1.3-3-3s1.3-3,3-3s3,1.3,3,3S1029.6,534.6,1027.9,534.6z M1068.2,583.6
	c-1.7-0.1-2.9-1.6-2.8-3.2c0.1-1.7,1.6-2.9,3.2-2.7c1.7,0.1,2.9,1.6,2.7,3.2C1071.3,582.5,1069.8,583.7,1068.2,583.6L1068.2,583.6z
	 M1009,237.6c-1.7,0-3-1.3-3-3s1.3-3,3-3s3,1.3,3,3C1012,236.2,1010.7,237.6,1009,237.6z M1068.3,221.6c-1.7,0-3-1.3-3-3s1.3-3,3-3
	s3,1.3,3,3C1071.3,220.2,1070,221.6,1068.3,221.6z M1046.5,325.8c-1.7,0-3-1.3-3-3s1.3-3,3-3s3,1.3,3,3
	C1049.5,324.4,1048.2,325.8,1046.5,325.8z M1064.5,474.4c-1.7,0-3-1.3-3-3s1.3-3,3-3s3,1.3,3,3S1066.1,474.4,1064.5,474.4z
	 M1046.6,410.9c-1.7,0-3-1.3-3-3s1.3-3,3-3s3,1.3,3,3S1048.3,410.9,1046.6,410.9z"/>
<path id="svg-concept" class="domains4" d="M991,377c0,2.2-1.8,4-4,4s-4-1.8-4-4s1.8-4,4-4S991,374.8,991,377z M1014,84.4
	c0,2.2-1.8,4-4,4s-4-1.8-4-4s1.8-4,4-4S1014,82.2,1014,84.4z M671.2,191.1c0,2.2-1.8,4-4,4s-4-1.8-4-4s1.8-4,4-4
	S671.2,188.9,671.2,191.1z M999,158.8c0,2.2-1.8,4-4,4s-4-1.8-4-4s1.8-4,4-4S999,156.6,999,158.8z M936,108c0,2.2-1.8,4-4,4
	s-4-1.8-4-4s1.8-4,4-4S936,105.8,936,108z M607.3,168.4c0,2.2-1.8,4-4,4s-4-1.8-4-4s1.8-4,4-4C605.6,164.4,607.3,166.2,607.3,168.4z
	 M661.5,140.5c0,2.2-1.8,4-4,4s-4-1.8-4-4s1.8-4,4-4S661.5,138.3,661.5,140.5z"/>
<path class="domains5" d="M518.6,538.7c-33.3,24.2-64.1,33-86.8,21.4c-54.7-27.8-41.7-163,29-302s172.3-229,226.9-201.2
	c26.8,13.6,37.3,53,32.8,106 M763.3,385.4c18.8,56.1,16.4,104-11.5,129.9c-25.7,23.9-68.4,24.7-117.6,6.9"/>
<path class="domains5" d="M348.5,203.9c-9.6-44-4-80.7,19.2-102.3c54.2-50.3,184.1,1.5,290.2,115.8c51.4,55.4,87.8,115.3,105.5,168"/>
<path class="domains5" d="M775,305.3c41.1,26.8,63.4,53.9,57.6,75.7c-12.2,45.9-144.2,50.6-294.9,10.6S274.7,281.9,286.9,236
	c4.5-17,28.2-34.4,61.6-32.1"/>
<circle id="svg-ico" class="domains6" cx="772.6" cy="476.1" r="6"/>
<path id="svg-ico" class="domains6" d="M480.4,233.6c0,3.3-2.7,6-6,6s-6-2.7-6-6s2.7-6,6-6C477.7,227.7,480.4,230.3,480.4,233.6z"/>
<circle id="svg-ico" class="domains6" cx="288.7" cy="257.1" r="6"/>
</svg>
