<?xml version="1.0" encoding="utf-8"?>
<!-- Generator: Adobe Illustrator 24.3.0, SVG Export Plug-In . SVG Version: 6.00 Build 0)  -->
<svg version="1.1" id="Layer_1" xmlns="http://www.w3.org/2000/svg" xmlns:xlink="http://www.w3.org/1999/xlink" x="0px" y="0px"
	 viewBox="0 0 437.8 437.6" style="enable-background:new 0 0 437.8 437.6;" xml:space="preserve">
<style type="text/css">
	.emailsync0{fill:none;}
	.emailsync1{fill:none;stroke:#EE5586;stroke-width:3;stroke-linecap:round;stroke-linejoin:round;stroke-miterlimit:10;}
	.emailsync2{fill:none;stroke:#808080;stroke-linecap:round;stroke-linejoin:round;stroke-miterlimit:10;}
	.emailsync3{fill:#EE5586;}
	.emailsync4{fill:none;stroke:#EE5586;stroke-width:2;stroke-linecap:round;stroke-linejoin:round;stroke-miterlimit:10;}
	.emailsync5{fill-rule:evenodd;clip-rule:evenodd;fill:none;stroke:#808080;stroke-linecap:round;stroke-linejoin:round;stroke-miterlimit:10;}
	.emailsync6{fill-rule:evenodd;clip-rule:evenodd;fill:none;stroke:#EE5586;stroke-width:2;stroke-linecap:round;stroke-linejoin:round;stroke-miterlimit:10;}
</style>
<circle class="emailsync0" cx="218.4" cy="217.8" r="215.1"/>
<g>
	<path id="svg-concept" class="emailsync1" d="M219.1,3.4C124.1,3.1,37,66.5,11.3,162.7c-30.6,114.5,37.4,232.2,151.9,262.9
		c114.5,30.6,232.2-37.4,262.9-151.9"/>
	
		<animateTransform  accumulate="none" additive="replace" attributeName="transform" calcMode="linear" dur="5s" fill="remove" from="0 218 220" repeatCount="indefinite" restart="always" to="-360 220 218" type="rotate">
		</animateTransform>
</g>
<path class="emailsync2" d="M157.5,296.7H67.7c-14.3,0-14.5-6.9-14.5-6.9s0-5.7,0-5.7c0-1,0.8-1.9,1.8-1.9h31.2 M307.7,208.4v-73.3
	c0-4.2-3.3-7.6-7.4-7.6H93.6c-4.1,0-7.4,3.4-7.4,7.6v147.1h71.3 M157.5,289.8H53.2"/>
<path id="svg-ico" class="emailsync3" d="M117.9,151.9c0,1.5-1.1,2.6-2.6,2.6c-1.5,0-2.4-1.1-2.4-2.6s1.1-2.4,2.4-2.4
	C116.8,149.4,117.9,150.6,117.9,151.9z"/>
<path class="emailsync2" d="M124.4,151.9c0,0.9-0.7,1.6-1.6,1.6s-1.5-0.7-1.5-1.6c0-0.9,0.7-1.5,1.5-1.5
	C123.7,150.4,124.4,151.1,124.4,151.9z M131.7,151.9c0,0.9-0.7,1.6-1.6,1.6c-0.9,0-1.5-0.7-1.5-1.6c0-0.9,0.7-1.5,1.5-1.5
	C131,150.4,131.7,151.1,131.7,151.9z M96.1,159.2h200.5 M213,328.7l132.6-0.7c5.5,0,9.9-4.4,9.9-9.9v-99.3c0-5.5-4.4-9.9-9.9-9.9
	H189.8c-5.5,0-9.9,4.4-9.9,9.9v35.5"/>
<path id="svg-concept" class="emailsync4" d="M206.9,253.5v-31.6h135.4V315H213.7"/>
<g>
	<path class="emailsync5" d="M208.1,254.3h-45.7c-2.7,0-4.9,2.2-4.9,4.9v84.9c0,2.7,2.2,4.9,4.9,4.9h45.7c2.7,0,4.9-2.2,4.9-4.9v-84.9
		C213,256.5,210.8,254.3,208.1,254.3L208.1,254.3z"/>
	<path id="svg-concept" class="emailsync6" d="M165.1,264.1h40.2v68.6h-40.2V264.1z"/>
	<path class="emailsync2" d="M178.3,274.1l-2.9,3 M190.2,274.1l-16.3,16.3"/>
</g>
<g>
	<path class="emailsync2" d="M218.7,411.1C303.9,411.2,382,354.3,405,268c27.5-102.9-33.6-208.6-136.5-236.2
		C165.6,4.3,59.9,65.4,32.3,168.3"/>
	
		<animateTransform  accumulate="none" additive="replace" attributeName="transform" calcMode="linear" dur="5s" fill="remove" from="0 218 220" repeatCount="indefinite" restart="always" to="360 220 218" type="rotate">
		</animateTransform>
</g>
<path id="svg-concept" class="emailsync4" d="M156.1,273.2H95.7l0.4-129.6h200.5v64"/>
</svg>
