<?xml version="1.0" encoding="utf-8"?>
<!-- Generator: Adobe Illustrator 24.3.0, SVG Export Plug-In . SVG Version: 6.00 Build 0)  -->
<svg version="1.1" id="Layer_1" xmlns="http://www.w3.org/2000/svg" xmlns:xlink="http://www.w3.org/1999/xlink" x="0px" y="0px"
	 viewBox="0 0 524.8 419.6" style="enable-background:new 0 0 524.8 419.6;" xml:space="preserve">
<style type="text/css">
	.emailcalendar0{fill:none;stroke:#EE5586;stroke-width:3;stroke-linecap:round;stroke-linejoin:round;stroke-miterlimit:10;}
	.emailcalendar1{fill:#FFFFFF;stroke:#808080;stroke-linecap:round;stroke-linejoin:round;stroke-miterlimit:10;}
	.emailcalendar2{fill:none;stroke:#808080;stroke-linecap:round;stroke-linejoin:round;stroke-miterlimit:10;}
	.emailcalendar3{fill:none;stroke:#EE5586;stroke-width:2;stroke-linecap:round;stroke-linejoin:round;stroke-miterlimit:10;}
	.emailcalendar4{fill:#EE5586;}
</style>
<path id="svg-concept" class="emailcalendar0" d="M411,290.1V399c0,7.5-6,13.5-13.5,13.5H17.2c-7.5,0-13.5-6-13.5-13.5V18.7
	c0-7.5,6-13.5,13.5-13.5c0,0,352,0,352,0h28.3c7.5,0,13.5,6.1,13.5,13.5v56.1"/>
<path class="emailcalendar1" d="M3.7,276h286.1 M2.5,208.8h287.3 M2.5,343.2h407.3 M3.7,140.2h286.1 M139.6,140.7v271.8 M275.3,140.7v271.8
	 M91.3,221.8L50.1,263 M230.4,287.5l-41.2,41.2"/>
<g>
	<path class="emailcalendar2" d="M482.8,78h21v209.8h-188V78h135.8 M443.5,211.1h-69.6 M419.4,238.6h-45.5 M464.8,183.6h-90.9"/>
	<path id="svg-concept" class="emailcalendar3" d="M465.7,156.1h-91.8 M419.8,128.6h-45.9 M451.6,78l0,46.7l15.6-12.5l15.6,12.5V77.9
		c0,0,1.9-9.4-9.4-9.4H459h-2.7c0,0-14-0.4-14,9.4 M357.8,128.6c0,3.1-2.5,5.7-5.7,5.7c-3.1,0-5.7-2.5-5.7-5.7
		c0-3.1,2.5-5.7,5.7-5.7S357.8,125.4,357.8,128.6z M357.8,155.9c0,3.1-2.5,5.7-5.7,5.7c-3.1,0-5.7-2.5-5.7-5.7s2.5-5.7,5.7-5.7
		C355.3,150.3,357.8,152.8,357.8,155.9z"/>
	<path class="emailcalendar2" d="M357.8,183.3c0,3.1-2.5,5.7-5.7,5.7c-3.1,0-5.7-2.5-5.7-5.7s2.5-5.7,5.7-5.7S357.8,180.2,357.8,183.3z
		 M357.8,210.7c0,3.1-2.5,5.7-5.7,5.7c-3.1,0-5.7-2.5-5.7-5.7s2.5-5.7,5.7-5.7S357.8,207.5,357.8,210.7z M357.8,238
		c0,3.1-2.5,5.7-5.7,5.7c-3.1,0-5.7-2.5-5.7-5.7s2.5-5.7,5.7-5.7C355.3,232.4,357.8,234.9,357.8,238z"/>
	
		<animateMotion  accumulate="none" additive="replace" begin="0s" calcMode="paced" dur="3s" fill="remove" path="M0, 0 -15 0 0 0" repeatCount="indefinite" restart="always">
		</animateMotion>
</g>
<g>
	<circle id="svg-ico" class="emailcalendar4" cx="250.9" cy="163.6" r="6"/>
	
		<animate  accumulate="none" additive="replace" attributeName="opacity" calcMode="linear" dur="1s" fill="remove" repeatCount="indefinite" restart="always" values="0;1;0">
		</animate>
</g>
<g>
	<circle id="svg-ico" class="emailcalendar4" cx="115.7" cy="299.9" r="6"/>
	
		<animate  accumulate="none" additive="replace" attributeName="opacity" calcMode="linear" dur="2s" fill="remove" repeatCount="indefinite" restart="always" values="0;1;0">
		</animate>
</g>
<g>
	<circle id="svg-ico" class="emailcalendar4" cx="386.8" cy="366.9" r="6"/>
	
		<animate  accumulate="none" additive="replace" attributeName="opacity" calcMode="linear" dur="0.5s" fill="remove" repeatCount="indefinite" restart="always" values="0;1;0">
		</animate>
</g>
</svg>
