<?xml version="1.0" encoding="utf-8"?>
<!-- Generator: Adobe Illustrator 24.3.0, SVG Export Plug-In . SVG Version: 6.00 Build 0)  -->
<svg version="1.1" id="Layer_1" xmlns="http://www.w3.org/2000/svg" xmlns:xlink="http://www.w3.org/1999/xlink" x="0px" y="0px"
	 viewBox="0 0 603.8 423.8" style="enable-background:new 0 0 603.8 423.8;" xml:space="preserve">
<style type="text/css">
	.gitpull0{fill:none;stroke:#808080;stroke-linecap:round;stroke-linejoin:round;stroke-miterlimit:10;}
	.gitpull1{fill:#EE5586;}
	.gitpull2{fill:none;stroke:#EE5586;stroke-width:2;stroke-linecap:round;stroke-linejoin:round;stroke-miterlimit:10;}
	.gitpull3{fill:none;stroke:#808080;stroke-miterlimit:10;}
	.gitpull4{fill:none;stroke:#808080;stroke-linecap:round;stroke-miterlimit:10;}
</style>
<path class="gitpull0" d="M257.6,272.4H117.7 M117.5,346.1V146.4 M257.6,346.1H117.5"/>
<g>
	<path id="svg-ico" class="gitpull1" d="M123.5,153.4c0,3.3-2.7,6-6,6s-6-2.7-6-6c0-3.3,2.7-6,6-6S123.5,150,123.5,153.4z"/>
	
		<animateMotion  accumulate="none" additive="replace" begin="0s" calcMode="paced" dur="3s" fill="remove" path="M0, 0 0 193 140 193" repeatCount="indefinite" restart="always">
		</animateMotion>
</g>
<g>
	<path id="svg-ico" class="gitpull1" d="M255.8,272.4c0,3.3-2.7,6-6,6s-6-2.7-6-6s2.7-6,6-6S255.8,269.1,255.8,272.4z"/>
	
		<animateMotion  accumulate="none" additive="replace" begin="1s" calcMode="paced" dur="2s" fill="remove" path="M0, 0 -132 0 -132 -130 130" repeatCount="indefinite" restart="always">
		</animateMotion>
</g>
<circle id="svg-concept" class="gitpull2" cx="428.5" cy="408.9" r="10.5"/>
<path id="svg-concept" class="gitpull2" d="M428.5,379.6v18.1 M345.1,408.9h72.5 M439.4,408.9h72.5"/>
<path class="gitpull0" d="M599.4,216.5c0,5.5-4.1,10-9.1,10H266.7c-5,0-9.1-4.5-9.1-10V181c0-5.5,4.1-10,9.1-10h323.5c5,0,9.1,4.5,9.1,10
	v35.5H599.4z"/>
<path class="gitpull0" d="M276.4,171v55.2 M580.6,171v55.5"/>
<path id="svg-concept" class="gitpull2" d="M556.3,198.7c0,6.6-5.3,11.9-11.9,11.9c-6.5,0-11.8-5.3-11.8-11.9s5.3-11.8,11.8-11.8
	C551,186.9,556.3,192.2,556.3,198.7z"/>
<path id="svg-concept" class="gitpull2" d="M548.9,198.7c0,2.4-2,4.4-4.4,4.4s-4.4-2-4.4-4.4s2-4.4,4.4-4.4S548.9,196.3,548.9,198.7z
	 M556.3,198.8h-7.4 M540.1,198.8h-7.5"/>
<path class="gitpull0" d="M599.4,290.1c0,5.5-4.1,10-9.1,10H266.7c-5,0-9.1-4.5-9.1-10v-35.4c0-5.5,4.1-10,9.1-10h323.5
	c5,0,9.1,4.5,9.1,10v35.4H599.4z"/>
<path class="gitpull0" d="M276.4,244.7v55.2 M580.6,244.7v55.4"/>
<path id="svg-concept" class="gitpull2" d="M556.3,272.4c0,6.6-5.3,11.9-11.9,11.9c-6.5,0-11.8-5.3-11.8-11.9s5.3-11.8,11.8-11.8
	C551,260.5,556.3,265.8,556.3,272.4z"/>
<path id="svg-concept" class="gitpull2" d="M548.9,272.4c0,2.4-2,4.4-4.4,4.4s-4.4-2-4.4-4.4s2-4.4,4.4-4.4S548.9,270,548.9,272.4z
	 M556.3,272.4h-7.4 M540.1,272.4h-7.5"/>
<path class="gitpull0" d="M599.4,363.8c0,5.5-4.1,10-9.1,10H266.7c-5,0-9.1-4.5-9.1-10v-35.4c0-5.5,4.1-10,9.1-10h323.5
	c5,0,9.1,4.5,9.1,10v35.4H599.4z"/>
<path class="gitpull0" d="M276.4,318.3v55.2 M580.6,318.3v55.5"/>
<path id="svg-concept" class="gitpull2" d="M556.3,346c0,6.6-5.3,11.9-11.9,11.9c-6.5,0-11.8-5.3-11.8-11.9s5.3-11.8,11.8-11.8
	C551,334.2,556.3,339.5,556.3,346z"/>
<path id="svg-concept" class="gitpull2" d="M548.9,346c0,2.4-2,4.4-4.4,4.4s-4.4-2-4.4-4.4s2-4.4,4.4-4.4S548.9,343.6,548.9,346z
	 M556.3,346.1h-7.4 M540.1,346.1h-7.5"/>
<g>
	<path class="gitpull3" d="M2.2,136.2c0-0.8,0.7-1.5,1.5-1.5h228.1c0.8,0,1.5,0.7,1.5,1.5v4.6c0,0-0.1,5.6-11.7,5.6H13.9
		c-11.6,0-11.7-5.6-11.7-5.6S2.2,136.2,2.2,136.2z M207.9,127.3V8.4c0-3.4-2.7-6.1-6-6.1H34.8c-3.3,0-6,2.7-6,6.1v118.9H207.9
		L207.9,127.3z"/>
	<path class="gitpull3" d="M233.3,140.8H2.2 M117.7,134.7h-17.6c0,0,0.3,2.5,3,2.5h29.2c2.8,0,3-2.5,3-2.5S117.7,134.7,117.7,134.7z"/>
	<path class="gitpull3" d="M36.9,15.3H199V120H36.9V15.3z"/>
	<path id="svg-ico" class="gitpull1" d="M54.4,22c0,1.1-0.9,2-2,2s-2-0.9-2-2c0-1.1,0.9-2,2-2C53.6,20.2,54.4,20.9,54.4,22z"/>
	<path class="gitpull3" d="M59.7,22c0,0.7-0.6,1.3-1.3,1.3s-1.3-0.6-1.3-1.3c0-0.7,0.6-1.3,1.3-1.3C59.1,20.8,59.7,21.3,59.7,22z
		 M65.7,22c0,0.7-0.6,1.3-1.3,1.3c-0.7,0-1.3-0.6-1.3-1.3c0-0.7,0.6-1.3,1.3-1.3C65.1,20.8,65.7,21.3,65.7,22z M36.9,27.9h43.9
		l2.7-5.6h31.8l2.5,5.6H199 M42.3,32.7l-1.7,1.8l1.7,1.7 M45.9,34.5h-5.3 M52.8,36.2l1.7-1.7l-1.7-1.8 M49.2,34.5h5.3 M61.6,32.7
		c-1.1,0-2,0.9-2,2s0.9,2,2,2s2-0.9,2-2"/>
	<path class="gitpull3" d="M61.6,33.2v-1.1l1.1,0.6L61.6,33.2z"/>
	<circle id="svg-ico" class="gitpull1" cx="100.4" cy="108.1" r="4.5"/>
	<path class="gitpull4" d="M100.4,55.6l-9,6 M91.4,61.6v32.5 M100.4,60.6l8.4,5 M108.8,65.6v33.6"/>
	<path class="gitpull0" d="M91.4,98.5c-1.2,0-2.2-1-2.2-2.2s1-2.2,2.2-2.2s2.2,1,2.2,2.2S92.6,98.5,91.4,98.5z"/>
	<circle class="gitpull0" cx="108.8" cy="101.3" r="2.2"/>
	<path class="gitpull4" d="M91.8,74.8l8.4,4.9"/>
	<path id="svg-concept" class="gitpull2" d="M100.4,106V42.1"/>
	<path class="gitpull4" d="M125.4,61.6h58.1 M125.4,70.8h48.4 M125.4,94h58.1 M125.4,82.8h58.1 M125.4,103.1h48.4 M50.1,61.6h22.8
		 M50.1,70.8h19 M50.1,94h22.8 M50.1,103.1h19"/>
	<path class="gitpull3" d="M36.9,40.6H199"/>
</g>
</svg>
