<?xml version="1.0" encoding="utf-8"?>
<!-- Generator: Adobe Illustrator 24.3.0, SVG Export Plug-In . SVG Version: 6.00 Build 0)  -->
<svg version="1.1" id="Layer_1" xmlns="http://www.w3.org/2000/svg" xmlns:xlink="http://www.w3.org/1999/xlink" x="0px" y="0px"
	 viewBox="0 0 1099.5 337.7" style="enable-background:new 0 0 1099.5 337.7;" xml:space="preserve">
<style type="text/css">
	.hardware0{fill:#FFFFFF;stroke:#EE5586;stroke-width:3;stroke-linecap:round;stroke-linejoin:round;stroke-miterlimit:10;}
	.hardware1{fill:none;}
	.hardware2{fill:none;stroke:#808080;stroke-linecap:round;stroke-linejoin:round;stroke-miterlimit:10;stroke-opacity:0.35;}
	.hardware3{fill:none;stroke:#808080;stroke-linecap:round;stroke-linejoin:round;stroke-miterlimit:10;}
	.hardware4{fill:none;stroke:#EE5586;stroke-width:3;stroke-linecap:round;stroke-linejoin:round;stroke-miterlimit:10;}
	.hardware5{fill:none;stroke:#EE5586;stroke-linecap:round;stroke-linejoin:round;stroke-miterlimit:10;}
	.hardware6{fill:none;stroke:#808080;stroke-linecap:round;stroke-linejoin:round;stroke-miterlimit:10;}
</style>
<path id="svg-concept" class="hardware0" d="M189.4,167.8H147 M168.5,146.8v42.4 M379.2,167.8h-42.4 M358.3,146.8v42.4 M758.4,167.8H716
	 M737.5,146.8v42.4 M948.1,167.8h-42.4 M927.1,146.8v42.4"/>
<path id="svg-concept" class="hardware0" d="M568.8,167.8h-42.4 M547.8,146.8v42.4"/>
<path id="svg-concept" class="hardware1" d="M96.2,262.5l72.3-72.3l72.3,72.3l-72.3,72.3L96.2,262.5z"/>
<path class="hardware2" d="M210.1,265.1c-1.5,1.5-3.9,1.5-5.4,0s-1.5-3.9,0-5.4s3.9-1.5,5.4,0S211.6,263.5,210.1,265.1z M171.3,304
	c-1.5,1.5-3.9,1.5-5.4,0s-1.5-3.9,0-5.4s3.9-1.5,5.4,0C172.7,300.2,172.7,302.5,171.3,304z"/>
<path class="hardware3" d="M112.8,262.6l55.6-55.6l55.6,55.6l-55.6,55.6L112.8,262.6z"/>
<path class="hardware2" d="M132.3,265.2c-1.5,1.5-3.9,1.5-5.4,0c-1.5-1.5-1.5-3.9,0-5.4c1.5-1.5,3.9-1.5,5.4,0
	C133.9,261.2,133.9,263.7,132.3,265.2z M171.3,226.2c-1.5,1.5-3.9,1.5-5.4,0s-1.5-3.9,0-5.4s3.9-1.5,5.4,0
	C172.8,222.2,172.8,224.7,171.3,226.2z"/>
<g>
	<path class="hardware3" d="M146.3,262.4l22.2-22.2l22.2,22.2l-22.2,22.2L146.3,262.4z"/>
	<path class="hardware3" d="M153.6,263.4c-0.6,0.6-1.5,0.6-2,0c-0.6-0.6-0.6-1.5,0-2c0.6-0.6,1.5-0.6,2,0S154,262.9,153.6,263.4z
		 M157.6,259.4c-0.6,0.6-1.5,0.6-2,0c-0.6-0.6-0.6-1.5,0-2c0.6-0.6,1.5-0.6,2,0S158.2,258.9,157.6,259.4z M161.6,255.4
		c-0.6,0.6-1.5,0.6-2,0c-0.6-0.6-0.6-1.5,0-2c0.6-0.6,1.5-0.6,2,0C162.2,254,162.2,254.9,161.6,255.4z M165.6,251.3
		c-0.6,0.6-1.5,0.6-2,0c-0.6-0.6-0.6-1.5,0-2c0.6-0.6,1.5-0.6,2,0C166.2,250,166.2,250.9,165.6,251.3z M169.6,247.3
		c-0.6,0.6-1.5,0.6-2,0c-0.6-0.6-0.6-1.5,0-2c0.6-0.6,1.5-0.6,2,0C170.2,246,170.2,246.7,169.6,247.3z M157.6,267.5
		c-0.6,0.6-1.5,0.6-2,0c-0.6-0.6-0.6-1.5,0-2c0.6-0.6,1.5-0.6,2,0C158.2,266,158.2,266.9,157.6,267.5z M161.6,263.5
		c-0.6,0.6-1.5,0.6-2,0c-0.6-0.6-0.6-1.5,0-2c0.6-0.6,1.5-0.6,2,0C162.2,262,162.2,262.9,161.6,263.5z M165.6,259.4
		c-0.6,0.6-1.5,0.6-2,0c-0.6-0.6-0.6-1.5,0-2c0.6-0.6,1.5-0.6,2,0C166.2,258,166.2,258.9,165.6,259.4z M169.6,255.4
		c-0.6,0.6-1.5,0.6-2,0c-0.6-0.6-0.6-1.5,0-2c0.6-0.6,1.5-0.6,2,0C170.2,254,170.2,254.9,169.6,255.4z M173.6,251.3
		c-0.6,0.6-1.5,0.6-2,0c-0.6-0.6-0.6-1.5,0-2c0.6-0.6,1.5-0.6,2,0C174.2,250,174.2,250.9,173.6,251.3z M161.6,271.5
		c-0.6,0.6-1.5,0.6-2,0c-0.6-0.6-0.6-1.5,0-2c0.6-0.6,1.5-0.6,2,0C162.2,270,162.2,270.9,161.6,271.5z M165.6,267.5
		c-0.6,0.6-1.5,0.6-2,0c-0.6-0.6-0.6-1.5,0-2c0.6-0.6,1.5-0.6,2,0C166.2,266,166.2,266.9,165.6,267.5z M169.6,263.5
		c-0.6,0.6-1.5,0.6-2,0c-0.6-0.6-0.6-1.5,0-2c0.6-0.6,1.5-0.6,2,0C170.2,262,170.2,262.9,169.6,263.5z M173.6,259.5
		c-0.6,0.6-1.5,0.6-2,0c-0.6-0.6-0.6-1.5,0-2c0.6-0.6,1.5-0.6,2,0C174.2,258,174.2,258.9,173.6,259.5z M177.6,255.4
		c-0.6,0.6-1.5,0.6-2,0c-0.6-0.6-0.6-1.5,0-2c0.6-0.6,1.5-0.6,2,0C178.2,254,178.2,254.9,177.6,255.4z M165.6,275.5
		c-0.6,0.6-1.5,0.6-2,0c-0.6-0.6-0.6-1.5,0-2c0.6-0.6,1.5-0.6,2,0C166.2,274,166.2,274.9,165.6,275.5z M169.6,271.5
		c-0.6,0.6-1.5,0.6-2,0c-0.6-0.6-0.6-1.5,0-2c0.6-0.6,1.5-0.6,2,0C170.2,270,170.2,270.9,169.6,271.5z M173.6,267.5
		c-0.6,0.6-1.5,0.6-2,0c-0.6-0.6-0.6-1.5,0-2c0.6-0.6,1.5-0.6,2,0C174.2,266,174.2,266.9,173.6,267.5z M177.7,263.5
		c-0.6,0.6-1.5,0.6-2,0c-0.6-0.6-0.6-1.5,0-2c0.6-0.6,1.5-0.6,2,0C178.2,262,178.2,262.9,177.7,263.5z M181.8,259.5
		c-0.6,0.6-1.5,0.6-2,0c-0.6-0.6-0.6-1.5,0-2c0.6-0.6,1.5-0.6,2,0C182.2,258,182.2,258.9,181.8,259.5z M169.6,279.5
		c-0.6,0.6-1.5,0.6-2,0c-0.6-0.6-0.6-1.5,0-2c0.6-0.6,1.5-0.6,2,0C170.2,278.1,170.2,278.9,169.6,279.5z M173.7,275.5
		c-0.6,0.6-1.5,0.6-2,0c-0.6-0.6-0.6-1.5,0-2c0.6-0.6,1.5-0.6,2,0C174.2,274,174.2,274.9,173.7,275.5z M177.7,271.5
		c-0.6,0.6-1.5,0.6-2,0c-0.6-0.6-0.6-1.5,0-2c0.6-0.6,1.5-0.6,2,0C178.2,270,178.2,270.9,177.7,271.5z M181.8,267.5
		c-0.6,0.6-1.5,0.6-2,0c-0.6-0.6-0.6-1.5,0-2c0.6-0.6,1.5-0.6,2,0C182.2,266,182.2,266.9,181.8,267.5z M185.8,263.5
		c-0.6,0.6-1.5,0.6-2,0c-0.6-0.6-0.6-1.5,0-2c0.6-0.6,1.5-0.6,2,0C186.2,262,186.2,262.9,185.8,263.5z"/>
</g>
<path id="svg-concept" class="hardware4" d="M286,262.5l72.3-72.3l72.3,72.3l-72.3,72.3L286,262.5z"/>
<path class="hardware2" d="M399.8,265.1c-1.5,1.5-3.9,1.5-5.4,0s-1.5-3.9,0-5.4s3.9-1.5,5.4,0C401.2,261.2,401.2,263.5,399.8,265.1z
	 M360.9,304c-1.5,1.5-3.9,1.5-5.4,0s-1.5-3.9,0-5.4s3.9-1.5,5.4,0C362.4,300.2,362.4,302.5,360.9,304z"/>
<path class="hardware3" d="M302.4,262.5l55.6-55.6l55.6,55.6L358,318.2L302.4,262.5z"/>
<path class="hardware2" d="M321.9,265.2c-1.5,1.5-3.9,1.5-5.4,0s-1.5-3.9,0-5.4s3.9-1.5,5.4,0C323.4,261.2,323.4,263.7,321.9,265.2z
	 M360.9,226.2c-1.5,1.5-3.9,1.5-5.4,0s-1.5-3.9,0-5.4s3.9-1.5,5.4,0C362.4,222.2,362.4,224.7,360.9,226.2z"/>
<path id="svg-concept" class="hardware5" d="M335.9,262.4l22.2-22.2l22.2,22.2l-22.2,22.2L335.9,262.4z"/>
<path id="svg-concept" class="hardware5" d="M343.2,263.4c-0.6,0.6-1.5,0.6-2,0c-0.6-0.6-0.6-1.5,0-2c0.6-0.6,1.5-0.6,2,0
	C343.8,262,343.8,262.9,343.2,263.4z M347.2,259.4c-0.6,0.6-1.5,0.6-2,0c-0.6-0.6-0.6-1.5,0-2c0.6-0.6,1.5-0.6,2,0
	C347.8,258,347.8,258.9,347.2,259.4z M351.2,255.4c-0.6,0.6-1.5,0.6-2,0c-0.6-0.6-0.6-1.5,0-2c0.6-0.6,1.5-0.6,2,0
	C351.8,254,351.8,254.9,351.2,255.4z M355.2,251.3c-0.6,0.6-1.5,0.6-2,0c-0.6-0.6-0.6-1.5,0-2c0.6-0.6,1.5-0.6,2,0
	C355.8,250,355.8,250.9,355.2,251.3z M359.2,247.3c-0.6,0.6-1.5,0.6-2,0c-0.6-0.6-0.6-1.5,0-2c0.6-0.6,1.5-0.6,2,0
	C359.8,246,359.8,246.7,359.2,247.3z M347.2,267.5c-0.6,0.6-1.5,0.6-2,0c-0.6-0.6-0.6-1.5,0-2c0.6-0.6,1.5-0.6,2,0
	C347.8,266,347.8,266.9,347.2,267.5z M351.2,263.5c-0.6,0.6-1.5,0.6-2,0c-0.6-0.6-0.6-1.5,0-2c0.6-0.6,1.5-0.6,2,0
	C351.8,262,351.8,262.9,351.2,263.5z M355.3,259.4c-0.6,0.6-1.5,0.6-2,0c-0.6-0.6-0.6-1.5,0-2c0.6-0.6,1.5-0.6,2,0
	S355.8,258.9,355.3,259.4z M359.3,255.4c-0.6,0.6-1.5,0.6-2,0c-0.6-0.6-0.6-1.5,0-2c0.6-0.6,1.5-0.6,2,0S359.8,254.9,359.3,255.4z
	 M363.3,251.3c-0.6,0.6-1.5,0.6-2,0c-0.6-0.6-0.6-1.5,0-2c0.6-0.6,1.5-0.6,2,0C363.8,250,363.8,250.9,363.3,251.3z M351.3,271.5
	c-0.6,0.6-1.5,0.6-2,0c-0.6-0.6-0.6-1.5,0-2c0.6-0.6,1.5-0.6,2,0C351.8,270,351.8,270.9,351.3,271.5z M355.3,267.5
	c-0.6,0.6-1.5,0.6-2,0c-0.6-0.6-0.6-1.5,0-2c0.6-0.6,1.5-0.6,2,0C355.8,266,355.8,266.9,355.3,267.5z M359.3,263.5
	c-0.6,0.6-1.5,0.6-2,0c-0.6-0.6-0.6-1.5,0-2c0.6-0.6,1.5-0.6,2,0C359.8,262,359.8,262.9,359.3,263.5z M363.3,259.5
	c-0.6,0.6-1.5,0.6-2,0c-0.6-0.6-0.6-1.5,0-2c0.6-0.6,1.5-0.6,2,0C363.8,258,363.8,258.9,363.3,259.5z M367.3,255.4
	c-0.6,0.6-1.5,0.6-2,0c-0.6-0.6-0.6-1.5,0-2c0.6-0.6,1.5-0.6,2,0S368,254.9,367.3,255.4z M355.3,275.5c-0.6,0.6-1.5,0.6-2,0
	c-0.6-0.6-0.6-1.5,0-2c0.6-0.6,1.5-0.6,2,0C355.8,274,355.8,274.9,355.3,275.5z M359.3,271.5c-0.6,0.6-1.5,0.6-2,0
	c-0.6-0.6-0.6-1.5,0-2c0.6-0.6,1.5-0.6,2,0C359.8,270,359.8,270.9,359.3,271.5z M363.3,267.5c-0.6,0.6-1.5,0.6-2,0
	c-0.6-0.6-0.6-1.5,0-2c0.6-0.6,1.5-0.6,2,0C364,266,364,266.9,363.3,267.5z M367.3,263.5c-0.6,0.6-1.5,0.6-2,0c-0.6-0.6-0.6-1.5,0-2
	c0.6-0.6,1.5-0.6,2,0C368,262,368,262.9,367.3,263.5z M371.3,259.5c-0.6,0.6-1.5,0.6-2,0c-0.6-0.6-0.6-1.5,0-2c0.6-0.6,1.5-0.6,2,0
	C372,258,372,258.9,371.3,259.5z M359.3,279.5c-0.6,0.6-1.5,0.6-2,0c-0.6-0.6-0.6-1.5,0-2c0.6-0.6,1.5-0.6,2,0
	C359.9,278.1,359.9,278.9,359.3,279.5z M363.3,275.5c-0.6,0.6-1.5,0.6-2,0c-0.6-0.6-0.6-1.5,0-2c0.6-0.6,1.5-0.6,2,0
	C364,274,364,274.9,363.3,275.5z M367.3,271.5c-0.6,0.6-1.5,0.6-2,0c-0.6-0.6-0.6-1.5,0-2c0.6-0.6,1.5-0.6,2,0
	C368,270,368,270.9,367.3,271.5z M371.3,267.5c-0.6,0.6-1.5,0.6-2,0c-0.6-0.6-0.6-1.5,0-2c0.6-0.6,1.5-0.6,2,0
	C372,266,372,266.9,371.3,267.5z M375.4,263.5c-0.6,0.6-1.5,0.6-2,0c-0.6-0.6-0.6-1.5,0-2c0.6-0.6,1.5-0.6,2,0
	C376,262,376,262.9,375.4,263.5z"/>
<g>
	<path id="svg-concept" class="hardware1" d="M190.7,167.8L263,95.5l72.3,72.3L263,240.2L190.7,167.8z"/>
	<path class="hardware2" d="M304.7,170.5c-1.5,1.5-3.9,1.5-5.4,0s-1.5-3.9,0-5.4s3.9-1.5,5.4,0C306.2,166.5,306.2,168.9,304.7,170.5z
		 M265.7,209.5c-1.5,1.5-3.9,1.5-5.4,0s-1.5-3.9,0-5.4s3.9-1.5,5.4,0C267.2,205.5,267.2,207.9,265.7,209.5z"/>
	<path class="hardware3" d="M207.5,167.9l55.6-55.6l55.6,55.6l-55.6,55.6L207.5,167.9z"/>
	<path class="hardware2" d="M226.9,170.5c-1.5,1.5-3.9,1.5-5.4,0s-1.5-3.9,0-5.4s3.9-1.5,5.4,0S228.4,169.1,226.9,170.5z M265.8,131.5
		c-1.5,1.5-3.9,1.5-5.4,0s-1.5-3.9,0-5.4s3.9-1.5,5.4,0C267.2,127.7,267.2,130.1,265.8,131.5z"/>
	<g>
		<path class="hardware3" d="M240.9,167.9l22.2-22.2l22.2,22.2l-22.2,22.2L240.9,167.9z"/>
		<path class="hardware3" d="M248.1,168.8c-0.6,0.6-1.5,0.6-2,0c-0.6-0.6-0.6-1.5,0-2c0.6-0.6,1.5-0.6,2,0S248.6,168.3,248.1,168.8z
			 M252.1,164.8c-0.6,0.6-1.5,0.6-2,0c-0.6-0.6-0.6-1.5,0-2c0.6-0.6,1.5-0.6,2,0C252.6,163.3,252.6,164.2,252.1,164.8z M256.1,160.8
			c-0.6,0.6-1.5,0.6-2,0c-0.6-0.6-0.6-1.5,0-2c0.6-0.6,1.5-0.6,2,0C256.6,159.2,256.6,160.2,256.1,160.8z M260.1,156.8
			c-0.6,0.6-1.5,0.6-2,0c-0.6-0.6-0.6-1.5,0-2c0.6-0.6,1.5-0.6,2,0C260.8,155.2,260.8,156.2,260.1,156.8z M264.2,152.8
			c-0.6,0.6-1.5,0.6-2,0c-0.6-0.6-0.6-1.5,0-2c0.6-0.6,1.5-0.6,2,0C264.8,151.2,264.8,152.2,264.2,152.8z M252.1,172.8
			c-0.6,0.6-1.5,0.6-2,0c-0.6-0.6-0.6-1.5,0-2c0.6-0.6,1.5-0.6,2,0S252.6,172.3,252.1,172.8z M256.1,168.8c-0.6,0.6-1.5,0.6-2,0
			c-0.6-0.6-0.6-1.5,0-2c0.6-0.6,1.5-0.6,2,0C256.8,167.4,256.8,168.3,256.1,168.8z M260.1,164.8c-0.6,0.6-1.5,0.6-2,0
			c-0.6-0.6-0.6-1.5,0-2c0.6-0.6,1.5-0.6,2,0C260.8,163.4,260.8,164.3,260.1,164.8z M264.2,160.8c-0.6,0.6-1.5,0.6-2,0
			c-0.6-0.6-0.6-1.5,0-2c0.6-0.6,1.5-0.6,2,0C264.8,159.2,264.8,160.2,264.2,160.8z M268.2,156.8c-0.6,0.6-1.5,0.6-2,0
			c-0.6-0.6-0.6-1.5,0-2c0.6-0.6,1.5-0.6,2,0C268.8,155.2,268.8,156.2,268.2,156.8z M256.1,177c-0.6,0.6-1.5,0.6-2,0
			c-0.6-0.6-0.6-1.5,0-2c0.6-0.6,1.5-0.6,2,0C256.8,175.4,256.8,176.3,256.1,177z M260.1,172.8c-0.6,0.6-1.5,0.6-2,0
			c-0.6-0.6-0.6-1.5,0-2c0.6-0.6,1.5-0.6,2,0C260.8,171.4,260.8,172.3,260.1,172.8z M264.2,168.8c-0.6,0.6-1.5,0.6-2,0
			c-0.6-0.6-0.6-1.5,0-2c0.6-0.6,1.5-0.6,2,0C264.8,167.4,264.8,168.3,264.2,168.8z M268.2,164.8c-0.6,0.6-1.5,0.6-2,0
			c-0.6-0.6-0.6-1.5,0-2c0.6-0.6,1.5-0.6,2,0C268.8,163.4,268.8,164.3,268.2,164.8z M272.2,160.8c-0.6,0.6-1.5,0.6-2,0
			c-0.6-0.6-0.6-1.5,0-2c0.6-0.6,1.5-0.6,2,0C272.8,159.4,272.8,160.3,272.2,160.8z M260.1,181c-0.6,0.6-1.5,0.6-2,0
			c-0.6-0.6-0.6-1.5,0-2c0.6-0.6,1.5-0.6,2,0C260.8,179.4,260.8,180.3,260.1,181z M264.2,177c-0.6,0.6-1.5,0.6-2,0
			c-0.6-0.6-0.6-1.5,0-2c0.6-0.6,1.5-0.6,2,0C264.8,175.4,264.8,176.3,264.2,177z M268.2,173c-0.6,0.6-1.5,0.6-2,0
			c-0.6-0.6-0.6-1.5,0-2c0.6-0.6,1.5-0.6,2,0C268.8,171.4,268.8,172.3,268.2,173z M272.2,168.8c-0.6,0.6-1.5,0.6-2,0
			c-0.6-0.6-0.6-1.5,0-2c0.6-0.6,1.5-0.6,2,0C272.8,167.4,272.8,168.3,272.2,168.8z M276.2,164.8c-0.6,0.6-1.5,0.6-2,0
			c-0.6-0.6-0.6-1.5,0-2c0.6-0.6,1.5-0.6,2,0C276.8,163.4,276.8,164.3,276.2,164.8z M264.2,185c-0.6,0.6-1.5,0.6-2,0
			c-0.6-0.6-0.6-1.5,0-2c0.6-0.6,1.5-0.6,2,0C264.8,183.4,264.8,184.4,264.2,185z M268.2,181c-0.6,0.6-1.5,0.6-2,0
			c-0.6-0.6-0.6-1.5,0-2c0.6-0.6,1.5-0.6,2,0C268.8,179.4,268.8,180.3,268.2,181z M272.2,177c-0.6,0.6-1.5,0.6-2,0
			c-0.6-0.6-0.6-1.5,0-2c0.6-0.6,1.5-0.6,2,0C272.8,175.4,272.8,176.3,272.2,177z M276.3,173c-0.6,0.6-1.5,0.6-2,0
			c-0.6-0.6-0.6-1.5,0-2c0.6-0.6,1.5-0.6,2,0C276.8,171.4,276.8,172.3,276.3,173z M280.3,168.9c-0.6,0.6-1.5,0.6-2,0
			c-0.6-0.6-0.6-1.5,0-2c0.6-0.6,1.5-0.6,2,0C280.8,167.4,280.8,168.3,280.3,168.9z"/>
	</g>
	
		<animateMotion  accumulate="none" additive="replace" begin="1s" calcMode="paced" dur="2s" fill="freeze" path="M0, -25 0 0" restart="always">
		</animateMotion>
</g>
<g>
	<path id="svg-concept" class="hardware1" d="M475.5,262.5l72.3-72.3l72.3,72.3l-72.3,72.3L475.5,262.5z"/>
	<path class="hardware2" d="M589.4,265.1c-1.5,1.5-3.9,1.5-5.4,0s-1.5-3.9,0-5.4s3.9-1.5,5.4,0C591,261.2,591,263.5,589.4,265.1z
		 M550.5,304c-1.5,1.5-3.9,1.5-5.4,0s-1.5-3.9,0-5.4s3.9-1.5,5.4,0C552,300.2,552,302.5,550.5,304z"/>
	<path class="hardware3" d="M492.2,262.5l55.6-55.6l55.6,55.6l-55.6,55.6L492.2,262.5z"/>
	<path class="hardware2" d="M511.7,265.2c-1.5,1.5-3.9,1.5-5.4,0s-1.5-3.9,0-5.4s3.9-1.5,5.4,0C513.2,261.2,513.2,263.7,511.7,265.2z
		 M550.6,226.2c-1.5,1.5-3.9,1.5-5.4,0s-1.5-3.9,0-5.4s3.9-1.5,5.4,0C552,222.2,552,224.7,550.6,226.2z"/>
	<g>
		<path class="hardware3" d="M525.6,262.4l22.2-22.2l22.2,22.2l-22.2,22.2L525.6,262.4z"/>
		<path class="hardware3" d="M532.9,263.4c-0.6,0.6-1.5,0.6-2,0c-0.6-0.6-0.6-1.5,0-2c0.6-0.6,1.5-0.6,2,0S533.4,262.9,532.9,263.4z
			 M536.9,259.4c-0.6,0.6-1.5,0.6-2,0c-0.6-0.6-0.6-1.5,0-2c0.6-0.6,1.5-0.6,2,0S537.4,258.9,536.9,259.4z M540.9,255.4
			c-0.6,0.6-1.5,0.6-2,0c-0.6-0.6-0.6-1.5,0-2c0.6-0.6,1.5-0.6,2,0S541.4,254.9,540.9,255.4z M544.9,251.3c-0.6,0.6-1.5,0.6-2,0
			c-0.6-0.6-0.6-1.5,0-2c0.6-0.6,1.5-0.6,2,0C545.4,250,545.5,250.9,544.9,251.3z M548.9,247.3c-0.6,0.6-1.5,0.6-2,0
			c-0.6-0.6-0.6-1.5,0-2c0.6-0.6,1.5-0.6,2,0C549.5,246,549.5,246.7,548.9,247.3z M536.9,267.5c-0.6,0.6-1.5,0.6-2,0
			c-0.6-0.6-0.6-1.5,0-2c0.6-0.6,1.5-0.6,2,0C537.4,266,537.4,266.9,536.9,267.5z M540.9,263.5c-0.6,0.6-1.5,0.6-2,0
			c-0.6-0.6-0.6-1.5,0-2c0.6-0.6,1.5-0.6,2,0C541.5,262,541.5,262.9,540.9,263.5z M544.9,259.4c-0.6,0.6-1.5,0.6-2,0
			c-0.6-0.6-0.6-1.5,0-2c0.6-0.6,1.5-0.6,2,0C545.5,258,545.5,258.9,544.9,259.4z M548.9,255.4c-0.6,0.6-1.5,0.6-2,0
			c-0.6-0.6-0.6-1.5,0-2c0.6-0.6,1.5-0.6,2,0C549.5,254,549.5,254.9,548.9,255.4z M552.9,251.3c-0.6,0.6-1.5,0.6-2,0
			c-0.6-0.6-0.6-1.5,0-2c0.6-0.6,1.5-0.6,2,0C553.5,250,553.5,250.9,552.9,251.3z M540.9,271.5c-0.6,0.6-1.5,0.6-2,0
			c-0.6-0.6-0.6-1.5,0-2c0.6-0.6,1.5-0.6,2,0C541.5,270,541.5,270.9,540.9,271.5z M544.9,267.5c-0.6,0.6-1.5,0.6-2,0
			c-0.6-0.6-0.6-1.5,0-2c0.6-0.6,1.5-0.6,2,0C545.5,266,545.5,266.9,544.9,267.5z M548.9,263.5c-0.6,0.6-1.5,0.6-2,0
			c-0.6-0.6-0.6-1.5,0-2c0.6-0.6,1.5-0.6,2,0C549.5,262,549.5,262.9,548.9,263.5z M552.9,259.5c-0.6,0.6-1.5,0.6-2,0
			c-0.6-0.6-0.6-1.5,0-2c0.6-0.6,1.5-0.6,2,0C553.5,258,553.5,258.9,552.9,259.5z M556.9,255.4c-0.6,0.6-1.5,0.6-2,0
			c-0.6-0.6-0.6-1.5,0-2c0.6-0.6,1.5-0.6,2,0C557.6,254,557.6,254.9,556.9,255.4z M544.9,275.5c-0.6,0.6-1.5,0.6-2,0
			c-0.6-0.6-0.6-1.5,0-2c0.6-0.6,1.5-0.6,2,0C545.5,274,545.5,274.9,544.9,275.5z M548.9,271.5c-0.6,0.6-1.5,0.6-2,0
			c-0.6-0.6-0.6-1.5,0-2c0.6-0.6,1.5-0.6,2,0C549.5,270,549.5,270.9,548.9,271.5z M552.9,267.5c-0.6,0.6-1.5,0.6-2,0
			c-0.6-0.6-0.6-1.5,0-2c0.6-0.6,1.5-0.6,2,0C553.5,266,553.5,266.9,552.9,267.5z M556.9,263.5c-0.6,0.6-1.5,0.6-2,0
			c-0.6-0.6-0.6-1.5,0-2c0.6-0.6,1.5-0.6,2,0C557.6,262,557.6,262.9,556.9,263.5z M560.9,259.5c-0.6,0.6-1.5,0.6-2,0
			c-0.6-0.6-0.6-1.5,0-2c0.6-0.6,1.5-0.6,2,0C561.6,258,561.6,258.9,560.9,259.5z M548.9,279.5c-0.6,0.6-1.5,0.6-2,0
			c-0.6-0.6-0.6-1.5,0-2c0.6-0.6,1.5-0.6,2,0C549.5,278.1,549.5,278.9,548.9,279.5z M552.9,275.5c-0.6,0.6-1.5,0.6-2,0
			c-0.6-0.6-0.6-1.5,0-2c0.6-0.6,1.5-0.6,2,0C553.5,274,553.5,274.9,552.9,275.5z M556.9,271.5c-0.6,0.6-1.5,0.6-2,0
			c-0.6-0.6-0.6-1.5,0-2c0.6-0.6,1.5-0.6,2,0C557.6,270,557.6,270.9,556.9,271.5z M561.1,267.5c-0.6,0.6-1.5,0.6-2,0
			c-0.6-0.6-0.6-1.5,0-2c0.6-0.6,1.5-0.6,2,0C561.6,266,561.6,266.9,561.1,267.5z M565.1,263.5c-0.6,0.6-1.5,0.6-2,0
			c-0.6-0.6-0.6-1.5,0-2c0.6-0.6,1.5-0.6,2,0C565.6,262,565.6,262.9,565.1,263.5z"/>
	</g>
</g>
<g>
	<path id="svg-concept" class="hardware4" d="M665.2,262.6l72.3-72.3l72.3,72.3l-72.3,72.3L665.2,262.6z"/>
	<path class="hardware2" d="M779.2,265.1c-1.5,1.5-3.9,1.5-5.4,0s-1.5-3.9,0-5.4s3.9-1.5,5.4,0C780.6,261.2,780.6,263.5,779.2,265.1z
		 M740.2,304c-1.5,1.5-3.9,1.5-5.4,0s-1.5-3.9,0-5.4s3.9-1.5,5.4,0C741.6,300.2,741.6,302.5,740.2,304z"/>
	<path class="hardware3" d="M681.8,262.4l55.6-55.6l55.6,55.6L737.4,318L681.8,262.4z"/>
	<path class="hardware2" d="M701.2,265.2c-1.5,1.5-3.9,1.5-5.4,0s-1.5-3.9,0-5.4s3.9-1.5,5.4,0C702.8,261.2,702.8,263.7,701.2,265.2z
		 M740.2,226.2c-1.5,1.5-3.9,1.5-5.4,0s-1.5-3.9,0-5.4s3.9-1.5,5.4,0C741.8,222.2,741.8,224.7,740.2,226.2z"/>
	<path id="svg-concept" class="hardware5" d="M715.2,262.3l22.2-22.2l22.2,22.2l-22.2,22.2L715.2,262.3z"/>
	<path id="svg-concept" class="hardware5" d="M722.5,263.4c-0.6,0.6-1.5,0.6-2,0c-0.6-0.6-0.6-1.5,0-2c0.6-0.6,1.5-0.6,2,0
		C723.1,262,723.1,262.9,722.5,263.4z M726.5,259.4c-0.6,0.6-1.5,0.6-2,0c-0.6-0.6-0.6-1.5,0-2c0.6-0.6,1.5-0.6,2,0
		C727.1,258,727.1,258.9,726.5,259.4z M730.5,255.4c-0.6,0.6-1.5,0.6-2,0c-0.6-0.6-0.6-1.5,0-2c0.6-0.6,1.5-0.6,2,0
		C731.1,254,731.1,254.9,730.5,255.4z M734.5,251.3c-0.6,0.6-1.5,0.6-2,0c-0.6-0.6-0.6-1.5,0-2c0.6-0.6,1.5-0.6,2,0
		C735.1,250,735.1,250.9,734.5,251.3z M738.5,247.3c-0.6,0.6-1.5,0.6-2,0c-0.6-0.6-0.6-1.5,0-2c0.6-0.6,1.5-0.6,2,0
		C739.1,246,739.1,246.7,738.5,247.3z M726.5,267.5c-0.6,0.6-1.5,0.6-2,0c-0.6-0.6-0.6-1.5,0-2c0.6-0.6,1.5-0.6,2,0
		C727.1,266,727.1,266.9,726.5,267.5z M730.5,263.5c-0.6,0.6-1.5,0.6-2,0c-0.6-0.6-0.6-1.5,0-2c0.6-0.6,1.5-0.6,2,0
		C731.1,262,731.1,262.9,730.5,263.5z M734.5,259.4c-0.6,0.6-1.5,0.6-2,0c-0.6-0.6-0.6-1.5,0-2c0.6-0.6,1.5-0.6,2,0
		C735.1,258,735.1,258.9,734.5,259.4z M738.5,255.4c-0.6,0.6-1.5,0.6-2,0c-0.6-0.6-0.6-1.5,0-2c0.6-0.6,1.5-0.6,2,0
		C739.1,254,739.1,254.9,738.5,255.4z M742.7,251.3c-0.6,0.6-1.5,0.6-2,0c-0.6-0.6-0.6-1.5,0-2c0.6-0.6,1.5-0.6,2,0
		C743.1,250,743.1,250.9,742.7,251.3z M730.5,271.5c-0.6,0.6-1.5,0.6-2,0c-0.6-0.6-0.6-1.5,0-2c0.6-0.6,1.5-0.6,2,0
		C731.1,270,731.1,270.9,730.5,271.5z M734.5,267.5c-0.6,0.6-1.5,0.6-2,0c-0.6-0.6-0.6-1.5,0-2c0.6-0.6,1.5-0.6,2,0
		C735.1,266,735.1,266.9,734.5,267.5z M738.7,263.5c-0.6,0.6-1.5,0.6-2,0c-0.6-0.6-0.6-1.5,0-2c0.6-0.6,1.5-0.6,2,0
		C739.1,262,739.1,262.9,738.7,263.5z M742.7,259.5c-0.6,0.6-1.5,0.6-2,0c-0.6-0.6-0.6-1.5,0-2c0.6-0.6,1.5-0.6,2,0
		C743.1,258,743.1,258.9,742.7,259.5z M746.7,255.4c-0.6,0.6-1.5,0.6-2,0c-0.6-0.6-0.6-1.5,0-2c0.6-0.6,1.5-0.6,2,0
		C747.1,254,747.1,254.9,746.7,255.4z M734.7,275.5c-0.6,0.6-1.5,0.6-2,0c-0.6-0.6-0.6-1.5,0-2c0.6-0.6,1.5-0.6,2,0
		C735.1,274,735.1,274.9,734.7,275.5z M738.7,271.5c-0.6,0.6-1.5,0.6-2,0c-0.6-0.6-0.6-1.5,0-2c0.6-0.6,1.5-0.6,2,0
		C739.1,270,739.1,270.9,738.7,271.5z M742.7,267.5c-0.6,0.6-1.5,0.6-2,0c-0.6-0.6-0.6-1.5,0-2c0.6-0.6,1.5-0.6,2,0
		C743.1,266,743.1,266.9,742.7,267.5z M746.7,263.5c-0.6,0.6-1.5,0.6-2,0c-0.6-0.6-0.6-1.5,0-2c0.6-0.6,1.5-0.6,2,0
		C747.1,262,747.1,262.9,746.7,263.5z M750.7,259.5c-0.6,0.6-1.5,0.6-2,0c-0.6-0.6-0.6-1.5,0-2c0.6-0.6,1.5-0.6,2,0
		C751.3,258,751.3,258.9,750.7,259.5z M738.7,279.5c-0.6,0.6-1.5,0.6-2,0c-0.6-0.6-0.6-1.5,0-2c0.6-0.6,1.5-0.6,2,0
		C739.1,278.1,739.1,278.9,738.7,279.5z M742.7,275.5c-0.6,0.6-1.5,0.6-2,0c-0.6-0.6-0.6-1.5,0-2c0.6-0.6,1.5-0.6,2,0
		C743.1,274,743.1,274.9,742.7,275.5z M746.7,271.5c-0.6,0.6-1.5,0.6-2,0c-0.6-0.6-0.6-1.5,0-2c0.6-0.6,1.5-0.6,2,0
		C747.3,270,747.3,270.9,746.7,271.5z M750.7,267.5c-0.6,0.6-1.5,0.6-2,0c-0.6-0.6-0.6-1.5,0-2c0.6-0.6,1.5-0.6,2,0
		C751.3,266,751.3,266.9,750.7,267.5z M754.7,263.5c-0.6,0.6-1.5,0.6-2,0c-0.6-0.6-0.6-1.5,0-2c0.6-0.6,1.5-0.6,2,0
		C755.3,262,755.3,262.9,754.7,263.5z"/>
</g>
<g>
	<path id="svg-concept" class="hardware1" d="M570.1,167.8l72.3-72.3l72.3,72.3l-72.3,72.3L570.1,167.8z"/>
	<path class="hardware2" d="M684,170.5c-1.5,1.5-3.9,1.5-5.4,0s-1.5-3.9,0-5.4s3.9-1.5,5.4,0C685.5,166.5,685.5,168.9,684,170.5z
		 M645,209.5c-1.5,1.5-3.9,1.5-5.4,0s-1.5-3.9,0-5.4s3.9-1.5,5.4,0C646.6,205.5,646.6,207.9,645,209.5z"/>
	<path class="hardware3" d="M586.7,168l55.6-55.6L698,168l-55.6,55.6L586.7,168z"/>
	<path class="hardware2" d="M606.2,170.5c-1.5,1.5-3.9,1.5-5.4,0s-1.5-3.9,0-5.4s3.9-1.5,5.4,0C607.6,166.6,607.6,169.1,606.2,170.5z
		 M645.2,131.5c-1.5,1.5-3.9,1.5-5.4,0s-1.5-3.9,0-5.4s3.9-1.5,5.4,0C646.6,127.7,646.6,130.1,645.2,131.5z"/>
	<g>
		<path class="hardware3" d="M620.2,167.9l22.2-22.2l22.2,22.2l-22.2,22.2L620.2,167.9z"/>
		<path class="hardware3" d="M627.3,168.8c-0.6,0.6-1.5,0.6-2,0c-0.6-0.6-0.6-1.5,0-2c0.6-0.6,1.5-0.6,2,0
			C627.9,167.4,627.9,168.3,627.3,168.8z M631.5,164.8c-0.6,0.6-1.5,0.6-2,0c-0.6-0.6-0.6-1.5,0-2c0.6-0.6,1.5-0.6,2,0
			C631.9,163.3,631.9,164.2,631.5,164.8z M635.5,160.8c-0.6,0.6-1.5,0.6-2,0c-0.6-0.6-0.6-1.5,0-2c0.6-0.6,1.5-0.6,2,0
			C635.9,159.2,635.9,160.2,635.5,160.8z M639.5,156.8c-0.6,0.6-1.5,0.6-2,0c-0.6-0.6-0.6-1.5,0-2c0.6-0.6,1.5-0.6,2,0
			C639.9,155.2,639.9,156.2,639.5,156.8z M643.5,152.8c-0.6,0.6-1.5,0.6-2,0c-0.6-0.6-0.6-1.5,0-2c0.6-0.6,1.5-0.6,2,0
			C644,151.2,644,152.2,643.5,152.8z M631.5,172.8c-0.6,0.6-1.5,0.6-2,0c-0.6-0.6-0.6-1.5,0-2c0.6-0.6,1.5-0.6,2,0
			C631.9,171.4,631.9,172.3,631.5,172.8z M635.5,168.8c-0.6,0.6-1.5,0.6-2,0c-0.6-0.6-0.6-1.5,0-2c0.6-0.6,1.5-0.6,2,0
			C635.9,167.4,635.9,168.3,635.5,168.8z M639.5,164.8c-0.6,0.6-1.5,0.6-2,0c-0.6-0.6-0.6-1.5,0-2c0.6-0.6,1.5-0.6,2,0
			C639.9,163.4,639.9,164.3,639.5,164.8z M643.5,160.8c-0.6,0.6-1.5,0.6-2,0c-0.6-0.6-0.6-1.5,0-2c0.6-0.6,1.5-0.6,2,0
			C644.1,159.2,644.1,160.2,643.5,160.8z M647.5,156.8c-0.6,0.6-1.5,0.6-2,0c-0.6-0.6-0.6-1.5,0-2c0.6-0.6,1.5-0.6,2,0
			C648.1,155.2,648.1,156.2,647.5,156.8z M635.5,177c-0.6,0.6-1.5,0.6-2,0c-0.6-0.6-0.6-1.5,0-2c0.6-0.6,1.5-0.6,2,0
			C635.9,175.4,635.9,176.3,635.5,177z M639.5,172.8c-0.6,0.6-1.5,0.6-2,0c-0.6-0.6-0.6-1.5,0-2c0.6-0.6,1.5-0.6,2,0
			C640.1,171.4,640.1,172.3,639.5,172.8z M643.5,168.8c-0.6,0.6-1.5,0.6-2,0c-0.6-0.6-0.6-1.5,0-2c0.6-0.6,1.5-0.6,2,0
			C644.1,167.4,644.1,168.3,643.5,168.8z M647.5,164.8c-0.6,0.6-1.5,0.6-2,0c-0.6-0.6-0.6-1.5,0-2c0.6-0.6,1.5-0.6,2,0
			C648.1,163.4,648.1,164.3,647.5,164.8z M651.5,160.8c-0.6,0.6-1.5,0.6-2,0c-0.6-0.6-0.6-1.5,0-2c0.6-0.6,1.5-0.6,2,0
			C652.1,159.4,652.1,160.3,651.5,160.8z M639.5,181c-0.6,0.6-1.5,0.6-2,0c-0.6-0.6-0.6-1.5,0-2c0.6-0.6,1.5-0.6,2,0
			C640.1,179.4,640.1,180.3,639.5,181z M643.5,177c-0.6,0.6-1.5,0.6-2,0c-0.6-0.6-0.6-1.5,0-2c0.6-0.6,1.5-0.6,2,0
			C644.1,175.4,644.1,176.3,643.5,177z M647.5,173c-0.6,0.6-1.5,0.6-2,0c-0.6-0.6-0.6-1.5,0-2c0.6-0.6,1.5-0.6,2,0
			C648.1,171.4,648.1,172.3,647.5,173z M651.5,168.8c-0.6,0.6-1.5,0.6-2,0c-0.6-0.6-0.6-1.5,0-2c0.6-0.6,1.5-0.6,2,0
			C652.1,167.4,652.1,168.3,651.5,168.8z M655.5,164.8c-0.6,0.6-1.5,0.6-2,0c-0.6-0.6-0.6-1.5,0-2c0.6-0.6,1.5-0.6,2,0
			C656.1,163.4,656.1,164.3,655.5,164.8z M643.5,185c-0.6,0.6-1.5,0.6-2,0c-0.6-0.6-0.6-1.5,0-2c0.6-0.6,1.5-0.6,2,0
			C644.1,183.4,644.1,184.4,643.5,185z M647.5,181c-0.6,0.6-1.5,0.6-2,0c-0.6-0.6-0.6-1.5,0-2c0.6-0.6,1.5-0.6,2,0
			C648.1,179.4,648.1,180.3,647.5,181z M651.5,177c-0.6,0.6-1.5,0.6-2,0c-0.6-0.6-0.6-1.5,0-2c0.6-0.6,1.5-0.6,2,0
			C652.1,175.4,652.1,176.3,651.5,177z M655.5,173c-0.6,0.6-1.5,0.6-2,0c-0.6-0.6-0.6-1.5,0-2c0.6-0.6,1.5-0.6,2,0
			C656.1,171.4,656.1,172.3,655.5,173z M659.5,168.9c-0.6,0.6-1.5,0.6-2,0c-0.6-0.6-0.6-1.5,0-2c0.6-0.6,1.5-0.6,2,0
			C660.1,167.4,660.1,168.3,659.5,168.9z"/>
	</g>
	
		<animateMotion  accumulate="none" additive="replace" begin="1s" calcMode="paced" dur="2s" fill="freeze" path="M0, -25 0 0" restart="always">
		</animateMotion>
</g>
<g>
	<path id="svg-concept" class="hardware4" d="M285.9,73.5l72.3-72.3l72.3,72.3l-72.3,72.3L285.9,73.5z"/>
	<path class="hardware6" d="M399.8,75.9c-1.5,1.5-3.9,1.5-5.4,0s-1.5-3.9,0-5.4s3.9-1.5,5.4,0C401.2,72.1,401.2,74.5,399.8,75.9z
		 M360.9,114.9c-1.5,1.5-3.9,1.5-5.4,0s-1.5-3.9,0-5.4s3.9-1.5,5.4,0S362.4,113.3,360.9,114.9z"/>
	<path class="hardware3" d="M302.5,73.3l55.6-55.6l55.6,55.6L358.1,129L302.5,73.3z"/>
	<path class="hardware6" d="M321.9,76.1c-1.5,1.5-3.9,1.5-5.4,0s-1.5-3.9,0-5.4s3.9-1.5,5.4,0C323.4,72.1,323.4,74.5,321.9,76.1z
		 M360.9,37.1c-1.5,1.5-3.9,1.5-5.4,0s-1.5-3.9,0-5.4c1.5-1.5,3.9-1.5,5.4,0C362.4,33.1,362.4,35.6,360.9,37.1z"/>
	<path id="svg-concept" class="hardware5" d="M335.9,73.3l22.2-22.2l22.2,22.2l-22.2,22.2L335.9,73.3z"/>
	<path id="svg-concept_" class="hardware5" d="M343.2,74.4c-0.6,0.6-1.5,0.6-2,0c-0.6-0.6-0.6-1.5,0-2c0.6-0.6,1.5-0.6,2,0
		C343.8,72.8,343.8,73.8,343.2,74.4z M347.2,70.4c-0.6,0.6-1.5,0.6-2,0c-0.6-0.6-0.6-1.5,0-2c0.6-0.6,1.5-0.6,2,0
		C347.8,68.8,347.8,69.8,347.2,70.4z M351.2,66.2c-0.6,0.6-1.5,0.6-2,0c-0.6-0.6-0.6-1.5,0-2c0.6-0.6,1.5-0.6,2,0
		C351.8,64.8,351.8,65.8,351.2,66.2z M355.2,62.2c-0.6,0.6-1.5,0.6-2,0c-0.6-0.6-0.6-1.5,0-2c0.6-0.6,1.5-0.6,2,0
		C355.8,60.8,355.8,61.8,355.2,62.2z M359.2,58.2c-0.6,0.6-1.5,0.6-2,0c-0.6-0.6-0.6-1.5,0-2c0.6-0.6,1.5-0.6,2,0
		C359.8,56.8,359.8,57.7,359.2,58.2z M347.2,78.4c-0.6,0.6-1.5,0.6-2,0c-0.6-0.6-0.6-1.5,0-2c0.6-0.6,1.5-0.6,2,0
		C347.8,76.8,347.8,77.8,347.2,78.4z M351.2,74.4c-0.6,0.6-1.5,0.6-2,0c-0.6-0.6-0.6-1.5,0-2c0.6-0.6,1.5-0.6,2,0
		C351.8,72.8,351.8,73.8,351.2,74.4z M355.3,70.4c-0.6,0.6-1.5,0.6-2,0c-0.6-0.6-0.6-1.5,0-2c0.6-0.6,1.5-0.6,2,0
		C355.8,68.8,355.8,69.8,355.3,70.4z M359.3,66.4c-0.6,0.6-1.5,0.6-2,0c-0.6-0.6-0.6-1.5,0-2c0.6-0.6,1.5-0.6,2,0
		C359.8,64.8,359.8,65.8,359.3,66.4z M363.3,62.2c-0.6,0.6-1.5,0.6-2,0c-0.6-0.6-0.6-1.5,0-2c0.6-0.6,1.5-0.6,2,0
		S363.8,61.8,363.3,62.2z M351.3,82.4c-0.6,0.6-1.5,0.6-2,0c-0.6-0.6-0.6-1.5,0-2c0.6-0.6,1.5-0.6,2,0
		C351.8,80.9,351.8,81.8,351.3,82.4z M355.3,78.4c-0.6,0.6-1.5,0.6-2,0c-0.6-0.6-0.6-1.5,0-2c0.6-0.6,1.5-0.6,2,0
		C355.8,76.8,355.8,77.8,355.3,78.4z M359.3,74.4c-0.6,0.6-1.5,0.6-2,0c-0.6-0.6-0.6-1.5,0-2c0.6-0.6,1.5-0.6,2,0
		C359.8,72.8,359.8,73.8,359.3,74.4z M363.3,70.4c-0.6,0.6-1.5,0.6-2,0c-0.6-0.6-0.6-1.5,0-2c0.6-0.6,1.5-0.6,2,0
		C363.8,68.8,363.8,69.8,363.3,70.4z M367.3,66.4c-0.6,0.6-1.5,0.6-2,0c-0.6-0.6-0.6-1.5,0-2c0.6-0.6,1.5-0.6,2,0
		C367.8,64.8,368,65.8,367.3,66.4z M355.3,86.4c-0.6,0.6-1.5,0.6-2,0c-0.6-0.6-0.6-1.5,0-2c0.6-0.6,1.5-0.6,2,0
		S355.8,85.8,355.3,86.4z M359.3,82.4c-0.6,0.6-1.5,0.6-2,0c-0.6-0.6-0.6-1.5,0-2c0.6-0.6,1.5-0.6,2,0
		C359.8,80.9,359.8,81.8,359.3,82.4z M363.3,78.4c-0.6,0.6-1.5,0.6-2,0c-0.6-0.6-0.6-1.5,0-2c0.6-0.6,1.5-0.6,2,0
		C364,76.8,364,77.8,363.3,78.4z M367.3,74.4c-0.6,0.6-1.5,0.6-2,0c-0.6-0.6-0.6-1.5,0-2c0.6-0.6,1.5-0.6,2,0
		C368,72.8,368,73.8,367.3,74.4z M371.3,70.4c-0.6,0.6-1.5,0.6-2,0c-0.6-0.6-0.6-1.5,0-2c0.6-0.6,1.5-0.6,2,0
		C372,68.8,372,69.8,371.3,70.4z M359.3,90.4c-0.6,0.6-1.5,0.6-2,0c-0.6-0.6-0.6-1.5,0-2c0.6-0.6,1.5-0.6,2,0
		C359.9,89,359.9,89.9,359.3,90.4z M363.3,86.4c-0.6,0.6-1.5,0.6-2,0c-0.6-0.6-0.6-1.5,0-2c0.6-0.6,1.5-0.6,2,0
		C364,85,364,85.9,363.3,86.4z M367.3,82.4c-0.6,0.6-1.5,0.6-2,0c-0.6-0.6-0.6-1.5,0-2c0.6-0.6,1.5-0.6,2,0
		C368,81,368,81.8,367.3,82.4z M371.3,78.4c-0.6,0.6-1.5,0.6-2,0c-0.6-0.6-0.6-1.5,0-2c0.6-0.6,1.5-0.6,2,0
		C372,76.8,372,77.8,371.3,78.4z M375.4,74.4c-0.6,0.6-1.5,0.6-2,0c-0.6-0.6-0.6-1.5,0-2c0.6-0.6,1.5-0.6,2,0
		C376,72.8,376,73.8,375.4,74.4z"/>
</g>
<g>
	<path id="svg-concept" class="hardware1" d="M475.5,73.3L547.8,1l72.3,72.3l-72.3,72.3L475.5,73.3z"/>
	<path class="hardware2" d="M589.4,75.9c-1.5,1.5-3.9,1.5-5.4,0s-1.5-3.9,0-5.4s3.9-1.5,5.4,0S591,74.5,589.4,75.9z M550.5,114.9
		c-1.5,1.5-3.9,1.5-5.4,0s-1.5-3.9,0-5.4s3.9-1.5,5.4,0S552,113.3,550.5,114.9z"/>
	<path class="hardware3" d="M492.1,73.5l55.6-55.6l55.6,55.6l-55.6,55.6L492.1,73.5z"/>
	<path class="hardware2" d="M511.7,76.1c-1.5,1.5-3.9,1.5-5.4,0s-1.5-3.9,0-5.4s3.9-1.5,5.4,0C513.2,72.1,513.2,74.5,511.7,76.1z
		 M550.6,37.1c-1.5,1.5-3.9,1.5-5.4,0s-1.5-3.9,0-5.4c1.5-1.5,3.9-1.5,5.4,0C552,33.1,552,35.6,550.6,37.1z"/>
	<g>
		<path class="hardware3" d="M525.6,73.3l22.2-22.2L570,73.3l-22.2,22.2L525.6,73.3z"/>
		<path class="hardware3" d="M532.9,74.4c-0.6,0.6-1.5,0.6-2,0c-0.6-0.6-0.6-1.5,0-2c0.6-0.6,1.5-0.6,2,0
			C533.4,72.8,533.4,73.8,532.9,74.4z M536.9,70.4c-0.6,0.6-1.5,0.6-2,0c-0.6-0.6-0.6-1.5,0-2c0.6-0.6,1.5-0.6,2,0
			C537.4,68.8,537.4,69.8,536.9,70.4z M540.9,66.2c-0.6,0.6-1.5,0.6-2,0c-0.6-0.6-0.6-1.5,0-2c0.6-0.6,1.5-0.6,2,0
			S541.4,65.8,540.9,66.2z M544.9,62.2c-0.6,0.6-1.5,0.6-2,0c-0.6-0.6-0.6-1.5,0-2c0.6-0.6,1.5-0.6,2,0S545.5,61.8,544.9,62.2z
			 M548.9,58.2c-0.6,0.6-1.5,0.6-2,0c-0.6-0.6-0.6-1.5,0-2c0.6-0.6,1.5-0.6,2,0C549.5,56.8,549.5,57.7,548.9,58.2z M536.9,78.4
			c-0.6,0.6-1.5,0.6-2,0c-0.6-0.6-0.6-1.5,0-2c0.6-0.6,1.5-0.6,2,0C537.4,76.8,537.4,77.8,536.9,78.4z M540.9,74.4
			c-0.6,0.6-1.5,0.6-2,0c-0.6-0.6-0.6-1.5,0-2c0.6-0.6,1.5-0.6,2,0C541.5,72.8,541.5,73.8,540.9,74.4z M544.9,70.4
			c-0.6,0.6-1.5,0.6-2,0c-0.6-0.6-0.6-1.5,0-2c0.6-0.6,1.5-0.6,2,0C545.5,68.8,545.5,69.8,544.9,70.4z M548.9,66.4
			c-0.6,0.6-1.5,0.6-2,0c-0.6-0.6-0.6-1.5,0-2c0.6-0.6,1.5-0.6,2,0C549.5,64.8,549.5,65.8,548.9,66.4z M552.9,62.2
			c-0.6,0.6-1.5,0.6-2,0c-0.6-0.6-0.6-1.5,0-2c0.6-0.6,1.5-0.6,2,0C553.5,60.8,553.5,61.8,552.9,62.2z M540.9,82.4
			c-0.6,0.6-1.5,0.6-2,0c-0.6-0.6-0.6-1.5,0-2c0.6-0.6,1.5-0.6,2,0C541.5,80.9,541.5,81.8,540.9,82.4z M544.9,78.4
			c-0.6,0.6-1.5,0.6-2,0c-0.6-0.6-0.6-1.5,0-2c0.6-0.6,1.5-0.6,2,0C545.5,76.8,545.5,77.8,544.9,78.4z M548.9,74.4
			c-0.6,0.6-1.5,0.6-2,0c-0.6-0.6-0.6-1.5,0-2c0.6-0.6,1.5-0.6,2,0C549.5,72.8,549.5,73.8,548.9,74.4z M552.9,70.4
			c-0.6,0.6-1.5,0.6-2,0c-0.6-0.6-0.6-1.5,0-2c0.6-0.6,1.5-0.6,2,0C553.5,68.8,553.5,69.8,552.9,70.4z M556.9,66.4
			c-0.6,0.6-1.5,0.6-2,0c-0.6-0.6-0.6-1.5,0-2c0.6-0.6,1.5-0.6,2,0C557.6,64.8,557.6,65.8,556.9,66.4z M544.9,86.4
			c-0.6,0.6-1.5,0.6-2,0c-0.6-0.6-0.6-1.5,0-2c0.6-0.6,1.5-0.6,2,0C545.5,85,545.5,85.8,544.9,86.4z M548.9,82.4
			c-0.6,0.6-1.5,0.6-2,0c-0.6-0.6-0.6-1.5,0-2c0.6-0.6,1.5-0.6,2,0C549.5,80.9,549.5,81.8,548.9,82.4z M552.9,78.4
			c-0.6,0.6-1.5,0.6-2,0c-0.6-0.6-0.6-1.5,0-2c0.6-0.6,1.5-0.6,2,0C553.5,76.8,553.5,77.8,552.9,78.4z M556.9,74.4
			c-0.6,0.6-1.5,0.6-2,0c-0.6-0.6-0.6-1.5,0-2c0.6-0.6,1.5-0.6,2,0C557.6,72.8,557.6,73.8,556.9,74.4z M560.9,70.4
			c-0.6,0.6-1.5,0.6-2,0c-0.6-0.6-0.6-1.5,0-2c0.6-0.6,1.5-0.6,2,0C561.6,68.8,561.6,69.8,560.9,70.4z M548.9,90.4
			c-0.6,0.6-1.5,0.6-2,0c-0.6-0.6-0.6-1.5,0-2c0.6-0.6,1.5-0.6,2,0C549.5,89,549.5,89.9,548.9,90.4z M552.9,86.4
			c-0.6,0.6-1.5,0.6-2,0c-0.6-0.6-0.6-1.5,0-2c0.6-0.6,1.5-0.6,2,0C553.5,85,553.5,85.9,552.9,86.4z M556.9,82.4
			c-0.6,0.6-1.5,0.6-2,0c-0.6-0.6-0.6-1.5,0-2c0.6-0.6,1.5-0.6,2,0C557.6,81,557.6,81.8,556.9,82.4z M561.1,78.4
			c-0.6,0.6-1.5,0.6-2,0c-0.6-0.6-0.6-1.5,0-2c0.6-0.6,1.5-0.6,2,0C561.6,76.8,561.6,77.8,561.1,78.4z M565.1,74.4
			c-0.6,0.6-1.5,0.6-2,0c-0.6-0.6-0.6-1.5,0-2c0.6-0.6,1.5-0.6,2,0C565.6,72.8,565.6,73.8,565.1,74.4z"/>
	</g>
</g>
<path id="svg-concept" class="hardware1" d="M380.3,167.9l72.3-72.3l72.3,72.3l-72.3,72.3L380.3,167.9z"/>
<path class="hardware2" d="M494.4,170.5c-1.5,1.5-3.9,1.5-5.4,0s-1.5-3.9,0-5.4s3.9-1.5,5.4,0C495.8,166.5,495.8,168.9,494.4,170.5z
	 M455.4,209.5c-1.5,1.5-3.9,1.5-5.4,0s-1.5-3.9,0-5.4s3.9-1.5,5.4,0C456.8,205.5,457,207.9,455.4,209.5z"/>
<path class="hardware3" d="M397,168l55.6-55.6l55.6,55.6l-55.6,55.6L397,168z"/>
<path class="hardware2" d="M416.5,170.5c-1.5,1.5-3.9,1.5-5.4,0s-1.5-3.9,0-5.4s3.9-1.5,5.4,0S418,169.1,416.5,170.5z M455.4,131.5
	c-1.5,1.5-3.9,1.5-5.4,0s-1.5-3.9,0-5.4s3.9-1.5,5.4,0S457,130.1,455.4,131.5z"/>
<g>
	<path class="hardware3" d="M430.6,167.9l22.2-22.2l22.2,22.2l-22.2,22.2L430.6,167.9z"/>
	<path class="hardware3" d="M437.7,168.8c-0.6,0.6-1.5,0.6-2,0c-0.6-0.6-0.6-1.5,0-2c0.6-0.6,1.5-0.6,2,0
		C438.3,167.4,438.3,168.3,437.7,168.8z M441.7,164.8c-0.6,0.6-1.5,0.6-2,0c-0.6-0.6-0.6-1.5,0-2c0.6-0.6,1.5-0.6,2,0
		C442.3,163.3,442.3,164.2,441.7,164.8z M445.7,160.8c-0.6,0.6-1.5,0.6-2,0c-0.6-0.6-0.6-1.5,0-2c0.6-0.6,1.5-0.6,2,0
		C446.4,159.2,446.4,160.2,445.7,160.8z M449.7,156.8c-0.6,0.6-1.5,0.6-2,0c-0.6-0.6-0.6-1.5,0-2c0.6-0.6,1.5-0.6,2,0
		C450.4,155.2,450.4,156.2,449.7,156.8z M453.7,152.8c-0.6,0.6-1.5,0.6-2,0c-0.6-0.6-0.6-1.5,0-2c0.6-0.6,1.5-0.6,2,0
		C454.4,151.2,454.4,152.2,453.7,152.8z M441.7,172.8c-0.6,0.6-1.5,0.6-2,0c-0.6-0.6-0.6-1.5,0-2c0.6-0.6,1.5-0.6,2,0
		C442.3,171.4,442.3,172.3,441.7,172.8z M445.7,168.8c-0.6,0.6-1.5,0.6-2,0c-0.6-0.6-0.6-1.5,0-2c0.6-0.6,1.5-0.6,2,0
		C446.4,167.4,446.4,168.3,445.7,168.8z M449.7,164.8c-0.6,0.6-1.5,0.6-2,0c-0.6-0.6-0.6-1.5,0-2c0.6-0.6,1.5-0.6,2,0
		C450.4,163.4,450.4,164.3,449.7,164.8z M453.7,160.8c-0.6,0.6-1.5,0.6-2,0c-0.6-0.6-0.6-1.5,0-2c0.6-0.6,1.5-0.6,2,0
		C454.4,159.2,454.4,160.2,453.7,160.8z M457.9,156.8c-0.6,0.6-1.5,0.6-2,0c-0.6-0.6-0.6-1.5,0-2c0.6-0.6,1.5-0.6,2,0
		C458.4,155.2,458.4,156.2,457.9,156.8z M445.7,177c-0.6,0.6-1.5,0.6-2,0c-0.6-0.6-0.6-1.5,0-2c0.6-0.6,1.5-0.6,2,0
		C446.4,175.4,446.4,176.3,445.7,177z M449.7,172.8c-0.6,0.6-1.5,0.6-2,0c-0.6-0.6-0.6-1.5,0-2c0.6-0.6,1.5-0.6,2,0
		C450.4,171.4,450.4,172.3,449.7,172.8z M453.9,168.8c-0.6,0.6-1.5,0.6-2,0c-0.6-0.6-0.6-1.5,0-2c0.6-0.6,1.5-0.6,2,0
		S454.4,168.3,453.9,168.8z M457.9,164.8c-0.6,0.6-1.5,0.6-2,0c-0.6-0.6-0.6-1.5,0-2c0.6-0.6,1.5-0.6,2,0S458.4,164.3,457.9,164.8z
		 M461.9,160.8c-0.6,0.6-1.5,0.6-2,0c-0.6-0.6-0.6-1.5,0-2c0.6-0.6,1.5-0.6,2,0S462.4,160.3,461.9,160.8z M449.9,181
		c-0.6,0.6-1.5,0.6-2,0c-0.6-0.6-0.6-1.5,0-2c0.6-0.6,1.5-0.6,2,0C450.4,179.4,450.4,180.3,449.9,181z M453.9,177
		c-0.6,0.6-1.5,0.6-2,0c-0.6-0.6-0.6-1.5,0-2c0.6-0.6,1.5-0.6,2,0C454.4,175.4,454.4,176.3,453.9,177z M457.9,173
		c-0.6,0.6-1.5,0.6-2,0c-0.6-0.6-0.6-1.5,0-2c0.6-0.6,1.5-0.6,2,0C458.4,171.4,458.4,172.3,457.9,173z M461.9,168.8
		c-0.6,0.6-1.5,0.6-2,0c-0.6-0.6-0.6-1.5,0-2c0.6-0.6,1.5-0.6,2,0S462.4,168.3,461.9,168.8z M465.9,164.8c-0.6,0.6-1.5,0.6-2,0
		c-0.6-0.6-0.6-1.5,0-2c0.6-0.6,1.5-0.6,2,0C466.5,163.4,466.5,164.3,465.9,164.8z M453.9,185c-0.6,0.6-1.5,0.6-2,0
		c-0.6-0.6-0.6-1.5,0-2c0.6-0.6,1.5-0.6,2,0C454.4,183.4,454.4,184.4,453.9,185z M457.9,181c-0.6,0.6-1.5,0.6-2,0
		c-0.6-0.6-0.6-1.5,0-2c0.6-0.6,1.5-0.6,2,0C458.4,179.4,458.5,180.3,457.9,181z M461.9,177c-0.6,0.6-1.5,0.6-2,0
		c-0.6-0.6-0.6-1.5,0-2c0.6-0.6,1.5-0.6,2,0C462.5,175.4,462.5,176.3,461.9,177z M465.9,173c-0.6,0.6-1.5,0.6-2,0
		c-0.6-0.6-0.6-1.5,0-2c0.6-0.6,1.5-0.6,2,0C466.5,171.4,466.5,172.3,465.9,173z M469.9,168.9c-0.6,0.6-1.5,0.6-2,0
		c-0.6-0.6-0.6-1.5,0-2c0.6-0.6,1.5-0.6,2,0C470.5,167.4,470.5,168.3,469.9,168.9z"/>
</g>
<animateMotion  accumulate="none" additive="replace" begin="1s" calcMode="paced" dur="2s" fill="freeze" path="M0, 25 0 0" restart="always">
	</animateMotion>
<g>
	<path id="svg-concept" class="hardware1" d="M96.2,73.4l72.3-72.3l72.3,72.3l-72.3,72.3L96.2,73.4z"/>
	<path class="hardware2" d="M210.1,75.9c-1.5,1.5-3.9,1.5-5.4,0s-1.5-3.9,0-5.4s3.9-1.5,5.4,0C211.6,72.1,211.6,74.5,210.1,75.9z
		 M171.3,114.9c-1.5,1.5-3.9,1.5-5.4,0s-1.5-3.9,0-5.4s3.9-1.5,5.4,0C172.7,111,172.7,113.3,171.3,114.9z"/>
	<path class="hardware3" d="M112.9,73.4l55.6-55.6l55.6,55.6L168.6,129L112.9,73.4z"/>
	<path class="hardware2" d="M132.3,76.1c-1.5,1.5-3.9,1.5-5.4,0s-1.5-3.9,0-5.4c1.5-1.5,3.9-1.5,5.4,0C133.9,72.1,133.9,74.5,132.3,76.1z
		 M171.3,37.1c-1.5,1.5-3.9,1.5-5.4,0s-1.5-3.9,0-5.4c1.5-1.5,3.9-1.5,5.4,0C172.8,33.1,172.8,35.6,171.3,37.1z"/>
	<g>
		<path class="hardware3" d="M146.3,73.3l22.2-22.2l22.2,22.2l-22.2,22.2L146.3,73.3z"/>
		<path class="hardware3" d="M153.6,74.4c-0.6,0.6-1.5,0.6-2,0c-0.6-0.6-0.6-1.5,0-2c0.6-0.6,1.5-0.6,2,0C154,72.8,154,73.8,153.6,74.4z
			 M157.6,70.4c-0.6,0.6-1.5,0.6-2,0c-0.6-0.6-0.6-1.5,0-2c0.6-0.6,1.5-0.6,2,0C158,68.8,158.2,69.8,157.6,70.4z M161.6,66.2
			c-0.6,0.6-1.5,0.6-2,0c-0.6-0.6-0.6-1.5,0-2c0.6-0.6,1.5-0.6,2,0C162.2,64.8,162.2,65.8,161.6,66.2z M165.6,62.2
			c-0.6,0.6-1.5,0.6-2,0c-0.6-0.6-0.6-1.5,0-2c0.6-0.6,1.5-0.6,2,0C166.2,60.8,166.2,61.8,165.6,62.2z M169.6,58.2
			c-0.6,0.6-1.5,0.6-2,0c-0.6-0.6-0.6-1.5,0-2c0.6-0.6,1.5-0.6,2,0C170.2,56.8,170.2,57.7,169.6,58.2z M157.6,78.4
			c-0.6,0.6-1.5,0.6-2,0c-0.6-0.6-0.6-1.5,0-2c0.6-0.6,1.5-0.6,2,0C158.2,76.8,158.2,77.8,157.6,78.4z M161.6,74.4
			c-0.6,0.6-1.5,0.6-2,0c-0.6-0.6-0.6-1.5,0-2c0.6-0.6,1.5-0.6,2,0C162.2,72.8,162.2,73.8,161.6,74.4z M165.6,70.4
			c-0.6,0.6-1.5,0.6-2,0c-0.6-0.6-0.6-1.5,0-2c0.6-0.6,1.5-0.6,2,0C166.2,68.8,166.2,69.8,165.6,70.4z M169.6,66.4
			c-0.6,0.6-1.5,0.6-2,0c-0.6-0.6-0.6-1.5,0-2c0.6-0.6,1.5-0.6,2,0C170.2,64.8,170.2,65.8,169.6,66.4z M173.6,62.2
			c-0.6,0.6-1.5,0.6-2,0c-0.6-0.6-0.6-1.5,0-2c0.6-0.6,1.5-0.6,2,0C174.2,60.8,174.2,61.8,173.6,62.2z M161.6,82.4
			c-0.6,0.6-1.5,0.6-2,0c-0.6-0.6-0.6-1.5,0-2c0.6-0.6,1.5-0.6,2,0C162.2,80.9,162.2,81.8,161.6,82.4z M165.6,78.4
			c-0.6,0.6-1.5,0.6-2,0c-0.6-0.6-0.6-1.5,0-2c0.6-0.6,1.5-0.6,2,0C166.2,76.8,166.2,77.8,165.6,78.4z M169.6,74.4
			c-0.6,0.6-1.5,0.6-2,0c-0.6-0.6-0.6-1.5,0-2c0.6-0.6,1.5-0.6,2,0C170.2,72.8,170.2,73.8,169.6,74.4z M173.6,70.4
			c-0.6,0.6-1.5,0.6-2,0c-0.6-0.6-0.6-1.5,0-2c0.6-0.6,1.5-0.6,2,0C174.2,68.8,174.2,69.8,173.6,70.4z M177.6,66.4
			c-0.6,0.6-1.5,0.6-2,0c-0.6-0.6-0.6-1.5,0-2c0.6-0.6,1.5-0.6,2,0C178.2,64.8,178.2,65.8,177.6,66.4z M165.6,86.4
			c-0.6,0.6-1.5,0.6-2,0c-0.6-0.6-0.6-1.5,0-2c0.6-0.6,1.5-0.6,2,0C166.2,85,166.2,85.8,165.6,86.4z M169.6,82.4
			c-0.6,0.6-1.5,0.6-2,0c-0.6-0.6-0.6-1.5,0-2c0.6-0.6,1.5-0.6,2,0C170.2,80.9,170.2,81.8,169.6,82.4z M173.6,78.4
			c-0.6,0.6-1.5,0.6-2,0c-0.6-0.6-0.6-1.5,0-2c0.6-0.6,1.5-0.6,2,0C174.2,76.8,174.2,77.8,173.6,78.4z M177.7,74.4
			c-0.6,0.6-1.5,0.6-2,0c-0.6-0.6-0.6-1.5,0-2c0.6-0.6,1.5-0.6,2,0C178.2,72.8,178.2,73.8,177.7,74.4z M181.8,70.4
			c-0.6,0.6-1.5,0.6-2,0c-0.6-0.6-0.6-1.5,0-2c0.6-0.6,1.5-0.6,2,0C182.2,68.8,182.2,69.8,181.8,70.4z M169.6,90.4
			c-0.6,0.6-1.5,0.6-2,0c-0.6-0.6-0.6-1.5,0-2c0.6-0.6,1.5-0.6,2,0C170.2,89,170.2,89.9,169.6,90.4z M173.7,86.4
			c-0.6,0.6-1.5,0.6-2,0c-0.6-0.6-0.6-1.5,0-2c0.6-0.6,1.5-0.6,2,0S174.2,85.9,173.7,86.4z M177.7,82.4c-0.6,0.6-1.5,0.6-2,0
			c-0.6-0.6-0.6-1.5,0-2c0.6-0.6,1.5-0.6,2,0S178.2,81.8,177.7,82.4z M181.8,78.4c-0.6,0.6-1.5,0.6-2,0c-0.6-0.6-0.6-1.5,0-2
			c0.6-0.6,1.5-0.6,2,0C182.2,76.8,182.2,77.8,181.8,78.4z M185.8,74.4c-0.6,0.6-1.5,0.6-2,0c-0.6-0.6-0.6-1.5,0-2
			c0.6-0.6,1.5-0.6,2,0C186.2,72.8,186.2,73.8,185.8,74.4z"/>
	</g>
</g>
<g>
	<path id="svg-concept" class="hardware1" d="M1.1,167.8l72.3-72.3l72.3,72.3l-72.3,72.3L1.1,167.8z"/>
	<path class="hardware2" d="M115.1,170.5c-1.5,1.5-3.9,1.5-5.4,0s-1.5-3.9,0-5.4s3.9-1.5,5.4,0C116.5,166.5,116.6,168.9,115.1,170.5z
		 M76.1,209.5c-1.5,1.5-3.9,1.5-5.4,0s-1.5-3.9,0-5.4s3.9-1.5,5.4,0C77.6,205.5,77.6,207.9,76.1,209.5z"/>
	<path class="hardware3" d="M17.7,168l55.6-55.6L129,168l-55.6,55.6L17.7,168z"/>
	<path class="hardware2" d="M37.3,170.5c-1.5,1.5-3.9,1.5-5.4,0c-1.5-1.5-1.5-3.9,0-5.4c1.5-1.5,3.9-1.5,5.4,0
		C38.7,166.6,38.7,169.1,37.3,170.5z M76.1,131.5c-1.5,1.5-3.9,1.5-5.4,0s-1.5-3.9,0-5.4s3.9-1.5,5.4,0
		C77.6,127.7,77.6,130.1,76.1,131.5z"/>
	<g>
		<path class="hardware3" d="M51.1,167.9l22.2-22.2l22.2,22.2l-22.2,22.2L51.1,167.9z"/>
		<path class="hardware3" d="M58.4,168.8c-0.6,0.6-1.5,0.6-2,0c-0.6-0.6-0.6-1.5,0-2c0.6-0.6,1.5-0.6,2,0C59,167.4,59,168.3,58.4,168.8z
			 M62.4,164.8c-0.6,0.6-1.5,0.6-2,0c-0.6-0.6-0.6-1.5,0-2c0.6-0.6,1.5-0.6,2,0C63,163.3,63,164.2,62.4,164.8z M66.4,160.8
			c-0.6,0.6-1.5,0.6-2,0c-0.6-0.6-0.6-1.5,0-2c0.6-0.6,1.5-0.6,2,0C67,159.2,67,160.2,66.4,160.8z M70.4,156.8c-0.6,0.6-1.5,0.6-2,0
			c-0.6-0.6-0.6-1.5,0-2c0.6-0.6,1.5-0.6,2,0C71,155.2,71,156.2,70.4,156.8z M74.6,152.8c-0.6,0.6-1.5,0.6-2,0c-0.6-0.6-0.6-1.5,0-2
			c0.6-0.6,1.5-0.6,2,0C75,151.2,75,152.2,74.6,152.8z M62.4,172.8c-0.6,0.6-1.5,0.6-2,0c-0.6-0.6-0.6-1.5,0-2c0.6-0.6,1.5-0.6,2,0
			C63,171.4,63,172.3,62.4,172.8z M66.4,168.8c-0.6,0.6-1.5,0.6-2,0c-0.6-0.6-0.6-1.5,0-2c0.6-0.6,1.5-0.6,2,0
			C67,167.4,67,168.3,66.4,168.8z M70.6,164.8c-0.6,0.6-1.5,0.6-2,0c-0.6-0.6-0.6-1.5,0-2c0.6-0.6,1.5-0.6,2,0
			C71,163.4,71,164.3,70.6,164.8z M74.6,160.8c-0.6,0.6-1.5,0.6-2,0c-0.6-0.6-0.6-1.5,0-2c0.6-0.6,1.5-0.6,2,0
			C75,159.2,75,160.2,74.6,160.8z M78.6,156.8c-0.6,0.6-1.5,0.6-2,0c-0.6-0.6-0.6-1.5,0-2c0.6-0.6,1.5-0.6,2,0
			C79,155.2,79,156.2,78.6,156.8z M66.5,177c-0.6,0.6-1.5,0.6-2,0c-0.6-0.6-0.6-1.5,0-2c0.6-0.6,1.5-0.6,2,0
			C67,175.4,67,176.3,66.5,177z M70.6,172.8c-0.6,0.6-1.5,0.6-2,0c-0.6-0.6-0.6-1.5,0-2c0.6-0.6,1.5-0.6,2,0
			C71,171.4,71,172.3,70.6,172.8z M74.6,168.8c-0.6,0.6-1.5,0.6-2,0c-0.6-0.6-0.6-1.5,0-2c0.6-0.6,1.5-0.6,2,0S75,168.3,74.6,168.8z
			 M78.6,164.8c-0.6,0.6-1.5,0.6-2,0c-0.6-0.6-0.6-1.5,0-2c0.6-0.6,1.5-0.6,2,0C79,163.4,79,164.3,78.6,164.8z M82.6,160.8
			c-0.6,0.6-1.5,0.6-2,0c-0.6-0.6-0.6-1.5,0-2c0.6-0.6,1.5-0.6,2,0C83.2,159.4,83.2,160.3,82.6,160.8z M70.6,181
			c-0.6,0.6-1.5,0.6-2,0c-0.6-0.6-0.6-1.5,0-2c0.6-0.6,1.5-0.6,2,0C71,179.4,71,180.3,70.6,181z M74.6,177c-0.6,0.6-1.5,0.6-2,0
			c-0.6-0.6-0.6-1.5,0-2c0.6-0.6,1.5-0.6,2,0C75,175.4,75,176.3,74.6,177z"/>
		<path class="hardware3" d="M78.6,173c-0.6,0.6-1.5,0.6-2,0c-0.6-0.6-0.6-1.5,0-2c0.6-0.6,1.5-0.6,2,0C79.2,171.4,79.2,172.3,78.6,173z"
			/>
		<path class="hardware3" d="M82.6,168.8c-0.6,0.6-1.5,0.6-2,0c-0.6-0.6-0.6-1.5,0-2c0.6-0.6,1.5-0.6,2,0
			C83.2,167.4,83.2,168.3,82.6,168.8z M86.6,164.8c-0.6,0.6-1.5,0.6-2,0c-0.6-0.6-0.6-1.5,0-2c0.6-0.6,1.5-0.6,2,0
			C87.2,163.4,87.2,164.3,86.6,164.8z M74.6,185c-0.6,0.6-1.5,0.6-2,0c-0.6-0.6-0.6-1.5,0-2c0.6-0.6,1.5-0.6,2,0
			C75.2,183.4,75.2,184.4,74.6,185z M78.6,181c-0.6,0.6-1.5,0.6-2,0c-0.6-0.6-0.6-1.5,0-2c0.6-0.6,1.5-0.6,2,0
			C79.2,179.4,79.2,180.3,78.6,181z M82.6,177c-0.6,0.6-1.5,0.6-2,0c-0.6-0.6-0.6-1.5,0-2c0.6-0.6,1.5-0.6,2,0
			C83.2,175.4,83.2,176.3,82.6,177z M86.6,173c-0.6,0.6-1.5,0.6-2,0c-0.6-0.6-0.6-1.5,0-2c0.6-0.6,1.5-0.6,2,0
			C87.2,171.4,87.2,172.3,86.6,173z M90.6,168.9c-0.6,0.6-1.5,0.6-2,0c-0.6-0.6-0.6-1.5,0-2c0.6-0.6,1.5-0.6,2,0
			C91.2,167.4,91.2,168.3,90.6,168.9z"/>
	</g>
</g>
<g>
	<path id="svg-concept" class="hardware1" d="M854.8,262.5l72.3-72.3l72.3,72.3l-72.3,72.3L854.8,262.5z"/>
	<path class="hardware2" d="M968.8,265.1c-1.5,1.5-3.9,1.5-5.4,0s-1.5-3.9,0-5.4s3.9-1.5,5.4,0S970.3,263.5,968.8,265.1z M929.8,304
		c-1.5,1.5-3.9,1.5-5.4,0s-1.5-3.9,0-5.4s3.9-1.5,5.4,0C931.3,300.2,931.3,302.5,929.8,304z"/>
	<path class="hardware3" d="M871.4,262.4l55.6-55.6l55.6,55.6l-55.6,55.6L871.4,262.4z"/>
	<path class="hardware2" d="M891,265.2c-1.5,1.5-3.9,1.5-5.4,0s-1.5-3.9,0-5.4s3.9-1.5,5.4,0C892.4,261.2,892.4,263.7,891,265.2z
		 M930,226.2c-1.5,1.5-3.9,1.5-5.4,0s-1.5-3.9,0-5.4s3.9-1.5,5.4,0C931.3,222.2,931.3,224.7,930,226.2z"/>
	<g>
		<path class="hardware3" d="M904.8,262.5l22.2-22.2l22.2,22.2L927,284.7L904.8,262.5z"/>
		<path class="hardware3" d="M912.1,263.4c-0.6,0.6-1.5,0.6-2,0c-0.6-0.6-0.6-1.5,0-2c0.6-0.6,1.5-0.6,2,0
			C912.7,262,912.7,262.9,912.1,263.4z M916.3,259.4c-0.6,0.6-1.5,0.6-2,0c-0.6-0.6-0.6-1.5,0-2c0.6-0.6,1.5-0.6,2,0
			C916.7,258,916.7,258.9,916.3,259.4z M920.3,255.4c-0.6,0.6-1.5,0.6-2,0c-0.6-0.6-0.6-1.5,0-2c0.6-0.6,1.5-0.6,2,0
			C920.7,254,920.7,254.9,920.3,255.4z M924.3,251.3c-0.6,0.6-1.5,0.6-2,0c-0.6-0.6-0.6-1.5,0-2c0.6-0.6,1.5-0.6,2,0
			C924.7,250,924.7,250.9,924.3,251.3z M928.3,247.3c-0.6,0.6-1.5,0.6-2,0c-0.6-0.6-0.6-1.5,0-2c0.6-0.6,1.5-0.6,2,0
			C928.7,246,928.7,246.7,928.3,247.3z M916.3,267.5c-0.6,0.6-1.5,0.6-2,0c-0.6-0.6-0.6-1.5,0-2c0.6-0.6,1.5-0.6,2,0
			C916.7,266,916.7,266.9,916.3,267.5z M920.3,263.5c-0.6,0.6-1.5,0.6-2,0c-0.6-0.6-0.6-1.5,0-2c0.6-0.6,1.5-0.6,2,0
			C920.7,262,920.7,262.9,920.3,263.5z M924.3,259.4c-0.6,0.6-1.5,0.6-2,0c-0.6-0.6-0.6-1.5,0-2c0.6-0.6,1.5-0.6,2,0
			S924.7,258.9,924.3,259.4z M928.3,255.4c-0.6,0.6-1.5,0.6-2,0c-0.6-0.6-0.6-1.5,0-2c0.6-0.6,1.5-0.6,2,0
			C928.9,254,928.9,254.9,928.3,255.4z M932.3,251.3c-0.6,0.6-1.5,0.6-2,0c-0.6-0.6-0.6-1.5,0-2c0.6-0.6,1.5-0.6,2,0
			C932.9,250,932.9,250.9,932.3,251.3z M920.3,271.5c-0.6,0.6-1.5,0.6-2,0c-0.6-0.6-0.6-1.5,0-2c0.6-0.6,1.5-0.6,2,0
			C920.7,270,920.7,270.9,920.3,271.5z M924.3,267.5c-0.6,0.6-1.5,0.6-2,0c-0.6-0.6-0.6-1.5,0-2c0.6-0.6,1.5-0.6,2,0
			C924.9,266,924.9,266.9,924.3,267.5z M928.3,263.5c-0.6,0.6-1.5,0.6-2,0c-0.6-0.6-0.6-1.5,0-2c0.6-0.6,1.5-0.6,2,0
			C928.9,262,928.9,262.9,928.3,263.5z M932.3,259.5c-0.6,0.6-1.5,0.6-2,0c-0.6-0.6-0.6-1.5,0-2c0.6-0.6,1.5-0.6,2,0
			C932.9,258,932.9,258.9,932.3,259.5z M936.3,255.4c-0.6,0.6-1.5,0.6-2,0c-0.6-0.6-0.6-1.5,0-2c0.6-0.6,1.5-0.6,2,0
			C936.9,254,936.9,254.9,936.3,255.4z M924.3,275.5c-0.6,0.6-1.5,0.6-2,0c-0.6-0.6-0.6-1.5,0-2c0.6-0.6,1.5-0.6,2,0
			C924.9,274,924.9,274.9,924.3,275.5z M928.3,271.5c-0.6,0.6-1.5,0.6-2,0c-0.6-0.6-0.6-1.5,0-2c0.6-0.6,1.5-0.6,2,0
			C928.9,270,928.9,270.9,928.3,271.5z M932.3,267.5c-0.6,0.6-1.5,0.6-2,0c-0.6-0.6-0.6-1.5,0-2c0.6-0.6,1.5-0.6,2,0
			C932.9,266,932.9,266.9,932.3,267.5z M936.3,263.5c-0.6,0.6-1.5,0.6-2,0c-0.6-0.6-0.6-1.5,0-2c0.6-0.6,1.5-0.6,2,0
			C936.9,262,936.9,262.9,936.3,263.5z M940.3,259.5c-0.6,0.6-1.5,0.6-2,0c-0.6-0.6-0.6-1.5,0-2c0.6-0.6,1.5-0.6,2,0
			C940.9,258,940.9,258.9,940.3,259.5z M928.3,279.5c-0.6,0.6-1.5,0.6-2,0c-0.6-0.6-0.6-1.5,0-2c0.6-0.6,1.5-0.6,2,0
			C928.9,278.1,928.9,278.9,928.3,279.5z M932.3,275.5c-0.6,0.6-1.5,0.6-2,0c-0.6-0.6-0.6-1.5,0-2c0.6-0.6,1.5-0.6,2,0
			C932.9,274,932.9,274.9,932.3,275.5z M936.3,271.5c-0.6,0.6-1.5,0.6-2,0c-0.6-0.6-0.6-1.5,0-2c0.6-0.6,1.5-0.6,2,0
			C936.9,270,936.9,270.9,936.3,271.5z M940.3,267.5c-0.6,0.6-1.5,0.6-2,0c-0.6-0.6-0.6-1.5,0-2c0.6-0.6,1.5-0.6,2,0
			C940.9,266,940.9,266.9,940.3,267.5z M944.3,263.5c-0.6,0.6-1.5,0.6-2,0c-0.6-0.6-0.6-1.5,0-2c0.6-0.6,1.5-0.6,2,0
			C944.9,262,944.9,262.9,944.3,263.5z"/>
	</g>
</g>
<g>
	<path id="svg-concept" class="hardware1" d="M949.4,167.8l72.3-72.3l72.3,72.3l-72.3,72.3L949.4,167.8z"/>
	<path class="hardware2" d="M1063.3,170.5c-1.5,1.5-3.9,1.5-5.4,0s-1.5-3.9,0-5.4s3.9-1.5,5.4,0C1064.9,166.5,1064.9,168.9,1063.3,170.5z
		 M1024.4,209.5c-1.5,1.5-3.9,1.5-5.4,0s-1.5-3.9,0-5.4s3.9-1.5,5.4,0C1025.9,205.5,1025.9,207.9,1024.4,209.5z"/>
	<path class="hardware3" d="M966,168l55.6-55.6l55.6,55.6l-55.6,55.6L966,168z"/>
	<path class="hardware2" d="M985.6,170.5c-1.5,1.5-3.9,1.5-5.4,0s-1.5-3.9,0-5.4s3.9-1.5,5.4,0C986.9,166.6,986.9,169.1,985.6,170.5z
		 M1024.4,131.5c-1.5,1.5-3.9,1.5-5.4,0s-1.5-3.9,0-5.4s3.9-1.5,5.4,0S1025.9,130.1,1024.4,131.5z"/>
	<g>
		<path class="hardware3" d="M999.5,167.8l22.2-22.2l22.2,22.2l-22.2,22.2L999.5,167.8z"/>
		<path class="hardware3" d="M1006.7,168.8c-0.6,0.6-1.5,0.6-2,0c-0.6-0.6-0.6-1.5,0-2c0.6-0.6,1.5-0.6,2,0
			C1007.3,167.4,1007.3,168.3,1006.7,168.8z M1010.7,164.8c-0.6,0.6-1.5,0.6-2,0c-0.6-0.6-0.6-1.5,0-2c0.6-0.6,1.5-0.6,2,0
			C1011.3,163.3,1011.3,164.2,1010.7,164.8z M1014.7,160.8c-0.6,0.6-1.5,0.6-2,0c-0.6-0.6-0.6-1.5,0-2c0.6-0.6,1.5-0.6,2,0
			C1015.3,159.2,1015.3,160.2,1014.7,160.8z M1018.8,156.8c-0.6,0.6-1.5,0.6-2,0c-0.6-0.6-0.6-1.5,0-2c0.6-0.6,1.5-0.6,2,0
			C1019.3,155.2,1019.3,156.2,1018.8,156.8z M1022.8,152.8c-0.6,0.6-1.5,0.6-2,0c-0.6-0.6-0.6-1.5,0-2c0.6-0.6,1.5-0.6,2,0
			C1023.3,151.2,1023.3,152.2,1022.8,152.8z M1010.7,172.8c-0.6,0.6-1.5,0.6-2,0c-0.6-0.6-0.6-1.5,0-2c0.6-0.6,1.5-0.6,2,0
			C1011.3,171.4,1011.3,172.3,1010.7,172.8z M1014.8,168.8c-0.6,0.6-1.5,0.6-2,0c-0.6-0.6-0.6-1.5,0-2c0.6-0.6,1.5-0.6,2,0
			S1015.3,168.3,1014.8,168.8z M1018.8,164.8c-0.6,0.6-1.5,0.6-2,0c-0.6-0.6-0.6-1.5,0-2c0.6-0.6,1.5-0.6,2,0
			S1019.3,164.3,1018.8,164.8z M1022.8,160.8c-0.6,0.6-1.5,0.6-2,0c-0.6-0.6-0.6-1.5,0-2c0.6-0.6,1.5-0.6,2,0
			C1023.3,159.2,1023.3,160.2,1022.8,160.8z M1026.8,156.8c-0.6,0.6-1.5,0.6-2,0c-0.6-0.6-0.6-1.5,0-2c0.6-0.6,1.5-0.6,2,0
			C1027.3,155.2,1027.3,156.2,1026.8,156.8z M1014.8,177c-0.6,0.6-1.5,0.6-2,0c-0.6-0.6-0.6-1.5,0-2c0.6-0.6,1.5-0.6,2,0
			C1015.3,175.4,1015.3,176.3,1014.8,177z M1018.8,172.8c-0.6,0.6-1.5,0.6-2,0c-0.6-0.6-0.6-1.5,0-2c0.6-0.6,1.5-0.6,2,0
			S1019.3,172.3,1018.8,172.8z M1022.8,168.8c-0.6,0.6-1.5,0.6-2,0c-0.6-0.6-0.6-1.5,0-2c0.6-0.6,1.5-0.6,2,0
			S1023.4,168.3,1022.8,168.8z M1026.8,164.8c-0.6,0.6-1.5,0.6-2,0c-0.6-0.6-0.6-1.5,0-2c0.6-0.6,1.5-0.6,2,0
			C1027.5,163.4,1027.5,164.3,1026.8,164.8z M1030.8,160.8c-0.6,0.6-1.5,0.6-2,0c-0.6-0.6-0.6-1.5,0-2c0.6-0.6,1.5-0.6,2,0
			C1031.5,159.4,1031.5,160.3,1030.8,160.8z M1018.8,181c-0.6,0.6-1.5,0.6-2,0c-0.6-0.6-0.6-1.5,0-2c0.6-0.6,1.5-0.6,2,0
			C1019.3,179.4,1019.4,180.3,1018.8,181z M1022.8,177c-0.6,0.6-1.5,0.6-2,0c-0.6-0.6-0.6-1.5,0-2c0.6-0.6,1.5-0.6,2,0
			C1023.4,175.4,1023.4,176.3,1022.8,177z M1026.8,173c-0.6,0.6-1.5,0.6-2,0c-0.6-0.6-0.6-1.5,0-2c0.6-0.6,1.5-0.6,2,0
			C1027.5,171.4,1027.5,172.3,1026.8,173z M1030.8,168.8c-0.6,0.6-1.5,0.6-2,0c-0.6-0.6-0.6-1.5,0-2c0.6-0.6,1.5-0.6,2,0
			C1031.5,167.4,1031.5,168.3,1030.8,168.8z M1034.8,164.8c-0.6,0.6-1.5,0.6-2,0c-0.6-0.6-0.6-1.5,0-2c0.6-0.6,1.5-0.6,2,0
			C1035.5,163.4,1035.5,164.3,1034.8,164.8z M1022.8,185c-0.6,0.6-1.5,0.6-2,0c-0.6-0.6-0.6-1.5,0-2c0.6-0.6,1.5-0.6,2,0
			C1023.4,183.4,1023.4,184.4,1022.8,185z M1026.8,181c-0.6,0.6-1.5,0.6-2,0c-0.6-0.6-0.6-1.5,0-2c0.6-0.6,1.5-0.6,2,0
			C1027.5,179.4,1027.5,180.3,1026.8,181z M1030.8,177c-0.6,0.6-1.5,0.6-2,0c-0.6-0.6-0.6-1.5,0-2c0.6-0.6,1.5-0.6,2,0
			C1031.5,175.4,1031.5,176.3,1030.8,177z M1034.8,173c-0.6,0.6-1.5,0.6-2,0c-0.6-0.6-0.6-1.5,0-2c0.6-0.6,1.5-0.6,2,0
			C1035.5,171.4,1035.5,172.3,1034.8,173z M1038.8,168.9c-0.6,0.6-1.5,0.6-2,0c-0.6-0.6-0.6-1.5,0-2c0.6-0.6,1.5-0.6,2,0
			C1039.5,167.4,1039.5,168.3,1038.8,168.9z"/>
	</g>
</g>
<g>
	<path id="svg-concept" class="hardware4" d="M665.1,73.6l72.3-72.3l72.3,72.3l-72.3,72.3L665.1,73.6z"/>
	<path class="hardware2" d="M779.2,75.9c-1.5,1.5-3.9,1.5-5.4,0s-1.5-3.9,0-5.4s3.9-1.5,5.4,0C780.6,72.1,780.6,74.5,779.2,75.9z
		 M740.2,114.9c-1.5,1.5-3.9,1.5-5.4,0s-1.5-3.9,0-5.4s3.9-1.5,5.4,0C741.6,111,741.6,113.3,740.2,114.9z"/>
	<path class="hardware3" d="M681.9,73.4l55.6-55.6l55.6,55.6L737.5,129L681.9,73.4z"/>
	<path class="hardware2" d="M701.2,76.1c-1.5,1.5-3.9,1.5-5.4,0s-1.5-3.9,0-5.4s3.9-1.5,5.4,0C702.8,72.1,702.8,74.5,701.2,76.1z
		 M740.2,37.1c-1.5,1.5-3.9,1.5-5.4,0s-1.5-3.9,0-5.4c1.5-1.5,3.9-1.5,5.4,0C741.8,33.1,741.8,35.6,740.2,37.1z"/>
	<path id="svg-concept" class="hardware5" d="M715.3,73.3l22.2-22.2l22.2,22.2l-22.2,22.2L715.3,73.3z"/>
	<path id="svg-concept" class="hardware5" d="M722.5,74.4c-0.6,0.6-1.5,0.6-2,0c-0.6-0.6-0.6-1.5,0-2c0.6-0.6,1.5-0.6,2,0
		C723.1,72.8,723.1,73.8,722.5,74.4z M726.5,70.4c-0.6,0.6-1.5,0.6-2,0c-0.6-0.6-0.6-1.5,0-2c0.6-0.6,1.5-0.6,2,0
		C727.1,68.8,727.1,69.8,726.5,70.4z M730.5,66.2c-0.6,0.6-1.5,0.6-2,0c-0.6-0.6-0.6-1.5,0-2c0.6-0.6,1.5-0.6,2,0
		C731.1,64.8,731.1,65.8,730.5,66.2z M734.5,62.2c-0.6,0.6-1.5,0.6-2,0c-0.6-0.6-0.6-1.5,0-2c0.6-0.6,1.5-0.6,2,0
		C735.1,60.8,735.1,61.8,734.5,62.2z M738.5,58.2c-0.6,0.6-1.5,0.6-2,0c-0.6-0.6-0.6-1.5,0-2c0.6-0.6,1.5-0.6,2,0
		C739.1,56.8,739.1,57.7,738.5,58.2z M726.5,78.4c-0.6,0.6-1.5,0.6-2,0c-0.6-0.6-0.6-1.5,0-2c0.6-0.6,1.5-0.6,2,0
		C727.1,76.8,727.1,77.8,726.5,78.4z M730.5,74.4c-0.6,0.6-1.5,0.6-2,0c-0.6-0.6-0.6-1.5,0-2c0.6-0.6,1.5-0.6,2,0
		C731.1,72.8,731.1,73.8,730.5,74.4z M734.5,70.4c-0.6,0.6-1.5,0.6-2,0c-0.6-0.6-0.6-1.5,0-2c0.6-0.6,1.5-0.6,2,0
		C735.1,68.8,735.1,69.8,734.5,70.4z M738.5,66.4c-0.6,0.6-1.5,0.6-2,0c-0.6-0.6-0.6-1.5,0-2c0.6-0.6,1.5-0.6,2,0
		C739.1,64.8,739.1,65.8,738.5,66.4z M742.7,62.2c-0.6,0.6-1.5,0.6-2,0c-0.6-0.6-0.6-1.5,0-2c0.6-0.6,1.5-0.6,2,0
		S743.1,61.8,742.7,62.2z M730.5,82.4c-0.6,0.6-1.5,0.6-2,0c-0.6-0.6-0.6-1.5,0-2c0.6-0.6,1.5-0.6,2,0
		C731.1,80.9,731.1,81.8,730.5,82.4z M734.5,78.4c-0.6,0.6-1.5,0.6-2,0c-0.6-0.6-0.6-1.5,0-2c0.6-0.6,1.5-0.6,2,0
		C735.1,76.8,735.1,77.8,734.5,78.4z M738.7,74.4c-0.6,0.6-1.5,0.6-2,0c-0.6-0.6-0.6-1.5,0-2c0.6-0.6,1.5-0.6,2,0
		C739.1,72.8,739.1,73.8,738.7,74.4z M742.7,70.4c-0.6,0.6-1.5,0.6-2,0c-0.6-0.6-0.6-1.5,0-2c0.6-0.6,1.5-0.6,2,0
		C743.1,68.8,743.1,69.8,742.7,70.4z M746.7,66.4c-0.6,0.6-1.5,0.6-2,0c-0.6-0.6-0.6-1.5,0-2c0.6-0.6,1.5-0.6,2,0
		C747.1,64.8,747.1,65.8,746.7,66.4z M734.7,86.4c-0.6,0.6-1.5,0.6-2,0c-0.6-0.6-0.6-1.5,0-2c0.6-0.6,1.5-0.6,2,0
		C735.1,85,735.1,85.8,734.7,86.4z M738.7,82.4c-0.6,0.6-1.5,0.6-2,0c-0.6-0.6-0.6-1.5,0-2c0.6-0.6,1.5-0.6,2,0
		C739.1,80.9,739.1,81.8,738.7,82.4z M742.7,78.4c-0.6,0.6-1.5,0.6-2,0c-0.6-0.6-0.6-1.5,0-2c0.6-0.6,1.5-0.6,2,0
		C743.1,76.8,743.1,77.8,742.7,78.4z M746.7,74.4c-0.6,0.6-1.5,0.6-2,0c-0.6-0.6-0.6-1.5,0-2c0.6-0.6,1.5-0.6,2,0
		C747.1,72.8,747.1,73.8,746.7,74.4z M750.7,70.4c-0.6,0.6-1.5,0.6-2,0c-0.6-0.6-0.6-1.5,0-2c0.6-0.6,1.5-0.6,2,0
		C751.3,68.8,751.3,69.8,750.7,70.4z M738.7,90.4c-0.6,0.6-1.5,0.6-2,0c-0.6-0.6-0.6-1.5,0-2c0.6-0.6,1.5-0.6,2,0
		C739.1,89,739.1,89.9,738.7,90.4z M742.7,86.4c-0.6,0.6-1.5,0.6-2,0c-0.6-0.6-0.6-1.5,0-2c0.6-0.6,1.5-0.6,2,0
		S743.1,85.9,742.7,86.4z M746.7,82.4c-0.6,0.6-1.5,0.6-2,0c-0.6-0.6-0.6-1.5,0-2c0.6-0.6,1.5-0.6,2,0
		C747.3,81,747.3,81.8,746.7,82.4z M750.7,78.4c-0.6,0.6-1.5,0.6-2,0c-0.6-0.6-0.6-1.5,0-2c0.6-0.6,1.5-0.6,2,0
		C751.3,76.8,751.3,77.8,750.7,78.4z M754.7,74.4c-0.6,0.6-1.5,0.6-2,0c-0.6-0.6-0.6-1.5,0-2c0.6-0.6,1.5-0.6,2,0
		C755.3,72.8,755.3,73.8,754.7,74.4z"/>
</g>
<g>
	<path id="svg-concept_24_" class="hardware1" d="M854.9,73.5l72.3-72.3l72.3,72.3l-72.3,72.3L854.9,73.5z"/>
	<path class="hardware2" d="M968.8,75.9c-1.5,1.5-3.9,1.5-5.4,0s-1.5-3.9,0-5.4s3.9-1.5,5.4,0S970.3,74.5,968.8,75.9z M929.8,114.9
		c-1.5,1.5-3.9,1.5-5.4,0s-1.5-3.9,0-5.4s3.9-1.5,5.4,0S931.3,113.3,929.8,114.9z"/>
	<path class="hardware3" d="M871.4,73.4L927,17.8l55.6,55.6L927,129.1L871.4,73.4z"/>
	<path class="hardware2" d="M891,76.1c-1.5,1.5-3.9,1.5-5.4,0s-1.5-3.9,0-5.4s3.9-1.5,5.4,0C892.4,72.1,892.4,74.5,891,76.1z M930,37.1
		c-1.5,1.5-3.9,1.5-5.4,0s-1.5-3.9,0-5.4c1.5-1.5,3.9-1.5,5.4,0C931.3,33.1,931.3,35.6,930,37.1z"/>
	<g>
		<path class="hardware3" d="M904.8,73.4L927,51.2l22.2,22.2L927,95.6L904.8,73.4z"/>
		<path class="hardware3" d="M912.1,74.4c-0.6,0.6-1.5,0.6-2,0c-0.6-0.6-0.6-1.5,0-2c0.6-0.6,1.5-0.6,2,0
			C912.7,72.8,912.7,73.8,912.1,74.4z M916.3,70.4c-0.6,0.6-1.5,0.6-2,0c-0.6-0.6-0.6-1.5,0-2c0.6-0.6,1.5-0.6,2,0
			C916.7,68.8,916.7,69.8,916.3,70.4z M920.3,66.2c-0.6,0.6-1.5,0.6-2,0c-0.6-0.6-0.6-1.5,0-2c0.6-0.6,1.5-0.6,2,0
			C920.7,64.8,920.7,65.8,920.3,66.2z M924.3,62.2c-0.6,0.6-1.5,0.6-2,0c-0.6-0.6-0.6-1.5,0-2c0.6-0.6,1.5-0.6,2,0
			S924.7,61.8,924.3,62.2z M928.3,58.2c-0.6,0.6-1.5,0.6-2,0c-0.6-0.6-0.6-1.5,0-2c0.6-0.6,1.5-0.6,2,0S928.7,57.7,928.3,58.2z
			 M916.3,78.4c-0.6,0.6-1.5,0.6-2,0c-0.6-0.6-0.6-1.5,0-2c0.6-0.6,1.5-0.6,2,0C916.7,76.8,916.7,77.8,916.3,78.4z M920.3,74.4
			c-0.6,0.6-1.5,0.6-2,0c-0.6-0.6-0.6-1.5,0-2c0.6-0.6,1.5-0.6,2,0C920.7,72.8,920.7,73.8,920.3,74.4z M924.3,70.4
			c-0.6,0.6-1.5,0.6-2,0c-0.6-0.6-0.6-1.5,0-2c0.6-0.6,1.5-0.6,2,0C924.7,68.8,924.7,69.8,924.3,70.4z M928.3,66.4
			c-0.6,0.6-1.5,0.6-2,0c-0.6-0.6-0.6-1.5,0-2c0.6-0.6,1.5-0.6,2,0C928.9,64.8,928.9,65.8,928.3,66.4z M932.3,62.2
			c-0.6,0.6-1.5,0.6-2,0c-0.6-0.6-0.6-1.5,0-2c0.6-0.6,1.5-0.6,2,0C932.9,60.8,932.9,61.8,932.3,62.2z M920.3,82.4
			c-0.6,0.6-1.5,0.6-2,0c-0.6-0.6-0.6-1.5,0-2c0.6-0.6,1.5-0.6,2,0C920.7,80.9,920.7,81.8,920.3,82.4z M924.3,78.4
			c-0.6,0.6-1.5,0.6-2,0c-0.6-0.6-0.6-1.5,0-2c0.6-0.6,1.5-0.6,2,0C924.9,76.8,924.9,77.8,924.3,78.4z M928.3,74.4
			c-0.6,0.6-1.5,0.6-2,0c-0.6-0.6-0.6-1.5,0-2c0.6-0.6,1.5-0.6,2,0C928.9,72.8,928.9,73.8,928.3,74.4z M932.3,70.4
			c-0.6,0.6-1.5,0.6-2,0c-0.6-0.6-0.6-1.5,0-2c0.6-0.6,1.5-0.6,2,0C932.9,68.8,932.9,69.8,932.3,70.4z M936.3,66.4
			c-0.6,0.6-1.5,0.6-2,0c-0.6-0.6-0.6-1.5,0-2c0.6-0.6,1.5-0.6,2,0C936.9,64.8,936.9,65.8,936.3,66.4z M924.3,86.4
			c-0.6,0.6-1.5,0.6-2,0c-0.6-0.6-0.6-1.5,0-2c0.6-0.6,1.5-0.6,2,0C924.9,85,924.9,85.8,924.3,86.4z M928.3,82.4
			c-0.6,0.6-1.5,0.6-2,0c-0.6-0.6-0.6-1.5,0-2c0.6-0.6,1.5-0.6,2,0C928.9,80.9,928.9,81.8,928.3,82.4z M932.3,78.4
			c-0.6,0.6-1.5,0.6-2,0c-0.6-0.6-0.6-1.5,0-2c0.6-0.6,1.5-0.6,2,0C932.9,76.8,932.9,77.8,932.3,78.4z M936.3,74.4
			c-0.6,0.6-1.5,0.6-2,0c-0.6-0.6-0.6-1.5,0-2c0.6-0.6,1.5-0.6,2,0C936.9,72.8,936.9,73.8,936.3,74.4z M940.3,70.4
			c-0.6,0.6-1.5,0.6-2,0c-0.6-0.6-0.6-1.5,0-2c0.6-0.6,1.5-0.6,2,0C940.9,68.8,940.9,69.8,940.3,70.4z M928.3,90.4
			c-0.6,0.6-1.5,0.6-2,0c-0.6-0.6-0.6-1.5,0-2c0.6-0.6,1.5-0.6,2,0C928.9,89,928.9,89.9,928.3,90.4z M932.3,86.4
			c-0.6,0.6-1.5,0.6-2,0c-0.6-0.6-0.6-1.5,0-2c0.6-0.6,1.5-0.6,2,0C932.9,85,932.9,85.9,932.3,86.4z M936.3,82.4
			c-0.6,0.6-1.5,0.6-2,0c-0.6-0.6-0.6-1.5,0-2c0.6-0.6,1.5-0.6,2,0C936.9,81,936.9,81.8,936.3,82.4z M940.3,78.4
			c-0.6,0.6-1.5,0.6-2,0c-0.6-0.6-0.6-1.5,0-2c0.6-0.6,1.5-0.6,2,0C940.9,76.8,940.9,77.8,940.3,78.4z M944.3,74.4
			c-0.6,0.6-1.5,0.6-2,0c-0.6-0.6-0.6-1.5,0-2c0.6-0.6,1.5-0.6,2,0C944.9,72.8,944.9,73.8,944.3,74.4z"/>
	</g>
</g>
<g>
	<path id="svg-concept_25_" class="hardware1" d="M759.6,167.9l72.3-72.3l72.3,72.3l-72.3,72.3L759.6,167.9z"/>
	<path class="hardware2" d="M873.6,170.5c-1.5,1.5-3.9,1.5-5.4,0s-1.5-3.9,0-5.4s3.9-1.5,5.4,0C875.1,166.5,875.1,168.9,873.6,170.5z
		 M834.8,209.5c-1.5,1.5-3.9,1.5-5.4,0s-1.5-3.9,0-5.4s3.9-1.5,5.4,0C836.2,205.5,836.2,207.9,834.8,209.5z"/>
	<path class="hardware3" d="M776.5,167.9l55.6-55.6l55.6,55.6l-55.6,55.6L776.5,167.9z"/>
	<path class="hardware2" d="M795.8,170.5c-1.5,1.5-3.9,1.5-5.4,0s-1.5-3.9,0-5.4s3.9-1.5,5.4,0C797.4,166.6,797.4,169.1,795.8,170.5z
		 M834.8,131.5c-1.5,1.5-3.9,1.5-5.4,0s-1.5-3.9,0-5.4s3.9-1.5,5.4,0C836.3,127.7,836.3,130.1,834.8,131.5z"/>
	<g>
		<path class="hardware3" d="M810,167.8l22.2-22.2l22.2,22.2L832.2,190L810,167.8z"/>
		<path class="hardware3" d="M817.1,168.8c-0.6,0.6-1.5,0.6-2,0c-0.6-0.6-0.6-1.5,0-2c0.6-0.6,1.5-0.6,2,0
			C817.7,167.4,817.7,168.3,817.1,168.8z M821.1,164.8c-0.6,0.6-1.5,0.6-2,0c-0.6-0.6-0.6-1.5,0-2c0.6-0.6,1.5-0.6,2,0
			C821.7,163.3,821.7,164.2,821.1,164.8z M825.1,160.8c-0.6,0.6-1.5,0.6-2,0c-0.6-0.6-0.6-1.5,0-2c0.6-0.6,1.5-0.6,2,0
			C825.7,159.2,825.7,160.2,825.1,160.8z M829.1,156.8c-0.6,0.6-1.5,0.6-2,0c-0.6-0.6-0.6-1.5,0-2c0.6-0.6,1.5-0.6,2,0
			C829.7,155.2,829.7,156.2,829.1,156.8z M833.1,152.8c-0.6,0.6-1.5,0.6-2,0c-0.6-0.6-0.6-1.5,0-2c0.6-0.6,1.5-0.6,2,0
			C833.7,151.2,833.7,152.2,833.1,152.8z M821.1,172.8c-0.6,0.6-1.5,0.6-2,0c-0.6-0.6-0.6-1.5,0-2c0.6-0.6,1.5-0.6,2,0
			C821.7,171.4,821.7,172.3,821.1,172.8z M825.1,168.8c-0.6,0.6-1.5,0.6-2,0c-0.6-0.6-0.6-1.5,0-2c0.6-0.6,1.5-0.6,2,0
			C825.7,167.4,825.7,168.3,825.1,168.8z M829.1,164.8c-0.6,0.6-1.5,0.6-2,0c-0.6-0.6-0.6-1.5,0-2c0.6-0.6,1.5-0.6,2,0
			C829.7,163.4,829.7,164.3,829.1,164.8z M833.1,160.8c-0.6,0.6-1.5,0.6-2,0c-0.6-0.6-0.6-1.5,0-2c0.6-0.6,1.5-0.6,2,0
			C833.7,159.2,833.7,160.2,833.1,160.8z M837.1,156.8c-0.6,0.6-1.5,0.6-2,0c-0.6-0.6-0.6-1.5,0-2c0.6-0.6,1.5-0.6,2,0
			C837.7,155.2,837.7,156.2,837.1,156.8z M825.1,177c-0.6,0.6-1.5,0.6-2,0c-0.6-0.6-0.6-1.5,0-2c0.6-0.6,1.5-0.6,2,0
			C825.7,175.4,825.7,176.3,825.1,177z M829.1,172.8c-0.6,0.6-1.5,0.6-2,0c-0.6-0.6-0.6-1.5,0-2c0.6-0.6,1.5-0.6,2,0
			C829.7,171.4,829.7,172.3,829.1,172.8z M833.1,168.8c-0.6,0.6-1.5,0.6-2,0c-0.6-0.6-0.6-1.5,0-2c0.6-0.6,1.5-0.6,2,0
			C833.7,167.4,833.7,168.3,833.1,168.8z M837.1,164.8c-0.6,0.6-1.5,0.6-2,0c-0.6-0.6-0.6-1.5,0-2c0.6-0.6,1.5-0.6,2,0
			C837.7,163.4,837.7,164.3,837.1,164.8z M841.2,160.8c-0.6,0.6-1.5,0.6-2,0c-0.6-0.6-0.6-1.5,0-2c0.6-0.6,1.5-0.6,2,0
			S841.7,160.3,841.2,160.8z M829.1,181c-0.6,0.6-1.5,0.6-2,0c-0.6-0.6-0.6-1.5,0-2c0.6-0.6,1.5-0.6,2,0
			C829.7,179.4,829.7,180.3,829.1,181z M833.1,177c-0.6,0.6-1.5,0.6-2,0c-0.6-0.6-0.6-1.5,0-2c0.6-0.6,1.5-0.6,2,0
			C833.7,175.4,833.7,176.3,833.1,177z M837.2,173c-0.6,0.6-1.5,0.6-2,0c-0.6-0.6-0.6-1.5,0-2c0.6-0.6,1.5-0.6,2,0
			C837.7,171.4,837.7,172.3,837.2,173z M841.2,168.8c-0.6,0.6-1.5,0.6-2,0c-0.6-0.6-0.6-1.5,0-2c0.6-0.6,1.5-0.6,2,0
			S841.7,168.3,841.2,168.8z M845.3,164.8c-0.6,0.6-1.5,0.6-2,0c-0.6-0.6-0.6-1.5,0-2c0.6-0.6,1.5-0.6,2,0
			C845.7,163.4,845.7,164.3,845.3,164.8z M833.2,185c-0.6,0.6-1.5,0.6-2,0c-0.6-0.6-0.6-1.5,0-2c0.6-0.6,1.5-0.6,2,0
			C833.7,183.4,833.7,184.4,833.2,185z M837.2,181c-0.6,0.6-1.5,0.6-2,0c-0.6-0.6-0.6-1.5,0-2c0.6-0.6,1.5-0.6,2,0
			C837.7,179.4,837.7,180.3,837.2,181z M841.2,177c-0.6,0.6-1.5,0.6-2,0c-0.6-0.6-0.6-1.5,0-2c0.6-0.6,1.5-0.6,2,0
			C841.7,175.4,841.7,176.3,841.2,177z M845.3,173c-0.6,0.6-1.5,0.6-2,0c-0.6-0.6-0.6-1.5,0-2c0.6-0.6,1.5-0.6,2,0
			C845.7,171.4,845.9,172.3,845.3,173z M849.3,168.9c-0.6,0.6-1.5,0.6-2,0c-0.6-0.6-0.6-1.5,0-2c0.6-0.6,1.5-0.6,2,0
			C849.9,167.4,849.9,168.3,849.3,168.9z"/>
	</g>
	
		<animateMotion  accumulate="none" additive="replace" begin="1s" calcMode="paced" dur="2s" fill="freeze" path="M0, 25 0 0" restart="always">
		</animateMotion>
</g>
</svg>
