<?xml version="1.0" encoding="utf-8"?>
<!-- Generator: Adobe Illustrator 24.3.0, SVG Export Plug-In . SVG Version: 6.00 Build 0)  -->
<svg version="1.1" id="Layer_1" xmlns="http://www.w3.org/2000/svg" xmlns:xlink="http://www.w3.org/1999/xlink" x="0px" y="0px"
	 viewBox="0 0 1100.6 600.5" style="enable-background:new 0 0 1100.6 600.5;" xml:space="preserve">
<style type="text/css">
	.iptv0{fill:none;stroke:#808080;stroke-linecap:round;stroke-linejoin:round;stroke-miterlimit:10;}
	.iptv1{fill:none;stroke:#EE5586;stroke-width:2;stroke-linecap:round;stroke-linejoin:round;stroke-miterlimit:10;}
	.iptv2{fill:none;stroke:#808080;stroke-width:3;stroke-linecap:round;stroke-linejoin:round;stroke-miterlimit:10;}
	.iptv3{fill:none;stroke:#808080;stroke-width:2;stroke-linecap:round;stroke-linejoin:round;stroke-miterlimit:10;}
	.iptv4{fill:none;stroke:#EE5586;stroke-width:3;stroke-linecap:round;stroke-linejoin:round;stroke-miterlimit:10;}
	.iptv5{fill:none;stroke:#EE5586;stroke-linecap:round;stroke-linejoin:round;stroke-miterlimit:10;}
	.iptv6{fill:#EE5586;}
</style>
<path class="iptv0" d="M169.6,178.6c-1.7,0-3-1.3-3-3s1.3-3,3-3s3,1.3,3,3S171.3,178.6,169.6,178.6z M576.5,46.7c-1.7,0-3-1.3-3-3
	s1.3-3,3-3s3,1.3,3,3C579.5,45.3,578.2,46.7,576.5,46.7z M922.5,171.6c-1.7,0-3-1.3-3-3s1.3-3,3-3s3,1.3,3,3
	S924.2,171.6,922.5,171.6z M982.7,112.3c-1.7,0-3-1.3-3-3s1.3-3,3-3s3,1.3,3,3S984.4,112.3,982.7,112.3z M202.9,128.1
	c-1.7,0-3-1.3-3-3s1.3-3,3-3s3,1.3,3,3C205.9,126.7,204.6,128.1,202.9,128.1z M280.8,16.7c-1.7,0-3-1.3-3-3s1.3-3,3-3s3,1.3,3,3
	C283.8,15.3,282.5,16.7,280.8,16.7z M80,37.5c-1.7,0-3-1.3-3-3s1.3-3,3-3s3,1.3,3,3C83,36.1,81.7,37.5,80,37.5z M551.4,14.5
	c-1.7,0-3-1.3-3-3s1.3-3,3-3s3,1.3,3,3C554.4,13.1,553.1,14.5,551.4,14.5z M604.3,29.7c-1.7,0-3-1.3-3-3s1.3-3,3-3s3,1.3,3,3
	C607.2,28.4,605.9,29.7,604.3,29.7z M885.4,125.1c-1.7,0-3-1.3-3-3s1.3-3,3-3s3,1.3,3,3C888.4,123.7,887,125.1,885.4,125.1z
	 M872.1,26.7c-1.7,0-3-1.3-3-3s1.3-3,3-3s3,1.3,3,3C875.1,25.3,873.7,26.7,872.1,26.7z M869.1,82.5c-1.7,0-3-1.3-3-3s1.3-3,3-3
	s3,1.3,3,3S870.7,82.5,869.1,82.5z M1027.9,94.1c-1.7,0-3-1.3-3-3s1.3-3,3-3s3,1.3,3,3S1029.5,94.1,1027.9,94.1z"/>
<path id="svg-concept" class="iptv1" d="M964.6,60.3c-1.7,0-3-1.3-3-3s1.3-3,3-3s3,1.3,3,3C967.6,58.9,966.3,60.3,964.6,60.3z
	 M857.8,175.6c-1.7,0-3-1.3-3-3s1.3-3,3-3s3,1.3,3,3S859.4,175.6,857.8,175.6z"/>
<path class="iptv0" d="M352,40.5c-1.7,0-3-1.3-3-3s1.3-3,3-3s3,1.3,3,3C355,39.1,353.6,40.5,352,40.5z"/>
<path id="svg-concept" class="iptv1" d="M495.7,40.5c-1.7,0-3-1.3-3-3s1.3-3,3-3s3,1.3,3,3C498.7,39.1,497.3,40.5,495.7,40.5z
	 M683.7,37.5c-1.7,0-3-1.3-3-3s1.3-3,3-3s3,1.3,3,3C686.7,36.1,685.4,37.5,683.7,37.5z"/>
<path class="iptv0" d="M230.2,79.5c-1.7,0-3-1.3-3-3s1.3-3,3-3s3,1.3,3,3S231.8,79.5,230.2,79.5z M199.9,26.7c-1.7,0-3-1.3-3-3
	s1.3-3,3-3s3,1.3,3,3C202.8,25.3,201.5,26.7,199.9,26.7z M432,11.5c-1.7,0-3-1.3-3-3s1.3-3,3-3s3,1.3,3,3
	C434.9,10.1,433.6,11.5,432,11.5z M912,14.5c-1.7,0-3-1.3-3-3s1.3-3,3-3s3,1.3,3,3C914.9,13.1,913.7,14.5,912,14.5z M1037.7,29.7
	c-1.7,0-3-1.3-3-3s1.3-3,3-3s3,1.3,3,3C1040.6,28.3,1039.3,29.7,1037.7,29.7z"/>
<path id="svg-concept" class="iptv1" d="M224,168.6c0,2.2-1.8,4-4,4s-4-1.8-4-4s1.8-4,4-4S224,166.4,224,168.6z M899,238.1
	c0,2.2-1.8,4-4,4s-4-1.8-4-4s1.8-4,4-4S899,235.9,899,238.1z M979.4,165.6c0,2.2-1.8,4-4,4s-4-1.8-4-4s1.8-4,4-4
	S979.4,163.4,979.4,165.6z M213.9,247.3c0,2.2-1.8,4-4,4s-4-1.8-4-4s1.8-4,4-4S213.9,245.1,213.9,247.3z M109.7,102.3
	c0,2.2-1.8,4-4,4s-4-1.8-4-4s1.8-4,4-4S109.7,100,109.7,102.3z M166.6,73.5c0,2.2-1.8,4-4,4s-4-1.8-4-4s1.8-4,4-4
	C164.8,69.6,166.6,71.3,166.6,73.5z M919.5,91.1c0,2.2-1.8,4-4,4s-4-1.8-4-4s1.8-4,4-4C917.7,87.2,919.5,88.9,919.5,91.1z
	 M797.5,16.7c0,2.2-1.8,4-4,4s-4-1.8-4-4s1.8-4,4-4C795.7,12.8,797.5,14.5,797.5,16.7z"/>
<path class="iptv2" d="M827.7,351.3H272.9c-5.8,0-10.6-3.6-10.6-8v-278c0-4.4,4.8-8,10.6-8h554.8c5.8,0,10.6,3.6,10.6,8v277.9
	C838.3,347.7,833.5,351.3,827.7,351.3L827.7,351.3z"/>
<path class="iptv3" d="M816.8,76.5h-533v255.7h532.8L816.8,76.5L816.8,76.5z"/>
<path class="iptv0" d="M643.5,102.3h39.7 M691.5,102.3h63.8 M344.7,154.6h267.6 M344.7,132.9h85.9 M484.3,132.9h39.6 M532.2,132.9H558
	"/>
<path class="iptv3" d="M464.8,236.2h-44.9c-1.6,0-3-1.3-3-3v-44.9c0-1.6,1.4-3,3-3h44.9c1.6,0,3,1.4,3,3v44.9
	C467.8,234.9,466.5,236.2,464.8,236.2L464.8,236.2z M536.8,236.2h-44.9c-1.7,0-3-1.3-3-3v-44.9c0-1.6,1.3-3,3-3h44.9
	c1.7,0,3,1.4,3,3v44.9C539.8,234.9,538.4,236.2,536.8,236.2L536.8,236.2z"/>
<path id="svg-concept" class="iptv4" d="M608.7,236.2h-44.9c-1.7,0-3-1.3-3-3v-44.9c0-1.6,1.3-3,3-3h44.9c1.7,0,3,1.4,3,3v44.9
	C611.7,234.9,610.4,236.2,608.7,236.2L608.7,236.2z"/>
<path class="iptv3" d="M680.7,236.2h-44.9c-1.6,0-3-1.3-3-3v-44.9c0-1.6,1.4-3,3-3h44.9c1.7,0,3,1.4,3,3v44.9
	C683.7,234.9,682.3,236.2,680.7,236.2L680.7,236.2z"/>
<path id="svg-concept" class="iptv4" d="M464.8,302.2h-44.9c-1.6,0-3-1.4-3-3v-44.9c0-1.6,1.4-3,3-3h44.9c1.6,0,3,1.4,3,3v44.9
	C467.8,300.8,466.5,302.2,464.8,302.2z"/>
<path class="iptv3" d="M536.8,302.2h-44.9c-1.7,0-3-1.4-3-3v-44.9c0-1.6,1.3-3,3-3h44.9c1.7,0,3,1.4,3,3v44.9
	C539.8,300.8,538.4,302.2,536.8,302.2z M608.7,302.2h-44.9c-1.7,0-3-1.4-3-3v-44.9c0-1.6,1.3-3,3-3h44.9c1.7,0,3,1.4,3,3v44.9
	C611.7,300.8,610.4,302.2,608.7,302.2z"/>
<path id="svg-concept" class="iptv4" d="M752.3,236.2h-44.9c-1.7,0-3-1.3-3-3v-44.9c0-1.6,1.3-3,3-3h44.9c1.7,0,3,1.4,3,3v44.9
	C755.3,234.9,754,236.2,752.3,236.2L752.3,236.2z"/>
<path class="iptv3" d="M752.3,302.2h-44.9c-1.7,0-3-1.4-3-3v-44.9c0-1.6,1.3-3,3-3h44.9c1.7,0,3,1.4,3,3v44.9
	C755.3,300.8,754,302.2,752.3,302.2z"/>
<path id="svg-concept" class="iptv4" d="M392.6,236.2h-44.9c-1.7,0-3-1.3-3-3v-44.9c0-1.6,1.3-3,3-3h44.9c1.7,0,3,1.4,3,3v44.9
	C395.6,234.9,394.3,236.2,392.6,236.2L392.6,236.2z"/>
<path class="iptv3" d="M392.6,302.2h-44.9c-1.7,0-3-1.4-3-3v-44.9c0-1.6,1.3-3,3-3h44.9c1.7,0,3,1.4,3,3v44.9
	C395.6,300.8,394.3,302.2,392.6,302.2z M680.7,302.2h-44.9c-1.6,0-3-1.4-3-3v-44.9c0-1.6,1.4-3,3-3h44.9c1.7,0,3,1.4,3,3v44.9
	C683.7,300.8,682.3,302.2,680.7,302.2z M1016.6,441.7H84c-4.1,0-7.6-2.5-7.6-5.7v-45.3c0-3.1,3.3-5.7,7.6-5.7h932.7
	c4.1,0,7.6,2.5,7.6,5.7V436C1024.1,439.1,1020.8,441.7,1016.6,441.7L1016.6,441.7z M366,385v56.7 M734.6,385v56.7"/>
<path class="iptv0" d="M541.1,414.4h-25.8l-17-17.1 M604.3,397.3l-17,17.1h-25.8"/>
<path class="iptv0" d="M559.9,424.6h-17.1c-0.9,0-1.7-0.8-1.7-1.7v-17.1c0-0.9,0.8-1.7,1.7-1.7h17.1c0.9,0,1.7,0.8,1.7,1.7v17.1
	C561.5,423.8,560.8,424.6,559.9,424.6z"/>
<path id="svg-concept" class="iptv5" d="M487,414.3c0,4-3.2,7.2-7.2,7.2c-3.9,0-7.2-3.2-7.2-7.2s3.2-7.1,7.2-7.1
	S487,410.4,487,414.3z"/>
<path id="svg-concept" class="iptv5" d="M482.5,414.3c0,1.5-1.2,2.7-2.7,2.7s-2.7-1.2-2.7-2.7s1.2-2.7,2.7-2.7
	C481.3,411.7,482.5,412.9,482.5,414.3z M487,414.3h-4.5 M477.2,414.3h-4.5 M497,419.4c0,1.2-0.9,2.1-2.1,2.1s-2.1-0.9-2.1-2.1
	s0.9-2.1,2.1-2.1C496,417.3,497,418.2,497,419.4z"/>
<path class="iptv0" d="M459.5,397.3v33.4 M643.1,397.3v33.5"/>
<path id="svg-concept" class="iptv5" d="M605,417.4c-1.6,0-3-1.3-3-2.9s1.3-2.9,3-2.9c1.6,0,3,1.3,3,2.9
	C608,416,606.7,417.4,605,417.4z"/>
<path class="iptv0" d="M615.4,417.2h-0.2c-1.2,0-2.2-1-2.2-2.2s1-2.2,2.2-2.2s2.2,1,2.2,2.2v0.2C617.4,416.4,616.4,417.2,615.4,417.2z
	"/>
<path id="svg-concept" class="iptv5" d="M624,417.2c-1.2,0-2.2-1-2.2-2.2s1-2.2,2.2-2.2s2.2,1,2.2,2.2S625.2,417.2,624,417.2z"/>
<path class="iptv0" d="M632.8,417.2c-1.2,0-2.2-1-2.2-2.2s1-2.2,2.2-2.2s2.2,1,2.2,2.2S634,417.2,632.8,417.2z M633,409.2h-17.6
	c-1.1,0-2-0.8-2-2v-0.5c0-1.1,0.8-2,2-2H633c1.1,0,2,0.8,2,2v0.5C635,408.4,634.2,409.2,633,409.2z M556.7,415.6H546
	c-0.7,0-1.2-0.5-1.2-1.2v-0.3c0-0.7,0.5-1.2,1.2-1.2h10.7c0.7,0,1.2,0.5,1.2,1.2v0.3C557.9,415.1,557.3,415.6,556.7,415.6z"/>
<path id="svg-concept" class="iptv4" d="M972.9,376.8h-75.3c0,0-6.7-7-6.7-9.4c0-1.9,1.2-2.7,2.7-2.7h79.3c1.5,0,2.7,1.2,2.7,2.7
	v6.7C975.5,375.6,974.3,376.8,972.9,376.8L972.9,376.8z"/>
<path class="iptv3" d="M381.7,523.9c0-32.3,26.2-58.5,58.5-58.5s58.5,26.2,58.5,58.5 M605.4,523.9c0-32.3,26.2-58.5,58.5-58.5
	s58.5,26.2,58.5,58.5 M1.8,600.5v-39.6c0-20.3,18.2-37,40.5-37h1015.4c22.2,0,40.5,16.6,40.5,37v39.6"/>
<path id="svg-concept" class="iptv1" d="M654.4,424.8c0,3.3-2.5,6-5.5,6H453.7c-3,0-5.5-2.7-5.5-6v-21.4c0-3.3,2.5-6,5.5-6H649
	c3,0,5.5,2.7,5.5,6L654.4,424.8z"/>
<g>
	<path id="svg-ico" class="iptv6" d="M295.1,76.5c0,3.3-2.6,6-6,6s-6-2.6-6-6c0-3.3,2.6-6,6-6
		C292.4,70.5,295.1,73.2,295.1,76.5z"/>
	
		<animateMotion  accumulate="none" additive="replace" begin="0s" calcMode="paced" dur="20s" fill="remove" path="M0, 0 527 0 527 250 527 0 0 0 250" repeatCount="indefinite" restart="always">
		</animateMotion>
</g>
<g>
	<path id="svg-ico" class="iptv6" d="M372.1,390.5c0,3.3-2.6,6-6,6c-3.3,0-6-2.6-6-6c0-3.3,2.6-6,6-6S372.1,387.2,372.1,390.5
		z"/>
	
		<animateMotion  accumulate="none" additive="replace" begin="0s" calcMode="paced" dur="4s" fill="remove" path="M0, 43 0 3 0 43" repeatCount="indefinite" restart="always">
		</animateMotion>
</g>
<g>
	<path id="svg-ico" class="iptv6" d="M740.6,436.1c0,3.3-2.6,6-6,6s-6-2.6-6-6c0-3.3,2.6-6,6-6S740.6,432.8,740.6,436.1z"/>
	
		<animateMotion  accumulate="none" additive="replace" begin="0s" calcMode="paced" dur="2s" fill="remove" path="M0, -43 0 -3 0 -43" repeatCount="indefinite" restart="always">
		</animateMotion>
</g>
</svg>
