<?xml version="1.0" encoding="utf-8"?>
<!-- Generator: Adobe Illustrator 24.3.0, SVG Export Plug-In . SVG Version: 6.00 Build 0)  -->
<svg version="1.1" id="Layer_1" xmlns="http://www.w3.org/2000/svg" xmlns:xlink="http://www.w3.org/1999/xlink" x="0px" y="0px"
	 viewBox="0 0 674.4 597" style="enable-background:new 0 0 674.4 597;" xml:space="preserve">
<style type="text/css">
	.monitoring0{fill:none;stroke:#808080;stroke-linecap:round;stroke-linejoin:round;stroke-miterlimit:10;}
	.monitoring1{fill:none;stroke:#EE5586;stroke-linecap:round;stroke-linejoin:round;stroke-miterlimit:10;}
	.monitoring2{fill:none;stroke:#808080;stroke-miterlimit:10;}
	.monitoring3{fill:none;stroke:#EE5586;stroke-miterlimit:10;}
	.monitoring4{fill:none;stroke:#808080;stroke-linecap:round;stroke-linejoin:round;}
	.monitoring5{fill:none;stroke:#808080;stroke-linecap:round;stroke-linejoin:round;stroke-dasharray:6,6;}
	.monitoring6{fill:none;stroke:#EE5586;stroke-width:2;stroke-linecap:round;stroke-linejoin:round;stroke-miterlimit:10;}
	.monitoring7{fill:#EE5586;}
	.monitoring8{fill:none;stroke:#EE5586;stroke-width:3;stroke-linecap:round;stroke-linejoin:round;stroke-miterlimit:10;}
</style>
<path class="monitoring0" d="M176.5,81.5h444.9c22,0,40,18,40,40v420c0,22-18,40-40,40h-570c-22,0-40-18-40-40v-420c0-22,18-40,40-40h50.1"
	/>
<path id="svg-concept" class="monitoring1" d="M510.4,140.9c0,1-0.7,1.7-1.6,1.7h-56.5c-0.9,0-1.6-0.8-1.6-1.7v-10.2c0-1,0.7-1.7,1.6-1.7
	h56.5c0.9,0,1.6,0.8,1.6,1.7V140.9z"/>
<path id="svg-concept" class="monitoring1" d="M503.8,135.8c0,1.6-1.3,3-3,3c-1.6,0-3-1.3-3-3c0-1.6,1.3-3,3-3
	C502.5,132.9,503.8,134.2,503.8,135.8z"/>
<path id="svg-concept" class="monitoring1" d="M510.4,161.8c0,1-0.7,1.7-1.6,1.7h-56.5c-0.9,0-1.6-0.8-1.6-1.7v-10.2c0-1,0.7-1.7,1.6-1.7
	h56.5c0.9,0,1.6,0.8,1.6,1.7V161.8z"/>
<path id="svg-concept" class="monitoring1" d="M503.8,156.7c0,1.6-1.3,3-3,3c-1.6,0-3-1.3-3-3c0-1.6,1.3-3,3-3
	C502.5,153.8,503.8,155.1,503.8,156.7z"/>
<path class="monitoring0" d="M510.4,182.7c0,1-0.7,1.7-1.6,1.7h-56.5c-0.9,0-1.6-0.8-1.6-1.7v-10.2c0-1,0.7-1.7,1.6-1.7h56.5
	c0.9,0,1.6,0.8,1.6,1.7V182.7z"/>
<path id="svg-concept" class="monitoring0" d="M503.8,177.6c0,1.6-1.3,3-3,3c-1.6,0-3-1.3-3-3c0-1.6,1.3-3,3-3
	C502.5,174.7,503.8,176,503.8,177.6z"/>
<path class="monitoring0" d="M510.4,203.6c0,1-0.7,1.7-1.6,1.7h-56.5c-0.9,0-1.6-0.8-1.6-1.7v-10.2c0-1,0.7-1.7,1.6-1.7h56.5
	c0.9,0,1.6,0.8,1.6,1.7V203.6z"/>
<path id="svg-concept" class="monitoring0" d="M503.8,198.5c0,1.6-1.3,3-3,3c-1.6,0-3-1.3-3-3c0-1.6,1.3-3,3-3
	C502.5,195.6,503.8,196.9,503.8,198.5z"/>
<path class="monitoring0" d="M510.4,224.5c0,1-0.7,1.7-1.6,1.7h-56.5c-0.9,0-1.6-0.8-1.6-1.7v-10.2c0-1,0.7-1.7,1.6-1.7h56.5
	c0.9,0,1.6,0.8,1.6,1.7V224.5z"/>
<path id="svg-concept" class="monitoring0" d="M503.8,219.4c0,1.6-1.3,3-3,3c-1.6,0-3-1.3-3-3c0-1.6,1.3-3,3-3
	C502.5,216.5,503.8,217.8,503.8,219.4z"/>
<path class="monitoring0" d="M510.4,245.4c0,1-0.7,1.7-1.6,1.7h-56.5c-0.9,0-1.6-0.8-1.6-1.7v-10.2c0-1,0.7-1.7,1.6-1.7h56.5
	c0.9,0,1.6,0.8,1.6,1.7V245.4z"/>
<path id="svg-concept" class="monitoring0" d="M503.8,240.3c0,1.6-1.3,3-3,3c-1.6,0-3-1.3-3-3c0-1.6,1.3-3,3-3
	C502.5,237.4,503.8,238.7,503.8,240.3z"/>
<path class="monitoring0" d="M601.9,140.9c0,1-0.7,1.7-1.6,1.7h-56.5c-0.9,0-1.6-0.8-1.6-1.7v-10.2c0-1,0.7-1.7,1.6-1.7h56.5
	c0.9,0,1.6,0.8,1.6,1.7V140.9z"/>
<path id="svg-concept" class="monitoring0" d="M595.3,135.8c0,1.6-1.3,3-3,3c-1.6,0-3-1.3-3-3c0-1.6,1.3-3,3-3
	C594.1,132.9,595.3,134.2,595.3,135.8z"/>
<path class="monitoring0" d="M601.9,161.8c0,1-0.7,1.7-1.6,1.7h-56.5c-0.9,0-1.6-0.8-1.6-1.7v-10.2c0-1,0.7-1.7,1.6-1.7h56.5
	c0.9,0,1.6,0.8,1.6,1.7V161.8z"/>
<path id="svg-concept" class="monitoring0" d="M595.3,156.7c0,1.6-1.3,3-3,3c-1.6,0-3-1.3-3-3c0-1.6,1.3-3,3-3
	C594.1,153.8,595.3,155.1,595.3,156.7z"/>
<path id="svg-concept" class="monitoring1" d="M601.9,182.7c0,1-0.7,1.7-1.6,1.7h-56.5c-0.9,0-1.6-0.8-1.6-1.7v-10.2c0-1,0.7-1.7,1.6-1.7
	h56.5c0.9,0,1.6,0.8,1.6,1.7V182.7z"/>
<path id="svg-concept" class="monitoring1" d="M595.3,177.6c0,1.6-1.3,3-3,3c-1.6,0-3-1.3-3-3c0-1.6,1.3-3,3-3
	C594.1,174.7,595.3,176,595.3,177.6z"/>
<path id="svg-concept" class="monitoring1" d="M601.9,203.6c0,1-0.7,1.7-1.6,1.7h-56.5c-0.9,0-1.6-0.8-1.6-1.7v-10.2c0-1,0.7-1.7,1.6-1.7
	h56.5c0.9,0,1.6,0.8,1.6,1.7V203.6z"/>
<path id="svg-concept" class="monitoring1" d="M595.3,198.5c0,1.6-1.3,3-3,3c-1.6,0-3-1.3-3-3c0-1.6,1.3-3,3-3
	C594.1,195.6,595.3,196.9,595.3,198.5z"/>
<path class="monitoring0" d="M601.9,224.5c0,1-0.7,1.7-1.6,1.7h-56.5c-0.9,0-1.6-0.8-1.6-1.7v-10.2c0-1,0.7-1.7,1.6-1.7h56.5
	c0.9,0,1.6,0.8,1.6,1.7V224.5z"/>
<path id="svg-concept" class="monitoring0" d="M595.3,219.4c0,1.6-1.3,3-3,3c-1.6,0-3-1.3-3-3c0-1.6,1.3-3,3-3
	C594.1,216.5,595.3,217.8,595.3,219.4z"/>
<path class="monitoring0" d="M601.9,245.4c0,1-0.7,1.7-1.6,1.7h-56.5c-0.9,0-1.6-0.8-1.6-1.7v-10.2c0-1,0.7-1.7,1.6-1.7h56.5
	c0.9,0,1.6,0.8,1.6,1.7V245.4z"/>
<path id="svg-concept" class="monitoring0" d="M595.3,240.3c0,1.6-1.3,3-3,3c-1.6,0-3-1.3-3-3c0-1.6,1.3-3,3-3
	C594.1,237.4,595.3,238.7,595.3,240.3z"/>
<path class="monitoring0" d="M419.7,140.9c0,1-0.7,1.7-1.6,1.7h-56.5c-0.9,0-1.6-0.8-1.6-1.7v-10.2c0-1,0.7-1.7,1.6-1.7h56.5
	c0.9,0,1.6,0.8,1.6,1.7V140.9z"/>
<path id="svg-concept" class="monitoring0" d="M413.1,135.8c0,1.6-1.3,3-3,3c-1.6,0-3-1.3-3-3c0-1.6,1.3-3,3-3
	C411.8,132.9,413.1,134.2,413.1,135.8z"/>
<path class="monitoring0" d="M419.7,161.8c0,1-0.7,1.7-1.6,1.7h-56.5c-0.9,0-1.6-0.8-1.6-1.7v-10.2c0-1,0.7-1.7,1.6-1.7h56.5
	c0.9,0,1.6,0.8,1.6,1.7V161.8z"/>
<path id="svg-concept" class="monitoring0" d="M413.1,156.7c0,1.6-1.3,3-3,3c-1.6,0-3-1.3-3-3c0-1.6,1.3-3,3-3
	C411.8,153.8,413.1,155.1,413.1,156.7z"/>
<path class="monitoring0" d="M419.7,182.7c0,1-0.7,1.7-1.6,1.7h-56.5c-0.9,0-1.6-0.8-1.6-1.7v-10.2c0-1,0.7-1.7,1.6-1.7h56.5
	c0.9,0,1.6,0.8,1.6,1.7V182.7z"/>
<path id="svg-concept" class="monitoring0" d="M413.1,177.6c0,1.6-1.3,3-3,3c-1.6,0-3-1.3-3-3c0-1.6,1.3-3,3-3
	C411.8,174.7,413.1,176,413.1,177.6z"/>
<path id="svg-concept" class="monitoring1" d="M419.7,203.6c0,1-0.7,1.7-1.6,1.7h-56.5c-0.9,0-1.6-0.8-1.6-1.7v-10.2
	c0-1,0.7-1.7,1.6-1.7h56.5c0.9,0,1.6,0.8,1.6,1.7V203.6z"/>
<path id="svg-concept" class="monitoring1" d="M413.1,198.5c0,1.6-1.3,3-3,3c-1.6,0-3-1.3-3-3c0-1.6,1.3-3,3-3
	C411.8,195.6,413.1,196.9,413.1,198.5z"/>
<path class="monitoring0" d="M419.7,224.5c0,1-0.7,1.7-1.6,1.7h-56.5c-0.9,0-1.6-0.8-1.6-1.7v-10.2c0-1,0.7-1.7,1.6-1.7h56.5
	c0.9,0,1.6,0.8,1.6,1.7V224.5z"/>
<path class="monitoring0" d="M413.1,219.4c0,1.6-1.3,3-3,3c-1.6,0-3-1.3-3-3c0-1.6,1.3-3,3-3C411.8,216.5,413.1,217.8,413.1,219.4z"/>
<path id="svg-concept" class="monitoring1" d="M419.7,245.4c0,1-0.7,1.7-1.6,1.7h-56.5c-0.9,0-1.6-0.8-1.6-1.7v-10.2
	c0-1,0.7-1.7,1.6-1.7h56.5c0.9,0,1.6,0.8,1.6,1.7V245.4z"/>
<path id="svg-concept" class="monitoring1" d="M413.1,240.3c0,1.6-1.3,3-3,3c-1.6,0-3-1.3-3-3c0-1.6,1.3-3,3-3
	C411.8,237.4,413.1,238.7,413.1,240.3z"/>
<path class="monitoring0" d="M328.1,140.9c0,1-0.7,1.7-1.6,1.7H270c-0.9,0-1.6-0.8-1.6-1.7v-10.2c0-1,0.7-1.7,1.6-1.7h56.5
	c0.9,0,1.6,0.8,1.6,1.7V140.9z"/>
<path id="svg-concept" class="monitoring0" d="M321.5,135.8c0,1.6-1.3,3-3,3c-1.6,0-3-1.3-3-3c0-1.6,1.3-3,3-3
	C320.2,132.9,321.5,134.2,321.5,135.8z"/>
<path class="monitoring0" d="M328.1,161.8c0,1-0.7,1.7-1.6,1.7H270c-0.9,0-1.6-0.8-1.6-1.7v-10.2c0-1,0.7-1.7,1.6-1.7h56.5
	c0.9,0,1.6,0.8,1.6,1.7V161.8z"/>
<path id="svg-concept" class="monitoring0" d="M321.5,156.7c0,1.6-1.3,3-3,3c-1.6,0-3-1.3-3-3c0-1.6,1.3-3,3-3
	C320.2,153.8,321.5,155.1,321.5,156.7z"/>
<path class="monitoring0" d="M328.1,182.7c0,1-0.7,1.7-1.6,1.7H270c-0.9,0-1.6-0.8-1.6-1.7v-10.2c0-1,0.7-1.7,1.6-1.7h56.5
	c0.9,0,1.6,0.8,1.6,1.7V182.7z"/>
<path id="svg-concept" class="monitoring0" d="M321.5,177.6c0,1.6-1.3,3-3,3c-1.6,0-3-1.3-3-3c0-1.6,1.3-3,3-3
	C320.2,174.7,321.5,176,321.5,177.6z"/>
<path id="svg-concept" class="monitoring1" d="M328.1,203.6c0,1-0.7,1.7-1.6,1.7H270c-0.9,0-1.6-0.8-1.6-1.7v-10.2c0-1,0.7-1.7,1.6-1.7
	h56.5c0.9,0,1.6,0.8,1.6,1.7V203.6z"/>
<path id="svg-concept" class="monitoring1" d="M321.5,198.5c0,1.6-1.3,3-3,3c-1.6,0-3-1.3-3-3c0-1.6,1.3-3,3-3
	C320.2,195.6,321.5,196.9,321.5,198.5z"/>
<path class="monitoring0" d="M328.1,224.5c0,1-0.7,1.7-1.6,1.7H270c-0.9,0-1.6-0.8-1.6-1.7v-10.2c0-1,0.7-1.7,1.6-1.7h56.5
	c0.9,0,1.6,0.8,1.6,1.7V224.5z"/>
<path id="svg-concept" class="monitoring0" d="M321.5,219.4c0,1.6-1.3,3-3,3c-1.6,0-3-1.3-3-3c0-1.6,1.3-3,3-3
	C320.2,216.5,321.5,217.8,321.5,219.4z"/>
<path id="svg-concept" class="monitoring1" d="M328.1,245.4c0,1-0.7,1.7-1.6,1.7H270c-0.9,0-1.6-0.8-1.6-1.7v-10.2c0-1,0.7-1.7,1.6-1.7
	h56.5c0.9,0,1.6,0.8,1.6,1.7V245.4z"/>
<path id="svg-concept" class="monitoring1" d="M321.5,240.3c0,1.6-1.3,3-3,3c-1.6,0-3-1.3-3-3c0-1.6,1.3-3,3-3
	C320.2,237.4,321.5,238.7,321.5,240.3z"/>
<path class="monitoring2" d="M608.5,492.5c1.6,14-8.5,26.7-22.5,28.3s-26.7-8.5-28.3-22.5s8.5-26.7,22.5-28.3
	C594.3,468.4,606.9,478.5,608.5,492.5z"/>
<path class="monitoring0" d="M565.8,508.1c-2.2-2.9-3.6-6.5-4.1-10.4c-1.3-11.8,7.2-22.4,18.9-23.8c7.9-0.9,15.3,2.6,19.7,8.6"/>
<path id="svg-concept" class="monitoring3" d="M599.5,495.2l-13.3,0.3"/>
<path class="monitoring0" d="M589.7,475l-0.7,2.2"/>
<path id="svg-concept" class="monitoring3" d="M600.4,482.7l-1.8,1.3 M604.6,495.1h-2.1 M600.6,507.8l-1.8-1.3"/>
<path class="monitoring0" d="M561.6,495.5h2.3 M565.7,482.8l1.9,1.3 M576.4,475l0.8,2.1 M565.8,508.1l1.7-1.2"/>
<path class="monitoring2" d="M608.5,415.4c1.6,14-8.5,26.7-22.5,28.3c-14,1.6-26.7-8.5-28.3-22.5s8.5-26.7,22.5-28.3
	C594.3,391.3,606.9,401.4,608.5,415.4z"/>
<path class="monitoring0" d="M565.8,431.1c-2.2-2.9-3.6-6.5-4.1-10.4c-1.3-11.8,7.2-22.4,18.9-23.8c7.9-0.9,15.3,2.6,19.7,8.6"/>
<path id="svg-concept" class="monitoring1" d="M578.7,405.6l3.6,10"/>
<path class="monitoring0" d="M589.7,397.9l-0.7,2.2"/>
<path id="svg-concept" class="monitoring1" d="M600.4,405.6l-1.8,1.4 M604.6,418l-2.1,0.1 M600.6,430.7l-1.8-1.3"/>
<path class="monitoring0" d="M561.6,418.4h2.3 M565.7,405.7l1.9,1.3 M576.4,397.9l0.8,2.2 M565.8,431.1l1.7-1.3"/>
<path class="monitoring2" d="M608.5,338.3c1.6,14-8.5,26.7-22.5,28.3c-14,1.6-26.7-8.5-28.3-22.5s8.5-26.7,22.5-28.3
	C594.3,314.2,606.9,324.3,608.5,338.3z"/>
<path class="monitoring0" d="M565.8,354c-2.2-2.9-3.6-6.5-4.1-10.4c-1.3-11.8,7.2-22.4,18.9-23.8c7.9-0.9,15.3,2.6,19.7,8.6"/>
<path id="svg-concept" class="monitoring1" d="M590.8,330.1l-5.8,8.6"/>
<path class="monitoring0" d="M589.7,320.8L589,323"/>
<path id="svg-concept" class="monitoring1" d="M600.4,328.5l-1.8,1.4 M604.6,341h-2.1 M600.6,353.6l-1.8-1.3"/>
<path class="monitoring0" d="M561.6,341.3h2.3 M565.7,328.6l1.9,1.3 M576.4,320.8l0.8,2.2 M565.8,354l1.7-1.3"/>
<path id="svg-concept" class="monitoring1" d="M586.2,341.2c0,1.5-1.5,3-3,3s-3-1.5-3-3s1.5-3,3-3C585.2,338.2,586.2,339.7,586.2,341.2z
	"/>
<path id="svg-concept" class="monitoring1" d="M586.2,418.4c0,1.5-1.5,3-3,3s-3-1.5-3-3s1.5-3,3-3C585.2,415.4,586.2,416.9,586.2,418.4z
	"/>
<path id="svg-concept" class="monitoring3" d="M586.2,495.5c0,1.5-1.5,3-3,3s-3-1.5-3-3s1.5-3,3-3C585.2,492.5,586.2,494,586.2,495.5z"
	/>
<path class="monitoring2" d="M617.3,571.1H55.5c-18.4,0-33.4-15-33.4-33.4V125.3c0-18.4,15-33.4,33.4-33.4h561.8c18.4,0,33.4,15,33.4,33.4
	v412.4C650.7,556.1,635.6,571.1,617.3,571.1L617.3,571.1z"/>
<path class="monitoring2" d="M101.5,81.5V71.1h8.4 M168.3,71.1h8.2v10.4"/>
<path class="monitoring0" d="M71.5,520.7h453.3"/>
<path class="monitoring4" d="M71.5,364.1H73"/>
<path class="monitoring5" d="M76,364.1h445.8"/>
<path class="monitoring4" d="M523.3,364.1h1.5 M71.5,462.2H73"/>
<path class="monitoring5" d="M76,462.2h445.8"/>
<path class="monitoring4" d="M523.3,462.2h1.5 M76.3,413.4h1.5"/>
<path class="monitoring5" d="M80.8,413.4h445.8"/>
<path class="monitoring4" d="M528.1,413.4h1.5"/>
<path class="monitoring0" d="M371.8,267.8h35.1 M463.2,267.8h35.2 M554.4,267.8h35.2 M71.5,520.7V295.8 M608.1,254.4h-72v-133h72V254.4z"/>
<path class="monitoring0" d="M516.7,254.4h-72v-133h72V254.4z"/>
<path class="monitoring0" d="M425.3,254.4h-72v-133h72V254.4z"/>
<path class="monitoring0" d="M280.4,267.8h35.2 M333.9,254.4h-72v-133h72V254.4z"/>
<path id="svg-concept" class="monitoring1" d="M600.4,328.5c2.2,2.9,3.6,6.4,4,10.3c0.6,5.5-0.9,10.7-3.8,14.8"/>
<path class="monitoring2" d="M163.6,248.4c0-19.5,14.6-36.3,34.5-38.6c21.3-2.4,40.5,12.9,42.9,34.2c0.2,1.3,0.2,2.7,0.2,4"/>
<path class="monitoring0" d="M169.9,248.8c-0.2-16.5,12.2-30.8,29-32.7c12-1.4,23.2,4,29.9,13.1"/>
<path id="svg-concept" class="monitoring1" d="M223.5,242.1l-18,5.4"/>
<path class="monitoring0" d="M212.5,217.4l-1.1,3.4"/>
<path id="svg-concept" class="monitoring1" d="M228.7,229.1l-2.8,2.1 M235.1,248l-3.3,0.1"/>
<path class="monitoring0" d="M169.8,248.6h3.4 M176.1,229.3l2.8,2 M192.4,217.5l1.1,3.3"/>
<path id="svg-concept" class="monitoring1" d="M205.7,248.4c0,1.7-1.3,3-3,3s-3-1.3-3-3s1.3-3,3-3C204.4,245.7,205.7,247.1,205.7,248.4z
	"/>
<path id="svg-concept" class="monitoring1" d="M228.7,229.1c3.3,4.4,5.5,9.8,6.1,15.7c0.1,1,0.2,2.1,0.2,3.1"/>
<path class="monitoring2" d="M71.5,248.4c0-19.5,14.6-36.3,34.5-38.6c21.3-2.4,40.5,12.9,42.9,34.2c0.2,1.3,0.2,2.7,0.2,4"/>
<path class="monitoring0" d="M77.7,248.8c-0.2-16.5,12.2-30.8,29-32.7c12-1.4,23.2,4,29.9,13.1"/>
<path id="svg-concept" class="monitoring1" d="M123.7,230.3l-11.5,15.9"/>
<path class="monitoring0" d="M120.3,217.4l-1,3.4"/>
<path id="svg-concept" class="monitoring1" d="M136.6,229.1l-2.8,2.1 M142.9,248l-3.2,0.1"/>
<path class="monitoring0" d="M77.7,248.6h3.4 M84,229.3l2.8,2 M100.2,217.5l1.1,3.3"/>
<path id="svg-concept" class="monitoring1" d="M113.5,248.4c0,1.7-1.3,3-3,3s-3-1.3-3-3s1.3-3,3-3C112.2,245.7,113.5,247.1,113.5,248.4z
	"/>
<path id="svg-concept" class="monitoring3" d="M136.6,229.1c3.3,4.4,5.5,9.8,6.1,15.7c0.1,1,0.2,2.1,0.2,3.1 M600.4,405.6
	c2.2,2.9,3.6,6.4,4,10.3c0.6,5.5-0.9,10.7-3.8,14.8 M600.4,482.6c2.2,2.9,3.6,6.4,4,10.3c0.6,5.5-0.9,10.7-3.8,14.8"/>
<path class="monitoring2" d="M71.5,413.1l16.6-5.8l19.8,10.8l19.6-15l18.5,15.5l17.3-22.6l22.7,50.1l25.5-70.4l20.5,37.4l19-114.9
	l27.5,198.2l24.3-153.2l18.7,97.7l26-58.3l23.5,30.5l19-16.7l21,16.7l20,12.7l22.5-24.2l24.2,17.9l19.3-6.4h27.8"/>
<path class="monitoring0" d="M661.4,188h4.3c1.1,0,2,0.9,2,2v14.8c0,1.1-0.9,2-2,2h-4.3 M661.4,158.8h4.3c1.1,0,2,0.9,2,2v14.8
	c0,1.1-0.9,2-2,2h-4.3"/>
<g>
	<path id="svg-concept" class="monitoring6" d="M103.7,53.9H89.5 M188.8,53.9h-14.2 M139,3.7V18 M165.1,9.3l-8.4,14.1 M112.9,9.5l8.4,14
		 M183.8,28.1l-14,8.2 M94.5,28.1l13.8,8.4"/>
	
		<animate  accumulate="none" additive="replace" attributeName="opacity" calcMode="linear" dur="1s" fill="remove" repeatCount="indefinite" restart="always" values="0;1;0">
		</animate>
</g>
<g>
	<path id="svg-ico" class="monitoring7" d="M524.7,520.7c0,2.8-2.2,5-5,5s-5-2.2-5-5s2.2-5,5-5S524.7,518,524.7,520.7z"/>
	
		<animateMotion  accumulate="none" additive="replace" begin="0s" calcMode="paced" dur="20s" fill="remove" path="M0, 0 -448 0 -448 -225 -450 0 0 0 225" repeatCount="indefinite" restart="always">
		</animateMotion>
</g>
<g>
	<path id="svg-concept" class="monitoring8" d="M107.1,298.2v199.1"/>
	
		<animateMotion  accumulate="none" additive="replace" begin="0s" calcMode="paced" dur="80s" fill="remove" path="M420, 0 -35 0 420 0" repeatCount="indefinite" restart="always">
		</animateMotion>
</g>
<path id="svg-concept" class="monitoring6" d="M168.4,52.1L168.3,71l-58.4,0.1v-19c0-16.2,13.1-29.2,29.2-29.2S168.4,35.9,168.4,52.1z"
	/>
</svg>
