<?xml version="1.0" encoding="utf-8"?>
<!-- Generator: Adobe Illustrator 24.3.0, SVG Export Plug-In . SVG Version: 6.00 Build 0)  -->
<svg version="1.1" id="Layer_1" xmlns="http://www.w3.org/2000/svg" xmlns:xlink="http://www.w3.org/1999/xlink" x="0px" y="0px"
	 viewBox="0 0 1100 426.8" style="enable-background:new 0 0 1100 426.8;" xml:space="preserve">
<style type="text/css">
	.os0{fill:none;}
	.os1{fill:#EE5586;}
	.os2{fill:#808080;}
	.os3{fill-rule:evenodd;clip-rule:evenodd;fill:#808080;}
	.os4{fill:none;stroke:#808080;stroke-linecap:round;stroke-linejoin:round;stroke-miterlimit:10;}
	.os5{fill:none;stroke:#808080;stroke-miterlimit:10;}
	.os6{fill:none;stroke:#EE5586;stroke-width:3;stroke-linecap:round;stroke-linejoin:round;stroke-miterlimit:10;}
</style>
<circle class="os0" cx="549" cy="212.9" r="49.5"/>
<path id="svg-ico" class="os1" d="M549,263c-27.6,0-50.1-22.5-50.1-50.1s22.5-50.1,50.1-50.1s50.1,22.5,50.1,50.1S576.6,263,549,263
	z M549,164c-27,0-48.9,21.9-48.9,48.9s21.9,48.9,48.9,48.9s48.9-21.9,48.9-48.9C597.9,186,576,164,549,164z"/>
<path id="svg-ico" class="os1" d="M566.6,233.1c3.5,0,6.4,2.9,6.4,6.4s-2.9,6.4-6.4,6.4s-6.4-2.9-6.4-6.4
	C560.2,235.9,563,233.1,566.6,233.1z M551.3,197.1c8,0,14.6,5.9,15.7,13.6h11c-0.5-6-3-11.7-7.2-16.1c-2.7,1.4-6,1.4-8.8-0.2
	c-2.8-1.6-4.4-4.5-4.6-7.5c-2-0.5-4-0.7-6.1-0.7c-4,0-7.9,0.9-11.4,2.5l5.5,9.5C547.2,197.5,549.2,197.1,551.3,197.1L551.3,197.1z
	 M535.4,212.9c0-5,2.4-9.6,6.1-12.5L536,191c-1.3,0.9-2.5,1.9-3.6,3.1c-3.2,3.2-5.5,7-6.7,11.2c2.5,1.6,4.2,4.5,4.2,7.7
	s-1.7,6.1-4.2,7.7c1.3,4.2,3.5,8,6.7,11.2c1.1,1.1,2.4,2.2,3.6,3.1l5.5-9.5C537.8,222.5,535.4,218,535.4,212.9z"/>
<path id="svg-ico" class="os1" d="M520.7,206.5c3.5,0,6.4,2.9,6.4,6.4s-2.9,6.4-6.4,6.4s-6.4-2.9-6.4-6.4
	S517.1,206.5,520.7,206.5z M567,215.2c-1.1,7.7-7.7,13.6-15.7,13.6c-2.1,0-4.1-0.4-5.9-1.1l-5.5,9.5c3.5,1.7,7.4,2.5,11.4,2.5
	c2.1,0,4.1-0.2,6.1-0.7c0.2-3,1.8-5.9,4.6-7.5s6.1-1.6,8.8-0.2c4.2-4.4,6.7-10.1,7.2-16.1H567L567,215.2z M566.6,180
	c3.5,0,6.4,2.9,6.4,6.4s-2.9,6.4-6.4,6.4s-6.4-2.9-6.4-6.4S563,180,566.6,180z"/>
<circle class="os0" cx="343.5" cy="213" r="49.6"/>
<path class="os2" d="M343.5,263.1c-27.6,0-50.1-22.5-50.1-50.1s22.5-50.1,50.1-50.1s50.1,22.5,50.1,50.1S371.1,263.1,343.5,263.1z
	 M343.5,164c-27,0-49,22-49,49s22,49,49,49s49-22,49-49S370.5,164,343.5,164z"/>
<g>
	<path class="os3" d="M319.9,189.5h11l-11,11V189.5z M356.3,189.5H367v10.7L356.3,189.5z M367,225.2v11h-11L367,225.2z M330.5,236.2
		h-10.6v-10.7l4.8,4.9L330.5,236.2z M321.4,204l4.7-4.7l10.8,10.9h-15.5V204z M336.9,215.6l-11,10.9l-4.5-4.5v-6.4H336.9z
		 M310.3,213l7.5-7.5v15.1L310.3,213z M349.9,210.2l11-11l4.6,4.5v6.5H349.9z M365.5,221.7l-4.7,4.7l-10.9-10.8h15.6V221.7z
		 M369.1,205.2l7.5,7.5l-7.5,7.5V205.2z M346.3,219.8l11.6,11.6l-4.8,4.8h-6.8L346.3,219.8L346.3,219.8z M351,238.3l-7.7,7.7
		l-7.8-7.7H351z M329.7,230.4l11-11v15.3h-6.6L329.7,230.4z M346.1,206.4l10.9-10.8l-4.5-4.5h-6.4V206.4z M351,187.5l-7.7-7.7
		l-7.8,7.7H351z M329.7,195.4l11,11v-15.3h-6.6L329.7,195.4z"/>
</g>
<g>
	<g>
		<circle class="os0" cx="754.7" cy="213" r="49.6"/>
		<path id="svg-concept" class="os2" d="M754.7,263.1c-27.6,0-50.1-22.5-50.1-50.1s22.5-50.1,50.1-50.1s50.1,22.5,50.1,50.1
			S782.4,263.1,754.7,263.1z M754.7,164c-27,0-49,22-49,49s22,49,49,49s49-22,49-49S781.7,164,754.7,164z"/>
		
			<animate  accumulate="none" additive="replace" attributeName="opacity" begin="1s" calcMode="linear" dur="1s" fill="remove" repeatCount="indefinite" restart="always" values="0;1;0">
			</animate>
	</g>
	<path id="svg-ico" class="os1" d="M726.4,211.2c0,0.6,0,1.7,0.1,2.3v3.9c0,2.5,0.1,5.8,0.2,6.7c0.1,3,1,5.8,1.9,7.7
		s2.1,3.9,4.2,6.6c2.1,2.7,3.4,3.9,5.2,5.3c1.1,0.9,2.4,1.6,3.5,2.2c1.8-0.3,3.6-0.5,5.4-0.6c0,0,0.1,0,0.1-0.1
		c0-0.2-1.6-0.7-1.8-0.7c-0.1,0,0.4-0.6,0.5-0.7c0.1-0.2-0.2-0.1-0.3-0.1c-0.2,0-0.4-0.2-0.5-0.3s-0.3-0.2-0.3-0.2l-0.3-0.3
		c-0.1-0.1-0.2-0.2-0.3-0.2c-0.1-0.1-0.3-0.3-0.3-0.4c-0.3-0.3-0.6-0.7-0.7-0.9c-0.1-0.2-0.1-0.2-0.4-0.2s-0.3,0.1-0.6,0.1
		s-0.2-0.1-0.4-0.3c-0.1-0.2-0.3-0.4-0.4-0.5c-0.1-0.1-0.2-0.3-0.3-0.4c-0.1-0.1-0.1-0.2-0.2-0.3c-0.1-0.1-0.6-1-0.6-1.2v-0.8
		l-0.4,0.6c0,0-0.7-1-1.1-1.6c-0.5-0.6-2.1-2.7-2.3-3s0.1-0.3,0.2-0.3s0.9,0.4,0.9,0.4s-0.3-0.2-0.7-0.5s-0.8-1-0.8-1.1
		s0.2-0.1,0.2-0.2s0.1-0.1,0.2-0.2s-0.1-0.3-0.3-0.6s-0.6-0.8-0.8-1.3s-0.4-0.6-0.4-0.8s-0.1-0.2-0.1-0.6c0-0.4,0-0.3,0.3,0.1
		c0.2,0.4,0.8,0.6,1,0.6s-0.1-0.3-0.7-1.6c-0.2-0.6-0.7-1.6-0.9-2s-0.4-0.8-0.6-0.8c-0.4,0-0.5,1.9-0.9,1.9c-0.3,0-1.7-4.2-1.7-4.2
		h0.4c0,0-0.3-0.4-0.4-0.8c-0.1-0.4-0.4-0.6-0.4-0.6s0.1-0.6,0.1-1s0.1-0.6,0.1-0.8s-0.1-0.3-0.7-1.1c-0.5-0.8-0.7-1.7-0.7-2.3
		s0-1.1,0.1-2s0.4-2.4,0.5-3.3c0.1-0.9,0.3-2.7,0.4-4c0.1-1.3,0.4-2,0.7-2.6s0.7-0.7,1.1-1.7c0.4-0.9,0.9-2.2,0.9-2.2l-0.7-0.1
		c0,0,0.1,0,0.2-0.2c0.2-0.2,0.2-0.4,1.1-1.6c0.8-1.2,2.3-2.8,4-4.5c1.7-1.8,3.2-1.8,3.6-1.8h0.7c0.1,0,0-0.1,0.7-0.8
		c0.4-0.4,0.1-0.3,0-0.1s-0.7,0.6-0.8,0.6c-0.2,0-0.3-0.2-0.3-0.2s0.3-0.4,1.3-1.3s1.3-1.1,1.6-1.1s0.7,0.1,1.3,0.1
		c1.3,0,2.5-0.9,2.5-1s-0.1,0.1-1.2,0.5c-0.9,0.3-1.1,0.3-1.1,0.3s0.2-0.4,0.4-0.5c0.1-0.1,0.9-0.2,2-0.6c1-0.4,1.2-0.6,1.2-1
		s0.9-0.6,1.8-0.7c1-0.1,2-0.2,2.1-0.2s0.3,0,0.3,0.1s-0.3,0.2-0.9,0.3c-0.8,0.2-0.7,0.4-0.7,0.4s0.3-0.2,0.7-0.3s0.7-0.2,0.9-0.2
		c0.1,0,0-0.2,0.2-0.2c0.1,0,0.2-0.1,0.6-0.2c0.4-0.1,1.4-0.3,2.6-0.3c1.2,0,3,0.2,3.9,0.4s2.6,0.8,3.3,1.1s2,0.9,3.6,1.8
		s2,1.3,3.1,2.2c1,0.9,1.6,1.6,2.5,2.8c0.9,1.3,1.1,1.8,1.5,2.4c0.5,1,0.9,3,0.9,3.5c0.1,0.5,0.3,2.6,0.3,2.8s0.1,0.2,0.2,0.2
		s0.1,0.2,0.1,0.6c0,0.4-0.1,0.6-0.1,1.3s0.2,2.3,0.2,2.9c0,1.3-0.7,3.6-0.7,3.6l0.7-1.7v1.6c0,0.2-0.1,0.4-0.4,1
		c-0.3,0.6-0.7,1.4-0.7,1.7s-0.5,0.3-0.6,0.4c-0.1,0.1-0.3,0.2-0.4,0.2c-0.1,0-0.5,1-0.6,1.2c-0.1,0.3,0.2,0.2,0.3,0.2
		s0,0.3-0.1,0.6c-0.1,0.2-0.2,0.5-0.4,0.6c-0.2,0.2-0.6,0.5-1.6,1.4s-2.4,2.3-3.1,2.3c-0.5,0-0.1-0.3,0.2-0.5s0.4-0.5,0.3-0.5
		c-0.1,0-1.1,0.8-1.3,1s-0.1,0.2-0.3,0.5c-0.1,0.3-0.4,0.3-1.1,0.5c-0.7,0.2-1.1,0.4-1.3,0.4c-0.1,0-0.2-0.2-0.2-0.2
		s-3.9,1.7-5.9,1.7c-1.6,0-4-1-5.9-2.5s-3-3.4-3.4-5.1c-0.4-1.7-0.4-4.8-0.4-5.2c0-0.5-0.1-0.1-0.1,0.1c0,0.1-0.2,0-0.2,0.1
		s-0.1,0.2-0.1,0v-0.9c0-0.4-0.1-0.5-0.1-0.8v-1.4c0-0.4,0.1-0.9,0.4-2c0.3-1,1.3-2.4,2-3.1c0.7-0.6,1.5-1.1,2.6-1.7
		c1.1-0.6,2.3-1.1,3.1-1.4c0.9-0.4,1.8-0.5,2.8-0.5s2.3,0.4,3.1,0.7c0.7,0.3,1.6,1,2,1.4c0.5,0.4,1.1,0.9,1.1,0.9s-0.4-0.5-0.6-0.7
		c-0.2-0.2-0.7-0.9-1.1-1.2c-0.3-0.3-0.9-0.8-1.7-1.3s-2-0.7-2.5-0.7H758c-0.5,0-2.5,0.2-3,0.4s-1.3,0.5-1.6,0.8
		c-0.3,0.2-0.6,0.4-0.8,0.6c-0.3,0.2-0.6,0.6-0.9,0.9c-0.3,0.3-1,1.8-1.1,2s-0.8,0.6-1.3,1.1c-0.4,0.5-0.6,1.7-0.7,2.3
		c-0.1,0.7-0.3,1-0.5,1.2c-0.3,0.2-0.3,0.4-0.3,0.7c0,0.9-0.4,3.1-0.4,5.9c0,1.2,0.6,2.1,0.8,2.6c0.3,0.5,0.8,1.4,1,1.7
		c0.2,0.4,0.3,0.4,0.3,0.4l-0.3-0.8c0,0,1.2,1.2,1.5,1.4s1.3,1,1.7,1.3s1.8,1.4,2.3,1.8c0.5,0.4,0.8,0.6,0.8,0.7c0,0-0.1,0-0.1,0.1
		c0,0,0.4,0.2,2,0.8c3.3,1.2,5,1.2,5.5,1.2c0.6,0,1.4,0,3.2-0.4s3.5-1.6,4.3-2.2c0.8-0.6,2.2-1.6,2.5-1.9c0.3-0.3,0.8-0.6,1-0.8
		s0.3-0.2,0.5-0.4s0.4-0.5,0.8-0.9s0.8-0.5,0.8-0.5s-0.4,0.5-0.5,0.6c-0.1,0.2,0.1,0.1,0.3,0.1s-0.2,0.5-0.2,0.5
		c0,0.2,0.8-1.3,0.8-1.5s-0.4,0-0.5,0s-0.2,0-0.2-0.1s0.2-0.4,0.5-0.9s0.8-1.2,0.8-1.2l0.7,1.1v-1.3c0-0.5,0.6-1.1,0.8-1.4
		c0.1-0.2,0.4-0.5,0.7-1c0.4-0.5,0.5-1.3,0.5-1.9V210c0,0,0.1-0.2,0.2-0.3c0.2-0.2,0.1,0.1,0.1,0.4c0,0.3,0.2,0.6,0.2,0.6v-0.5
		c0-0.2-0.1-0.1-0.1-0.3s-0.2-0.1-0.2-0.2s0.1-0.1,0.1-0.6c0-0.3,0.1-0.4,0.1-0.1c0,0.1,0.2,0.1,0.2,0.5c0.1,0.3,0.3,0.8,0.3,0.8
		s-0.2-0.6-0.2-1.3c0-0.8,0.3-1,0.5-1.4c0.1-0.4,0.3-0.5,0.5-1.1c0.1-0.6,0.3-0.6,0-0.6s-0.4,0.5-0.6,0.5c-0.2,0-0.3-1.5-0.3-2.2
		s0.2-0.7,0.2-0.6c0.1,0.1,0,0.1,0.2,0c0.1-0.1,0-0.1-0.3-0.4c-0.3-0.3-0.5-0.9-0.7-1.7c-0.2-0.7,0-0.7,0.1-0.7s0.2,0.3,0.4,0.7
		c0.1,0.4,0.3,0.5,0.4,0.5c0.1-0.1-0.3-1.7-0.5-1.9c-0.1-0.3-0.1-1-0.1-1.2s-0.3-0.8-0.6-1.2c-0.3-0.5-0.1,0-0.1,0.6
		c0.1,0.6-0.5-0.2-0.7-1.2c-0.3-1-0.4-1.4-0.2-1.4s0.9,0.9,1.1,0.9c0.2,0,0.3-0.8,0.3-0.8s1,1.5,1.4,2.6c0.3,0.7,0.7,1.8,0.9,2.7
		s0.6,2.3,0.6,2.3s-0.4-2.1-0.6-2.8l-0.8-2.4c-0.2-0.2-0.1-0.3,0-0.3s0.2,0,0.1-0.3s-0.7-2.3-0.5-2.3c0.1,0,1,1.5,1,1.5
		s-0.8-2.4-1.4-4c-0.6-1.6-2.1-3.4-2.8-4.2s-1.8-1.8-2.6-2.3c-0.8-0.6-2.1-1.4-2.5-1.6c-0.5-0.2-1.5-0.9-1.5-0.9s0.7,0.8,0.9,1
		c0.3,0.2,0.1,0.3,0.1,0.3s-1.6-1-1.8-1.2c-0.2-0.1-0.2-0.3-0.2-0.6s-1.3-0.8-1.7-0.8s-0.5,0.4-0.7,0.5s-0.8,0-0.8,0
		s-1.6-0.8-2.3-1.2s-1.1-0.5-1.9-0.6c-0.8-0.1-3.1-1-3.1-1l0.2,0.7c0,0-1.5-0.5-1.8-0.5c-0.6,0-0.7,0.6-1.5,0.6h-1.6
		c-0.3,0-0.3-0.2-0.1-0.2s0.3-0.1,0.5-0.1s0.7-0.2,0.7-0.2s-0.8,0.2-1.3,0.2c-0.6,0-0.7-0.4-1-0.4s-1.6,0.3-1.6,0.3l0.6-0.4
		c0.3-0.2,0.9-0.5,0.9-0.5h-0.7c-0.7,0-2.3,0.6-2.9,0.7c-0.6,0.1,0.1-0.5,0.1-0.5s-0.9,0.3-1.5,0.7c-0.7,0.4-1.9,0.8-3,1.2
		s-2,0.8-2.8,1.2c-0.7,0.4-1.6,1-2.1,1.4s-1.2,1-1.4,1.2s-0.3,0.1-0.3-0.1s-0.1-0.3-0.1-0.3s-0.1,0.2-0.6,0.7s-1.4,1.4-1.8,1.6
		c-0.4,0.3-1.1,0.9-1.5,1.2s-1.2,1-1.4,1.3s-0.5,0.6-0.7,1.3s-0.2,0.8-0.4,0.8s-0.2,0.1-0.3,0.4c-0.1,0.3-0.4,0.5-0.5,0.8
		s-0.3,0.7-0.5,1.2c-0.1,0.5-0.4,1.2-0.7,1.6c-0.3,0.4-0.6,1-0.8,1s-0.3-0.5-0.3-0.5s-0.1,0.3-0.2,0.7c-0.2,0.4-1,2.1-1.4,3.1
		c-0.4,1.1-1.7,5.4-1.7,5.5s0.3,0.7,0.3,0.9C726.6,207.2,726.4,210.6,726.4,211.2L726.4,211.2z"/>
</g>
<g>
	<circle class="os0" cx="960.2" cy="213" r="49.6"/>
	<path class="os2" d="M960.2,263.1c-27.6,0-50.1-22.5-50.1-50.1s22.5-50.1,50.1-50.1s50.1,22.5,50.1,50.1S987.8,263.1,960.2,263.1z
		 M960.2,164c-27,0-49,22-49,49s22,49,49,49s49-22,49-49S987.2,164,960.2,164z"/>
	<g>
		<path class="os2" d="M934.6,191.6c3,0,5.5,1.1,7.5,3.3c5.4,5.8,10.7,11.7,16,17.6c0.2,0.3,0.3,0.4,0,0.7
			c-5.4,5.9-10.8,11.9-16.2,17.8c-3.7,4.1-10.1,4.3-14.1,0.6c-0.4-0.3-0.4-0.5,0-0.9l15.9-17.4c0.3-0.3,0.3-0.5,0-0.8
			c-5.3-5.8-10.6-11.6-15.9-17.5c-0.3-0.4-0.3-0.5,0.1-0.8C929.7,192.6,932,191.7,934.6,191.6L934.6,191.6z M985.5,191.6
			c3,0,5.2,0.9,7.2,2.6c0.3,0.3,0.4,0.4,0.1,0.8c-2.6,2.8-5.1,5.6-7.7,8.5c-2.7,3-5.5,6-8.2,9c-0.4,0.4-0.2,0.6,0.1,0.9
			c5.3,5.8,10.5,11.6,15.8,17.4c0.3,0.4,0.3,0.5-0.1,0.8c-4.3,3.8-10.5,3.4-14.4-0.8c-5.2-5.8-10.5-11.6-15.8-17.4
			c-0.3-0.4-0.4-0.6,0-1c5.3-5.8,10.6-11.7,16-17.5C980.4,192.8,982.9,191.6,985.5,191.6L985.5,191.6z M945.4,184.4
			c2.4,0,4.6,1.1,6.5,3.1c2.7,2.9,5.3,5.8,8,8.8c0.3,0.3,0.4,0.3,0.7,0c2.6-2.9,5.3-5.8,7.9-8.7c3.5-3.8,9.4-4.1,13.1-0.7
			c0.3,0.3,0.3,0.4,0,0.7l-21,23.1c-0.3,0.4-0.5,0.3-0.8,0l-21-23.1c-0.3-0.3-0.3-0.5,0-0.8C940.7,185.2,942.7,184.4,945.4,184.4
			L945.4,184.4z M975.4,241.4c-2.6,0-4.9-1-6.6-2.9c-2.7-2.9-5.4-5.9-8.1-8.9c-0.3-0.3-0.5-0.4-0.8,0c-2.6,2.9-5.3,5.8-7.9,8.7
			c-3.5,3.8-9.1,4.1-13,0.7c-0.4-0.3-0.3-0.5,0-0.8l21-23.1c0.3-0.3,0.4-0.3,0.7,0c7,7.7,14,15.5,21.1,23.2c0.3,0.3,0.3,0.5,0,0.7
			C979.8,240.5,977.8,241.4,975.4,241.4L975.4,241.4z"/>
	</g>
</g>
<g>
	<circle class="os0" cx="137.9" cy="213" r="49.6"/>
	<path class="os2" d="M137.9,263.1c-27.6,0-50.1-22.5-50.1-50.1s22.5-50.1,50.1-50.1S188,185.4,188,213S165.6,263.1,137.9,263.1z
		 M137.9,164c-27,0-49,22-49,49s22,49,49,49s49-22,49-49S164.9,164,137.9,164z"/>
	<g>
		<path class="os2" d="M108.8,234.7l24.2,3.1v-23.4h-24.2V234.7z M108.8,212.1H133v-23.5l-24.2,3.4V212.1z M135.3,188.3v23.8H167
			v-28.2L135.3,188.3z M135.3,238.1l31.7,4v-27.7h-31.7V238.1z"/>
	</g>
</g>
<g>
	<path class="os0" d="M549.2,107.1c-58.3,0-105.6,47.3-105.6,105.6s47.3,105.6,105.6,105.6S654.8,271,654.8,212.7
		S607.5,107.1,549.2,107.1z M549.2,298.9c-47.6,0-86.2-38.6-86.2-86.2s38.6-86.2,86.2-86.2s86.2,38.6,86.2,86.2
		S596.9,298.9,549.2,298.9z"/>
	<path class="os4" d="M503.2,308.1c-35.3-17.1-59.6-53.2-59.6-95.1c0-42.4,25-78.9,61-95.7"/>
	<path class="os4" d="M592.8,116.8c36.6,16.6,62,53.4,62,96.2c0,41.6-24.1,77.6-59.1,94.8"/>
	<circle class="os4" cx="549.2" cy="212.6" r="86.2"/>
	<path class="os4" d="M545.8,94.3v17.5c0,2.6-2.1,4.7-4.7,4.7h-64 M410.2,116.5h-49.1c-4.2,0-6.3-5.1-3.3-8L458.3,8
		c0.9-0.9,2.1-1.4,3.3-1.4h0h79.5c2.6,0,4.7,2.1,4.7,4.7v35.4 M552.1,94.3v17.5c0,2.6,2.1,4.7,4.7,4.7h64.3 M688,116.5h48.9
		c4.2,0,6.3-5.1,3.3-8L639.7,8c-0.9-0.9-2.1-1.4-3.4-1.4h-79.5c-2.6,0-4.7,2.1-4.7,4.7v36.3"/>
	<path class="os5" d="M519.3,36c-4.6,4.6-11.9,4.6-16.5,0s-4.5-11.9,0-16.5c4.6-4.6,11.9-4.5,16.5,0C523.8,24.1,523.8,31.4,519.3,36
		z"/>
	<path class="os5" d="M514.1,30.8c-1.7,1.7-4.4,1.7-6.1,0s-1.7-4.4,0-6.1s4.4-1.7,6.1,0S515.8,29.1,514.1,30.8z M519.2,36l-5.1-5.2
		 M507.2,25.5l-5.2-5.2 M592.8,36c-4.6,4.6-11.9,4.6-16.5,0s-4.5-11.9,0-16.5c4.6-4.6,11.9-4.5,16.5,0
		C597.3,24.1,597.4,31.4,592.8,36z"/>
	<path class="os5" d="M587.6,30.8c-1.7,1.7-4.4,1.7-6.1,0c-1.7-1.7-1.7-4.4,0-6.1s4.4-1.7,6.1,0C589.3,26.4,589.3,29.1,587.6,30.8z
		 M592.8,36l-5.2-5.2 M580.7,25.5l-5.2-5.2"/>
	<path class="os4" d="M545.8,331.8v-18.3c0-2.6-2.1-4.7-4.7-4.7h-65 M409.5,308.8h-48.4c-4.2,0-6.3,5.1-3.3,8l100.5,100.5
		c0.9,0.9,2.1,1.4,3.3,1.4l0,0h79.5c2.6,0,4.7-2.1,4.7-4.7v-34.8 M552.1,331.8v-18.3c0-2.6,2.1-4.7,4.7-4.7H622 M688.7,308.8h48.2
		c4.2,0,6.3,5.1,3.3,8L639.7,417.3c-0.9,0.9-2.1,1.4-3.4,1.4v0h-79.5c-2.6,0-4.7-2.1-4.7-4.7v-35.2"/>
	<g>
		<path class="os5" d="M519.3,389.3c-4.6-4.6-11.9-4.6-16.5,0s-4.5,11.9,0,16.5c4.6,4.6,11.9,4.5,16.5,0
			C523.8,401.3,523.8,393.9,519.3,389.3z"/>
		<path class="os5" d="M514.1,394.5c-1.7-1.7-4.4-1.7-6.1,0s-1.7,4.4,0,6.1s4.4,1.7,6.1,0S515.8,396.2,514.1,394.5z M519.2,389.3
			l-5.1,5.2 M507.2,399.8L502,405"/>
	</g>
	<g>
		<path class="os5" d="M592.8,389.3c-4.6-4.6-11.9-4.6-16.5,0s-4.5,11.9,0,16.5c4.6,4.6,11.9,4.5,16.5,0
			C597.3,401.3,597.4,393.9,592.8,389.3z"/>
		<path class="os5" d="M587.6,394.5c-1.7-1.7-4.4-1.7-6.1,0c-1.7,1.7-1.7,4.4,0,6.1s4.4,1.7,6.1,0
			C589.3,398.9,589.3,396.2,587.6,394.5z M592.8,389.3l-5.2,5.2 M580.7,399.8l-5.2,5.2"/>
	</g>
	<path id="svg-concept" class="os6" d="M707.9,136.4H642c-22.1-26.7-55.5-43.8-92.9-43.8s-70.8,17-92.9,43.8h-65.9l87.6-87.6
		h142.3L707.9,136.4 M707.9,289.6H642c-22.1,26.7-55.5,43.8-92.9,43.8s-70.8-17-92.9-43.8h-65.9l87.6,87.6h142.3L707.9,289.6"/>
	<g>
		<path id="svg-ico" class="os0" d="M523.4,355.9c0,3.5-2.8,6.3-6.3,6.3s-6.3-2.8-6.3-6.3s2.8-6.3,6.3-6.3
			S523.4,352.4,523.4,355.9z"/>
	</g>
	<g>
		<path id="svg-ico" class="os0" d="M555.5,355.9c0,3.5-2.8,6.3-6.3,6.3s-6.3-2.8-6.3-6.3s2.8-6.3,6.3-6.3
			S555.5,352.4,555.5,355.9z"/>
	</g>
	<g>
		<path id="svg-ico" class="os0" d="M587.6,355.9c0,3.5-2.8,6.3-6.3,6.3s-6.3-2.8-6.3-6.3s2.8-6.3,6.3-6.3
			S587.6,352.4,587.6,355.9z"/>
	</g>
	
		<animateMotion  accumulate="none" additive="replace" begin="1s" calcMode="paced" dur="3s" fill="freeze" path="M0, 0 205 0 0" restart="always">
		</animateMotion>
</g>
<line class="os4" x1="0" y1="215.6" x2="88.3" y2="215.6"/>
<line class="os4" x1="1009.8" y1="215.6" x2="1100" y2="215.6"/>
</svg>
