<?xml version="1.0" encoding="utf-8"?>
<!-- Generator: Adobe Illustrator 24.3.0, SVG Export Plug-In . SVG Version: 6.00 Build 0)  -->
<svg version="1.1" id="Layer_1" xmlns="http://www.w3.org/2000/svg" xmlns:xlink="http://www.w3.org/1999/xlink" x="0px" y="0px"
	 viewBox="0 0 693.4 556" style="enable-background:new 0 0 693.4 556;" xml:space="preserve">
<style type="text/css">
	.performance0{fill:none;stroke:#808080;stroke-linecap:round;stroke-linejoin:round;stroke-miterlimit:10;}
	.performance1{fill:none;stroke:#808080;stroke-miterlimit:10;}
	.performance2{fill:#EE5586;}
	.performance3{fill:none;stroke:#EE5586;stroke-width:2;stroke-linecap:round;stroke-linejoin:round;stroke-miterlimit:10;}
	.performance4{fill:none;stroke:#EE5586;stroke-width:3;stroke-linejoin:round;stroke-miterlimit:10;}
	.performance5{fill:none;stroke:#808080;stroke-width:2;stroke-linecap:round;stroke-linejoin:round;stroke-miterlimit:10;}
	.performance6{fill:none;stroke:#EE5586;stroke-width:3;stroke-linecap:round;stroke-linejoin:round;stroke-miterlimit:10;}
</style>
<g>
	<path class="performance0" d="M393.3,206.9c0,6.8-5.7,12.5-12.5,12.5c-6.8,0-12.5-5.7-12.5-12.5c0-6.8,5.7-12.5,12.5-12.5
		C387.8,194.2,393.3,199.9,393.3,206.9z"/>
	<path class="performance0" d="M385.5,206.9c0,2.5-2.1,4.7-4.7,4.7c-2.5,0-4.7-2.1-4.7-4.7c0-2.5,2.1-4.7,4.7-4.7
		C383.3,202.2,385.5,204.2,385.5,206.9z"/>
	<path class="performance0" d="M393.3,206.9h-7.8 M376.1,206.9h-7.8"/>
</g>
<g>
	<path class="performance0" d="M463.7,450.5c0,6.8-5.6,12.5-12.4,12.5s-12.4-5.7-12.4-12.5s5.6-12.5,12.4-12.5S463.7,443.7,463.7,450.5z"/>
	<path class="performance0" d="M455.7,450.5c0,2.5-2.1,4.7-4.7,4.7s-4.7-2.1-4.7-4.7s2.1-4.7,4.7-4.7C453.8,445.8,455.7,448,455.7,450.5z"/>
	<path class="performance0" d="M463.7,450.5h-7.9 M446.4,450.5h-7.8"/>
</g>
<g>
	<path class="performance0" d="M217,382.7c0,6.8-5.7,12.5-12.5,12.5s-12.5-5.7-12.5-12.5s5.7-12.5,12.5-12.5C211.5,370.2,217,375.9,217,382.7
		z"/>
	<path class="performance0" d="M209.2,382.7c0,2.5-2.1,4.7-4.7,4.7c-2.5,0-4.7-2.1-4.7-4.7s2.1-4.7,4.7-4.7C207,378,209.2,380.2,209.2,382.7z
		"/>
	<path class="performance0" d="M217,382.7h-7.8 M199.8,382.7H192"/>
</g>
<path class="performance1" d="M57.2,378.6c0,4.4-3.5,7.9-7.9,7.9c-4.3,0-7.9-3.5-7.9-7.9s3.5-7.9,7.9-7.9S57.2,374.2,57.2,378.6z"/>
<g>
	<path class="performance1" d="M57.5,315.9c0,4.4-3.5,7.9-7.9,7.9c-4.3,0-7.9-3.5-7.9-7.9s3.5-7.9,7.9-7.9C54,308.1,57.5,311.6,57.5,315.9z"
		/>
	
		<animate  accumulate="none" additive="replace" attributeName="stroke" calcMode="linear" dur="1s" fill="freeze" restart="always" stroke="gray" values="#808080;#ee5486;#ee5486;#808080">
		</animate>
</g>
<g>
	<path class="performance1" d="M71,254.7c0,4.4-3.5,7.9-7.9,7.9c-4.3,0-7.9-3.5-7.9-7.9s3.5-7.9,7.9-7.9C67.5,246.9,71,250.4,71,254.7
		L71,254.7z"/>
	
		<animate  accumulate="none" additive="replace" attributeName="stroke" calcMode="linear" dur="1s" fill="freeze" restart="always" stroke="gray" values="#808080;#ee5486;#ee5486;#808080">
		</animate>
</g>
<g>
	<path class="performance1" d="M95.8,198.2c0,4.4-3.5,7.9-7.9,7.9c-4.3,0-7.9-3.5-7.9-7.9s3.5-7.9,7.9-7.9C92.2,190.3,95.8,193.9,95.8,198.2z
		"/>
	
		<animate  accumulate="none" additive="replace" attributeName="stroke" calcMode="linear" dur="1s" fill="freeze" restart="always" stroke="gray" values="#808080;#ee5486;#ee5486;#808080">
		</animate>
</g>
<g>
	<path class="performance1" d="M132.7,148.3c0,4.4-3.5,7.9-7.9,7.9c-4.3,0-7.9-3.5-7.9-7.9s3.5-7.9,7.9-7.9
		C129.1,140.4,132.7,143.9,132.7,148.3z"/>
	
		<animate  accumulate="none" additive="replace" attributeName="stroke" calcMode="linear" dur="2s" fill="freeze" restart="always" stroke="gray" values="#808080;#ee5486;#ee5486;#808080">
		</animate>
</g>
<g>
	<path class="performance1" d="M179.1,107.3c0,4.4-3.5,7.9-7.9,7.9c-4.3,0-7.9-3.5-7.9-7.9s3.5-7.9,7.9-7.9C175.5,99.5,179.1,103,179.1,107.3
		z"/>
	
		<animate  accumulate="none" additive="replace" attributeName="stroke" calcMode="linear" dur="2s" fill="freeze" restart="always" stroke="gray" values="#808080;#ee5486;#ee5486;#808080">
		</animate>
</g>
<g>
	<path class="performance1" d="M232.3,76c0,4.4-3.5,7.9-7.9,7.9c-4.3,0-7.9-3.5-7.9-7.9s3.5-7.9,7.9-7.9S232.3,71.6,232.3,76z"/>
	
		<animate  accumulate="none" additive="replace" attributeName="stroke" calcMode="linear" dur="2s" fill="freeze" restart="always" stroke="gray" values="#808080;#ee5486;#ee5486;#808080">
		</animate>
</g>
<g>
	<path class="performance1" d="M291.7,57.5c0,4.4-3.5,7.9-7.9,7.9c-4.3,0-7.9-3.5-7.9-7.9s3.5-7.9,7.9-7.9C288.2,49.7,291.7,53.2,291.7,57.5z
		"/>
	
		<animate  accumulate="none" additive="replace" attributeName="stroke" calcMode="linear" dur="2s" fill="freeze" restart="always" stroke="gray" values="#808080;#ee5486;#ee5486;#808080">
		</animate>
</g>
<g>
	<path class="performance1" d="M353.1,51c0,4.4-3.5,7.9-7.9,7.9c-4.3,0-7.9-3.5-7.9-7.9s3.5-7.9,7.9-7.9C349.6,43.2,353.1,46.7,353.1,51z"/>
	
		<animate  accumulate="none" additive="replace" attributeName="stroke" calcMode="linear" dur="3s" fill="freeze" restart="always" stroke="gray" values="#808080;#ee5486;#ee5486;#808080">
		</animate>
</g>
<g>
	<path class="performance1" d="M414.3,57.5c0,4.4-3.5,7.9-7.9,7.9c-4.3,0-7.9-3.5-7.9-7.9s3.5-7.9,7.9-7.9S414.3,53.1,414.3,57.5z"/>
	
		<animate  accumulate="none" additive="replace" attributeName="stroke" calcMode="linear" dur="3s" fill="freeze" restart="always" stroke="gray" values="#808080;#ee5486;#ee5486;#808080">
		</animate>
</g>
<g>
	<path class="performance1" d="M473.2,76.4c0,4.4-3.5,7.9-7.9,7.9c-4.3,0-7.9-3.5-7.9-7.9s3.5-7.9,7.9-7.9C469.6,68.6,473.2,72.1,473.2,76.4z
		"/>
	
		<animate  accumulate="none" additive="replace" attributeName="stroke" calcMode="linear" dur="3s" fill="freeze" restart="always" stroke="gray" values="#808080;#ee5486;#ee5486;#808080">
		</animate>
</g>
<g>
	<path class="performance1" d="M526.8,107.7c0,4.4-3.5,7.9-7.9,7.9c-4.3,0-7.9-3.5-7.9-7.9s3.5-7.9,7.9-7.9
		C523.3,99.9,526.8,103.4,526.8,107.7z"/>
	
		<animate  accumulate="none" additive="replace" attributeName="stroke" calcMode="linear" dur="3s" fill="freeze" restart="always" stroke="gray" values="#808080;#ee5486;#ee5486;#808080">
		</animate>
</g>
<g>
	<path class="performance1" d="M573,148.7c0,4.4-3.5,7.9-7.9,7.9c-4.3,0-7.9-3.5-7.9-7.9s3.5-7.9,7.9-7.9C569.5,140.9,573,144.4,573,148.7z"
		/>
	
		<animate  accumulate="none" additive="replace" attributeName="stroke" calcMode="linear" dur="3s" fill="freeze" restart="always" stroke="gray" values="#808080;#ee5486;#ee5486;#808080">
		</animate>
</g>
<path id="svg-ico" class="performance2" d="M609.4,199c0,4.4-3.5,7.9-7.9,7.9c-4.3,0-7.9-3.5-7.9-7.9s3.5-7.9,7.9-7.9
	C605.8,191.1,609.4,194.6,609.4,199z M634.5,255.1c0,4.4-3.5,7.9-7.9,7.9c-4.3,0-7.9-3.5-7.9-7.9s3.5-7.9,7.9-7.9
	S634.5,250.7,634.5,255.1z M647.4,316c0,4.4-3.5,7.9-7.9,7.9c-4.3,0-7.9-3.5-7.9-7.9s3.5-7.9,7.9-7.9S647.4,311.6,647.4,316z
	 M646.9,378.1c0,4.4-3.5,7.9-7.9,7.9c-4.3,0-7.9-3.5-7.9-7.9s3.5-7.9,7.9-7.9S646.9,373.7,646.9,378.1z"/>
<g>
	<path id="svg-concept" class="performance3" d="M300.1,179.5c0,0,35.6,50.9,37.5,139.6 M238.6,209.6c0,0,52.5,33.2,88.5,114.4 M193.6,261
		c0,0,61.2,10.6,125.6,71.7 M172,324.6c0,0,60.6-13.4,143.4,18.8 M176.4,392.6c0,0,50.9-35.5,139.6-37.4 M206.9,454
		c0,0,33.3-52.3,114.6-88.1 M494,435.5c0,0-60.9-10.7-124.8-72.3 M516.4,370.8c0,0-60.3,13.6-143.1-18.6 M512.1,302.7
		c0,0-50.6,35.7-139.3,37.7 M482.5,242.3c0,0-33.3,52.2-114.7,87.7 M431.5,197.2c0,0-11,61-72.7,124.9 M366.6,175.2
		c0,0,13.2,60.7-19.2,143.3 M258.3,498.8c0,0,10.6-61.2,71.8-125.5 M322.8,520.3c0,0-13.7-60.6,18.2-143.4 M389.5,515.6
		c0,0-35.7-55.1-37.5-139.6 M449.9,485.9c0,0-52.3-33.4-88-114.7"/>
	
		<animateTransform  accumulate="none" additive="replace" attributeName="transform" begin="0s" calcMode="linear" dur="2s" fill="remove" from="0 343 350" repeatCount="indefinite" restart="always" to="360 347 345" type="rotate">
		</animateTransform>
</g>
<path class="performance0" d="M345.2,8.1v19.4 M6.6,311.5l19.4,2 M6.6,382.7l19.3-2 M21.7,241.3l18.6,6.1 M51,176.9l16.7,9.7 M93,119.6
	l14.3,12.9 M145.8,72.4L157.1,88 M207,37.1l7.9,17.7 M274.2,15.2l4,19.1 M6.6,382.7c-1.2-11.5-1.8-35-1.8-35
	C4.8,160.1,156.9,8.1,344.4,8.1S684,160.2,684,347.7c0,11.7-0.6,23.3-1.8,34.7 M5.2,365.2l9-0.4 M4.8,347.1h8.9 M5.3,328.7l8.9,0.5
	 M9,293.8l8.9,1.4 M12.3,276.6l8.4,1.8 M16.4,259.3l8.6,2.4 M28.1,223.7l8.3,3.3 M34.7,208.2l8.1,3.6 M42.3,192.4l7.9,4 M60.9,160.6
	l7.5,4.9 M70.7,146.6l7.2,5.3 M81.7,132.4l6.9,5.7 M106.6,105.3l6.3,6.3 M118.9,94.1l5.8,6.4 M132,82.7l5.5,7 M160.5,62.5l4.6,7.2
	 M175.5,53l4.4,7.7 M190.9,44.7l4.1,7.9 M223.1,30.4l3.2,8.3 M239.3,24.7l2.8,8.4 M256.4,19.6l2.3,8.6 M292,12.4l1.3,8.5 M310.6,9.7
	l0.9,8.9 M328.3,8.5l0.4,8.5 M682.2,311.6l-19.5,2.1 M682.3,382.5l-19.4-2.1 M667.2,241.8l-18.5,6.1 M638.4,177.5l-16.9,9.8
	 M596.7,120.3l-14.5,13 M544.2,73l-11.5,15.8 M483.2,37.6l-7.9,17.8 M416.2,15.7l-4.1,19 M683.7,365.2l-9.1-0.5 M684.1,347.1H675
	 M683.6,328.8l-9.1,0.5 M679.9,294.1l-9,1.4 M676.7,276.9l-8.8,1.9 M672.5,259.8l-8.6,2.3 M660.9,224.2l-8.4,3.3 M654.5,208.8
	l-8.3,3.7 M646.9,193l-8,4.1 M628.4,161.3l-7.5,5 M618.7,147.3l-7.2,5.4 M607.8,133.2l-7,5.7 M583.1,106l-6.3,6.4 M571,94.7l-6,6.7
	 M557.9,83.5l-5.7,7 M529.7,63l-4.9,7.5 M514.6,53.7l-4.5,7.8 M499.2,45.3l-4.1,8 M467.2,30.9l-3.3,8.4 M451,25.1l-2.8,8.5
	 M433.9,20l-2.3,8.6 M398.4,12.4l-1.3,8.8 M379.8,9.9l-0.9,8.9 M362.1,8.5l-0.4,8.9"/>
<circle id="svg-ico" class="performance2" cx="6.8" cy="382.7" r="3"/>
<circle id="svg-ico" class="performance2" cx="6.7" cy="311.5" r="3"/>
<circle id="svg-ico" class="performance2" cx="21.8" cy="241.3" r="3"/>
<circle id="svg-ico" class="performance2" cx="51.2" cy="177" r="3"/>
<circle id="svg-ico" class="performance2" cx="93.2" cy="119.7" r="3"/>
<circle id="svg-ico" class="performance2" cx="146" cy="72.6" r="3"/>
<circle id="svg-ico" class="performance2" cx="207.2" cy="37.4" r="3"/>
<circle id="svg-ico" class="performance2" cx="274.2" cy="15.4" r="3"/>
<circle id="svg-ico" class="performance2" cx="345.2" cy="8.1" r="3"/>
<circle id="svg-ico" class="performance2" cx="416.1" cy="16.1" r="3"/>
<circle id="svg-ico" class="performance2" cx="483" cy="37.9" r="3"/>
<circle id="svg-ico" class="performance2" cx="544" cy="73.2" r="3"/>
<circle id="svg-ico" class="performance2" cx="596.3" cy="120.6" r="3"/>
<circle id="svg-ico" class="performance2" cx="638.2" cy="177.6" r="3"/>
<circle id="svg-ico" class="performance2" cx="666.9" cy="241.9" r="3"/>
<circle id="svg-ico" class="performance2" cx="681.8" cy="311.7" r="3"/>
<circle id="svg-ico" class="performance2" cx="682" cy="382.4" r="3"/>
<path class="performance0" d="M365.1,368.4c-11.5,11.5-30,11.5-41.5,0c-11.4-11.4-11.4-30,0-41.5c11.5-11.5,30-11.4,41.4,0
	C376.5,338.4,376.6,356.9,365.1,368.4z"/>
<path class="performance0" d="M352.1,355.4c-4.2,4.2-11.1,4.3-15.4,0c-4.2-4.2-4.2-11.1,0-15.4c4.2-4.2,11.1-4.2,15.4,0
	C356.3,344.2,356.3,351.1,352.1,355.4z M365.1,368.4l-13.1-13 M334.7,342l-13-13"/>
<g>
	<path id="svg-concept" class="performance4" d="M155.3,378l-35-4.5c-3.8-0.5-4.4-5.8-0.8-7.1l33.4-12.4"/>
	
		<animateTransform  accumulate="none" additive="replace" attributeName="transform" calcMode="linear" dur="2s" fill="freeze" from="0 346 348" restart="always" to="192 344 349" type="rotate">
		</animateTransform>
</g>
<path class="performance5" d="M222.1,439.8c25.4-25.4,25.4-66.5,0-91.9c-13.9-13.9-32.6-20.2-50.8-18.8c4.2-38.1,21-75.1,50.2-104.3
	s66.2-45.9,104.3-50.2c-1.4,18.2,4.9,36.9,18.8,50.8c25.4,25.4,66.5,25.4,91.9,0c5.3-5.3,9.5-11.3,12.6-17.8
	c6.9,5.1,13.6,10.8,19.9,17.1c52.4,52.4,64.6,129.8,36.7,193.8c-25.3-17.3-60.1-14.8-82.6,7.7s-25,57.3-7.7,82.6
	c-64,28-141.4,15.7-193.8-36.7c-6.3-6.3-12-12.9-17.1-19.9C210.7,449.3,216.7,445.1,222.1,439.8L222.1,439.8z"/>
<path id="svg-concept" class="performance6" d="M151.9,355.3c-0.1-2.5-0.1-5.1-0.1-7.6c0-106.3,86.2-192.5,192.5-192.5
	s192.5,86.2,192.5,192.5s-86.2,192.5-192.5,192.5C240.5,540.1,155.9,458,151.9,355.3"/>
</svg>
