<?xml version="1.0" encoding="utf-8"?>
<!-- Generator: Adobe Illustrator 24.3.0, SVG Export Plug-In . SVG Version: 6.00 Build 0)  -->
<svg version="1.1" id="Layer_1" xmlns="http://www.w3.org/2000/svg" xmlns:xlink="http://www.w3.org/1999/xlink" x="0px" y="0px"
	 viewBox="0 0 438.8 435.8" style="enable-background:new 0 0 438.8 435.8;" xml:space="preserve">
<style type="text/css">
	.protectvisitors0{fill:none;stroke:#808080;stroke-linecap:round;stroke-linejoin:round;stroke-miterlimit:10;}
	.protectvisitors1{fill:none;stroke:#EE5586;stroke-width:2;stroke-linecap:round;stroke-linejoin:round;stroke-dasharray:8,8;}
	.protectvisitors2{fill:none;stroke:#EE5586;stroke-width:2;stroke-linecap:round;stroke-linejoin:round;}
	.protectvisitors3{fill:none;stroke:#EE5586;stroke-width:2;stroke-linecap:round;stroke-linejoin:round;stroke-miterlimit:10;}
	.protectvisitors4{fill:#EE5586;}
	.protectvisitors5{fill:none;stroke:#EE5586;stroke-width:2;stroke-linecap:round;stroke-linejoin:round;stroke-miterlimit:10;}
</style>
<path class="protectvisitors0" d="M378.8,114.6c33.8,37.8,54.3,87.7,54.3,142.4H281.4"/>
<path class="protectvisitors0" d="M316,66.2c10.2,5.2,19.9,11.1,29.1,17.8"/>
<path class="protectvisitors0" d="M251.8,45.6c18.2,2.8,35.6,7.8,52,14.9"/>
<path class="protectvisitors0" d="M111.8,72.2c22-12.8,46.4-21.8,72.5-26.1"/>
<path class="protectvisitors0" d="M157.6,257H5.6c0-50,17.2-96.1,46-132.5"/>
<path id="svg-concept" class="protectvisitors1" d="M219.4,60.5v48.6"/>
<path id="svg-concept" class="protectvisitors2" d="M219.4,111.4v2.5"/>
<path id="svg-concept" class="protectvisitors1" d="M88.8,126.1l57.2,57.3"/>
<path id="svg-concept" class="protectvisitors2" d="M147.8,185.1l1.8,1.8"/>
<g>
	<path id="svg-concept" class="protectvisitors1" d="M359,118.5l-65.6,65.6"/>
	<path id="svg-concept" class="protectvisitors2" d="M291.7,185.8l-1.8,1.8"/>
</g>
<g>
	<path class="protectvisitors0" d="M44,70.2h67v53.6H44V70.2z"/>
	<path class="protectvisitors0" d="M44,83.6h67 M56,77.4c0,1.2-1,2.2-2.2,2.2s-2.2-1-2.2-2.2s1-2.2,2.2-2.2S56,76.2,56,77.4z"/>
	<circle class="protectvisitors0" cx="64.3" cy="77.4" r="2.2"/>
	<circle class="protectvisitors0" cx="74.9" cy="77.4" r="2.2"/>
	<path id="svg-concept" class="protectvisitors3" d="M77.5,117.1c4.9,0,8.9-4,8.9-8.9s-4-8.9-8.9-8.9s-8.9,4-8.9,8.9S72.6,117.1,77.5,117.1z"
		/>
	<path id="svg-concept" class="protectvisitors3" d="M77.5,106.7v4.4 M72.9,97.1v-2.9c0-1.6,1.3-2.9,3-2.9h3.3c1.6,0,3,1.3,3,2.9v2.9"/>
</g>
<g>
	<path class="protectvisitors0" d="M345.5,72h53.3v42.6h-53.3V72z"/>
	<path id="svg-concept" class="protectvisitors3" d="M355.7,99.4l9.9-8.2l9.8,9.9l13.2-13.2"/>
	<path id="svg-concept" class="protectvisitors3" d="M380.4,87.9h8.2v8.2"/>
	<path class="protectvisitors0" d="M372.2,117.2v6.2 M360.6,129.1l11.6-6l11.5,6"/>
</g>
<g>
	<path class="protectvisitors0" d="M193.1,12.5V4.8h58v46.4h-7.7"/>
	<path id="svg-concept" class="protectvisitors3" d="M185,12.9h58v46.4h-58V12.9z"/>
	<path id="svg-concept" class="protectvisitors3" d="M185,24.5h58"/>
	<path class="protectvisitors0" d="M195.4,18.9c0,1.1-0.9,1.9-1.9,1.9c-1.1,0-1.9-0.9-1.9-1.9c0-1.1,0.9-1.9,1.9-1.9
		C194.6,17,195.4,17.9,195.4,18.9z"/>
	<circle class="protectvisitors0" cx="202.6" cy="18.9" r="1.9"/>
	<circle class="protectvisitors0" cx="211.7" cy="18.9" r="1.9"/>
</g>
<g>
	<path id="svg-ico" class="protectvisitors4" d="M149.5,181.7c0,2.8-2.2,5-5,5s-5-2.2-5-5s2.2-5,5-5S149.5,178.9,149.5,181.7z"/>
	
		<animateMotion  accumulate="none" additive="replace" begin="0s" calcMode="paced" dur="1s" fill="remove" path="M0 0 -55 -55 0" repeatCount="indefinite" restart="always">
		</animateMotion>
</g>
<g>
	<path id="svg-ico" class="protectvisitors4" d="M224.4,107.3c0,2.7-2.2,5-5,5s-5-2.3-5-5c0-2.8,2.2-5,5-5S224.4,104.5,224.4,107.3z"/>
	
		<animateMotion  accumulate="none" additive="replace" begin="1.5s" calcMode="paced" dur="1s" fill="remove" path="M0, 0 0 -45" repeatCount="indefinite" restart="always">
		</animateMotion>
</g>
<g>
	<path id="svg-ico" class="protectvisitors4" d="M299.1,183.2c0,2.7-2.2,5-5,5c-2.8,0-5-2.3-5-5c0-2.8,2.2-5,5-5
		C296.8,178.2,299.1,180.5,299.1,183.2z"/>
	
		<animateMotion  accumulate="none" additive="replace" begin="1.5s" calcMode="paced" dur="1s" fill="remove" path="M0 0 65 -65" repeatCount="indefinite" restart="always">
		</animateMotion>
</g>
<path class="protectvisitors0" d="M238.3,113.9l-3.4,18.1c26.2,6.6,47.5,29.8,56,60.2h9.4l-5.5,34.4l-10.1,3.1v1.4c-1.7,46.1-30.3,82.7-65.3,82.7
	s-63.6-36.6-65.3-82.7v-1.4l-10.2-3.2l-5.4-34.4h9.4c8.5-30.3,29.7-53.5,55.9-60.2l-3.3-18.1L238.3,113.9L238.3,113.9z M219.4,130.1
	v-16.2 M219.4,312v-43.1"/>
<path id="svg-concept" class="protectvisitors5" d="M219.4,249.9v-57.7 M219.4,249.9l-75.5-23.3 M219.4,249.9l75.4-23.3 M138.5,192.2h161.8
	 M138.5,192.2l5.4,34.4 M300.3,192.2l-5.5,34.4 M273.9,192.2v27 M165,192.2v27 M245.2,192.2V230 M194.2,192.2V230"/>
<path class="protectvisitors0" d="M200.5,113.9h37.8 M208.6,157.8h21.6 M203.8,132l4.8,25.8 M234.9,132l-4.7,25.8"/>
<path class="protectvisitors0" d="M187.4,326.2h89.5c18.2,0,32.9,14.8,32.9,32.9V392H180.4"/>
<path class="protectvisitors0" d="M276.9,326.2l32.9,32.9"/>
<path id="svg-concept" class="protectvisitors3" d="M127.5,296.1c17.6,18,59.9,17.6,59.9,17.6v58.6c0,32.4-60,58.6-60,58.6
	s-56.9-26.2-56.9-58.6v-58.6C70.5,313.7,109.9,314.1,127.5,296.1"/>
<path class="protectvisitors0" d="M127.6,315.7c14.1,14.5,44,14.1,44,14.1l0.1,39.5c0,23.5-44.4,42.2-44.4,42.2s-41.6-18.8-41.6-42.2l-0.1-39.5
	C85.7,329.8,113.5,330.1,127.6,315.7 M103.4,339.1l-3.9,3.9 M119,339.1l-21.5,21.5"/>
<path class="protectvisitors0" d="M319,99.1h-18.7V84.5l9.5-51.1l9.2,51.1V99.1z"/>
<path class="protectvisitors0" d="M309.8,88.1V392"/>
</svg>
