<?xml version="1.0" encoding="utf-8"?>
<!-- Generator: Adobe Illustrator 24.3.0, SVG Export Plug-In . SVG Version: 6.00 Build 0)  -->
<svg version="1.1" id="Layer_1" xmlns="http://www.w3.org/2000/svg" xmlns:xlink="http://www.w3.org/1999/xlink" x="0px" y="0px"
	 viewBox="0 0 1105.7 474" style="enable-background:new 0 0 1105.7 474;" xml:space="preserve">
<style type="text/css">
	.provisioning0{fill:none;stroke:#808080;stroke-linecap:round;stroke-linejoin:round;stroke-miterlimit:10;}
	.provisioning1{fill:none;stroke:#EE5586;stroke-width:2;stroke-linecap:round;stroke-linejoin:round;stroke-miterlimit:10;}
	.provisioning2{fill:none;stroke:#808080;stroke-width:2;stroke-linecap:round;stroke-linejoin:round;stroke-miterlimit:10;}
	.provisioning3{fill:none;stroke:#EE5586;stroke-linecap:round;stroke-linejoin:round;stroke-miterlimit:10;}
	.provisioning4{fill:none;stroke:#808080;stroke-linecap:round;stroke-linejoin:round;}
	.provisioning5{fill:none;stroke:#808080;stroke-linecap:round;stroke-linejoin:round;stroke-dasharray:3.0246,3.0246;}
	.provisioning6{fill:#EE5586;}
	.provisioning7{fill:none;stroke:#EE5586;stroke-width:3;stroke-linecap:round;stroke-linejoin:round;stroke-miterlimit:10;}
</style>
<path class="provisioning0" d="M775.1,271.2h330.4 M349.6,271.2h404.1 M0,271.2h329.3 M761,330.3h344.5 M449.2,330.3h206 M0,330.3h344.4
	 M707,411.3h398.5 M0,411.3h397.9"/>
<g>
	<path id="svg-concept" class="provisioning1" d="M66.5,300.7c0,15.9-12.9,28.9-28.8,28.9S8.9,316.7,8.9,300.7s12.9-28.8,28.8-28.8
		S66.5,284.8,66.5,300.7z"/>
	<path id="svg-concept" class="provisioning1" d="M48.4,300.7c0,5.9-4.8,10.7-10.7,10.7S27,306.6,27,300.7S31.8,290,37.7,290
		C43.6,290.1,48.4,294.8,48.4,300.7z M66.5,300.8H48.4 M27,300.8H8.9"/>
	
		<animateTransform  accumulate="none" additive="replace" attributeName="transform" begin="0s" calcMode="linear" dur="1s" fill="remove" from="0 37 301" repeatCount="indefinite" restart="always" to="360 38 301" type="rotate">
		</animateTransform>
</g>
<g>
	<path id="svg-concept" class="provisioning1" d="M213.7,300.7c0,15.9-12.9,28.9-28.8,28.9s-28.8-12.9-28.8-28.9s12.9-28.8,28.8-28.8
		S213.7,284.8,213.7,300.7z"/>
	<path id="svg-concept" class="provisioning1" d="M195.6,300.7c0,5.9-4.8,10.7-10.7,10.7s-10.7-4.8-10.7-10.7S179,290,184.9,290
		C190.8,290.1,195.6,294.8,195.6,300.7L195.6,300.7z M213.7,300.8h-18.1 M174.2,300.8H156"/>
	
		<animateTransform  accumulate="none" additive="replace" attributeName="transform" begin="0s" calcMode="linear" dur="1s" fill="remove" from="0 185 301" repeatCount="indefinite" restart="always" to="360 185 301" type="rotate">
		</animateTransform>
</g>
<g>
	<path id="svg-concept" class="provisioning1" d="M508,300.7c0,15.9-12.9,28.9-28.8,28.9s-28.8-12.9-28.8-28.9s12.9-28.8,28.8-28.8
		S508,284.8,508,300.7z"/>
	<path id="svg-concept" class="provisioning1" d="M489.9,300.7c0,5.9-4.8,10.7-10.7,10.7c-5.9,0-10.7-4.8-10.7-10.7s4.8-10.7,10.7-10.7
		C485.1,290.1,489.9,294.8,489.9,300.7z M508,300.8h-18.1 M468.5,300.8h-18.1"/>
	
		<animateTransform  accumulate="none" additive="replace" attributeName="transform" begin="0.5s" calcMode="linear" dur="1s" fill="remove" from="0 479 301" repeatCount="indefinite" restart="always" to="360 479 301" type="rotate">
		</animateTransform>
</g>
<g>
	<path id="svg-concept" class="provisioning1" d="M655.2,300.7c0,15.9-12.9,28.9-28.8,28.9s-28.8-12.9-28.8-28.9s12.9-28.8,28.8-28.8
		C642.2,271.9,655.2,284.8,655.2,300.7z"/>
	<path id="svg-concept" class="provisioning1" d="M637,300.7c0,5.9-4.8,10.7-10.7,10.7s-10.7-4.8-10.7-10.7s4.8-10.7,10.7-10.7
		C632.2,290.1,637,294.8,637,300.7z M655.2,300.8H637 M615.6,300.8h-18.1"/>
	
		<animateTransform  accumulate="none" additive="replace" attributeName="transform" begin="0.5s" calcMode="linear" dur="1s" fill="remove" from="0 626 301" repeatCount="indefinite" restart="always" to="360 626 301" type="rotate">
		</animateTransform>
</g>
<g>
	<path id="svg-concept" class="provisioning1" d="M949.5,300.7c0,15.9-12.9,28.9-28.8,28.9s-28.8-12.9-28.8-28.9s12.9-28.8,28.8-28.8
		S949.5,284.8,949.5,300.7z"/>
	<path id="svg-concept" class="provisioning1" d="M931.3,300.7c0,5.9-4.8,10.7-10.7,10.7s-10.7-4.8-10.7-10.7s4.8-10.7,10.7-10.7
		C926.6,290.1,931.3,294.8,931.3,300.7z M949.5,300.8h-18.2 M910,300.8h-18.2"/>
	
		<animateTransform  accumulate="none" additive="replace" attributeName="transform" begin="0.5s" calcMode="linear" dur="1s" fill="remove" from="0 921 301" repeatCount="indefinite" restart="always" to="360 921 301" type="rotate">
		</animateTransform>
</g>
<g>
	<path id="svg-concept" class="provisioning1" d="M1096.6,300.7c0,15.9-12.9,28.9-28.8,28.9s-28.8-12.9-28.8-28.9s12.9-28.8,28.8-28.8
		S1096.6,284.8,1096.6,300.7z"/>
	<path id="svg-concept" class="provisioning1" d="M1078.5,300.7c0,5.9-4.8,10.7-10.7,10.7c-5.9,0-10.7-4.8-10.7-10.7s4.8-10.7,10.7-10.7
		C1073.7,290.1,1078.5,294.8,1078.5,300.7z M1096.6,300.8h-18.1 M1057.1,300.8H1039"/>
	
		<animateTransform  accumulate="none" additive="replace" attributeName="transform" begin="0.5s" calcMode="linear" dur="1s" fill="remove" from="0 1068 301" repeatCount="indefinite" restart="always" to="360 1068 301" type="rotate">
		</animateTransform>
</g>
<g>
	<path class="provisioning2" d="M686.7,257c0,4.3-3.2,7.8-7.2,7.8H426c-4,0-7.2-3.5-7.2-7.8v-27.8c0-4.3,3.2-7.8,7.2-7.8h253.6
		c3.9,0,7.2,3.5,7.2,7.8L686.7,257L686.7,257z"/>
	<path id="svg-concept" class="provisioning1" d="M489,239.9h-1.1c-0.7,0-1.2-0.5-1.2-1.2v-1.1c0-0.7,0.5-1.2,1.2-1.2h1.1
		c0.7,0,1.2,0.5,1.2,1.2v1.1C490.2,239.4,489.7,239.9,489,239.9z M484.5,253.2H483c-0.9,0-1.7-0.8-1.7-1.7V250
		c0-0.9,0.8-1.7,1.7-1.7h1.5c0.9,0,1.7,0.8,1.7,1.7v1.5C486.2,252.4,485.4,253.2,484.5,253.2z M549.5,239.9h-1.1
		c-0.7,0-1.2-0.5-1.2-1.2v-1.1c0-0.7,0.5-1.2,1.2-1.2h1.1c0.7,0,1.2,0.5,1.2,1.2v1.1C550.8,239.4,550.2,239.9,549.5,239.9z
		 M545,253.2h-1.5c-0.9,0-1.7-0.8-1.7-1.7V250c0-0.9,0.8-1.7,1.7-1.7h1.5c0.9,0,1.7,0.8,1.7,1.7v1.5
		C546.7,252.4,545.9,253.2,545,253.2z M610,239.9h-1c-0.7,0-1.2-0.5-1.2-1.2v-1.1c0-0.7,0.5-1.2,1.2-1.2h1.1c0.7,0,1.2,0.5,1.2,1.2
		v1.1C611.3,239.4,610.7,239.9,610,239.9z M605.5,253.2H604c-0.9,0-1.7-0.8-1.7-1.7V250c0-0.9,0.8-1.7,1.7-1.7h1.5
		c0.9,0,1.7,0.8,1.7,1.7v1.5C607.2,252.4,606.4,253.2,605.5,253.2z M653,243.1c0,5.1-4.2,9.3-9.3,9.3s-9.3-4.2-9.3-9.3
		s4.2-9.3,9.3-9.3S653,238,653,243.1z"/>
	<path id="svg-concept" class="provisioning1" d="M647.1,243.1c0,1.9-1.5,3.4-3.4,3.4s-3.4-1.5-3.4-3.4s1.5-3.4,3.4-3.4
		S647.1,241.2,647.1,243.1z M653,243.1h-5.9 M640.2,243.1h-5.8"/>
	<path class="provisioning0" d="M433.6,221.4v43.3 M672,221.4v43.4 M486.2,256.6h-43.7c-2.2,0-4-1.8-4-4V249c0-2.2,1.8-4,4-4h43.7
		c2.2,0,4,1.8,4,4v3.6C490.2,254.8,488.4,256.6,486.2,256.6z M445,239.9h-1c-0.7,0-1.2-0.5-1.2-1.2v-1.1c0-0.7,0.5-1.2,1.2-1.2h1.1
		c0.7,0,1.2,0.5,1.2,1.2v1.1C446.3,239.4,445.7,239.9,445,239.9L445,239.9z M452.1,239.9H451c-0.7,0-1.2-0.5-1.2-1.2v-1.1
		c0-0.7,0.5-1.2,1.2-1.2h1.1c0.7,0,1.2,0.5,1.2,1.2v1.1C453.3,239.4,452.8,239.9,452.1,239.9z M462.1,239.9H461
		c-0.7,0-1.2-0.5-1.2-1.2v-1.1c0-0.7,0.5-1.2,1.2-1.2h1.1c0.7,0,1.2,0.5,1.2,1.2v1.1C463.3,239.4,462.8,239.9,462.1,239.9z
		 M445,232.2h-1c-0.7,0-1.2-0.5-1.2-1.2v-1.1c0-0.7,0.5-1.2,1.2-1.2h1.1c0.7,0,1.2,0.5,1.2,1.2v1.1
		C446.3,231.7,445.7,232.2,445,232.2L445,232.2z M452.1,232.2H451c-0.7,0-1.2-0.5-1.2-1.2v-1.1c0-0.7,0.5-1.2,1.2-1.2h1.1
		c0.7,0,1.2,0.5,1.2,1.2v1.1C453.3,231.7,452.8,232.2,452.1,232.2z M488.9,232.2h-1.1c-0.7,0-1.2-0.5-1.2-1.2v-1.1
		c0-0.7,0.5-1.2,1.2-1.2h1.1c0.7,0,1.2,0.5,1.2,1.2v1.1C490.2,231.7,489.6,232.2,488.9,232.2z M469.2,239.9h-1.1
		c-0.7,0-1.2-0.5-1.2-1.2v-1.1c0-0.7,0.5-1.2,1.2-1.2h1.1c0.7,0,1.2,0.5,1.2,1.2v1.1C470.4,239.4,469.9,239.9,469.2,239.9z
		 M476.2,239.9h-1.1c-0.7,0-1.2-0.5-1.2-1.2v-1.1c0-0.7,0.5-1.2,1.2-1.2h1.1c0.7,0,1.2,0.5,1.2,1.2v1.1
		C477.4,239.4,476.8,239.9,476.2,239.9z"/>
	<path class="provisioning0" d="M476.3,239.9h-1.1c-0.7,0-1.2-0.5-1.2-1.2v-1.1c0-0.7,0.5-1.2,1.2-1.2h1.1c0.7,0,1.2,0.5,1.2,1.2v1.1
		C477.5,239.4,476.9,239.9,476.3,239.9z M476.3,232.2h-14.6c-0.7,0-1.2-0.5-1.2-1.2v-1.1c0-0.7,0.5-1.2,1.2-1.2h14.6
		c0.7,0,1.2,0.5,1.2,1.2v1.1C477.5,231.7,476.9,232.2,476.3,232.2z M456.7,245v11.6 M475.5,253.2H474c-0.9,0-1.7-0.8-1.7-1.7V250
		c0-0.9,0.8-1.7,1.7-1.7h1.5c0.9,0,1.7,0.8,1.7,1.7v1.5C477.2,252.4,476.4,253.2,475.5,253.2z M546.8,256.6h-43.7c-2.2,0-4-1.8-4-4
		V249c0-2.2,1.8-4,4-4h43.7c2.2,0,4,1.8,4,4v3.6C550.8,254.8,549,256.6,546.8,256.6z M505.6,239.9h-1.1c-0.7,0-1.2-0.5-1.2-1.2v-1.1
		c0-0.7,0.5-1.2,1.2-1.2h1.1c0.7,0,1.2,0.5,1.2,1.2v1.1C506.8,239.4,506.2,239.9,505.6,239.9z M512.6,239.9h-1.1
		c-0.7,0-1.2-0.5-1.2-1.2v-1.1c0-0.7,0.5-1.2,1.2-1.2h1.1c0.7,0,1.2,0.5,1.2,1.2v1.1C513.9,239.4,513.3,239.9,512.6,239.9z
		 M522.6,239.9h-1.1c-0.7,0-1.2-0.5-1.2-1.2v-1.1c0-0.7,0.5-1.2,1.2-1.2h1.1c0.7,0,1.2,0.5,1.2,1.2v1.1
		C523.8,239.4,523.3,239.9,522.6,239.9z M505.6,232.2h-1.1c-0.7,0-1.2-0.5-1.2-1.2v-1.1c0-0.7,0.5-1.2,1.2-1.2h1.1
		c0.7,0,1.2,0.5,1.2,1.2v1.1C506.8,231.7,506.2,232.2,505.6,232.2z M512.6,232.2h-1.1c-0.7,0-1.2-0.5-1.2-1.2v-1.1
		c0-0.7,0.5-1.2,1.2-1.2h1.1c0.7,0,1.2,0.5,1.2,1.2v1.1C513.9,231.7,513.3,232.2,512.6,232.2z M549.4,232.2h-1.1
		c-0.7,0-1.2-0.5-1.2-1.2v-1.1c0-0.7,0.5-1.2,1.2-1.2h1.1c0.7,0,1.2,0.5,1.2,1.2v1.1C550.7,231.7,550.1,232.2,549.4,232.2z
		 M529.7,239.9h-1.1c-0.7,0-1.2-0.5-1.2-1.2v-1.1c0-0.7,0.5-1.2,1.2-1.2h1.1c0.7,0,1.2,0.5,1.2,1.2v1.1
		C530.9,239.4,530.4,239.9,529.7,239.9z M536.7,239.9h-1.1c-0.7,0-1.2-0.5-1.2-1.2v-1.1c0-0.7,0.5-1.2,1.2-1.2h1.1
		c0.7,0,1.2,0.5,1.2,1.2v1.1C537.9,239.4,537.3,239.9,536.7,239.9z"/>
	<path class="provisioning0" d="M536.8,239.9h-1.1c-0.7,0-1.2-0.5-1.2-1.2v-1.1c0-0.7,0.5-1.2,1.2-1.2h1.1c0.7,0,1.2,0.5,1.2,1.2v1.1
		C538,239.4,537.5,239.9,536.8,239.9z M536.8,232.2h-14.6c-0.7,0-1.2-0.5-1.2-1.2v-1.1c0-0.7,0.5-1.2,1.2-1.2h14.6
		c0.7,0,1.2,0.5,1.2,1.2v1.1C538,231.7,537.5,232.2,536.8,232.2z M517.3,245v11.6 M536,253.2h-1.5c-0.9,0-1.7-0.8-1.7-1.7V250
		c0-0.9,0.8-1.7,1.7-1.7h1.5c0.9,0,1.7,0.8,1.7,1.7v1.5C537.7,252.4,536.9,253.2,536,253.2z M607.3,256.6h-43.7c-2.2,0-4-1.8-4-4
		V249c0-2.2,1.8-4,4-4h43.7c2.2,0,4,1.8,4,4v3.6C611.3,254.8,609.5,256.6,607.3,256.6z M566.1,239.9H565c-0.7,0-1.2-0.5-1.2-1.2
		v-1.1c0-0.7,0.5-1.2,1.2-1.2h1.1c0.7,0,1.2,0.5,1.2,1.2v1.1C567.3,239.4,566.7,239.9,566.1,239.9z M573.1,239.9H572
		c-0.7,0-1.2-0.5-1.2-1.2v-1.1c0-0.7,0.5-1.2,1.2-1.2h1.1c0.7,0,1.2,0.5,1.2,1.2v1.1C574.4,239.4,573.8,239.9,573.1,239.9z
		 M583.1,239.9H582c-0.7,0-1.2-0.5-1.2-1.2v-1.1c0-0.7,0.5-1.2,1.2-1.2h1.1c0.7,0,1.2,0.5,1.2,1.2v1.1
		C584.3,239.4,583.8,239.9,583.1,239.9z M566.1,232.2H565c-0.7,0-1.2-0.5-1.2-1.2v-1.1c0-0.7,0.5-1.2,1.2-1.2h1.1
		c0.7,0,1.2,0.5,1.2,1.2v1.1C567.3,231.7,566.7,232.2,566.1,232.2z M573.1,232.2H572c-0.7,0-1.2-0.5-1.2-1.2v-1.1
		c0-0.7,0.5-1.2,1.2-1.2h1.1c0.7,0,1.2,0.5,1.2,1.2v1.1C574.4,231.7,573.8,232.2,573.1,232.2z M609.9,232.2h-1.1
		c-0.7,0-1.2-0.5-1.2-1.2v-1.1c0-0.7,0.5-1.2,1.2-1.2h1.1c0.7,0,1.2,0.5,1.2,1.2v1.1C611.2,231.7,610.6,232.2,609.9,232.2z
		 M590.2,239.9h-1.1c-0.7,0-1.2-0.5-1.2-1.2v-1.1c0-0.7,0.5-1.2,1.2-1.2h1.1c0.7,0,1.2,0.5,1.2,1.2v1.1
		C591.4,239.4,590.9,239.9,590.2,239.9z M597.2,239.9h-1.1c-0.7,0-1.2-0.5-1.2-1.2v-1.1c0-0.7,0.5-1.2,1.2-1.2h1.1
		c0.7,0,1.2,0.5,1.2,1.2v1.1C598.4,239.4,597.8,239.9,597.2,239.9z"/>
	<path class="provisioning0" d="M597.3,239.9h-1.1c-0.7,0-1.2-0.5-1.2-1.2v-1.1c0-0.7,0.5-1.2,1.2-1.2h1.1c0.7,0,1.2,0.5,1.2,1.2v1.1
		C598.5,239.4,598,239.9,597.3,239.9z"/>
	<path id="svg-concept" class="provisioning1" d="M666,251.3c0,1.5-1.2,2.7-2.7,2.7s-2.7-1.2-2.7-2.7s1.2-2.7,2.7-2.7
		C664.7,248.6,666,249.8,666,251.3z"/>
	<path class="provisioning0" d="M663.8,243.6h-1.1c-0.7,0-1.2-0.5-1.2-1.2v-1.1c0-0.7,0.5-1.2,1.2-1.2h1.1c0.7,0,1.2,0.5,1.2,1.2v1.1
		C665,243,664.4,243.6,663.8,243.6z M663.8,235.7h-1.1c-0.7,0-1.2-0.5-1.2-1.2v-1.1c0-0.7,0.5-1.2,1.2-1.2h1.1
		c0.7,0,1.2,0.5,1.2,1.2v1.1C665,235.2,664.4,235.7,663.8,235.7z M597.3,232.2h-14.6c-0.7,0-1.2-0.5-1.2-1.2v-1.1
		c0-0.7,0.5-1.2,1.2-1.2h14.6c0.7,0,1.2,0.5,1.2,1.2v1.1C598.5,231.7,598,232.2,597.3,232.2z M577.8,245v11.6 M596.5,253.2H595
		c-0.9,0-1.7-0.8-1.7-1.7V250c0-0.9,0.8-1.7,1.7-1.7h1.5c0.9,0,1.7,0.8,1.7,1.7v1.5C598.2,252.4,597.4,253.2,596.5,253.2z
		 M495.2,221.4v43.4 M427.1,235.9v12.9 M678.5,235.9v12.9 M555.3,221.4v43.4 M615.4,221.4v43.4"/>
	<g>
		<path class="provisioning2" d="M1096.6,257c0,4.3-3.2,7.8-7.2,7.8H835.9c-4,0-7.2-3.5-7.2-7.8v-27.8c0-4.3,3.2-7.8,7.2-7.8h253.6
			c3.9,0,7.2,3.5,7.2,7.8L1096.6,257L1096.6,257z"/>
		<path id="svg-concept" class="provisioning1" d="M899,239.9h-1.1c-0.7,0-1.2-0.5-1.2-1.2v-1.1c0-0.7,0.5-1.2,1.2-1.2h1.1
			c0.7,0,1.2,0.5,1.2,1.2v1.1C900.2,239.4,899.6,239.9,899,239.9z M894.4,253.2h-1.5c-0.9,0-1.7-0.8-1.7-1.7V250
			c0-0.9,0.8-1.7,1.7-1.7h1.5c0.9,0,1.7,0.8,1.7,1.7v1.5C896.1,252.4,895.4,253.2,894.4,253.2z M959.5,239.9h-1.1
			c-0.7,0-1.2-0.5-1.2-1.2v-1.1c0-0.7,0.5-1.2,1.2-1.2h1.1c0.7,0,1.2,0.5,1.2,1.2v1.1C960.7,239.4,960.1,239.9,959.5,239.9z
			 M954.9,253.2h-1.5c-0.9,0-1.7-0.8-1.7-1.7V250c0-0.9,0.8-1.7,1.7-1.7h1.5c0.9,0,1.7,0.8,1.7,1.7v1.5
			C956.6,252.4,955.9,253.2,954.9,253.2z M1020,239.9h-1.1c-0.7,0-1.2-0.5-1.2-1.2v-1.1c0-0.7,0.5-1.2,1.2-1.2h1.1
			c0.7,0,1.2,0.5,1.2,1.2v1.1C1021.2,239.4,1020.7,239.9,1020,239.9z M1015.4,253.2h-1.5c-0.9,0-1.7-0.8-1.7-1.7V250
			c0-0.9,0.8-1.7,1.7-1.7h1.5c0.9,0,1.7,0.8,1.7,1.7v1.5C1017.1,252.4,1016.4,253.2,1015.4,253.2z M1062.9,243.1
			c0,5.1-4.2,9.3-9.3,9.3c-5.1,0-9.3-4.2-9.3-9.3s4.2-9.3,9.3-9.3C1058.7,233.8,1062.9,238,1062.9,243.1z"/>
		<path id="svg-concept" class="provisioning1" d="M1057.1,243.1c0,1.9-1.5,3.4-3.4,3.4s-3.4-1.5-3.4-3.4s1.5-3.4,3.4-3.4
			C1055.5,239.7,1057.1,241.2,1057.1,243.1z M1062.9,243.1h-5.8 M1050.2,243.1h-5.9"/>
		<path class="provisioning0" d="M843.5,221.4v43.3 M1081.9,221.4v43.4 M896.2,256.6h-43.7c-2.2,0-4-1.8-4-4V249c0-2.2,1.8-4,4-4h43.7
			c2.2,0,4,1.8,4,4v3.6C900.2,254.8,898.4,256.6,896.2,256.6z M855,239.9h-1.1c-0.7,0-1.2-0.5-1.2-1.2v-1.1c0-0.7,0.5-1.2,1.2-1.2
			h1.1c0.7,0,1.2,0.5,1.2,1.2v1.1C856.2,239.4,855.7,239.9,855,239.9z M862.1,239.9H861c-0.7,0-1.2-0.5-1.2-1.2v-1.1
			c0-0.7,0.5-1.2,1.2-1.2h1.1c0.7,0,1.2,0.5,1.2,1.2v1.1C863.3,239.4,862.7,239.9,862.1,239.9z M872,239.9h-1
			c-0.7,0-1.2-0.5-1.2-1.2v-1.1c0-0.7,0.5-1.2,1.2-1.2h1.1c0.7,0,1.2,0.5,1.2,1.2v1.1C873.3,239.4,872.7,239.9,872,239.9z
			 M855,232.2h-1.1c-0.7,0-1.2-0.5-1.2-1.2v-1.1c0-0.7,0.5-1.2,1.2-1.2h1.1c0.7,0,1.2,0.5,1.2,1.2v1.1
			C856.2,231.7,855.7,232.2,855,232.2z M862.1,232.2H861c-0.7,0-1.2-0.5-1.2-1.2v-1.1c0-0.7,0.5-1.2,1.2-1.2h1.1
			c0.7,0,1.2,0.5,1.2,1.2v1.1C863.3,231.7,862.7,232.2,862.1,232.2z M898.9,232.2h-1.1c-0.7,0-1.2-0.5-1.2-1.2v-1.1
			c0-0.7,0.5-1.2,1.2-1.2h1.1c0.7,0,1.2,0.5,1.2,1.2v1.1C900.1,231.7,899.5,232.2,898.9,232.2z M879.1,239.9H878
			c-0.7,0-1.2-0.5-1.2-1.2v-1.1c0-0.7,0.5-1.2,1.2-1.2h1.1c0.7,0,1.2,0.5,1.2,1.2v1.1C880.3,239.4,879.8,239.9,879.1,239.9z
			 M886.1,239.9H885c-0.7,0-1.2-0.5-1.2-1.2v-1.1c0-0.7,0.5-1.2,1.2-1.2h1.1c0.7,0,1.2,0.5,1.2,1.2v1.1
			C887.3,239.4,886.8,239.9,886.1,239.9z"/>
		<path class="provisioning0" d="M886.2,239.9h-1.1c-0.7,0-1.2-0.5-1.2-1.2v-1.1c0-0.7,0.5-1.2,1.2-1.2h1.1c0.7,0,1.2,0.5,1.2,1.2v1.1
			C887.4,239.4,886.9,239.9,886.2,239.9z M886.2,232.2h-14.6c-0.7,0-1.2-0.5-1.2-1.2v-1.1c0-0.7,0.5-1.2,1.2-1.2h14.6
			c0.7,0,1.2,0.5,1.2,1.2v1.1C887.4,231.7,886.9,232.2,886.2,232.2z M866.7,245v11.6 M885.4,253.2h-1.5c-0.9,0-1.7-0.8-1.7-1.7V250
			c0-0.9,0.8-1.7,1.7-1.7h1.5c0.9,0,1.7,0.8,1.7,1.7v1.5C887.1,252.4,886.4,253.2,885.4,253.2z M956.7,256.6H913c-2.2,0-4-1.8-4-4
			V249c0-2.2,1.8-4,4-4h43.7c2.2,0,4,1.8,4,4v3.6C960.7,254.8,958.9,256.6,956.7,256.6z M915.5,239.9h-1.1c-0.7,0-1.2-0.5-1.2-1.2
			v-1.1c0-0.7,0.5-1.2,1.2-1.2h1.1c0.7,0,1.2,0.5,1.2,1.2v1.1C916.7,239.4,916.2,239.9,915.5,239.9z M922.6,239.9h-1.1
			c-0.7,0-1.2-0.5-1.2-1.2v-1.1c0-0.7,0.5-1.2,1.2-1.2h1.1c0.7,0,1.2,0.5,1.2,1.2v1.1C923.8,239.4,923.2,239.9,922.6,239.9z
			 M932.6,239.9h-1.1c-0.7,0-1.2-0.5-1.2-1.2v-1.1c0-0.7,0.5-1.2,1.2-1.2h1.1c0.7,0,1.2,0.5,1.2,1.2v1.1
			C933.8,239.4,933.2,239.9,932.6,239.9z M915.5,232.2h-1.1c-0.7,0-1.2-0.5-1.2-1.2v-1.1c0-0.7,0.5-1.2,1.2-1.2h1.1
			c0.7,0,1.2,0.5,1.2,1.2v1.1C916.7,231.7,916.2,232.2,915.5,232.2z M922.6,232.2h-1.1c-0.7,0-1.2-0.5-1.2-1.2v-1.1
			c0-0.7,0.5-1.2,1.2-1.2h1.1c0.7,0,1.2,0.5,1.2,1.2v1.1C923.8,231.7,923.2,232.2,922.6,232.2z M959.4,232.2h-1.1
			c-0.7,0-1.2-0.5-1.2-1.2v-1.1c0-0.7,0.5-1.2,1.2-1.2h1.1c0.7,0,1.2,0.5,1.2,1.2v1.1C960.6,231.7,960,232.2,959.4,232.2z
			 M939.6,239.9h-1.1c-0.7,0-1.2-0.5-1.2-1.2v-1.1c0-0.7,0.5-1.2,1.2-1.2h1.1c0.7,0,1.2,0.5,1.2,1.2v1.1
			C940.9,239.4,940.3,239.9,939.6,239.9z M946.6,239.9h-1.1c-0.7,0-1.2-0.5-1.2-1.2v-1.1c0-0.7,0.5-1.2,1.2-1.2h1.1
			c0.7,0,1.2,0.5,1.2,1.2v1.1C947.8,239.4,947.3,239.9,946.6,239.9z"/>
		<path class="provisioning0" d="M946.7,239.9h-1.1c-0.7,0-1.2-0.5-1.2-1.2v-1.1c0-0.7,0.5-1.2,1.2-1.2h1.1c0.7,0,1.2,0.5,1.2,1.2v1.1
			C947.9,239.4,947.4,239.9,946.7,239.9z M946.7,232.2h-14.6c-0.7,0-1.2-0.5-1.2-1.2v-1.1c0-0.7,0.5-1.2,1.2-1.2h14.6
			c0.7,0,1.2,0.5,1.2,1.2v1.1C947.9,231.7,947.4,232.2,946.7,232.2z M927.2,245v11.6 M946,253.2h-1.5c-0.9,0-1.7-0.8-1.7-1.7V250
			c0-0.9,0.8-1.7,1.7-1.7h1.5c0.9,0,1.7,0.8,1.7,1.7v1.5C947.6,252.4,946.9,253.2,946,253.2z M1017.2,256.6h-43.7c-2.2,0-4-1.8-4-4
			V249c0-2.2,1.8-4,4-4h43.7c2.2,0,4,1.8,4,4v3.6C1021.2,254.8,1019.4,256.6,1017.2,256.6z M976,239.9h-1.1c-0.7,0-1.2-0.5-1.2-1.2
			v-1.1c0-0.7,0.5-1.2,1.2-1.2h1.1c0.7,0,1.2,0.5,1.2,1.2v1.1C977.2,239.4,976.7,239.9,976,239.9z M983.1,239.9H982
			c-0.7,0-1.2-0.5-1.2-1.2v-1.1c0-0.7,0.5-1.2,1.2-1.2h1.1c0.7,0,1.2,0.5,1.2,1.2v1.1C984.3,239.4,983.8,239.9,983.1,239.9z
			 M993.1,239.9H992c-0.7,0-1.2-0.5-1.2-1.2v-1.1c0-0.7,0.5-1.2,1.2-1.2h1.1c0.7,0,1.2,0.5,1.2,1.2v1.1
			C994.3,239.4,993.7,239.9,993.1,239.9z M976,232.2h-1.1c-0.7,0-1.2-0.5-1.2-1.2v-1.1c0-0.7,0.5-1.2,1.2-1.2h1.1
			c0.7,0,1.2,0.5,1.2,1.2v1.1C977.2,231.7,976.7,232.2,976,232.2z M983.1,232.2H982c-0.7,0-1.2-0.5-1.2-1.2v-1.1
			c0-0.7,0.5-1.2,1.2-1.2h1.1c0.7,0,1.2,0.5,1.2,1.2v1.1C984.3,231.7,983.8,232.2,983.1,232.2z M1019.9,232.2h-1.1
			c-0.7,0-1.2-0.5-1.2-1.2v-1.1c0-0.7,0.5-1.2,1.2-1.2h1.1c0.7,0,1.2,0.5,1.2,1.2v1.1C1021.1,231.7,1020.6,232.2,1019.9,232.2z
			 M1000.1,239.9H999c-0.7,0-1.2-0.5-1.2-1.2v-1.1c0-0.7,0.5-1.2,1.2-1.2h1.1c0.7,0,1.2,0.5,1.2,1.2v1.1
			C1001.4,239.4,1000.8,239.9,1000.1,239.9z M1007.1,239.9h-1.1c-0.7,0-1.2-0.5-1.2-1.2v-1.1c0-0.7,0.5-1.2,1.2-1.2h1.1
			c0.7,0,1.2,0.5,1.2,1.2v1.1C1008.3,239.4,1007.8,239.9,1007.1,239.9z"/>
		<path class="provisioning0" d="M1007.2,239.9h-1.1c-0.7,0-1.2-0.5-1.2-1.2v-1.1c0-0.7,0.5-1.2,1.2-1.2h1.1c0.7,0,1.2,0.5,1.2,1.2v1.1
			C1008.4,239.4,1007.9,239.9,1007.2,239.9z"/>
		<path id="svg-concept" class="provisioning1" d="M1075.9,251.3c0,1.5-1.2,2.7-2.7,2.7s-2.7-1.2-2.7-2.7s1.2-2.7,2.7-2.7
			S1075.9,249.8,1075.9,251.3z"/>
		<path class="provisioning0" d="M1073.7,243.6h-1.1c-0.7,0-1.2-0.5-1.2-1.2v-1.1c0-0.7,0.5-1.2,1.2-1.2h1.1c0.7,0,1.2,0.5,1.2,1.2v1.1
			C1074.9,243,1074.4,243.6,1073.7,243.6z M1073.7,235.7h-1.1c-0.7,0-1.2-0.5-1.2-1.2v-1.1c0-0.7,0.5-1.2,1.2-1.2h1.1
			c0.7,0,1.2,0.5,1.2,1.2v1.1C1074.9,235.2,1074.4,235.7,1073.7,235.7z M1007.2,232.2h-14.6c-0.7,0-1.2-0.5-1.2-1.2v-1.1
			c0-0.7,0.5-1.2,1.2-1.2h14.6c0.7,0,1.2,0.5,1.2,1.2v1.1C1008.4,231.7,1007.9,232.2,1007.2,232.2z M987.7,245v11.6 M1006.5,253.2
			h-1.5c-0.9,0-1.7-0.8-1.7-1.7V250c0-0.9,0.8-1.7,1.7-1.7h1.5c0.9,0,1.7,0.8,1.7,1.7v1.5C1008.1,252.4,1007.4,253.2,1006.5,253.2z
			 M905.1,221.4v43.4 M837.1,235.9v12.9 M1088.4,235.9v12.9 M965.2,221.4v43.4 M1025.3,221.4v43.4"/>
	</g>
	<g>
		<path class="provisioning2" d="M276.8,257c0,4.3-3.2,7.8-7.2,7.8H16c-4,0-7.2-3.5-7.2-7.8v-27.8c0-4.3,3.2-7.8,7.2-7.8h253.6
			c3.9,0,7.2,3.5,7.2,7.8L276.8,257L276.8,257z"/>
		<path id="svg-concept" class="provisioning1" d="M79.1,239.9H78c-0.7,0-1.2-0.5-1.2-1.2v-1.1c0-0.7,0.5-1.2,1.2-1.2h1.1
			c0.7,0,1.2,0.5,1.2,1.2v1.1C80.3,239.4,79.8,239.9,79.1,239.9z M74.6,253.2H73c-0.9,0-1.7-0.8-1.7-1.7V250c0-0.9,0.8-1.7,1.7-1.7
			h1.5c0.9,0,1.7,0.8,1.7,1.7v1.5C76.2,252.4,75.5,253.2,74.6,253.2z M139.6,239.9h-1.1c-0.7,0-1.2-0.5-1.2-1.2v-1.1
			c0-0.7,0.5-1.2,1.2-1.2h1.1c0.7,0,1.2,0.5,1.2,1.2v1.1C140.8,239.4,140.3,239.9,139.6,239.9z M135.1,253.2h-1.5
			c-0.9,0-1.7-0.8-1.7-1.7V250c0-0.9,0.8-1.7,1.7-1.7h1.5c0.9,0,1.7,0.8,1.7,1.7v1.5C136.7,252.4,136,253.2,135.1,253.2z
			 M200.1,239.9H199c-0.7,0-1.2-0.5-1.2-1.2v-1.1c0-0.7,0.5-1.2,1.2-1.2h1.1c0.7,0,1.2,0.5,1.2,1.2v1.1
			C201.3,239.4,200.8,239.9,200.1,239.9z M195.6,253.2h-1.5c-0.9,0-1.7-0.8-1.7-1.7V250c0-0.9,0.8-1.7,1.7-1.7h1.5
			c0.9,0,1.7,0.8,1.7,1.7v1.5C197.3,252.4,196.5,253.2,195.6,253.2z M243,243.1c0,5.1-4.2,9.3-9.3,9.3s-9.3-4.2-9.3-9.3
			s4.2-9.3,9.3-9.3C238.9,233.8,243,238,243,243.1z"/>
		<path id="svg-concept" class="provisioning1" d="M237.2,243.1c0,1.9-1.5,3.4-3.4,3.4s-3.4-1.5-3.4-3.4s1.5-3.4,3.4-3.4
			C235.6,239.7,237.2,241.2,237.2,243.1z M243,243.1h-5.8 M230.3,243.1h-5.9"/>
		<path class="provisioning0" d="M23.6,221.4v43.3 M262,221.4v43.4 M76.3,256.6H32.6c-2.2,0-4-1.8-4-4V249c0-2.2,1.8-4,4-4h43.7
			c2.2,0,4,1.8,4,4v3.6C80.3,254.8,78.5,256.6,76.3,256.6z M35.1,239.9H34c-0.7,0-1.2-0.5-1.2-1.2v-1.1c0-0.7,0.5-1.2,1.2-1.2h1.1
			c0.7,0,1.2,0.5,1.2,1.2v1.1C36.3,239.4,35.8,239.9,35.1,239.9z M42.2,239.9h-1.1c-0.7,0-1.2-0.5-1.2-1.2v-1.1
			c0-0.7,0.5-1.2,1.2-1.2h1.1c0.7,0,1.2,0.5,1.2,1.2v1.1C43.4,239.4,42.9,239.9,42.2,239.9z M52.2,239.9h-1.1
			c-0.7,0-1.2-0.5-1.2-1.2v-1.1c0-0.7,0.5-1.2,1.2-1.2h1.1c0.7,0,1.2,0.5,1.2,1.2v1.1C53.4,239.4,52.8,239.9,52.2,239.9z
			 M35.1,232.2H34c-0.7,0-1.2-0.5-1.2-1.2v-1.1c0-0.7,0.5-1.2,1.2-1.2h1.1c0.7,0,1.2,0.5,1.2,1.2v1.1
			C36.3,231.7,35.8,232.2,35.1,232.2z M42.2,232.2h-1.1c-0.7,0-1.2-0.5-1.2-1.2v-1.1c0-0.7,0.5-1.2,1.2-1.2h1.1
			c0.7,0,1.2,0.5,1.2,1.2v1.1C43.4,231.7,42.9,232.2,42.2,232.2z M79,232.2h-1.1c-0.7,0-1.2-0.5-1.2-1.2v-1.1c0-0.7,0.5-1.2,1.2-1.2
			H79c0.7,0,1.2,0.5,1.2,1.2v1.1C80.2,231.7,79.7,232.2,79,232.2z M59.3,239.9h-1.1c-0.7,0-1.2-0.5-1.2-1.2v-1.1
			c0-0.7,0.5-1.2,1.2-1.2h1.1c0.7,0,1.2,0.5,1.2,1.2v1.1C60.5,239.4,59.9,239.9,59.3,239.9z M66.2,239.9h-1.1
			c-0.7,0-1.2-0.5-1.2-1.2v-1.1c0-0.7,0.5-1.2,1.2-1.2h1.1c0.7,0,1.2,0.5,1.2,1.2v1.1C67.4,239.4,66.9,239.9,66.2,239.9z"/>
		<path class="provisioning0" d="M66.3,239.9h-1.1c-0.7,0-1.2-0.5-1.2-1.2v-1.1c0-0.7,0.5-1.2,1.2-1.2h1.1c0.7,0,1.2,0.5,1.2,1.2v1.1
			C67.6,239.4,67,239.9,66.3,239.9z M66.3,232.2H51.7c-0.7,0-1.2-0.5-1.2-1.2v-1.1c0-0.7,0.5-1.2,1.2-1.2h14.6
			c0.7,0,1.2,0.5,1.2,1.2v1.1C67.6,231.7,67,232.2,66.3,232.2z M46.8,245v11.6 M65.6,253.2h-1.5c-0.9,0-1.7-0.8-1.7-1.7V250
			c0-0.9,0.8-1.7,1.7-1.7h1.5c0.9,0,1.7,0.8,1.7,1.7v1.5C67.3,252.4,66.5,253.2,65.6,253.2z M136.8,256.6H93.1c-2.2,0-4-1.8-4-4V249
			c0-2.2,1.8-4,4-4h43.7c2.2,0,4,1.8,4,4v3.6C140.8,254.8,139,256.6,136.8,256.6z M95.6,239.9h-1.1c-0.7,0-1.2-0.5-1.2-1.2v-1.1
			c0-0.7,0.5-1.2,1.2-1.2h1.1c0.7,0,1.2,0.5,1.2,1.2v1.1C96.8,239.4,96.3,239.9,95.6,239.9z M102.7,239.9h-1.1
			c-0.7,0-1.2-0.5-1.2-1.2v-1.1c0-0.7,0.5-1.2,1.2-1.2h1.1c0.7,0,1.2,0.5,1.2,1.2v1.1C103.9,239.4,103.4,239.9,102.7,239.9z
			 M112.7,239.9h-1.1c-0.7,0-1.2-0.5-1.2-1.2v-1.1c0-0.7,0.5-1.2,1.2-1.2h1.1c0.7,0,1.2,0.5,1.2,1.2v1.1
			C113.9,239.4,113.3,239.9,112.7,239.9z M95.6,232.2h-1.1c-0.7,0-1.2-0.5-1.2-1.2v-1.1c0-0.7,0.5-1.2,1.2-1.2h1.1
			c0.7,0,1.2,0.5,1.2,1.2v1.1C96.8,231.7,96.3,232.2,95.6,232.2z M102.7,232.2h-1.1c-0.7,0-1.2-0.5-1.2-1.2v-1.1
			c0-0.7,0.5-1.2,1.2-1.2h1.1c0.7,0,1.2,0.5,1.2,1.2v1.1C103.9,231.7,103.4,232.2,102.7,232.2z M139.5,232.2h-1.1
			c-0.7,0-1.2-0.5-1.2-1.2v-1.1c0-0.7,0.5-1.2,1.2-1.2h1.1c0.7,0,1.2,0.5,1.2,1.2v1.1C140.7,231.7,140.2,232.2,139.5,232.2z
			 M119.8,239.9h-1.1c-0.7,0-1.2-0.5-1.2-1.2v-1.1c0-0.7,0.5-1.2,1.2-1.2h1.1c0.7,0,1.2,0.5,1.2,1.2v1.1
			C121,239.4,120.4,239.9,119.8,239.9z M126.7,239.9h-1.1c-0.7,0-1.2-0.5-1.2-1.2v-1.1c0-0.7,0.5-1.2,1.2-1.2h1.1
			c0.7,0,1.2,0.5,1.2,1.2v1.1C127.9,239.4,127.4,239.9,126.7,239.9z"/>
		<path class="provisioning0" d="M126.8,239.9h-1.1c-0.7,0-1.2-0.5-1.2-1.2v-1.1c0-0.7,0.5-1.2,1.2-1.2h1.1c0.7,0,1.2,0.5,1.2,1.2v1.1
			C128.1,239.4,127.5,239.9,126.8,239.9z M126.8,232.2h-14.6c-0.7,0-1.2-0.5-1.2-1.2v-1.1c0-0.7,0.5-1.2,1.2-1.2h14.6
			c0.7,0,1.2,0.5,1.2,1.2v1.1C128.1,231.7,127.5,232.2,126.8,232.2z M107.3,245v11.6 M126.1,253.2h-1.5c-0.9,0-1.7-0.8-1.7-1.7V250
			c0-0.9,0.8-1.7,1.7-1.7h1.5c0.9,0,1.7,0.8,1.7,1.7v1.5C127.8,252.4,127,253.2,126.1,253.2z M197.3,256.6h-43.7c-2.2,0-4-1.8-4-4
			V249c0-2.2,1.8-4,4-4h43.7c2.2,0,4,1.8,4,4v3.6C201.3,254.8,199.5,256.6,197.3,256.6z M156.1,239.9H155c-0.7,0-1.2-0.5-1.2-1.2
			v-1.1c0-0.7,0.5-1.2,1.2-1.2h1.1c0.7,0,1.2,0.5,1.2,1.2v1.1C157.3,239.4,156.8,239.9,156.1,239.9z M163.2,239.9h-1.1
			c-0.7,0-1.2-0.5-1.2-1.2v-1.1c0-0.7,0.5-1.2,1.2-1.2h1.1c0.7,0,1.2,0.5,1.2,1.2v1.1C164.4,239.4,163.9,239.9,163.2,239.9z
			 M173.2,239.9h-1.1c-0.7,0-1.2-0.5-1.2-1.2v-1.1c0-0.7,0.5-1.2,1.2-1.2h1.1c0.7,0,1.2,0.5,1.2,1.2v1.1
			C174.4,239.4,173.9,239.9,173.2,239.9z M156.1,232.2H155c-0.7,0-1.2-0.5-1.2-1.2v-1.1c0-0.7,0.5-1.2,1.2-1.2h1.1
			c0.7,0,1.2,0.5,1.2,1.2v1.1C157.3,231.7,156.8,232.2,156.1,232.2z M163.2,232.2h-1.1c-0.7,0-1.2-0.5-1.2-1.2v-1.1
			c0-0.7,0.5-1.2,1.2-1.2h1.1c0.7,0,1.2,0.5,1.2,1.2v1.1C164.4,231.7,163.9,232.2,163.2,232.2z M200,232.2h-1.1
			c-0.7,0-1.2-0.5-1.2-1.2v-1.1c0-0.7,0.5-1.2,1.2-1.2h1.1c0.7,0,1.2,0.5,1.2,1.2v1.1C201.2,231.7,200.7,232.2,200,232.2z
			 M180.3,239.9h-1.1c-0.7,0-1.2-0.5-1.2-1.2v-1.1c0-0.7,0.5-1.2,1.2-1.2h1.1c0.7,0,1.2,0.5,1.2,1.2v1.1
			C181.5,239.4,180.9,239.9,180.3,239.9z M187.2,239.9h-1.1c-0.7,0-1.2-0.5-1.2-1.2v-1.1c0-0.7,0.5-1.2,1.2-1.2h1.1
			c0.7,0,1.2,0.5,1.2,1.2v1.1C188.5,239.4,187.9,239.9,187.2,239.9z"/>
		<path class="provisioning0" d="M187.4,239.9h-1.1c-0.7,0-1.2-0.5-1.2-1.2v-1.1c0-0.7,0.5-1.2,1.2-1.2h1.1c0.7,0,1.2,0.5,1.2,1.2v1.1
			C188.6,239.4,188,239.9,187.4,239.9z"/>
		<path id="svg-concept" class="provisioning1" d="M256,251.3c0,1.5-1.2,2.7-2.7,2.7s-2.7-1.2-2.7-2.7s1.2-2.7,2.7-2.7
			S256,249.8,256,251.3z"/>
		<path class="provisioning0" d="M253.8,243.6h-1.1c-0.7,0-1.2-0.5-1.2-1.2v-1.1c0-0.7,0.5-1.2,1.2-1.2h1.1c0.7,0,1.2,0.5,1.2,1.2v1.1
			C255,243,254.5,243.6,253.8,243.6z M253.8,235.7h-1.1c-0.7,0-1.2-0.5-1.2-1.2v-1.1c0-0.7,0.5-1.2,1.2-1.2h1.1
			c0.7,0,1.2,0.5,1.2,1.2v1.1C255,235.2,254.5,235.7,253.8,235.7z M187.3,232.2h-14.6c-0.7,0-1.2-0.5-1.2-1.2v-1.1
			c0-0.7,0.5-1.2,1.2-1.2h14.6c0.7,0,1.2,0.5,1.2,1.2v1.1C188.6,231.7,188,232.2,187.3,232.2z M167.8,245v11.6 M186.6,253.2h-1.5
			c-0.9,0-1.7-0.8-1.7-1.7V250c0-0.9,0.8-1.7,1.7-1.7h1.5c0.9,0,1.7,0.8,1.7,1.7v1.5C188.3,252.4,187.5,253.2,186.6,253.2z
			 M85.3,221.4v43.4 M17.2,235.9v12.9 M268.5,235.9v12.9 M145.4,221.4v43.4 M205.4,221.4v43.4"/>
	</g>
	
		<animateMotion  accumulate="none" additive="replace" begin="0s" calcMode="paced" dur="5s" fill="freeze" path="M0, 0 1440 0" restart="always">
		</animateMotion>
	
		<animateMotion  accumulate="none" additive="replace" begin="6s" calcMode="paced" dur="6s" fill="remove" path="M-1000, 0 1440 0" repeatCount="indefinite" restart="always">
		</animateMotion>
</g>
<g>
	<path class="provisioning0" d="M453.3,49.5c-4.1,2.1-8.2,4.3-12.3,6.6c-106.9,61.8-143.4,198.4-81.7,305.3C421,468.2,557.7,504.8,664.5,443
		c106.8-61.7,143.4-198.4,81.6-305.2c-23.4-40.5-57.6-70.9-96.9-89.7 M649.1,72.1c31.6,17.3,59.1,43.1,78.4,76.6
		c24,41.5,31.6,88,25,131.9c-20-7-42.8-5.6-62.6,5.9c-36.1,20.8-48.4,67-27.6,103.1c4.4,7.6,9.9,14.1,16.1,19.5
		c-7.8,6.2-16.2,12-25.1,17.1c-74.5,43-164.9,33.5-228.3-17c27-23.2,34.6-63,16.1-94.9s-56.8-45.3-90.3-33.4
		c-12.1-80.2,24.8-163.3,99.2-206.3c1.1-0.6,2.2-1.3,3.3-1.9"/>
	<path class="provisioning0" d="M403.4,345.8c-4-1.1-6.3-5.1-5.3-9.1c1.1-4,5.1-6.3,9.1-5.3c4,1.1,6.3,5.1,5.3,9.1
		C411.4,344.5,407.4,346.8,403.4,345.8z"/>
	<path class="provisioning0" d="M404.6,341.2c-1.5-0.4-2.4-1.9-2-3.4s1.9-2.3,3.4-2c1.5,0.4,2.3,1.9,2,3.4
		C407.6,340.7,406.1,341.6,404.6,341.2z M403.4,345.8l1.2-4.6 M406,335.9l1.2-4.5 M697.7,340c-4-1.1-6.3-5.1-5.3-9.1
		c1.1-4,5.1-6.3,9.1-5.3c4,1.1,6.3,5.1,5.3,9.1C705.7,338.7,701.7,341,697.7,340z"/>
	<path class="provisioning0" d="M698.9,335.5c-1.5-0.4-2.4-1.9-2-3.4s1.9-2.3,3.4-2c1.5,0.4,2.3,1.9,2,3.4C701.9,335,700.4,335.9,698.9,335.5z
		 M697.7,340l1.2-4.5 M700.3,330.1l1.2-4.5"/>
</g>
<g>
	<path class="provisioning0" d="M636.2,0.9c6.5,0,11.8,5.3,11.8,11.8v124.4c0,6.5-5.3,11.8-11.8,11.8H467.4c-6.5,0-11.8-5.3-11.8-11.8V12.7
		c0-6.5,5.3-11.8,11.8-11.8C467.4,0.9,636.2,0.9,636.2,0.9z"/>
	<path id="svg-concept" class="provisioning3" d="M630.4,24.7c0,0.3-0.2,0.5-0.5,0.5h-16.7c-0.3,0-0.5-0.2-0.5-0.5v-1.8
		c0-0.3,0.2-0.5,0.5-0.5H630c0.3,0,0.5,0.2,0.5,0.5L630.4,24.7L630.4,24.7z M630.4,39.9c0,0.3-0.2,0.5-0.5,0.5h-16.7
		c-0.3,0-0.5-0.2-0.5-0.5v-1.8c0-0.3,0.2-0.5,0.5-0.5H630c0.3,0,0.5,0.2,0.5,0.5L630.4,39.9L630.4,39.9z M600.3,24.7
		c0,0.3-0.2,0.5-0.5,0.5h-16.7c-0.3,0-0.5-0.2-0.5-0.5v-1.8c0-0.3,0.2-0.5,0.5-0.5h16.7c0.3,0,0.5,0.2,0.5,0.5V24.7z"/>
	<path class="provisioning0" d="M475.3,31.4c-1.4-1.8-2.3-4-2.5-6.5c-0.8-7.4,4.5-14,11.8-14.8c4.9-0.6,9.5,1.6,12.3,5.4"/>
	<path id="svg-concept" class="provisioning1" d="M493.4,23.3l-7.2,0.1"/>
	<path class="provisioning0" d="M490.2,10.7l-0.4,1.3"/>
	<path id="svg-concept" class="provisioning1" d="M496.9,15.5l-1.2,0.8 M499.5,23.2l-1.4,0.1 M497,31.1l-1.1-0.8"/>
	<path class="provisioning0" d="M472.7,23.5h1.4 M475.2,15.5l1.2,0.9 M481.9,10.7l0.5,1.3 M475.3,31.4l1.1-0.8"/>
	<path id="svg-concept" class="provisioning3" d="M486.5,23.4c0,0.2-0.2,0.4-0.4,0.4s-0.4-0.2-0.4-0.4s0.2-0.4,0.4-0.4
		C486.4,23,486.5,23.2,486.5,23.4z"/>
	<path class="provisioning0" d="M473.4,130.7h157.2"/>
	<path class="provisioning4" d="M473.4,76.4h1.5"/>
	<path class="provisioning5" d="M477.9,76.4h149.7"/>
	<path class="provisioning4" d="M629.1,76.4h1.5 M473.4,110.4h1.5"/>
	<path class="provisioning5" d="M477.9,110.4h149.7"/>
	<path class="provisioning4" d="M629.1,110.4h1.5 M475,93.5h1.5"/>
	<path class="provisioning5" d="M479.6,93.5h149.7"/>
	<path class="provisioning4" d="M630.8,93.5h1.5"/>
	<path class="provisioning0" d="M473.4,130.7V59.5"/>
	<path class="provisioning0" d="M634,53.4h-24.8V9.7H634V53.4z"/>
	<path class="provisioning0" d="M630.4,17.1c0,0.3-0.2,0.5-0.5,0.5h-16.7c-0.3,0-0.5-0.2-0.5-0.5v-1.8c0-0.3,0.2-0.5,0.5-0.5H630
		c0.3,0,0.5,0.2,0.5,0.5L630.4,17.1L630.4,17.1z M630.4,32.3c0,0.3-0.2,0.5-0.5,0.5h-16.7c-0.3,0-0.5-0.2-0.5-0.5v-1.8
		c0-0.3,0.2-0.5,0.5-0.5H630c0.3,0,0.5,0.2,0.5,0.5L630.4,32.3L630.4,32.3z M630.4,47.6c0,0.3-0.2,0.5-0.5,0.5h-16.7
		c-0.3,0-0.5-0.2-0.5-0.5v-1.8c0-0.3,0.2-0.5,0.5-0.5H630c0.3,0,0.5,0.2,0.5,0.5L630.4,47.6L630.4,47.6z M603.9,53.4h-24.8V9.7h24.8
		V53.4z"/>
	<path class="provisioning0" d="M600.3,17.1c0,0.3-0.2,0.5-0.5,0.5h-16.7c-0.3,0-0.5-0.2-0.5-0.5v-1.8c0-0.3,0.2-0.5,0.5-0.5h16.7
		c0.3,0,0.5,0.2,0.5,0.5V17.1z M600.3,32.3c0,0.3-0.2,0.5-0.5,0.5h-16.7c-0.3,0-0.5-0.2-0.5-0.5v-1.8c0-0.3,0.2-0.5,0.5-0.5h16.7
		c0.3,0,0.5,0.2,0.5,0.5V32.3z M600.3,39.9c0,0.3-0.2,0.5-0.5,0.5h-16.7c-0.3,0-0.5-0.2-0.5-0.5v-1.8c0-0.3,0.2-0.5,0.5-0.5h16.7
		c0.3,0,0.5,0.2,0.5,0.5V39.9z M600.3,47.6c0,0.3-0.2,0.5-0.5,0.5h-16.7c-0.3,0-0.5-0.2-0.5-0.5v-1.8c0-0.3,0.2-0.5,0.5-0.5h16.7
		c0.3,0,0.5,0.2,0.5,0.5V47.6z"/>
	<path id="svg-concept" class="provisioning1" d="M496.9,15.5c1.3,1.8,2.2,4,2.5,6.4c0.4,3.4-0.5,6.6-2.4,9.2"/>
	<path class="provisioning0" d="M517.1,31.4c-1.4-1.8-2.3-4-2.5-6.5c-0.8-7.4,4.5-14,11.8-14.8c4.9-0.6,9.5,1.6,12.3,5.4"/>
	<path id="svg-concept" class="provisioning1" d="M535.3,23.3l-7.4,0.1"/>
	<path class="provisioning0" d="M532,10.7l-0.5,1.3"/>
	<path id="svg-concept" class="provisioning1" d="M538.6,15.5l-1.1,0.8 M541.2,23.2l-1.3,0.1 M538.8,31.1l-1.2-0.8"/>
	<path class="provisioning0" d="M514.4,23.5h1.4 M517,15.5l1.2,0.9 M523.7,10.7l0.4,1.3 M517,31.4l1.1-0.8"/>
	<path id="svg-concept" class="provisioning3" d="M528.3,23.4c0,0.2-0.2,0.4-0.4,0.4s-0.4-0.2-0.4-0.4s0.2-0.4,0.4-0.4
		S528.3,23.2,528.3,23.4z"/>
	<path id="svg-concept" class="provisioning1" d="M538.6,15.5c1.3,1.8,2.2,4,2.5,6.4c0.4,3.4-0.5,6.6-2.4,9.2"/>
	<path class="provisioning0" d="M473.4,92.5l5.7-1.7l6.9,3.1l6.8-4.3l6.4,4.4l6-6.5l7.9,14.4l8.8-20.2l7.2,10.8l6.6-33l9.5,56.8l8.4-43.9
		l6.5,28l9-16.7l8.2,8.8l6.6-4.8l7.3,4.8l6.9,3.6l7.8-6.9l8.4,5.1l6.7-1.8h9.6"/>
	<path class="provisioning0" d="M648.1,32.4h1.3c0.3,0,0.6,0.3,0.6,0.6v4.4c0,0.3-0.3,0.6-0.6,0.6h-1.3 M648.1,23.8h1.3c0.3,0,0.6,0.3,0.6,0.6
		v4.4c0,0.3-0.3,0.6-0.6,0.6h-1.3"/>
	<path id="svg-ico" class="provisioning6" d="M632.4,130.7c0,2.1-1.6,3.5-3.5,3.5c-2.1,0-3.5-1.6-3.5-3.5s1.6-3.5,3.5-3.5
		S632.4,128.8,632.4,130.7z"/>
	<g>
		<path id="svg-concept" class="provisioning7" d="M485.7,60.2v63.1"/>
		
			<animateMotion  accumulate="none" additive="replace" begin="0s" calcMode="paced" dur="8s" fill="remove" path="M0, 0 140 0 0 0" repeatCount="indefinite" restart="always">
			</animateMotion>
	</g>
</g>
</svg>
