<?xml version="1.0" encoding="utf-8"?>
<!-- Generator: Adobe Illustrator 24.3.0, SVG Export Plug-In . SVG Version: 6.00 Build 0)  -->
<svg version="1.1" id="Layer_1" xmlns="http://www.w3.org/2000/svg" xmlns:xlink="http://www.w3.org/1999/xlink" x="0px" y="0px"
	 viewBox="0 0 1105.7 406" style="enable-background:new 0 0 1105.7 406;" xml:space="preserve">
<style type="text/css">
	.quarantine0{fill:#FFFFFF;stroke:#808080;stroke-linecap:round;stroke-linejoin:round;stroke-miterlimit:10;}
	.quarantine1{fill:#FFFFFF;stroke:#EE5586;stroke-width:2;stroke-linecap:round;stroke-linejoin:round;stroke-miterlimit:10;}
	.quarantine2{fill:none;stroke:#808080;stroke-linecap:round;stroke-linejoin:round;stroke-miterlimit:10;}
	.quarantine3{fill:none;stroke:#808080;stroke-width:2;stroke-linecap:round;stroke-linejoin:round;stroke-miterlimit:10;}
	.quarantine4{fill:#FFFFFF;stroke:#EE5586;stroke-width:3;stroke-linecap:round;stroke-linejoin:round;stroke-miterlimit:10;}
	.quarantine5{fill:none;stroke:#EE5586;stroke-width:3;stroke-linecap:round;stroke-linejoin:round;stroke-miterlimit:10;}
</style>
<path class="quarantine0" d="M720.2,314.1h384.5"/>
<path class="quarantine0" d="M-0.8,314.1h380.6"/>
<path id="svg-concept" class="quarantine1" d="M977.7,251.4h127"/>
<path id="svg-concept" class="quarantine1" d="M690.1,251.4h187.6"/>
<path id="svg-concept" class="quarantine1" d="M226,251.4h182.3"/>
<path id="svg-concept" class="quarantine1" d="M-0.8,251.4H126"/>
<path class="quarantine2" d="M18,255.3l-10.1-10 M13.5,258.9V243 M11,253.2l4.9-4.9 M58.7,255.3l-10-10 M54.3,258.9V243 M51.8,253.2l4.9-4.9
	 M99.5,255.3l-10-10 M95,258.9V243 M92.6,253.2l4.9-4.9 M262.6,255.3l-10-10 M258.1,258.9V243 M255.7,253.2l4.9-4.9 M303.4,255.3
	l-10.1-10 M298.9,258.9V243 M296.4,253.2l4.9-4.9 M344.1,255.3l-10-10 M339.7,258.9V243 M337.2,253.2l4.9-4.9"/>
<g>
	<path class="quarantine2" d="M384.9,255.3l-10-10 M380.4,258.9V243 M378,253.2l4.9-4.9"/>
</g>
<g>
	<path class="quarantine2" d="M711.1,255.3l-10-10 M706.6,258.9V243 M704.1,253.2l5-4.9"/>
</g>
<g>
	<path class="quarantine2" d="M751.9,255.3l-10.1-10 M747.4,258.9V243 M744.9,253.2l4.9-4.9"/>
</g>
<g>
	<path class="quarantine2" d="M792.6,255.3l-10-10 M788.1,258.9V243 M785.7,253.2l4.9-4.9"/>
</g>
<g>
	<path class="quarantine2" d="M833.4,255.3l-10-10 M828.9,258.9V243 M826.5,253.2l4.9-4.9"/>
</g>
<g>
	<path class="quarantine2" d="M1037.3,255.3l-10.1-10 M1032.8,258.9V243 M1030.3,253.2l4.9-4.9"/>
</g>
<g>
	<path class="quarantine2" d="M1078,255.3l-10-10 M1073.5,258.9V243 M1071.1,253.2l4.9-4.9"/>
</g>
<path id="svg-concept" class="quarantine1" d="M984.3,191.4h120.4"/>
<path id="svg-concept" class="quarantine1" d="M655.3,191.4h216.8"/>
<path id="svg-concept" class="quarantine1" d="M232.6,191.4h212.2"/>
<path id="svg-concept" class="quarantine1" d="M-0.8,191.4h120.2"/>
<path class="quarantine2" d="M37.3,195.2l-10-10 M32.8,198.8v-15.9 M30.3,193.2l5-5 M78.1,195.2l-10.1-10 M73.6,198.8v-15.9 M71.1,193.2
	l4.9-5 M281.9,195.2l-10-10 M277.4,198.8v-15.9 M275,193.2l4.9-5 M322.7,195.2l-10-10 M318.2,198.8v-15.9 M315.7,193.2l5-5
	 M363.5,195.2l-10.1-10 M359,198.8v-15.9 M356.5,193.2l4.9-5"/>
<g>
	<path class="quarantine2" d="M404.2,195.2l-10-10 M399.7,198.8v-15.9 M397.3,193.2l4.9-5"/>
</g>
<g>
	<path class="quarantine2" d="M689.6,195.2l-10-10 M685.1,198.8v-15.9 M682.7,193.2l4.9-5"/>
</g>
<g>
	<path class="quarantine2" d="M730.4,195.2l-10-10 M725.9,198.8v-15.9 M723.5,193.2l4.9-5"/>
</g>
<g>
	<path class="quarantine2" d="M771.2,195.2l-10.1-10 M766.7,198.8v-15.9 M764.2,193.2l4.9-5"/>
</g>
<g>
	<path class="quarantine2" d="M811.9,195.2l-10-10 M807.5,198.8v-15.9 M805,193.2l4.9-5"/>
</g>
<g>
	<path class="quarantine2" d="M852.7,195.2l-10-10 M848.2,198.8v-15.9 M845.8,193.2l4.9-5"/>
</g>
<g>
	<path class="quarantine2" d="M1015.8,195.2l-10-10 M1011.3,198.8v-15.9 M1008.9,193.2l4.9-5"/>
</g>
<g>
	<path class="quarantine2" d="M1056.6,195.2l-10.1-10 M1052.1,198.8v-15.9 M1049.6,193.2l4.9-5"/>
</g>
<g>
	<path class="quarantine2" d="M1097.3,195.2l-10-10 M1092.9,198.8v-15.9 M1090.4,193.2l4.9-5"/>
</g>
<path id="svg-concept" class="quarantine1" d="M620.4,131.3h484.3"/>
<path id="svg-concept" class="quarantine1" d="M-0.8,131.3h480.5"/>
<path class="quarantine2" d="M18,135.1l-10.1-10 M13.5,138.7v-15.9 M11,133.1l4.9-4.9 M58.7,135.1l-10-10 M54.3,138.7v-15.9 M51.8,133.1
	l4.9-4.9 M99.5,135.1l-10-10 M95,138.7v-15.9 M92.6,133.1l4.9-4.9 M140.3,135.1l-10-10 M135.8,138.7v-15.9 M133.3,133.1l5-4.9
	 M181.1,135.1l-10.1-10 M176.6,138.7v-15.9 M174.1,133.1l4.9-4.9 M221.8,135.1l-10-10 M217.3,138.7v-15.9 M214.9,133.1l4.9-4.9
	 M262.6,135.1l-10-10 M258.1,138.7v-15.9 M255.7,133.1l4.9-4.9 M303.4,135.1l-10.1-10 M298.9,138.7v-15.9 M296.4,133.1l4.9-4.9
	 M344.1,135.1l-10-10 M339.7,138.7v-15.9 M337.2,133.1l4.9-4.9"/>
<g>
	<path class="quarantine2" d="M384.9,135.1l-10-10 M380.4,138.7v-15.9 M378,133.1l4.9-4.9"/>
</g>
<g>
	<path class="quarantine2" d="M425.7,135.1l-10-10 M421.2,138.7v-15.9 M418.7,133.1l5-4.9"/>
</g>
<g>
	<path class="quarantine2" d="M670.3,135.1l-10-10 M665.8,138.7v-15.9 M663.4,133.1l4.9-4.9"/>
</g>
<g>
	<path class="quarantine2" d="M711.1,135.1l-10-10 M706.6,138.7v-15.9 M704.1,133.1l5-4.9"/>
</g>
<g>
	<path class="quarantine2" d="M751.9,135.1l-10.1-10 M747.4,138.7v-15.9 M744.9,133.1l4.9-4.9"/>
</g>
<g>
	<path class="quarantine2" d="M792.6,135.1l-10-10 M788.1,138.7v-15.9 M785.7,133.1l4.9-4.9"/>
</g>
<g>
	<path class="quarantine2" d="M833.4,135.1l-10-10 M828.9,138.7v-15.9 M826.5,133.1l4.9-4.9"/>
</g>
<g>
	<path class="quarantine2" d="M874.2,135.1l-10.1-10 M869.7,138.7v-15.9 M867.2,133.1l4.9-4.9"/>
</g>
<g>
	<path class="quarantine2" d="M914.9,135.1l-10-10 M910.5,138.7v-15.9 M908,133.1l4.9-4.9"/>
</g>
<g>
	<path class="quarantine2" d="M955.7,135.1l-10-10 M951.2,138.7v-15.9 M948.8,133.1l4.9-4.9"/>
</g>
<g>
	<path class="quarantine2" d="M996.5,135.1l-10-10 M992,138.7v-15.9 M989.5,133.1l5-4.9"/>
</g>
<g>
	<path class="quarantine2" d="M1037.3,135.1l-10.1-10 M1032.8,138.7v-15.9 M1030.3,133.1l4.9-4.9"/>
</g>
<g>
	<path class="quarantine2" d="M1078,135.1l-10-10 M1073.5,138.7v-15.9 M1071.1,133.1l4.9-4.9"/>
</g>
<g>
	<path class="quarantine2" d="M548.7,92.9c-4-1.1-6.3-5.1-5.3-9.1c1.1-4,5.1-6.3,9.1-5.3c4,1.1,6.3,5.1,5.3,9.1S552.7,93.9,548.7,92.9z"/>
	<path class="quarantine2" d="M550,88.3c-1.5-0.4-2.4-1.9-2-3.4s1.9-2.3,3.4-2s2.3,1.9,2,3.4C552.9,87.9,551.4,88.7,550,88.3z M548.7,92.9
		l1.2-4.6 M551.4,83l1.2-4.5"/>
</g>
<g>
	<path class="quarantine2" d="M669,327.9c-4-1.1-6.3-5.1-5.3-9.1c1.1-4,5.1-6.3,9.1-5.3c4,1.1,6.3,5.1,5.3,9.1
		C677,326.6,672.9,328.9,669,327.9z"/>
	<path class="quarantine2" d="M670.2,323.3c-1.5-0.4-2.4-1.9-2-3.4s1.9-2.3,3.4-2c1.5,0.4,2.3,1.9,2,3.4
		C673.2,322.8,671.6,323.7,670.2,323.3z M669,327.8l1.2-4.5 M671.6,318l1.2-4.5"/>
</g>
<g>
	<path class="quarantine2" d="M427,327.9c-4-1.1-6.3-5.1-5.3-9.1c1.1-4,5.1-6.3,9.1-5.3s6.3,5.1,5.3,9.1S431,328.9,427,327.9z"/>
	<path class="quarantine2" d="M428.2,323.3c-1.5-0.4-2.4-1.9-2-3.4s1.9-2.3,3.4-2s2.3,1.9,2,3.4C431.2,322.8,429.7,323.7,428.2,323.3z
		 M427,327.8l1.2-4.5 M429.6,318l1.2-4.5"/>
</g>
<path class="quarantine2" d="M185.7,74.7h-18.6V60l9.5-51.1l9.1,51.1V74.7z"/>
<path class="quarantine2" d="M176,277.1l0.6,128.9"/>
<path class="quarantine2" d="M176.6,63.7v90.4"/>
<path class="quarantine2" d="M937,74.7h-18.6V60l9.5-51.1L937,60V74.7z"/>
<path class="quarantine2" d="M927.9,277.1V406"/>
<path class="quarantine2" d="M927.9,63.7v90.4"/>
<circle class="quarantine3" cx="927.7" cy="215.6" r="61.5"/>
<path class="quarantine2" d="M955,222.3c0.2-1.3,0.3-2.7,0.3-4c0-1.2-0.1-2.3-0.2-3.5l7.3-4.6c0.3-0.5,0.1-1.2-0.4-1.5l-8,1
	c-0.3-0.9-0.6-1.8-1-2.7l11.7-11.3c0.2-0.6-0.1-1.2-0.7-1.3l-15.6,5.4c-1.1-1.2-2.2-2.4-3.5-3.4l4.8-9.9c0-0.6-0.5-1-1.1-1l-9.1,7.4
	c-3.1-1.5-6.4-2.4-10-2.7l-6.1-15.3c-0.5-0.4-1.1-0.3-1.5,0.1l-0.8,15.8c-0.6,0.1-1.2,0.3-1.7,0.5l-2.8-4c-0.5-0.3-1.2,0-1.4,0.5
	l0.9,4.8c-3,1.4-5.8,3.3-8.1,5.6l-15.7-6.6c-0.6,0.1-1,0.6-1,1.2l11.4,12.6c-0.1,0.3-0.3,0.6-0.4,0.8l-10.9,0.1
	c-0.5,0.3-0.7,0.9-0.4,1.5l9.4,4.2c-0.4,2-0.7,4.1-0.7,6.2c0,3.6,0.7,7,1.9,10.1L891,238.6c-0.2,0.6,0.1,1.2,0.7,1.3l13.8-4.7
	c1.3,1.7,2.8,3.3,4.4,4.6l-3.9,8c0,0.6,0.5,1,1.1,1l7.3-5.9c0.7,0.4,1.4,0.7,2,1l3.4,1.2c2.5,0.7,5.1,1.1,7.8,1.1l3.9,9.8
	c0.4,0.4,1.1,0.3,1.5-0.1l0.5-10.3c1.3-0.3,2.6-0.7,3.9-1.1l1.8,2.5c0.5,0.3,1.2,0,1.4-0.5l-0.6-3.1c3.4-1.7,6.3-4,8.8-6.8l14.7,6.2
	c0.6-0.1,1-0.6,1-1.2l-11.2-12.3c0.2-0.4,0.3-0.7,0.4-1.1l10.7-0.1c0.5-0.3,0.7-0.9,0.4-1.5L955,222.3L955,222.3z"/>
<path id="svg-concept" class="quarantine4" d="M971.3,172.2L884.5,259"/>
<circle class="quarantine3" cx="176" cy="215.6" r="61.5"/>
<path class="quarantine2" d="M207.1,218.2h7.8 M137.2,218.2h7.8 M203,202.7l6.7-3.9 M142.4,237.7l6.7-3.9 M149.1,202.7l-6.7-3.9
	 M209.7,237.7l-6.7-3.9 M176,187.2c17.2,0,31.1,13.9,31.1,31.1s-13.9,31.1-31.1,31.1s-31.1-13.9-31.1-31.1
	C145,201.1,158.9,187.2,176,187.2z M158.2,192.8c10.7,7.5,24.9,7.5,35.6,0 M182.6,190.6c0-6.2,5-11.2,11.2-11.2 M169.5,190.6
	c0-6.2-5-11.2-11.2-11.2"/>
<path id="svg-concept" class="quarantine4" d="M219.6,172.2L132.8,259"/>
<path class="quarantine3" d="M478.6,133.1l33.2-57.2c21-36.3,55.4-36.3,76.5,0l123.4,212.7c20.9,36.4,2.7,71.7-39.2,71.8H427.7
	c-41.9-0.1-60.1-35.7-39.2-72L478.6,133.1"/>
<g>
	<path id="svg-concept" class="quarantine5" d="M550.1,139.2v100.5 M568.3,290c0,10.4-8.5,18.9-18.9,18.9s-18.9-8.5-18.9-18.9
		s8.5-18.9,18.9-18.9C559.9,271.1,568.3,279.6,568.3,290z"/>
	
		<animate  accumulate="none" additive="replace" attributeName="opacity" calcMode="linear" dur="1s" fill="remove" repeatCount="indefinite" restart="always" values="0;1;0">
		</animate>
</g>
</svg>
