<?xml version="1.0" encoding="utf-8"?>
<!-- Generator: Adobe Illustrator 24.3.0, SVG Export Plug-In . SVG Version: 6.00 Build 0)  -->
<svg version="1.1" id="Layer_1" xmlns="http://www.w3.org/2000/svg" xmlns:xlink="http://www.w3.org/1999/xlink" x="0px" y="0px"
	 viewBox="0 0 543.5 398.4" style="enable-background:new 0 0 543.5 398.4;" xml:space="preserve">
<style type="text/css">
	.ranking0{fill:none;stroke:#808080;stroke-linecap:round;stroke-linejoin:round;stroke-miterlimit:10;}
	.ranking1{fill:none;stroke:#EE5586;stroke-width:2;stroke-linecap:round;stroke-linejoin:round;stroke-miterlimit:10;}
	.ranking2{fill:none;stroke:#808080;stroke-linecap:round;stroke-linejoin:round;stroke-miterlimit:10;stroke-dasharray:5;}
	.ranking3{fill:none;stroke:#EE5586;stroke-width:3;stroke-linecap:round;stroke-linejoin:round;stroke-miterlimit:10;}
</style>
<path class="ranking0" d="M456.1,286.3l60.9,18.1l-243.7,89.1L29,304.4l60.9-18.1"/>
<path id="svg-concept" class="ranking1" d="M319.8,188.1l223.3,66.4l-269.8,98.7L2.9,254.5l169.3-50.2"/>
<path class="ranking2" d="M373.2,254.5h163.4 M11.9,254.5h184.7 M273.3,350.4v-67"/>
<g>
	<path id="svg-concept" class="ranking3" d="M262.8,112.7l0-81.6l-44.5-15.8l-44.5,15.8v215l44.5,16.4l9.1-3.1 M173.8,31.1l44.5,16.6
		 M218.3,47.7l44.5-16.6 M218.3,47.7v215"/>
	<animate attributeName="opacity" values="0;1;0" dur="2s" begin="0s" repeatCount="indefinite"/>
</g>
<path class="ranking0" d="M284.2,286v-63l44.5-16.1l44.5,16.4V286l-44.5,16.2L284.2,286z"/>
<path class="ranking0" d="M328.7,206.8l-44.5,16.1l44.5,16"/>
<path class="ranking0" d="M273.5,282l-44.7-15.4V127.4l44.7-16.4l44.5,16.4v83.3"/>
<line class="ranking0" x1="328.7" y1="238.9" x2="373.2" y2="223.2"/>
<line class="ranking0" x1="328.7" y1="238.9" x2="328.7" y2="302.2"/>
<line class="ranking0" x1="228.8" y1="127.4" x2="273.5" y2="143.2"/>
<line class="ranking0" x1="318" y1="127.4" x2="273.5" y2="143.2"/>
<polyline class="ranking0" points="273.5,143.2 273.5,282 284.2,277.2 "/>
</svg>
