<?xml version="1.0" encoding="utf-8"?>
<!-- Generator: Adobe Illustrator 24.3.0, SVG Export Plug-In . SVG Version: 6.00 Build 0)  -->
<svg version="1.1" id="Layer_1" xmlns="http://www.w3.org/2000/svg" xmlns:xlink="http://www.w3.org/1999/xlink" x="0px" y="0px"
	 viewBox="0 0 1099.5 361.5" style="enable-background:new 0 0 1099.5 361.5;" xml:space="preserve">
<style type="text/css">
	.redundant0{fill:#FFFFFF;stroke:#EE5586;stroke-width:2;stroke-linecap:round;stroke-linejoin:round;stroke-miterlimit:10;}
	.redundant1{fill:none;stroke:#808080;stroke-linecap:round;stroke-linejoin:round;stroke-miterlimit:10;}
	.redundant2{fill:none;stroke:#EE5586;stroke-width:2;stroke-miterlimit:10;}
	.redundant3{fill:#EE5586;}
</style>
<path id="svg-concept" class="redundant0" d="M879.2,132.3l-67.8,67.8 M811.7,132.3l67.9,67.8 M583.1,132.7l-67,67 M515.9,132.7l67,67
	 M220.8,132.7l66.4,66.3 M287.2,132.7L220.8,199"/>
<g>
	<circle class="redundant1" cx="105.9" cy="353.2" r="6.5"/>
	<path class="redundant1" d="M105.9,335.2v11.1 M54.8,353.2h44.4 M112.5,353.2h44.4"/>
	<path class="redundant1" d="M210.6,235.3c0,3.4-2.5,6.1-5.6,6.1H6.8c-3.1,0-5.6-2.7-5.6-6.1v-21.7c0-3.4,2.5-6.1,5.6-6.1H205
		c3.1,0,5.6,2.7,5.6,6.1V235.3z"/>
	<path class="redundant1" d="M12.7,207.5v33.8 M199,207.5v33.9 M184.2,224.5c0,4-3.3,7.3-7.3,7.3s-7.3-3.3-7.3-7.3s3.2-7.3,7.3-7.3
		C180.9,217.2,184.2,220.4,184.2,224.5z"/>
	<path class="redundant1" d="M179.6,224.5c0,1.5-1.2,2.7-2.7,2.7s-2.7-1.2-2.7-2.7s1.2-2.7,2.7-2.7S179.6,223,179.6,224.5z M184.2,224.5
		h-4.6 M174.2,224.5h-4.5"/>
	<path class="redundant1" d="M210.6,280.4c0,3.4-2.5,6.1-5.6,6.1H6.8c-3.1,0-5.6-2.7-5.6-6.1v-21.7c0-3.4,2.5-6.1,5.6-6.1H205
		c3.1,0,5.6,2.7,5.6,6.1V280.4z"/>
	<path class="redundant1" d="M12.7,252.6v33.8 M199,252.6v34 M184.2,269.6c0,4-3.3,7.3-7.3,7.3s-7.3-3.3-7.3-7.3s3.2-7.3,7.3-7.3
		C180.9,262.3,184.2,265.6,184.2,269.6z"/>
	<path class="redundant1" d="M179.6,269.6c0,1.5-1.2,2.7-2.7,2.7s-2.7-1.2-2.7-2.7s1.2-2.7,2.7-2.7S179.6,268.1,179.6,269.6z M184.2,269.6
		h-4.6 M174.2,269.6h-4.5"/>
	<path class="redundant1" d="M210.6,325.5c0,3.4-2.5,6.1-5.6,6.1H6.8c-3.1,0-5.6-2.7-5.6-6.1v-21.7c0-3.4,2.5-6.1,5.6-6.1H205
		c3.1,0,5.6,2.7,5.6,6.1V325.5z"/>
	<path class="redundant1" d="M12.7,297.7v33.8 M199,297.7v34 M184.2,314.7c0,4-3.3,7.3-7.3,7.3s-7.3-3.3-7.3-7.3s3.2-7.3,7.3-7.3
		C180.9,307.4,184.2,310.7,184.2,314.7z"/>
	<path class="redundant1" d="M179.6,314.7c0,1.5-1.2,2.7-2.7,2.7s-2.7-1.2-2.7-2.7s1.2-2.7,2.7-2.7S179.6,313.2,179.6,314.7z M184.2,314.7
		h-4.6 M174.2,314.7h-4.5"/>
</g>
<g>
	<circle class="redundant1" cx="105.9" cy="146.9" r="6.5"/>
	<path class="redundant1" d="M105.9,129v11.1 M54.8,146.9h44.4 M112.5,146.9h44.4"/>
	<path class="redundant1" d="M210.6,29.1c0,3.4-2.5,6.1-5.6,6.1H6.8c-3.1,0-5.6-2.7-5.6-6.1V7.4c0-3.4,2.5-6.1,5.6-6.1H205
		c3.1,0,5.6,2.7,5.6,6.1V29.1z"/>
	<path class="redundant1" d="M12.7,1.2v33.9 M199,1.2v34 M184.2,18.2c0,4-3.3,7.3-7.3,7.3s-7.3-3.3-7.3-7.3s3.2-7.3,7.3-7.3
		C180.9,11,184.2,14.2,184.2,18.2z"/>
	<path class="redundant1" d="M179.6,18.2c0,1.5-1.2,2.7-2.7,2.7s-2.7-1.2-2.7-2.7s1.2-2.7,2.7-2.7S179.6,16.7,179.6,18.2z M184.2,18.2h-4.6
		 M174.2,18.2h-4.5"/>
	<path class="redundant1" d="M210.6,74.2c0,3.4-2.5,6.1-5.6,6.1H6.8c-3.1,0-5.6-2.7-5.6-6.1V52.5c0-3.4,2.5-6.1,5.6-6.1H205
		c3.1,0,5.6,2.7,5.6,6.1V74.2z"/>
	<path class="redundant1" d="M12.7,46.4v33.8 M199,46.4v33.9 M184.2,63.3c0,4-3.3,7.3-7.3,7.3s-7.3-3.3-7.3-7.3s3.2-7.3,7.3-7.3
		C180.9,56.1,184.2,59.3,184.2,63.3z"/>
	<path class="redundant1" d="M179.6,63.3c0,1.5-1.2,2.7-2.7,2.7s-2.7-1.2-2.7-2.7s1.2-2.7,2.7-2.7S179.6,61.8,179.6,63.3z M184.2,63.3h-4.6
		 M174.2,63.3h-4.5"/>
	<path class="redundant1" d="M210.6,119.3c0,3.4-2.5,6.1-5.6,6.1H6.8c-3.1,0-5.6-2.7-5.6-6.1V97.6c0-3.4,2.5-6.1,5.6-6.1H205
		c3.1,0,5.6,2.7,5.6,6.1V119.3z"/>
	<path class="redundant1" d="M12.7,91.5v33.8 M199,91.5v33.9 M184.2,108.4c0,4-3.3,7.3-7.3,7.3s-7.3-3.3-7.3-7.3s3.2-7.3,7.3-7.3
		C180.9,101.2,184.2,104.4,184.2,108.4z"/>
	<path class="redundant1" d="M179.6,108.4c0,1.5-1.2,2.7-2.7,2.7s-2.7-1.2-2.7-2.7s1.2-2.7,2.7-2.7C178.4,105.8,179.6,107,179.6,108.4z
		 M184.2,108.5h-4.6 M174.2,108.5h-4.5"/>
</g>
<g id="svg-concept_1_">
	<circle id="svg-concept" class="redundant2" cx="401.6" cy="353.2" r="6.5"/>
	<path id="svg-concept" class="redundant2" d="M401.6,335.2v11.1 M350.5,353.2h44.4 M408.2,353.2h44.4"/>
	<path id="svg-concept" class="redundant2" d="M506.3,235.3c0,3.4-2.5,6.1-5.6,6.1H302.5c-3.1,0-5.6-2.7-5.6-6.1v-21.7c0-3.4,2.5-6.1,5.6-6.1h198.2
		c3.1,0,5.6,2.7,5.6,6.1L506.3,235.3L506.3,235.3z"/>
	<path id="svg-concept" class="redundant2" d="M308.4,207.5v33.8 M494.7,207.5v33.9"/>
	<path id="svg-concept" class="redundant2" d="M479.9,224.5c0,4-3.3,7.3-7.3,7.3s-7.3-3.3-7.3-7.3s3.2-7.3,7.3-7.3C476.6,217.2,479.9,220.4,479.9,224.5z"/>
	<path id="svg-concept" class="redundant2" d="M475.3,224.5c0,1.5-1.2,2.7-2.7,2.7s-2.7-1.2-2.7-2.7s1.2-2.7,2.7-2.7S475.3,223,475.3,224.5z"/>
	<path id="svg-concept" class="redundant2" d="M479.9,224.5h-4.6 M469.9,224.5h-4.5"/>
	<path id="svg-concept" class="redundant2" d="M506.3,280.4c0,3.4-2.5,6.1-5.6,6.1H302.5c-3.1,0-5.6-2.7-5.6-6.1v-21.7c0-3.4,2.5-6.1,5.6-6.1h198.2
		c3.1,0,5.6,2.7,5.6,6.1L506.3,280.4L506.3,280.4z"/>
	<path id="svg-concept" class="redundant2" d="M308.4,252.6v33.8"/>
	<path id="svg-concept" class="redundant2" d="M494.7,252.6v34 M479.9,269.6c0,4-3.3,7.3-7.3,7.3s-7.3-3.3-7.3-7.3s3.2-7.3,7.3-7.3
		C476.6,262.3,479.9,265.6,479.9,269.6z"/>
	<path id="svg-concept" class="redundant2" d="M475.3,269.6c0,1.5-1.2,2.7-2.7,2.7s-2.7-1.2-2.7-2.7s1.2-2.7,2.7-2.7S475.3,268.1,475.3,269.6z"/>
	<path id="svg-concept" class="redundant2" d="M479.9,269.6h-4.6 M469.9,269.6h-4.5"/>
	<path id="svg-concept" class="redundant2" d="M506.3,325.5c0,3.4-2.5,6.1-5.6,6.1H302.5c-3.1,0-5.6-2.7-5.6-6.1v-21.7c0-3.4,2.5-6.1,5.6-6.1h198.2
		c3.1,0,5.6,2.7,5.6,6.1L506.3,325.5L506.3,325.5z"/>
	<path id="svg-concept" class="redundant2" d="M308.4,297.7v33.8 M494.7,297.7v34"/>
	<path id="svg-concept" class="redundant2" d="M479.9,314.7c0,4-3.3,7.3-7.3,7.3s-7.3-3.3-7.3-7.3s3.2-7.3,7.3-7.3C476.6,307.4,479.9,310.7,479.9,314.7z"/>
	<path id="svg-concept" class="redundant2" d="M475.3,314.7c0,1.5-1.2,2.7-2.7,2.7s-2.7-1.2-2.7-2.7s1.2-2.7,2.7-2.7S475.3,313.2,475.3,314.7z"/>
	<path id="svg-concept" class="redundant2" d="M479.9,314.7h-4.6 M469.9,314.7h-4.5"/>
	
		<animateMotion  accumulate="none" additive="replace" begin="0s" calcMode="paced" dur="3s" fill="remove" path="M8, 0 8 0 -8 0 8 0" repeatCount="indefinite" restart="always">
		</animateMotion>
	
		<animateMotion  accumulate="none" additive="replace" begin="6s" calcMode="paced" fill="freeze" path="M8, 0 8 0 -8 0 8 0" restart="always">
		</animateMotion>
</g>
<g id="svg-concept_2_">
	<circle id="svg-concept" class="redundant2" cx="697.3" cy="353.2" r="6.5"/>
	<path id="svg-concept" class="redundant2" d="M697.3,335.2v11.1 M646.2,353.2h44.4 M703.9,353.2h44.4"/>
	<path id="svg-concept" class="redundant2" d="M802,235.3c0,3.4-2.5,6.1-5.6,6.1H598.2c-3.1,0-5.6-2.7-5.6-6.1v-21.7c0-3.4,2.5-6.1,5.6-6.1h198.2
		c3.1,0,5.6,2.7,5.6,6.1V235.3z"/>
	<path id="svg-concept" class="redundant2" d="M604.1,207.5v33.8 M790.4,207.5v33.9"/>
	<path id="svg-concept" class="redundant2" d="M775.6,224.5c0,4-3.3,7.3-7.3,7.3s-7.3-3.3-7.3-7.3s3.2-7.3,7.3-7.3C772.3,217.2,775.6,220.4,775.6,224.5z"/>
	<path id="svg-concept" class="redundant2" d="M771,224.5c0,1.5-1.2,2.7-2.7,2.7s-2.7-1.2-2.7-2.7s1.2-2.7,2.7-2.7S771,223,771,224.5z"/>
	<path id="svg-concept" class="redundant2" d="M775.6,224.5H771 M765.6,224.5h-4.5"/>
	<path id="svg-concept" class="redundant2" d="M802,280.4c0,3.4-2.5,6.1-5.6,6.1H598.2c-3.1,0-5.6-2.7-5.6-6.1v-21.7c0-3.4,2.5-6.1,5.6-6.1h198.2
		c3.1,0,5.6,2.7,5.6,6.1V280.4z"/>
	<path id="svg-concept" class="redundant2" d="M604.1,252.6v33.8 M790.4,252.6v34"/>
	<path id="svg-concept" class="redundant2" d="M775.6,269.6c0,4-3.3,7.3-7.3,7.3s-7.3-3.3-7.3-7.3s3.2-7.3,7.3-7.3C772.3,262.3,775.6,265.6,775.6,269.6z"/>
	<path id="svg-concept" class="redundant2" d="M771,269.6c0,1.5-1.2,2.7-2.7,2.7s-2.7-1.2-2.7-2.7s1.2-2.7,2.7-2.7S771,268.1,771,269.6z"/>
	<path id="svg-concept" class="redundant2" d="M775.6,269.6H771 M765.6,269.6h-4.5"/>
	<path id="svg-concept" class="redundant2" d="M802,325.5c0,3.4-2.5,6.1-5.6,6.1H598.2c-3.1,0-5.6-2.7-5.6-6.1v-21.7c0-3.4,2.5-6.1,5.6-6.1h198.2
		c3.1,0,5.6,2.7,5.6,6.1V325.5z"/>
	<path id="svg-concept" class="redundant2" d="M604.1,297.7v33.8 M790.4,297.7v34"/>
	<path id="svg-concept" class="redundant2" d="M775.6,314.7c0,4-3.3,7.3-7.3,7.3s-7.3-3.3-7.3-7.3s3.2-7.3,7.3-7.3C772.3,307.4,775.6,310.7,775.6,314.7z"/>
	<path id="svg-concept" class="redundant2" d="M771,314.7c0,1.5-1.2,2.7-2.7,2.7s-2.7-1.2-2.7-2.7s1.2-2.7,2.7-2.7S771,313.2,771,314.7z"/>
	<path id="svg-concept" class="redundant2" d="M775.6,314.7H771 M765.6,314.7h-4.5"/>
	
		<animateMotion  accumulate="none" additive="replace" begin="0s" calcMode="paced" dur="3s" fill="remove" path="M8, 0 8 0 -8 0 8 0" repeatCount="indefinite" restart="always">
		</animateMotion>
</g>
<g>
	<circle class="redundant1" cx="401.6" cy="146.9" r="6.5"/>
	<path class="redundant1" d="M401.6,129v11.1 M350.5,146.9h44.4 M408.2,146.9h44.4"/>
	<path class="redundant1" d="M506.3,29.1c0,3.4-2.5,6.1-5.6,6.1H302.5c-3.1,0-5.6-2.7-5.6-6.1V7.4c0-3.4,2.5-6.1,5.6-6.1h198.2
		c3.1,0,5.6,2.7,5.6,6.1L506.3,29.1L506.3,29.1z"/>
	<path class="redundant1" d="M308.4,1.2v33.9 M494.7,1.2v34 M479.9,18.2c0,4-3.3,7.3-7.3,7.3s-7.3-3.3-7.3-7.3s3.2-7.3,7.3-7.3
		C476.6,11,479.9,14.2,479.9,18.2z"/>
	<path class="redundant1" d="M475.3,18.2c0,1.5-1.2,2.7-2.7,2.7s-2.7-1.2-2.7-2.7s1.2-2.7,2.7-2.7S475.3,16.7,475.3,18.2z M479.9,18.2h-4.6
		 M469.9,18.2h-4.5"/>
	<path class="redundant1" d="M506.3,74.2c0,3.4-2.5,6.1-5.6,6.1H302.5c-3.1,0-5.6-2.7-5.6-6.1V52.5c0-3.4,2.5-6.1,5.6-6.1h198.2
		c3.1,0,5.6,2.7,5.6,6.1L506.3,74.2L506.3,74.2z"/>
	<path class="redundant1" d="M308.4,46.4v33.8 M494.7,46.4v33.9 M479.9,63.3c0,4-3.3,7.3-7.3,7.3s-7.3-3.3-7.3-7.3s3.2-7.3,7.3-7.3
		C476.6,56.1,479.9,59.3,479.9,63.3z"/>
	<path class="redundant1" d="M475.3,63.3c0,1.5-1.2,2.7-2.7,2.7s-2.7-1.2-2.7-2.7s1.2-2.7,2.7-2.7S475.3,61.8,475.3,63.3z M479.9,63.3h-4.6
		 M469.9,63.3h-4.5"/>
	<path class="redundant1" d="M506.3,119.3c0,3.4-2.5,6.1-5.6,6.1H302.5c-3.1,0-5.6-2.7-5.6-6.1V97.6c0-3.4,2.5-6.1,5.6-6.1h198.2
		c3.1,0,5.6,2.7,5.6,6.1L506.3,119.3L506.3,119.3z"/>
	<path class="redundant1" d="M308.4,91.5v33.8 M494.7,91.5v33.9 M479.9,108.4c0,4-3.3,7.3-7.3,7.3s-7.3-3.3-7.3-7.3s3.2-7.3,7.3-7.3
		C476.6,101.2,479.9,104.4,479.9,108.4z"/>
	<path class="redundant1" d="M475.3,108.4c0,1.5-1.2,2.7-2.7,2.7s-2.7-1.2-2.7-2.7s1.2-2.7,2.7-2.7C474.1,105.8,475.3,107,475.3,108.4z
		 M479.9,108.5h-4.6 M469.9,108.5h-4.5"/>
</g>
<g id="svg-concept_3_">
	<circle id="svg-concept" class="redundant2" cx="697.3" cy="146.9" r="6.5"/>
	<path id="svg-concept" class="redundant2" d="M697.3,129v11.1 M646.2,146.9h44.4 M703.9,146.9h44.4"/>
	<path id="svg-concept" class="redundant2" d="M802,29.1c0,3.4-2.5,6.1-5.6,6.1H598.2c-3.1,0-5.6-2.7-5.6-6.1V7.4c0-3.4,2.5-6.1,5.6-6.1h198.2
		c3.1,0,5.6,2.7,5.6,6.1V29.1z"/>
	<path id="svg-concept" class="redundant2" d="M604.1,1.2v33.9 M790.4,1.2v34 M775.6,18.2c0,4-3.3,7.3-7.3,7.3s-7.3-3.3-7.3-7.3s3.2-7.3,7.3-7.3
		C772.3,11,775.6,14.2,775.6,18.2z"/>
	<path id="svg-concept" class="redundant2" d="M771,18.2c0,1.5-1.2,2.7-2.7,2.7s-2.7-1.2-2.7-2.7s1.2-2.7,2.7-2.7S771,16.7,771,18.2z M775.6,18.2H771
		 M765.6,18.2h-4.5"/>
	<path id="svg-concept" class="redundant2" d="M802,74.2c0,3.4-2.5,6.1-5.6,6.1H598.2c-3.1,0-5.6-2.7-5.6-6.1V52.5c0-3.4,2.5-6.1,5.6-6.1h198.2
		c3.1,0,5.6,2.7,5.6,6.1V74.2z"/>
	<path id="svg-concept" class="redundant2" d="M604.1,46.4v33.8 M790.4,46.4v33.9 M775.6,63.3c0,4-3.3,7.3-7.3,7.3s-7.3-3.3-7.3-7.3s3.2-7.3,7.3-7.3
		C772.3,56.1,775.6,59.3,775.6,63.3z"/>
	<path id="svg-concept" class="redundant2" d="M771,63.3c0,1.5-1.2,2.7-2.7,2.7s-2.7-1.2-2.7-2.7s1.2-2.7,2.7-2.7S771,61.8,771,63.3z M775.6,63.3H771
		 M765.6,63.3h-4.5"/>
	<path id="svg-concept" class="redundant2" d="M802,119.3c0,3.4-2.5,6.1-5.6,6.1H598.2c-3.1,0-5.6-2.7-5.6-6.1V97.6c0-3.4,2.5-6.1,5.6-6.1h198.2
		c3.1,0,5.6,2.7,5.6,6.1V119.3z"/>
	<path id="svg-concept" class="redundant2" d="M604.1,91.5v33.8 M790.4,91.5v33.9 M775.6,108.4c0,4-3.3,7.3-7.3,7.3s-7.3-3.3-7.3-7.3s3.2-7.3,7.3-7.3
		C772.3,101.2,775.6,104.4,775.6,108.4z"/>
	<path id="svg-concept" class="redundant2" d="M771,108.4c0,1.5-1.2,2.7-2.7,2.7s-2.7-1.2-2.7-2.7s1.2-2.7,2.7-2.7C769.8,105.8,771,107,771,108.4z
		 M775.6,108.5H771 M765.6,108.5h-4.5"/>
	
		<animateMotion  accumulate="none" additive="replace" begin="7s" calcMode="paced" dur="3s" fill="remove" path="M8, 0 8 0 -8 0 8 0" repeatCount="indefinite" restart="always">
		</animateMotion>
	
		<animateMotion  accumulate="none" additive="replace" calcMode="paced" fill="remove" path="M8, 0 8 0 -8 0 8 0" repeatCount="indefinite" restart="always">
		</animateMotion>
</g>
<g>
	<circle class="redundant1" cx="993" cy="353.2" r="6.5"/>
	<path class="redundant1" d="M993,335.2v11.1 M941.9,353.2h44.4 M999.6,353.2h44.4"/>
	<path class="redundant1" d="M1097.7,235.3c0,3.4-2.5,6.1-5.6,6.1H893.9c-3.1,0-5.6-2.7-5.6-6.1v-21.7c0-3.4,2.5-6.1,5.6-6.1h198.2
		c3.1,0,5.6,2.7,5.6,6.1V235.3z"/>
	<path class="redundant1" d="M899.8,207.5v33.8 M1086.1,207.5v33.9 M1071.3,224.5c0,4-3.3,7.3-7.3,7.3s-7.3-3.3-7.3-7.3s3.2-7.3,7.3-7.3
		C1068,217.2,1071.3,220.4,1071.3,224.5z"/>
	<path class="redundant1" d="M1066.7,224.5c0,1.5-1.2,2.7-2.7,2.7s-2.7-1.2-2.7-2.7s1.2-2.7,2.7-2.7S1066.7,223,1066.7,224.5z
		 M1071.3,224.5h-4.6 M1061.3,224.5h-4.5"/>
	<path class="redundant1" d="M1097.7,280.4c0,3.4-2.5,6.1-5.6,6.1H893.9c-3.1,0-5.6-2.7-5.6-6.1v-21.7c0-3.4,2.5-6.1,5.6-6.1h198.2
		c3.1,0,5.6,2.7,5.6,6.1V280.4z"/>
	<path class="redundant1" d="M899.8,252.6v33.8 M1086.1,252.6v34 M1071.3,269.6c0,4-3.3,7.3-7.3,7.3s-7.3-3.3-7.3-7.3s3.2-7.3,7.3-7.3
		C1068,262.3,1071.3,265.6,1071.3,269.6z"/>
	<path class="redundant1" d="M1066.7,269.6c0,1.5-1.2,2.7-2.7,2.7s-2.7-1.2-2.7-2.7s1.2-2.7,2.7-2.7S1066.7,268.1,1066.7,269.6z
		 M1071.3,269.6h-4.6 M1061.3,269.6h-4.5"/>
	<path class="redundant1" d="M1097.7,325.5c0,3.4-2.5,6.1-5.6,6.1H893.9c-3.1,0-5.6-2.7-5.6-6.1v-21.7c0-3.4,2.5-6.1,5.6-6.1h198.2
		c3.1,0,5.6,2.7,5.6,6.1V325.5z"/>
	<path class="redundant1" d="M899.8,297.7v33.8 M1086.1,297.7v34 M1071.3,314.7c0,4-3.3,7.3-7.3,7.3s-7.3-3.3-7.3-7.3s3.2-7.3,7.3-7.3
		C1068,307.4,1071.3,310.7,1071.3,314.7z"/>
	<path class="redundant1" d="M1066.7,314.7c0,1.5-1.2,2.7-2.7,2.7s-2.7-1.2-2.7-2.7s1.2-2.7,2.7-2.7S1066.7,313.2,1066.7,314.7z
		 M1071.3,314.7h-4.6 M1061.3,314.7h-4.5"/>
</g>
<g>
	<circle class="redundant1" cx="993" cy="146.9" r="6.5"/>
	<path class="redundant1" d="M993,129v11.1 M941.9,146.9h44.4 M999.6,146.9h44.4"/>
	<path class="redundant1" d="M1097.7,29.1c0,3.4-2.5,6.1-5.6,6.1H893.9c-3.1,0-5.6-2.7-5.6-6.1V7.4c0-3.4,2.5-6.1,5.6-6.1h198.2
		c3.1,0,5.6,2.7,5.6,6.1V29.1z"/>
	<path class="redundant1" d="M899.8,1.2v33.9 M1086.1,1.2v34 M1071.3,18.2c0,4-3.3,7.3-7.3,7.3s-7.3-3.3-7.3-7.3s3.2-7.3,7.3-7.3
		C1068,11,1071.3,14.2,1071.3,18.2z"/>
	<path class="redundant1" d="M1066.7,18.2c0,1.5-1.2,2.7-2.7,2.7s-2.7-1.2-2.7-2.7s1.2-2.7,2.7-2.7S1066.7,16.7,1066.7,18.2z M1071.3,18.2
		h-4.6 M1061.3,18.2h-4.5"/>
	<path class="redundant1" d="M1097.7,74.2c0,3.4-2.5,6.1-5.6,6.1H893.9c-3.1,0-5.6-2.7-5.6-6.1V52.5c0-3.4,2.5-6.1,5.6-6.1h198.2
		c3.1,0,5.6,2.7,5.6,6.1V74.2z"/>
	<path class="redundant1" d="M899.8,46.4v33.8 M1086.1,46.4v33.9 M1071.3,63.3c0,4-3.3,7.3-7.3,7.3s-7.3-3.3-7.3-7.3s3.2-7.3,7.3-7.3
		C1068,56.1,1071.3,59.3,1071.3,63.3z"/>
	<path class="redundant1" d="M1066.7,63.3c0,1.5-1.2,2.7-2.7,2.7s-2.7-1.2-2.7-2.7s1.2-2.7,2.7-2.7S1066.7,61.8,1066.7,63.3z M1071.3,63.3
		h-4.6 M1061.3,63.3h-4.5"/>
	<path class="redundant1" d="M1097.7,119.3c0,3.4-2.5,6.1-5.6,6.1H893.9c-3.1,0-5.6-2.7-5.6-6.1V97.6c0-3.4,2.5-6.1,5.6-6.1h198.2
		c3.1,0,5.6,2.7,5.6,6.1V119.3z"/>
	<path class="redundant1" d="M899.8,91.5v33.8 M1086.1,91.5v33.9 M1071.3,108.4c0,4-3.3,7.3-7.3,7.3s-7.3-3.3-7.3-7.3s3.2-7.3,7.3-7.3
		C1068,101.2,1071.3,104.4,1071.3,108.4z"/>
	<path class="redundant1" d="M1066.7,108.4c0,1.5-1.2,2.7-2.7,2.7s-2.7-1.2-2.7-2.7s1.2-2.7,2.7-2.7C1065.5,105.8,1066.7,107,1066.7,108.4z
		 M1071.3,108.5h-4.6 M1061.3,108.5h-4.5"/>
</g>
<circle id="svg-ico" class="redundant3" cx="549.4" cy="166.2" r="6"/>
<path id="svg-ico" class="redundant3" d="M260,165.9c0,3.3-2.7,6-6,6s-6-2.7-6-6s2.7-6,6-6C257.3,160,260,162.7,260,165.9z"/>
<circle id="svg-ico" class="redundant3" cx="845.6" cy="166.2" r="6"/>
</svg>
