<?xml version="1.0" encoding="utf-8"?>
<!-- Generator: Adobe Illustrator 24.3.0, SVG Export Plug-In . SVG Version: 6.00 Build 0)  -->
<svg version="1.1" id="Layer_1" xmlns="http://www.w3.org/2000/svg" xmlns:xlink="http://www.w3.org/1999/xlink" x="0px" y="0px"
	 viewBox="0 0 1099.5 361.5" style="enable-background:new 0 0 1099.5 361.5;" xml:space="preserve">
<style type="text/css">
	.scalable0{fill:none;stroke:#EE5586;stroke-width:3;stroke-linecap:square;stroke-miterlimit:10;}
	.scalable1{fill:none;stroke:#808080;stroke-linecap:round;stroke-linejoin:round;stroke-miterlimit:10;}
	.scalable2{fill:none;stroke:#EE5586;stroke-width:2;stroke-linecap:square;stroke-miterlimit:10;}
	.scalable3{fill:#EE5586;}
</style>
<g>
<path id="svg-concept" class="scalable0" d="M745.2,81.2h342.2"/>
 <animateMotion path="M0, 0 0 -70" begin="0s" dur="3s" fill="freeze"/>
 <animate attributeName="opacity" calcMode="linear" begin="3s" dur="1s" fill="remove" repeatCount="indefinite" restart="always" values="0;1;0"></animate>
</g>
<g>
<path id="svg-concept" class="scalable0" d="M2.4,81.9L344.5,82v0.1"/>
 <animateMotion path="M0, 0 0 70" begin="0s" dur="3s" fill="freeze"/>
</g>

<path class="scalable1" d="M286.1,312.7c0,4.6-3.4,8.3-7.6,8.3H9.9c-4.2,0-7.6-3.7-7.6-8.3v-29.4c0-4.6,3.4-8.3,7.6-8.3h268.5
	c4.2,0,7.6,3.7,7.6,8.3v29.4H286.1z"/>
<line class="scalable1" x1="18" y1="275" x2="18" y2="320.9"/>
<line class="scalable1" x1="270.4" y1="275" x2="270.4" y2="321"/>
<circle id="svg-concept" class="scalable2" cx="240.5" cy="298" r="9.8"/>
<path id="svg-concept" class="scalable2" d="M244.1,298c0,2-1.6,3.7-3.7,3.7c-2,0-3.6-1.6-3.6-3.7s1.6-3.6,3.6-3.6C242.5,294.4,244.1,296,244.1,298z"/>
<line id="svg-concept" class="scalable2" x1="250.3" y1="298.1" x2="244.1" y2="298.1"/>
<line id="svg-concept" class="scalable2" x1="236.8" y1="298.1" x2="230.7" y2="298.1"/>
<circle id="svg-concept_1_" class="scalable1" cx="144.2" cy="350.2" r="8.7"/>
<path id="svg-concept_2_" class="scalable1" d="M144.2,325.9v15 M75,350.2h60.2 M153.2,350.2h60.2"/>
<path class="scalable1" d="M686.7,251.6c0,4.6-3.4,8.3-7.6,8.3H410.6c-4.2,0-7.6-3.7-7.6-8.3v-29.4c0-4.6,3.4-8.3,7.6-8.3h268.5
	c4.2,0,7.6,3.7,7.6,8.3L686.7,251.6L686.7,251.6z"/>
<line class="scalable1" x1="418.7" y1="213.9" x2="418.7" y2="259.7"/>
<line class="scalable1" x1="671.1" y1="213.9" x2="671.1" y2="259.9"/>
<circle id="svg-concept" class="scalable2" cx="641.2" cy="236.9" r="9.8"/>
<path id="svg-concept" class="scalable2" d="M644.8,236.9c0,2-1.6,3.7-3.7,3.7c-2,0-3.6-1.6-3.6-3.7s1.6-3.6,3.6-3.6C643.2,233.3,644.8,234.9,644.8,236.9z
	 M651,236.9h-6.2 M637.5,236.9h-6.2"/>
<path class="scalable1" d="M686.7,312.7c0,4.6-3.4,8.3-7.6,8.3H410.6c-4.2,0-7.6-3.7-7.6-8.3v-29.4c0-4.6,3.4-8.3,7.6-8.3h268.5
	c4.2,0,7.6,3.7,7.6,8.3L686.7,312.7L686.7,312.7z"/>
<line class="scalable1" x1="418.7" y1="275" x2="418.7" y2="320.9"/>
<line class="scalable1" x1="671.1" y1="275" x2="671.1" y2="321"/>
<circle id="svg-concept" class="scalable2" cx="641.2" cy="298" r="9.8"/>
<path id="svg-concept" class="scalable2" d="M644.8,298c0,2-1.6,3.7-3.7,3.7c-2,0-3.6-1.6-3.6-3.7s1.6-3.6,3.6-3.6C643.2,294.4,644.8,296,644.8,298z
	 M651,298.1h-6.2 M637.5,298.1h-6.2"/>
<circle id="svg-concept_3_" class="scalable1" cx="544.9" cy="350.2" r="8.7"/>
<path class="scalable1" d="M544.9,325.9v15 M475.7,350.2h60.2 M553.9,350.2h60.2"/>
<path class="scalable1" d="M1087.4,190.5c0,4.6-3.4,8.3-7.6,8.3H811.3c-4.2,0-7.6-3.7-7.6-8.3v-29.4c0-4.6,3.4-8.3,7.6-8.3h268.5
	c4.2,0,7.6,3.7,7.6,8.3V190.5z"/>
<line class="scalable1" x1="819.3" y1="152.8" x2="819.3" y2="198.6"/>
<line class="scalable1" x1="1071.8" y1="152.8" x2="1071.8" y2="198.8"/>
<path id="svg-concept" class="scalable2" d="M1051.7,175.8c0,5.4-4.4,9.8-9.8,9.8s-9.8-4.4-9.8-9.8s4.4-9.8,9.8-9.8C1047.3,165.9,1051.7,170.3,1051.7,175.8
	z"/>
<path id="svg-concept" class="scalable2" d="M1045.5,175.8c0,2-1.6,3.7-3.7,3.7c-2,0-3.6-1.6-3.6-3.7s1.6-3.6,3.6-3.6
	C1043.9,172.1,1045.5,173.8,1045.5,175.8z M1051.7,175.8h-6.2 M1038.2,175.8h-6.2"/>
<path class="scalable1" d="M1087.4,251.6c0,4.6-3.4,8.3-7.6,8.3H811.3c-4.2,0-7.6-3.7-7.6-8.3v-29.4c0-4.6,3.4-8.3,7.6-8.3h268.5
	c4.2,0,7.6,3.7,7.6,8.3V251.6L1087.4,251.6z"/>
<line class="scalable1" x1="819.3" y1="213.9" x2="819.3" y2="259.7"/>
<line class="scalable1" x1="1071.8" y1="213.9" x2="1071.8" y2="259.9"/>
<circle id="svg-concept" class="scalable2" cx="1041.9" cy="236.9" r="9.8"/>
<path id="svg-concept" class="scalable2" d="M1045.5,236.9c0,2-1.6,3.7-3.7,3.7c-2,0-3.6-1.6-3.6-3.7s1.6-3.6,3.6-3.6
	C1043.9,233.3,1045.5,234.9,1045.5,236.9z M1051.7,236.9h-6.2 M1038.2,236.9h-6.2"/>
<path class="scalable1" d="M1087.4,312.7c0,4.6-3.4,8.3-7.6,8.3H811.3c-4.2,0-7.6-3.7-7.6-8.3v-29.4c0-4.6,3.4-8.3,7.6-8.3h268.5
	c4.2,0,7.6,3.7,7.6,8.3V312.7z"/>
<line class="scalable1" x1="819.3" y1="275" x2="819.3" y2="320.9"/>
<line class="scalable1" x1="1071.8" y1="275" x2="1071.8" y2="321"/>
<circle id="svg-concept" class="scalable2" cx="1041.9" cy="298" r="9.8"/>
<path id="svg-concept" class="scalable2" d="M1045.5,298c0,2-1.6,3.7-3.7,3.7c-2,0-3.6-1.6-3.6-3.7s1.6-3.6,3.6-3.6C1043.9,294.4,1045.5,296,1045.5,298z
	 M1051.7,298.1h-6.2 M1038.2,298.1h-6.2"/>
<circle id="svg-concept" class="scalable1" cx="945.6" cy="350.2" r="8.7"/>
<path id="svg-concept" class="scalable1" d="M945.6,325.9v15 M876.4,350.2h60.1 M954.6,350.2h60.2"/>
<circle id="svg-ico" class="scalable3" cx="345" cy="82" r="5"/>
<path id="svg-concept" class="scalable0" d="M345.5,81.4l399.7-0.1"/>
<circle id="svg-ico" class="scalable3" cx="745.2" cy="81.2" r="5"/>
</svg>
