<?xml version="1.0" encoding="utf-8"?>
<!-- Generator: Adobe Illustrator 24.3.0, SVG Export Plug-In . SVG Version: 6.00 Build 0)  -->
<svg version="1.1" id="Layer_1" xmlns="http://www.w3.org/2000/svg" xmlns:xlink="http://www.w3.org/1999/xlink" x="0px" y="0px"
	 viewBox="0 0 1100 452.3" style="enable-background:new 0 0 1100 452.3;" xml:space="preserve">
<style type="text/css">
	.ssd0{fill:none;}
	.ssd1{fill:none;stroke:#808080;stroke-linecap:round;stroke-linejoin:round;stroke-miterlimit:10;}
	.ssd2{fill:none;stroke:#EE5586;stroke-width:2;stroke-linecap:round;stroke-linejoin:round;stroke-miterlimit:10;}
	.ssd3{fill:none;stroke:#EE5586;stroke-width:3;stroke-linecap:round;stroke-linejoin:round;stroke-miterlimit:10;}
	.ssd4{enable-background:new    ;}
	.ssd5{fill:#EE5586;}
</style>
<path class="ssd0" d="M337,292.7c-0.9-2.8-1.7-5.6-2.5-8.5C302.4,165,373,42.4,492.2,10.3S733.9,48.8,766,167.9
	s-38.5,241.8-157.6,273.8C492.1,473.1,372.5,406.7,337,292.7"/>
<path class="ssd1" d="M116.2,226.5H0.3"/>
<g>
	<path class="ssd1" d="M148.9,259.6H136v-66.2h12.9V259.6z"/>
	<path class="ssd1" d="M81.4,233.3H50.3v-12.9h31.1V233.3z"/>
	<path id="svg-concept" class="ssd2" d="M82.6,184.2h52c0.7,0,1.3,0.6,1.3,1.3v82.1c0,0.7-0.6,1.3-1.3,1.3h-52
		c-0.7,0-1.3-0.6-1.3-1.3v-82.1C81.4,184.8,82,184.2,82.6,184.2z"/>
	
		<animateMotion  accumulate="none" additive="replace" begin="0s" calcMode="paced" dur="2s" fill="freeze" path="M0, 0 65 0 -65" restart="always">
		</animateMotion>
</g>
<path class="ssd1" d="M743.9,336.7c61.6-106.9,24.8-243.5-82.2-305.1C554.8-29.9,418.2,6.9,356.6,113.8s-24.8,243.5,82.2,305.1
	S682.3,443.7,743.9,336.7z M441.1,365.5c20.8-36.1,8.4-82.2-27.8-103c-19.8-11.4-42.6-12.8-62.6-5.8c-6.7-44,0.8-90.4,24.7-132
	S435.8,53.3,477.2,37c4,20.8,16.6,39.9,36.5,51.3c36.1,20.8,82.2,8.4,103-27.8c4.4-7.6,7.2-15.6,8.8-23.7c9.3,3.7,18.5,8,27.4,13.2
	c74.5,42.9,111.6,125.9,99.6,206.1c-33.6-11.8-71.9,1.6-90.3,33.6s-10.8,71.8,16.3,94.9C615.2,435.3,524.8,445,450.2,402
	c-8.9-5.1-17.3-10.9-25.2-17.1C431.3,379.6,436.8,373,441.1,365.5L441.1,365.5z"/>
<path class="ssd1" d="M708.3,306.4c1.1,4-1.3,8.1-5.3,9.1c-4,1.1-8.1-1.3-9.1-5.3c-1.1-4,1.3-8,5.3-9.1
	C703.2,300.1,707.2,302.4,708.3,306.4z"/>
<path class="ssd1" d="M703.8,307.6c0.4,1.5-0.5,3-1.9,3.4c-1.5,0.4-3-0.5-3.4-2s0.5-3,1.9-3.4C701.9,305.3,703.4,306.2,703.8,307.6z
	 M708.3,306.4l-4.5,1.2 M698.4,309.1l-4.5,1.2 M555.9,54.6c1.1,4-1.3,8.1-5.3,9.1c-4,1.1-8.1-1.3-9.1-5.3s1.3-8,5.3-9.1
	C550.8,48.2,554.9,50.6,555.9,54.6z"/>
<path class="ssd1" d="M551.4,55.8c0.4,1.5-0.5,3-1.9,3.4c-1.5,0.4-3-0.5-3.4-2s0.5-3,1.9-3.4C549.5,53.4,551,54.3,551.4,55.8z
	 M555.9,54.6l-4.5,1.2 M546.1,57.2l-4.5,1.3 M411.5,304.9c1.1,4-1.3,8.1-5.3,9.1c-4,1.1-8.1-1.3-9.1-5.3c-1.1-4,1.3-8,5.3-9.1
	C406.3,298.5,410.4,300.9,411.5,304.9z"/>
<path class="ssd1" d="M406.9,306.1c0.4,1.5-0.5,3-1.9,3.4c-1.5,0.4-3-0.5-3.4-2s0.5-3,1.9-3.4C405,303.7,406.5,304.6,406.9,306.1z
	 M411.5,304.9l-4.6,1.2 M401.6,307.5l-4.5,1.2 M579.9,242.3c-9.4,16.3-30.2,21.9-46.5,12.5c-16.3-9.4-21.9-30.2-12.5-46.5
	c9.4-16.3,30.1-21.9,46.4-12.5C583.7,205.2,589.3,226,579.9,242.3z"/>
<path class="ssd1" d="M561.4,231.6c-3.5,6-11.2,8.1-17.2,4.7c-6-3.5-8.1-11.2-4.6-17.2s11.2-8.1,17.2-4.6
	C562.7,217.9,564.8,225.6,561.4,231.6z M579.9,242.3l-18.6-10.6 M537.8,221.9l-18.4-10.6"/>
<path id="svg-concept" class="ssd3" d="M337,291.9c-0.9-2.8-1.7-5.6-2.5-8.5C302.4,164.2,373,41.6,492.2,9.5S733.9,48,766,167.2
	S727.5,408.9,608.4,441C492.1,472.3,372.5,405.9,337,291.9"/>
<path class="ssd1" d="M984.3,225.6h116"/>
<g>
	<path class="ssd1" d="M951.6,192.5h12.9v66.2h-12.9V192.5z M1019.1,218.8h31.1v12.9h-31.1V218.8z"/>
	<path id="svg-concept" class="ssd2" d="M1017.9,267.9h-52c-0.7,0-1.3-0.6-1.3-1.3v-82.1c0-0.7,0.6-1.3,1.3-1.3h52
		c0.7,0,1.3,0.6,1.3,1.3v82.1C1019.1,267.3,1018.6,267.9,1017.9,267.9z"/>
	
		<animateMotion  accumulate="none" additive="replace" begin="3s" calcMode="paced" dur="2s" fill="freeze" path="M0, 0 -65 0 65" restart="always">
		</animateMotion>
</g>
<g>
	<path class="ssd1" d="M365.7,354.9H187c-2.5,0-4.6-2.1-4.6-4.6v-70.5h19.1V173.2h-19.1v-71.4c0-2.6,2.1-4.7,4.6-4.7h176.8"/>
	<path class="ssd1" d="M330.8,279.7h-90.6V173.2h90.1"/>
	<path class="ssd0" d="M240.2,210h106.5v32.3H240.2V210z"/>
	<g class="ssd4">
		<path id="svg-ico" class="ssd5" d="M259.4,215.2v8.5h9.7v-8.5h2.7v20.2h-2.7v-9.5h-9.7v9.5h-2.6v-20.2L259.4,215.2L259.4,215.2z"/>
		<path id="svg-ico" class="ssd5" d="M276.3,215.5c1.6-0.2,3.5-0.4,5.6-0.4c3.7,0,6.4,0.8,8.1,2.5c1.8,1.7,2.8,4,2.8,7.2
			c0,3.3-1,6-2.9,7.8c-1.9,1.9-5,2.9-8.9,2.9c-1.8,0-3.4-0.1-4.7-0.2L276.3,215.5L276.3,215.5z M279,233.3c0.7,0.1,1.6,0.2,2.7,0.2
			c5.6,0,8.6-3.1,8.6-8.6c0-4.7-2.7-7.8-8.1-7.8c-1.3,0-2.3,0.1-3.1,0.2V233.3z"/>
		<path id="svg-ico" class="ssd5" d="M296.3,215.5c1.6-0.2,3.5-0.4,5.6-0.4c3.7,0,6.4,0.8,8.1,2.5c1.8,1.7,2.8,4,2.8,7.2
			c0,3.3-1,6-2.9,7.8c-1.9,1.9-5,2.9-8.9,2.9c-1.8,0-3.4-0.1-4.7-0.2L296.3,215.5L296.3,215.5z M298.9,233.3
			c0.7,0.1,1.6,0.2,2.7,0.2c5.6,0,8.6-3.1,8.6-8.6c0-4.7-2.7-7.8-8.1-7.8c-1.3,0-2.3,0.1-3.1,0.2V233.3z"/>
	</g>
	<g>
		<path class="ssd1" d="M218.9,127.2c0,3.5-2.9,6.4-6.4,6.4s-6.4-2.9-6.4-6.4s2.9-6.4,6.4-6.4S218.9,123.6,218.9,127.2z"/>
		<path class="ssd1" d="M214.8,127.2c0,1.3-1.1,2.4-2.4,2.4c-1.3,0-2.4-1.1-2.4-2.4s1.1-2.4,2.4-2.4
			C213.8,124.8,214.8,125.8,214.8,127.2z M218.9,127.2h-4.1 M210.1,127.2H206"/>
	</g>
	<g>
		<path class="ssd1" d="M218.9,324.9c0,3.5-2.9,6.4-6.4,6.4s-6.4-2.9-6.4-6.4s2.9-6.4,6.4-6.4S218.9,321.4,218.9,324.9z"/>
		<path class="ssd1" d="M214.8,324.9c0,1.3-1.1,2.4-2.4,2.4c-1.3,0-2.4-1.1-2.4-2.4s1.1-2.4,2.4-2.4
			C213.8,322.6,214.8,323.6,214.8,324.9z M218.9,325h-4.1 M210.1,325H206"/>
	</g>
</g>
<g>
	<path class="ssd1" d="M735.3,97.2h178.2c2.5,0,4.6,2.1,4.6,4.6v70.5H899V279h19.1v71.4c0,2.5-2.1,4.6-4.6,4.6H735"/>
	<path class="ssd1" d="M770.2,172.4h90.1v106.5h-90.8"/>
	<path class="ssd1" d="M881.7,325c0-3.5,2.9-6.4,6.4-6.4s6.4,2.9,6.4,6.4s-2.9,6.4-6.4,6.4C884.5,331.4,881.7,328.5,881.7,325z"/>
	<path class="ssd1" d="M885.7,325c0-1.3,1.1-2.4,2.4-2.4c1.3,0,2.4,1.1,2.4,2.4s-1.1,2.4-2.4,2.4C886.8,327.3,885.7,326.3,885.7,325z
		 M881.7,324.9h4 M890.5,324.9h4"/>
	<g>
		<path class="ssd1" d="M881.7,127.2c0-3.5,2.9-6.4,6.4-6.4s6.4,2.9,6.4,6.4s-2.9,6.4-6.4,6.4C884.5,133.6,881.7,130.7,881.7,127.2z"
			/>
		<path class="ssd1" d="M885.7,127.2c0-1.3,1.1-2.4,2.4-2.4c1.3,0,2.4,1.1,2.4,2.4s-1.1,2.4-2.4,2.4
			C886.8,129.5,885.7,128.5,885.7,127.2z M881.7,127.2h4 M890.5,127.2h4"/>
	</g>
	<path class="ssd0" d="M754.2,210h106.5v32.3H754.2V210z"/>
	<g class="ssd4">
		<path id="svg-ico" class="ssd5" d="M791.7,232.6c1.2,0.8,3.1,1.4,4.9,1.4c2.8,0,4.5-1.5,4.5-3.6c0-2-1.1-3.2-4.1-4.2
			c-3.5-1.2-5.7-3.1-5.7-6.1c0-3.4,2.7-5.8,6.9-5.8c2.2,0,3.8,0.5,4.8,1.1l-0.8,2.3c-0.7-0.4-2.1-1.1-4.1-1.1
			c-2.9,0-4.1,1.8-4.1,3.2c0,2,1.3,3,4.2,4.2c3.6,1.4,5.5,3.2,5.5,6.3c0,3.3-2.5,6.2-7.5,6.2c-2,0-4.3-0.6-5.5-1.3L791.7,232.6z"/>
		<path id="svg-ico" class="ssd5" d="M807.4,232.6c1.2,0.8,3.1,1.4,4.9,1.4c2.8,0,4.5-1.5,4.5-3.6c0-2-1.1-3.2-4.1-4.2
			c-3.5-1.2-5.7-3.1-5.7-6.1c0-3.4,2.7-5.8,6.9-5.8c2.2,0,3.8,0.5,4.8,1.1l-0.8,2.3c-0.7-0.4-2.1-1.1-4.1-1.1
			c-2.9,0-4.1,1.8-4.1,3.2c0,2,1.3,3,4.2,4.2c3.6,1.4,5.5,3.2,5.5,6.3c0,3.3-2.5,6.2-7.5,6.2c-2,0-4.3-0.6-5.5-1.3L807.4,232.6z"/>
		<path id="svg-ico" class="ssd5" d="M823.5,214.9c1.7-0.3,3.7-0.4,5.9-0.4c4,0,6.8,0.9,8.7,2.7c1.9,1.8,3,4.2,3,7.7
			c0,3.5-1.1,6.4-3.1,8.3c-2,2-5.3,3.1-9.5,3.1c-1.9,0-3.6-0.1-5-0.3V214.9z M826.3,233.8c0.7,0.1,1.7,0.2,2.8,0.2
			c5.9,0,9.1-3.3,9.1-9.1c0-5-2.8-8.3-8.7-8.3c-1.4,0-2.5,0.1-3.3,0.3V233.8z"/>
	</g>
</g>
<g>
	<path id="svg-concept" class="ssd2" d="M450,50.2c0,0,55.2,46.3,84.2,145.2 M390.2,102.5c0,0,68.8,21.4,133.7,101.5 M355.3,173.7
		c0,0,71.8-6.6,162.4,42.5 M350.3,251.5c0,0,63.9-33.3,166.3-22.2 M375.8,326.4c0,0,46.3-55.2,145.2-84 M428.5,386
		c0,0,21.5-68.7,101.8-133.3 M744.7,278.6c0,0-71.4,6.3-161.7-43.4 M750.2,199.3c0,0-63.5,33.4-166,22.3 M724.8,124.3
		c0,0-45.9,55.2-144.8,84.3 M673.5,65.5c0,0-21.6,68.5-102,132.9 M602.6,30.4c0,0,6.1,71.7-43.7,162 M523.2,25.3
		c0,0,33.2,64,21.8,166.4 M499.6,420.7c0,0-6.6-71.8,42.6-162.3 M578.4,425.2c0,0-33.6-63.7-22.9-166.2 M651.6,399.9
		c0,0-56.7-51-84.2-145.1 M710.4,348.4c0,0-68.7-21.7-133.3-102"/>
	
		<animateTransform  accumulate="none" additive="replace" attributeName="transform" begin="2s" calcMode="linear" dur="3s" fill="remove" from="0 555 222" repeatCount="indefinite" restart="always" to="360 546 227" type="rotate">
		</animateTransform>
	
		<animateTransform  accumulate="none" additive="replace" attributeName="transform" begin="5s" calcMode="linear" dur="1.5s" fill="remove" from="0 555 222" repeatCount="indefinite" restart="always" to="360 546 227" type="rotate">
		</animateTransform>
</g>
</svg>
