<?xml version="1.0" encoding="utf-8"?>
<!-- Generator: Adobe Illustrator 24.3.0, SVG Export Plug-In . SVG Version: 6.00 Build 0)  -->
<svg version="1.1" id="Layer_1" xmlns="http://www.w3.org/2000/svg" xmlns:xlink="http://www.w3.org/1999/xlink" x="0px" y="0px"
	 viewBox="0 0 608.9 401" style="enable-background:new 0 0 608.9 401;" xml:space="preserve">
<style type="text/css">
	.ssl0{fill:none;stroke:#808080;stroke-linecap:round;stroke-linejoin:round;stroke-miterlimit:10;}
	.ssl1{fill:none;stroke:#808080;stroke-miterlimit:10;}
	.ssl2{fill:none;stroke:#EE5586;stroke-width:2;stroke-linecap:round;stroke-linejoin:round;stroke-miterlimit:10;}
	.ssl3{fill:none;stroke:#EE5586;stroke-linecap:round;stroke-linejoin:round;stroke-miterlimit:10;}
	.ssl4{fill:#FFFFFF;stroke:#EE5586;stroke-width:2;stroke-linecap:round;stroke-linejoin:round;stroke-miterlimit:10;}
	.ssl5{fill:#EE5586;}
</style>
<path class="ssl0" d="M2.6,364.5c0-2.2,1.7-4,3.9-4h595.6c2.2,0,3.9,1.8,3.9,4v12c0,0-0.3,14.5-30.6,14.5H33.2
	c-30.3,0-30.6-14.5-30.6-14.5L2.6,364.5z M538.1,340.1V29.6c0-8.8-7-15.9-15.6-15.9H86.2c-8.6,0-15.6,7.1-15.6,15.9v310.5H538.1z"/>
<path class="ssl1" d="M605,376.4H3.7 M308.2,29.6c0,2.2-1.7,4-3.9,4s-3.9-1.8-3.9-4s1.7-4,3.9-4S308.2,27.4,308.2,29.6z"/>
<path class="ssl0" d="M238.2,360.6c0,0,0.7,6.6,7.8,6.6h116.2c7.2,0,7.8-6.6,7.8-6.6"/>
<path class="ssl1" d="M93.2,48.7h423.2v273.5H93.2V48.7z"/>
<path class="ssl1" d="M109.4,66.2c0,1.8-1.5,3.3-3.3,3.3s-3.3-1.5-3.3-3.3s1.5-3.3,3.3-3.3C107.9,63,109.4,64.4,109.4,66.2z
	 M124.9,66.2c0,1.8-1.5,3.3-3.3,3.3s-3.3-1.5-3.3-3.3s1.5-3.3,3.3-3.3C123.5,63,124.9,64.4,124.9,66.2z M140.5,66.2
	c0,1.8-1.5,3.3-3.3,3.3s-3.3-1.5-3.3-3.3s1.5-3.3,3.3-3.3C139,63,140.5,64.4,140.5,66.2z M93.2,81.5h114.6l7-14.5h83.1l6.4,14.5
	h212.1 M93.2,114.7h423.2 M107.3,94.1l-4.5,4.6l4.5,4.7 M116.7,98.7h-13.9 M134.7,103.4l4.5-4.7l-4.5-4.6 M125.3,98.7h13.9
	 M157.7,94.1c-2.9,0-5.3,2.4-5.3,5.3s2.4,5.3,5.3,5.3s5.3-2.4,5.3-5.3"/>
<path class="ssl1" d="M157.7,95.5v-2.8l2.8,1.4L157.7,95.5z"/>
<path id="svg-concept" class="ssl2" d="M357.9,303.8H161.2c-8.2,0-15-6.8-15-15V153.2c0-8.2,6.8-15,15-15h196.7c8.2,0,15,6.8,15,15
	v135.6C372.9,297,366.1,303.8,357.9,303.8z"/>
<path class="ssl0" d="M241.6,169.5h104 M241.6,185.2h54.2 M241.6,200.8h104 M241.6,216.5h86.2"/>
<line id="svg-concept" class="ssl3" x1="241.6" y1="261.9" x2="308.2" y2="261.9"/>
<line id="svg-concept" class="ssl3" x1="241.6" y1="277.5" x2="345.6" y2="277.5"/>
<path id="svg-concept" class="ssl3" d="M219.6,261.6v-4.7c0-9.6-13.9-10.3-13.9,0v4.7"/>
<path id="svg-concept" class="ssl3" d="M220.9,261.6h1.1c0.5,0,0.9,0.4,0.9,0.9v14.2c0,0.5-0.4,0.9-0.9,0.9h-18.7c-0.5,0-0.9-0.4-0.9-0.9v-14.2
	c0-0.5,0.4-0.9,0.9-0.9H220.9L220.9,261.6z"/>
<line id="svg-concept" class="ssl3" x1="202.5" y1="267.6" x2="222.9" y2="267.6"/>
<line id="svg-concept" class="ssl3" x1="203.5" y1="261.6" x2="209.6" y2="267.6"/>
<line id="svg-concept" class="ssl3" x1="208.6" y1="261.6" x2="214.6" y2="267.6"/>
<line id="svg-concept" class="ssl3" x1="213.6" y1="261.6" x2="219.7" y2="267.6"/>
<line id="svg-concept" class="ssl3" x1="218.7" y1="261.6" x2="222.9" y2="265.8"/>
<line id="svg-concept" class="ssl3" x1="202.5" y1="264.9" x2="205.2" y2="267.6"/>
<path id="svg-concept" class="ssl0" d="M213.3,218.2h-37.6c-5.5,0-10-4.5-10-10v-37.6c0-5.5,4.5-10,10-10h37.6c5.5,0,10,4.5,10,10v37.6
	C223.3,213.7,218.8,218.2,213.3,218.2L213.3,218.2z"/>
<path id="svg-concept" class="ssl2" d="M190.6,121.7v16.5"/>
<g>
	<path id="svg-concept" class="ssl3" d="M189.4,197.3v13.1l4.3-4.3l0.1-0.1c0.2-0.2,0.5-0.3,0.7-0.3c0.3,0,0.5,0.1,0.7,0.3
		l0.1,0.1l4.3,4.3v-13.1H198l-3.6,2.1l-3.6-2.1H189.4z M206,178.6V175l-3.1-1.7l-1.8-3.1h-3.5l-3.1-1.8l-3,1.8H188l-1.8,3.1
		l-3.1,1.7v3.6l-1.7,3l1.7,3.1v3.5l3.1,1.8l1.8,3h3.5l3,1.8l3.1-1.8h3.5l1.8-3l3.1-1.8v-3.5l1.7-3.1L206,178.6z"/>
</g>
<path class="ssl1" d="M369.6,360.4l-65.3-0.1h-65.5"/>
<g>
	<path id="svg-concept" class="ssl3" d="M195.4,97.2V94c0-6.5-9.5-7-9.5,0v3.2"/>
	<path id="svg-concept" class="ssl3" d="M196.3,97.2h0.7c0.3,0,0.6,0.3,0.6,0.6v9.6c0,0.3-0.3,0.6-0.6,0.6h-12.7
		c-0.3,0-0.6-0.3-0.6-0.6v-9.6c0-0.3,0.3-0.6,0.6-0.6H196.3z"/>
	<path id="svg-concept" class="ssl3" d="M190.6,105c-1.2,0-2.2-1-2.2-2.2s1-2.2,2.2-2.2s2.2,1,2.2,2.2S191.8,105,190.6,105z"/>
	
		<animate  accumulate="none" additive="replace" attributeName="opacity" calcMode="linear" dur="1s" fill="remove" repeatCount="indefinite" restart="always" values="0;1;0">
		</animate>
</g>
<path id="svg-concept" class="ssl4" d="M218.6,100.6h154.3"/>
<g>
	<path id="svg-ico" class="ssl5" d="M97.2,340.1c0,2.2-1.8,4-4,4s-4-1.8-4-4s1.8-4,4-4S97.2,337.9,97.2,340.1z"/>
	
		<animateMotion  accumulate="none" additive="replace" begin="0s" calcMode="paced" dur="12s" fill="remove" path="M-20, 0 440 0 -20 0" repeatCount="indefinite" restart="always">
		</animateMotion>
</g>
</svg>
