<?xml version="1.0" encoding="utf-8"?>
<!-- Generator: Adobe Illustrator 24.3.0, SVG Export Plug-In . SVG Version: 6.00 Build 0)  -->
<svg version="1.1" id="Layer_1" xmlns="http://www.w3.org/2000/svg" xmlns:xlink="http://www.w3.org/1999/xlink" x="0px" y="0px"
	 viewBox="0 0 595.3 595.3" style="enable-background:new 0 0 595.3 595.3;" xml:space="preserve">
<style type="text/css">
	.supportman0{fill:none;stroke:#EE5586;stroke-width:3;stroke-linecap:round;stroke-linejoin:round;stroke-miterlimit:10;}
	.supportman1{fill:none;stroke:#808080;stroke-linecap:round;stroke-linejoin:round;stroke-miterlimit:10;}
</style>
<path id="svg-concept" class="supportman0" d="M415.7,478.7c-11.9-15.8-26.4-28.4-46.1-32.6c-15.7-3.3-43-18.1-45.6-20.5
	c0.4-2.9,0.7-5.8,1.1-8.7c2.6-1.5,5.2-2.9,7.7-4.5c14.4-8.9,24.5-21.1,28.9-37.7c2.3-8.8,2.1-17.7,1.9-26.7
	c8.8,0,14.1-5.1,17.4-12.6c3.8-8.5,4.5-17.6,3.5-26.8c-0.6-5.7-3.6-9.7-9.9-10.3c1.5-7.8,2.4-15.7,2-23.7
	c0.8-13.4-1.5-26.4-3.5-39.6c-2.7-16.9-12.7-26.8-28.4-32.2c-8.7-3-17.5-5.6-26.5-7.1c-3.7-0.6-5.4-2.1-5.6-6.1
	c-0.4-7.7-2.5-15.1-5.8-22.1c-3.8-8-9.3-14.6-18.2-19c0.7,5.2,1.3,9.4,1.8,13.6v16.8c0,0.8-0.1,1.5-0.1,2.3
	c-1.6,2.6-1.3,6.2-4.5,8.4c-2.9-8.3-4.2-17.2-11.5-23c0.5,5.4,0,10.6,0.2,15.8l-0.3,2.1c-1.3,7.9-5.4,12-14,13
	c-8.8,1-17.3,4.4-25.5,8.2c-10.4,4.8-17.9,12-20.3,23.7c-1.2,5.9-2.9,11.6-3.7,17.5c-1.5,10.7-2.8,21.4-1.7,32.3
	c-0.3,6.4,0.4,12.8,1.5,19.1c-6.2,0.4-9.5,4.2-10.2,10c-1.1,9.4-0.4,18.7,3.7,27.5c3.4,7.3,8.6,12.2,17.2,12.2
	c-0.2,10.1,0,20.1,3.2,29.9c6,18.2,18.9,30,35.2,38.7c0.1,2.2,0.1,4.5,1.3,6.5c0,0.8-0.1,1.7-0.1,2.5c-2.8,2.7-41.7,21.6-53.5,29.5
	c-19,12.7-34.7,48.8-34.7,48.8C221,551.1,376,544,428.2,502.6C428.2,502.7,422.1,487.1,415.7,478.7z"/>
<g>
	<path class="supportman1" d="M43.4,444.6C124.5,585,304.2,633.1,444.6,551.9s188.5-260.8,107.3-401.2S291.1-37.8,150.7,43.4
		C10.3,124.5-37.8,304.2,43.4,444.6z M210,81.2c27.4,47.4,88.1,63.6,135.5,36.2c26-15,42.6-40.1,47.8-67.5
		c54.5,21.3,102.3,60.5,133.9,115s41.6,115.6,32.8,173.4c-26.3-9.2-56.3-7.3-82.3,7.7c-47.4,27.4-63.6,88.1-36.2,135.5
		c5.7,9.9,13,18.5,21.2,25.6c-10.3,8.2-21.3,15.7-33,22.5c-97.9,56.6-216.7,44.1-300.1-22.4c35.5-30.5,45.5-82.8,21.2-124.8
		s-74.6-59.5-118.7-43.9C16,233.2,64.5,124,162.4,67.5c11.7-6.8,23.8-12.6,36-17.4C200.4,60.7,204.2,71.3,210,81.2z"/>
	<path class="supportman1" d="M101.3,424.1c-5.2-1.4-8.3-6.8-6.9-12s6.8-8.3,12-6.9s8.3,6.8,6.9,12C111.9,422.3,106.5,425.4,101.3,424.1z"/>
	<path class="supportman1" d="M102.9,418.1c-1.9-0.5-3.1-2.5-2.6-4.4s2.5-3.1,4.4-2.6s3.1,2.5,2.6,4.4C106.8,417.5,104.8,418.6,102.9,418.1z
		 M101.3,424l1.6-5.9 M104.8,411.1l1.5-6 M488.1,416.5c-5.2-1.4-8.3-6.8-6.9-12s6.8-8.3,12-6.9s8.3,6.8,6.9,12
		S493.4,417.9,488.1,416.5z"/>
	<path class="supportman1" d="M489.7,410.5c-1.9-0.5-3.1-2.5-2.6-4.4s2.5-3.1,4.4-2.6s3.1,2.5,2.6,4.4C493.6,409.9,491.7,411,489.7,410.5z
		 M488.1,416.5l1.6-6 M491.6,403.5l1.6-5.9 M298.5,87.3c-5.2-1.4-8.3-6.8-6.9-12s6.8-8.3,12-6.9s8.3,6.8,6.9,12
		C309,85.6,303.7,88.7,298.5,87.3z"/>
	<path class="supportman1" d="M300.1,81.4c-1.9-0.5-3.1-2.5-2.6-4.4s2.5-3.1,4.4-2.6s3.1,2.5,2.6,4.4S302,81.9,300.1,81.4z M298.4,87.3
		l1.6-5.9 M301.9,74.3l1.6-5.9"/>
	<path id="svg-concept" class="supportman0" d="M551.9,150.7C470.7,10.3,291.1-37.8,150.7,43.4C10.3,124.5-37.8,304.2,43.4,444.6
		s260.8,188.5,401.2,107.3S633.1,291.1,551.9,150.7z"/>
	
		<animateTransform  accumulate="none" additive="replace" attributeName="transform" begin="0s" calcMode="linear" dur="5s" fill="remove" from="0 298 298" repeatCount="indefinite" restart="always" to="360 298 298" type="rotate">
		</animateTransform>
</g>
</svg>
