<?xml version="1.0" encoding="utf-8"?>
<!-- Generator: Adobe Illustrator 24.3.0, SVG Export Plug-In . SVG Version: 6.00 Build 0)  -->
<svg version="1.1" id="Layer_1" xmlns="http://www.w3.org/2000/svg" xmlns:xlink="http://www.w3.org/1999/xlink" x="0px" y="0px"
	 viewBox="0 0 631.3 460.5" style="enable-background:new 0 0 631.3 460.5;" xml:space="preserve">
<style type="text/css">
	.support0{fill:none;stroke:#EE5586;stroke-width:3;stroke-linecap:round;stroke-linejoin:round;stroke-miterlimit:10;}
	.support1{fill:#FFFFFF;stroke:#808080;stroke-linecap:round;stroke-linejoin:round;stroke-miterlimit:10;}
	.support2{fill:none;stroke:#EE5586;stroke-width:2;stroke-linecap:round;stroke-linejoin:round;stroke-miterlimit:10;}
	.support3{fill:none;stroke:#808080;stroke-linecap:round;stroke-linejoin:round;stroke-miterlimit:10;}
	.support4{fill:none;stroke:#EE5586;stroke-linecap:round;stroke-linejoin:round;stroke-miterlimit:10;}
	.support5{fill:#EE5586;}
</style>
<path id="svg-concept" class="support0" d="M569.1,81.3C499.3,0.7,380-21.7,284.3,33.6c-108.4,62.7-145.5,201.3-82.8,309.8
	s201.3,145.5,309.8,82.8c108.4-62.7,145.5-201.3,82.8-309.8"/>
<path class="support1" d="M537.5,339.1l39.4,30.7"/>
<path id="svg-concept" class="support2" d="M170.9,237.3v-4.7 M171,227.1v-4.7"/>
<g>
	<path class="support3" d="M389.8,60c-26.3,1.2-52.7,8.6-77.1,22.7c-47.9,27.7-77.2,75.1-83.6,126 M536.3,328.3
		c37.3-52.6,43-124.2,8.6-183.6c-30-52-83.5-82.1-139.3-84.7 M229,251.1c2.7,21.9,9.8,43.6,21.5,63.8c47,81.3,151,109.1,232.3,62.1
		c17.3-10,32.1-22.5,44.3-36.9 M397.7,67.3v49.2"/>
	<path class="support3" d="M390.3,60c0-4.1,3.3-7.5,7.4-7.5s7.4,3.3,7.5,7.4c0,4.1-3.3,7.4-7.4,7.4C393.6,67.4,390.3,64.1,390.3,60z"/>
	<path class="support3" d="M395,59.9c0-1.5,1.2-2.8,2.8-2.8c1.5,0,2.8,1.2,2.8,2.8s-1.2,2.8-2.8,2.8C396.2,62.7,395,61.5,395,59.9z"/>
	<g>
		<path class="support3" d="M527.2,340.2c-3.2-2.5-3.8-7.2-1.3-10.5c2.5-3.2,7.2-3.8,10.5-1.3c3.2,2.5,3.8,7.2,1.3,10.4
			C535.1,342.1,530.4,342.7,527.2,340.2z"/>
		<path class="support3" d="M530,336.5c-1.2-0.9-1.4-2.7-0.5-3.9c0.9-1.2,2.7-1.4,3.9-0.5s1.4,2.7,0.5,3.9
			C533,337.2,531.2,337.4,530,336.5z"/>
	</g>
		<animateTransform  accumulate="none" additive="replace" attributeName="transform" calcMode="linear" dur="10s" fill="remove" from="0 397 229" repeatCount="indefinite" restart="always" to="-360 397 230" type="rotate">
		</animateTransform>
</g>
<g>
	<path class="support3" d="M284.6,237.7c1.2,16.7,6,33.4,15,48.9c31.4,54.2,100.7,72.8,154.9,41.4c29.7-17.1,48.7-45.7,54.6-76.9"/>
	<path class="support3" d="M468.5,141.2c-35.4-28.2-85.9-33.6-127.5-9.5c-33.8,19.5-53.9,54.5-56.5,90.7"/>
	<path class="support3" d="M509.1,208.6c-2.3-12.2-6.7-24.1-13.2-35.5c-4.6-8-10.1-15.2-16.2-21.6"/>
	<path class="support3" d="M428.9,191.3l39.8-39.8 M348.1,229.9H292 M479.4,151.3c-2.8,3-7.5,3.3-10.5,0.5s-3.3-7.5-0.5-10.5
		s7.5-3.3,10.5-0.5S482.1,148.3,479.4,151.3z"/>
	<path class="support3" d="M475.9,148.2c-1,1.1-2.8,1.2-3.9,0.2s-1.2-2.8-0.2-3.9s2.8-1.2,3.9-0.2S476.9,147,475.9,148.2z"/>
	<g>
		<path class="support3" d="M284.5,222.4c4.1,0,7.4,3.3,7.5,7.4c0.1,4.2-3.2,7.5-7.4,7.5c-4.1,0-7.5-3.3-7.5-7.4
			C277.1,225.8,280.4,222.4,284.5,222.4"/>
		<path class="support3" d="M284.6,232.6c-1.5,0-2.8-1.2-2.8-2.8c0-1.5,1.2-2.8,2.8-2.8s2.8,1.2,2.8,2.7
			C287.4,231.4,286.1,232.6,284.6,232.6L284.6,232.6z"/>
	</g>
	
		<animateTransform  accumulate="none" additive="replace" attributeName="transform" calcMode="linear" dur="15s" fill="remove" from="0 397 229" repeatCount="indefinite" restart="always" to="360 397 230" type="rotate">
		</animateTransform>
</g>
<path class="support3" d="M140.9,63.2l-1,0.1H139c-1.2,0-2.3,1.1-2.3,2.3v10.6c0,0.5,0.1,0.9,0.4,1.3l0.7,0.5c0,0,0,3.3-0.4,4.4
	c-1.7,8.4-8.8,13.8-17.3,13.8c-9.8,0-17.7-7.2-17.7-18.4l0.5-0.4c0.5-0.4,0.3-0.6,0.3-1.2V65.5c0-1.2-1.1-2.3-2.3-2.3h-1.4"/>
<path id="svg-concept" class="support2" d="M99.5,63.2c0-11.4,9.3-21.3,20.7-21.3c11.1,0,20.7,9.3,20.7,21.3"/>
<path class="support3" d="M114.8,74.4c0,1.3-1,2.3-2.3,2.3s-2.3-1-2.3-2.3s1-2.3,2.3-2.3C113.7,72.2,114.8,73.2,114.8,74.4z M129.8,74.4
	c0,1.3-1,2.3-2.3,2.3s-2.3-1-2.3-2.3s1-2.3,2.3-2.3C128.8,72.2,129.8,73.2,129.8,74.4z"/>
<circle id="svg-concept" class="support2" cx="124" cy="87.9" r="3"/>
<path class="support3" d="M103.3,67.2l8.1-9.2c0.5-0.6,1.4-0.6,1.8,0c0,0,8.5,9.9,23.6,9.2"/>
<g>
	<path id="svg-concept" class="support2" d="M150.4,27.7c5.3,0,9.7,4.4,9.7,9.7v102.1c0,5.3-4.4,9.7-9.7,9.7H11.9
		c-5.3,0-9.7-4.4-9.7-9.7V37.4c0-5.3,4.4-9.7,9.7-9.7H150.4z"/>
	<path id="svg-concept" class="support4" d="M160.3,58.5h1.8c0.5,0,0.8,0.4,0.8,0.8v6.1c0,0.5-0.4,0.8-0.8,0.8h-1.8 M160.3,46.4h1.8
		c0.5,0,0.8,0.4,0.8,0.8v6.1c0,0.5-0.4,0.8-0.8,0.8h-1.8"/>
	<path class="support3" d="M58.3,102.1H18.9 M82,87.7H18.9 M48.8,73.2H18.9 M70.4,58.8H18.9 M82,44.4H18.9 M141.4,132.1H21.9
		c-1.6,0-3-1.3-3-3v-6.2c0-1.6,1.4-3,3-3h119.5c1.7,0,3,1.4,3,3v6.2C144.4,130.7,143.1,132.1,141.4,132.1z M170.9,232.6H82
		 M81.2,149.2v83.4"/>
	<circle id="svg-ico" class="support5" cx="81.1" cy="232.5" r="4.3"/>
</g>
<g>
	<path id="svg-concept" class="support2" d="M418.4,275c1.4-0.6,2.8-1.4,4.1-2.1c23.7-13.7,31.8-44,18.1-67.8
		c-13.7-23.7-44-31.8-67.8-18.1c-23.7,13.7-31.8,44-18.1,67.8c5.1,8.9,12.6,15.5,21.1,19.7"/>
	
		<animateTransform  accumulate="none" additive="replace" attributeName="transform" calcMode="linear" dur="12s" fill="remove" from="0 397 229" repeatCount="indefinite" restart="always" to="-360 397 230" type="rotate">
		</animateTransform>
</g>
<g>
	<path id="svg-ico" class="support5" d="M406.9,229.9c0,4.7-3.8,8.5-8.5,8.5s-8.5-3.8-8.5-8.5s3.8-8.5,8.5-8.5
		S406.9,225.2,406.9,229.9z"/>
	
		<animateMotion  accumulate="none" additive="replace" begin="0s" calcMode="paced" dur="2s" fill="remove" path="M0, 0 -15 0 -15 -15 -25 10 0 0" repeatCount="indefinite" restart="always">
		</animateMotion>
</g>
<path id="svg-concept" class="support2" d="M127.2,87.8h2.8c0,0,8.2-0.1,8.2-9.4 M103.3,76.2c0,1.2-1.1,2.3-2.3,2.3h-3
	c-1.2,0-2.3-1.1-2.3-2.3V65.5c0-1.2,1.1-2.3,2.3-2.3h3c1.2,0,2.3,1.1,2.3,2.3V76.2z M144.4,76.1c0,1.2-1.1,2.3-2.3,2.3h-3
	c-1.2,0-2.3-1.1-2.3-2.3V65.5c0-1.2,1.1-2.3,2.3-2.3h3c1.2,0,2.3,1.1,2.3,2.3V76.1z"/>
</svg>
