<?xml version="1.0" encoding="utf-8"?>
<!-- Generator: Adobe Illustrator 24.3.0, SVG Export Plug-In . SVG Version: 6.00 Build 0)  -->
<svg version="1.1" id="Layer_1" xmlns="http://www.w3.org/2000/svg" xmlns:xlink="http://www.w3.org/1999/xlink" x="0px" y="0px"
	 viewBox="0 0 1100.6 600.5" style="enable-background:new 0 0 1100.6 600.5;" xml:space="preserve">
<style type="text/css">
	.voice0{fill:none;stroke:#808080;stroke-linecap:round;stroke-linejoin:round;stroke-miterlimit:10;}
	.voice1{fill:none;stroke:#EE5586;stroke-width:2;stroke-linecap:round;stroke-linejoin:round;stroke-miterlimit:10;}
	.voice2{fill:none;stroke:#808080;stroke-miterlimit:10;}
	.voice3{fill:none;stroke:#EE5586;stroke-width:3;stroke-linecap:round;stroke-linejoin:round;stroke-miterlimit:10;}
	.voice4{fill:none;stroke:#EE5586;stroke-linecap:round;stroke-linejoin:round;stroke-miterlimit:10;}
	.voice5{fill:none;stroke:#808080;stroke-linecap:round;stroke-linejoin:round;stroke-miterlimit:10;stroke-dasharray:14;}
	.voice6{fill:none;stroke:#808080;stroke-width:2;stroke-linecap:round;stroke-linejoin:round;stroke-miterlimit:10;}
	.voice7{fill:none;stroke:#EE5586;stroke-width:4;stroke-linecap:round;stroke-linejoin:round;stroke-miterlimit:10;}
	.voice8{fill:none;stroke:#808080;stroke-width:3;stroke-linecap:round;stroke-linejoin:round;stroke-miterlimit:10;}
	.voice9{fill:#EE5586;}
</style>
<path class="voice0" d="M854.9,278.2c-2.3,0-4.1-1.8-4.1-4.1s1.8-4.1,4.1-4.1s4.1,1.8,4.1,4.1S857.3,278.2,854.9,278.2z M800.6,219.4
	c-2.3,0-4.1-1.8-4.1-4.1s1.8-4.1,4.1-4.1s4.1,1.8,4.1,4.1C804.7,217.7,802.8,219.4,800.6,219.4z"/>
<path id="svg-concept" class="voice1" d="M943.6,81.7c-2.3,0-4.1-1.8-4.1-4.1s1.8-4.1,4.1-4.1s4.1,1.8,4.1,4.1
	C947.7,79.8,945.9,81.7,943.6,81.7z M895.6,33.1c0,3-2.5,5.5-5.5,5.5s-5.5-2.5-5.5-5.5s2.5-5.5,5.5-5.5S895.6,30.1,895.6,33.1z
	 M864.5,123c0,3-2.5,5.5-5.5,5.5s-5.5-2.5-5.5-5.5s2.5-5.5,5.5-5.5C862.1,117.6,864.5,119.9,864.5,123z M802,370.4
	c0,3-2.5,5.5-5.5,5.5s-5.5-2.5-5.5-5.5s2.5-5.5,5.5-5.5C799.5,365.1,802,367.4,802,370.4z"/>
<path class="voice2" d="M68.2,239.7H40.6c-1.6,0-3,1.3-3,3V294c0,1.6,1.3,3,3,3h27.7c1.6,0,3-1.3,3-3v-51.4
	C71.2,241,69.9,239.7,68.2,239.7L68.2,239.7z"/>
<path class="voice2" d="M42.2,245.6h24.3v41.5H42.2V245.6z"/>
<path class="voice2" d="M50.2,251.7l-1.7,1.7 M57.4,251.7l-9.8,9.8"/>
<circle class="voice2" cx="149.2" cy="100.6" r="35.4"/>
<circle id="svg-concept" class="voice3" cx="54.4" cy="267.4" r="49.2"/>
<circle class="voice0" cx="149.1" cy="436.9" r="35.4"/>
<path class="voice0" d="M493.8,65.2c0,0,4.3,53.9,6,68.7c1.7,14.7,17.8,32.4,45,48.5c21.3,11.9,21.9,24.8,5.4,35.1
	c-26.2,18.4,7,33.5,7.6,44.3c0.5,10.9-45.3,13.2-7.8,20.1c27.4,5.4-9.7,24.2,0.3,46.7c6.3,14.2,2.6,25.5-28.2,23.1
	c-82.2-6.6-110.7,22.5-119.7,61.9 M936.6,362.8c15.9,9.9,34.5,15.6,54.6,15.6c57.2,0,103.7-46.7,103.7-104.3
	s-46.3-104.3-103.7-104.3c-15.6,0-30.4,3.5-43.6,9.6"/>
<path class="voice2" d="M1021.5,174.3c0,0-2.1,26.5-3,33.7s-8.7,16-22,23.9c-10.4,5.9-10.7,12.1-2.6,17.2c12.9,9-3.5,16.5-3.7,21.9
	c-0.2,5.4,22.2,6.5,3.9,9.9c-13.4,2.6,4.7,12-0.1,23c-3,7-1.2,12.5,13.7,11.4c40.2-3.2,54.1,11.1,58.6,30.5 M132.7,87h33v22h-33V87z
	 M129.9,114.3h38.5 M149.4,401.5c0,0-1.9,2.7-4.3,3.9c-2.3,1.3,0,3.1,0,3.1l-3.6,3.6l-4.8,2.7l-5.6-0.6l0.6-3.6l3.1-1.9l0.5-2.7
	l-0.5-1.6 M125.2,410.8v9.2l-1,0.6l-1,9.7c0,0-3.7,1.5-4.2,1.5l-5.1,2.1 M114.6,444.6l5-2.1l3.7,2.9l-0.6,1l3.7,4.2h1l3.7,2.1
	l1.6,0.8c0,0-0.2,1,0,1.5s-1.3,2.5-1.3,2.5v2.7l2.3,2.7l1,1l4.2,2.1l4.3,5.7 M167.8,406.8c-0.5-0.2-4.6,5.5-4.6,5.5l1.3,3.1
	l-0.8,0.6l-2.9,1.5l-3.6,1.9c0,0-1.3,2.9-2.3,3.7c-1,0.8-3.4,2.7-3.4,2.7l-2.7,6.5l-3.6,7.1l0.2,3.7l3.1,3.7l3.7-2.1l2.7,1.3
	l0.2,4.4l2.1,2.1c0,0-0.5,1.3-0.6,1.6l-1.3,2.7l-1.3,0.6l0.8,3.7l3.4,3.4c0,0,2.9-1.9,3.1-2.3c0.2-0.2,2.3-5,2.3-5l4.8-4.8l2.7-3.7
	l2.1-4.8l-1-2.9l-1.5-1.6l1-1.6c0,0,2.5-2.3,2.7-1.6c0.2,0.6,1.3,4.8,1.3,4.8l3.6-1l0.2-1l4.8-1.1"/>
<path id="svg-concept" class="voice1" d="M1046.6,274.5c-0.5,1.6,1.1,6.2,6.5,6.2c6.2,0,22.2-15.5,22-26.2
	c-0.2-8.6-6.4-12.6-13.4-12.6c-7-0.1-12.9,4.6-12.4,10.1"/>
<path id="svg-concept" class="voice4" d="M1063.7,256.5c1.4,2.7,2.9,7-3.4,11.4 M1057.3,260.6c-5.4-4-2.1-11.1,4.5-11.4
	c3.5-0.1,6.4,1.9,7.6,4.9"/>
<path id="svg-concept" class="voice3" d="M103.6,267.4h240.5"/>
<path class="voice5" d="M184.6,141.1l125.6,107.4 M304.1,287.8L184.6,395.7"/>
<path class="voice0" d="M913.2,278.1c-2.1,0-3.7-1.6-3.7-3.7s1.6-3.7,3.7-3.7s3.7,1.6,3.7,3.7C917,276.4,915.3,278.1,913.2,278.1z"/>
<path class="voice0" d="M947.3,217.4c-2.1,0-3.7-1.6-3.7-3.7s1.6-3.7,3.7-3.7s3.7,1.6,3.7,3.7C951.1,215.8,949.3,217.4,947.3,217.4z"/>
<path class="voice6" d="M909.5,151.4c-2.1,0-3.7-1.6-3.7-3.7s1.6-3.7,3.7-3.7s3.7,1.6,3.7,3.7C913.1,149.7,911.5,151.4,909.5,151.4z"/>
<path id="svg-concept" class="voice1" d="M939.6,328.7c0,2.7-2.2,5-5,5c-2.7,0-5-2.2-5-5c0-2.7,2.2-5,5-5
	C937.3,323.7,939.6,326,939.6,328.7z M977.7,128c0,2.7-2.2,5-5,5s-5-2.2-5-5c0-2.7,2.2-5,5-5S977.7,125.1,977.7,128z"/>
<path id="svg-concept" class="voice4" d="M867.9,209.9c0,2.7-2.2,5-5,5s-5-2.2-5-5s2.2-5,5-5C865.6,205,867.9,207.2,867.9,209.9z"/>
<path class="voice0" d="M15.6,595.4v-14.3 M31.9,595.4V551 M48.3,595.4v-34.1 M64.7,595.4V523 M81.1,595.4v-7.1"/>
<path id="svg-concept" class="voice1" d="M97.4,595.4v-36.2 M113.8,595.4V523"/>
<path class="voice0" d="M130.2,595.4v-51.2 M146.5,595.4v-61.5 M162.8,595.4v-47.8 M179.2,595.4v-30.7"/>
<path id="svg-concept" class="voice1" d="M195.6,595.4v-14.3 M212,595.4v-51.9 M228.4,595.4v-61.5"/>
<path class="voice0" d="M244.7,595.4v-30.7 M261.1,594.8V523 M277.5,595.4v-51.9 M293.9,595.4v-36.2 M310.2,595.4V523 M326.6,595.4
	v-15.3 M342.9,595.4v-25.9 M359.3,595.4V514 M375.6,595.4v-59.5"/>
<path id="svg-concept" class="voice1" d="M392,595.4v-41 M408.4,595.4V523 M424.8,595.4v-59.5 M441.1,595.4v-29.7"/>
<path class="voice0" d="M457.5,595.4v-41 M473.9,595.4v-25.9 M490.3,595.4v-61.5 M506.6,595.4v-78.6 M522.9,595.4v-59.5 M539.3,595.4
	v-34.1"/>
<path id="svg-concept" class="voice1" d="M555.7,595.4V523"/>
<path class="voice0" d="M572.1,595.4v-51.2 M588.4,595.4v-25.9 M604.4,595.4v-36.2 M620.7,595.4v-51.9 M637.1,595.4v-15.3 M653.5,595.4
	v-25.9 M669.9,595.4V514 M686.2,595.4v-59.5"/>
<path id="svg-concept" class="voice1" d="M702.6,595.4v-41 M719,595.4V523 M735.4,595.4v-92.3 M751.7,595.4v-29.7"/>
<path class="voice0" d="M768,595.4v-41 M784.4,595.4v-25.9 M800.8,595.4v-61.5 M817.2,595.4v-78.6 M833.5,595.4v-59.5 M849.9,595.4
	v-34.1"/>
<path id="svg-concept" class="voice1" d="M866.3,595.4V523"/>
<path class="voice0" d="M882.7,595.4v-51.2 M899,595.4v-25.9 M899,595.4V514 M915.3,595.4v-59.5"/>
<path id="svg-concept" class="voice1" d="M931.7,595.4v-41 M948,595.4V523 M964.4,595.4v-92.3 M980.8,595.4v-29.7"/>
<path class="voice0" d="M997.1,595.4v-41 M1013.5,595.4v-25.9 M1029.9,595.4v-61.5 M1046.3,595.4v-78.6 M1062.6,595.4v-59.5
	 M1079,595.4v-34.1"/>
<path id="svg-concept" class="voice1" d="M1095.4,595.4v-41"/>
<path id="svg-concept" class="voice7" d="M667.4,447.9C635,468,596.8,479.6,556,479.6c-117,0-211.9-94.9-211.9-211.9
	S438.9,55.9,555.9,55.9c31.9,0,62.1,7,89.1,19.7"/>
<g>
	<path class="voice8" d="M679.6,95.8c53.4,38.4,88.1,101.2,88.1,172c0,58-23.3,110.5-61.1,148.9"/>
		<animate  accumulate="none" additive="replace" attributeName="opacity" begin="1s" calcMode="linear" dur="2s" fill="remove" repeatCount="indefinite" restart="always" values="0;3;0">
		</animate>
</g>
<g>
	<path class="voice8" d="M640.1,137.2c47.1,25.6,79.1,75.5,79.1,132.9c0,43.8-18.6,83.1-48.3,110.8"/>
		<animate  accumulate="none" additive="replace" attributeName="opacity" begin="2s" calcMode="linear" dur="2s" fill="remove" repeatCount="indefinite" restart="always" values="0;3;0">
		</animate>
</g>
<g>
	<path class="voice6" d="M612.1,177.1c31.5,19,52.5,53.5,52.5,93.1c0,33.7-15.4,63.8-39.4,83.8"/>
		<animate  accumulate="none" additive="replace" attributeName="opacity" begin="3s" calcMode="linear" dur="2s" fill="remove" repeatCount="indefinite" restart="always" values="0;3;0">
		</animate>
</g>
<g>
	<path id="svg-ico" class="voice9" d="M341.2,267.8c0,3.3-2.6,6-6,6c-3.3,0-6-2.6-6-6s2.6-6,6-6
		C338.5,261.8,341.2,264.4,341.2,267.8z"/>
		<animateMotion  accumulate="none" additive="replace" begin="0s" calcMode="paced" dur="3s" fill="remove" path="M0, 0 -225 0 0 0" repeatCount="indefinite" restart="always">
		</animateMotion>
</g>
</svg>
