<?xml version="1.0" encoding="utf-8"?>
<!-- Generator: Adobe Illustrator 24.3.0, SVG Export Plug-In . SVG Version: 6.00 Build 0)  -->
<svg version="1.1" id="Layer_1" xmlns="http://www.w3.org/2000/svg" xmlns:xlink="http://www.w3.org/1999/xlink" x="0px" y="0px"
	 viewBox="0 0 1100.6 600.5" style="enable-background:new 0 0 1100.6 600.5;" xml:space="preserve">
<style type="text/css">
	.voip0{fill:none;stroke:#808080;stroke-linecap:round;stroke-linejoin:round;stroke-miterlimit:10;}
	.voip1{fill:none;stroke:#EE5586;stroke-linecap:round;stroke-linejoin:round;stroke-miterlimit:10;}
	.voip2{fill:none;stroke:#808080;stroke-width:5;stroke-linecap:round;stroke-linejoin:round;stroke-miterlimit:10;}
	.voip3{fill:none;stroke:#808080;stroke-width:2;stroke-linecap:round;stroke-linejoin:round;stroke-miterlimit:10;}
	.voip4{fill:none;stroke:#EE5586;stroke-width:4;stroke-linecap:round;stroke-linejoin:round;stroke-miterlimit:10;}
	.voip5{fill:none;stroke:#EE5586;stroke-width:2;stroke-linecap:round;stroke-linejoin:round;stroke-miterlimit:10;}
	.voip6{fill:none;stroke:#808080;stroke-width:3;stroke-linecap:round;stroke-linejoin:round;stroke-miterlimit:10;}
	.voip7{fill:none;stroke:#EE5586;stroke-width:3;stroke-linecap:round;stroke-linejoin:round;stroke-miterlimit:10;}
	.voip8{fill:#EE5586;}
</style>
<path class="voip0" d="M292.2,522.3c0,2.7-2.2,4.9-4.9,4.9s-4.9-2.2-4.9-4.9s2.2-4.9,4.9-4.9C289.9,517.4,292.2,519.6,292.2,522.3z
	 M272.1,372.1c0,2.7-2.2,4.9-4.9,4.9s-4.9-2.2-4.9-4.9s2.2-4.9,4.9-4.9C269.9,367.3,272.1,369.4,272.1,372.1z M247.1,361.9
	c0,2.7-2.2,4.9-4.9,4.9s-4.9-2.2-4.9-4.9s2.2-4.9,4.9-4.9S247.1,359.2,247.1,361.9z M217,340.9c0,2.7-2.2,4.9-4.9,4.9
	s-4.9-2.2-4.9-4.9s2.2-4.9,4.9-4.9S217,338.2,217,340.9z M191.8,331.8c0,2.7-2.2,4.9-4.9,4.9s-4.9-2.2-4.9-4.9s2.2-4.9,4.9-4.9
	S191.8,329.1,191.8,331.8z M180.2,306.3c0,2.7-2.2,4.9-4.9,4.9s-4.9-2.2-4.9-4.9s2.2-4.9,4.9-4.9S180.2,303.6,180.2,306.3z
	 M207.2,309c0,2.7-2.2,4.9-4.9,4.9s-4.9-2.2-4.9-4.9s2.2-4.9,4.9-4.9S207.2,306.3,207.2,309z M226.9,293.3c0,2.7-2.2,4.9-4.9,4.9
	s-4.9-2.2-4.9-4.9s2.2-4.9,4.9-4.9S226.9,290.6,226.9,293.3z M260.9,308.4c0,2.7-2.2,4.9-4.9,4.9s-4.9-2.2-4.9-4.9s2.2-4.9,4.9-4.9
	C258.7,303.6,260.9,305.7,260.9,308.4z M254.7,323.8c0,2.7-2.2,4.9-4.9,4.9s-4.9-2.2-4.9-4.9s2.2-4.9,4.9-4.9
	C252.5,319,254.7,321.1,254.7,323.8z M273.6,329.5c0,2.7-2.2,4.9-4.9,4.9s-4.9-2.2-4.9-4.9s2.2-4.9,4.9-4.9
	C271.4,324.7,273.6,326.8,273.6,329.5z M256,289.8c0,2.7-2.2,4.9-4.9,4.9s-4.9-2.2-4.9-4.9s2.2-4.9,4.9-4.9
	C253.9,285,256,287.1,256,289.8z M233,258c0,2.7-2.2,4.9-4.9,4.9s-4.9-2.2-4.9-4.9s2.2-4.9,4.9-4.9S233,255.3,233,258z M260.9,246
	c0,2.7-2.2,4.9-4.9,4.9s-4.9-2.2-4.9-4.9s2.2-4.9,4.9-4.9C258.6,241.1,260.9,243.3,260.9,246z M278.1,239.2c0,2.7-2.2,4.9-4.9,4.9
	s-4.9-2.2-4.9-4.9s2.2-4.9,4.9-4.9S278.1,236.5,278.1,239.2z M203.9,230.8c0,2.7-2.2,4.9-4.9,4.9s-4.9-2.2-4.9-4.9s2.2-4.9,4.9-4.9
	C201.7,226,203.9,228.1,203.9,230.8z M206.4,196.4c0,2.7-2.2,4.9-4.9,4.9s-4.9-2.2-4.9-4.9s2.2-4.9,4.9-4.9
	C204.3,191.5,206.4,193.7,206.4,196.4z M221,169c0,2.7-2.2,4.9-4.9,4.9s-4.9-2.2-4.9-4.9s2.2-4.9,4.9-4.9S221,166.3,221,169z
	 M236,140.7c0,2.7-2.2,4.9-4.9,4.9s-4.9-2.2-4.9-4.9s2.2-4.9,4.9-4.9C233.9,135.8,236,138,236,140.7z M206.2,133.4
	c0,2.7-2.2,4.9-4.9,4.9s-4.9-2.2-4.9-4.9s2.2-4.9,4.9-4.9C204,128.6,206.2,130.7,206.2,133.4z M181.5,120.4c0,2.7-2.2,4.9-4.9,4.9
	s-4.9-2.2-4.9-4.9s2.2-4.9,4.9-4.9S181.5,117.7,181.5,120.4z M140.4,93c0,2.7-2.2,4.9-4.9,4.9s-4.9-2.2-4.9-4.9s2.2-4.9,4.9-4.9
	S140.4,90.3,140.4,93z M135,116.4c0,2.7-2.2,4.9-4.9,4.9s-4.9-2.2-4.9-4.9s2.2-4.9,4.9-4.9C132.8,111.5,135,113.7,135,116.4z
	 M159.7,144.8c0,2.7-2.2,4.9-4.9,4.9s-4.9-2.2-4.9-4.9s2.2-4.9,4.9-4.9C157.6,139.9,159.7,142.1,159.7,144.8z M175.5,171.2
	c0,2.7-2.2,4.9-4.9,4.9s-4.9-2.2-4.9-4.9s2.2-4.9,4.9-4.9S175.5,168.5,175.5,171.2z M178.3,202.9c0,2.7-2.2,4.9-4.9,4.9
	s-4.9-2.2-4.9-4.9s2.2-4.9,4.9-4.9S178.3,200.2,178.3,202.9z M277,274.6c0,2.7-2.2,4.9-4.9,4.9s-4.9-2.2-4.9-4.9s2.2-4.9,4.9-4.9
	C274.9,269.8,277,271.9,277,274.6z M305.8,162.7c0,2.7-2.2,4.9-4.9,4.9s-4.9-2.2-4.9-4.9s2.2-4.9,4.9-4.9S305.8,160,305.8,162.7z
	 M309.9,144.1c0,2.7-2.2,4.9-4.9,4.9s-4.9-2.2-4.9-4.9s2.2-4.9,4.9-4.9C307.9,139.3,309.9,141.4,309.9,144.1z M328.3,133.6
	c0,2.7-2.2,4.9-4.9,4.9s-4.9-2.2-4.9-4.9s2.2-4.9,4.9-4.9C326,128.8,328.3,130.9,328.3,133.6z M535.9,67.3c0,2.7-2.2,4.9-4.9,4.9
	s-4.9-2.2-4.9-4.9s2.2-4.9,4.9-4.9S535.9,64.6,535.9,67.3z M591.6,44.9c0,2.7-2.2,4.9-4.9,4.9s-4.9-2.2-4.9-4.9s2.2-4.9,4.9-4.9
	S591.6,42.2,591.6,44.9z M611.9,37.8c0,2.7-2.2,4.9-4.9,4.9s-4.9-2.2-4.9-4.9s2.2-4.9,4.9-4.9S611.9,35.1,611.9,37.8z M678.9,20.3
	c0,2.7-2.2,4.9-4.9,4.9s-4.9-2.2-4.9-4.9s2.2-4.9,4.9-4.9S678.9,17.6,678.9,20.3z M710.9,35.2c0,2.7-2.2,4.9-4.9,4.9
	s-4.9-2.2-4.9-4.9s2.2-4.9,4.9-4.9S710.9,32.5,710.9,35.2z M805.4,34.3c0,2.7-2.2,4.9-4.9,4.9s-4.9-2.2-4.9-4.9s2.2-4.9,4.9-4.9
	S805.4,31.6,805.4,34.3z M828.1,29.4c0,2.7-2.2,4.9-4.9,4.9s-4.9-2.2-4.9-4.9s2.2-4.9,4.9-4.9C825.9,24.6,828.1,26.7,828.1,29.4z
	 M821.6,46.6c0,2.7-2.2,4.9-4.9,4.9s-4.9-2.2-4.9-4.9s2.2-4.9,4.9-4.9C819.4,41.8,821.6,43.9,821.6,46.6z M693.6,32.9
	c0,2.7-2.2,4.9-4.9,4.9s-4.9-2.2-4.9-4.9s2.2-4.9,4.9-4.9C691.4,28.1,693.6,30.2,693.6,32.9z M460.2,64.1c0,2.7-2.2,4.9-4.9,4.9
	s-4.9-2.2-4.9-4.9s2.2-4.9,4.9-4.9S460.2,61.4,460.2,64.1z M475.8,41.4c0,2.7-2.2,4.9-4.9,4.9s-4.9-2.2-4.9-4.9s2.2-4.9,4.9-4.9
	C473.6,36.6,475.8,38.7,475.8,41.4z M455.9,46.3c0,2.7-2.2,4.9-4.9,4.9s-4.9-2.2-4.9-4.9s2.2-4.9,4.9-4.9
	C453.8,41.4,455.9,43.6,455.9,46.3z M458,25.6c0,2.7-2.2,4.9-4.9,4.9s-4.9-2.2-4.9-4.9s2.2-4.9,4.9-4.9
	C455.9,20.7,458,22.9,458,25.6z M442.7,15.8c0,2.7-2.2,4.9-4.9,4.9s-4.9-2.2-4.9-4.9s2.2-4.9,4.9-4.9S442.7,13.1,442.7,15.8z
	 M397.4,30.8c0,2.7-2.2,4.9-4.9,4.9s-4.9-2.2-4.9-4.9s2.2-4.9,4.9-4.9C395.3,25.9,397.4,28.1,397.4,30.8z M378.3,48.6
	c0,2.7-2.2,4.9-4.9,4.9s-4.9-2.2-4.9-4.9s2.2-4.9,4.9-4.9C376,43.8,378.3,45.9,378.3,48.6z M358.8,56.8c0,2.7-2.2,4.9-4.9,4.9
	s-4.9-2.2-4.9-4.9s2.2-4.9,4.9-4.9S358.8,54,358.8,56.8z M360.2,72.2c0,2.7-2.2,4.9-4.9,4.9s-4.9-2.2-4.9-4.9s2.2-4.9,4.9-4.9
	S360.2,69.5,360.2,72.2z M379.3,77.3c0,2.7-2.2,4.9-4.9,4.9s-4.9-2.2-4.9-4.9s2.2-4.9,4.9-4.9S379.3,74.6,379.3,77.3z M368.8,108.2
	c1-0.8,2.2-1.4,3.3-2c0.1-0.1,0.3-0.2,0.4-0.4c0.7-0.8,1.5-1.3,2.4-1.7c-0.9-1.3-2.4-2.2-4.1-2.2c-2.7,0-4.9,2.2-4.9,4.9
	c0,1.2,0.4,2.2,1.1,3.1C367.5,109.2,368.1,108.7,368.8,108.2L368.8,108.2z M410.3,84.4c0,2.7-2.2,4.9-4.9,4.9s-4.9-2.2-4.9-4.9
	s2.2-4.9,4.9-4.9S410.3,81.7,410.3,84.4z M421.9,57.7c0,2.7-2.2,4.9-4.9,4.9s-4.9-2.2-4.9-4.9s2.2-4.9,4.9-4.9
	C419.8,52.8,421.9,55,421.9,57.7z M339.4,118.1c0,2.7-2.2,4.9-4.9,4.9s-4.9-2.2-4.9-4.9s2.2-4.9,4.9-4.9
	C337.3,113.2,339.4,115.4,339.4,118.1z M319.6,112.5c0,2.7-2.2,4.9-4.9,4.9s-4.9-2.2-4.9-4.9s2.2-4.9,4.9-4.9
	C317.4,107.7,319.6,109.8,319.6,112.5z M323.9,91c0,2.7-2.2,4.9-4.9,4.9s-4.9-2.2-4.9-4.9s2.2-4.9,4.9-4.9S323.9,88.3,323.9,91z
	 M307.8,86c0,2.7-2.2,4.9-4.9,4.9S298,88.7,298,86s2.2-4.9,4.9-4.9S307.8,83.3,307.8,86z M305.2,69c0,2.7-2.2,4.9-4.9,4.9
	s-4.9-2.2-4.9-4.9s2.2-4.9,4.9-4.9S305.2,66.3,305.2,69z M288.4,60c0,2.7-2.2,4.9-4.9,4.9s-4.9-2.2-4.9-4.9s2.2-4.9,4.9-4.9
	S288.4,57.3,288.4,60z M307.8,41.2c0,2.7-2.2,4.9-4.9,4.9s-4.9-2.2-4.9-4.9s2.2-4.9,4.9-4.9S307.8,38.5,307.8,41.2z M324.2,32.2
	c0,2.7-2.2,4.9-4.9,4.9s-4.9-2.2-4.9-4.9s2.2-4.9,4.9-4.9C321.9,27.4,324.2,29.5,324.2,32.2z M317.9,56.8c0,2.7-2.2,4.9-4.9,4.9
	s-4.9-2.2-4.9-4.9s2.2-4.9,4.9-4.9C315.9,51.9,317.9,54,317.9,56.8z M296.8,32.9c0,2.7-2.2,4.9-4.9,4.9s-4.9-2.2-4.9-4.9
	s2.2-4.9,4.9-4.9S296.8,30.2,296.8,32.9z M310.4,24c0,2.7-2.2,4.9-4.9,4.9s-4.9-2.2-4.9-4.9s2.2-4.9,4.9-4.9
	C308.2,19.2,310.4,21.3,310.4,24z M278.7,30.1c0,2.7-2.2,4.9-4.9,4.9s-4.9-2.2-4.9-4.9s2.2-4.9,4.9-4.9S278.7,27.4,278.7,30.1z"/>
<path id="svg-concept" class="voip1" d="M271,37.8c0,2.7-2.2,4.9-4.9,4.9s-4.9-2.2-4.9-4.9s2.2-4.9,4.9-4.9
	C268.9,32.9,271,35.1,271,37.8z M284.4,44.1c0,2.7-2.2,4.9-4.9,4.9s-4.9-2.2-4.9-4.9s2.2-4.9,4.9-4.9S284.4,41.4,284.4,44.1z"/>
<path class="voip0" d="M268.7,56.8c0,2.7-2.2,4.9-4.9,4.9s-4.9-2.2-4.9-4.9s2.2-4.9,4.9-4.9C266.6,51.9,268.7,54,268.7,56.8z
	 M254.6,52.9c0,2.7-2.2,4.9-4.9,4.9s-4.9-2.2-4.9-4.9s2.2-4.9,4.9-4.9C252.4,48.1,254.6,50.2,254.6,52.9z M252.9,37.8
	c0,2.7-2.2,4.9-4.9,4.9s-4.9-2.2-4.9-4.9s2.2-4.9,4.9-4.9S252.9,35.1,252.9,37.8z M290.8,81.5c0,2.7-2.2,4.9-4.9,4.9
	s-4.9-2.2-4.9-4.9s2.2-4.9,4.9-4.9S290.8,78.8,290.8,81.5z M278.7,101.6c0,2.7-2.2,4.9-4.9,4.9s-4.9-2.2-4.9-4.9s2.2-4.9,4.9-4.9
	C276.5,96.8,278.7,98.9,278.7,101.6z M275.9,84.5c0,2.7-2.2,4.9-4.9,4.9s-4.9-2.2-4.9-4.9s2.2-4.9,4.9-4.9S275.9,81.8,275.9,84.5z
	 M261.4,74.8c0,2.7-2.2,4.9-4.9,4.9s-4.9-2.2-4.9-4.9s2.2-4.9,4.9-4.9C259.2,69.9,261.4,72,261.4,74.8z M255.7,102.9
	c0,2.7-2.2,4.9-4.9,4.9s-4.9-2.2-4.9-4.9s2.2-4.9,4.9-4.9C253.5,98.1,255.7,100.2,255.7,102.9z M245.4,90.5c0,2.7-2.2,4.9-4.9,4.9
	s-4.9-2.2-4.9-4.9s2.2-4.9,4.9-4.9S245.4,87.7,245.4,90.5z M225.4,95.9c0,2.7-2.2,4.9-4.9,4.9s-4.9-2.2-4.9-4.9s2.2-4.9,4.9-4.9
	S225.4,93.2,225.4,95.9z M228.3,81.5c0,2.7-2.2,4.9-4.9,4.9s-4.9-2.2-4.9-4.9s2.2-4.9,4.9-4.9S228.3,78.8,228.3,81.5z M242.2,75.7
	c0,2.7-2.2,4.9-4.9,4.9s-4.9-2.2-4.9-4.9s2.2-4.9,4.9-4.9S242.2,73,242.2,75.7z M231.5,63c0,2.7-2.2,4.9-4.9,4.9s-4.9-2.2-4.9-4.9
	s2.2-4.9,4.9-4.9S231.5,60.3,231.5,63z M215,75.7c0,2.7-2.2,4.9-4.9,4.9s-4.9-2.2-4.9-4.9s2.2-4.9,4.9-4.9S215,73,215,75.7z
	 M323.9,74.8c0,2.7-2.2,4.9-4.9,4.9s-4.9-2.2-4.9-4.9s2.2-4.9,4.9-4.9S323.9,72.1,323.9,74.8z M335.7,61.9c0,2.7-2.2,4.9-4.9,4.9
	s-4.9-2.2-4.9-4.9s2.2-4.9,4.9-4.9S335.7,59.2,335.7,61.9z M391.3,20.3c0,2.7-2.2,4.9-4.9,4.9s-4.9-2.2-4.9-4.9s2.2-4.9,4.9-4.9
	S391.3,17.6,391.3,20.3z M340.3,14.4c0,2.7-2.2,4.9-4.9,4.9s-4.9-2.2-4.9-4.9s2.2-4.9,4.9-4.9S340.3,11.7,340.3,14.4z M369.9,8.4
	c0,2.7-2.2,4.9-4.9,4.9s-4.9-2.2-4.9-4.9s2.2-4.9,4.9-4.9C367.7,3.6,369.9,5.7,369.9,8.4z M297.4,102.9c0,2.7-2.2,4.9-4.9,4.9
	s-4.9-2.2-4.9-4.9s2.2-4.9,4.9-4.9C295.3,98.1,297.4,100.2,297.4,102.9z M290.9,199.3c0,2.7-2.2,4.9-4.9,4.9s-4.9-2.2-4.9-4.9
	s2.2-4.9,4.9-4.9S290.9,196.6,290.9,199.3z M279.9,218.1c0,2.7-2.2,4.9-4.9,4.9s-4.9-2.2-4.9-4.9s2.2-4.9,4.9-4.9
	C277.7,213.3,279.9,215.4,279.9,218.1z M272.1,198.6c0,2.7-2.2,4.9-4.9,4.9s-4.9-2.2-4.9-4.9s2.2-4.9,4.9-4.9
	C269.9,193.8,272.1,195.9,272.1,198.6z M265,125.9c0,2.7-2.2,4.9-4.9,4.9s-4.9-2.2-4.9-4.9s2.2-4.9,4.9-4.9
	C262.9,121,265,123.2,265,125.9z M242.2,116.4c0,2.7-2.2,4.9-4.9,4.9s-4.9-2.2-4.9-4.9s2.2-4.9,4.9-4.9S242.2,113.7,242.2,116.4z
	 M222.9,115.2c0,2.7-2.2,4.9-4.9,4.9s-4.9-2.2-4.9-4.9s2.2-4.9,4.9-4.9C220.8,110.3,222.9,112.5,222.9,115.2z M195.2,88.5
	c0,2.7-2.2,4.9-4.9,4.9s-4.9-2.2-4.9-4.9s2.2-4.9,4.9-4.9S195.2,85.8,195.2,88.5z M168.5,92.3c0,2.7-2.2,4.9-4.9,4.9
	s-4.9-2.2-4.9-4.9s2.2-4.9,4.9-4.9S168.5,89.6,168.5,92.3z M133.2,58.1c0,2.7-2.2,4.9-4.9,4.9s-4.9-2.2-4.9-4.9s2.2-4.9,4.9-4.9
	C131,53.3,133.2,55.4,133.2,58.1z M99.9,67.4c0,2.7-2.2,4.9-4.9,4.9s-4.9-2.2-4.9-4.9s2.2-4.9,4.9-4.9S99.9,64.7,99.9,67.4z
	 M69.7,118.9c0,2.7-2.2,4.9-4.9,4.9s-4.9-2.2-4.9-4.9s2.2-4.9,4.9-4.9C67.5,114,69.7,116.2,69.7,118.9z M83.5,142.2
	c0,2.7-2.2,4.9-4.9,4.9s-4.9-2.2-4.9-4.9s2.2-4.9,4.9-4.9S83.5,139.5,83.5,142.2z M47.5,161.5c0,2.7-2.2,4.9-4.9,4.9
	s-4.9-2.2-4.9-4.9s2.2-4.9,4.9-4.9C45.3,156.7,47.5,158.8,47.5,161.5z M107.5,125c0,2.7-2.2,4.9-4.9,4.9s-4.9-2.2-4.9-4.9
	s2.2-4.9,4.9-4.9S107.5,122.3,107.5,125z M132.9,145.6c0,2.7-2.2,4.9-4.9,4.9s-4.9-2.2-4.9-4.9s2.2-4.9,4.9-4.9
	C130.8,140.7,132.9,142.9,132.9,145.6z M143.5,184.4c0,2.7-2.2,4.9-4.9,4.9s-4.9-2.2-4.9-4.9s2.2-4.9,4.9-4.9
	S143.5,181.7,143.5,184.4z M154.3,214.9c0,2.7-2.2,4.9-4.9,4.9s-4.9-2.2-4.9-4.9s2.2-4.9,4.9-4.9S154.3,212.1,154.3,214.9z
	 M145.1,244.8c0,2.7-2.2,4.9-4.9,4.9s-4.9-2.2-4.9-4.9s2.2-4.9,4.9-4.9S145.1,242.1,145.1,244.8z M156.3,279.5
	c0,2.7-2.2,4.9-4.9,4.9s-4.9-2.2-4.9-4.9s2.2-4.9,4.9-4.9C154.2,274.6,156.3,276.8,156.3,279.5z M168.4,316c0,2.7-2.2,4.9-4.9,4.9
	s-4.9-2.2-4.9-4.9s2.2-4.9,4.9-4.9S168.4,313.3,168.4,316z M236.7,333.6c0,2.7-2.2,4.9-4.9,4.9s-4.9-2.2-4.9-4.9s2.2-4.9,4.9-4.9
	S236.7,330.9,236.7,333.6z M261.4,411c0,2.7-2.2,4.9-4.9,4.9s-4.9-2.2-4.9-4.9s2.2-4.9,4.9-4.9C259.2,406.1,261.4,408.3,261.4,411z
	 M318.6,435.2c0,2.7-2.2,4.9-4.9,4.9s-4.9-2.2-4.9-4.9s2.2-4.9,4.9-4.9S318.6,432.5,318.6,435.2z M338.4,462c0,2.7-2.2,4.9-4.9,4.9
	s-4.9-2.2-4.9-4.9s2.2-4.9,4.9-4.9C336.3,457.1,338.4,459.3,338.4,462z M322.9,484.5c0,2.7-2.2,4.9-4.9,4.9s-4.9-2.2-4.9-4.9
	s2.2-4.9,4.9-4.9S322.9,481.8,322.9,484.5z M309.6,586.2l-19.7-24.4 M308,555.9l4.4-19.2 M309,530l-17.2-5.8 M316,527.6l8.7-8.4
	 M323.9,512.1l-4.5-22.9 M330.9,511.6l15.1-19 M346.3,483.7l-10.6-17.3 M338.4,460.5h3.6 M315.7,480.2L283,451.7 M309.6,437.9
	l-24,10.4 M280.9,441.9l1.6-45 M286.5,394.8c2.9,1.4,5.7,2.7,8.6,4.1 M316.4,439.3l13.9,19.1 M277.4,443.4L259.2,415 M256.4,406.1
	l9-29.5 M246.6,364l15.8,6.1 M271.4,369.6c2.2-1.8,4.5-3.7,6.7-5.5 M278.2,389.7l-7.8-13.8 M287.2,552.8v-25.6 M287.2,517.4
	l2.8-28.9 M291,518.2l24.2-29.7 M351.6,484.5c3-2.9,6-5.8,9-8.8 M283,451.7l7,27.1"/>
<path class="voip0" d="M353.7,488.5c0,2.7-2.2,4.9-4.9,4.9s-4.9-2.2-4.9-4.9s2.2-4.9,4.9-4.9C351.4,483.7,353.7,485.8,353.7,488.5z
	 M318.6,589.8c0,2.7-2.2,4.9-4.9,4.9s-4.9-2.2-4.9-4.9s2.2-4.9,4.9-4.9C316.4,585,318.6,587.1,318.6,589.8z M285.9,446.8
	c0,2.7-2.2,4.9-4.9,4.9s-4.9-2.2-4.9-4.9s2.2-4.9,4.9-4.9S285.9,444.1,285.9,446.8z M287.4,392c0,2.7-2.2,4.9-4.9,4.9
	s-4.9-2.2-4.9-4.9s2.2-4.9,4.9-4.9C285.2,387.2,287.4,389.3,287.4,392z M312.2,585.2l-4.2-19.5 M304.9,557.1l-15-30.7 M292,558.9
	l11.2,1.9 M292.2,557.6c0,2.7-2.2,4.9-4.9,4.9s-4.9-2.2-4.9-4.9s2.2-4.9,4.9-4.9C289.9,552.8,292.2,554.9,292.2,557.6z M312.9,560.8
	c0,2.7-2.2,4.9-4.9,4.9s-4.9-2.2-4.9-4.9s2.2-4.9,4.9-4.9C310.8,555.9,312.9,558.1,312.9,560.8z M231.8,338.5l6.6,20.5 M216,343.8
	l22.4,15.2 M226.9,335.7l-10.1,3.7 M190.8,334.7l16.4,4.7 M204,313.6l5.6,23.1 M178.1,310.3l6.5,17.2 M155.2,282.7l17.3,19.6
	 M185.5,283.9l-7.6,18.2 M140.2,249.7l9.4,25.3 M147.7,219.7l-6.3,20.4 M140.2,189l8.2,21 M130.2,150l8.4,29.5 M106.4,128.1
	l18.9,13.4 M82.7,139.5l15.7-12.1 M76.1,138l-8.9-14.8 M153.6,283.9l7.4,27.3 M199,312.6l-9,15.5 M47.4,160.2L75,145.6 M68.4,115.6
	l15.1-6 M101.4,120.1L97,98.3 M92.1,93.4l-10.2-0.8 M97,88.5l-0.9-16.4 M99.8,66.1l23.7-6.9 M131.8,61.6l29.9,26.2 M168.4,91.3
	l17-1.7 M193.7,92l21.9,19 M232.4,116.4l-9.5-1.2 M245.9,102.9l-20.5-4.8 M222.4,90.5l1-4.1 M227.7,79.2l4.7-3.5 M213.8,72.5
	l8.8-6.6 M250.9,98.1l3-19.2 M245.4,88.4l8.5-9.5 M255.5,124.2l-13.3-6.1 M271.5,118.1l-6.9,4.9 M293.8,122.5l-12.4,9.3
	 M317.6,153.7c-3-2-5.9-4.1-8.9-6.1 M323.4,138.5v9.8 M336,122.8c1,2.7,2.1,5.3,3.1,8 M372.2,102l2.2-19.8 M369.7,76.2l-9.5-4
	 M355.3,67.3l-1.4-5.7 M369.3,51.2L358.4,55 M388.8,33.8l-11.9,10.9 M413.9,28.9l-16.5,1.9 M434,19l-10.4,5.9 M448.9,23.3l-9,7.2
	 M432,31.2l-8.8-1.6 M447.4,43l-8.1-5.5 M466.8,44.1l-10.9,0.7 M468,45.5l-9.6,14.8 M685.1,29.6l-7.8-5.7 M332.3,137.5
	c-1.5-0.6-3-1.3-4.5-1.9 M273.9,138.5l-17.5,11.3 M248.9,156.1l-7.5,10.2 M241.5,174.5l22.6,20.4 M268.9,203.3l4.1,10.4
	 M283.6,203.5l-5.9,10.2 M298.6,167l-10.1,27.4 M303.3,167c0.8,1.8,1.6,3.5,2.4,5.3 M268.7,278.1l-13.5,9.1 M252.2,294.6l2.7,8.8
	 M246.5,291.5l-19.6,1.8 M217.3,294.7l-12.1,10.4 M218.3,290l-25.6-8.8 M248.9,285l-18.6-22.7 M263.9,327.5l-9.2-3.7 M223.2,258
	l-23.2-1.4 M190.3,255.2l-10.2-4.3 M196.7,250.3l2.3-14.6 M191.4,276.2l32.7-15.5 M185.2,275.4l-10-19.7 M170.3,250.9l-25.2-6.1
	 M194.1,229.1l-18.8-21.7 M199,226l2.6-24.7 M203.9,230.8l35.3-12.6 M233,256.6l19.9-6.9 M273.2,234.3l0.5-11.2 M229.3,253.2
	l12.2-33.3 M246.9,212.1l16.6-10.3 M205.5,193.5l28.5-20.2 M203.9,191.5l8.8-18.2 M175.5,171.2l35.7-2.2 M157.4,149l11.1,17.3
	 M143.5,184.4l27.1,14.2 M143.1,182.4l22.6-9.1 M157.7,140.8l15.4-17 M173.8,116.4l-8.1-19.6 M130.1,111.5l5.4-13.6 M128.1,140.7
	l2-19.4 M226.3,140.7l-20.1-7.3 M237.4,121.3l-6.3,14.5 M150,144.8l-17.7-1.7 M130.6,93l-28.7,0.4 M135.5,88.1l-5.4-25.6
	 M318.9,95.9l15.7,17.3 M321.9,129l-5.2-12 M310.2,110.5l-13.3-4.3 M314.2,74.8l-9.3-4.1 M325.9,61.9l-8.3-3.2 M346.4,45.5
	l-12.5,12.7 M382.4,23.3l-28,15.9 M381.4,20.3l-27.5,3.9 M384.4,15.9l-15.2-5.1 M360,8.4l-19.7,6 M318.9,95.9l-2.7,11.5 M339,17.5
	l6,5 M350.4,37l-1.5-6.5 M345.9,39.2l-7.5-1.4 M331.4,40.2l-15.8,12.2 M421.9,59.2l28.5,4.9 M414.4,61.9l-7.5,17.6 M379.3,78.5
	l21.1,4.7 M409.6,80.9L451,66.5 M378.3,51.2l33.9,6.5 M395.6,34.7l18.3,19.1 M418.9,32.2L417,52.8 M446.7,48.6L421.2,55
	 M943.6,525.8l6.1-13.1 M988.9,577.2l14.2-12.1 M949.7,505.3l-19-15.6 M960.1,479.4l-19.9-37.2 M934.8,456.5l2.6-13.4 M915.7,452.3
	l14.2,7.1 M915.6,440.5l-1.9,4.8 M913,436.3l-19.4,7.6 M954.3,422.4l-8.3-7.6 M937.6,410.1l-23-5.2 M855.2,382l-13.9,7.2
	 M818.4,404.9l-19.2-20.8 M814.9,380.4l-10.1-23.2 M823.4,358.6l-15-5.6 M828.3,353.7l-8.2-21.8 M800.7,348.4l-18.1-25.6
	 M774.9,318.7l-5.4,1.2 M672.7,139.3l-11.3-32.4 M859.3,384.3l-2.4,15.3 M842.4,395.6l10,6.9 M955,504.1l6.6-15.5 M933.9,553.8
	c0,2.7-2.2,4.9-4.9,4.9s-4.9-2.2-4.9-4.9s2.2-4.9,4.9-4.9S933.9,551.1,933.9,553.8z M990.6,582.1c0,2.7-2.2,4.9-4.9,4.9
	s-4.9-2.2-4.9-4.9s2.2-4.9,4.9-4.9S990.6,579.4,990.6,582.1z M1010.8,561.1c0,2.7-2.2,4.9-4.9,4.9s-4.9-2.2-4.9-4.9s2.2-4.9,4.9-4.9
	S1010.8,558.4,1010.8,561.1z"/>
<path id="svg-concept" class="voip1" d="M1026,546.2c0,2.7-2.2,4.9-4.9,4.9s-4.9-2.2-4.9-4.9s2.2-4.9,4.9-4.9
	S1026,543.5,1026,546.2z"/>
<path class="voip0" d="M1009.6,467.7c0,2.7-2.2,4.9-4.9,4.9s-4.9-2.2-4.9-4.9s2.2-4.9,4.9-4.9S1009.6,465,1009.6,467.7z M1016.5,446.6
	c0,2.7-2.2,4.9-4.9,4.9s-4.9-2.2-4.9-4.9s2.2-4.9,4.9-4.9C1014.2,441.7,1016.5,443.9,1016.5,446.6z M998.6,425.7
	c0,2.7-2.2,4.9-4.9,4.9s-4.9-2.2-4.9-4.9s2.2-4.9,4.9-4.9C996.4,420.9,998.6,423,998.6,425.7z M984.4,414.8c0,2.7-2.2,4.9-4.9,4.9
	s-4.9-2.2-4.9-4.9s2.2-4.9,4.9-4.9C982.3,409.9,984.4,412.1,984.4,414.8z M968.8,412c0,2.7-2.2,4.9-4.9,4.9s-4.9-2.2-4.9-4.9
	s2.2-4.9,4.9-4.9S968.8,409.3,968.8,412z M947.2,411.7c0,2.7-2.2,4.9-4.9,4.9s-4.9-2.2-4.9-4.9s2.2-4.9,4.9-4.9
	S947.2,409,947.2,411.7z M962.9,425.6c0,2.7-2.2,4.9-4.9,4.9s-4.9-2.2-4.9-4.9s2.2-4.9,4.9-4.9S962.9,422.9,962.9,425.6z
	 M915.6,402.5c0,2.7-2.2,4.9-4.9,4.9s-4.9-2.2-4.9-4.9s2.2-4.9,4.9-4.9S915.6,399.8,915.6,402.5z M901.7,405.8
	c0,2.7-2.2,4.9-4.9,4.9s-4.9-2.2-4.9-4.9s2.2-4.9,4.9-4.9C899.6,400.9,901.7,403.1,901.7,405.8z M897.9,390.7c0,2.7-2.2,4.9-4.9,4.9
	s-4.9-2.2-4.9-4.9s2.2-4.9,4.9-4.9S897.9,388,897.9,390.7z M878.3,401.5c0,2.7-2.2,4.9-4.9,4.9s-4.9-2.2-4.9-4.9s2.2-4.9,4.9-4.9
	S878.3,398.8,878.3,401.5z M889.2,370.5c0,2.7-2.2,4.9-4.9,4.9s-4.9-2.2-4.9-4.9s2.2-4.9,4.9-4.9S889.2,367.8,889.2,370.5z
	 M882.7,358.6c0,2.7-2.2,4.9-4.9,4.9s-4.9-2.2-4.9-4.9s2.2-4.9,4.9-4.9C880.6,353.7,882.7,355.9,882.7,358.6z M826.7,408.4
	c0,2.7-2.2,4.9-4.9,4.9s-4.9-2.2-4.9-4.9s2.2-4.9,4.9-4.9C824.6,403.5,826.7,405.7,826.7,408.4z M801,380.3c0,2.7-2.2,4.9-4.9,4.9
	s-4.9-2.2-4.9-4.9s2.2-4.9,4.9-4.9S801,377.6,801,380.3z M823.6,384.3c0,2.7-2.2,4.9-4.9,4.9s-4.9-2.2-4.9-4.9s2.2-4.9,4.9-4.9
	S823.6,381.6,823.6,384.3z M808.2,352.5c0,2.7-2.2,4.9-4.9,4.9s-4.9-2.2-4.9-4.9s2.2-4.9,4.9-4.9
	C806.1,347.6,808.2,349.8,808.2,352.5z M833.2,358.6c0,2.7-2.2,4.9-4.9,4.9s-4.9-2.2-4.9-4.9s2.2-4.9,4.9-4.9
	S833.2,355.9,833.2,358.6z M823.6,327.2c0,2.7-2.2,4.9-4.9,4.9s-4.9-2.2-4.9-4.9s2.2-4.9,4.9-4.9S823.6,324.5,823.6,327.2z
	 M784.7,318.7c0,2.7-2.2,4.9-4.9,4.9s-4.9-2.2-4.9-4.9s2.2-4.9,4.9-4.9C782.6,313.8,784.7,316,784.7,318.7z M825.8,288.2
	c0,2.7-2.2,4.9-4.9,4.9s-4.9-2.2-4.9-4.9s2.2-4.9,4.9-4.9S825.8,285.5,825.8,288.2z M808.8,237.4c0,2.7-2.2,4.9-4.9,4.9
	s-4.9-2.2-4.9-4.9s2.2-4.9,4.9-4.9S808.8,234.7,808.8,237.4z M864.6,102.5c0,2.7-2.2,4.9-4.9,4.9s-4.9-2.2-4.9-4.9s2.2-4.9,4.9-4.9
	C862.4,97.7,864.6,99.8,864.6,102.5z M787.9,120.5c0,2.7-2.2,4.9-4.9,4.9s-4.9-2.2-4.9-4.9s2.2-4.9,4.9-4.9S787.9,117.8,787.9,120.5
	z M742.4,152.5c0,2.7-2.2,4.9-4.9,4.9s-4.9-2.2-4.9-4.9s2.2-4.9,4.9-4.9S742.4,149.8,742.4,152.5z M783,145.1c0,2.7-2.2,4.9-4.9,4.9
	s-4.9-2.2-4.9-4.9s2.2-4.9,4.9-4.9S783,142.4,783,145.1z M762.4,193c0,2.7-2.2,4.9-4.9,4.9s-4.9-2.2-4.9-4.9s2.2-4.9,4.9-4.9
	C760.3,188.1,762.4,190.3,762.4,193z M905.7,86.4c0,2.7-2.2,4.9-4.9,4.9s-4.9-2.2-4.9-4.9s2.2-4.9,4.9-4.9
	C903.6,81.5,905.7,83.7,905.7,86.4z M700.6,77.1c0,2.7-2.2,4.9-4.9,4.9s-4.9-2.2-4.9-4.9s2.2-4.9,4.9-4.9
	C698.3,72.2,700.6,74.4,700.6,77.1z M720,48.6c0,2.7-2.2,4.9-4.9,4.9s-4.9-2.2-4.9-4.9s2.2-4.9,4.9-4.9S720,45.9,720,48.6z
	 M792.8,66.9c0,2.7-2.2,4.9-4.9,4.9s-4.9-2.2-4.9-4.9s2.2-4.9,4.9-4.9C790.6,62.1,792.8,64.2,792.8,66.9z M813.8,83.4
	c0,2.7-2.2,4.9-4.9,4.9s-4.9-2.2-4.9-4.9s2.2-4.9,4.9-4.9S813.8,80.7,813.8,83.4z M833,58.8c0,2.7-2.2,4.9-4.9,4.9s-4.9-2.2-4.9-4.9
	s2.2-4.9,4.9-4.9C830.8,54,833,56.1,833,58.8z M875.7,58.8c0,2.7-2.2,4.9-4.9,4.9s-4.9-2.2-4.9-4.9s2.2-4.9,4.9-4.9
	C873.6,53.9,875.7,56.1,875.7,58.8z M918.7,55.6c0,2.7-2.2,4.9-4.9,4.9s-4.9-2.2-4.9-4.9s2.2-4.9,4.9-4.9
	C916.6,50.7,918.7,52.9,918.7,55.6z M967.6,56.4c0,2.7-2.2,4.9-4.9,4.9s-4.9-2.2-4.9-4.9s2.2-4.9,4.9-4.9S967.6,53.7,967.6,56.4z
	 M940.6,122.5c0,2.7-2.2,4.9-4.9,4.9s-4.9-2.2-4.9-4.9s2.2-4.9,4.9-4.9S940.6,119.8,940.6,122.5z M928.6,106.4
	c0,2.7-2.2,4.9-4.9,4.9s-4.9-2.2-4.9-4.9s2.2-4.9,4.9-4.9S928.6,103.7,928.6,106.4z M910.6,136.2c0,2.7-2.2,4.9-4.9,4.9
	s-4.9-2.2-4.9-4.9s2.2-4.9,4.9-4.9S910.6,133.5,910.6,136.2z M882,145.1c0,2.7-2.2,4.9-4.9,4.9s-4.9-2.2-4.9-4.9s2.2-4.9,4.9-4.9
	S882,142.4,882,145.1z M871.2,178.3c0,2.7-2.2,4.9-4.9,4.9s-4.9-2.2-4.9-4.9s2.2-4.9,4.9-4.9S871.2,175.6,871.2,178.3z M893.8,184.1
	c0,2.7-2.2,4.9-4.9,4.9s-4.9-2.2-4.9-4.9s2.2-4.9,4.9-4.9C891.6,179.3,893.8,181.4,893.8,184.1z M898.7,204.2c0,2.7-2.2,4.9-4.9,4.9
	s-4.9-2.2-4.9-4.9s2.2-4.9,4.9-4.9C896.6,199.3,898.7,201.5,898.7,204.2z M889.8,231c0,2.7-2.2,4.9-4.9,4.9s-4.9-2.2-4.9-4.9
	s2.2-4.9,4.9-4.9C887.6,226.2,889.8,228.3,889.8,231z M873.1,247.3c0,2.7-2.2,4.9-4.9,4.9s-4.9-2.2-4.9-4.9s2.2-4.9,4.9-4.9
	S873.1,244.6,873.1,247.3z M884.7,268c0,2.7-2.2,4.9-4.9,4.9s-4.9-2.2-4.9-4.9s2.2-4.9,4.9-4.9C882.6,263.1,884.7,265.3,884.7,268z
	 M894.3,281.4c0,2.7-2.2,4.9-4.9,4.9s-4.9-2.2-4.9-4.9s2.2-4.9,4.9-4.9S894.3,278.7,894.3,281.4z M906.9,271.6
	c0,2.7-2.2,4.9-4.9,4.9s-4.9-2.2-4.9-4.9s2.2-4.9,4.9-4.9C904.7,266.8,906.9,268.9,906.9,271.6z M918.2,264.7c0,2.7-2.2,4.9-4.9,4.9
	s-4.9-2.2-4.9-4.9s2.2-4.9,4.9-4.9S918.2,262,918.2,264.7z M918.2,245.5c0,2.7-2.2,4.9-4.9,4.9s-4.9-2.2-4.9-4.9s2.2-4.9,4.9-4.9
	S918.2,242.8,918.2,245.5z M918.2,229.7c0,2.7-2.2,4.9-4.9,4.9s-4.9-2.2-4.9-4.9s2.2-4.9,4.9-4.9S918.2,227,918.2,229.7z
	 M846.6,261.2c0,2.7-2.2,4.9-4.9,4.9s-4.9-2.2-4.9-4.9s2.2-4.9,4.9-4.9S846.6,258.5,846.6,261.2z M865,290.1c0,2.7-2.2,4.9-4.9,4.9
	s-4.9-2.2-4.9-4.9s2.2-4.9,4.9-4.9S865,287.4,865,290.1z M845.1,317.4c0,2.7-2.2,4.9-4.9,4.9s-4.9-2.2-4.9-4.9s2.2-4.9,4.9-4.9
	C842.9,312.6,845.1,314.7,845.1,317.4z M946.9,181.1c0,2.7-2.2,4.9-4.9,4.9s-4.9-2.2-4.9-4.9s2.2-4.9,4.9-4.9
	S946.9,178.4,946.9,181.1z M938.9,153.9c0,2.7-2.2,4.9-4.9,4.9s-4.9-2.2-4.9-4.9s2.2-4.9,4.9-4.9S938.9,151.2,938.9,153.9z
	 M683.2,106.5c0,2.7-2.2,4.9-4.9,4.9s-4.9-2.2-4.9-4.9s2.2-4.9,4.9-4.9S683.2,103.8,683.2,106.5z M704.7,110.9
	c0,2.7-2.2,4.9-4.9,4.9s-4.9-2.2-4.9-4.9s2.2-4.9,4.9-4.9C702.6,106,704.7,108.2,704.7,110.9z M678.9,144.2c0,2.7-2.2,4.9-4.9,4.9
	s-4.9-2.2-4.9-4.9s2.2-4.9,4.9-4.9S678.9,141.5,678.9,144.2z M665,102.5c0,2.7-2.2,4.9-4.9,4.9s-4.9-2.2-4.9-4.9s2.2-4.9,4.9-4.9
	C662.8,97.7,665,99.8,665,102.5z M627.8,93.4c0,2.7-2.2,4.9-4.9,4.9s-4.9-2.2-4.9-4.9s2.2-4.9,4.9-4.9S627.8,90.7,627.8,93.4z
	 M645.2,70.4c0,2.7-2.2,4.9-4.9,4.9s-4.9-2.2-4.9-4.9s2.2-4.9,4.9-4.9C643,65.6,645.2,67.7,645.2,70.4z M875.7,344.4
	c0,2.7-2.2,4.9-4.9,4.9s-4.9-2.2-4.9-4.9s2.2-4.9,4.9-4.9C873.6,339.5,875.7,341.6,875.7,344.4z M872.6,316.8c0,2.7-2.2,4.9-4.9,4.9
	s-4.9-2.2-4.9-4.9s2.2-4.9,4.9-4.9C870.3,312,872.6,314.1,872.6,316.8z M865.6,422.4c0,2.7-2.2,4.9-4.9,4.9s-4.9-2.2-4.9-4.9
	s2.2-4.9,4.9-4.9S865.6,419.7,865.6,422.4z M843.1,419.9c0,2.7-2.2,4.9-4.9,4.9s-4.9-2.2-4.9-4.9s2.2-4.9,4.9-4.9
	C841,415,843.1,417.2,843.1,419.9z M887.1,423.8c0,2.7-2.2,4.9-4.9,4.9s-4.9-2.2-4.9-4.9s2.2-4.9,4.9-4.9
	C885,419,887.1,421.1,887.1,423.8z M914.4,419c0,2.7-2.2,4.9-4.9,4.9s-4.9-2.2-4.9-4.9s2.2-4.9,4.9-4.9S914.4,416.3,914.4,419z
	 M911.3,513c0,2.7-2.2,4.9-4.9,4.9s-4.9-2.2-4.9-4.9s2.2-4.9,4.9-4.9S911.3,510.2,911.3,513z M897.4,499.2c0,2.7-2.2,4.9-4.9,4.9
	s-4.9-2.2-4.9-4.9s2.2-4.9,4.9-4.9S897.4,496.5,897.4,499.2z M850.6,513c0,2.7-2.2,4.9-4.9,4.9s-4.9-2.2-4.9-4.9s2.2-4.9,4.9-4.9
	C848.3,508.1,850.6,510.2,850.6,513z M853.3,470.6c0,2.7-2.2,4.9-4.9,4.9s-4.9-2.2-4.9-4.9s2.2-4.9,4.9-4.9S853.3,467.9,853.3,470.6
	z M893.6,443.9c0,2.7-2.2,4.9-4.9,4.9s-4.9-2.2-4.9-4.9s2.2-4.9,4.9-4.9S893.6,441.2,893.6,443.9z M922.8,436.3
	c0,2.7-2.2,4.9-4.9,4.9s-4.9-2.2-4.9-4.9s2.2-4.9,4.9-4.9S922.8,433.6,922.8,436.3z M916.2,450.2c0,2.7-2.2,4.9-4.9,4.9
	s-4.9-2.2-4.9-4.9s2.2-4.9,4.9-4.9S916.2,447.5,916.2,450.2z M939.7,461.4c0,2.7-2.2,4.9-4.9,4.9s-4.9-2.2-4.9-4.9s2.2-4.9,4.9-4.9
	C937.6,456.5,939.7,458.7,939.7,461.4z M931.6,487.1c0,2.7-2.2,4.9-4.9,4.9s-4.9-2.2-4.9-4.9s2.2-4.9,4.9-4.9
	C929.3,482.2,931.6,484.4,931.6,487.1z M889.8,473.9c0,2.7-2.2,4.9-4.9,4.9s-4.9-2.2-4.9-4.9s2.2-4.9,4.9-4.9
	S889.8,471.2,889.8,473.9z M942.3,438.2c0,2.7-2.2,4.9-4.9,4.9s-4.9-2.2-4.9-4.9s2.2-4.9,4.9-4.9S942.3,435.5,942.3,438.2z
	 M967.4,483.6c0,2.7-2.2,4.9-4.9,4.9s-4.9-2.2-4.9-4.9s2.2-4.9,4.9-4.9C965.2,478.8,967.4,480.9,967.4,483.6z M884.2,446.7l-31.9,21
	 M881.1,477l-32.5,32 M889.8,495.1l-3-16.3 M902.4,509l-6.3-6.4 M848.4,475.5l-2.8,32.6 M935.9,529.8h-12.3 M909.8,509l13.8-18.1
	 M929,482.2l3.6-15.9 M888.7,448.8l-3.8,20.2 M908.9,454.4l-19.1,17.1 M921.7,487.1l-25.8,8.6 M887.9,500.8l-37.3,11.1 M915.6,526
	l-6.4-9 M676,139.3l2.3-27.9 M694.9,110.9l-12.2-2.3 M699.8,106l-4.2-24 M713,53.1l-14.4,19.6 M737.6,55.9l-18-5.3 M738.8,76.2
	l2.4-14.3 M742.2,79.4l15.8-4.8 M767,70.9l16-4 M791.4,70.4l13,11.1 M811.8,79.5l13.3-16.8 M833,58.8h32.9 M875.8,60.3l33.1-4.7
	 M950.6,78.5l9.4-18 M918.7,55.6l39.1,0.8 M955.3,94.3l-5.2-6.7 M954.9,102.4l-15.3,17.2 M934,127.1V149 M935.6,158.5l5,17.9
	 M920.1,109.7l-12,21.6 M926.8,110.2l6.1,8.3 M901,137.5l-19.3,5.9 M875.7,149.8l-7.6,23.6 M889.8,189l3,10.3 M870.8,180.3l13.2,2.8
	 M887.4,226.8l6.4-17.7 M871.7,243.9L882,235 M870.6,251.5l7,12.1 M843.8,256.9l19.8-11.4 M857.2,286.2l-13-20.1 M857.6,294.3
	l-14,19.5 M836.2,320.2l-13.6,4.2 M735.3,157.4l-5.4,15.1 M820.9,293.1l-2.3,29.2 M816.1,286.3l-43.3-6 M755.2,255.3l7.7-10.2
	 M770.4,239.5l28.6-2.1 M808.2,239.6l29.6,18 M806.2,242.3l14.7,41 M783.3,315.3l33.7-24.2 M865,243.6l-17.3-29.7 M806.4,233.2
	l34.6-20.8 M847.8,204.2l16.3-21.1 M850,209.7l38.9-5.5 M842.6,204.8l-15.4-32.6 M827.3,163.6l44.9-18.5 M829.1,167.4l32.3,8.8
	 M761.6,190.2l58.4-20.4 M820.4,164.3L783,147.6 M741.8,150l31.4-4.9 M740.2,156.6l15.4,31.9 M759.6,197.9l6.2,38.4 M761.6,195.8
	l40.1,37.2 M718.4,235.5c12.8,1.3,29.2,3.9,42.5,5.7 M737.6,147.6l-3.8-36.3 M704.7,110.9l24.3-2.6 M678.9,144.2l54.4,5.8
	 M778.1,140.2l4.9-14.8 M764,76.8l16.6,38.8 M806.4,88.3l-20.3,27.9 M813.1,86l41.7,14.5 M869.2,63.7l-7.8,34 M874,62.5l23.8,20
	 M904.2,89.9l16.5,12.6 M861.4,107.4l15.7,32.8 M864.6,102.5l32.2-13.3 M903.6,81.5l10.2-21 M905.7,86.4l37-3 M275.9,120.1l1.6,9.9
	 M192.7,279.5c0,2.7-2.2,4.9-4.9,4.9s-4.9-2.2-4.9-4.9s2.2-4.9,4.9-4.9S192.7,276.8,192.7,279.5z M923.6,529.8
	c0,2.7-2.2,4.9-4.9,4.9s-4.9-2.2-4.9-4.9s2.2-4.9,4.9-4.9S923.6,527.1,923.6,529.8z M829.1,167.4c0,2.7-2.2,4.9-4.9,4.9
	s-4.9-2.2-4.9-4.9s2.2-4.9,4.9-4.9S829.1,164.7,829.1,167.4z M738.7,106.4c0,2.7-2.2,4.9-4.9,4.9s-4.9-2.2-4.9-4.9s2.2-4.9,4.9-4.9
	C736.6,101.5,738.7,103.7,738.7,106.4z M770.7,241.2c0,2.7-2.2,4.9-4.9,4.9s-4.9-2.2-4.9-4.9s2.2-4.9,4.9-4.9
	C768.6,236.3,770.7,238.5,770.7,241.2z M243.4,170.7c0,2.7-2.2,4.9-4.9,4.9s-4.9-2.2-4.9-4.9s2.2-4.9,4.9-4.9S243.4,168,243.4,170.7
	z M257.4,152.9c0,2.7-2.2,4.9-4.9,4.9s-4.9-2.2-4.9-4.9s2.2-4.9,4.9-4.9C255.4,148,257.4,150.2,257.4,152.9z M355.3,41.9
	c0,2.7-2.2,4.9-4.9,4.9s-4.9-2.2-4.9-4.9s2.2-4.9,4.9-4.9S355.3,39.2,355.3,41.9z M338.8,36c0,2.7-2.2,4.9-4.9,4.9S329,38.7,329,36
	s2.2-4.9,4.9-4.9S338.8,33.3,338.8,36z M353.9,25.6c0,2.7-2.2,4.9-4.9,4.9s-4.9-2.2-4.9-4.9s2.2-4.9,4.9-4.9S353.9,22.9,353.9,25.6z
	"/>
<path class="voip2" d="M719.4,347.5c-1.2,5.4-1.7,7.1-3.3,12.3 M716.9,233.3c1.4,4.8,1.9,6.9,3,11.8"/>
<path class="voip3" d="M752.2,325c-1.8-5.3-7.2-8-7.4-8.1"/>
<path id="svg-concept" class="voip4" d="M683.3,426.5c-40.9,57.4-107.3,94-183.1,94c-124.5,0-225.4-100.9-225.4-225.4
	S375.7,69.6,500.2,69.7c76.8,0,145.9,40.3,184.6,96"/>
<path class="voip3" d="M736.8,321.5c2.1,0,3.8-0.6,4.9-1.6l0.9-0.9c1.9-1.8,4.3-4.1,4.2-7c-0.1-2-1.3-4-3.8-5.9
	c-2.9-2.3-5.2-3.4-7.2-3.4c-2.5,0-4,1.6-5.7,3.3c-0.2,0.2-0.3,0.4-0.5,0.5c-0.1,0.1-0.3,0.2-0.6,0.2c-1.1,0-3.8-1-10.2-7.3
	c-2.8-2.8-4.8-5.1-6-7s-1.6-3.3-1.1-3.8l0.5-0.5c1.5-1.5,3-2.9,3.2-5c0.3-2.2-0.7-4.6-3.4-7.9c-2-2.5-4.1-3.8-6.2-3.8
	c-2.8,0-5,2.3-6.8,4.2l-0.9,0.9c-1.1,1.1-1.6,2.8-1.6,5c0,2.1,0.6,4.6,1.6,7.3c2.3,6.1,6.8,12.6,12.7,18.5
	c4.5,4.5,9.5,8.3,14.3,10.8C729.6,320.3,733.6,321.5,736.8,321.5L736.8,321.5z M744.3,293.5c0-4.6-1.7-9.1-5.2-12.6s-8-5.2-12.6-5.2
	 M753.6,292.1c0-6.4-2.4-12.8-7.3-17.7c-4.9-4.9-11.3-7.3-17.7-7.3"/>
<circle class="voip3" cx="703.8" cy="198" r="36.4"/>
<path class="voip3" d="M685.7,187.2c0-1,0.8-1.7,1.7-1.7h32.8c1,0,1.7,0.8,1.7,1.7v21.6c0,1-0.8,1.7-1.7,1.7h-32.8
	c-1,0-1.7-0.8-1.7-1.7V187.2z"/>
<path class="voip3" d="M720.2,185.5l-16.4,12.1l-16.4-12.1 M698.6,194.1l-12,15.5 M709,194.1l12.1,15.5"/>
<circle class="voip3" cx="703.8" cy="395.3" r="36.4"/>
<path class="voip3" d="M703.8,377.3v36 M685.8,395.3h36"/>
<circle id="svg-concept" class="voip5" cx="414.9" cy="171" r="32.7"/>
<circle class="voip3" cx="412.5" cy="253.7" r="32.7"/>
<circle class="voip3" cx="414.9" cy="336.4" r="32.7"/>
<circle class="voip3" cx="414.9" cy="419.1" r="32.7"/>
<ellipse transform="matrix(0.1735 -0.9848 0.9848 0.1735 242.8943 631.4349)" class="voip3" cx="497.7" cy="171" rx="32.7" ry="32.7"/>
<ellipse transform="matrix(0.1602 -0.9871 0.9871 0.1602 167.5629 704.2596)" class="voip3" cx="497.7" cy="253.7" rx="32.7" ry="32.7"/>
<ellipse id="svg-concept" transform="matrix(0.3163 -0.9487 0.9487 0.3163 22.8168 704.4568)" class="voip5" cx="500.1" cy="336.4" rx="32.7" ry="32.7"/>
<ellipse transform="matrix(0.3163 -0.9487 0.9487 0.3163 -55.776 760.8152)" class="voip3" cx="499.9" cy="419.1" rx="32.7" ry="32.7"/>
<circle class="voip3" cx="582.9" cy="171" r="32.7"/>
<circle id="svg-concept" class="voip5" cx="585.4" cy="253.7" r="32.7"/>
<circle class="voip3" cx="582.9" cy="336.4" r="32.7"/>
<circle class="voip3" cx="582.9" cy="419.1" r="32.7"/>
<path class="voip6" d="M419.4,187.1V155 M419.4,155h-9 M417.2,352.4v-32 M417.2,320.4h-8.8 M421.5,336.4h-13.1 M508,170.9V155
	 M492.2,171.1h15.9 M508,155h-15.4 M492.1,171.1v16 M492.1,187.1h15.5 M508,253.8v16 M492.2,253.6h15.9 M508,269.8h-15.4
	 M492.1,253.6v-15.9 M492.1,237.7h15.5 M508,320.4v32.1 M492.2,336.4H508 M508,352.5h-15.4 M492.2,352.5v-32.1 M492.2,320.4h15.4
	 M507.9,403v32.2 M507.9,435.2h-15.6 M491.9,435.2V403 M491.9,403h15.5 M593.3,187.1V155 M577.4,171.1h16 M593.3,155h-15.4
	 M577.3,187.1h15.5 M407,254.1V238 M422.7,254.1h-15.8 M422.8,238v31.4 M577.5,269.4V238 M593.2,254.1h-15.8 M593.2,269.4h-15.8
	 M593.3,254.1v15.3 M593.2,320.7v31.4 M577.5,336h15.8 M577.5,320.7h15.8 M577.4,336v-15.3"/>
<g>
	<path class="voip6" d="M422.9,408.9l-4,20.4 M401.9,422.5h25.9 M401.9,415.5h25.9 M407.2,429.3l4-20.4"/>
</g>
<g>
	<path class="voip6" d="M585.6,431.5v-24.9 M576.6,427.9l17.5-17.6 M576.8,410.3l17.6,17.6"/>
</g>
<path id="svg-concept" class="voip1" d="M282.4,134.9c0,2.7-2.2,4.9-4.9,4.9s-4.9-2.2-4.9-4.9s2.2-4.9,4.9-4.9
	S282.4,132.2,282.4,134.9z M300.9,118.1c0,2.7-2.2,4.9-4.9,4.9s-4.9-2.2-4.9-4.9s2.2-4.9,4.9-4.9S300.9,115.4,300.9,118.1z
	 M280.9,115.2c0,2.7-2.2,4.9-4.9,4.9s-4.9-2.2-4.9-4.9s2.2-4.9,4.9-4.9S280.9,112.5,280.9,115.2z M248.1,215.3
	c0,2.7-2.2,4.9-4.9,4.9s-4.9-2.2-4.9-4.9s2.2-4.9,4.9-4.9C245.9,210.5,248.1,212.6,248.1,215.3z M101.9,93.4c0,2.7-2.2,4.9-4.9,4.9
	s-4.9-2.2-4.9-4.9s2.2-4.9,4.9-4.9S101.9,90.7,101.9,93.4z M92.5,107.1c0,2.7-2.2,4.9-4.9,4.9s-4.9-2.2-4.9-4.9s2.2-4.9,4.9-4.9
	S92.5,104.4,92.5,107.1z M82.1,91.3c0,2.7-2.2,4.9-4.9,4.9s-4.9-2.2-4.9-4.9s2.2-4.9,4.9-4.9S82.1,88.6,82.1,91.3z M180.1,250.9
	c0,2.7-2.2,4.9-4.9,4.9s-4.9-2.2-4.9-4.9s2.2-4.9,4.9-4.9S180.1,248.2,180.1,250.9z M200,255.2c0,2.7-2.2,4.9-4.9,4.9
	s-4.9-2.2-4.9-4.9s2.2-4.9,4.9-4.9C197.9,250.3,200,252.5,200,255.2L200,255.2z M294.9,483.6c0,2.7-2.2,4.9-4.9,4.9
	s-4.9-2.2-4.9-4.9s2.2-4.9,4.9-4.9C292.8,478.8,294.9,480.9,294.9,483.6z M332.6,515.3c0,2.7-2.2,4.9-4.9,4.9s-4.9-2.2-4.9-4.9
	s2.2-4.9,4.9-4.9S332.6,512.6,332.6,515.3z M318.6,531.8c0,2.7-2.2,4.9-4.9,4.9s-4.9-2.2-4.9-4.9s2.2-4.9,4.9-4.9
	S318.6,529.1,318.6,531.8z M441,33.7c0,2.7-2.2,4.9-4.9,4.9s-4.9-2.2-4.9-4.9s2.2-4.9,4.9-4.9C438.9,28.9,441,31,441,33.7z
	 M423.8,27.4c0,2.7-2.2,4.9-4.9,4.9s-4.9-2.2-4.9-4.9s2.2-4.9,4.9-4.9S423.8,24.7,423.8,27.4z M747.3,57.2c0,2.7-2.2,4.9-4.9,4.9
	s-4.9-2.2-4.9-4.9s2.2-4.9,4.9-4.9S747.3,54.5,747.3,57.2z M767.1,72.2c0,2.7-2.2,4.9-4.9,4.9s-4.9-2.2-4.9-4.9s2.2-4.9,4.9-4.9
	S767.1,69.5,767.1,72.2z M742.4,81.1c0,2.7-2.2,4.9-4.9,4.9s-4.9-2.2-4.9-4.9s2.2-4.9,4.9-4.9S742.4,78.4,742.4,81.1z M850,209.7
	c0,2.7-2.2,4.9-4.9,4.9s-4.9-2.2-4.9-4.9s2.2-4.9,4.9-4.9S850,207,850,209.7z M952.6,83.4c0,2.7-2.2,4.9-4.9,4.9s-4.9-2.2-4.9-4.9
	s2.2-4.9,4.9-4.9S952.6,80.7,952.6,83.4z M962.7,98.5c0,2.7-2.2,4.9-4.9,4.9s-4.9-2.2-4.9-4.9s2.2-4.9,4.9-4.9
	C960.6,93.6,962.7,95.8,962.7,98.5z M864.1,379.4c0,2.7-2.2,4.9-4.9,4.9s-4.9-2.2-4.9-4.9s2.2-4.9,4.9-4.9
	C862,374.5,864.1,376.7,864.1,379.4z M861.8,404.4c0,2.7-2.2,4.9-4.9,4.9s-4.9-2.2-4.9-4.9s2.2-4.9,4.9-4.9
	C859.6,399.6,861.8,401.7,861.8,404.4z M843.1,393c0,2.7-2.2,4.9-4.9,4.9s-4.9-2.2-4.9-4.9s2.2-4.9,4.9-4.9
	C841,388.1,843.1,390.3,843.1,393z M957.9,509c0,2.7-2.2,4.9-4.9,4.9s-4.9-2.2-4.9-4.9s2.2-4.9,4.9-4.9S957.9,506.3,957.9,509
	L957.9,509z M945.6,529.8c0,2.7-2.2,4.9-4.9,4.9s-4.9-2.2-4.9-4.9s2.2-4.9,4.9-4.9S945.6,527.1,945.6,529.8z"/>
<g>
	<circle id="svg-concept" class="voip7" cx="725.1" cy="296" r="50.6"/>
	
		<animate  accumulate="none" additive="replace" attributeName="opacity" calcMode="linear" dur="1s" fill="remove" repeatCount="indefinite" restart="always" values="0;1;0">
		</animate>
</g>
<g>
	<path id="svg-ico" class="voip8" d="M687.3,160.4c0,3.3-2.6,6-6,6c-3.3,0-6-2.6-6-6s2.6-6,6-6S687.3,157,687.3,160.4z"/>
	
		<animateTransform  accumulate="none" additive="replace" attributeName="transform" calcMode="linear" dur="5s" fill="remove" from="0 495 305" repeatCount="indefinite" restart="always" to="-285 510 295" type="rotate">
		</animateTransform>
</g>
</svg>
