<?xml version="1.0" encoding="utf-8"?>
<!-- Generator: Adobe Illustrator 24.3.0, SVG Export Plug-In . SVG Version: 6.00 Build 0)  -->
<svg version="1.1" id="Layer_1" xmlns="http://www.w3.org/2000/svg" xmlns:xlink="http://www.w3.org/1999/xlink" x="0px" y="0px"
	 viewBox="0 0 646.6 652.5" style="enable-background:new 0 0 646.6 652.5;" xml:space="preserve">
<style type="text/css">
	.worldstream0{fill:url(#SVGID_1_);}
	.worldstream1{fill:none;stroke:#808080;stroke-width:2;stroke-linecap:round;stroke-linejoin:round;stroke-miterlimit:10;}
	.worldstream2{fill:none;stroke:#808080;stroke-linecap:round;stroke-linejoin:round;stroke-miterlimit:10;}
	.worldstream3{fill:url(#SVGID_2_);}
	.worldstream4{fill:none;stroke:#EE5586;stroke-width:2;stroke-linecap:round;stroke-linejoin:round;stroke-miterlimit:10;}
	.worldstream5{fill:none;stroke:#EE5586;stroke-width:3;stroke-linecap:round;stroke-linejoin:round;stroke-miterlimit:10;}
	.worldstream6{fill:#EE5586;}
</style>
<g>
		<radialGradient id="SVGID_1_" cx="488.3994" cy="721.6617" r="0" gradientTransform="matrix(1 0 0 -1 0 1116)" gradientUnits="userSpaceOnUse">
		<stop  offset="0" style="stop-color:#27AAE1"/>
		<stop  offset="0.1987" style="stop-color:#2AABE1"/>
		<stop  offset="0.3466" style="stop-color:#33AEE1"/>
		<stop  offset="0.4781" style="stop-color:#44B3E2"/>
		<stop  offset="0.6001" style="stop-color:#5ABAE3"/>
		<stop  offset="0.7154" style="stop-color:#78C4E4"/>
		<stop  offset="0.8259" style="stop-color:#9CCFE5"/>
		<stop  offset="0.9305" style="stop-color:#C6DDE7"/>
		<stop  offset="1" style="stop-color:#E6E7E8"/>
	</radialGradient>
	<path class="worldstream0" d="M488.4,394.3C487.9,394,487.8,394,488.4,394.3z"/>
	<path class="worldstream1" d="M63.4,300C93.3,184.5,198.2,99.1,323.1,99.1C447.7,99,552.5,184,582.6,299.3"/>
	<path class="worldstream1" d="M583.3,432.2c-29,116.7-134.6,203.2-260.3,203.2c-124.8,0-229.7-85.3-259.6-200.8"/>
	<path class="worldstream2" d="M344.7,491.9c0,2.6-2.1,4.7-4.7,4.7c-2.6,0-4.7-2.1-4.7-4.7s2.1-4.7,4.7-4.7
		C342.6,487.2,344.7,489.2,344.7,491.9z M330.6,480.7c0,2.6-2.1,4.7-4.7,4.7s-4.7-2.1-4.7-4.7s2.1-4.7,4.7-4.7
		S330.6,478.1,330.6,480.7z M370,449.8c0,2.6-2.1,4.7-4.7,4.7s-4.7-2.1-4.7-4.7c0-2.6,2.1-4.7,4.7-4.7S370,447.2,370,449.8z
		 M376.2,412.6c0,2.6-2.1,4.7-4.7,4.7c-2.6,0-4.7-2.1-4.7-4.7s2.1-4.7,4.7-4.7C374.1,407.9,376.2,410,376.2,412.6z M395.5,381.5
		c0,2.6-2.1,4.7-4.7,4.7c-2.6,0-4.7-2.1-4.7-4.7c0-2.6,2.1-4.7,4.7-4.7C393.3,376.7,395.5,378.9,395.5,381.5z M380.9,379
		c0,2.6-2.1,4.7-4.7,4.7s-4.7-2.1-4.7-4.7s2.1-4.7,4.7-4.7S380.9,376.4,380.9,379z M365.5,340.7c0,2.6-2.1,4.7-4.7,4.7
		c-2.6,0-4.7-2.1-4.7-4.7s2.1-4.7,4.7-4.7C363.3,336,365.5,338.1,365.5,340.7z M388.8,368.1c0,2.6-2.1,4.7-4.7,4.7s-4.7-2.1-4.7-4.7
		c0-2.6,2.1-4.7,4.7-4.7S388.8,365.4,388.8,368.1z M413.5,352.3c0,2.6-2.1,4.7-4.7,4.7c-2.6,0-4.7-2.1-4.7-4.7s2.1-4.7,4.7-4.7
		C411.4,347.6,413.5,349.7,413.5,352.3z M367.8,324c0,2.6-2.1,4.7-4.7,4.7c-2.6,0-4.7-2.1-4.7-4.7s2.1-4.7,4.7-4.7
		C365.7,319.2,367.8,321.4,367.8,324z M365.5,311.3c0,2.6-2.1,4.7-4.7,4.7c-2.6,0-4.7-2.1-4.7-4.7c0-2.6,2.1-4.7,4.7-4.7
		C363.3,306.6,365.5,308.7,365.5,311.3z M350,310.4c0,2.6-2.1,4.7-4.7,4.7c-2.6,0-4.7-2.1-4.7-4.7s2.1-4.7,4.7-4.7
		C347.9,305.6,350,307.8,350,310.4z M335.3,331.4c0,2.6-2.1,4.7-4.7,4.7c-2.6,0-4.7-2.1-4.7-4.7s2.1-4.7,4.7-4.7
		C333.2,326.7,335.3,328.8,335.3,331.4z M286.2,319.2c0,2.6-2.1,4.7-4.7,4.7c-2.6,0-4.7-2.1-4.7-4.7c0-2.6,2.1-4.7,4.7-4.7
		C284.1,314.5,286.2,316.6,286.2,319.2z M314,293.8c0,2.6-2.1,4.7-4.7,4.7c-2.6,0-4.7-2.1-4.7-4.7s2.1-4.7,4.7-4.7
		C311.8,289.1,314,291.2,314,293.8z M326.6,302.6c0,2.6-2.1,4.7-4.7,4.7s-4.7-2.1-4.7-4.7c0-2.6,2.1-4.7,4.7-4.7
		S326.6,300,326.6,302.6z M316.3,260.9c0,2.6-2.1,4.7-4.7,4.7c-2.6,0-4.7-2.1-4.7-4.7c0-2.6,2.1-4.7,4.7-4.7
		C314.2,256.2,316.3,258.2,316.3,260.9z M311.3,233c0,2.6-2.1,4.7-4.7,4.7s-4.7-2.1-4.7-4.7c0-2.6,2.1-4.7,4.7-4.7
		S311.3,230.4,311.3,233z M344.4,202.2c0,2.6-2.1,4.7-4.7,4.7c-2.6,0-4.7-2.1-4.7-4.7s2.1-4.7,4.7-4.7
		C342.3,197.5,344.4,199.6,344.4,202.2z M374,216.3c0,2.6-2.1,4.7-4.7,4.7c-2.6,0-4.7-2.1-4.7-4.7s2.1-4.7,4.7-4.7
		C371.8,211.5,374,213.5,374,216.3z M404.1,208.3c0,2.6-2.1,4.7-4.7,4.7c-2.6,0-4.7-2.1-4.7-4.7c0-2.6,2.1-4.7,4.7-4.7
		C402,203.6,404.1,205.7,404.1,208.3z M422.7,198.7c0,2.6-2.1,4.7-4.7,4.7s-4.7-2.1-4.7-4.7s2.1-4.7,4.7-4.7
		C420.7,193.9,422.7,196.1,422.7,198.7z M448.7,190.3c0,2.6-2.1,4.7-4.7,4.7c-2.6,0-4.7-2.1-4.7-4.7s2.1-4.7,4.7-4.7
		C446.7,185.5,448.7,187.6,448.7,190.3z M438.1,199.5c0,2.6-2.1,4.7-4.7,4.7s-4.7-2.1-4.7-4.7s2.1-4.7,4.7-4.7
		S438.1,196.9,438.1,199.5z M475.6,178.6c0,2.6-2.1,4.7-4.7,4.7s-4.7-2.1-4.7-4.7s2.1-4.7,4.7-4.7S475.6,176,475.6,178.6z
		 M500.9,193.7c0,2.6-2.1,4.7-4.7,4.7c-2.6,0-4.7-2.1-4.7-4.7s2.1-4.7,4.7-4.7C498.8,189,500.9,191.1,500.9,193.7z M558,286
		c0,2.6-2.1,4.7-4.7,4.7c-2.6,0-4.7-2.1-4.7-4.7s2.1-4.7,4.7-4.7C555.9,281.3,558,283.4,558,286z M550.8,312.7
		c0,2.6-2.1,4.7-4.7,4.7c-2.6,0-4.7-2.1-4.7-4.7s2.1-4.7,4.7-4.7C548.6,308,550.8,310.1,550.8,312.7z M537.8,302.1
		c0,2.6-2.1,4.7-4.7,4.7s-4.7-2.1-4.7-4.7c0-2.6,2.1-4.7,4.7-4.7S537.8,299.5,537.8,302.1z M537.8,332.9c0,2.6-2.1,4.7-4.7,4.7
		s-4.7-2.1-4.7-4.7c0-2.6,2.1-4.7,4.7-4.7S537.8,330.3,537.8,332.9z M519.5,354.7c0,2.6-2.1,4.7-4.7,4.7c-2.6,0-4.7-2.1-4.7-4.7
		c0-2.6,2.1-4.7,4.7-4.7C517.3,349.9,519.5,352.1,519.5,354.7z M512.3,380.2c0,2.6-2.1,4.7-4.7,4.7c-2.6,0-4.7-2.1-4.7-4.7
		c0-2.6,2.1-4.7,4.7-4.7C510.1,375.4,512.3,377.6,512.3,380.2z M496.9,370c0,2.6-2.1,4.7-4.7,4.7c-2.6,0-4.7-2.1-4.7-4.7
		c0-2.6,2.1-4.7,4.7-4.7C494.8,365.3,496.9,367.4,496.9,370z M478.8,348.6c0,2.6-2.1,4.7-4.7,4.7c-2.6,0-4.7-2.1-4.7-4.7
		s2.1-4.7,4.7-4.7C476.7,343.9,478.8,345.9,478.8,348.6z M434.2,341.8c0,2.6-2.1,4.7-4.7,4.7c-2.6,0-4.7-2.1-4.7-4.7
		c0-2.6,2.1-4.7,4.7-4.7C432.1,337.1,434.2,339.2,434.2,341.8z M470.6,304.7c0,2.6-2.1,4.7-4.7,4.7c-2.6,0-4.7-2.1-4.7-4.7
		c0-2.6,2.1-4.7,4.7-4.7C468.4,300,470.6,302.1,470.6,304.7z M507.5,266.8c0,2.6-2.1,4.7-4.7,4.7s-4.7-2.1-4.7-4.7s2.1-4.7,4.7-4.7
		S507.5,264.2,507.5,266.8z M369.2,252.5c0,2.6-2.1,4.7-4.7,4.7c-2.6,0-4.7-2.1-4.7-4.7s2.1-4.7,4.7-4.7
		C367.1,247.8,369.2,249.9,369.2,252.5z M434.2,265.6c0,2.6-2.1,4.7-4.7,4.7c-2.6,0-4.7-2.1-4.7-4.7s2.1-4.7,4.7-4.7
		C432.1,260.9,434.2,262.9,434.2,265.6z M418.3,339.3c0,2.6-2.1,4.7-4.7,4.7c-2.6,0-4.7-2.1-4.7-4.7s2.1-4.7,4.7-4.7
		C416.1,334.6,418.3,336.7,418.3,339.3z M505.2,397.2c0,2.6-2.1,4.7-4.7,4.7c-2.6,0-4.7-2.1-4.7-4.7s2.1-4.7,4.7-4.7
		C503,392.4,505.2,394.6,505.2,397.2z M560.8,440.5c0,2.6-2.1,4.7-4.7,4.7c-2.6,0-4.7-2.1-4.7-4.7c0-2.6,2.1-4.7,4.7-4.7
		C558.7,435.8,560.8,437.9,560.8,440.5z M389.2,470.3c0,2.6-2.1,4.7-4.7,4.7c-2.6,0-4.7-2.1-4.7-4.7c0-2.6,2.1-4.7,4.7-4.7
		C387.1,465.5,389.2,467.7,389.2,470.3z M393.6,443.6c0,2.6-2.1,4.7-4.7,4.7c-2.6,0-4.7-2.1-4.7-4.7c0-2.6,2.1-4.7,4.7-4.7
		C391.4,438.9,393.6,441,393.6,443.6z M554.4,377c0,2.6-2.1,4.7-4.7,4.7s-4.7-2.1-4.7-4.7s2.1-4.7,4.7-4.7S554.4,374.4,554.4,377z
		 M547.8,411.7c0,2.6-2.1,4.7-4.7,4.7c-2.6,0-4.7-2.1-4.7-4.7c0-2.6,2.1-4.7,4.7-4.7C545.7,407,547.8,409.1,547.8,411.7z M519.5,425
		c0,2.6-2.1,4.7-4.7,4.7c-2.6,0-4.7-2.1-4.7-4.7c0-2.6,2.1-4.7,4.7-4.7C517.3,420.3,519.5,422.4,519.5,425z M505.2,412.5
		c0,2.6-2.1,4.7-4.7,4.7c-2.6,0-4.7-2.1-4.7-4.7s2.1-4.7,4.7-4.7C503,407.8,505.2,409.9,505.2,412.5z M546.5,362
		c0,2.6-2.1,4.7-4.7,4.7c-2.6,0-4.7-2.1-4.7-4.7s2.1-4.7,4.7-4.7C544.4,357.3,546.5,359.4,546.5,362z M541.3,347.5
		c0,2.6-2.1,4.7-4.7,4.7s-4.7-2.1-4.7-4.7c0-2.6,2.1-4.7,4.7-4.7S541.3,344.9,541.3,347.5z M540.1,454.6c0,2.6-2.1,4.7-4.7,4.7
		c-2.6,0-4.7-2.1-4.7-4.7c0-2.6,2.1-4.7,4.7-4.7C538,449.8,540.1,452,540.1,454.6z M553,465c0,2.6-2.1,4.7-4.7,4.7
		c-2.6,0-4.7-2.1-4.7-4.7s2.1-4.7,4.7-4.7C550.9,460.2,553,462.4,553,465z M289.8,266.6c0,2.6-2.1,4.7-4.7,4.7
		c-2.6,0-4.7-2.1-4.7-4.7s2.1-4.7,4.7-4.7C287.6,261.8,289.8,264,289.8,266.6z M275.7,256.9c0,2.6-2.1,4.7-4.7,4.7s-4.7-2.1-4.7-4.7
		s2.1-4.7,4.7-4.7S275.7,254.3,275.7,256.9z M270.5,345.4c0,2.6-2.1,4.7-4.7,4.7c-2.6,0-4.7-2.1-4.7-4.7c0-2.6,2.1-4.7,4.7-4.7
		C268.4,340.7,270.5,342.8,270.5,345.4z M267.1,375.1c0,2.6-2.1,4.7-4.7,4.7c-2.6,0-4.7-2.1-4.7-4.7c0-2.6,2.1-4.7,4.7-4.7
		C265,370.4,267.1,372.5,267.1,375.1z M292.7,350.2c0,2.6-2.1,4.7-4.7,4.7s-4.7-2.1-4.7-4.7s2.1-4.7,4.7-4.7
		S292.7,347.6,292.7,350.2z M330.6,366.1c0,2.6-2.1,4.7-4.7,4.7s-4.7-2.1-4.7-4.7c0-2.6,2.1-4.7,4.7-4.7S330.6,363.5,330.6,366.1z
		 M348.6,402.5c0,2.6-2.1,4.7-4.7,4.7s-4.7-2.1-4.7-4.7c0-2.6,2.1-4.7,4.7-4.7C346.4,397.9,348.6,399.9,348.6,402.5z M346.3,448.5
		c0,2.6-2.1,4.7-4.7,4.7c-2.6,0-4.7-2.1-4.7-4.7s2.1-4.7,4.7-4.7C344.2,443.8,346.3,445.9,346.3,448.5z M321.6,452.2
		c0,2.6-2.1,4.7-4.7,4.7c-2.6,0-4.7-2.1-4.7-4.7s2.1-4.7,4.7-4.7C319.6,447.5,321.6,449.5,321.6,452.2z M324.8,434.3
		c0,2.6-2.1,4.7-4.7,4.7s-4.7-2.1-4.7-4.7c0-2.6,2.1-4.7,4.7-4.7C322.8,429.5,324.8,431.7,324.8,434.3z M316.9,397.8
		c0,2.6-2.1,4.7-4.7,4.7s-4.7-2.1-4.7-4.7s2.1-4.7,4.7-4.7C314.9,393.2,316.9,395.2,316.9,397.8z M278.7,221.2
		c0,2.6-2.1,4.7-4.7,4.7c-2.6,0-4.7-2.1-4.7-4.7s2.1-4.7,4.7-4.7C276.5,216.5,278.7,218.6,278.7,221.2z M324.6,177.5
		c0,2.6-2.1,4.7-4.7,4.7s-4.7-2.1-4.7-4.7c0-2.6,2.1-4.7,4.7-4.7S324.6,174.9,324.6,177.5z M319.9,163.9c0,2.6-2.1,4.7-4.7,4.7
		c-2.6,0-4.7-2.1-4.7-4.7s2.1-4.7,4.7-4.7C317.8,159.2,319.9,161.3,319.9,163.9z M340.5,159.2c0,2.6-2.1,4.7-4.7,4.7
		c-2.6,0-4.7-2.1-4.7-4.7s2.1-4.7,4.7-4.7C338.5,154.5,340.5,156.6,340.5,159.2z M397.8,161.1c0,2.6-2.1,4.7-4.7,4.7
		s-4.7-2.1-4.7-4.7s2.1-4.7,4.7-4.7C395.8,156.4,397.8,158.5,397.8,161.1z M410.9,177.3c0,2.6-2.1,4.7-4.7,4.7
		c-2.6,0-4.7-2.1-4.7-4.7c0-2.6,2.1-4.7,4.7-4.7C408.8,172.6,410.9,174.7,410.9,177.3z M316.5,168.4l1.8,4.6 M391.4,193.2l11.6-12.4
		"/>
	
		<radialGradient id="SVGID_2_" cx="178.6362" cy="825.9396" r="0" gradientTransform="matrix(1 0 0 -1 0 1116)" gradientUnits="userSpaceOnUse">
		<stop  offset="0" style="stop-color:#27AAE1"/>
		<stop  offset="0.1987" style="stop-color:#2AABE1"/>
		<stop  offset="0.3466" style="stop-color:#33AEE1"/>
		<stop  offset="0.4781" style="stop-color:#44B3E2"/>
		<stop  offset="0.6001" style="stop-color:#5ABAE3"/>
		<stop  offset="0.7154" style="stop-color:#78C4E4"/>
		<stop  offset="0.8259" style="stop-color:#9CCFE5"/>
		<stop  offset="0.9305" style="stop-color:#C6DDE7"/>
		<stop  offset="1" style="stop-color:#E6E7E8"/>
	</radialGradient>
	<path class="worldstream3" d="M178.6,290.1C178.5,290.1,178.5,290.1,178.6,290.1z"/>
	<path class="worldstream2" d="M227.5,234.1c0,2.6-2.1,4.7-4.7,4.7c-2.6,0-4.7-2.1-4.7-4.7s2.1-4.7,4.7-4.7
		C225.4,229.4,227.5,231.5,227.5,234.1z M199.4,503.6c0,2.6-2.1,4.7-4.7,4.7c-2.6,0-4.7-2.1-4.7-4.7c0-2.6,2.1-4.7,4.7-4.7
		C197.4,498.9,199.4,501,199.4,503.6z M168,490.6c0,2.6-2.1,4.7-4.7,4.7c-2.6,0-4.7-2.1-4.7-4.7c0-2.6,2.1-4.7,4.7-4.7
		C165.9,485.9,168,488,168,490.6z M188.8,477.1c0,2.6-2.1,4.7-4.7,4.7s-4.7-2.1-4.7-4.7s2.1-4.7,4.7-4.7S188.8,474.4,188.8,477.1z
		 M207,410c0,2.6-2.1,4.7-4.7,4.7s-4.7-2.1-4.7-4.7c0-2.6,2.1-4.7,4.7-4.7C204.9,405.4,207,407.4,207,410z M178.6,385.2
		c0,2.6-2.1,4.7-4.7,4.7s-4.7-2.1-4.7-4.7c0-2.6,2.1-4.7,4.7-4.7C176.6,380.5,178.6,382.6,178.6,385.2z M151.2,386.9
		c0,2.6-2.1,4.7-4.7,4.7s-4.7-2.1-4.7-4.7c0-2.6,2.1-4.7,4.7-4.7S151.2,384.3,151.2,386.9z M134.1,376.2c0,2.6-2.1,4.7-4.7,4.7
		c-2.6,0-4.7-2.1-4.7-4.7c0-2.6,2.1-4.7,4.7-4.7C132,371.4,134.1,373.6,134.1,376.2z M111.9,333.9c0,2.6-2.1,4.7-4.7,4.7
		c-2.6,0-4.7-2.1-4.7-4.7c0-2.6,2.1-4.7,4.7-4.7C109.9,329.1,111.9,331.3,111.9,333.9z M146.5,338.6c0,2.6-2.1,4.7-4.7,4.7
		s-4.7-2.1-4.7-4.7s2.1-4.7,4.7-4.7S146.5,336,146.5,338.6z M159.7,313.3c0,2.6-2.1,4.7-4.7,4.7s-4.7-2.1-4.7-4.7
		c0-2.6,2.1-4.7,4.7-4.7S159.7,310.7,159.7,313.3z M168.5,236.1c0,2.6-2.1,4.7-4.7,4.7c-2.6,0-4.7-2.1-4.7-4.7s2.1-4.7,4.7-4.7
		C166.4,231.4,168.5,233.5,168.5,236.1z M158.6,266.8c0,2.6-2.1,4.7-4.7,4.7c-2.6,0-4.7-2.1-4.7-4.7s2.1-4.7,4.7-4.7
		C156.4,262.1,158.6,264.2,158.6,266.8z M134.5,245.7c0,2.6-2.1,4.7-4.7,4.7c-2.6,0-4.7-2.1-4.7-4.7s2.1-4.7,4.7-4.7
		C132.3,240.9,134.5,243.1,134.5,245.7z M158.7,193.2c0,2.6-2.1,4.7-4.7,4.7s-4.7-2.1-4.7-4.7c0-2.6,2.1-4.7,4.7-4.7
		S158.7,190.6,158.7,193.2z M154.4,215.8c0,2.6-2.1,4.7-4.7,4.7c-2.6,0-4.7-2.1-4.7-4.7c0-2.6,2.1-4.7,4.7-4.7
		C152.4,211.1,154.4,213.1,154.4,215.8z M184.5,202.6c0,2.6-2.1,4.7-4.7,4.7c-2.6,0-4.7-2.1-4.7-4.7s2.1-4.7,4.7-4.7
		C182.4,197.8,184.5,200,184.5,202.6z M184.5,226.4c0,2.6-2.1,4.7-4.7,4.7c-2.6,0-4.7-2.1-4.7-4.7c0-2.6,2.1-4.7,4.7-4.7
		C182.4,221.7,184.5,223.8,184.5,226.4z M101.5,270.8c0,2.6-2.1,4.7-4.7,4.7c-2.6,0-4.7-2.1-4.7-4.7s2.1-4.7,4.7-4.7
		C99.4,266.1,101.5,268.2,101.5,270.8z M124.9,288.9c0,2.6-2.1,4.7-4.7,4.7s-4.7-2.1-4.7-4.7s2.1-4.7,4.7-4.7
		S124.9,286.3,124.9,288.9z M172.7,412.1c0,2.6-2.1,4.7-4.7,4.7c-2.6,0-4.7-2.1-4.7-4.7c0-2.6,2.1-4.7,4.7-4.7
		C170.6,407.3,172.7,409.5,172.7,412.1z M202.3,439.5c0,2.6-2.1,4.7-4.7,4.7s-4.7-2.1-4.7-4.7c0-2.6,2.1-4.7,4.7-4.7
		C200.1,434.8,202.3,436.9,202.3,439.5z M221.5,212.9c0,2.6-2.1,4.7-4.7,4.7c-2.6,0-4.7-2.1-4.7-4.7s2.1-4.7,4.7-4.7
		C219.4,208.2,221.5,210.2,221.5,212.9z M257.5,206.4c0,2.6-2.1,4.7-4.7,4.7c-2.6,0-4.7-2.1-4.7-4.7c0-2.6,2.1-4.7,4.7-4.7
		C255.4,201.7,257.5,203.9,257.5,206.4z M273.9,172.9c0,2.6-2.1,4.7-4.7,4.7s-4.7-2.1-4.7-4.7s2.1-4.7,4.7-4.7
		S273.9,170.3,273.9,172.9z M285.7,159c0,2.6-2.1,4.7-4.7,4.7c-2.6,0-4.7-2.1-4.7-4.7s2.1-4.7,4.7-4.7
		C283.6,154.3,285.7,156.4,285.7,159z M276.2,148.7c0,2.6-2.1,4.7-4.7,4.7c-2.6,0-4.7-2.1-4.7-4.7s2.1-4.7,4.7-4.7
		C274.1,144,276.2,146,276.2,148.7z M240.2,151.2c0,2.6-2.1,4.7-4.7,4.7c-2.6,0-4.7-2.1-4.7-4.7s2.1-4.7,4.7-4.7
		C238,146.5,240.2,148.6,240.2,151.2z M205,163.7c0,2.6-2.1,4.7-4.7,4.7s-4.7-2.1-4.7-4.7s2.1-4.7,4.7-4.7S205,161.1,205,163.7z
		 M193.9,176.9c0,2.6-2.1,4.7-4.7,4.7c-2.6,0-4.7-2.1-4.7-4.7s2.1-4.7,4.7-4.7C191.7,172.2,193.9,174.2,193.9,176.9z M214.4,186.1
		c0,2.6-2.1,4.7-4.7,4.7s-4.7-2.1-4.7-4.7s2.1-4.7,4.7-4.7S214.4,183.5,214.4,186.1z M246.7,172.2c0,2.6-2.1,4.7-4.7,4.7
		c-2.6,0-4.7-2.1-4.7-4.7s2.1-4.7,4.7-4.7C244.5,167.5,246.7,169.5,246.7,172.2z M221.9,229.4l-3.1-12.2 M219.6,209.2l9.1-9.7
		 M227.5,192.8l-13.5-4.7 M226.7,230.8l23-20.7 M255.9,202.9l5.9-8.1 M266.5,186.6l1.8-9 M264.5,172.9l-17.8-0.7 M271.8,169l6-6.5
		 M266.9,149.5L240,150 M236.7,155.9l4.1,11.6 M231.4,153.4l-26.5,8.3 M197.4,167.5l-5.1,5.4 M205.8,183.5l-12.5-4.3 M238.2,175.2
		l-25,7.7 M240.2,176.9l-6.1,13.5 M173.3,550.7l-11.6-23.6 M163.5,520l26.5-16.4 M190,503.6l-23.1-9.9 M166,486.7l14.6-6.4
		 M181.2,473.2l-19.8-22.7 M188.8,475.2l26.3-9.2 M215.1,466l-14.6-22.1 M201.4,436.7l24.9-10.5 M226.8,421.5l-20.2-9 M159.9,442.3
		l5.6-26.3 M165.4,415.9l-17.2,2.2 M143.7,412.1l2-20.4 M151.2,386.9l18-1.7 M177.7,388.2l20.9,19 M171.3,415.4l22.1,22
		 M141.8,386.9l-9.1-7.3 M127.3,371.4l-3.5-9.4 M117.2,357.6l-15.7,1.1 M97.9,353.9l7.2-15.8 M102.5,333.9l-12.6,2.5 M84.1,314.5
		l11.1-39.3 M99.4,266.8l27.3-17.6 M133.8,250.4l16.4,13.5 M156,262.5l7.8-21.7 M166.8,239.8l29.3,35.8 M177.7,280.5l-10.9-40.7
		 M153.8,271.5l1.2,37.1 M152.4,317.2l-8.3,17.4 M110.7,330.8l26.9,5.6 M100.2,274l15.9,12.4 M123.4,285.5l26.9-15.5 M123.2,292.4
		l27.9,18.3 M118.2,293.2l-11,35.9 M129.7,240.9l-0.7-21.4 M133.8,214.8l11.2,0.9 M149.7,211.1l4.3-13.1 M158.7,193.2l16.4,7
		 M179.8,207.3v14.4 M329.6,483.7l6.5,5.4 M343.9,487.2l4.7-8.9 M348.6,470l-7-16.8 M354.1,468.9l9-14.3 M325.9,475.9l-9-19
		 M316.9,447.5l3.2-8.5 M324.8,436.6l12,8.5 M320.1,429.5l21.5-22.8 M312.2,402.6l7.9,26.9 M348.6,405l18.2,7.7 M343.9,444.4
		l27.6-27 M365.2,445.1l6.3-27.8 M371.5,407.9l19.2-21.7 M381.1,380.2l5.1,0.6 M373.4,375.2l-9.9-30.7 M380.6,364.9l-17.1-20.4
		 M388,365.5l17.4-9.9 M405,348.6l-10.3-16.5 M409.6,336.6l-14.9-4.5 M418.3,339.3l6.7,1.1 M432,345.8l14.3,35.3 M451.8,382.2
		l19.1-30.1 M477.7,351.6l11,15.2 M495,373.8l2.7,19.5 M504,377.1l-9-3.3 M509.2,375.4l4.4-16.2 M517.1,350.5l13.3-13.7
		 M531.5,328.4l1.5-21.6 M537.1,304.6l5.7,4.8 M547.4,308.2l4.3-17.8 M551,281.9l-22.4-46.4 M523.9,227.4l-24.8-29.9 M492.8,190.5
		l-18.4-8.7 M470.9,183.3L465,219 M465.6,180.7l-18,6.4 M440.2,193l-3.7,3 M436.1,203.4l24,17.5 M428.6,199.5l-5.9-0.8 M413.3,201.3
		l-9.9,4.6 M394.9,209.9l-21.1,4.8 M365,214.2l-21.4-9.4 M335.8,204.8l-26.3,24.6 M307.4,237.6l3,18.7 M283.6,243.9l0.8,3.9
		 M286.2,257.2l-1.2,4.6 M296.7,274.9l12.2-10.3 M293.1,283.6v5.4 M288.3,294.7l-8.7,2 M279.4,301.3l2.2,2.2 M313.1,296.4l5,3.2
		 M325.5,299.7l6.7-1.9 M339,298.6l3.5,8 M350,310.4l6,0.9 M361.2,316.7l1.9,2.5 M358.8,326.1l-23.7,3.9 M326.6,328.9l-13.9-10.3
		 M304.9,315.1l-18.9,3 M279.3,323.5l-11.1,18 M283.3,323.8l4.7,21.6 M292.1,352.5l29.8,11.2 M330.6,336.1l-4.7,25.3 M356,344.1
		l-25.4,19.2 M328.3,370.4l12.5,26.7 M323.2,370.8l-8.9,22.3 M306.9,397.1l-17.4-4.7 M279.5,390.1l-13.7-11.9 M262.4,370.4l3.4-20.2
		 M270,347.6l13.2,1.2 M316.3,260.9l43.5-8.4 M369.2,221l-4.7,26.8 M369.2,252.5l55.5,13.1 M364.5,257.2l-3.8,49.4 M432.8,268.9
		l31.1,30.8 M469.4,301.6l30.1-31.3 M506,270.3l23.3,29.1 M522.6,233.8l-17.8,28.2 M491.5,197.5L468,220.4 M467.6,226.5l30.5,36.5
		 M460.1,226.5l-28.2,34.4 M431.7,337.7l29.6-29.6 M465.8,309.4l8.3,34.5 M469.9,307.1l41.6,44.3 M434.2,341.8l35.2,6.8
		 M478.8,348.6l31.2,6 M470.6,304.7l57.7-2.6 M388.8,323.8l-22-67.2 M367.8,324l18.9,4.7 M523.9,489.9l-3-17.1 M524.4,464.7l7.6-6.8
		 M539.2,451.9l13.8-7.7 M556.1,445.2l-6.4,15 M546.1,469.2l-4.8,10.5 M530.7,492.6l4.7-4.5 M535.4,479.7l-10.5-9 M543.5,465
		l-18.7,5.8 M544.5,462.1l-5.4-4.5 M523.7,407.3l6.4-8.6 M388.8,448.3l-4.4,17.2 M177.7,550.9l15.1-43 M159.7,518.1l2.4-22.9
		 M163.3,485.9l-1.9-35.3 M197.5,499.8l19.2-27.6 M221,463.4l10-35.1 M145.7,421.5l10,21.5 M158.1,309.8l18.3-22 M96.8,266.1
		l29.9-47.1"/>
	<circle id="svg-concept" class="worldstream4" cx="231.1" cy="423.6" r="4.7"/>
	<circle id="svg-concept" class="worldstream4" cx="219.3" cy="468.1" r="4.7"/>
	<circle id="svg-concept" class="worldstream4" cx="175.2" cy="554.9" r="4.7"/>
	<circle id="svg-concept" class="worldstream4" cx="159.9" cy="522.8" r="4.7"/>
	<circle id="svg-concept" class="worldstream4" cx="143.7" cy="416.8" r="4.7"/>
	<circle id="svg-concept" class="worldstream4" cx="158.6" cy="446.8" r="4.7"/>
	<path id="svg-concept" class="worldstream4" d="M202.4,279.9c0,2.6-2.1,4.7-4.7,4.7c-2.6,0-4.7-2.1-4.7-4.7s2.1-4.7,4.7-4.7
		C200.2,275.3,202.4,277.3,202.4,279.9z"/>
	<circle id="svg-concept" class="worldstream4" cx="129" cy="214.8" r="4.7"/>
	<path id="svg-concept" class="worldstream4" d="M184.5,284.6c0,2.6-2.1,4.7-4.7,4.7c-2.6,0-4.7-2.1-4.7-4.7s2.1-4.7,4.7-4.7C182.4,280,184.5,282,184.5,284.6z
		"/>
	<circle id="svg-concept" class="worldstream4" cx="122" cy="357.6" r="4.7"/>
	<circle id="svg-concept" class="worldstream4" cx="96.8" cy="358.7" r="4.7"/>
	<circle id="svg-concept" class="worldstream4" cx="264.5" cy="190.9" r="4.7"/>
	<circle id="svg-concept" class="worldstream4" cx="231.4" cy="195.6" r="4.7"/>
	<circle id="svg-concept" class="worldstream4" cx="351.8" cy="473.6" r="4.7"/>
	<circle id="svg-concept" class="worldstream4" cx="309.6" cy="315.1" r="4.7"/>
	<circle id="svg-concept" class="worldstream4" cx="284.2" cy="392.2" r="4.7"/>
	<path id="svg-concept" class="worldstream4" d="M280.1,298.8c0,2.6-2.1,4.7-4.7,4.7c-2.6,0-4.7-2.1-4.7-4.7c0-2.6,2.1-4.7,4.7-4.7
		C278,294.1,280.1,296.1,280.1,298.8L280.1,298.8z"/>
	<circle class="worldstream2" cx="286.2" cy="304.6" r="4.7"/>
	<circle id="svg-concept" class="worldstream4" cx="293.1" cy="293.7" r="4.7"/>
	<circle id="svg-concept" class="worldstream4" cx="294.3" cy="279.1" r="4.7"/>
	<line id="svg-concept" class="worldstream4" x1="297.6" y1="292.3" x2="304.9" y2="292.2"/>
	<circle id="svg-concept" class="worldstream4" cx="526.4" cy="494.6" r="4.7"/>
	<circle id="svg-concept" class="worldstream4" cx="538.4" cy="484.4" r="4.7"/>
	<circle id="svg-concept" class="worldstream4" cx="521" cy="468" r="4.7"/>
	<circle id="svg-concept" class="worldstream4" cx="335.9" cy="295" r="4.7"/>
	<circle id="svg-concept" class="worldstream4" cx="448.7" cy="385.8" r="4.7"/>
	<circle id="svg-concept" class="worldstream4" cx="391.4" cy="328.7" r="4.7"/>
	<circle id="svg-concept" class="worldstream4" cx="522.1" cy="411.7" r="4.7"/>
	<circle id="svg-concept" class="worldstream4" cx="532" cy="394.3" r="4.7"/>
	<circle id="svg-concept" class="worldstream4" cx="286.2" cy="252.5" r="4.7"/>
	<circle id="svg-concept" class="worldstream4" cx="282.6" cy="239.3" r="4.7"/>
	<circle id="svg-concept" class="worldstream4" cx="526.5" cy="231.2" r="4.7"/>
	<path id="svg-concept" class="worldstream4" d="M468.6,223.7c0,2.6-2.1,4.7-4.7,4.7c-2.6,0-4.7-2.1-4.7-4.7c0-2.6,2.1-4.7,4.7-4.7
		C466.4,219,468.6,221.1,468.6,223.7z M393.1,196.9c0,2.6-2.1,4.7-4.7,4.7c-2.6,0-4.7-2.1-4.7-4.7c0-2.6,2.1-4.7,4.7-4.7
		C391.1,192.2,393.1,194.3,393.1,196.9z M457.1,163.9c0,2.6-2.1,4.7-4.7,4.7c-2.6,0-4.7-2.1-4.7-4.7s2.1-4.7,4.7-4.7
		C455,159.2,457.1,161.3,457.1,163.9z"/>
	<path id="svg-concept" class="worldstream5" d="M5.3,367.1v-49.5c0-168.2,142.3-304.6,317.8-304.6s317.8,136.4,317.8,304.6V366"/>
	<path id="svg-concept" class="worldstream5" d="M89.9,399.5c0,19.3-15.7,35-35,35l0,0c-19.3,0-35-15.7-35-35v-64.5c0-19.3,15.7-35,35-35l0,0
		c19.3,0,35,15.7,35,35V399.5z"/>
	<path id="svg-concept" class="worldstream5" d="M626.2,399.5c0,19.3-15.7,35-35,35l0,0c-19.3,0-35-15.7-35-35v-64.5c0-19.3,15.7-35,35-35l0,0
		c19.3,0,35,15.7,35,35V399.5z"/>
</g>
<g>
	<path id="svg-ico" class="worldstream6" d="M73.7,446c0,3.9-3.2,7.1-7.1,7.1c-3.9,0-7.1-3.2-7.1-7.1s3.2-7.1,7.1-7.1
		C70.6,439,73.7,442.2,73.7,446z"/>
		<animateTransform  attributeName="transform" dur="2s" repeatCount="indefinite" restart="always" from="0 323 365" to="-145 323 365" type="rotate">
		</animateTransform>
</g>
</svg>
