<?xml version="1.0" encoding="utf-8"?>
<!-- Generator: Adobe Illustrator 24.3.0, SVG Export Plug-In . SVG Version: 6.00 Build 0)  -->
<svg version="1.1" id="WordPress" xmlns="http://www.w3.org/2000/svg" xmlns:xlink="http://www.w3.org/1999/xlink" x="0px" y="0px"
	 viewBox="0 0 155.9 56.7" style="enable-background:new 0 0 155.9 56.7;" xml:space="preserve">
<style type="text/css">
	.st0{fill-rule:evenodd;clip-rule:evenodd;fill:#4E5157;}
	.st1{fill:#93989E;}
</style>
<polygon class="st0" points="10.8,2.8 16.2,2.8 16.2,25.3 10.8,25.3 "/>
<polygon class="st0" points="17.9,2.8 19.6,2.8 19.6,25.3 17.9,25.3 "/>
<polygon class="st0" points="21.1,2.8 24.1,2.8 24.1,25.3 21.1,25.3 "/>
<polygon class="st0" points="27,2.8 28.7,2.8 28.7,25.3 27,25.3 "/>
<polygon class="st0" points="29.4,2.8 30.7,2.8 30.7,25.3 29.4,25.3 "/>
<polygon class="st0" points="6.6,2.8 8.3,2.8 8.3,53.8 6.6,53.8 "/>
<polygon class="st0" points="2.9,2.8 5.9,2.8 5.9,53.8 2.9,53.8 "/>
<polygon class="st0" points="39.7,2.8 45.2,2.8 45.2,25.3 39.7,25.3 "/>
<polygon class="st0" points="46.9,2.8 48.6,2.8 48.6,25.3 46.9,25.3 "/>
<polygon class="st0" points="50.1,2.8 53.1,2.8 53.1,25.3 50.1,25.3 "/>
<polygon class="st0" points="56,2.8 57.7,2.8 57.7,25.3 56,25.3 "/>
<polygon class="st0" points="58.4,2.8 59.7,2.8 59.7,25.3 58.4,25.3 "/>
<polygon class="st0" points="35.6,2.8 37.3,2.8 37.3,25.3 35.6,25.3 "/>
<polygon class="st0" points="31.9,2.8 34.9,2.8 34.9,25.3 31.9,25.3 "/>
<polygon class="st0" points="61.8,2.8 64.9,2.8 64.9,25.3 61.8,25.3 "/>
<polygon class="st0" points="67.8,2.8 69.5,2.8 69.5,25.3 67.8,25.3 "/>
<polygon class="st0" points="70.2,2.8 71.5,2.8 71.5,25.3 70.2,25.3 "/>
<polygon class="st0" points="76.4,2.8 78.1,2.8 78.1,25.3 76.4,25.3 "/>
<polygon class="st0" points="72.6,2.8 75.7,2.8 75.7,25.3 72.6,25.3 "/>
<polygon class="st0" points="80.3,2.8 82,2.8 82,25.3 80.3,25.3 "/>
<polygon class="st0" points="82.7,2.8 84,2.8 84,25.3 82.7,25.3 "/>
<polygon class="st0" points="88.9,2.8 90.6,2.8 90.6,25.3 88.9,25.3 "/>
<polygon class="st0" points="85.2,2.8 88.2,2.8 88.2,25.3 85.2,25.3 "/>
<polygon class="st0" points="92,2.8 97.5,2.8 97.5,25.3 92,25.3 "/>
<polygon class="st0" points="99.2,2.8 100.9,2.8 100.9,25.3 99.2,25.3 "/>
<polygon class="st0" points="102.4,2.8 105.4,2.8 105.4,25.3 102.4,25.3 "/>
<polygon class="st0" points="108.3,2.8 110,2.8 110,25.3 108.3,25.3 "/>
<polygon class="st0" points="110.7,2.8 112,2.8 112,25.3 110.7,25.3 "/>
<polygon class="st0" points="114.1,2.8 117.2,2.8 117.2,53.8 114.1,53.8 "/>
<path class="st1" d="M11,52.8V27h9.7c2,0,3.6,0.3,4.8,0.8c1.2,0.5,2.1,1.3,2.8,2.4c0.7,1.1,1,2.2,1,3.4c0,1.1-0.3,2.1-0.9,3.1
	s-1.5,1.8-2.7,2.4c1.6,0.5,2.8,1.2,3.6,2.3c0.8,1.1,1.3,2.4,1.3,3.9c0,1.2-0.3,2.3-0.8,3.4c-0.5,1-1.1,1.8-1.9,2.4
	c-0.8,0.6-1.7,1-2.8,1.3c-1.1,0.3-2.5,0.4-4.2,0.4L11,52.8L11,52.8z M14.5,37.8H20c1.5,0,2.6-0.1,3.3-0.3c0.9-0.3,1.5-0.7,2-1.3
	c0.4-0.6,0.7-1.4,0.7-2.3c0-0.9-0.2-1.6-0.6-2.3s-1-1.1-1.8-1.3c-0.8-0.2-2.1-0.4-3.9-0.4h-5.2L14.5,37.8L14.5,37.8z M14.5,49.8h6.4
	c1.1,0,1.9,0,2.3-0.1c0.8-0.1,1.4-0.4,2-0.7s1-0.8,1.3-1.4c0.3-0.6,0.5-1.4,0.5-2.2c0-1-0.2-1.8-0.7-2.5s-1.2-1.2-2.1-1.5
	S22.1,41,20.4,41h-6v8.8H14.5z"/>
<path class="st1" d="M33.7,43.4c0-3.5,1-6,2.9-7.7c1.6-1.4,3.6-2.1,5.9-2.1c2.6,0,4.7,0.8,6.3,2.5s2.4,4,2.4,7
	c0,2.4-0.4,4.3-1.1,5.7c-0.7,1.4-1.8,2.4-3.2,3.2s-2.9,1.1-4.5,1.1c-2.6,0-4.7-0.8-6.4-2.5C34.5,49,33.7,46.6,33.7,43.4L33.7,43.4z
	 M36.9,43.4c0,2.4,0.5,4.2,1.6,5.4s2.4,1.8,4,1.8s2.9-0.6,3.9-1.8s1.6-3,1.6-5.5c0-2.3-0.5-4.1-1.6-5.2c-1.1-1.2-2.4-1.8-3.9-1.8
	c-1.6,0-2.9,0.6-4,1.8C37.4,39.3,36.9,41,36.9,43.4L36.9,43.4z"/>
<polygon class="st1" points="54.8,52.8 54.8,27 58,27 58,52.8 "/>
<path class="st1" d="M75.7,46.7l3.3,0.4c-0.5,1.9-1.5,3.4-2.9,4.4c-1.4,1.1-3.2,1.6-5.3,1.6c-2.7,0-4.9-0.8-6.5-2.5s-2.4-4-2.4-7.1
	s0.8-5.6,2.4-7.3c1.6-1.7,3.7-2.6,6.3-2.6c2.5,0,4.5,0.8,6.1,2.6c1.6,1.7,2.4,4.1,2.4,7.2c0,0.2,0,0.5,0,0.8h-14
	c0.1,2.1,0.7,3.6,1.7,4.7c1,1.1,2.3,1.6,3.9,1.6c1.2,0,2.2-0.3,3-0.9C74.6,49.1,75.2,48.1,75.7,46.7L75.7,46.7z M65.3,41.6h10.4
	c-0.1-1.6-0.5-2.8-1.2-3.5c-1-1.2-2.3-1.8-3.9-1.8c-1.5,0-2.7,0.5-3.7,1.5C66,38.7,65.4,40,65.3,41.6L65.3,41.6z"/>
<path class="st1" d="M89.9,50l0.4,2.8c-0.9,0.2-1.7,0.3-2.4,0.3c-1.1,0-2-0.2-2.7-0.5c-0.6-0.4-1.1-0.8-1.3-1.4
	c-0.3-0.6-0.4-1.8-0.4-3.8V36.5h-2.3V34h2.3v-4.6l3.2-1.9V34h3.2v2.5h-3.2v11c0,0.9,0.1,1.5,0.2,1.8s0.3,0.5,0.5,0.6
	c0.3,0.2,0.6,0.2,1.1,0.2C88.9,50.1,89.3,50,89.9,50L89.9,50z"/>
<path class="st1" d="M91.8,43.4c0-3.5,1-6,2.9-7.7c1.6-1.4,3.6-2.1,5.9-2.1c2.6,0,4.7,0.8,6.3,2.5c1.6,1.7,2.4,4,2.4,7
	c0,2.4-0.4,4.3-1.1,5.7s-1.8,2.4-3.2,3.2c-1.4,0.8-2.9,1.1-4.5,1.1c-2.6,0-4.7-0.8-6.4-2.5C92.6,49,91.8,46.6,91.8,43.4L91.8,43.4z
	 M95.1,43.4c0,2.4,0.5,4.2,1.6,5.4s2.4,1.8,4,1.8s2.9-0.6,3.9-1.8s1.6-3,1.6-5.5c0-2.3-0.5-4.1-1.6-5.2c-1.1-1.2-2.4-1.8-3.9-1.8
	c-1.6,0-2.9,0.6-4,1.8C95.6,39.3,95.1,41,95.1,43.4L95.1,43.4z"/>
</svg>
