<?xml version="1.0" encoding="utf-8"?>
<!-- Generator: Adobe Illustrator 24.3.0, SVG Export Plug-In . SVG Version: 6.00 Build 0)  -->
<svg version="1.1" id="Layer_1" xmlns="http://www.w3.org/2000/svg" xmlns:xlink="http://www.w3.org/1999/xlink" x="0px" y="0px"
	 viewBox="0 0 100 100" style="enable-background:new 0 0 100 100;" xml:space="preserve">
<style type="text/css">
	.centos0{fill:#EE5586;}
</style>
<path id="svg-ico" class="centos0" d="M64.2,15l6.9,7L54.4,38.7V15H64.2z M28.6,22l16.7,16.8V15h-9.8L28.6,22z M37.7,12.8h9.8v28l2.4,2.4l2.4-2.4v-28
	H62L49.8,0.6L37.7,12.8z M43.4,49.7L41,47.3H12.9v-9.8L0.7,49.7l12.2,12.2v-9.8h28.2L43.4,49.7L43.4,49.7z M60.8,45.2h23.7v-9.8
	l-6.9-7L60.8,45.2z M98.8,49.7L86.6,37.5v9.8h-28l-2.4,2.4l2.4,2.4h28v9.8L98.8,49.7L98.8,49.7z M15,32.3l7.1-7L42,45.2h3.4v-3.4
	L25.5,22l6.9-7H15V32.3z M84.5,15H67.3l6.9,7L54.4,41.8v3.4h3.4l19.8-19.8l6.9,7C84.5,32.4,84.5,15,84.5,15z M45.3,84.4V60.7
	L28.6,77.5l6.9,7L45.3,84.4L45.3,84.4z M15,45.2h23.9L22.2,28.4l-7.1,7L15,45.2z M84.5,67.1l-6.9,7L57.7,54.2h-3.4v3.4l19.8,19.8
	l-6.9,7h17.2V67.1H84.5z M84.5,54.2H60.8L77.5,71l6.9-7L84.5,54.2L84.5,54.2z M71.1,77.4L54.4,60.7v23.7h9.8L71.1,77.4z M22.2,71
	l16.7-16.8H15V64L22.2,71z M62,86.6h-9.8v-28l-2.4-2.4l-2.4,2.4v28h-9.8l12.2,12.2L62,86.6z M25.5,77.4l19.8-19.8v-3.4H42L22.2,74.1
	l-7.1-7v17.3h17.4L25.5,77.4z"/>
</svg>
