<?xml version="1.0" encoding="utf-8"?>
<!-- Generator: Adobe Illustrator 24.3.0, SVG Export Plug-In . SVG Version: 6.00 Build 0)  -->
<svg version="1.1" id="Layer_1" xmlns="http://www.w3.org/2000/svg" xmlns:xlink="http://www.w3.org/1999/xlink" x="0px" y="0px"
	 viewBox="0 0 100 100" style="enable-background:new 0 0 100 100;" xml:space="preserve">
<style type="text/css">
	.coreos0{fill:#EE5586;}
</style>
<g>
	<path id="svg-ico" class="coreos0" d="M67,35.6c-4.1-4.8-10.2-7.9-17-7.9c-2.2,0-4.2,3.4-5.4,8.6c-0.5,2.1-0.9,4.5-1.1,7.1c-0.2,2.1-0.3,4.3-0.3,6.6
		s0.1,4.5,0.3,6.6c2.1,0.2,4.3,0.3,6.6,0.3c2.3,0,4.5-0.1,6.6-0.3c4.6-0.4,8.5-1.3,11.3-2.5c2.8-1.1,4.4-2.6,4.4-4.1
		c-0.1-4.6-1.6-8.9-4-12.5C68,36.8,67.5,36.2,67,35.6z"/>
	<path id="svg-ico" class="coreos0" d="M50,1C23,1,1,23,1,50s22,49,49,49s49-22,49-49S77,1,50,1z M68.4,62.5c-0.4,0.1-0.8,0.1-1.2,0.2
		c-3.7,0.5-7.7,0.8-11.8,1c-1.8,0.1-3.6,0.1-5.4,0.1s-3.6,0-5.4-0.1c-4.2-0.2-8.1-0.5-11.8-1c-0.4-2.8-0.6-5.6-0.7-8.6
		C32,52.7,32,51.4,32,50s0-2.7,0.1-4.1c0.1-3,0.4-5.8,0.7-8.6c0-0.6,0.1-1.1,0.2-1.7c2.4-17.5,9.1-30.1,17-30.1
		c24.6,0,44.5,19.9,44.5,44.5C94.5,55.6,83.8,60.3,68.4,62.5z"/>
</g>
</svg>
