<?xml version="1.0" encoding="utf-8"?>
<!-- Generator: Adobe Illustrator 24.3.0, SVG Export Plug-In . SVG Version: 6.00 Build 0)  -->
<svg version="1.1" id="Layer_1" xmlns="http://www.w3.org/2000/svg" xmlns:xlink="http://www.w3.org/1999/xlink" x="0px" y="0px"
	 viewBox="0 0 100 100" style="enable-background:new 0 0 100 100;" xml:space="preserve">
<style type="text/css">
	.cpanel0{fill:#EE5586;}
</style>
<g>
	<path id="svg-ico" class="cpanel0" d="M99,36.3C96.4,24.7,86.4,17,75.1,17H57.8c-3.3,0-5.9,2.1-6.7,5.1L34.7,83h11.6c3.2,0,5.8-2.1,6.7-5l12-44.9
		h9.3c3.9,0,7.6,2.6,8.6,6.9c1.2,5.1-2.8,10.6-8.6,10.6h-4.8c-3.3,0-5.9,2.2-6.7,5.1l-3,11.2h15C92.2,66.9,102.1,49.9,99,36.3
		L99,36.3z"/>
	<path id="svg-ico" class="cpanel0" d="M25.7,49.4h8.7c3.2,0,5.8-2.1,6.7-5.1L44,33.2H25.2c-10.7,0-20.6,6.6-24,19.3C-2.8,68.3,9.1,83,24.8,83h5.8
		L34,70.8c0.6-2.1-1-3.9-3-3.9h-5.3C14.1,66.9,14,49.4,25.7,49.4L25.7,49.4z"/>
</g>
</svg>
