<?xml version="1.0" encoding="utf-8"?>
<!-- Generator: Adobe Illustrator 24.3.0, SVG Export Plug-In . SVG Version: 6.00 Build 0)  -->
<svg version="1.1" id="Layer_1" xmlns="http://www.w3.org/2000/svg" xmlns:xlink="http://www.w3.org/1999/xlink" x="0px" y="0px"
	 viewBox="0 0 100 100" style="enable-background:new 0 0 100 100;" xml:space="preserve">
<style type="text/css">
	.debian0{fill:#EE5586;}
</style>
<g>
	<path id="svg-ico" class="debian0" d="M57.8,52.8c-1.6,0,0.3,0.8,2.5,1.2c0.6-0.5,1.1-0.9,1.6-1.4C60.5,52.9,59.2,52.9,57.8,52.8"/>
	<path id="svg-ico" class="debian0" d="M66.6,50.6c1-1.4,1.7-2.8,2-4.4c-0.2,1.1-0.8,2-1.4,3c-3.1,1.9-0.3-1.2,0-2.3
		C63.9,51.1,66.8,49.4,66.6,50.6"/>
	<path id="svg-ico" class="debian0" d="M69.9,42.1c0.2-3-0.6-2-0.8-0.9C69.4,41.4,69.6,43.3,69.9,42.1"/>
	<path id="svg-ico" class="debian0" d="M51.5,1.6c0.9,0.2,1.9,0.3,1.8,0.5C54.3,1.8,54.5,1.7,51.5,1.6"/>
	<polyline id="svg-ico" class="debian0" points="53.3,2.1 52.7,2.2 53.3,2.1 53.3,2.1 	"/>
	<path id="svg-ico" class="debian0" d="M80.7,43.2c0.1,2.7-0.8,4-1.6,6.2l-1.4,0.7c-1.2,2.3,0.1,1.4-0.7,3.2c-1.8,1.6-5.5,5.1-6.7,5.4
		c-0.9,0,0.6-1,0.8-1.4c-2.4,1.7-2,2.5-5.7,3.5l-0.1-0.2c-9.2,4.3-21.9-4.2-21.8-15.9c-0.1,0.7-0.3,0.6-0.5,0.9
		c-0.5-6,2.8-12,8.3-14.5c5.4-2.7,11.6-1.6,15.5,2c-2.1-2.8-6.3-5.7-11.3-5.4c-4.9,0.1-9.4,3.2-11,6.5c-2.5,1.6-2.8,6.1-3.9,6.9
		c-1.5,10.8,2.8,15.4,9.9,20.9c1.1,0.8,0.3,0.9,0.5,1.4c-2.4-1.1-4.5-2.8-6.3-4.8c0.9,1.4,2,2.7,3.3,3.8c-2.2-0.8-5.2-5.4-6.1-5.6
		c3.9,6.9,15.6,12.1,21.8,9.5c-2.9,0.1-6.5,0.1-9.7-1.1c-1.4-0.7-3.2-2.1-2.9-2.4c8.4,3.1,17.1,2.4,24.4-3.5
		c1.9-1.4,3.9-3.9,4.5-3.9c-0.9,1.3,0.2,0.6-0.5,1.8c1.8-3-0.8-1.2,1.9-5.1l1,1.4C82,51,85.5,48,85.1,44.1c0.8-1.2,0.9,1.3,0,4
		c1.2-3.1,0.3-3.5,0.6-6.1c0.3,0.8,0.7,1.7,1,2.6c-0.8-2.9,0.8-5,1.2-6.7c-0.4-0.2-1.2,1.3-1.4-2.2c0-1.5,0.4-0.8,0.6-1.2
		c-0.3-0.2-1.1-1.3-1.5-3.6c0.3-0.5,0.9,1.4,1.4,1.4c-0.3-1.8-0.8-3.1-0.8-4.5c-1.4-2.9-0.5,0.4-1.6-1.2c-1.5-4.5,1.2-1.1,1.4-3.1
		c2.2,3.2,3.5,8.1,4,10.2c-0.4-2.5-1.2-4.9-2-7.3c0.7,0.3-1.1-5.1,0.9-1.5C86.8,17.2,80,10.1,73.7,6.7c0.8,0.7,1.7,1.6,1.4,1.7
		c-3.1-1.9-2.6-2-3-2.8c-2.5-1-2.7,0.1-4.4,0c-4.9-2.3-5.8-2-10.3-3.6l0.2,0.9c-3.2-1.1-3.7,0.4-7.1,0c-0.2-0.2,1.1-0.6,2.2-0.7
		c-3.1,0.4-2.9-0.6-5.9,0.1c0.7-0.5,1.5-0.9,2.3-1.3c-2.5,0.2-6,1.5-4.9,0.3c-4.1,1.8-11.3,4.4-15.4,8.2l-0.1-0.9
		c-1.9,2.2-8.1,6.7-8.6,9.6l-0.5,0.1c-1,1.6-1.6,3.5-2.4,5.2c-1.3,2.2-1.9,0.8-1.7,1.2c-2.5,5.1-3.7,9.3-4.8,12.8
		c0.8,1.1,0,6.9,0.3,11.5C9.7,71.6,26.8,93.6,45.6,98.7c2.7,1,6.8,0.9,10.3,1c-4.1-1.2-4.6-0.6-8.6-2c-2.9-1.4-3.5-2.9-5.6-4.7
		l0.8,1.4c-4-1.4-2.3-1.8-5.6-2.8l0.9-1.1c-1.3-0.1-3.4-2.2-4-3.3l-1.4,0.1c-1.7-2.1-2.6-3.6-2.5-4.8l-0.5,0.8
		c-0.5-0.9-6.3-7.9-3.3-6.3c-0.6-0.5-1.3-0.8-2.1-2.3l0.6-0.7c-1.4-1.8-2.6-4.2-2.6-5c0.8,1,1.3,1.2,1.8,1.4c-3.6-9-3.8-0.5-6.6-9.2
		h0.6c-0.4-0.7-0.7-1.4-1.1-2.1l0.3-2.5c-2.6-3-0.7-12.8-0.4-18.2c0.3-2.2,2.2-4.5,3.6-8.2L19.4,30c1.7-3,9.7-11.9,13.4-11.4
		c1.8-2.3-0.4,0-0.7-0.6c3.9-4.1,5.2-2.9,7.8-3.6c2.9-1.7-2.5,0.7-1.1-0.6c5-1.3,3.5-2.9,10-3.5c0.7,0.4-1.6,0.6-2.2,1.1
		c4.1-2,13.1-1.6,18.9,1.1c6.7,3.2,14.3,12.5,14.6,21.2l0.3,0.1c-0.2,3.5,0.5,7.5-0.7,11.2L80.7,43.2"/>
	<path id="svg-ico" class="debian0" d="M39.8,55.1l-0.2,1.2c1.1,1.5,1.9,3.1,3.3,4.2C41.9,58.5,41.2,57.7,39.8,55.1"/>
	<path id="svg-ico" class="debian0" d="M42.4,55c-0.6-0.6-0.9-1.4-1.3-2.2c0.4,1.3,1.1,2.5,1.8,3.7L42.4,55"/>
	<path id="svg-ico" class="debian0" d="M87.7,45.1l-0.2,0.6C87,48.9,86,52,84.6,54.9C86.2,51.9,87.2,48.5,87.7,45.1"/>
	<path id="svg-ico" class="debian0" d="M51.9,0.8c1.1-0.4,2.7-0.2,3.9-0.5c-1.5,0.1-3.1,0.2-4.6,0.4L51.9,0.8"/>
	<path id="svg-ico" class="debian0" d="M12.8,21.6c0.3,2.4-1.8,3.3,0.5,1.7C14.4,20.6,12.8,22.6,12.8,21.6"/>
	<path id="svg-ico" class="debian0" d="M10.1,32.6c0.5-1.6,0.6-2.5,0.8-3.5C9.5,30.9,10.3,31.3,10.1,32.6"/>
</g>
</svg>
