<?xml version="1.0" encoding="utf-8"?>
<!-- Generator: Adobe Illustrator 24.3.0, SVG Export Plug-In . SVG Version: 6.00 Build 0)  -->
<svg version="1.1" id="Layer_1" xmlns="http://www.w3.org/2000/svg" xmlns:xlink="http://www.w3.org/1999/xlink" x="0px" y="0px"
	 viewBox="0 0 100 100" style="enable-background:new 0 0 100 100;" xml:space="preserve">
<style type="text/css">
	.docker0{fill:#EE5586;}
</style>
<g>
	<path id="svg-ico" class="docker0" d="M54.6,46.9H44.4v-9.2h10.2L54.6,46.9L54.6,46.9z M54.6,15.3H44.4v9.4h10.2C54.6,24.7,54.6,15.3,54.6,15.3z
		 M66.7,37.7H56.5v9.2h10.2V37.7L66.7,37.7z M42.5,26.6H32.3v9.3h10.2V26.6z M54.6,26.6H44.4v9.3h10.2
		C54.6,35.9,54.6,26.6,54.6,26.6z M97.5,42c-2.2-1.5-7.4-2-11.3-1.3c-0.5-3.7-2.6-7-6.4-9.9l-2.2-1.4l-1.4,2.2
		c-2.8,4.3-3.6,11.4-0.6,16.1c-1.3,0.7-4,1.7-7.5,1.7H0.8c-1.3,7.9,0.9,18.1,6.8,25.1c5.7,6.8,14.4,10.2,25.6,10.2
		c24.4,0,42.4-11.2,50.8-31.6c3.3,0.1,10.5,0,14.1-7c0.2-0.4,1-2,1.3-2.6L97.5,42L97.5,42z M18.4,37.7H8.1v9.2h10.2L18.4,37.7
		L18.4,37.7z M30.4,37.7H20.2v9.2h10.2C30.4,46.9,30.4,37.7,30.4,37.7z M42.5,37.7H32.3v9.2h10.2V37.7z M30.4,26.6H20.2v9.3h10.2
		C30.4,35.9,30.4,26.6,30.4,26.6z"/>
</g>
</svg>
