<?xml version="1.0" encoding="utf-8"?>
<!-- Generator: Adobe Illustrator 24.3.0, SVG Export Plug-In . SVG Version: 6.00 Build 0)  -->
<svg version="1.1" id="Layer_1" xmlns="http://www.w3.org/2000/svg" xmlns:xlink="http://www.w3.org/1999/xlink" x="0px" y="0px"
	 viewBox="0 0 100 100" style="enable-background:new 0 0 100 100;" xml:space="preserve">
<style type="text/css">
	.drupal0{fill:#EE5586;}
</style>
<g>
	<path id="svg-ico" class="drupal0" d="M71.1,18.6c-4.9-3.1-9.6-4.3-14.3-7.4c-2.9-1.9-6.9-6.6-10.3-10.7c-0.6,6.5-2.5,9.1-4.9,11
		c-4.7,3.8-7.7,4.9-11.8,7.2C26.3,20.4,7.5,33.4,7.5,57.5c0,24.2,20.3,42,42.9,42c22.5,0,42.1-16.4,42.1-41.2
		C92.5,33.4,74.1,20.4,71.1,18.6z M71.7,90.7c-4.5,4.5-20,6.4-25.8,0.9c-1.1-1.1,0.1-2.7,1.4-2.7c0,0,3.8,2.9,11.4,2.9
		c6,0,10.2-1.7,12.1-3.1C72.1,87.8,72.6,89.8,71.7,90.7z M59.6,79.1c1.9-0.8,6.4-0.8,8.1,0.3c0.9,0.6,3.6,4.2,1.4,5.2
		c-1.9,0.9-0.3-3.5-5.9-3.5c-3.3,0-4.3,1.2-5.9,2.4c-1.6,1.3-2.2,1.8-2.7,1C53.3,82.8,58.2,79.7,59.6,79.1z M80.1,82.9
		c-3.4-0.2-10.1-10.8-14.4-11c-6.8-0.2-23.1,17.9-35.7,9.3c-8.6-5.9-3.2-23.2,11.5-23.3c11-0.1,18.6,10.9,24,10.7
		c4.7-0.1,13.7-9.3,18.1-9.3C94.4,59.4,88.8,83.6,80.1,82.9z"/>
</g>
</svg>
