<?xml version="1.0" encoding="utf-8"?>
<!-- Generator: Adobe Illustrator 24.3.0, SVG Export Plug-In . SVG Version: 6.00 Build 0)  -->
<svg version="1.1" id="Layer_1" xmlns="http://www.w3.org/2000/svg" xmlns:xlink="http://www.w3.org/1999/xlink" x="0px" y="0px"
	 viewBox="0 0 100 100" style="enable-background:new 0 0 100 100;" xml:space="preserve">
<style type="text/css">
	.fedora0{fill:#EE5586;}
</style>
<g>
	<path id="svg-ico" class="fedora0" d="M39.5,58.6h-8h-2.4c-6.8,0-12.3,5.5-12.3,12.3c0,6.7,5.4,12.2,12.2,12.2c6.7,0,12.2-5.5,12.2-12.2V60.3
		C41.2,59.4,40.5,58.6,39.5,58.6z"/>
	<path id="svg-ico" class="fedora0" d="M64.5,23.3c-6.7,0-12.2,5.5-12.2,12.2v10.6c0,0.9,0.7,1.7,1.7,1.7h8h2.5c6.8,0,12.3-5.5,12.3-12.3
		C76.8,28.8,71.3,23.3,64.5,23.3z"/>
	<path id="svg-ico" class="fedora0" d="M50,0.6C22.7,0.6,0.6,22.7,0.6,50v38.2c0,6.2,5,11.2,11.2,11.2h0.1H50c27.3,0,49.4-22.1,49.4-49.4
		S77.3,0.6,50,0.6z M64.5,58.6H62h-9.7V71c0,12.8-10.4,23.2-23.2,23.2C16.3,94.2,5.9,83.8,5.9,71s10.4-23.1,23.2-23.1h2.4h9.8V35.6
		c0-12.8,10.4-23.2,23.2-23.2c0.4,0,0.9,0,1.3,0c0.1,0,0.1,0,0.2,0c12.1,0.7,21.7,10.8,21.7,23.1C87.7,48.3,77.3,58.6,64.5,58.6z"/>
</g>
</svg>
