<?xml version="1.0" encoding="utf-8"?>
<!-- Generator: Adobe Illustrator 24.3.0, SVG Export Plug-In . SVG Version: 6.00 Build 0)  -->
<svg version="1.1" id="Layer_1" xmlns="http://www.w3.org/2000/svg" xmlns:xlink="http://www.w3.org/1999/xlink" x="0px" y="0px"
	 viewBox="0 0 100 100" style="enable-background:new 0 0 100 100;" xml:space="preserve">
<style type="text/css">
	.freebsd0{fill:#EE5586;}
</style>
<g>
	<path id="svg-ico" class="freebsd0" d="M98.4,2.9c5.3,5.2-9.3,28.3-11.8,30.8s-8.7,0.2-14-5.1c-5.3-5.2-7.5-11.5-5.1-14C70.1,12.2,93.2-2.4,98.4,2.9"
		/>
	<path id="svg-ico" class="freebsd0" d="M24.8,8.4c-8-4.5-19.4-9.6-23.1-6C-2,6.1,3.3,17.8,7.9,25.8C12,18.7,17.8,12.7,24.8,8.4"/>
	<path id="svg-ico" class="freebsd0" d="M90.4,31.9c0.7,2.5,0.6,4.6-0.6,5.8C87,40.4,79.5,37.5,72.6,31c-0.5-0.4-0.9-0.9-1.4-1.3
		c-2.5-2.5-4.4-5.1-5.6-7.5c-2.4-4.3-3-8.1-1.2-9.9c1-1,2.6-1.2,4.5-0.9c1.3-0.8,2.7-1.7,4.3-2.6c-6.6-3.4-14.1-5.4-22-5.4
		C24.9,3.4,3.6,24.8,3.6,51.1s21.3,47.7,47.7,47.7S99,77.5,99,51.1c0-8.5-2.2-16.5-6.1-23.4C92,29.2,91.1,30.7,90.4,31.9"/>
</g>
</svg>
