<?xml version="1.0" encoding="utf-8"?>
<!-- Generator: Adobe Illustrator 24.3.0, SVG Export Plug-In . SVG Version: 6.00 Build 0)  -->
<svg version="1.1" id="Layer_1" xmlns="http://www.w3.org/2000/svg" xmlns:xlink="http://www.w3.org/1999/xlink" x="0px" y="0px"
	 viewBox="0 0 100 100" style="enable-background:new 0 0 100 100;" xml:space="preserve">
<style type="text/css">
	.gitlab0{fill:#EE5586;}
</style>
<g>
	<path id="svg-ico" class="gitlab0" d="M20.7,5.1c-0.6-1.7-3-1.7-3.7,0l-11,34h25.6C31.7,39.1,20.7,5.1,20.7,5.1z M0.5,56.2c-0.5,1.6,0.1,3.3,1.4,4.3
		L50,96.2L6,39.1L0.5,56.2z M31.7,39.1L50,96.2l18.3-57.1H31.7z M99.6,56.2L94,39.1L50,96.2l48.2-35.7C99.5,59.4,100,57.7,99.6,56.2
		z M83,5.1c-0.6-1.7-3-1.7-3.7,0l-11,34h25.6L83,5.1z"/>
</g>
</svg>
