<?xml version="1.0" encoding="utf-8"?>
<!-- Generator: Adobe Illustrator 24.3.0, SVG Export Plug-In . SVG Version: 6.00 Build 0)  -->
<svg version="1.1" id="Layer_1" xmlns="http://www.w3.org/2000/svg" xmlns:xlink="http://www.w3.org/1999/xlink" x="0px" y="0px"
	 viewBox="0 0 100 100" style="enable-background:new 0 0 100 100;" xml:space="preserve">
<style type="text/css">
	.joomla0{fill:#EE5586;}
</style>
<g>
	<path id="svg-ico" class="joomla0" d="M0.6,13.8c0-7.4,5.9-13.3,13.2-13.3c6.6,0,12.1,4.8,13.1,11.1c7.2-1.7,14.8,0.1,21.3,6.6L38.5,28
		c-4.5-4.5-9.4-3.6-12.3-0.8c-3.2,3.2-3.2,8.4,0,11.5l22,22l-9.7,9.8c-19.4-19.3-11-11-22.1-22.1c-5.9-5.9-7.7-14.3-5.5-21.9
		C5,25.4,0.6,20.1,0.6,13.8z M29.2,39.5l9.8,9.8c2.2-2.2,19.8-19.8,22.1-22.1c3.2-3.2,8.3-3.2,11.5,0c2.8,2.8,3.8,7.7-0.8,12.3
		l9.7,9.8c6.9-6.9,8.5-15,6.4-22.4c6.5-0.9,11.5-6.5,11.5-13.2c0-7.3-5.9-13.3-13.2-13.3c-6.7,0-12.3,5-13.2,11.4
		c-7.5-2.2-15.9-0.3-21.7,5.6C47.2,21.6,35.5,33.2,29.2,39.5z M88.1,73.2c1.8-7.2-0.2-15.2-5.8-20.8c-2.6-2.7,1.1,1-22-22.1
		l-9.8,9.8l22.1,22.1c3.2,3.2,3.2,8.3,0,11.5c-2.8,2.8-7.7,3.8-12.3-0.8l-9.7,9.8c6.1,6.7,15,8.6,22.7,6.2c1.2,6.1,6.6,10.6,13,10.6
		c7.3,0,13.2-5.9,13.2-13.3C99.5,79.6,94.6,74.1,88.1,73.2L88.1,73.2z M69.5,61.4l-9.7-9.8C40.5,70.7,48.6,62.8,37.7,73.7
		c-3.2,3.2-8.3,3.2-11.5,0c-2.9-3-3.7-7.8,0.7-12.3l-9.7-9.8c-6.7,6.7-8.4,14.4-6.5,21.7C4.8,74.7,0.5,80,0.5,86.3
		c0,7.4,5.9,13.3,13.2,13.3c6.3,0,11.6-4.4,13-10.3c7.2,1.8,15.2-0.1,20.8-5.8C54.6,76.4,50.2,80.7,69.5,61.4L69.5,61.4z"/>
</g>
</svg>
