<?xml version="1.0" encoding="utf-8"?>
<!-- Generator: Adobe Illustrator 24.3.0, SVG Export Plug-In . SVG Version: 6.00 Build 0)  -->
<svg version="1.1" id="Layer_1" xmlns="http://www.w3.org/2000/svg" xmlns:xlink="http://www.w3.org/1999/xlink" x="0px" y="0px"
	 viewBox="0 0 100 100" style="enable-background:new 0 0 100 100;" xml:space="preserve">
<style type="text/css">
	.lamp0{fill:#EE5586;}
</style>
<g>
	<path id="svg-ico" class="lamp0" d="M92.2,7.8c-9.3-9.3-24.4-9.3-33.7,0l-26,26c-0.7,0.7-1.1,1.6-1.1,2.6v6.1c0,1.7-1.3,3-3,3l0,0
		c-0.7,0-1.4-0.3-1.9-0.8c-1.5-1.3-3.7-1.2-5.1,0.2l-7.9,7.9c-0.6,0.7-1,1.6-1,2.6v9.4c0.1,2.1,1.8,3.7,3.9,3.6c0.9,0,1.7-0.4,2.4-1
		l44.8-44.9c1.2-1.2,3.1-1.2,4.2,0c1.2,1.2,1.2,3.1,0,4.2l0,0L1.4,93.4c-1.1,1.8-0.6,4.1,1.2,5.2c1.2,0.8,2.8,0.8,4,0l19-19h26.9
		c1,0,1.9-0.4,2.6-1l9.8-9.4c1.1-1.1,1.4-2.7,0.9-4.1c-0.6-1.4-2-2.3-3.5-2.3l-12,0.2c-1.9,0-3.5-1.3-3.8-3.1
		c0.1-1.7,1.6-2.9,3.2-2.9l25.2,0.2l0,0c1,0,1.9-0.4,2.6-1.1l14.7-14.7C101.5,32.2,101.5,17.1,92.2,7.8L92.2,7.8z"/>
</g>
</svg>
