<?xml version="1.0" encoding="utf-8"?>
<!-- Generator: Adobe Illustrator 24.3.0, SVG Export Plug-In . SVG Version: 6.00 Build 0)  -->
<svg version="1.1" id="Layer_1" xmlns="http://www.w3.org/2000/svg" xmlns:xlink="http://www.w3.org/1999/xlink" x="0px" y="0px"
	 viewBox="0 0 100 100" style="enable-background:new 0 0 100 100;" xml:space="preserve">
<style type="text/css">
	.lemp0{fill:#EE5586;}
</style>
<g>
	<path id="svg-ico" class="lemp0" d="M99,50c-0.6-1.1-1.8-1.8-3.1-1.8H45.1c-2,0-3.6,1.6-3.6,3.6v8.9c0,2,1.6,3.6,3.6,3.6h29.5l-7.7,14.3H35.3
		L18.8,50l15.5-28.5h33.1L74.6,34c0.6,1.1,1.8,1.8,3.1,1.8H88c2,0,3.6-1.6,3.6-3.5c0-0.6-0.2-1.3-0.5-1.8L77.8,7.2
		c-0.6-1.1-1.8-1.8-3.1-1.8H27.5c-1.3,0-2.5,0.7-3.2,1.8l-23.4,41c-0.6,1.1-0.6,2.5,0,3.6l23.4,41c0.6,1.1,1.8,1.8,3.1,1.8h47.2
		c1.3,0,2.5-0.7,3.1-1.8L99,53.6C99.7,52.4,99.7,51.1,99,50z"/>
</g>
</svg>
