<?xml version="1.0" encoding="utf-8"?>
<!-- Generator: Adobe Illustrator 24.3.0, SVG Export Plug-In . SVG Version: 6.00 Build 0)  -->
<svg version="1.1" id="Layer_1" xmlns="http://www.w3.org/2000/svg" xmlns:xlink="http://www.w3.org/1999/xlink" x="0px" y="0px"
	 viewBox="0 0 100 100" style="enable-background:new 0 0 100 100;" xml:space="preserve">
<style type="text/css">
	.mediawiki0{fill:#EE5586;}
</style>
<g>
	<g>
		<g>
			<path id="svg-ico" class="mediawiki0" d="M14.1,83.4c0,0.1,0.1,0.2,0.1,0.3c0,0.2,0.1,0.3,0.2,0.5l0.3,0.4c0.1,0.1,0.2,0.3,0.3,0.4s0.2,0.2,0.4,0.3
				l0.4,0.3l0.5,0.2c0.1,0,0.2,0,0.3,0.1c0.4,0,10,1.6,16.6-5c1.5-1.5,1.6-4,0-5.6l0,0c-2.3-2.3-5.5-1.6-8.4,0
				c1.6-2.9,2.3-6.1,0-8.4c-1.5-1.5-4-1.6-5.6,0l0,0C12.5,73.4,14,83,14.1,83.4z"/>
			<path id="svg-ico" class="mediawiki0" d="M66.8,24.8c2.3,2.3,5.5,1.6,8.4,0c-1.6,2.9-2.3,6.1,0,8.4c1.5,1.5,4,1.6,5.6,0l0,0c6.6-6.6,5.1-16.2,5-16.6
				c0-0.2-0.1-0.3-0.2-0.5c0-0.1-0.1-0.2-0.1-0.3c-0.1-0.3-0.3-0.6-0.6-0.8l0,0c-0.2-0.2-0.5-0.4-0.8-0.6c-0.1,0-0.2-0.1-0.3-0.1
				c-0.1-0.1-0.3-0.1-0.4-0.2c-0.4,0-10-1.6-16.6,5.1C65.2,20.7,65.2,23.2,66.8,24.8z"/>
		</g>
		<g>
			<path id="svg-ico" class="mediawiki0" d="M0.9,48.3c0,0.1,0,0.2-0.1,0.3s-0.2,0.3-0.2,0.5c-0.1,0.2-0.1,0.3-0.1,0.5s0,0.3,0,0.5s0,0.3,0,0.5
				s0.1,0.3,0.1,0.5c0.1,0.2,0.1,0.3,0.2,0.5c0,0.1,0,0.2,0.1,0.3s6,8.2,15.4,8.2c2.2,0,4-1.8,4-4c0-3.3-2.8-5.1-5.9-5.9
				c3.2-0.9,5.9-2.6,5.9-5.9c0-2.2-1.8-4-4-4C6.9,40.1,1.2,47.9,0.9,48.3z"/>
			<path id="svg-ico" class="mediawiki0" d="M79.7,44c0,3.3,2.8,5,5.9,5.9c-3.2,0.9-5.9,2.6-5.9,5.9c0,2.2,1.8,4,4,4c9.4,0,15.1-7.9,15.4-8.2
				s0.1-0.3,0.2-0.4s0.1-0.2,0.1-0.3c0.1-0.3,0.2-0.7,0.2-1l0,0c0-0.3-0.1-0.7-0.2-1c0-0.1-0.1-0.2-0.1-0.3
				c-0.1-0.1-0.1-0.3-0.2-0.4c-0.2-0.3-5.9-8.2-15.4-8.2C81.4,40.1,79.7,41.8,79.7,44L79.7,44z"/>
		</g>
		<g>
			<path id="svg-ico" class="mediawiki0" d="M16.5,14.1c-0.1,0-0.2,0.1-0.3,0.1c-0.2,0-0.3,0.1-0.5,0.2c-0.2,0.1-0.3,0.2-0.4,0.3
				c-0.1,0.1-0.3,0.2-0.4,0.3c-0.1,0.1-0.2,0.2-0.3,0.4l-0.3,0.5c0,0.2-0.1,0.3-0.2,0.5c0,0.1-0.1,0.2-0.1,0.3c0,0.4-1.6,10,5,16.6
				c1.6,1.5,4.1,1.5,5.6,0c2.3-2.3,1.6-5.5,0-8.4c2.9,1.6,6.1,2.3,8.4,0c1.5-1.5,1.6-4,0-5.6l0,0C26.5,12.5,16.9,14.1,16.5,14.1z"/>
			<path id="svg-ico" class="mediawiki0" d="M75.2,66.8c-2.3,2.3-1.6,5.5,0,8.4c-2.9-1.6-6.1-2.3-8.4,0c-1.5,1.5-1.6,4,0,5.6l0,0
				c6.6,6.6,16.2,5.1,16.6,5c0.2,0,0.3-0.1,0.4-0.1l0.3-0.1c0.3-0.1,0.6-0.3,0.8-0.6l0,0c0.2-0.2,0.4-0.5,0.6-0.9
				c0-0.1,0.1-0.2,0.1-0.3c0.1-0.2,0.1-0.3,0.2-0.5c0-0.4,1.6-10-5-16.6C79.2,65.2,76.7,65.2,75.2,66.8z"/>
		</g>
		<g>
			<path id="svg-ico" class="mediawiki0" d="M51.7,1l-0.3-0.1c-0.1-0.1-0.3-0.2-0.5-0.2l-0.5-0.2h-0.5h-0.5H49l-0.5,0.2l-0.3,0.1C47.9,1,40,6.8,40,16.2
				c0,2.2,1.8,4,4,4c3.3,0,5-2.8,5.9-5.9c0.9,3.2,2.6,5.9,5.9,5.9c2.2,0,4-1.8,4-4C59.9,6.9,52,1.2,51.7,1z"/>
			<path id="svg-ico" class="mediawiki0" d="M55.9,79.7c-3.3,0-5,2.8-5.9,5.9c-0.9-3.2-2.6-5.9-5.9-5.9c-2.2,0-4,1.8-4,4c0,9.3,7.8,15.1,8.2,15.4
				c0.3,0.3,0.3,0.1,0.4,0.2c0.1,0.1,0.2,0.1,0.3,0.2c0.3,0.1,0.7,0.2,1,0.2l0,0c0.3,0,0.7-0.1,1-0.2c0.1,0,0.2-0.1,0.3-0.2
				c0.1,0,0.3-0.1,0.4-0.2c0.1-0.1,8.2-6,8.2-15.4C59.9,81.5,58.1,79.7,55.9,79.7L55.9,79.7z"/>
		</g>
	</g>
	<circle id="svg-ico" class="mediawiki0" cx="49.9" cy="50" r="23.8"/>
</g>
</svg>
