<?xml version="1.0" encoding="utf-8"?>
<!-- Generator: Adobe Illustrator 24.3.0, SVG Export Plug-In . SVG Version: 6.00 Build 0)  -->
<svg version="1.1" id="Layer_1" xmlns="http://www.w3.org/2000/svg" xmlns:xlink="http://www.w3.org/1999/xlink" x="0px" y="0px"
	 viewBox="0 0 100 100" style="enable-background:new 0 0 100 100;" xml:space="preserve">
<style type="text/css">
	.minicraft0{fill:#EE5586;}
</style>
<g>
	<path id="svg-ico" class="minicraft0" d="M90.2,0.7H9.8c-5,0-9.1,4.1-9.1,9.1v80.4c0,5,4.1,9.1,9.1,9.1h80.4c5,0,9.1-4.1,9.1-9.1V9.8
		C99.3,4.8,95.2,0.7,90.2,0.7z M61.3,54.1h7.2v26.7h-8.2v-7.2c0-0.6-0.5-1-1-1H42.8c-0.6,0-1,0.5-1,1v7.2h-8.2V54.1h7.2
		c0.6,0,1-0.5,1-1v-8.2c0-0.6-0.5-1-1-1H23.3V25.3h18.5v17.5c0,0.6,0.5,1,1,1h16.4c0.6,0,1-0.5,1-1V25.3h18.5v18.5H61.3
		c-0.6,0-1,0.5-1,1V53C60.3,53.7,60.7,54.1,61.3,54.1z"/>
</g>
</svg>
