<?xml version="1.0" encoding="utf-8"?>
<!-- Generator: Adobe Illustrator 24.3.0, SVG Export Plug-In . SVG Version: 6.00 Build 0)  -->
<svg version="1.1" id="Layer_1" xmlns="http://www.w3.org/2000/svg" xmlns:xlink="http://www.w3.org/1999/xlink" x="0px" y="0px"
	 viewBox="0 0 100 100" style="enable-background:new 0 0 100 100;" xml:space="preserve">
<style type="text/css">
	.nextcloud0{fill:#EE5586;}
</style>
<g>
	<path id="svg-ico" class="nextcloud0" d="M84.2,34.3c-4,0-7.9,1.6-10.7,4.5c-6.2-12.9-21.7-18.4-34.6-12.2c-5.4,2.5-9.7,6.8-12.2,12.2
		c-6.2-5.9-16.1-5.8-22,0.4s-5.9,16.1,0.3,22c5.9,5.8,15.3,5.8,21.4,0.1c3.7,9,12.5,14.7,22.1,14.7c10.4,0,19.9-5.6,24.8-14.9
		c6.2,5.9,16.1,5.8,22-0.4s5.8-16.1-0.4-22C92.1,36,88.2,34.3,84.2,34.3z M15.8,58.1c-4.5,0-8.2-3.7-8.2-8.2s3.6-8.2,8.2-8.2
		c4.5,0,8,3.4,8.2,7.9c0,0.1,0,0.3,0,0.3s0,0.3,0,0.4C23.9,54.7,20.2,58.1,15.8,58.1z M48.5,68.5c-10,0-17.1-7.9-17.1-18.6
		c0-10.3,8.3-18.6,18.6-18.6S68.6,39.7,68.6,50C68.6,59.9,59.3,68.5,48.5,68.5z M84.2,58.1c-4.3,0-8-3.4-8.2-7.9c0-0.1,0-0.1,0-0.3
		s0-0.3,0-0.3c0.1-4.5,4-8,8.5-7.9s8,4,7.9,8.5S88.7,58.1,84.2,58.1z"/>
</g>
</svg>
