<?xml version="1.0" encoding="utf-8"?>
<!-- Generator: Adobe Illustrator 24.3.0, SVG Export Plug-In . SVG Version: 6.00 Build 0)  -->
<svg version="1.1" id="Layer_1" xmlns="http://www.w3.org/2000/svg" xmlns:xlink="http://www.w3.org/1999/xlink" x="0px" y="0px"
	 viewBox="0 0 100 100" style="enable-background:new 0 0 100 100;" xml:space="preserve">
<style type="text/css">
	.openvpn0{fill:#EE5586;}
</style>
<g>
	<path id="svg-ico" class="openvpn0" d="M50,32.6c-9.6,0-17.4,7.8-17.4,17.4c0,7.2,4.5,13.7,11.2,16.3l-5.4,28.8c-0.4,2.1,1,4.1,3.1,4.4
		c0.2,0,0.4,0.1,0.6,0.1H58c2.1-0.1,3.8-1.8,3.7-3.9c0-0.2,0-0.3,0-0.5l-5.4-28.9c9-3.4,13.5-13.5,10.1-22.5
		C63.7,37,57.3,32.6,50,32.6z"/>
	<path id="svg-ico" class="openvpn0" d="M50,0.4C22.7,0.3,0.5,22.4,0.4,49.7c0,14.1,6,27.6,16.5,37c1,0.9,2.4,1.2,3.7,0.8c1.3-0.4,2.2-1.5,2.5-2.8
		L25,73.9c0.2-1.1-0.1-2.2-0.8-3c-11.6-14.2-9.4-35,4.8-46.6s35-9.4,46.6,4.8c9.9,12.2,9.9,29.6,0,41.8c-0.7,0.8-1,2-0.8,3l1.9,10.8
		c0.4,1.8,2,3.1,3.8,3c0.9,0,1.8-0.3,2.5-1c20.4-18.2,22.1-49.5,3.9-69.8C77.6,6.4,64.2,0.4,50,0.4z"/>
</g>
</svg>
