<?xml version="1.0" encoding="utf-8"?>
<!-- Generator: Adobe Illustrator 24.3.0, SVG Export Plug-In . SVG Version: 6.00 Build 0)  -->
<svg version="1.1" id="Layer_1" xmlns="http://www.w3.org/2000/svg" xmlns:xlink="http://www.w3.org/1999/xlink" x="0px" y="0px"
	 viewBox="0 0 100 100" style="enable-background:new 0 0 100 100;" xml:space="preserve">
<style type="text/css">
	.openbsd0{fill:#EE5586;}
</style>
<g>
	<path id="svg-ico" class="openbsd0" d="M94.8,35.3c-1-1.3-2.8-1.8-4.2-1l-6.2,3.3c-0.5-1.6-1.1-3.1-1.8-4.6l6.5-6.5c0.6-0.6,0.7-1.5,0.3-2.2
		c-0.4-0.7-1.2-1.1-2-1L77.6,25c-1.8-2.3-3.8-4.3-6-6.2l1.2-4.1c0.2-0.8-0.1-1.6-0.7-2.1c-0.7-0.5-1.6-0.5-2.2,0l-3.5,2.6
		c-5.3-3.1-11.2-5-17.3-5.5l-1.4-4c-0.3-1-1.4-1.5-2.4-1.2c-0.6,0.2-1,0.6-1.2,1.2l-1.4,4c-6.1,0.5-12,2.3-17.3,5.5L22,12.7
		c-0.7-0.5-1.6-0.5-2.2,0c-0.7,0.5-1,1.3-0.8,2.1l1.2,4.1c-7.3,6.2-12.3,14.8-14,24.3l-0.9-0.9c-1.1-1.1-2.9-1.1-4,0l0,0
		c-1.1,1.1-1.1,2.9,0,4L5,50l-3.7,3.7c-1.1,1.2-1,3,0.2,4c1.1,1,2.7,1,3.8,0l0.9-0.9c1.6,9.5,6.6,18.2,14.1,24.3l-1.2,4.1
		c-0.2,0.8,0.1,1.6,0.7,2.1c0.3,0.2,0.7,0.3,1.1,0.3s0.8-0.2,1.2-0.4l3.4-2.6c5.3,3.1,11.2,5,17.3,5.5l1.4,4c0.3,1,1.4,1.5,2.4,1.2
		c0.6-0.2,1-0.6,1.2-1.2l1.4-4c6.1-0.5,12-2.4,17.3-5.5l3.4,2.6c0.3,0.2,0.7,0.4,1.1,0.4s0.8-0.1,1.1-0.3c0.7-0.5,1-1.3,0.7-2.1
		L71.6,81c2.2-1.8,4.2-3.9,6-6.2l9.8,1.7h0.3c0.7,0,1.3-0.4,1.7-1c0.4-0.7,0.2-1.6-0.3-2.1l-6.5-6.5c0.7-1.5,1.3-3,1.8-4.6l6.2,3.3
		c1.5,0.8,3.4,0.4,4.3-1C101.1,55.9,101.1,44.1,94.8,35.3z M45.9,83.6c-5.1,0-10.1-1.1-14.6-3.3C48,67,50.8,42.6,37.4,25.9
		c-1.8-2.3-3.9-4.3-6.1-6.1c16.7-8.1,36.8-1.1,44.9,15.6s1.1,36.8-15.6,44.9C56,82.5,51,83.7,45.9,83.6L45.9,83.6z M34.4,49.3
		c0,4.5-3.7,8.2-8.2,8.2S18,53.8,18,49.3l0,0c0-1.4,0.3-2.7,1-3.9h14.4C34.1,46.6,34.4,47.9,34.4,49.3L34.4,49.3z"/>
	<path id="svg-ico" class="openbsd0" d="M57.7,63.4c-0.1-0.5-0.5-1-0.9-1.2c-0.5-0.2-1-0.2-1.5,0L52,64.1c-0.8,0.5-1.1,1.5-0.6,2.3
		c0.1,0.1,0.2,0.3,0.3,0.4l4.5,4c0.3,0.3,0.7,0.4,1.1,0.4c0.9,0,1.7-0.7,1.7-1.6c0-0.1,0-0.2,0-0.4L57.7,63.4z"/>
	<path id="svg-ico" class="openbsd0" d="M58.1,28.9c-0.6-0.4-1.4-0.3-1.9,0.2l-4.5,4c-0.7,0.6-0.8,1.6-0.2,2.3c0.1,0.1,0.3,0.3,0.4,0.3l3.3,1.9
		c0.3,0.1,0.5,0.2,0.8,0.2c0.2,0,0.5-0.1,0.7-0.1c0.5-0.2,0.8-0.7,0.9-1.2l1.2-5.9C59.1,29.9,58.7,29.2,58.1,28.9z"/>
	<path id="svg-ico" class="openbsd0" d="M69.6,48.4l-5.7-1.9c-0.5-0.2-1.1-0.1-1.5,0.2s-0.7,0.8-0.7,1.3v3.8c0,0.5,0.3,1,0.7,1.3
		c0.3,0.2,0.6,0.3,1,0.3c0.2,0,0.4,0,0.5-0.1l5.7-1.9c0.9-0.3,1.3-1.2,1.1-2.1C70.5,48.9,70.1,48.6,69.6,48.4L69.6,48.4z"/>
</g>
</svg>
