<?xml version="1.0" encoding="utf-8"?>
<!-- Generator: Adobe Illustrator 24.3.0, SVG Export Plug-In . SVG Version: 6.00 Build 0)  -->
<svg version="1.1" id="Layer_1" xmlns="http://www.w3.org/2000/svg" xmlns:xlink="http://www.w3.org/1999/xlink" x="0px" y="0px"
	 viewBox="0 0 100 100" style="enable-background:new 0 0 100 100;" xml:space="preserve">
<style type="text/css">
	.openlitespeed0{fill:#EE5586;}
</style>
<path id="svg-ico" class="openlitespeed0" d="M89.8,20.9c-0.1-0.2-0.4-0.3-0.6-0.3s-0.5,0.1-0.7,0.2l-3.9,3.9c-0.3,0.3-0.3,0.7-0.1,1.1
	c5.1,7.2,7.7,15.5,7.7,24.2c0,23.3-19,42.2-42.3,42.2c-1.6,0-3.3-0.1-5.3-0.4c-0.1,0-0.7-0.1-1-0.2c-1.7-0.3-3.2-0.6-4.7-1
	c0,0-0.2-0.1-0.3-0.1l0,0c-1.9-0.5-3.7-1.2-5.5-2c-1.3-0.6-2.6-1.3-3.9-2l50.7-26.8c2-1.1,3.3-3,3.3-5.2s-1.1-4.1-3.1-5.3l-16.2-9.4
	l24.9-24.9c2.5-2.5,2-4.8,1.6-6c-0.7-1.8-2.6-3-4.6-3c-1,0-1.9,0.3-3,0.9L20.1,40.1c-2.1,1.1-3.3,3-3.3,5.2s1.1,4.1,3.2,5.3
	l16.2,9.3L18.4,77.6c-0.1,0-0.1,0.1-0.2,0.1c-0.7-0.9-1.5-1.7-2.1-2.6C12.2,69.8,9.7,64,8.5,57.8c0-0.1,0-0.2,0-0.3c0,0,0,0,0-0.1
	v-0.1c-0.2-1-0.4-2.2-0.5-3.4c0-0.3,0-0.6,0-0.8l0,0L7.9,52c0-0.6-0.1-1.3-0.1-2c0-2.9,0.3-5.8,0.9-8.5c0.3-1.3,0.6-2.6,1-3.8v-0.1
	v-0.1l0,0C15.2,19.7,31.4,7.8,50,7.8c2.6,0,5.2,0.3,8.3,0.9l0.4,0.1c1,0.2,2,0.5,3.3,0.8c0.7,0.2,1.3,0.4,1.9,0.6l0.5,0.2
	c0.5,0.2,1,0.4,1.5,0.6l0,0c0.1,0,0.1,0.1,0.2,0.1l0,0c0.2,0.1,0.5,0.1,0.7,0L73,7.8c0.3-0.1,0.4-0.4,0.4-0.7c0-0.3-0.2-0.6-0.4-0.7
	c-7-3.8-15-5.8-23-5.8C22.8,0.6,0.6,22.8,0.6,50c0,11,3.6,21.5,10.5,30.3c0.7,0.8,1.4,1.7,2.1,2.5l0,0C13.1,82.9,13.1,83,13,83
	l-1.8,1.8c-2.5,2.5-2,4.8-1.6,6c0.7,1.8,2.6,3,4.6,3c1,0,1.9-0.3,3-0.8l4.8-2.5c1,0.7,2,1.4,3,1.9c7.6,4.5,16.3,6.9,25,6.9
	c27.2,0,49.4-22.1,49.4-49.4C99.4,39.5,96,29.4,89.8,20.9L89.8,20.9z M16.7,87.1L42,61.8c0.7-0.7,1.1-1.8,1-2.9
	c-0.1-1-0.8-2-1.7-2.5L22.7,45.8c-0.3-0.2-0.4-0.4-0.4-0.4s0.1-0.2,0.4-0.4l60.6-32L58.1,38.1c-0.7,0.7-1.1,1.8-1,2.9
	c0.1,1,0.8,2,1.7,2.5l18.6,10.7c0.3,0.2,0.4,0.4,0.4,0.4c0,0.1-0.1,0.3-0.4,0.4L16.7,87.1L16.7,87.1L16.7,87.1z"/>
</svg>
