<?xml version="1.0" encoding="utf-8"?>
<!-- Generator: Adobe Illustrator 24.3.0, SVG Export Plug-In . SVG Version: 6.00 Build 0)  -->
<svg version="1.1" id="Layer_1" xmlns="http://www.w3.org/2000/svg" xmlns:xlink="http://www.w3.org/1999/xlink" x="0px" y="0px"
	 viewBox="0 0 100 100" style="enable-background:new 0 0 100 100;" xml:space="preserve">
<style type="text/css">
	.owncloud0{fill:#EE5586;}
</style>
<g>
	<path id="svg-ico" class="owncloud0" d="M45.7,68.6c-0.3-1.2-1.2-2.1-2.4-2.4c-11.8-2.6-21-12-23.2-23.9c-0.4-1.7-2.1-2.8-3.8-2.4
		c-0.1,0-0.3,0.1-0.4,0.1C6.7,43.4,0.6,52.2,0.6,62c0.1,13.2,10.8,23.8,24,23.7h24.5c1.8,0,3.2-1.5,3.1-3.2c0-0.7-0.3-1.4-0.7-1.9
		C48.8,77.1,46.7,73,45.7,68.6z"/>
	<path id="svg-ico" class="owncloud0" d="M41.3,59.1c0.9,0.3,1.8,0.3,2.7-0.2c0.8-0.5,1.4-1.2,1.6-2.2C48,44.4,57.7,34.8,70,32.6c1.7-0.4,2.8-2,2.5-3.8
		c0-0.2-0.1-0.3-0.1-0.4c-3.5-8.8-12-14.3-22.3-14.3c-13.4,0-23.9,10.1-23.9,22.9C26.1,46.9,32.1,55.7,41.3,59.1z"/>
	<path id="svg-ico" class="owncloud0" d="M75.3,38.4c-13.1,0.2-23.5,10.9-23.3,24C52.2,75.5,62.9,86,76,85.8C89,85.6,99.4,75,99.4,62.1
		C99.2,48.9,88.5,38.4,75.3,38.4z"/>
</g>
</svg>
