<?xml version="1.0" encoding="utf-8"?>
<!-- Generator: Adobe Illustrator 24.3.0, SVG Export Plug-In . SVG Version: 6.00 Build 0)  -->
<svg version="1.1" id="Layer_1" xmlns="http://www.w3.org/2000/svg" xmlns:xlink="http://www.w3.org/1999/xlink" x="0px" y="0px"
	 viewBox="0 0 100 100" style="enable-background:new 0 0 100 100;" xml:space="preserve">
<style type="text/css">
	.plesk0{fill:#EE5586;}
</style>
<g>
	<path id="svg-ico" class="plesk0" d="M91.8,49.3L99.5,39c0.1-0.2,0.1-0.5,0-0.7s-0.4-0.4-0.6-0.4H95c-0.2,0-0.4,0.1-0.6,0.3l-6.7,9.2h-2.4V30.5
		c0-0.4-0.3-0.7-0.7-0.7h-2.7c-0.4,0-0.7,0.3-0.7,0.7v29.6c0,0.4,0.3,0.7,0.7,0.7h2.7c0.4,0,0.7-0.3,0.7-0.7v-8.8h2.3l6.7,9.2
		c0.1,0.2,0.3,0.3,0.6,0.3h3.9c0.3,0,0.5-0.1,0.6-0.4c0.1-0.2,0.1-0.5,0-0.7L91.8,49.3z"/>
	<path id="svg-ico" class="plesk0" d="M24,29.8h2.7c0.4,0,0.7,0.3,0.7,0.7v29.6c0,0.4-0.3,0.7-0.7,0.7H24c-0.4,0-0.7-0.3-0.7-0.7V30.5
		C23.3,30.1,23.6,29.8,24,29.8z"/>
	<path id="svg-ico" class="plesk0" d="M73,48.4l-7.5-3.6c-0.6-0.3-0.9-0.8-0.9-1.5c0.1-0.8,0.9-1.5,1.7-1.4H75c0.2,0,0.4-0.1,0.5-0.3
		s0.2-0.4,0.1-0.6l-0.7-2.7c-0.1-0.3-0.3-0.5-0.7-0.5h-7.8c-3-0.1-5.6,2.1-6,5.1c-0.3,2.5,1,4.9,3.2,5.9l7.6,3.6
		c0.6,0.3,0.9,0.9,0.8,1.5c-0.2,0.8-0.9,1.4-1.7,1.3h-8.6c-0.2,0-0.4,0.1-0.5,0.3C61,55.8,60.9,56,61,56.2l0.7,2.7
		c0.1,0.3,0.3,0.5,0.6,0.5h7.9c3,0.1,5.6-2.1,6-5.1C76.6,51.9,75.3,49.5,73,48.4z"/>
	<path id="svg-ico" class="plesk0" d="M17.9,47.5c0-5.3-4.3-9.6-9.6-9.6l0,0H5.1c-1.6,0-3.1,0.5-4.4,1.3c-0.2,0.1-0.3,0.3-0.3,0.6v29.7
		c0,0.4,0.3,0.7,0.7,0.7h2.7c0.4,0,0.7-0.3,0.7-0.7V59.4h0.8h3.1c5.3,0,9.6-4.3,9.6-9.6l0,0v-2.3H17.9z M13.9,47.2v2.9
		c0,2.9-2.4,5.3-5.3,5.3H5.3c-0.3,0-0.6,0-0.9-0.1V42c0.3-0.1,0.6-0.1,0.9-0.1h3.3C11.5,41.9,13.9,44.3,13.9,47.2z"/>
	<path id="svg-ico" class="plesk0" d="M17.3,66.2h17.5c0.4,0,0.7,0.3,0.7,0.7v2.7c0,0.4-0.3,0.7-0.7,0.7H17.3c-0.4,0-0.7-0.3-0.7-0.7v-2.7
		C16.6,66.5,16.9,66.2,17.3,66.2z"/>
	<path id="svg-ico" class="plesk0" d="M44.7,37.9h-1c-5.3,0-9.6,4.3-9.6,9.6l0,0v2.4c0,5.3,4.3,9.6,9.6,9.6h6.6c0.3,0,0.6-0.2,0.7-0.5l0.7-2.7
		c0-0.2,0-0.4-0.1-0.6c-0.1-0.2-0.3-0.3-0.5-0.3h-7.5c-2.4,0-4.6-1.7-5.1-4h15.3c0.4,0,0.7-0.3,0.7-0.7v-3.2
		C54.3,42.2,50,37.9,44.7,37.9L44.7,37.9z M38.1,47.2c0-2.9,2.4-5.3,5.3-5.3h1.8c2.9,0,5.3,2.4,5.3,5.3v0.1L38.1,47.2L38.1,47.2z"/>
</g>
</svg>
