<?xml version="1.0" encoding="utf-8"?>
<!-- Generator: Adobe Illustrator 24.3.0, SVG Export Plug-In . SVG Version: 6.00 Build 0)  -->
<svg version="1.1" id="Layer_1" xmlns="http://www.w3.org/2000/svg" xmlns:xlink="http://www.w3.org/1999/xlink" x="0px" y="0px"
	 viewBox="0 0 100 100" style="enable-background:new 0 0 100 100;" xml:space="preserve">
<style type="text/css">
	.prestashop0{fill:#EE5586;}
</style>
<g>
	<ellipse id="svg-ico" class="prestashop0" cx="50" cy="50" rx="7.9" ry="8.1"/>
	<path id="svg-ico" class="prestashop0" d="M99.1,76.2c-1.3-3.2-2.9-6.3-4.5-9.3c0-0.2,0.2-0.4,0.2-0.4c2.3-6.6,3-13.4,2.5-20.3c0-0.2,0-0.2,0-0.4
		c0-0.4,0-0.5-0.2-0.9c-0.2-1.3-0.4-2.7-0.5-3.9c0-0.4-0.2-0.7-0.2-1.3c0-0.2-0.2-0.5-0.2-0.7c-0.2-0.9-0.4-1.6-0.7-2.3
		c-0.2-0.9-0.5-1.6-0.7-2.5c-0.9-2.3-1.8-4.7-3-6.8c-5.9-11.3-16-19.2-27.3-23.1c-9.3-3.2-19.5-3.6-29-0.7h-0.2
		c-1.6,0.5-3.2,1.1-4.7,1.6C19.5,9.6,10.7,17.9,5.5,28.6C3,33.8,1.4,39.4,0.8,45.1c0,0.2,0,0.2,0,0.4v0.2c-0.7,7.4,0.4,14.9,3,21.9
		C3.8,67.8,4,68,4,68l0,0c0.7,1.6,1.4,3.2,2.3,4.8C15,89.1,31.8,98.4,49.2,98.4c6.8,0,13.6-1.4,20.1-4.3c3.8-0.5,7.9-1.8,11.7-3.6
		c4.7-2.2,8.6-5.4,11.5-9.5c1.8-0.5,3.6-1.1,5.2-1.6c0.7-0.2,1.3-0.7,1.6-1.4C99.5,77.6,99.5,76.7,99.1,76.2z M85.8,54.3
		c0.2,0,0.2,0,0.4,0c2.3,0,3.9-2.3,3.9-6.3s-1.4-6.3-3.9-6.3S82.3,44,82.3,48c0,0.9,0.2,1.8,0.2,2.5c-3.4-3.6-7.2-6.8-11.3-9.7
		c2.5-5.9,7.4-9.5,10.6-9.5c3.8,0,7.7,5.7,10.2,15.1c0.4,4.8,0,9.7-1.1,14.3C89.2,58.6,87.6,56.3,85.8,54.3z M11,70.6
		c-0.7-1.3-1.3-2.5-1.8-3.9c0-10.4,2.7-15.4,7.7-21.2c6.5-7.5,15.2-12,24.4-12.6c8.8-0.5,17.6,2.5,24.7,8.6v0.2
		c-1.4,12.4-5.9,24.2-12.9,34.4c-1.3-0.4-2.9-0.9-4.1-1.4c-2.9-1.1-10.6-5-10.6-5s4.5,5.7,9.1,9c1.1,0.7,2.5,1.4,3.9,2.2
		c-0.2,1-0.4,2.3-0.4,4.1c0,3,1.6,5.7,4.3,7.5c0.4,0.2,0.5,0.4,0.9,0.5C38.1,95.7,19.8,87.3,11,70.6z M83,83.3
		c-1.4,1.1-2.9,2-4.5,2.7c-8.6,4.1-17,4.1-20.6,1.8c-1.6-1.1-1.8-2.2-1.8-2.9c0-1.1,0.2-1.8,0.2-2.3C61.1,83.5,66,84,71,84
		c0.2,0,0.2,0,0.4,0c0.2,0,0.4,0,0.5,0c0,0,0,0,0.2,0c3.4,0,6.8-0.2,10.2-0.7C82.2,83.3,82.6,83.3,83,83.3z M79.5,78.3
		c-2.9,0.2-5.6,0.4-8.4,0.5c-0.4,0-0.5,0-0.9,0c-0.9,0-1.6,0-2.5,0c-0.7,0-1.4,0-2.3-0.2c-0.2,0-0.2,0-0.4,0
		c-2.2-0.2-4.3-0.5-6.5-0.9c6.1-9.1,10-19.5,12-30.5C77.9,53,84.2,60,89.1,68.1c0.2,0.2,0.2,0.5,0.4,0.7c1.3,2.3,2.5,4.7,3.6,7
		C88.5,76.9,84,77.8,79.5,78.3z"/>
</g>
</svg>
