<?xml version="1.0" encoding="utf-8"?>
<!-- Generator: Adobe Illustrator 24.3.0, SVG Export Plug-In . SVG Version: 6.00 Build 0)  -->
<svg version="1.1" id="Layer_1" xmlns="http://www.w3.org/2000/svg" xmlns:xlink="http://www.w3.org/1999/xlink" x="0px" y="0px"
	 viewBox="0 0 100 100" style="enable-background:new 0 0 100 100;" xml:space="preserve">
<style type="text/css">
	.ubuntu0{fill:#EE5586;}
</style>
<g>
	<circle id="svg-ico" class="ubuntu0" cx="11.4" cy="50" r="9.1"/>
	<path id="svg-ico" class="ubuntu0" d="M36,83.1C28,77.7,22,69.5,19.6,60c2.9-2.4,4.7-5.9,4.7-10s-1.8-7.6-4.7-10
		C22,30.5,28,22.3,36,16.9l6.7,11.2C35.8,33,31.3,41,31.3,50s4.5,17,11.4,21.9L36,83.1z"/>
	<ellipse id="XMLID_6_" class="ubuntu0" cx="81.3" cy="9.6" rx="9.1" ry="9.1"/>
	<path id="svg-ico" class="ubuntu0" d="M40.4,14.4c8.6-4.3,18.7-5.3,28.2-2.7c0.6,3.7,2.8,7.1,6.3,9.1s7.5,2.2,11,0.9
		c7.1,6.9,11.2,16.2,11.8,25.8l-13,0.2c-0.8-8.4-5.4-16.3-13.3-20.8c-7.8-4.5-17-4.6-24.6-1.1L40.4,14.4z"/>
	<ellipse id="svg-ico" class="ubuntu0" cx="81.4" cy="90.4" rx="9.1" ry="9.1"/>
	<path id="svg-ico" class="ubuntu0" d="M97.7,52.6c-0.6,9.6-4.7,18.9-11.8,25.8c-3.5-1.3-7.5-1.1-11,0.9s-5.7,5.4-6.3,9.1
		C59.1,91,49,90,40.4,85.7l6.4-11.4c7.6,3.5,16.8,3.4,24.6-1.1s12.5-12.4,13.3-20.8L97.7,52.6z"/>
</g>
</svg>
