<?xml version="1.0" encoding="utf-8"?>
<!-- Generator: Adobe Illustrator 24.3.0, SVG Export Plug-In . SVG Version: 6.00 Build 0)  -->
<svg version="1.1" id="Layer_1" xmlns="http://www.w3.org/2000/svg" xmlns:xlink="http://www.w3.org/1999/xlink" x="0px" y="0px"
	 viewBox="0 0 100 100" style="enable-background:new 0 0 100 100;" xml:space="preserve">
<style type="text/css">
	.webmin0{fill:#EE5586;}
</style>
<g>
	<path id="svg-ico" class="webmin0" d="M99.6,60.3c0-5.3-2.8-10.3-7.6-13.1l-15.6-8.8V19.7c0.2-8.3-6.5-15-14.9-15c-4.4,0-8.7,1.9-11.5,5.3
		c-5.3-6.4-14.9-7.1-21.2-1.8c-3.4,2.8-5.3,7.1-5.3,11.5v18.7L8,47.3c-7.1,4.1-9.7,13.3-5.7,20.5c2.3,3.9,6.2,6.7,10.6,7.4
		c-2.8,7.8,1.2,16.4,9,19.3c1.6,0.5,3.4,0.9,5.1,0.9c2.7,0,5.3-0.7,7.6-1.9l15.6-8.8l15.6,8.8c2.3,1.4,5,1.9,7.6,1.9
		c8.3,0,15-6.7,15-15c0-1.8-0.4-3.5-0.9-5.1C94.4,73.8,99.6,67.6,99.6,60.3z M84.5,68.3c-1.4,0-2.8-0.4-4.1-1.1l0,0l-17.1-9.9
		c-1.6-1.1-3.9-0.5-5,1.1s-0.5,3.9,1.1,5l0.2,0.2l17.1,9.9c3.9,2.1,5.1,7.1,3,11s-7.1,5.1-11,2.8l-17-10.1c-1.1-0.7-2.5-0.7-3.5,0
		L31,87c-3.9,2.1-8.7,0.9-10.8-2.8c-2.1-3.9-0.9-8.7,2.8-11l0,0l17.1-9.9c1.8-0.9,2.5-3,1.4-4.8c-0.9-1.8-3-2.5-4.8-1.4l-0.2,0.2
		l-17.1,9.9c-3.9,2.1-8.7,0.9-10.8-2.8c-2.1-3.9-0.9-8.7,2.8-11l17.3-9.9c1.1-0.7,1.8-1.8,1.8-3V19.7c0-4.4,3.5-8,8-8s8,3.5,8,8
		v19.8c0,1.9,1.6,3.5,3.5,3.5s3.5-1.6,3.5-3.5V19.7c0-4.4,3.5-8,8-8c4.4,0,8,3.5,8,8v20.9c0,1.2,0.7,2.5,1.8,3.2l17.3,9.9
		c3.7,2.3,5,7.1,2.8,11C89.9,66.7,87.4,68.3,84.5,68.3z"/>
</g>
</svg>
