<?xml version="1.0" encoding="utf-8"?>
<!-- Generator: Adobe Illustrator 24.3.0, SVG Export Plug-In . SVG Version: 6.00 Build 0)  -->
<svg version="1.1" id="Layer_1" xmlns="http://www.w3.org/2000/svg" xmlns:xlink="http://www.w3.org/1999/xlink" x="0px" y="0px"
	 viewBox="0 0 100 100" style="enable-background:new 0 0 100 100;" xml:space="preserve">
<style type="text/css">
	.wordpress0{fill:#EE5586;}
</style>
<g>
	<path id="svg-ico" class="wordpress0" d="M50,0.4C22.6,0.4,0.4,22.6,0.4,50S22.6,99.6,50,99.6S99.6,77.4,99.6,50S77.4,0.4,50,0.4z M50,6.2
		c11.8,0,23.3,4.8,31.5,13.3c-1-0.2-1.7-0.2-2.7,0c-4.2,0.6-7.2,4.4-6.9,8.6c0.2,2.7,1.1,5.3,2.7,7.6c2.1,3.4,4,6.7,1.7,13.7
		l-8.4,26.3L53.4,30.9h2.7c1.5,0,2.9-1.3,2.9-2.9s-1.3-2.9-2.9-2.9H38.9c-1.5,0-2.9,1.3-2.9,2.9s1.3,2.9,2.9,2.9h3.2l4,12.6
		L35.7,75.7L21,30.9h2.7c1.5,0,2.9-1.3,2.9-2.9s-1.3-2.9-2.9-2.9l0,0H14C22.2,13.4,35.5,6.2,50,6.2z M6.2,50c0-6.3,1.3-12.4,4-18.1
		l18.3,56.2C14.7,80.3,6.2,65.8,6.2,50z M37.2,91.9L49.6,54L62,92.3C53.8,94.4,45.2,94.4,37.2,91.9z M70.4,88.7l18.9-58.1
		C99.8,51.9,91.4,77.6,70.4,88.7z"/>
</g>
</svg>
