<?xml version="1.0" encoding="utf-8"?>
<!-- Generator: Adobe Illustrator 24.3.0, SVG Export Plug-In . SVG Version: 6.00 Build 0)  -->
<svg version="1.1" id="Layer_1" xmlns="http://www.w3.org/2000/svg" xmlns:xlink="http://www.w3.org/1999/xlink" x="0px" y="0px"
	 viewBox="0 0 32 32" style="enable-background:new 0 0 32 32;" xml:space="preserve">
<style type="text/css">
	.sidebarmenu0{fill:#EE5586;}
</style>
<g>
	<path id="svg-ico" class="sidebarmenu0" d="M22,0.4H10c-5.2,0-9.5,4.3-9.5,9.5V22c0,5.2,4.3,9.5,9.5,9.5H22c5.2,0,9.5-4.3,9.5-9.5V10
		C31.5,4.7,27.3,0.4,22,0.4z M2.5,22V10c0-3.7,2.8-6.9,6.4-7.4v26.9C5.2,28.9,2.5,25.8,2.5,22z M29.5,22c0,4.1-3.4,7.5-7.5,7.5H10.8
		V2.4H22c4.1,0,7.5,3.4,7.5,7.5V22z"/>
	<path id="svg-ico" class="sidebarmenu0" d="M21.7,11c-0.4-0.4-1-0.4-1.4,0L16.2,15c-0.2,0.2-0.3,0.4-0.3,0.7s0.1,0.5,0.3,0.7l4,4c0.2,0.2,0.5,0.3,0.7,0.3
		s0.5-0.1,0.7-0.3c0.4-0.4,0.4-1,0-1.4l-3.3-3.3l3.4-3.4C22,12,22,11.4,21.7,11z"/>
</g>
</svg>
