<?xml version="1.0" encoding="utf-8"?>
<!-- Generator: Adobe Illustrator 22.0.0, SVG Export Plug-In . SVG Version: 6.00 Build 0)  -->
<svg version="1.1" id="Layer_1" xmlns="http://www.w3.org/2000/svg" xmlns:xlink="http://www.w3.org/1999/xlink" x="0px" y="0px"
	 viewBox="0 0 80 80" style="enable-background:new 0 0 80 80;" xml:space="preserve">
<style type="text/css">
	.st0{fill:#FFFFFF;}
</style>
<path class="st0" d="M40,0.1C18,0.1,0.1,18,0.1,40S18,79.9,40,79.9C62,79.9,79.9,62,79.9,40C79.9,18,62,0.1,40,0.1z M40,74.9
	L40,74.9c-15.3,0-28.4-9.9-33.1-23.7h46.8c0,0,0,0,0,0c0.2,0,0.3,0,0.5-0.1c0.1,0,0.1,0,0.2,0c0.1,0,0.2-0.1,0.3-0.1
	c0.1,0,0.1,0,0.2-0.1c0.1,0,0.2-0.1,0.3-0.2c0.1,0,0.1-0.1,0.2-0.1c0.1-0.1,0.2-0.2,0.3-0.3c0,0,0,0,0.1-0.1
	c0.1-0.1,0.2-0.2,0.3-0.4c0,0,0-0.1,0.1-0.1c0.1-0.1,0.1-0.2,0.2-0.3c0-0.1,0-0.1,0.1-0.2c0-0.1,0.1-0.1,0.1-0.2l7.2-24.5
	c0.4-1.5-5.9,0-6.3,1.5l-5.7,19.4H40.1l4.8-16.3c0.4-1.5-5.9,0.1-6.3,1.5l-4.3,14.8H22.6l3.5-11.8c0.4-1.5-5.9,0.1-6.3,1.5l-3,10.2
	H5.5c-0.3-1.8-0.5-3.7-0.5-5.6C5.1,20.7,20.7,5.1,40,5.1c19.3,0,34.9,15.7,34.9,34.9C74.9,59.3,59.3,74.9,40,74.9z"/>
</svg>
