<?xml version="1.0" encoding="utf-8"?>
<!-- Generator: Adobe Illustrator 24.3.0, SVG Export Plug-In . SVG Version: 6.00 Build 0)  -->
<svg version="1.1" id="Layer_1" xmlns="http://www.w3.org/2000/svg" xmlns:xlink="http://www.w3.org/1999/xlink" x="0px" y="0px"
	 viewBox="0 0 103 284" style="enable-background:new 0 0 103 284;" xml:space="preserve">
<style type="text/css">
	.blob0{fill:#EE5586;}
	.blob1{fill:#EFEFEF;}
	.blob2{fill:#F5F5F5;}
</style>
<circle id="svg-ico"  class="blob0" cx="13.5" cy="26.5" r="5.5"/>
<circle class="blob1" cx="13.5" cy="5.5" r="5.5"/>
<circle id="svg-ico"  class="blob0" cx="13.5" cy="47.5" r="5.5"/>
<circle class="blob1" cx="13.5" cy="68.5" r="5.5"/>
<circle id="svg-ico"  class="blob0" cx="13.5" cy="89.5" r="5.5"/>
<circle class="blob1" cx="13.5" cy="110.5" r="5.5"/>
<circle class="blob2" cx="13.5" cy="131.5" r="5.5"/>
<circle id="svg-ico"  class="blob0" cx="13.5" cy="152.5" r="5.5"/>
<circle class="blob1" cx="13.5" cy="173.5" r="5.5"/>
<circle class="blob1" cx="13.5" cy="194.5" r="5.5"/>
<circle class="blob2" cx="13.5" cy="215.5" r="5.5"/>
<circle id="svg-ico"  class="blob0" cx="13.5" cy="236.5" r="5.5"/>
<circle class="blob1" cx="13.5" cy="257.5" r="5.5"/>
<circle class="blob2" cx="13.5" cy="278.5" r="5.5"/>
<circle class="blob1" cx="34.5" cy="26.5" r="5.5"/>
<circle class="blob1" cx="34.5" cy="47.5" r="5.5"/>
<circle class="blob1" cx="34.5" cy="68.5" r="5.5"/>
<circle id="svg-ico"  class="blob0" cx="34.5" cy="89.5" r="5.5"/>
<circle class="blob1" cx="34.5" cy="110.5" r="5.5"/>
<circle class="blob1" cx="34.5" cy="131.5" r="5.5"/>
<circle class="blob1" cx="34.5" cy="152.5" r="5.5"/>
<circle class="blob2" cx="34.5" cy="173.5" r="5.5"/>
<circle id="svg-ico"  class="blob0" cx="34.5" cy="194.5" r="5.5"/>
<circle class="blob1" cx="34.5" cy="215.5" r="5.5"/>
<circle id="svg-ico"  class="blob0" cx="34.5" cy="236.5" r="5.5"/>
<circle class="blob1" cx="34.5" cy="257.5" r="5.5"/>
<circle id="svg-ico"  class="blob0" cx="55.5" cy="47.5" r="5.5"/>
<circle class="blob2" cx="55.5" cy="68.5" r="5.5"/>
<circle class="blob1" cx="55.5" cy="89.5" r="5.5"/>
<circle class="blob2" cx="55.5" cy="110.5" r="5.5"/>
<circle id="svg-ico"  class="blob0" cx="55.5" cy="131.5" r="5.5"/>
<circle id="svg-ico"  class="blob0" cx="55.5" cy="152.5" r="5.5"/>
<circle class="blob1" cx="55.5" cy="173.5" r="5.5"/>
<circle class="blob1" cx="55.5" cy="194.5" r="5.5"/>
<circle class="blob1" cx="76.6" cy="194.5" r="5.5"/>
<circle class="blob1" cx="55.5" cy="215.5" r="5.5"/>
<circle class="blob2" cx="55.5" cy="236.5" r="5.5"/>
<circle class="blob1" cx="76.5" cy="89.5" r="5.5"/>
<circle class="blob1" cx="76.5" cy="110.5" r="5.5"/>
<circle class="blob1" cx="76.5" cy="131.5" r="5.5"/>
<circle id="svg-ico"  class="blob0" cx="97.5" cy="131.5" r="5.5"/>
<circle class="blob2" cx="76.5" cy="152.5" r="5.5"/>
<circle class="blob1" cx="97.5" cy="152.5" r="5.5"/>
<circle id="svg-ico"  class="blob0" cx="76.5" cy="173.5" r="5.5"/>
</svg>
